<svg xmlns="http://www.w3.org/2000/svg" xml:space="preserve" width="1500" height="1500" data-id="lg_P1qBS4tE7DYgziyaAp" data-version="1" viewBox="0 0 1500 1500"><path fill="#fff" stroke="transparent" d="M0 0h1500v1500H0z"/><g data-padding="20"><g transform="translate(-573.792 -587.425)scale(1.7249)"><rect width="408.6" height="133.34" x="162.304" y="308.672" fill="none" rx="0" ry="0" transform="translate(476.2 400.02)"/><path fill="#2ee87b" d="M644.494 811.932v-5.43h8.85v-71.51h-8.85v-5.42h60.89v19.82h-8.5v-14.04h-33.39v31.27h23.36v-9.44h7.08v24.66h-7.08v-9.44h-23.36v33.75h34.57v-15.11h8.5v20.89Zm91.33 0v-5.43h11.21v-71.15h-20.77v14.04h-8.49v-19.82h68.67v19.82h-8.49v-14.04h-20.77v71.15h11.21v5.43Zm61.24 0v-5.43h8.85v-71.51h-8.85v-5.42h27.85v5.42h-8.85v32.1h41.89v-32.1h-8.85v-5.42h27.85v5.42h-8.85v71.51h8.85v5.43h-27.85v-5.43h8.85v-33.63h-41.89v33.63h8.85v5.43Zm88.26 0v-5.43h6.25l26.79-76.93h11.21l26.67 76.93h6.25v5.43h-27.85v-5.43h10.62l-7.31-21.36h-32.1l-7.32 21.36h10.62v5.43Zm36.34-73.75-14.16 41.3h28.68l-13.81-41.3Zm49.22 73.75v-5.43h8.85v-71.51h-8.85v-5.42h38.47q10.97 0 17.05 5.48 6.07 5.49 6.07 16.35 0 8.37-4.66 13.98-4.66 5.6-13.63 7.26l13.81 25.6q2.36 4.25 5.31 6.26 2.95 2 7.32 2h1.06v5.43h-7.55q-3.43 0-5.73-.71t-4.07-2q-1.77-1.3-3.12-3.31-1.36-2-2.78-4.6l-14.63-27.26h-13.92v32.45h8.85v5.43Zm19-76.58v32.92h18.52q6.37 0 9.8-3.95 3.42-3.96 3.42-9.74v-5.43q0-5.78-3.42-9.79-3.43-4.01-9.8-4.01Zm-431.017 67.25c-21.38-.162-33.443-18.026-38.555-27.295-5.112-9.28-9.47-8.313-8.54-11.843 1.503-5.734 13.983 4.814 19.682 11.478 5.698 6.66 13.896 11.092 24.9 11.512-4.533-7.29-19.018-11.617-14.557-13.968 4.123-2.172 17.259.445 35.597 8.375 6.29 2.72 10.784 7.725 13.974 13.126 47.376-53.672-4.483-96.624-42.304-64.822-18.445-15.51-40.23-13.237-52.213-.615 6.776 2.199 15.279 3.802 24.49 3.87 21.379.164 33.445 18.028 38.555 27.297 5.11 9.28 9.469 8.313 8.542 11.843-1.504 5.734-13.984-4.814-19.684-11.478-5.698-6.66-13.896-11.09-24.9-11.512 4.533 7.29 19.02 11.617 14.557 13.968-4.121 2.174-17.257-.444-35.597-8.375-6.008-2.598-10.377-7.28-13.536-12.4-6.262 21.21 6.432 53.915 59.786 85.843 12.363-7.398 22.54-14.838 30.808-22.168a83.8 83.8 0 0 0-21.005-2.835"/></g><path fill="transparent" stroke="transparent" stroke-width="1.789" d="M250 631.038h1000v237.924H250z"/></g></svg>