<svg xmlns="http://www.w3.org/2000/svg" xmlns:xlink="http://www.w3.org/1999/xlink" width="48" height="48" viewBox="0 0 48 48">

	<g id="Group_293" data-name="Group 293" transform="translate(-4.45)">
		<g transform="matrix(1, 0, 0, 1, -30.55, -20)" filter="url(#Ellipse_54)">
			<circle id="Ellipse_54-2" data-name="Ellipse 54" cx="24" cy="24" r="24" transform="translate(4.45 70)" fill="#fff"/>
		</g>
		<g id="Group_12130" data-name="Group 12130" transform="translate(-1215.226 -434.047)">
			<g id="outline" transform="translate(1232.388 442.722)">
				<path id="Path_6709" data-name="Path 6709" d="M490.834,287.513v.764a5.243,5.243,0,0,0,5.237,5.236h3.534l-.016,5.444-.019-.026a4.348,4.348,0,0,0-7.7,1.554,5.173,5.173,0,0,0,.493,3.774,4.376,4.376,0,0,0-1.849,1.354,6.543,6.543,0,0,0-1.429,4.075v.938l-.608,3.65a.549.549,0,0,0,.451.631.523.523,0,0,0,.091.007h9.851a.555.555,0,0,0,.246-.058l1.2-.6,5.5-1.835a.548.548,0,0,0,.246-.166l6.123-7.236a2.512,2.512,0,0,0-1.918-4.134,2.775,2.775,0,0,0-1.84.692,5.178,5.178,0,0,0-.152-1.093,4.346,4.346,0,0,0-7.592-1.685l.022-7.482h3.806a5.68,5.68,0,0,0,5.673-5.673v-.835a.548.548,0,0,0-.549-.548h-4.41a5.681,5.681,0,0,0-5.608,4.82,5.232,5.232,0,0,0-4.2-2.118h-4.034a.549.549,0,0,0-.549.549Zm19.437,14.471a1.415,1.415,0,0,1,1.08,2.328l-6.024,7.119-5.4,1.8a.5.5,0,0,0-.071.03l-1.116.558h-9.074l.509-3.055a.525.525,0,0,0,.007-.091v-.983a5.444,5.444,0,0,1,1.189-3.389,3.276,3.276,0,0,1,2.572-1.237h6.773a1.3,1.3,0,0,1,.019,2.6h-3.1a.548.548,0,0,0-.3.092l-1.709,1.14h-1.682a.549.549,0,0,0,0,1.1H495.8a.549.549,0,0,0,.3-.092l1.709-1.139h2.913a2.4,2.4,0,0,0,2.4-2.4c0-.073,0-.146-.01-.217l3.329-1.109a.555.555,0,0,0,.215-.133l2.421-2.421a1.683,1.683,0,0,1,1.2-.5Zm-8.81-2.393a3.25,3.25,0,0,1,5.754,1.162,4.1,4.1,0,0,1-.016,2.05l-1.232,1.232L502.76,305.1a2.4,2.4,0,0,0-2.038-1.138h-6.773a4.6,4.6,0,0,0-.463.025,4.08,4.08,0,0,1-.547-3.238,3.25,3.25,0,0,1,5.753-1.162l.946,1.261a.549.549,0,0,0,.439.219h.057a.549.549,0,0,0,.533-.421Zm-.807-9.656a4.58,4.58,0,0,1,4.575-4.575h3.862v.286a4.581,4.581,0,0,1-4.576,4.575h-3.861Zm-8.723-1.873h3.486a4.143,4.143,0,0,1,4.139,4.139v.215h-3.485a4.143,4.143,0,0,1-4.139-4.139Z" transform="translate(-488.474 -284.262)" fill="#0d8f75"/>
				<path id="Path_6710" data-name="Path 6710" d="M497.137,305.638a.548.548,0,0,0-.736.245,3.016,3.016,0,0,0,0,2.685.548.548,0,1,0,.981-.49,1.915,1.915,0,0,1,0-1.7A.548.548,0,0,0,497.137,305.638Z" transform="translate(-490.431 -289.744)" fill="#0d8f75"/>
			</g>
			<g id="Group_9899" data-name="Group 9899" transform="translate(1227.133 446.238)">
				<path id="Path_6711" data-name="Path 6711" d="M486.16,310.378a15.414,15.414,0,0,1,.048-20.1l-.751-.751a16.5,16.5,0,0,0,.7,22.432Z" transform="translate(-481.401 -289.261)" fill="#214570"/>
				<path id="Path_6712" data-name="Path 6712" d="M519.117,289.169l-.761.761a15.39,15.39,0,0,1-2.24,22.727v1.324a16.635,16.635,0,0,0,2.452-2.021,16.506,16.506,0,0,0,.548-22.791Z" transform="translate(-490.328 -289.169)" fill="#214570"/>
			</g>
		</g>
	</g>
</svg>
