<svg xmlns="http://www.w3.org/2000/svg" width="48" height="48" viewBox="0 0 48 48">
  <g id="Group_9836" data-name="Group 9836" transform="translate(-2691.477 522)">
    <g id="Group_9831" data-name="Group 9831" transform="translate(1006.477 -522)">
      <g id="Group_293" data-name="Group 293" transform="translate(1680.55)">
        <g id="Group_9832" data-name="Group 9832">
          <circle id="Ellipse_54" data-name="Ellipse 54" cx="24" cy="24" r="24" transform="translate(4.45)" fill="#fff"/>
          <g id="Group_9220" data-name="Group 9220" transform="translate(-361.545 -267.104)">
            <g id="Group_9217" data-name="Group 9217" transform="translate(385.653 286.549)">
              <path id="Path_5649" data-name="Path 5649" d="M390.813,292.188a.64.64,0,0,0,.159.447,1.108,1.108,0,0,0,.4.273,6.156,6.156,0,0,0,.655.218,6.724,6.724,0,0,1,.853.307,1.517,1.517,0,0,1,.563.451,1.262,1.262,0,0,1,.232.795,1.4,1.4,0,0,1-.557,1.22,2.335,2.335,0,0,1-1.394.4,2.381,2.381,0,0,1-1.389-.366,1.58,1.58,0,0,1-.606-1.223l.8-.118a1.5,1.5,0,0,0,.363.754,1.144,1.144,0,0,0,.85.266,1.435,1.435,0,0,0,.765-.188.675.675,0,0,0,.307-.624.667.667,0,0,0-.159-.459,1.051,1.051,0,0,0-.4-.273,6.526,6.526,0,0,0-.651-.206,6.362,6.362,0,0,1-.857-.292,1.412,1.412,0,0,1-.559-.451,1.328,1.328,0,0,1-.232-.823,1.389,1.389,0,0,1,.243-.82,1.528,1.528,0,0,1,.665-.528,2.383,2.383,0,0,1,.953-.182,1.574,1.574,0,0,1,1.819,1.537l-.8.1a1.285,1.285,0,0,0-.288-.688.959.959,0,0,0-.739-.243,1.2,1.2,0,0,0-.746.192A.641.641,0,0,0,390.813,292.188Z" transform="translate(-389.727 -290.761)" fill="#0d8f75"/>
              <path id="Path_5650" data-name="Path 5650" d="M398.089,294.089H397.07v2.151h-.858v-5.351h1.937a1.809,1.809,0,0,1,1.334.418,1.449,1.449,0,0,1,.41,1.06,1.607,1.607,0,0,1-.262.95,1.523,1.523,0,0,1-.728.551l1.278,2.373h-.939Zm.909-1.662a.715.715,0,0,0-.277-.643,1.524,1.524,0,0,0-.838-.185h-.813v1.8h.835a1.311,1.311,0,0,0,.806-.218A.883.883,0,0,0,399,292.426Z" transform="translate(-391.327 -290.793)" fill="#0d8f75"/>
            </g>
            <g id="Group_9218" data-name="Group 9218" transform="translate(373.217 277.467)">
              <path id="Path_5651" data-name="Path 5651" d="M375.239,298.75a15.632,15.632,0,0,1,7.212-19.065l-.445-.981a16.735,16.735,0,0,0-7.329,21.545Z" transform="translate(-373.217 -278.704)" fill="#214570"/>
              <path id="Path_5652" data-name="Path 5652" d="M412.348,290.074l-.993.45A15.608,15.608,0,0,1,401.128,311.3l-.472,1.256a16.886,16.886,0,0,0,3.048-1.045,16.738,16.738,0,0,0,8.645-21.44Z" transform="translate(-379.987 -281.509)" fill="#214570"/>
            </g>
            <g id="Group_9219" data-name="Group 9219" transform="translate(377.363 273.691)">
              <g id="outline" transform="translate(0 19.184)">
                <path id="Path_5653" data-name="Path 5653" d="M400.9,299.722a2.381,2.381,0,0,0-1.537-.563,2.627,2.627,0,0,0-1.743.655c0-.014,0-.026,0-.04a5.967,5.967,0,0,1-.573.666,7.817,7.817,0,0,1-.588.517l0,.017-1.168,1.168-3.037,1.012a2.27,2.27,0,0,0-1.931-1.078h-6.128a.415.415,0,0,1-.108.036c-.359.05-.721.076-1.081.12a3.248,3.248,0,0,0-.633.145.715.715,0,0,0-.108.06l0,0a.658.658,0,0,1-.289.118,4.144,4.144,0,0,0-1.321,1.084A6.2,6.2,0,0,0,379.3,307.5v.888l-.575,3.458a.519.519,0,0,0,.427.6.534.534,0,0,0,.085.007h9.332a.521.521,0,0,0,.233-.055l1.133-.566,5.214-1.738a.526.526,0,0,0,.233-.157l5.8-6.855A2.379,2.379,0,0,0,400.9,299.722Zm-.514,2.682-5.705,6.743-5.111,1.7a.544.544,0,0,0-.068.029l-1.057.528h-8.595l.482-2.894a.533.533,0,0,0,.007-.085V307.5a5.167,5.167,0,0,1,1.126-3.21,3.109,3.109,0,0,1,2.437-1.171h6.415a1.23,1.23,0,0,1,.018,2.46h-2.933a.516.516,0,0,0-.288.087l-1.619,1.079h-1.592a.52.52,0,0,0,0,1.04h1.75a.515.515,0,0,0,.288-.087l1.619-1.079h2.758a2.272,2.272,0,0,0,2.27-2.27q0-.1-.009-.206l3.153-1.051a.52.52,0,0,0,.2-.126l2.293-2.293a1.6,1.6,0,0,1,1.137-.471,1.339,1.339,0,0,1,1.022,2.2Z" transform="translate(-378.72 -299.159)" fill="#0d8f75"/>
              </g>
              <path id="Path_5654" data-name="Path 5654" d="M388.924,298.895a3.488,3.488,0,0,1,1.38-.283,7.141,7.141,0,1,1,2.914.625c-.184,0-.365-.014-.545-.027.176.105.348.218.527.334a1.982,1.982,0,0,0,1.327.264,6.092,6.092,0,0,0,2.692-1.068,4,4,0,0,0,1-1.1,16.24,16.24,0,0,1,1.1-1.39.635.635,0,0,1,1.015.079,8.289,8.289,0,1,0-11.617,2.715A.6.6,0,0,1,388.924,298.895Z" transform="translate(-380.252 -276.184)" fill="#0d8f75"/>
              <path id="Path_5655" data-name="Path 5655" d="M396.32,279.7v-5.433a.572.572,0,1,0-1.143,0V279.7a.572.572,0,1,0,1.143,0Z" transform="translate(-382.781 -273.691)" fill="#0d8f75"/>
              <path id="Path_5656" data-name="Path 5656" d="M402.012,280.632v-2.574a.572.572,0,0,0-1.143,0v2.574a.572.572,0,1,0,1.143,0Z" transform="translate(-384.185 -274.627)" fill="#0d8f75"/>
              <path id="Path_5657" data-name="Path 5657" d="M390.625,280.632v-2.574a.572.572,0,0,0-1.143,0v2.574a.572.572,0,1,0,1.143,0Z" transform="translate(-381.376 -274.627)" fill="#0d8f75"/>
            </g>
          </g>
        </g>
      </g>
    </g>
  </g>
</svg>
