<svg xmlns="http://www.w3.org/2000/svg" width="48" height="48" viewBox="0 0 48 48">
  <g id="Group_293" data-name="Group 293" transform="translate(-4.45)">
    <circle id="Ellipse_54" data-name="Ellipse 54" cx="24" cy="24" r="24" transform="translate(4.45)" fill="#fff"/>
    <g id="Group_9167" data-name="Group 9167" transform="translate(11.326 6.733)">
      <g id="Group_9165" data-name="Group 9165" transform="translate(0.453)">
        <path id="Path_5563" data-name="Path 5563" d="M231.092,279.648a17.167,17.167,0,0,0-22.125-1.841c.3.239.593.479.891.715a16.068,16.068,0,0,1,25.12,12.239c.383.265.765.534,1.139.809A17.075,17.075,0,0,0,231.092,279.648Z" transform="translate(-202.184 -274.61)" fill="#214570"/>
        <path id="Path_5564" data-name="Path 5564" d="M223.659,312.349a16.057,16.057,0,0,1-21.931-9.7q-.714-.55-1.436-1.089a17.165,17.165,0,0,0,23.932,11.74C224.045,312.977,223.854,312.661,223.659,312.349Z" transform="translate(-200.292 -280.488)" fill="#214570"/>
      </g>
      <g id="NdYI2d.tif" transform="translate(0 5.904)">
        <g id="Group_9166" data-name="Group 9166">
          <path id="Path_5565" data-name="Path 5565" d="M215.053,282.16a15.391,15.391,0,0,1,7.813,2.113,29.079,29.079,0,0,1,7.836,6.688,2.574,2.574,0,0,1,.011,3.375c-.317.389-.658.759-1,1.13a.509.509,0,0,1-.769.1c-.228-.213-.212-.48.046-.773.318-.361.648-.712.953-1.085a1.574,1.574,0,0,0,.005-2.1,27.913,27.913,0,0,0-7.927-6.667,13.861,13.861,0,0,0-6.116-1.781,12.37,12.37,0,0,0-5.111.955,22.92,22.92,0,0,0-7.4,5.034c-.757.736-1.466,1.522-2.174,2.305a1.631,1.631,0,0,0-.015,2.39,29.174,29.174,0,0,0,6.832,5.957A16.866,16.866,0,0,0,212,301.6c.4.119.555.348.462.65a.485.485,0,0,1-.708.3,34.527,34.527,0,0,1-3.259-1.369,27.232,27.232,0,0,1-7.385-5.962q-.369-.406-.725-.825a2.569,2.569,0,0,1-.063-3.4,28.666,28.666,0,0,1,8.262-6.945A14.658,14.658,0,0,1,215.053,282.16Z" transform="translate(-199.712 -282.16)" fill="#0d8f75"/>
          <path id="Path_5566" data-name="Path 5566" d="M209.421,293.9c-.009-4.745,3.031-8.235,7.115-8.8a8.253,8.253,0,0,1,8.617,4.8c.153.35.083.626-.192.754s-.54,0-.7-.331c-.032-.066-.058-.135-.091-.2a7.138,7.138,0,0,0-4.3-3.749,7.253,7.253,0,1,0-4.086,13.914q.076.02.15.045a.5.5,0,0,1,.377.6.462.462,0,0,1-.608.346,11.017,11.017,0,0,1-1.924-.735A7.917,7.917,0,0,1,209.421,293.9Z" transform="translate(-201.83 -282.784)" fill="#0d8f75"/>
          <path id="Path_5567" data-name="Path 5567" d="M214.894,294.328a3.658,3.658,0,0,0,.389,1.606.48.48,0,0,1-.306.739.511.511,0,0,1-.6-.339,4.7,4.7,0,0,1,1.578-5.972,4.573,4.573,0,0,1,5.116-.133.688.688,0,0,1,.334.38.667.667,0,0,1-.162.494c-.166.182-.389.112-.608.02a7.029,7.029,0,0,0-1.483-.547A3.709,3.709,0,0,0,214.894,294.328Z" transform="translate(-202.805 -283.763)" fill="#0d8f75"/>
        </g>
      </g>
      <path id="Path_5568" data-name="Path 5568" d="M224.494,296.387a1.587,1.587,0,0,1,2.041-1.085c.193.048.389.077.53-.146a1.282,1.282,0,0,1,.3-.269,1.38,1.38,0,0,1,2.086.271c.35.457.672.935,1.006,1.4.093.131.187.26.278.392a29.392,29.392,0,0,0,1.909,2.5,11.683,11.683,0,0,1,2.432,4.762,8.575,8.575,0,0,0,.862,1.937c.117.213.236.425.36.647l-6.17,4.379c-.261-.326-.523-.655-.788-.98a4.562,4.562,0,0,0-.363-.421,1.042,1.042,0,0,0-.327-.218c-.926-.37-1.859-.721-2.782-1.1a3.979,3.979,0,0,1-.8-.458,26.8,26.8,0,0,0-3.121-1.721c-.818-.436-1.649-.848-2.471-1.277a1.53,1.53,0,0,1-.9-1.394,1.5,1.5,0,0,1,2.1-1.417c.583.231,1.163.469,1.744.7a.492.492,0,0,0,.2.044l-.124-.175q-2.178-3.069-4.355-6.139a1.578,1.578,0,1,1,2.545-1.866c.529.73,1.046,1.471,1.569,2.207l.147.207A1.634,1.634,0,0,1,224.494,296.387Zm5.787,13.71c.047-.027.082-.043.113-.065q2.374-1.683,4.749-3.365c.115-.081.1-.141.041-.248a8.275,8.275,0,0,1-.893-2.065,10.317,10.317,0,0,0-2.035-4.107c-1.208-1.423-2.24-2.972-3.329-4.481l-.011-.016-.012-.016c-.377-.471-.691-.571-1.151-.145-.038.035-.081.064-.117.1-.221.228-.23.319-.045.58q.753,1.067,1.511,2.13c.033.047.069.093.1.142a.4.4,0,1,1-.654.449c-.032-.04-.06-.084-.09-.125q-.883-1.244-1.769-2.488a.957.957,0,0,0-.148-.174.788.788,0,0,0-1.161,1.049c.6.853,1.207,1.7,1.81,2.553.03.042.062.082.088.126a.4.4,0,0,1-.087.52.39.39,0,0,1-.524-.035,1.508,1.508,0,0,1-.142-.18q-1.008-1.416-2.015-2.831a.782.782,0,0,0-1.4.647,1.387,1.387,0,0,0,.2.386q.956,1.359,1.92,2.711c.033.047.068.093.1.142a.39.39,0,1,1-.634.453c-.04-.05-.075-.1-.113-.156l-4.422-6.232c-.038-.052-.073-.106-.113-.156a.793.793,0,0,0-.983-.223.773.773,0,0,0-.391.957,1.352,1.352,0,0,0,.183.312q2.549,3.595,5.1,7.188.556.782,1.11,1.566a.4.4,0,1,1-.645.466c-.208-.292-.432-.574-.618-.88a1.385,1.385,0,0,0-.741-.586c-.889-.34-1.767-.709-2.651-1.063a.7.7,0,0,0-.831.132.765.765,0,0,0,.256,1.234l4.817,2.485c.079.041.153.092.228.14.37.237.731.491,1.113.71a14.074,14.074,0,0,0,2.7,1.088,2.137,2.137,0,0,1,1.1.784C229.944,309.711,230.116,309.9,230.281,310.1Z" transform="translate(-203.666 -278.86)" fill="#0d8f75"/>
    </g>
  </g>
</svg>
