<svg xmlns="http://www.w3.org/2000/svg" width="334.281" height="45.115" viewBox="0 0 334.281 45.115"><defs><style>.a{fill:#214570;}</style></defs><g transform="translate(-15128.896 -2850)"><g transform="translate(15444.654 2856.544)"><path class="a" d="M1644.031-1130.523q.072-.508.327-.508a1.742,1.742,0,0,1,.745.345l3.087,2.252a1.065,1.065,0,0,0,.472.182.381.381,0,0,0,.282-.118.384.384,0,0,0,.118-.282.732.732,0,0,0-.218-.436l-2.524-2.87a1.573,1.573,0,0,1-.382-.726.294.294,0,0,1,.118-.273.932.932,0,0,1,.445-.073l1.888.182v-.09a7.011,7.011,0,0,0-.69-2.634,25.266,25.266,0,0,0-1.671-3.106q-.617-1.017-1.026-1.579t-1.262-1.544q-.508-.581-.763-.89-.436-.508-.508-.6-.472-.527-.472-.744a.327.327,0,0,1,.127-.254.434.434,0,0,1,.291-.109.707.707,0,0,1,.363.146l.309.2.49.345a20.73,20.73,0,0,1,2,1.671,24.392,24.392,0,0,1,2.288,2.307,25.327,25.327,0,0,1,1.889,2.416q.635.98,1.025,1.725t.954,2.089l.273.636,2.578-.382a3.138,3.138,0,0,1,.436-.036.353.353,0,0,1,.4.4,1.23,1.23,0,0,1-.291.654l-2.251,3.232a1.193,1.193,0,0,0-.218.472.363.363,0,0,0,.136.282.448.448,0,0,0,.3.118,1.069,1.069,0,0,0,.581-.29l2.978-2.543a1.073,1.073,0,0,1,.618-.345.4.4,0,0,1,.336.19,1.01,1.01,0,0,1,.154.536v2.325q2.4,1.143,2.4,2.034a1.461,1.461,0,0,1-.663,1.035,5.757,5.757,0,0,1-1.735.926v2.088a2.177,2.177,0,0,1-.136.753.365.365,0,0,1-.354.191,1.327,1.327,0,0,1-.726-.364l-2.688-2.324a1.718,1.718,0,0,0-.781-.472.388.388,0,0,0-.29.135.453.453,0,0,0-.127.318,1.267,1.267,0,0,0,.309.672l2.324,3.16a1.183,1.183,0,0,1,.236.563c0,.279-.151.418-.454.418-.049,0-.127-.006-.237-.018l-2.687-.508a15.687,15.687,0,0,1-1.507,3.25,26.226,26.226,0,0,1-4.232,5.285,30.421,30.421,0,0,1-2.443,2.106,3.657,3.657,0,0,1-1.444.836.329.329,0,0,1-.236-.109.315.315,0,0,1-.109-.218.826.826,0,0,1,.255-.49l.654-.727.745-.854a23.223,23.223,0,0,0,1.925-2.506,22.452,22.452,0,0,0,1.6-2.724,9.834,9.834,0,0,0,1.217-3.868l-1.834.236a2.994,2.994,0,0,1-.4.036q-.4,0-.4-.364a.9.9,0,0,1,.181-.472l2.561-2.869a1.427,1.427,0,0,0,.418-.726q0-.383-.4-.382a1.29,1.29,0,0,0-.636.2l-3.105,2.4a1.262,1.262,0,0,1-.563.29q-.309,0-.363-.763v-2.142a7.43,7.43,0,0,1-1.807-1.026,1.382,1.382,0,0,1-.59-1.026,1.141,1.141,0,0,1,.218-.544,2.076,2.076,0,0,1,.509-.563,5.228,5.228,0,0,1,1.671-.89v-2.253Zm2.125,3h1.616l.054-.091-2.833-2.088v2.107a6.175,6.175,0,0,0-1.653.608q-.745.408-.744.735,0,.273.672.645a7.955,7.955,0,0,0,1.725.662v2.107l2.906-2.143-.091-.073h-1.652v-.763a2.5,2.5,0,0,1-1.235-.436,2.485,2.485,0,0,1,1.235-.49v-.781Zm3.432,4.74-2.27,2.343.109.09,2.4-.436-.054.272-.091.472a16.124,16.124,0,0,1-1.035,3.033q-.055.127-.182.4l.018,1.889a7.094,7.094,0,0,0,.753-.981,14.772,14.772,0,0,0,.881-1.508,16.176,16.176,0,0,0,1.38-3.523l2.578.562-1.907-2.778-.036.036v1.18h-.89l-.708,1.235h-.091v-1.235h-.853Zm.889-8.009v-1.253h.091l.708,1.253h.89v1.2h.127l1.816-2.8-2.6.6-.036-.182a15.624,15.624,0,0,0-1.244-3.2,11.924,11.924,0,0,0-1.716-2.651l.018,1.98a20.075,20.075,0,0,1,1.362,4.123l-2.415-.436-.109.073,2.252,2.4v-1.108h.854Zm-1.6,4.467a1.849,1.849,0,0,0,.572,1.353,1.874,1.874,0,0,0,1.371.572,1.872,1.872,0,0,0,1.371-.572,1.869,1.869,0,0,0,.572-1.371,1.87,1.87,0,0,0-.572-1.371,1.872,1.872,0,0,0-1.371-.572,1.862,1.862,0,0,0-1.38.572A1.907,1.907,0,0,0,1648.879-1126.329Zm6.755,1.345h-1.725v.054l2.887,2.107v-2.107a7.009,7.009,0,0,0,1.716-.644q.7-.391.7-.717,0-.508-2.415-1.307v-2.143l-2.888,2.216v.073h1.725v.762a2.368,2.368,0,0,1,1.181.436,3.1,3.1,0,0,1-1.181.436v.836Z" transform="translate(-1641.634 1144.398)"/></g><g transform="translate(15128.896 2856.131)"><path class="a" d="M31.756-1130.4a5.232,5.232,0,0,1,1.671.89,2.085,2.085,0,0,1,.509.563,1.14,1.14,0,0,1,.218.545,1.382,1.382,0,0,1-.59,1.026,7.431,7.431,0,0,1-1.807,1.026v2.142q-.054.763-.363.763a1.26,1.26,0,0,1-.563-.29l-3.106-2.4a1.285,1.285,0,0,0-.636-.2q-.4,0-.4.382a1.429,1.429,0,0,0,.418.726l2.561,2.869a.9.9,0,0,1,.181.472q0,.365-.4.364a3.02,3.02,0,0,1-.4-.036l-1.834-.236a9.839,9.839,0,0,0,1.217,3.868,22.464,22.464,0,0,0,1.6,2.724,23.291,23.291,0,0,0,1.925,2.506l.745.853.654.727a.825.825,0,0,1,.255.491.314.314,0,0,1-.109.218.328.328,0,0,1-.236.109,3.66,3.66,0,0,1-1.444-.836,30.482,30.482,0,0,1-2.443-2.106,26.235,26.235,0,0,1-4.231-5.285,15.671,15.671,0,0,1-1.508-3.25l-2.688.508c-.109.012-.188.018-.236.018q-.454,0-.454-.418a1.184,1.184,0,0,1,.236-.563l2.325-3.16a1.266,1.266,0,0,0,.309-.672.451.451,0,0,0-.127-.318.39.39,0,0,0-.291-.135,1.72,1.72,0,0,0-.781.472l-2.688,2.324a1.329,1.329,0,0,1-.726.364.365.365,0,0,1-.354-.191,2.177,2.177,0,0,1-.136-.754v-2.088a5.76,5.76,0,0,1-1.735-.926,1.459,1.459,0,0,1-.663-1.035q0-.89,2.4-2.034v-2.325a1.01,1.01,0,0,1,.154-.536.4.4,0,0,1,.336-.19,1.072,1.072,0,0,1,.618.345l2.978,2.542a1.067,1.067,0,0,0,.581.29.448.448,0,0,0,.3-.118.362.362,0,0,0,.136-.282,1.188,1.188,0,0,0-.218-.472l-2.251-3.232a1.228,1.228,0,0,1-.291-.654.353.353,0,0,1,.4-.4,3.133,3.133,0,0,1,.436.036l2.579.382.272-.636q.563-1.344.954-2.089t1.026-1.724a25.174,25.174,0,0,1,1.889-2.415,24.341,24.341,0,0,1,2.288-2.307,20.742,20.742,0,0,1,2-1.671l.49-.345.309-.2a.707.707,0,0,1,.363-.146.433.433,0,0,1,.291.109.325.325,0,0,1,.127.254q0,.218-.472.745-.073.091-.509.6-.255.309-.763.89-.854.98-1.262,1.544t-1.026,1.579a25.224,25.224,0,0,0-1.671,3.106,7.009,7.009,0,0,0-.69,2.634v.09l1.889-.182a.935.935,0,0,1,.445.073.294.294,0,0,1,.118.273,1.573,1.573,0,0,1-.381.726l-2.524,2.87a.733.733,0,0,0-.218.436.384.384,0,0,0,.118.281.381.381,0,0,0,.281.118,1.065,1.065,0,0,0,.472-.181l3.088-2.252a1.735,1.735,0,0,1,.745-.344q.255,0,.327.508v2.252Zm-11.6,2.451a3.1,3.1,0,0,1-1.181-.436,2.366,2.366,0,0,1,1.181-.436v-.762h1.725v-.073l-2.887-2.216v2.143q-2.415.8-2.415,1.308,0,.327.7.717a7.007,7.007,0,0,0,1.716.645v2.107l2.887-2.107v-.054H20.152v-.836Zm6.011-4.976v1.107l2.252-2.4-.109-.073-2.415.436a20.041,20.041,0,0,1,1.362-4.123l.018-1.979a11.909,11.909,0,0,0-1.716,2.651,15.632,15.632,0,0,0-1.244,3.2l-.036.182-2.6-.6,1.816,2.8h.127v-1.2h.89l.708-1.253h.091v1.253h.854Zm.036,9.062h-.853v1.235h-.091l-.708-1.235h-.89v-1.18l-.037-.036-1.907,2.778,2.579-.562a16.194,16.194,0,0,0,1.38,3.523,14.768,14.768,0,0,0,.881,1.508,7.1,7.1,0,0,0,.753.981l.019-1.89q-.128-.272-.182-.4a16.092,16.092,0,0,1-1.035-3.033l-.09-.472-.055-.273,2.4.436.109-.09-2.27-2.343Zm.145-5.984a1.864,1.864,0,0,0-1.38-.572,1.873,1.873,0,0,0-1.371.572,1.872,1.872,0,0,0-.572,1.371,1.87,1.87,0,0,0,.572,1.371,1.872,1.872,0,0,0,1.371.572,1.874,1.874,0,0,0,1.372-.572,1.851,1.851,0,0,0,.572-1.354A1.909,1.909,0,0,0,26.345-1129.843Zm3.287.972a2.484,2.484,0,0,1,1.235.49,2.5,2.5,0,0,1-1.235.436v.763H27.979l-.091.073,2.906,2.143v-2.107a7.96,7.96,0,0,0,1.725-.662c.448-.249.672-.463.672-.645q0-.327-.745-.735a6.159,6.159,0,0,0-1.653-.608v-2.107l-2.833,2.088.055.091h1.616v.781Z" transform="translate(-15.63 1146.523)"/></g><path class="a" d="M599.356-1134.916c-.324,1.129-1.052-.242-1.66-.081a4.832,4.832,0,0,0-1.985,2.419.489.489,0,0,0,.081.565.329.329,0,0,0,.366-.121,1.794,1.794,0,0,1,1.214-1.249,6.671,6.671,0,0,0,2.469,1.007,6.694,6.694,0,0,0,2.714-.847l.608-.363a3.361,3.361,0,0,0,1.458-3.224,2.161,2.161,0,0,0-1.62-1.251C601.341-1137.819,600.369-1136.125,599.356-1134.916Zm4.212-.725c.042.12.161.281.042.443a6.217,6.217,0,0,1-3.24,1.17c-.244-.042-.528,0-.647-.2.767-.807,1.457-1.976,2.549-2.258A1.68,1.68,0,0,1,603.568-1135.642Z" transform="translate(14645.875 3995.836)"/><path class="a" d="M605.932-1100.935c-.081.645-.526,1.17-.445,1.894.161,2.017.809,3.87.972,5.887.444,1.772.607,3.628.971,5.4.243,1.975.081,4.112.485,6.047l.122.121a6.09,6.09,0,0,0,.811-1.613,40.789,40.789,0,0,0-.852-10.924c-.406-1.492-.446-3.144-.931-4.636a17.723,17.723,0,0,0-.527-2.984C606.093-1101.781,606.093-1101.258,605.932-1100.935Z" transform="translate(14637.963 3966.571)"/><path class="a" d="M544.218-1145.332a.337.337,0,0,0,.325.121,3.542,3.542,0,0,1,2.794-1.29,4.25,4.25,0,0,1,1.862.484,10.852,10.852,0,0,0-2.916,2.54.418.418,0,0,0,.325.2c.85-.4,1.7-.967,2.591-1.29.608-.323,1.216-.846,1.823-1.249.2-.363.526-.807.283-1.21-1.417-.564-2.875-1.25-4.535-.927C545.635-1147.589,544.3-1146.661,544.218-1145.332Z" transform="translate(14687.326 4003.872)"/><path class="a" d="M505.669-1104.88a1.947,1.947,0,0,0,.566-.847c.2-.644-.566-1.088-1.011-1.451a5.368,5.368,0,0,0,.364-2.782c-.283-.6-.527-1.572-1.418-1.531a5.953,5.953,0,0,0-2.266,1.531c-.325.645-.891,1.331-.648,2.056.4,1.007,1.5,1.29,2.227,1.854-1.741,1.371-3.644,2.5-5.385,4.032-.08.041-.08.2,0,.282.728.161,1.134-.686,1.863-.645,1.458-1.049,3.158-1.493,4.373-3.024.162-.2.365-.121.568,0C505.224-1105.324,505.3-1104.88,505.669-1104.88Zm-3.321-3.952.082-.2c.486-.323.89-.887,1.5-.846a2.445,2.445,0,0,1,.81,2.338l-.081.081A6.163,6.163,0,0,1,502.348-1108.832Z" transform="translate(14724.539 3974.427)"/><path class="a" d="M408.935-1096.664l1.539-1.17c.243-.4.607-.886.282-1.331-1.66-.241-3.32-1.089-5.1-.563-.972.645-2.065,1.492-2.187,2.7a.225.225,0,0,0,.2.121l1.621-1.25c.606-.4,1.458-.12,2.106-.08a2.74,2.74,0,0,1,1.335.4,14.449,14.449,0,0,1-3.6,2.017c-.161.04-.4.12-.4.321.323.524.971.081,1.416,0C407.235-1095.375,408.044-1096.181,408.935-1096.664Z" transform="translate(14800.744 3965.082)"/><path class="a" d="M253.329-1072.62c.04.6-.689.968-.486,1.613a6.7,6.7,0,0,0,1.985,1.209c.364.2.566-.242.848-.362l.689-.968c.161-.444-.283-.726-.526-1.049a9.233,9.233,0,0,0-1.863-1.209A2.932,2.932,0,0,0,253.329-1072.62Z" transform="translate(14922.147 3943.72)"/><path class="a" d="M201.854-976.981c-.244.321-.365.765-.688.967-.689-.363-1.377-.846-2.065-1.17-.446-.161-.607.444-.851.685.041.605-.81.968-.446,1.613l1.985,1.25h.365c.687-.443.89-1.17,1.335-1.773a3.336,3.336,0,0,1,1.013.725c.4.121.851.725,1.255.121.324-.444.891-.807.971-1.371a5.654,5.654,0,0,0-1.9-2.016l-.242-.04A1.647,1.647,0,0,0,201.854-976.981Z" transform="translate(14966.543 3866.848)"/><path class="a" d="M155.794-1062.992a6.715,6.715,0,0,0-2.108-2.3h-.242c-.608.483-.485,1.291-1.053,1.814-.324.765.648,1.088,1.053,1.572.486.121.85.846,1.377.565C155.186-1061.864,155.752-1062.306,155.794-1062.992Z" transform="translate(15003.115 3937.196)"/><path class="a" d="M1557.584-1034.081c-1.012.338-1.95.825-2.963,1.125a9.818,9.818,0,0,1-3.676.488c-.6.113-1.538-.488-1.8.413-.112.149.038.336.188.412a29.892,29.892,0,0,0,7.09-.263,10.461,10.461,0,0,0,2.4-.751c1.051-.374,1.763-1.387,2.664-2.138l1.05-1.613c.938-2.175,1.763-5.138.563-7.464-.488-1.125-1.464-2.663-2.889-2.7a2.956,2.956,0,0,0-1.65,1.575,8.223,8.223,0,0,0-.713,3.713,2.788,2.788,0,0,0,2.25,1.839,2.951,2.951,0,0,0,2.288-1.726c.264.224.264.675.451.937.074.563-.3.938-.451,1.426A14.105,14.105,0,0,1,1557.584-1034.081Zm1.763-8.289c-.225-.264-.563-.488-.412-.825a1.883,1.883,0,0,1,1.088-.863,2.748,2.748,0,0,1,1.688,1.425c-.113.264-.45.376-.676.526A1.627,1.627,0,0,1,1559.347-1042.371Z" transform="translate(13877.58 3922.113)"/><path class="a" d="M1537.952-1133.766c-.149.375.188.6.45.824.226.226.563.3.751.526-.6.225-.638.9-.789,1.425a.255.255,0,0,0,.226.15,13.529,13.529,0,0,1,1.876-.788l.112.076a10.163,10.163,0,0,1-.338,1.539l.338,1.8c.638,1.987.9,4.126,1.351,6.189.712,3.188,1.2,6.452,1.762,9.714.075.077,0,.3.151.264a5.659,5.659,0,0,0,.412-1.35c.149-.863,0-1.875.075-2.739-.487-3.639-1.276-7.165-1.95-10.728-.3-1.688-.9-3.264-1.126-4.951a5.549,5.549,0,0,1,1.913-.675,1.4,1.4,0,0,0,.676-1.125c-.076-.112-.151-.225-.264-.225a9.154,9.154,0,0,1-2.7.3c-.638-.3-1.538-.225-1.95-.9.412-.489.863-1.089,1.5-1.2.563-.187.675.676,1.2.676a1.681,1.681,0,0,0,.6-.9c.112-.6-.637-.9-1.012-1.126-.563-.187-.976.188-1.425.413A6.787,6.787,0,0,0,1537.952-1133.766Z" transform="translate(13886.597 3995.015)"/><path class="a" d="M1478.128-1103.724c-1.313.862-2.663,1.613-4.013,2.4-.112.112,0,.3.112.337a1.265,1.265,0,0,0,.9-.225c1.238-.038,2.137-.9,3.225-1.35l1.464-1.126c.224-.376.563-.9.224-1.275-1.388-.225-2.776-1.05-4.239-.451-.974.375-2.137,1.238-2.212,2.364a.206.206,0,0,0,.224.15,3.968,3.968,0,0,1,4.052-1.051C1477.941-1103.875,1478.165-1103.912,1478.128-1103.724Z" transform="translate(13938.431 3969.7)"/><path class="a" d="M1326.859-1114.637a3.3,3.3,0,0,0,1.088,1.313c.262.226.637.188.862.45-1.388,1.163-2.813,2.326-4.238,3.526l-.075.149c.488.526.938-.262,1.5-.225,1.238-1.013,2.776-1.463,3.714-2.963.526-.187.9.6,1.313.826a1.563,1.563,0,0,0,.487-1.126c-.149-.525-.676-.862-1.051-1.275.225-1.2.375-2.739-.487-3.677-.3-.263-.863-.15-1.2-.038A4.1,4.1,0,0,0,1326.859-1114.637Zm2.775-1.312a4.919,4.919,0,0,1,.264,1.65l-.077.075c-.675-.3-1.5-.374-1.95-1.125a1.843,1.843,0,0,1,1.238-.937C1329.334-1116.326,1329.522-1116.1,1329.635-1115.949Z" transform="translate(14058.571 3979.508)"/><path class="a" d="M1341.474-1063.252c.15-.6.638-1.013.638-1.651a3,3,0,0,0-1.05-.9c-.525-.187-.9-.638-1.388-.863-.375.074-.337.488-.525.676-.075.6-.637,1.012-.487,1.65.6.863,1.65.713,2.4,1.238C1341.211-1062.951,1341.4-1063.139,1341.474-1063.252Z" transform="translate(14047.179 3938.304)"/><path class="a" d="M1271.172-1101.024a7.18,7.18,0,0,0-1.276,3.076c.038.113.151.226.263.15.525-.487.45-1.351,1.125-1.651a6.471,6.471,0,0,0,1.913.413c1.726.3,3.151-.451,4.615-.937.863-.526,2.438-1.013,2.213-2.364-.036-.15-.187-.337-.337-.3a6.716,6.716,0,0,1-2.851,1.576,8.248,8.248,0,0,1-4.577.263C1271.849-1100.8,1271.548-1101.436,1271.172-1101.024Z" transform="translate(14102.568 3967.295)"/><path class="a" d="M1252-1084.208c.188-.787.713-1.538.413-2.4.225-3.564-.675-6.828-1.126-10.2a7.755,7.755,0,0,1-.413-2.139,25.646,25.646,0,0,1-.9-4.538.363.363,0,0,0-.3-.263,1.821,1.821,0,0,0-.488,1.05c-.712,1.238,0,2.7.075,4.014a25.482,25.482,0,0,1,.975,4.463c.375,2.739,1.088,5.327,1.126,8.215a3.553,3.553,0,0,0,.562,1.875Z" transform="translate(14119.513 3968.188)"/><path class="a" d="M1235-1135.623c.375.149,0,.562.076.862a.644.644,0,0,0,.3.6c1.088.75,2.326-.037,3.264-.637a2.727,2.727,0,0,0,.825-2.514,3.349,3.349,0,0,0-2.851-2.175,5.571,5.571,0,0,0-1.614,3.114C1234.959-1136.148,1234.847-1135.81,1235-1135.623Zm2.777-1.763a2.552,2.552,0,0,1,.863,1.049c-.113.338-.526.413-.788.6a2.111,2.111,0,0,1-1.95.075c-.638-.712.112-1.463.411-2.1C1236.835-1138.1,1237.322-1137.574,1237.772-1137.386Z" transform="translate(14130.753 3996.985)"/><path class="a" d="M1257.675-1003.849l-.076-.038c-.074,0-.074.112-.074.112C1257.6-1003.7,1257.6-1003.812,1257.675-1003.849Z" transform="translate(14112.538 3887.717)"/><path class="a" d="M1201.92-978.273c.762-.3,1.563-.419,2.326-.762a1.394,1.394,0,0,0,.685-1.373.355.355,0,0,0-.267-.19,6.723,6.723,0,0,1-1.64.648c-1.867.572-3.544,1.525-5.489,1.943-.343.152-.419.572-.609.839,0,.267-.267.534,0,.763a.36.36,0,0,0,.419-.115C1198.907-976.977,1200.394-977.74,1201.92-978.273Z" transform="translate(14161.464 3868.951)"/><path class="a" d="M1210.376-1085.29c.116-.19.229-.533-.038-.686-1.3-.039-2.554.953-3.775.152-.342-.267-.877-.42-1.1-.838.381-.3.686-.878,1.22-.954.61-.115.991.533,1.257.915.5,0,.648-.572.8-.877s-.038-.573-.229-.8a1.865,1.865,0,0,0-1.258-.725c0-.457.3-.915.343-1.41a17.274,17.274,0,0,0-.191-5.071,60.871,60.871,0,0,0-1.03-6.519,5.335,5.335,0,0,1-.381-1.753,17.176,17.176,0,0,1-.533-2.517c-.152-.61-.039-1.3-.191-1.906a.336.336,0,0,0-.344-.268,2.447,2.447,0,0,0-.381.991,6.9,6.9,0,0,0,0,4.117,109.163,109.163,0,0,1,2.326,14.333,7.054,7.054,0,0,0-2.479,3.051c-.19.724.686,1.029,1.144,1.371-.115.3-.534.267-.763.5-.152.382-.457.686-.457,1.145a.2.2,0,0,0,.191.153,22.258,22.258,0,0,1,5.261-1.678C1210.109-1084.68,1210.224-1085.023,1210.376-1085.29Z" transform="translate(14155.486 3972.05)"/><path class="a" d="M1171.9-1041.207l.037.038v-.038Z" transform="translate(14181.536 3917.79)"/><path class="a" d="M1138.167-1105.679l.687-.532c.8-.877.115-2.1,0-3.088-.077-.191-.191-.419-.42-.419a3.561,3.561,0,0,0-.5,1.181l.343,1.334c-.076.115-.19.152-.267.229-.419.152-1.067.381-1.448.038l-.19-1.638c-.038-.115-.191-.3-.382-.267a3.477,3.477,0,0,0-.5,1.143c-.038.457.23.762.19,1.22-.153.267-.5.267-.724.381a1.13,1.13,0,0,1-1.22-.343c-.229-.5.114-.915.114-1.41-.038-.038-.114-.152-.228-.114a2.539,2.539,0,0,0-.8,1.83c.191.533.115,1.182.762,1.487.838.457,1.792-.115,2.517-.573A2.805,2.805,0,0,0,1138.167-1105.679Z" transform="translate(14213.018 3972.997)"/><path class="a" d="M1145.493-1067.536c.229.114.5.266.686,0,.191-.61.876-.991.838-1.715a8.489,8.489,0,0,0-2.058-1.6h-.267a6.812,6.812,0,0,0-1.068,2.173A6.361,6.361,0,0,0,1145.493-1067.536Z" transform="translate(14204.32 3941.679)"/><path class="a" d="M1078.328-1141.853c-.539.083-.829-.784-1.409-.619a4.992,4.992,0,0,0-1.534,1.4c-.29.62-.954,1.24-.539,1.982.208.083.332-.123.457-.206,0-.66.622-1.073,1.077-1.444.332-.207.58.247.871.413a5.07,5.07,0,0,0,3.732-.124,5,5,0,0,0,1.657-1.156c.623-.826,1.328-1.857.706-2.93a2.037,2.037,0,0,0-1.824-.991C1079.944-1144.906,1079.074-1143.215,1078.328-1141.853Zm4.188-1.115c-.167.414-.623.578-.954.785a5.465,5.465,0,0,1-2.321.5c-.125-.166.041-.288.041-.414.538-.66,1.035-1.609,1.907-1.774A1.562,1.562,0,0,1,1082.516-1142.968Z" transform="translate(14259.851 4001.851)"/><path class="a" d="M1090.677-1087.533c1.2-2.394.87-5.572.622-8.338a102.149,102.149,0,0,0-1.906-10.731c-.084-.413,0-.908-.084-1.321-.248-.578.208-1.61-.538-1.9-.539.5-.332,1.4-.7,2.022a10.983,10.983,0,0,0,.331,4.045,75.7,75.7,0,0,1,2.114,15.807C1090.552-1087.821,1090.47-1087.574,1090.677-1087.533Z" transform="translate(14249.117 3973.079)"/><path class="a" d="M967.231-1057.54h.124a6.667,6.667,0,0,0,2.2,2.89c.787.5,1.576,1.156,2.611.866a3.229,3.229,0,0,0,1.825-2.353c1.2-3.054-.829-5.7-1.452-8.5a25.652,25.652,0,0,1-.953-4c-.041-.166-.166-.371-.373-.371a7.982,7.982,0,0,0-.788,2.435c.456,3.425,1.741,6.561,2.779,9.739a1.374,1.374,0,0,1-1.244.414c-2.362-.744-3.648-3.26-3.98-5.489-.456-1.9-.5-4-1.16-5.82-.25-.33-.084-.949-.622-1.032-.581.578-.414,1.527-.7,2.271.082.494.249.948.331,1.445.248,1.858.663,3.673.953,5.49l-.042.577a5.585,5.585,0,0,1-1.7,1.857c-1.285.619-2.777,1.321-4.311.825a3.727,3.727,0,0,1-1.949-3.053.451.451,0,0,0-.042-.62c-.331-1.775-.124-3.714-.5-5.49-.167-.494.415-1.2-.208-1.4-.5.5-.5,1.279-.788,1.9-.083.412-.125.907-.249,1.362-1.286.619-2.612,1.032-3.938,1.651a8.556,8.556,0,0,0-3.4,5.323c.124.33.455.33.7.454a15.64,15.64,0,0,0,3.939.041,11.13,11.13,0,0,0,3.067-1.98l.124.082a4.832,4.832,0,0,0,2.156,4.292c1.617.784,3.442.041,4.893-.62A8.288,8.288,0,0,0,967.231-1057.54Zm-15.672-1.2-.083-.124c1.119-1.487,2.985-1.61,4.519-2.27.374-.166.747-.454,1.161-.331a9.971,9.971,0,0,1,.125,1.94A10.189,10.189,0,0,1,951.559-1058.736Z" transform="translate(14360.623 3940.196)"/><path class="a" d="M1024.922-1109.77l.664-.5c.87-.866.249-2.187.166-3.26a.492.492,0,0,0-.415-.329,2.834,2.834,0,0,0-.623,1.279l.249,1.2c-.166.248-.5.248-.787.371-.248,0-.621.248-.828,0-.291-.578.249-1.568-.5-1.815a2.334,2.334,0,0,0-.621,1.279l.124,1.073-.124.165a2.7,2.7,0,0,1-1.535.289c-.87-.33.166-.991-.124-1.568-.248-.041-.5.206-.7.33a2.811,2.811,0,0,0-.457,2.27,1.464,1.464,0,0,0,.872.7,3.742,3.742,0,0,0,2.528-.906A6.213,6.213,0,0,0,1024.922-1109.77Z" transform="translate(14304.508 3976.331)"/><path class="a" d="M972.705-1001.723v.082h.415C973.12-1001.806,972.872-1001.723,972.705-1001.723Z" transform="translate(14342.048 3885.99)"/><path class="a" d="M970.779-1001.555v-.082h-.207v.041Z" transform="translate(14343.768 3885.904)"/><path class="a" d="M654.832-1035.432c1.053-.081,2.146-.162,3.158-.243.891-.483,2.066-.08,2.916-.6,2.187-.645,4.414-1.209,6.195-2.943.243-.04.485-.4.648-.161.471.7.84,1.754,1.76,2.243a3.982,3.982,0,0,0,2.534.378c.4.281.81,0,1.133-.2a12.991,12.991,0,0,0,2.552-.4,22.966,22.966,0,0,0,4.414-1.17,8.854,8.854,0,0,0,2.43-1.129,21.4,21.4,0,0,1,2.672-1.048,2.533,2.533,0,0,1,1.093-.08c.2,1.289-.04,2.822.729,3.869a2.443,2.443,0,0,0,1.9,1.008,17.937,17.937,0,0,0,9.152-1.774,4.107,4.107,0,0,0,1.093-2.257,1.471,1.471,0,0,1,.08-.928,7.308,7.308,0,0,0-1.417-4.878c-.243-.323-.526-.807-.972-.888-.243.121-.243.444-.363.646,0,.686-.527,1.169-.405,1.854a8.9,8.9,0,0,1,2.106,4.112l-.121.161a41.285,41.285,0,0,1-4.374,1.209,12.623,12.623,0,0,1-4.616.081,2.91,2.91,0,0,1-1.579-2.418c.08-.081.121-.2.242-.2l2.795.08c.2.04.324.2.526.121a3.789,3.789,0,0,0,1.417-2.62.482.482,0,0,0-.365-.364,7.714,7.714,0,0,1-2.753.323,23.512,23.512,0,0,1-7.41-1.531c-1.418-.4-2.632-1.211-4.211-1.25-1.7-.04-3.118,1.37-3.888,2.743,0,.563-.447.925-.447,1.491.082.082.123.2.285.161.607-.281.89-1.129,1.578-1.209a11.7,11.7,0,0,1,3.361-.161c1.62.161,2.916,1.008,4.495,1.25v.081c-3.078,1.9-6.8,2.3-10.447,2.982l-2.065-.281a12.232,12.232,0,0,1-2.47-1.33c-.039-.807.446-1.452.405-2.3a.474.474,0,0,0-.405-.362c-.687.685-.485,1.813-1.458,2.418a23.334,23.334,0,0,1-5.79,2.378c-.649.161-1.418.122-2.105.282a30.456,30.456,0,0,1-4.738.363c-2.267-.16-4.7-.564-5.831-2.9a3.517,3.517,0,0,1-.282-3.184c.079-.484.728-.847.4-1.33-.122-.081-.243.041-.365.121a9.859,9.859,0,0,0-1.782,4.6,2.336,2.336,0,0,1,.243,1.047,6.14,6.14,0,0,0,3.929,3.75c.566-.08,1.012.4,1.579.282a8.384,8.384,0,0,0,2.025.122C654.3-1035.473,654.589-1035.231,654.832-1035.432Z" transform="translate(14605.11 3922.168)"/><path class="a" d="M888.323-980.646a5.192,5.192,0,0,0,1.012-1.613c-.324-.887-1.335-1.17-1.985-1.814l-.242-.081a1.517,1.517,0,0,0-.81,1.048c-.244.4-.527.928-1.093.806a6.268,6.268,0,0,0-1.985-1.047c-.365.2-.485.6-.688.967-.121.443-.566.766-.485,1.29a18.406,18.406,0,0,1,1.821,1.25h.243a9.724,9.724,0,0,0,1.62-1.813c.728.241,1.3.887,2.025,1.129C887.959-980.325,888.161-980.445,888.323-980.646Z" transform="translate(14415.108 3871.816)"/><path class="a" d="M870.087-1116.673c.243.2.606.283.809.525l-.283.282c-2.066,1.33-3.887,3.226-6.074,4.233a.174.174,0,0,0-.041.2c.689.2,1.255-.322,1.864-.524,1.458-.242,2.51-1.451,3.806-2.015l1.741-1.693.162-.041c.688.161,1.094.928,1.741,1.169.364-.161.323-.564.485-.846.365-.847-.768-1.007-1.133-1.572-.162-.282.161-.484.121-.766-.04-1.21.04-2.419-.891-3.266-1.255-.645-2.147.847-3.038,1.612a8.884,8.884,0,0,0-.485,1.451A2.6,2.6,0,0,0,870.087-1116.673Zm1.134-2.822a.575.575,0,0,1,.567.08,3.2,3.2,0,0,1,.728,1.976l-.039.081a14.606,14.606,0,0,1-2.228-1.17A1.645,1.645,0,0,1,871.22-1119.5Z" transform="translate(14429.256 3982.204)"/><path class="a" d="M713.911-982.045c-.486-.766-1.377-1.088-2.105-1.653l-.243-.04a1.883,1.883,0,0,0-.607.765c.04.565-.487.886-.487,1.452.04.524.608.565.931.887.567,0,1.175.765,1.7.16C713.264-981.078,714.033-981.361,713.911-982.045Z" transform="translate(14553.358 3871.481)"/><path class="a" d="M696.129-1080.014l.284-.283c.687-1.088.121-2.459.2-3.708-.121-.162-.243-.363-.446-.282a4.2,4.2,0,0,0-.485,1.169l.161,1.693c-.2.281-.607.323-.89.443-.325,0-.649.242-.931,0-.2-.6.121-1.209-.041-1.894a.363.363,0,0,0-.405-.281,4.225,4.225,0,0,0-.446,2.58c-.4.483-1.174.4-1.782.443a1.029,1.029,0,0,1-.445-.806c-.122-.444.365-.807.042-1.25-.122-.081-.163.12-.285.161a4.328,4.328,0,0,0-.445,2.942,1.174,1.174,0,0,0,.972.646,5.694,5.694,0,0,0,2.429-.726A4.693,4.693,0,0,0,696.129-1080.014Z" transform="translate(14569.766 3952.52)"/><path class="a" d="M680.681-1130.227c.527-.523,1.215-.766,1.742-1.371a13.222,13.222,0,0,1,1.741-1.652c.485.282.931.686,1.458.928l.162-.081c.162-.4.648-.846.365-1.33a6.974,6.974,0,0,1-1.3-1.128,4.494,4.494,0,0,0,0-3.468c-.365-.442-.81-1.007-1.418-.927-1.215.807-2.47,2.017-2.592,3.508.2,1.129,1.539,1.169,2.186,1.894-1.052.968-2.226,1.734-3.28,2.863l-1.7,1.047c-.324.243-.851.525-.77,1.009,0,.121.162.241.283.241.689-.12,1.216-.645,1.9-.806C679.872-1129.743,680.2-1130.267,680.681-1130.227Zm3.483-5.079a9.533,9.533,0,0,1-2.025-1.007c-.121-.242.162-.445.284-.646a2.511,2.511,0,0,1,.849-.645,1.9,1.9,0,0,1,1.133,1.653C684.366-1135.709,684.568-1135.225,684.164-1135.306Z" transform="translate(14580.109 3996.806)"/><path class="a" d="M1127.728-1045.453a14.8,14.8,0,0,1,.718-4.023.534.534,0,0,0-.142-.5.411.411,0,0,0-.431.144c-.18.61-.469,1.184-.648,1.8a15.449,15.449,0,0,0-.646,2.839,12.164,12.164,0,0,0,.036,2.552,5.608,5.608,0,0,0,1.8,2.119,7.861,7.861,0,0,0,3.09.611,10.841,10.841,0,0,0,5.21-1.617,4.714,4.714,0,0,0,2.264-2.982,4.931,4.931,0,0,0,.252-2.407c.035-2.121-.971-3.773-1.654-5.605-.216-.323-.251-.935-.792-.971-.214.145-.142.433-.286.648,0,.611-.432,1.042-.323,1.654a24.606,24.606,0,0,1,2.156,5.964,5.958,5.958,0,0,1-2.623,2.083c-1.869.647-4.24,1.293-6.216.431A2.939,2.939,0,0,1,1127.728-1045.453Z" transform="translate(14218.106 3927.697)"/><path class="a" d="M1302.817-1047.4a14.367,14.367,0,0,1-5.365.112c-1.388-.6-2.964-.863-4.314-1.575-1.313-.413-2.438-1.387-3.863-1.576a4.093,4.093,0,0,0-3.151,1.988,9.157,9.157,0,0,0-.75,1.913.249.249,0,0,0,.338.15,5.322,5.322,0,0,1,4.088-.9c1.914-.15,3.376.9,5.064,1.313v.075a23.971,23.971,0,0,1-4.389,1.425c-2.55.675-5.964.976-8.027-1.012-.15-.6.376-1.125.3-1.8-.037-.112-.226-.262-.375-.187a5.3,5.3,0,0,0-.9,1.537c-.6.788-.413,1.914-1.238,2.589-.712.263-1.387-.225-2.025-.45-.3-.187-.713-.375-.863-.712a5.7,5.7,0,0,0,.863-2.213.465.465,0,0,0-.3-.225c-.712.638-.825,1.575-1.462,2.288-1.057,1.237-2.551,1.407-4.091,1.463a2.345,2.345,0,0,0-.671.022l-.088,0-.1-.1a20.691,20.691,0,0,0,.976-3.038c.036-.264.112-.563-.113-.789-.412,0-.338.525-.525.789a4.377,4.377,0,0,1-3.151,3.038,5.473,5.473,0,0,1-5.1-1.362c0-.008.006-.015.008-.022-.258-.375-.451-.841-.944-.566a8.424,8.424,0,0,1-3.413,2.513c-.262.075-.638.262-.863.037l-.525-1.65c-.562-.975-1.125-2.514-2.513-2.589a5.786,5.786,0,0,0-2.362,2.476c-.151.863-.713,1.65-.451,2.664a2.27,2.27,0,0,0,1.614,1.763c.525-.038.975.262,1.463.036.487.077,1.013-.112,1.425,0,.225,0,.45-.261.562-.036a11.116,11.116,0,0,1-2.1,2.738c-.825.6-1.5,1.5-2.513,1.725-.864.863-2.1.863-3.152,1.313-1.237.039-2.362.6-3.675.263-.45-.076-.9.111-1.276-.039a13.99,13.99,0,0,1-1.875-.3c-.15.113-.525.3-.45.6a.64.64,0,0,0,.225.226c1.238.338,2.588.486,3.825.787,1.125-.074,2.175.188,3.3.113.712-.037,1.425-.225,2.1-.225,1.013-.15,1.688-1.014,2.589-1.313l1.613-1.425a43.414,43.414,0,0,0,2.438-3.976c.188-.3.188-.712.413-1.012a8.912,8.912,0,0,0,3.038-2.213l.13-.111h0a.884.884,0,0,1,.793.184,2.557,2.557,0,0,0,1.533,1.491,4.478,4.478,0,0,0,4.1.088c.259-.111.872-.488,1.165-.34a6.845,6.845,0,0,0,1.587.338.218.218,0,0,1,.022.031l.868.082a6.059,6.059,0,0,0,3.488-1.462h.15a4.513,4.513,0,0,0,2.738,1.537c.713.225,1.238-.374,1.726-.863a21,21,0,0,1,1.125-1.8,7.891,7.891,0,0,0,1.313.975,5.3,5.3,0,0,0,1.8.712,8.085,8.085,0,0,0,1.313.113,10.492,10.492,0,0,0,3.076-.376,15.818,15.818,0,0,0,2.7-.674c.45-.15.9-.375,1.388-.562,1.312-.263,2.362-1.014,3.675-1.314,1.163-.487,2.476,0,3.714-.074.45-.074,1.012.451,1.35-.074a5.372,5.372,0,0,0,1.238-2.251A.422.422,0,0,0,1302.817-1047.4Zm-46.774,5.063a2.229,2.229,0,0,1-2.138-.863c-.038-.15-.225-.338-.113-.526.374-.337.712-.861,1.237-.675a4.815,4.815,0,0,1,1.537,1.95A.774.774,0,0,1,1256.042-1042.338Z" transform="translate(14124.621 3925.231)"/><path class="a" d="M1588.872-1095.818c.008-.269-.157-.3-.3-.275,0,0-6.442,2.906-7.9,3.589a3.494,3.494,0,0,0-.521,1.267.261.261,0,0,0,.376.245c.318-.217,7.063-3.358,7.791-3.523C1588.643-1094.638,1588.859-1095.638,1588.872-1095.818Z" transform="translate(13852.568 3962.023)"/><path class="a" d="M1531.956-1164.461c.008-.269-.157-.3-.3-.275,0,0-6.441,2.906-7.9,3.59a3.478,3.478,0,0,0-.52,1.266.261.261,0,0,0,.376.245c.318-.218,7.063-3.358,7.791-3.524C1531.728-1163.281,1531.943-1164.28,1531.956-1164.461Z" transform="translate(13898.432 4017.336)"/><path class="a" d="M1400.56-985.18c.008-.268-.158-.3-.3-.274,0,0-6.442,2.906-7.9,3.588a3.491,3.491,0,0,0-.521,1.268.262.262,0,0,0,.377.245c.318-.218,7.063-3.359,7.79-3.524C1400.332-984,1400.547-985,1400.56-985.18Z" transform="translate(14004.312 3872.87)"/><path class="a" d="M143.5-1113.53c.008-.292-.17-.326-.328-.3,0,0-7.006,3.146-8.6,3.886a3.767,3.767,0,0,0-.567,1.372.285.285,0,0,0,.409.266c.346-.236,7.681-3.637,8.473-3.816C143.254-1112.253,143.488-1113.335,143.5-1113.53Z" transform="translate(15017.874 3976.315)"/><path class="a" d="M255.244-974.111c.008-.291-.17-.326-.328-.3,0,0-7.006,3.146-8.6,3.886a3.749,3.749,0,0,0-.567,1.372.285.285,0,0,0,.41.265c.345-.236,7.68-3.637,8.472-3.815C255-972.833,255.229-973.915,255.244-974.111Z" transform="translate(14927.832 3863.969)"/><path class="a" d="M345.29-975.2c.008-.291-.171-.326-.329-.3,0,0-7.006,3.146-8.595,3.886a3.768,3.768,0,0,0-.567,1.372.285.285,0,0,0,.41.266c.345-.236,7.68-3.637,8.472-3.815C345.041-973.925,345.276-975.007,345.29-975.2Z" transform="translate(14855.271 3864.85)"/><path class="a" d="M804.167-985.314c.009-.291-.17-.326-.328-.3,0,0-7,3.146-8.6,3.886a3.82,3.82,0,0,0-.567,1.371.285.285,0,0,0,.41.265c.346-.235,7.681-3.636,8.473-3.815C803.919-984.036,804.154-985.117,804.167-985.314Z" transform="translate(14485.504 3872.997)"/><path class="a" d="M956.162-1103.045c.009-.292-.172-.327-.329-.3,0,0-7,3.147-8.594,3.887a3.75,3.75,0,0,0-.566,1.373.284.284,0,0,0,.409.265c.346-.236,7.681-3.636,8.473-3.815C955.914-1101.768,956.147-1102.85,956.162-1103.045Z" transform="translate(14363.025 3967.867)"/><path class="a" d="M1014.6-1139.707c.008-.291-.171-.327-.329-.3,0,0-7.006,3.146-8.595,3.885a3.751,3.751,0,0,0-.567,1.372.284.284,0,0,0,.409.265c.346-.235,7.681-3.635,8.473-3.815C1014.347-1138.429,1014.582-1139.511,1014.6-1139.707Z" transform="translate(14315.938 3997.409)"/><path class="a" d="M1137.331-1136.15c.008-.269-.157-.3-.3-.276,0,0-6.441,2.907-7.9,3.59a3.478,3.478,0,0,0-.52,1.267.261.261,0,0,0,.376.245c.318-.217,7.064-3.358,7.791-3.524C1137.1-1134.97,1137.319-1135.969,1137.331-1136.15Z" transform="translate(14216.422 3994.523)"/><path class="a" d="M192.794-1091.343a3.485,3.485,0,0,0,3.309,1.142,7.26,7.26,0,0,0,4.513-1.27c.4-.211.492-.72.938-.848a3.483,3.483,0,0,0,.983.975,16.953,16.953,0,0,0,3.887,1.058c.671.127,1.43-.042,2.056.084.848.128.625-.846,1.072-1.184a5.077,5.077,0,0,1,1.162.253,13.091,13.091,0,0,0,3.217-.55c.357-.34.8-.466,1.073-.849a9.2,9.2,0,0,0,.759-2.667c.268-4.279-1.251-7.878-1.922-11.815a13.883,13.883,0,0,1-.491-2.754c.18-.253.447-.381.581-.677a1.428,1.428,0,0,0-.045-1.567,5.283,5.283,0,0,1-1.43-2.5c-.134-.169-.179-.466-.447-.466-.491.382-.625,1.018-1.117,1.483-.893,1.1.09,2.414.626,3.431.58,2.541.938,5.167,1.474,7.75a59.269,59.269,0,0,1,1.609,7.411l-.268.254a6.668,6.668,0,0,1-5.184-.042c-1.608-.763-1.92-2.668-3.574-3.261a5.712,5.712,0,0,0-3.217,1.906,4.169,4.169,0,0,1-2.19,2.372,7.935,7.935,0,0,1-4.871.55c-1.609-.254-1.609-1.906-1.922-3.049l.133-.127h1.923l.4.34a.609.609,0,0,0,.537-.127,7.238,7.238,0,0,0,1.475-2.583.574.574,0,0,0-.358-.719l-1.967.465c-1.833.3-3.264-.424-4.917-.552-1.521-.677-3.13-1.143-4.651-1.778a7.63,7.63,0,0,0-2.592-.763c-1.565,0-2.861,1.4-3.443,2.668-.045.55-.581.932-.626,1.483a.4.4,0,0,0,.447.254c.893-.89,2.145-.763,3.218-1.228a18.716,18.716,0,0,1,5.365,1.312l.223.212a22.681,22.681,0,0,1-7.914,2.33,6.382,6.382,0,0,1-3.621-1.355c-.491-.593.268-1.143,0-1.821-.089-.169-.268-.424-.491-.34a4.287,4.287,0,0,0-.626,1.271c-.671.805-.492,1.99-1.386,2.71a4.254,4.254,0,0,1-2.817-.422,13.534,13.534,0,0,1,.76-1.865c.044-.3.178-.677-.135-.932a.24.24,0,0,0-.357-.042l-.939,1.694c-1.253,1.991-3.622,2.033-5.812,2.16a.127.127,0,0,1-.09-.212,5.378,5.378,0,0,0,1.162-3.048c-.09-.17-.268-.467-.536-.467-.358.551-.582,1.186-.939,1.779a5.16,5.16,0,0,1-4.381,1.652c-1.521,0-2.594-1.059-3.756-1.863-.939-.212-1.475.762-2.012,1.27a4.5,4.5,0,0,1-4.113.89,3.36,3.36,0,0,1-1.833-2.033c-1.073-2.668-1.163-5.719-2.414-8.343-.09-.127-.134-.381-.358-.339a15.774,15.774,0,0,0-1.073,2.5,4.073,4.073,0,0,1-3.979,1.779c-.581-.677-.626-1.524-1.162-2.159-.671-.254-.134.508-.581.635-.045.848-.85,1.567-.313,2.372a15.352,15.352,0,0,1,2.056,6.606,5.941,5.941,0,0,1-1.833,1.78c-2.414,1.186-5.276,2.414-8.137,1.4a4.678,4.678,0,0,1-3.13-3.3c-.357-1.145.268-2.117.313-3.177l.895-1.355c.045-.127.09-.382-.044-.508-.492-.128-.939.3-1.252.635a14.912,14.912,0,0,0-1.565,5c-.224,2.159,1.029,3.854,2.772,5.124a8.537,8.537,0,0,0,5.365.761,14.059,14.059,0,0,0,3.488-1.228c1.161-.253,1.833-1.312,2.772-1.948a8.435,8.435,0,0,0,1.43-3.515c-.224-1.4.492-2.71.09-4.15l.134-.128a6.339,6.339,0,0,0,3.264-2.751h.09a27.346,27.346,0,0,1,.939,3.387c.759,1.991.67,4.49,2.905,5.676a4.822,4.822,0,0,0,3.755-.127c1.118-.254,1.655-1.653,2.772-1.906a22.4,22.4,0,0,0,1.968,1.567,6.773,6.773,0,0,0,4.828-.212,6.37,6.37,0,0,0,1.877.551,7.18,7.18,0,0,0,4.023-.678c.493-.042.849-.8,1.431-.381a5.758,5.758,0,0,0,3.756.761,8.788,8.788,0,0,0,2.19-2.8l.179-.041a5.976,5.976,0,0,0,3.979,1.99c.268.084.268.127.492.084a13.191,13.191,0,0,0,4.873-1.144,27.87,27.87,0,0,0,3.845-1.695,10.372,10.372,0,0,1,2.727-.931c.134.127.358-.085.447.085a10.16,10.16,0,0,0-.089,3.685m10.549-2.5a6.276,6.276,0,0,1,1.965-1.44c.939.3,1.117,1.271,1.564,1.99.046.381.448.72.537,1.058a13.757,13.757,0,0,1-3.932-1.058A.444.444,0,0,1,202.985-1094.9Z" transform="translate(15024.241 3977.233)"/><g transform="translate(15373.869 2850)"><path class="a" d="M1277.614-1176.867a2.285,2.285,0,0,0-.467,1.465c.656,0,.736-1,1.43-1,.31-.038.773-.268,1.042-.036a7.183,7.183,0,0,0-1.668,3.777,2.82,2.82,0,0,0,1.769,2.476c1.735.737,3.667.008,5.251-.683v-.116c-.117-.193.116-.308,0-.424-1.969,0-4.557.761-5.748-1.209-.653-1.122.082-2.278.74-3.125.773-.423,1.43-1.117,2.395-1.036a1.389,1.389,0,0,0,.737-1.157c-.23-.309-.734-.078-1.081-.079C1280.471-1177.786,1278.659-1178.254,1277.614-1176.867Z" transform="translate(-1277.124 1178.096)"/><path class="a" d="M1300.345-1157.926c.271-.231.7-.5.7-.885-.231-.7-.925-.466-1.465-.583a2.037,2.037,0,0,0-.505,1.041A2.407,2.407,0,0,0,1300.345-1157.926Z" transform="translate(-1294.81 1163.026)"/></g><g transform="matrix(0.914, -0.407, 0.407, 0.914, 15274.742, 2738.057)"><path class="a" d="M75.477,197.939c-.083.007-.166.025-.249.037a7.945,7.945,0,0,1-.963.118.532.532,0,0,1-.34-.086,1.758,1.758,0,0,1-.668-.866.183.183,0,0,1,.073-.245.536.536,0,0,1,.856.184.891.891,0,0,1,.049.1.094.094,0,0,0,.143.053,1.347,1.347,0,0,0,.45-.289.171.171,0,0,0,.059-.159.536.536,0,0,0-.707-.469,4.385,4.385,0,0,0-1.444.7c-.248.182-.266.258-.146.552.071.172.162.336.243.5a.322.322,0,0,1-.229.049c-.743-.033-1.486-.065-2.228-.108a.962.962,0,0,1-.591-.236.586.586,0,0,1-.223-.318c-.025-.126-.029-.227.152-.253a4.329,4.329,0,0,1,.888-.117.785.785,0,0,0,.733-.36c.068-.094.175-.164.105-.312s-.187-.136-.3-.139c-.21-.007-.42,0-.66,0a1.058,1.058,0,0,1,.8-.558c.485-.124.664-.049.916.388.08.139.143.136.247.058.067-.05.135-.1.2-.156a.38.38,0,0,0,.061-.59.721.721,0,0,0-.691-.284,2.971,2.971,0,0,0-1.952,1.222.708.708,0,0,1-.564.313,8.762,8.762,0,0,1-1.608-.11,1.424,1.424,0,0,1-.571-.2.473.473,0,0,1-.216-.232c-.058-.156-.017-.238.156-.275.129-.028.26-.044.389-.067a3.756,3.756,0,0,0,1.322-.429.929.929,0,0,0,.358-.39,1.143,1.143,0,0,0-.042-.9c-.137-.441-.185-.442-.531-.141a.38.38,0,0,0-.123.5,3.019,3.019,0,0,1,.11.379c.052.174-.017.262-.184.32a6.694,6.694,0,0,1-.847.12,3.142,3.142,0,0,1-1.688-.2.983.983,0,0,1-.5-.4.34.34,0,0,1,.119-.567,3.636,3.636,0,0,1,.765-.3c.111-.038.183.026.244.107a1.3,1.3,0,0,1,.256.549c.033.178.115.187.245.092a2.78,2.78,0,0,0,.231-.17c.068-.062.165-.123.133-.235a3.469,3.469,0,0,0-.246-.786.282.282,0,0,0-.35-.165,2.785,2.785,0,0,0-1.292.583c-.187.168-.383.327-.573.493a.709.709,0,0,0-.175.756,1.284,1.284,0,0,0,.7.635,2.964,2.964,0,0,0,1.242.22,2.5,2.5,0,0,0-.173.278,1.226,1.226,0,0,0-.081.275.585.585,0,0,0,.3.6,3.745,3.745,0,0,0,.9.2,4.383,4.383,0,0,0,1.243.03c.036-.009.065.019.085.074a.926.926,0,0,0-.079.219c-.024.2-.1.431.033.592a1.172,1.172,0,0,0,.77.483,20,20,0,0,0,3.988.048,9.506,9.506,0,0,0,1.143-.12.975.975,0,0,0,.609-.409c.028-.04.057-.078.036-.13S75.522,197.935,75.477,197.939Z" transform="translate(0 -0.313)"/><path class="a" d="M78.643,193.716a1.9,1.9,0,0,1,.74-.488.346.346,0,0,1,.516.21c.05.118.08.244.121.371a.822.822,0,0,0,.413-.225.435.435,0,0,0,.145-.539c-.146-.4-.41-.558-.809-.381a4.526,4.526,0,0,0-1.6,1.286l.012.089h0A1.664,1.664,0,0,0,78.643,193.716Z" transform="translate(-7.462 0)"/></g></g></svg>