<svg xmlns="http://www.w3.org/2000/svg" width="115.118" height="37.657" viewBox="0 0 115.118 37.657">
  <g id="footer-02" transform="translate(0)">
    <path id="Path_6266" data-name="Path 6266" d="M115.118,32.566a5.088,5.088,0,0,1-5.088,5.09H5.088A5.09,5.09,0,0,1,0,32.566V5.088A5.09,5.09,0,0,1,5.088,0H110.029a5.088,5.088,0,0,1,5.088,5.088Z" transform="translate(0)"/>
    <path id="Path_6267" data-name="Path 6267" d="M57.294,67.029a18.637,18.637,0,0,1-1.686,3.149c-1.1,1.666-2.648,3.751-4.55,3.751-1.7.015-2.136-1.1-4.442-1.1s-2.787,1.1-4.486,1.1c-1.913,0-3.383-1.88-4.468-3.546-3.063-4.66-3.383-10.13-1.494-13.038a6.78,6.78,0,0,1,5.448-3.275c2.028,0,3.31,1.1,4.976,1.1,1.626,0,2.617-1.1,4.96-1.1A6.625,6.625,0,0,1,56.537,56.7,5.7,5.7,0,0,0,57.294,67.029Z" transform="translate(-27.274 -42.139)" fill="#fff"/>
    <path id="Path_6268" data-name="Path 6268" d="M87.634,30.742A5.685,5.685,0,0,0,88.9,26.53a6.189,6.189,0,0,0-3.974,2.134,5.3,5.3,0,0,0-1.3,4.109A5.229,5.229,0,0,0,87.634,30.742Z" transform="translate(-65.127 -20.676)" fill="#fff"/>
    <path id="Path_6269" data-name="Path 6269" d="M162.827,68.59,158.44,81.5h2.008l1.311-3.972H166L167.35,81.5h2.065L165,68.59Zm1.033,2.123c.148.578.309,1.176.514,1.823l1.187,3.427H162.2l1.165-3.444C163.542,71.955,163.709,71.35,163.859,70.713Z" transform="translate(-123.479 -53.455)" fill="#fff"/>
    <path id="Path_6270" data-name="Path 6270" d="M216.339,83.76a3.665,3.665,0,0,0-3.1,1.489l-.077-1.284H211.37v.165c.053.8.075,1.679.075,2.944v9.949H213.4V92.39a3.427,3.427,0,0,0,2.67,1.147,4.029,4.029,0,0,0,2.959-1.258,5.336,5.336,0,0,0,1.308-3.751A5.188,5.188,0,0,0,219.2,85.1,3.711,3.711,0,0,0,216.339,83.76Zm-.485,1.617c1.741,0,2.52,1.613,2.52,3.211,0,2.061-1,3.343-2.595,3.343a2.365,2.365,0,0,1-2.3-1.814,2.427,2.427,0,0,1-.071-.631V87.915a3.093,3.093,0,0,1,.062-.481c.011-.055.02-.108.029-.159A2.471,2.471,0,0,1,215.854,85.377Z" transform="translate(-164.73 -65.278)" fill="#fff"/>
    <path id="Path_6271" data-name="Path 6271" d="M261.958,83.76a3.665,3.665,0,0,0-3.1,1.489l-.077-1.284H257l.011.165c.053.8.075,1.679.075,2.944v9.949h1.953V92.389a3.427,3.427,0,0,0,2.67,1.147,4.038,4.038,0,0,0,2.961-1.258,5.345,5.345,0,0,0,1.306-3.751A5.188,5.188,0,0,0,264.84,85.1,3.711,3.711,0,0,0,261.958,83.76Zm-.485,1.617c1.741,0,2.52,1.613,2.52,3.211,0,2.061-1,3.343-2.595,3.343a2.365,2.365,0,0,1-2.3-1.814,2.427,2.427,0,0,1-.071-.631V87.915a2.883,2.883,0,0,1,.064-.483l.026-.157a2.471,2.471,0,0,1,2.354-1.9Z" transform="translate(-200.292 -65.278)" fill="#fff"/>
    <path id="Path_6272" data-name="Path 6272" d="M320.151,73.335c-1.823-.706-2.407-1.26-2.407-2.286,0-.863.686-1.734,2.22-1.734a4.428,4.428,0,0,1,2.293.576l.165.1.552-1.631-.11-.064a5.676,5.676,0,0,0-2.844-.638c-2.489,0-4.23,1.472-4.23,3.577,0,1.7,1.09,2.882,3.429,3.733,1.657.62,2.275,1.253,2.275,2.341,0,1.231-.953,1.986-2.482,1.986a5.346,5.346,0,0,1-2.816-.8l-.17-.108-.525,1.666.1.064a6.677,6.677,0,0,0,3.31.85c3.356,0,4.548-2.048,4.548-3.8C323.446,75.374,322.49,74.26,320.151,73.335Z" transform="translate(-245.883 -52.731)" fill="#fff"/>
    <path id="Path_6273" data-name="Path 6273" d="M355.719,74.61l-1.915.6v1.622h-1.4V78.4h1.4v4.782a3.661,3.661,0,0,0,.675,2.478,2.5,2.5,0,0,0,1.891.741,4.57,4.57,0,0,0,1.509-.234l.11-.038-.095-1.564-.188.057a2.955,2.955,0,0,1-.907.106c-.757,0-1.081-.479-1.081-1.6V78.4h2.357V76.834h-2.357Z" transform="translate(-274.641 -58.147)" fill="#fff"/>
    <path id="Path_6274" data-name="Path 6274" d="M383.684,83.753c-2.732,0-4.634,2.039-4.634,4.958,0,2.833,1.847,4.81,4.493,4.81h.018a4.6,4.6,0,0,0,4.634-4.978,4.933,4.933,0,0,0-1.245-3.453A4.345,4.345,0,0,0,383.684,83.753Zm-.055,1.545c1.765,0,2.557,1.712,2.557,3.31,0,1.957-1.092,3.378-2.595,3.378h-.02c-1.481-.015-2.546-1.4-2.546-3.325,0-1.677.8-3.365,2.6-3.365Z" transform="translate(-295.411 -65.271)" fill="#fff"/>
    <path id="Path_6275" data-name="Path 6275" d="M430.431,83.85l-.117-.029a1.821,1.821,0,0,0-.485-.062,2.789,2.789,0,0,0-2.449,1.573l-.057-1.368H425.57l.011.165c.053.772.073,1.639.073,2.811l-.018,6.381h1.953V88.345a5.026,5.026,0,0,1,.055-.757A2.158,2.158,0,0,1,429.7,85.62a4.682,4.682,0,0,1,.525.033l.207.02Z" transform="translate(-331.666 -65.278)" fill="#fff"/>
    <path id="Path_6276" data-name="Path 6276" d="M451.913,83.68c-2.6,0-4.413,2.076-4.413,5.051a4.367,4.367,0,0,0,4.6,4.718,7.5,7.5,0,0,0,3.089-.594l.119-.053-.375-1.456-.163.066a6.058,6.058,0,0,1-2.447.441,2.715,2.715,0,0,1-2.926-2.831l6.3.018.026-.124a4.375,4.375,0,0,0,.057-.816C455.788,86.059,454.773,83.68,451.913,83.68Zm-.13,1.485a1.929,1.929,0,0,1,1.434.547,2.691,2.691,0,0,1,.662,1.818h-4.444A2.491,2.491,0,0,1,451.783,85.165Z" transform="translate(-348.757 -65.216)" fill="#fff"/>
    <path id="Path_6277" data-name="Path 6277" d="M158.44,28.186a14.176,14.176,0,0,1,1.873-.126,4.176,4.176,0,0,1,2.749.752,2.737,2.737,0,0,1,.969,2.207,3.089,3.089,0,0,1-.978,2.374,4.529,4.529,0,0,1-3.012.883,13.939,13.939,0,0,1-1.6-.073Zm.883,5.413a6.473,6.473,0,0,0,.883.035c1.873,0,2.891-.942,2.891-2.593,0-1.459-.9-2.357-2.752-2.357a5.611,5.611,0,0,0-1.026.082Z" transform="translate(-123.479 -21.868)" fill="#fff"/>
    <path id="Path_6278" data-name="Path 6278" d="M189.747,40.2a2.2,2.2,0,0,1-2.337-2.257,2.268,2.268,0,0,1,2.427-2.33,2.185,2.185,0,0,1,2.346,2.248,2.27,2.27,0,0,1-2.416,2.339Zm.031-.6a1.563,1.563,0,0,0,1.481-1.714,1.491,1.491,0,1,0-1.492,1.714Z" transform="translate(-146.057 -27.753)" fill="#fff"/>
    <path id="Path_6279" data-name="Path 6279" d="M212.167,36.047l.662,2.22c.13.49.26.951.351,1.406h.031c.11-.441.271-.916.441-1.4l.8-2.229h.726l.759,2.191c.181.516.322.989.441,1.432h.031a12.344,12.344,0,0,1,.373-1.423l.7-2.207h.883l-1.587,4.4h-.805l-.746-2.094a14.229,14.229,0,0,1-.441-1.45h-.02a12.534,12.534,0,0,1-.441,1.459l-.779,2.085h-.805l-1.472-4.387Z" transform="translate(-164.644 -28.088)" fill="#fff"/>
    <path id="Path_6280" data-name="Path 6280" d="M247.23,36.893c0-.463-.011-.825-.04-1.187h.786l.051.715h.02a1.845,1.845,0,0,1,1.611-.816,1.671,1.671,0,0,1,1.723,1.869V40.1H250.5v-2.54c0-.708-.291-1.306-1.128-1.306a1.269,1.269,0,0,0-1.189.816,1.088,1.088,0,0,0-.06.371V40.1h-.883Z" transform="translate(-192.646 -27.747)" fill="#fff"/>
    <path id="Path_6281" data-name="Path 6281" d="M272.7,26.78h.883v6.448H272.7Z" transform="translate(-212.527 -20.871)" fill="#fff"/>
    <path id="Path_6282" data-name="Path 6282" d="M284.127,40.2a2.2,2.2,0,0,1-2.337-2.257,2.266,2.266,0,0,1,2.427-2.33,2.185,2.185,0,0,1,2.346,2.248,2.271,2.271,0,0,1-2.416,2.339Zm.031-.6a1.563,1.563,0,0,0,1.481-1.714,1.491,1.491,0,1,0-1.492,1.714Z" transform="translate(-219.612 -27.753)" fill="#fff"/>
    <path id="Path_6283" data-name="Path 6283" d="M310.517,39.076a6.605,6.605,0,0,0,.071,1.053h-.8l-.082-.554h-.029a1.878,1.878,0,0,1-1.492.662,1.328,1.328,0,0,1-1.489-1.26c0-1.061,1.046-1.642,2.93-1.631v-.09c0-.364-.11-1.026-1.1-1.015a2.557,2.557,0,0,0-1.28.324l-.2-.534a3.418,3.418,0,0,1,1.611-.382,1.633,1.633,0,0,1,1.865,1.8Zm-.867-1.187c-.966-.018-2.065.137-2.065.989a.742.742,0,0,0,.827.761,1.229,1.229,0,0,0,1.2-.735.726.726,0,0,0,.04-.254Z" transform="translate(-239.025 -27.783)" fill="#fff"/>
    <path id="Path_6284" data-name="Path 6284" d="M333.413,26.78v5.3c0,.391.011.834.042,1.134h-.8l-.04-.761h-.02a1.825,1.825,0,0,1-1.653.861,2.092,2.092,0,0,1-2.1-2.231,2.194,2.194,0,0,1,2.187-2.357,1.677,1.677,0,0,1,1.472.662h.02v-2.6Zm-.883,3.835a1.323,1.323,0,0,0-.042-.344,1.28,1.28,0,0,0-1.278-.916,1.5,1.5,0,0,0-1.461,1.686,1.455,1.455,0,0,0,1.441,1.631,1.324,1.324,0,0,0,1.3-.951,1.227,1.227,0,0,0,.042-.344Z" transform="translate(-256.288 -20.871)" fill="#fff"/>
    <path id="Path_6285" data-name="Path 6285" d="M366.617,40.2a2.2,2.2,0,0,1-2.337-2.257,2.268,2.268,0,0,1,2.427-2.33,2.185,2.185,0,0,1,2.348,2.248,2.271,2.271,0,0,1-2.416,2.339Zm.031-.6a1.563,1.563,0,0,0,1.481-1.714,1.491,1.491,0,1,0-1.492,1.714Z" transform="translate(-283.9 -27.753)" fill="#fff"/>
    <path id="Path_6286" data-name="Path 6286" d="M390.8,36.893c0-.463-.011-.825-.04-1.187h.785l.051.715h.02a1.845,1.845,0,0,1,1.611-.816,1.671,1.671,0,0,1,1.723,1.869V40.1h-.883v-2.54c0-.708-.291-1.306-1.128-1.306a1.269,1.269,0,0,0-1.189.816,1.089,1.089,0,0,0-.055.382V40.1h-.883Z" transform="translate(-304.537 -27.747)" fill="#fff"/>
    <path id="Path_6287" data-name="Path 6287" d="M425.046,31.3v1.053h1.269v.607h-1.269v2.365c0,.543.172.852.662.852a1.865,1.865,0,0,0,.512-.053l.042.607a2.721,2.721,0,0,1-.786.108,1.335,1.335,0,0,1-.958-.335,1.59,1.59,0,0,1-.342-1.152V32.959h-.757v-.607h.757v-.808Z" transform="translate(-329.99 -24.394)" fill="#fff"/>
    <path id="Path_6288" data-name="Path 6288" d="M441.06,26.78h.883v2.738h.02a1.512,1.512,0,0,1,.635-.563,1.893,1.893,0,0,1,.907-.221,1.665,1.665,0,0,1,1.7,1.878v2.615h-.883V30.7c0-.717-.291-1.306-1.128-1.306a1.278,1.278,0,0,0-1.189.8.9.9,0,0,0-.06.38v2.659h-.883Z" transform="translate(-343.738 -20.871)" fill="#fff"/>
    <path id="Path_6289" data-name="Path 6289" d="M465.656,38.016a1.487,1.487,0,0,0,1.662,1.525,3.707,3.707,0,0,0,1.35-.221l.161.563a4.373,4.373,0,0,1-1.631.28,2.162,2.162,0,0,1-2.4-2.207,2.251,2.251,0,0,1,2.3-2.376,2.1,2.1,0,0,1,1.975,2.449Zm2.59-.578a1.185,1.185,0,0,0-1.22-1.3,1.38,1.38,0,0,0-1.359,1.3Z" transform="translate(-362.24 -27.729)" fill="#fff"/>
  </g>
</svg>
