<svg xmlns="http://www.w3.org/2000/svg" xmlns:xlink="http://www.w3.org/1999/xlink" viewBox="0 0 510.24 311.98"><defs><style>.cls-1{fill:none;}.cls-2{fill:#373a75;}.cls-3{clip-path:url(#clip-path);}.cls-4{fill:url(#linear-gradient);}.cls-5{clip-path:url(#clip-path-2);}.cls-6{fill:url(#linear-gradient-2);}.cls-7{clip-path:url(#clip-path-3);}.cls-8{fill:url(#linear-gradient-3);}.cls-9{clip-path:url(#clip-path-4);}.cls-10{fill:url(#linear-gradient-4);}.cls-11{clip-path:url(#clip-path-5);}.cls-12{fill:url(#linear-gradient-5);}.cls-13{clip-path:url(#clip-path-6);}.cls-14{fill:url(#linear-gradient-6);}.cls-15{clip-path:url(#clip-path-7);}.cls-16{fill:url(#linear-gradient-7);}</style><clipPath id="clip-path"><path class="cls-1" d="M260,83.59a3.39,3.39,0,0,0-1.45,2.78v27.95a3.4,3.4,0,0,0,6.79,0V88.14L295,67.34a7.17,7.17,0,0,0,3.36.83,7.3,7.3,0,1,0-7.29-7.3,6.8,6.8,0,0,0,.06.9L260,83.59"/></clipPath><linearGradient id="linear-gradient" x1="-165.83" y1="510.74" x2="-164.83" y2="510.74" gradientTransform="matrix(0, 132.51, 132.51, 0, -67396.99, 21995.95)" gradientUnits="userSpaceOnUse"><stop offset="0" stop-color="#00b6b5"/><stop offset="0.27" stop-color="#0099b9"/><stop offset="0.48" stop-color="#0086bc"/><stop offset="1" stop-color="#7251a1"/></linearGradient><clipPath id="clip-path-2"><path class="cls-1" d="M238.87,76.16V104a7.3,7.3,0,1,0,6.79,0V77.92l43.89-30.73A3.39,3.39,0,0,0,291,44.41V23.67a3.39,3.39,0,1,0-6.78,0v19L240.32,73.38a3.38,3.38,0,0,0-1.45,2.78"/></clipPath><linearGradient id="linear-gradient-2" x1="-165.83" y1="510.74" x2="-164.83" y2="510.74" gradientTransform="matrix(0, 132.51, 132.51, 0, -67416.09, 21995.95)" xlink:href="#linear-gradient"/><clipPath id="clip-path-3"><path class="cls-1" d="M291.51,85.48l-11.22,7.85a3.39,3.39,0,0,0,3.89,5.56L295.4,91a3.39,3.39,0,0,0-3.89-5.56"/></clipPath><linearGradient id="linear-gradient-3" x1="-165.83" y1="510.74" x2="-164.83" y2="510.74" gradientTransform="matrix(0, 132.51, 132.51, 0, -67391.22, 21995.95)" xlink:href="#linear-gradient"/><clipPath id="clip-path-4"><path class="cls-1" d="M312.9,105.21a3.45,3.45,0,0,0-4.82-.85l-53,37.09-53-37.09a3.46,3.46,0,1,0-4,5.66l50.91,35.65-14.92,10.44a7.42,7.42,0,1,0,4,6.6,7,7,0,0,0-.06-.93l17-11.89,17,11.89a7,7,0,0,0-.07.93,7.45,7.45,0,1,0,4-6.6l-14.91-10.44L312.05,110a3.44,3.44,0,0,0,.85-4.81"/></clipPath><linearGradient id="linear-gradient-4" x1="-165.83" y1="510.74" x2="-164.83" y2="510.74" gradientTransform="matrix(0, 132.51, 132.51, 0, -67423.95, 21995.95)" xlink:href="#linear-gradient"/><clipPath id="clip-path-5"><path class="cls-1" d="M218.72,24.88,229.94,17A3.4,3.4,0,0,0,228,10.85a3.34,3.34,0,0,0-1.94.62l-11.22,7.85a3.39,3.39,0,0,0,3.89,5.56"/></clipPath><linearGradient id="linear-gradient-5" x1="-165.83" y1="510.74" x2="-164.83" y2="510.74" gradientTransform="matrix(0, 132.51, 132.51, 0, -67456.68, 21995.95)" xlink:href="#linear-gradient"/><clipPath id="clip-path-6"><path class="cls-1" d="M264.57,13.76V32.43L220.68,63.16a3.42,3.42,0,0,0-1.44,2.78V86.69a3.39,3.39,0,0,0,6.78,0v-19L269.91,37a3.41,3.41,0,0,0,1.45-2.78V13.76a7.3,7.3,0,1,0-6.79,0"/></clipPath><linearGradient id="linear-gradient-6" x1="-165.83" y1="510.74" x2="-164.83" y2="510.74" gradientTransform="matrix(0, 132.51, 132.51, 0, -67431.82, 21995.95)" xlink:href="#linear-gradient"/><clipPath id="clip-path-7"><path class="cls-1" d="M211.88,56.78a7.29,7.29,0,0,0,7.29-7.3,6.54,6.54,0,0,0-.06-.89l31.17-21.83A3.38,3.38,0,0,0,251.73,24V3.42a3.4,3.4,0,0,0-6.79,0v18.8L215.24,43a7.3,7.3,0,1,0-3.36,13.77"/></clipPath><linearGradient id="linear-gradient-7" x1="-165.83" y1="510.74" x2="-164.83" y2="510.74" gradientTransform="matrix(0, 132.51, 132.51, 0, -67450.92, 21995.95)" xlink:href="#linear-gradient"/></defs><g id="Layer_2" data-name="Layer 2"><g id="Layer_1-2" data-name="Layer 1"><path class="cls-2" d="M354.3,247.66a6.05,6.05,0,0,0,2.25-1.68,6.69,6.69,0,0,0,1.25-2.45,10.33,10.33,0,0,0,.4-2.91V207.41h-4.52v32a5.87,5.87,0,0,1-.36,2.31,3.16,3.16,0,0,1-.93,1.27,2.77,2.77,0,0,1-1.27.58,7.57,7.57,0,0,1-1.3.12h-4.35a5,5,0,0,1-2.83-.75,5.62,5.62,0,0,1-1.8-2,10.6,10.6,0,0,1-1-3,32.86,32.86,0,0,1-.56-3.61,15.52,15.52,0,0,0-.61-3.49,9.65,9.65,0,0,0-1.63-3.25,8.72,8.72,0,0,0-2.89-2.39,9.32,9.32,0,0,0-4.37-.93,16.85,16.85,0,0,0-2.3.17c-.79.11-1.56.24-2.3.38s-1.46.31-2.13.5-1.22.38-1.65.54l1.13,4.43a15.65,15.65,0,0,1,3.15-1,13.68,13.68,0,0,1,2.78-.35,6,6,0,0,1,4.21,1.46c1.05,1,1.71,2.69,2,5.14a33,33,0,0,0,1,5.15,11.27,11.27,0,0,0,1.36,2.95H312.37c-.1-3.18-.37-8.24-.82-9.34a9,9,0,0,0-2.34-3.46,8.78,8.78,0,0,0-3.56-1.89c-1.38-.39-19.57-.58-21.2-.58h-1.21l14.61-10-2.48-3.3-18.69,13.12v4.56h18.87a66.48,66.48,0,0,1,8.62.49,4.63,4.63,0,0,1,2.49,1.63,6.46,6.46,0,0,1,1.09,3.12c0,.38.08,3.42.11,5.69H268.55V235.3a12.88,12.88,0,0,0-.74-4.44,10.26,10.26,0,0,0-2.06-3.45,9.1,9.1,0,0,0-3.27-2.23,11.52,11.52,0,0,0-4.39-.8,10.56,10.56,0,0,0-4.65,1,11.65,11.65,0,0,0-3.68,2.8,12.71,12.71,0,0,0-2.4,4.13,14.58,14.58,0,0,0-.86,5,12.37,12.37,0,0,0,.66,4,9.26,9.26,0,0,0,2.11,3.5,10.9,10.9,0,0,0,3.82,2.51,15,15,0,0,0,5.73,1h5.32a11,11,0,0,1-.87,4.43,7,7,0,0,1-2.12,2.69,7.5,7.5,0,0,1-3,1.32,19.35,19.35,0,0,1-3.65.33c-.77,0-1.58,0-2.41-.07s-1.7-.12-2.57-.2c-.08.71-.15,1.41-.22,2.11s-.12,1.43-.18,2.23a23.38,23.38,0,0,0,2.57.27c.83,0,1.65.06,2.44.06a21.77,21.77,0,0,0,5.77-.71,12.13,12.13,0,0,0,4.54-2.31,10.62,10.62,0,0,0,3-4.1,16.53,16.53,0,0,0,1.17-6.05h64.54a4.57,4.57,0,0,0,2.25-.63,7.5,7.5,0,0,0,2.37-2.8,8,8,0,0,0,3.16,2.63,10.25,10.25,0,0,0,4.2.8h5.76a8.38,8.38,0,0,0,3.47-.63m-90.22-4h-5.5a10.09,10.09,0,0,1-2.89-.41,7.36,7.36,0,0,1-2.45-1.28,6.09,6.09,0,0,1-1.71-2.3,8.46,8.46,0,0,1-.62-3.44,7.89,7.89,0,0,1,.56-3.07,8,8,0,0,1,1.5-2.37,6,6,0,0,1,2.18-1.51,6.81,6.81,0,0,1,2.57-.51,5.58,5.58,0,0,1,4.65,2.19,9.79,9.79,0,0,1,1.71,6.16Z"/><path class="cls-2" d="M157.87,246a6.69,6.69,0,0,0,1.25-2.45,10.33,10.33,0,0,0,.4-2.91V207.41H155v32a5.89,5.89,0,0,1-.35,2.31,3.16,3.16,0,0,1-.93,1.27,2.77,2.77,0,0,1-1.27.58,7.57,7.57,0,0,1-1.3.12h-2.86a8.16,8.16,0,0,1-3.15-.52,5.12,5.12,0,0,1-2-1.42,5.27,5.27,0,0,1-1.08-2.12,10.38,10.38,0,0,1-.33-2.69V226.61h-4.49V248a11.5,11.5,0,0,1-1.18,5.86q-1.17,1.94-4.45,1.94l-1.17,0a10.45,10.45,0,0,1-1.18-.12l-1.34-.25-.49,4.53,1.74.21a22.63,22.63,0,0,0,2.44.12,10.11,10.11,0,0,0,4.36-.9,8.81,8.81,0,0,0,3.18-2.51,11.25,11.25,0,0,0,1.93-3.76,15.93,15.93,0,0,0,.65-4.6v-4.31a5.75,5.75,0,0,0,1.24,2.19,5.93,5.93,0,0,0,1.68,1.25,5.56,5.56,0,0,0,1.88.55c.56.06,1.12.08,1.68.09v0h4a8.41,8.41,0,0,0,3.47-.63,6.05,6.05,0,0,0,2.25-1.68"/><path class="cls-2" d="M15.29,218.36a2.63,2.63,0,0,0,2.63-2.63,2.6,2.6,0,0,0-.77-1.88,2.51,2.51,0,0,0-1.86-.78,2.48,2.48,0,0,0-1.84.78,2.59,2.59,0,0,0-.76,1.88,2.61,2.61,0,0,0,2.6,2.63"/><path class="cls-2" d="M7.67,218.36a2.58,2.58,0,0,0,1.88-.77,2.49,2.49,0,0,0,.78-1.86,2.66,2.66,0,0,0-2.66-2.66,2.46,2.46,0,0,0-1.81.78,2.54,2.54,0,0,0-.79,1.88,2.46,2.46,0,0,0,.79,1.86,2.49,2.49,0,0,0,1.81.77"/><path class="cls-2" d="M57,254.86a2.62,2.62,0,0,0-1.84,4.47,2.54,2.54,0,0,0,1.84.76,2.63,2.63,0,0,0,1.88-.76,2.58,2.58,0,0,0,0-3.7,2.6,2.6,0,0,0-1.88-.77"/><path class="cls-2" d="M49.46,260.09a2.57,2.57,0,0,0,1.86-.76,2.63,2.63,0,1,0-1.86.76"/><path class="cls-2" d="M88.44,246a13.52,13.52,0,0,0,2.31-2.89A6.44,6.44,0,0,0,92,245.64a6.32,6.32,0,0,0,1.85,1.59,7,7,0,0,0,2.23.83,13,13,0,0,0,2.41.23H128V235a12.9,12.9,0,0,0-.69-4.33,9.51,9.51,0,0,0-2-3.34,9,9,0,0,0-3.17-2.17,10.72,10.72,0,0,0-4.14-.77,11.76,11.76,0,0,0-5,1,13.29,13.29,0,0,0-3.88,2.68,11.29,11.29,0,0,0-2.51,3.8,11.77,11.77,0,0,0-.87,4.4,11,11,0,0,0,.81,4.32,8.73,8.73,0,0,0,2.07,3h-10a7.51,7.51,0,0,1-3.52-.69,5.46,5.46,0,0,1-2-1.63,4.91,4.91,0,0,1-.85-2,10.46,10.46,0,0,1-.18-1.74q0-6.21-2.86-9.63a9.9,9.9,0,0,0-8-3.43,11.14,11.14,0,0,0-4.55.92A10.31,10.31,0,0,0,73.12,228a12.18,12.18,0,0,0-2.33,3.89,13.74,13.74,0,0,0-.86,4.89,11.27,11.27,0,0,1-.43,3.44,5.75,5.75,0,0,1-1.1,2.1,3.47,3.47,0,0,1-1.54,1,6,6,0,0,1-1.79.27H61.84a8,8,0,0,1-3.06-.52,5.3,5.3,0,0,1-2-1.42,5.16,5.16,0,0,1-1.09-2.12,11.36,11.36,0,0,1-.3-2.69V226.61H50.83v12.72a6.16,6.16,0,0,1-.7,3.17,3,3,0,0,1-2.78,1.17H22.07V235.3a12.69,12.69,0,0,0-.75-4.44,10.3,10.3,0,0,0-2.08-3.45A8.93,8.93,0,0,0,16,225.18a11.27,11.27,0,0,0-4.32-.8,10.56,10.56,0,0,0-4.65,1,11.73,11.73,0,0,0-3.7,2.8,12.77,12.77,0,0,0-2.43,4.13,14.35,14.35,0,0,0-.87,5,12.37,12.37,0,0,0,.66,4,9.26,9.26,0,0,0,2.11,3.5,10.9,10.9,0,0,0,3.82,2.51,15,15,0,0,0,5.73,1H47.71a13.54,13.54,0,0,0,2.14-.17,6.17,6.17,0,0,0,1.93-.63,5.18,5.18,0,0,0,1.62-1.34,9.27,9.27,0,0,0,1.34-2.32,5.46,5.46,0,0,0,2.54,3.43,8.77,8.77,0,0,0,4.37,1H65.5A6.24,6.24,0,0,0,69,247.1a6.73,6.73,0,0,0,2.54-3.61,10.29,10.29,0,0,0,3.82,3.85,11.27,11.27,0,0,0,5.5,1.22,20.8,20.8,0,0,0,2.64-.16,8.74,8.74,0,0,0,2.5-.74,9.13,9.13,0,0,0,2.4-1.65m22.41-12.84a8,8,0,0,1,1.57-2.37,6.36,6.36,0,0,1,2.27-1.51,7.11,7.11,0,0,1,2.66-.51,6.57,6.57,0,0,1,2.78.54,5.44,5.44,0,0,1,1.89,1.39,5.51,5.51,0,0,1,1.09,1.93,6.71,6.71,0,0,1,.35,2.07v9H117a8.53,8.53,0,0,1-3.36-1.1,6.87,6.87,0,0,1-2.36-2.2,7.17,7.17,0,0,1-1-4.13A7.54,7.54,0,0,1,110.85,233.17Zm-93.27,10.5H12.14a10,10,0,0,1-2.89-.41A7.36,7.36,0,0,1,6.8,242a6.09,6.09,0,0,1-1.71-2.3,8.46,8.46,0,0,1-.63-3.44A7.89,7.89,0,0,1,5,233.17a7.67,7.67,0,0,1,1.53-2.37,6.34,6.34,0,0,1,4.66-2A5.53,5.53,0,0,1,15.94,231a10.12,10.12,0,0,1,1.64,6.16Zm63.6.34a7.44,7.44,0,0,1-3.07-.58A6.24,6.24,0,0,1,76,241.88a5.91,5.91,0,0,1-1.25-2.23,9.15,9.15,0,0,1-.4-2.8,9.71,9.71,0,0,1,.54-3.34A7.3,7.3,0,0,1,76.35,231a6.75,6.75,0,0,1,2.2-1.63,6.3,6.3,0,0,1,2.63-.58,6,6,0,0,1,2.52.58A6.82,6.82,0,0,1,85.89,231a7.86,7.86,0,0,1,1.51,2.52,9.25,9.25,0,0,1,.57,3.34,9.15,9.15,0,0,1-.4,2.8,6.13,6.13,0,0,1-1.22,2.23,5.87,5.87,0,0,1-2.13,1.55A7.53,7.53,0,0,1,81.18,244Z"/><path class="cls-2" d="M113.65,218.36a2.56,2.56,0,0,0,1.85-.77,2.49,2.49,0,0,0,.78-1.86,2.57,2.57,0,0,0-.78-1.88,2.61,2.61,0,0,0-3.72,0,2.59,2.59,0,0,0-.76,1.88,2.51,2.51,0,0,0,.76,1.86,2.54,2.54,0,0,0,1.87.77"/><path class="cls-2" d="M121.23,218.36a2.63,2.63,0,0,0,2.63-2.63,2.6,2.6,0,0,0-.77-1.88,2.6,2.6,0,0,0-3.71,0,2.57,2.57,0,0,0-.78,1.88,2.49,2.49,0,0,0,.78,1.86,2.55,2.55,0,0,0,1.85.77"/><path class="cls-2" d="M191.31,218.36a2.6,2.6,0,0,0,1.88-.77,2.49,2.49,0,0,0,.78-1.86,2.66,2.66,0,0,0-2.66-2.66,2.48,2.48,0,0,0-1.82.78,2.57,2.57,0,0,0-.78,1.88,2.65,2.65,0,0,0,2.6,2.63"/><path class="cls-2" d="M198.92,218.36a2.61,2.61,0,0,0,2.63-2.63,2.63,2.63,0,0,0-.76-1.88,2.55,2.55,0,0,0-1.87-.78,2.51,2.51,0,0,0-1.84.78,2.63,2.63,0,0,0-.76,1.88,2.61,2.61,0,0,0,2.6,2.63"/><path class="cls-2" d="M239.77,244.94a10.53,10.53,0,0,0,1.85-3.64,15.22,15.22,0,0,0,.58-4.14,18.62,18.62,0,0,0-.66-5.12,10.86,10.86,0,0,0-2-3.94,9.58,9.58,0,0,0-3.38-2.59,12,12,0,0,0-9.29,0,10.64,10.64,0,0,0-3.6,2.54,12,12,0,0,0-2.37,3.87,13.51,13.51,0,0,0-.87,4.93q0,6.85-4.89,6.85h-9.43V235.3a12.69,12.69,0,0,0-.75-4.44,10.46,10.46,0,0,0-2.08-3.45,9.1,9.1,0,0,0-3.27-2.23,11.36,11.36,0,0,0-4.33-.8,10.49,10.49,0,0,0-4.64,1,11.73,11.73,0,0,0-3.7,2.8,12.77,12.77,0,0,0-2.43,4.13,14.13,14.13,0,0,0-.88,5,12.37,12.37,0,0,0,.66,4,9.26,9.26,0,0,0,2.11,3.5,10.9,10.9,0,0,0,3.82,2.51,15,15,0,0,0,5.73,1h19a7.08,7.08,0,0,0,4.09-1.12,7.78,7.78,0,0,0,2.69-3.68,10.84,10.84,0,0,0,2.24,2.63,9.73,9.73,0,0,0,2.47,1.5,10.17,10.17,0,0,0,2.57.67,20.89,20.89,0,0,0,2.41.15,11.89,11.89,0,0,0,5-.95,8.89,8.89,0,0,0,3.32-2.55m-38.56-1.27h-5.44a10.09,10.09,0,0,1-2.89-.41,7.22,7.22,0,0,1-2.44-1.28,5.89,5.89,0,0,1-1.71-2.3,8.46,8.46,0,0,1-.63-3.44,8.07,8.07,0,0,1,.56-3.07,7.67,7.67,0,0,1,1.53-2.37,6.39,6.39,0,0,1,4.66-2,5.55,5.55,0,0,1,4.73,2.19,10.12,10.12,0,0,1,1.63,6.16Zm33.09-.24a7.42,7.42,0,0,1-3,.58,7.64,7.64,0,0,1-3.13-.58,5.89,5.89,0,0,1-2.09-1.55,6.32,6.32,0,0,1-1.24-2.23,8.85,8.85,0,0,1-.42-2.8,9.71,9.71,0,0,1,.55-3.34,7.67,7.67,0,0,1,1.5-2.52,6.86,6.86,0,0,1,2.2-1.63,6.33,6.33,0,0,1,2.63-.58,5.82,5.82,0,0,1,2.46.58A6.82,6.82,0,0,1,236,231a7.69,7.69,0,0,1,1.51,2.52,9.25,9.25,0,0,1,.57,3.34,9.15,9.15,0,0,1-.4,2.8,6.13,6.13,0,0,1-1.22,2.23A5.92,5.92,0,0,1,234.3,243.43Z"/><rect class="cls-2" x="365.45" y="207.41" width="4.4" height="40.87"/><path class="cls-2" d="M396.91,218.36a2.63,2.63,0,0,0,2.63-2.63,2.6,2.6,0,0,0-.77-1.88,2.51,2.51,0,0,0-1.86-.78,2.48,2.48,0,0,0-1.84.78,2.59,2.59,0,0,0-.76,1.88,2.61,2.61,0,0,0,2.6,2.63"/><path class="cls-2" d="M389.3,218.36a2.6,2.6,0,0,0,1.88-.77,2.49,2.49,0,0,0,.78-1.86,2.66,2.66,0,0,0-2.66-2.66,2.48,2.48,0,0,0-1.82.78,2.57,2.57,0,0,0-.78,1.88,2.65,2.65,0,0,0,2.6,2.63"/><path class="cls-2" d="M447.86,216.34h-1.44a7.52,7.52,0,0,1-2.58-.4,5.48,5.48,0,0,1-1.84-1A4,4,0,0,1,441,213.5a4,4,0,0,1-.34-1.62,2.55,2.55,0,0,1,1.16-2.34,5.58,5.58,0,0,1,3-.72c.29,0,.64,0,1.06.06s.73.08,1,.12l.37-2.84a9.58,9.58,0,0,0-1.37-.21c-.47,0-.94-.06-1.39-.06a8.12,8.12,0,0,0-2.81.45,6.14,6.14,0,0,0-2.05,1.24,5.3,5.3,0,0,0-1.68,3.87,6.75,6.75,0,0,0,.51,2.35,6.52,6.52,0,0,0,1.81,2.54h-4.21v2.88h11.92v-2.88"/><path class="cls-2" d="M461.87,260.09a2.57,2.57,0,0,0,1.86-.76,2.63,2.63,0,1,0-1.86.76"/><path class="cls-2" d="M472.11,257.49a2.51,2.51,0,0,0-.78-1.86,2.6,2.6,0,0,0-1.88-.77,2.62,2.62,0,0,0-1.84,4.47,2.54,2.54,0,0,0,1.84.76,2.63,2.63,0,0,0,1.88-.76,2.5,2.5,0,0,0,.78-1.84"/><path class="cls-2" d="M510.06,235.35c-.66-6.37-4.54-12.67-15-12.67a27.05,27.05,0,0,0-10.29,1.93l.62,4a22.08,22.08,0,0,1,7.59-1.74c2.38-.19,7.17-.17,9.49,2,4.25,4,2.86,14.74,2.86,14.74h-5.6v-4.31a8.32,8.32,0,0,0-.49-2.92,6.72,6.72,0,0,0-1.37-2.27,6,6,0,0,0-2.15-1.47,7.37,7.37,0,0,0-2.84-.52,7,7,0,0,0-3,.68,7.74,7.74,0,0,0-2.43,1.84,8.46,8.46,0,0,0-1.6,2.72,9.48,9.48,0,0,0-.57,3.29,8.1,8.1,0,0,0,.43,2.6c.05.13.12.24.17.36h-11.6a7.89,7.89,0,0,1-3.06-.52,5.23,5.23,0,0,1-2-1.42,5,5,0,0,1-1.09-2.12,11.35,11.35,0,0,1-.31-2.69V226.61h-4.52v12.72a6.16,6.16,0,0,1-.7,3.17,3,3,0,0,1-2.78,1.17h-9.52a7.87,7.87,0,0,1-3.05-.52,5.27,5.27,0,0,1-2-1.42,5,5,0,0,1-1.08-2.12,10.85,10.85,0,0,1-.31-2.69V226.61h-4.52v12.72a6.26,6.26,0,0,1-.7,3.17,3,3,0,0,1-2.79,1.17H403.69V235.3a12.93,12.93,0,0,0-.74-4.44,10.46,10.46,0,0,0-2.08-3.45,9.1,9.1,0,0,0-3.27-2.23,11.36,11.36,0,0,0-4.33-.8,10.56,10.56,0,0,0-4.65,1,11.84,11.84,0,0,0-3.7,2.8,12.77,12.77,0,0,0-2.43,4.13,14.35,14.35,0,0,0-.87,5,12.37,12.37,0,0,0,.66,4,9.26,9.26,0,0,0,2.11,3.5,10.9,10.9,0,0,0,3.82,2.51,15,15,0,0,0,5.73,1h42.18a13.64,13.64,0,0,0,2.14-.17,6.34,6.34,0,0,0,1.93-.63,5.18,5.18,0,0,0,1.62-1.34,9.59,9.59,0,0,0,1.34-2.32,5.46,5.46,0,0,0,2.54,3.43,8.75,8.75,0,0,0,4.37,1h10.06a13.54,13.54,0,0,0,2.14-.17,6.17,6.17,0,0,0,1.93-.63,5.18,5.18,0,0,0,1.62-1.34,9.27,9.27,0,0,0,1.34-2.32,5.46,5.46,0,0,0,2.54,3.43,8.75,8.75,0,0,0,4.37,1h36s.39-9.14,0-12.94M399.2,243.67h-5.44a10.09,10.09,0,0,1-2.89-.41,7.36,7.36,0,0,1-2.45-1.28,6.09,6.09,0,0,1-1.71-2.3,8.63,8.63,0,0,1-.62-3.44,7.89,7.89,0,0,1,.56-3.07,7.67,7.67,0,0,1,1.53-2.37,6.34,6.34,0,0,1,4.66-2,5.55,5.55,0,0,1,4.73,2.19,10.12,10.12,0,0,1,1.63,6.16Zm92.41-.2a3.52,3.52,0,0,1-1.21-.64,2.9,2.9,0,0,1-.85-1.14,4.18,4.18,0,0,1-.31-1.71,3.9,3.9,0,0,1,.28-1.53,3.73,3.73,0,0,1,.75-1.17,3.17,3.17,0,0,1,1.08-.76,3.23,3.23,0,0,1,1.24-.25,2.73,2.73,0,0,1,2.34,1.09,5,5,0,0,1,.81,3.06v3.25H493A5.15,5.15,0,0,1,491.61,243.47Z"/><rect class="cls-2" x="166.02" y="207.41" width="4.4" height="40.87"/><path class="cls-2" d="M21.91,280.9a11.89,11.89,0,0,0-2.45-2.64,13.75,13.75,0,0,0-2.89-1.78,14.6,14.6,0,0,0-3-1,14.16,14.16,0,0,0-2.89-.31H0v27.61H10.66a14.16,14.16,0,0,0,2.89-.31,14.6,14.6,0,0,0,3-1,13.75,13.75,0,0,0,2.89-1.78,11.89,11.89,0,0,0,2.45-2.64,13.69,13.69,0,0,0,1.67-3.55,15.05,15.05,0,0,0,.63-4.52,15.16,15.16,0,0,0-.63-4.55,13.37,13.37,0,0,0-1.67-3.55m-2.48,12.77a8.66,8.66,0,0,1-2.24,3.18,8.81,8.81,0,0,1-3.35,1.84,14.66,14.66,0,0,1-4.23.59H3.74V278.69H9.61a14.66,14.66,0,0,1,4.23.59,8.58,8.58,0,0,1,5.59,5,13.74,13.74,0,0,1,0,9.35Z"/><path class="cls-2" d="M31,275.18a2.37,2.37,0,0,0-1.75.73,2.42,2.42,0,0,0-.71,1.72,2.33,2.33,0,0,0,.7,1.73A2.41,2.41,0,0,0,31,280a2.33,2.33,0,0,0,2.41-2.41,2.45,2.45,0,0,0-.7-1.72,2.31,2.31,0,0,0-1.71-.73"/><rect class="cls-2" x="29.28" y="284.37" width="3.49" height="18.43"/><path class="cls-2" d="M53.18,286.84a6.07,6.07,0,0,0-2.4-2.06,8.49,8.49,0,0,0-3.72-.88,11.34,11.34,0,0,0-4,.67A8.78,8.78,0,0,0,40,286.49a8.52,8.52,0,0,0-2,3.06,11,11,0,0,0-.71,4,9.86,9.86,0,0,0,.71,3.75,8.85,8.85,0,0,0,2,3,9.24,9.24,0,0,0,3.09,2,10.82,10.82,0,0,0,4,.71,8.53,8.53,0,0,0,3.65-.83,6.56,6.56,0,0,0,2.47-2v1.55a11.54,11.54,0,0,1-.3,2.66,5.88,5.88,0,0,1-1,2.22,4.94,4.94,0,0,1-2,1.52,7.87,7.87,0,0,1-3.22.57,8,8,0,0,1-3.53-.76,10.05,10.05,0,0,1-2.93-2.26l-.19-.21-2.51,2.86.18.18a12.09,12.09,0,0,0,4.16,2.7,14.33,14.33,0,0,0,4.82.77c3.26,0,5.77-.88,7.48-2.61s2.56-4.3,2.56-7.64V284.37H53.18v2.47m-.4,9a5.71,5.71,0,0,1-3.12,3.35,6.13,6.13,0,0,1-2.6.52A6,6,0,0,1,42.77,298a6.16,6.16,0,0,1-1.3-2,6.25,6.25,0,0,1-.47-2.42,7.36,7.36,0,0,1,.43-2.54,6.26,6.26,0,0,1,1.23-2,5.82,5.82,0,0,1,1.91-1.37,6.05,6.05,0,0,1,2.49-.5,6.64,6.64,0,0,1,2.51.47,5.88,5.88,0,0,1,1.94,1.31,5.78,5.78,0,0,1,1.24,2,7.35,7.35,0,0,1,.43,2.58A6.94,6.94,0,0,1,52.78,295.88Z"/><path class="cls-2" d="M64,275.18a2.37,2.37,0,0,0-1.75.73,2.42,2.42,0,0,0-.71,1.72,2.33,2.33,0,0,0,.7,1.73A2.41,2.41,0,0,0,64,280a2.33,2.33,0,0,0,2.41-2.41,2.45,2.45,0,0,0-.7-1.72,2.31,2.31,0,0,0-1.71-.73"/><rect class="cls-2" x="62.23" y="284.37" width="3.49" height="18.43"/><path class="cls-2" d="M81.42,299.39a5,5,0,0,1-1.23.44,6,6,0,0,1-1.3.15,2.78,2.78,0,0,1-1.4-.29,1.76,1.76,0,0,1-.69-.77,3.36,3.36,0,0,1-.28-1.21c0-.49,0-1,0-1.6v-8.7h5.27v-3H76.48v-5.09H73v5.09h-3.9v3H73V297a16.71,16.71,0,0,0,.18,2.57,4.53,4.53,0,0,0,.76,2,3.85,3.85,0,0,0,1.6,1.28,6.62,6.62,0,0,0,2.66.44A10.59,10.59,0,0,0,80,303.1a8.56,8.56,0,0,0,1.75-.51l.16-.07-.12-3.31-.36.18"/><path class="cls-2" d="M100.73,301c0-.54-.08-1.06-.08-1.55v-7.72c0-2.58-.61-4.55-1.81-5.85s-3.21-2-6-2a11.62,11.62,0,0,0-3.93.69,9.08,9.08,0,0,0-3.37,2.13l-.18.18,2.21,2.33.19-.17a6.9,6.9,0,0,1,2.39-1.42,8.24,8.24,0,0,1,2.77-.48,4.66,4.66,0,0,1,3.11.94,3.41,3.41,0,0,1,1.08,2.76v.28h-.91c-1.1,0-2.32.05-3.63.15a14.36,14.36,0,0,0-3.74.79A7.21,7.21,0,0,0,85.93,294a5.24,5.24,0,0,0-1.22,3.65,5,5,0,0,0,.57,2.42,5.38,5.38,0,0,0,1.5,1.75,6.83,6.83,0,0,0,2.2,1.07,9.84,9.84,0,0,0,2.64.35,7.08,7.08,0,0,0,3.68-.92,7.77,7.77,0,0,0,2-1.8c0,.2,0,.41,0,.64a6.64,6.64,0,0,0,.17,1.41l0,.2H101l0-.29c-.07-.46-.13-1-.19-1.51m-3.57-5.93a6.51,6.51,0,0,1-.37,2,4.85,4.85,0,0,1-1,1.62,4.72,4.72,0,0,1-1.54,1.11,5.35,5.35,0,0,1-2.17.41,5.11,5.11,0,0,1-2.68-.65,2.33,2.33,0,0,1-1-2.16A2.48,2.48,0,0,1,90,295a10.6,10.6,0,0,1,4.44-.77h2.73Z"/><rect class="cls-2" x="106.11" y="273.35" width="3.51" height="29.44"/><path class="cls-2" d="M137.61,290.63h6.23v7.87a14.46,14.46,0,0,1-10.94.66,10.28,10.28,0,0,1-3.45-2.3,10.71,10.71,0,0,1-2.24-3.5,11.81,11.81,0,0,1-.8-4.36,12,12,0,0,1,.8-4.43,10.27,10.27,0,0,1,2.24-3.48,10.66,10.66,0,0,1,3.38-2.28,10.92,10.92,0,0,1,4.23-.82,10.45,10.45,0,0,1,3.95.78,9,9,0,0,1,3.25,2.24l.19.2,2.76-2.91-.18-.17a11.32,11.32,0,0,0-4.51-2.83,16.88,16.88,0,0,0-5.23-.82,15.79,15.79,0,0,0-5.81,1,14.78,14.78,0,0,0-4.71,3,13.55,13.55,0,0,0-3.18,4.57,15,15,0,0,0-1.14,5.95,15.54,15.54,0,0,0,1.09,5.88,13.51,13.51,0,0,0,3.07,4.59,13.77,13.77,0,0,0,4.65,3,16.06,16.06,0,0,0,5.91,1.05,23.1,23.1,0,0,0,5.29-.62,20.26,20.26,0,0,0,5-1.94l.13-.07V287.12h-10v3.51"/><path class="cls-2" d="M169.46,286.61a9.25,9.25,0,0,0-3.1-2,11.23,11.23,0,0,0-7.86,0,9.25,9.25,0,0,0-3.1,2,9.37,9.37,0,0,0-2.05,3,10.67,10.67,0,0,0,0,7.86,9.37,9.37,0,0,0,2.05,3,9.25,9.25,0,0,0,3.1,2,11.23,11.23,0,0,0,7.86,0,9.15,9.15,0,0,0,5.15-5,10.67,10.67,0,0,0,0-7.86,9.21,9.21,0,0,0-2-3m-1.36,9.51a6,6,0,0,1-1.23,2,5.83,5.83,0,0,1-1.92,1.36,6.31,6.31,0,0,1-2.53.49,6.24,6.24,0,0,1-2.51-.49,5.83,5.83,0,0,1-1.92-1.36,6,6,0,0,1-1.22-2,7.15,7.15,0,0,1-.43-2.53,7.22,7.22,0,0,1,.43-2.55,6,6,0,0,1,1.22-2,5.86,5.86,0,0,1,1.92-1.37,6.6,6.6,0,0,1,5,0,5.86,5.86,0,0,1,1.92,1.37,6,6,0,0,1,1.23,2,7.45,7.45,0,0,1,.42,2.55A7.38,7.38,0,0,1,168.1,296.12Z"/><polyline class="cls-2" points="183.54 298.02 178.16 284.53 178.09 284.37 174.07 284.37 181.51 302.63 181.58 302.79 185.23 302.79 192.51 284.37 188.73 284.37 183.54 298.02"/><path class="cls-2" d="M210.33,286.46a7.89,7.89,0,0,0-2.8-1.91,9.43,9.43,0,0,0-3.53-.65,9.92,9.92,0,0,0-3.77.71,8.88,8.88,0,0,0-5,5.06,10.56,10.56,0,0,0-.71,3.92,10.91,10.91,0,0,0,.65,3.75,9.2,9.2,0,0,0,1.86,3.08,8.78,8.78,0,0,0,2.94,2.07,9.5,9.5,0,0,0,3.88.77,11.47,11.47,0,0,0,4.55-.84,9.24,9.24,0,0,0,3.61-3l.16-.2-2.64-2.06-.16.2a7.59,7.59,0,0,1-2.34,1.95,6.9,6.9,0,0,1-3.18.66,5.3,5.3,0,0,1-2.15-.44,5.58,5.58,0,0,1-1.72-1.19,5.9,5.9,0,0,1-1.2-1.76,5.73,5.73,0,0,1-.5-1.84h14.44v-1.2a12.41,12.41,0,0,0-.62-4.06,8.42,8.42,0,0,0-1.8-3m-12,5.25a5.42,5.42,0,0,1,1.68-3.23,5.52,5.52,0,0,1,3.87-1.32,5.08,5.08,0,0,1,3.74,1.31,5,5,0,0,1,1.38,3.24Z"/><path class="cls-2" d="M226,283.9a7,7,0,0,0-2.12.31,7.89,7.89,0,0,0-1.79.79,6.89,6.89,0,0,0-1.37,1.12,4.68,4.68,0,0,0-.5.62l0-.68c0-.48,0-1,0-1.43v-.26h-3.35v.26c0,.58,0,1.24.07,2s.07,1.47.07,2.28v13.92h3.52v-9a8.26,8.26,0,0,1,1.19-4.75,4.28,4.28,0,0,1,3.8-1.66,5.49,5.49,0,0,1,1.53.21l.31.09.24-3.53-.19-.06a3.73,3.73,0,0,0-1.34-.22"/><path class="cls-2" d="M246.24,286a5.89,5.89,0,0,0-2.22-1.57,8.26,8.26,0,0,0-3.16-.55,7.08,7.08,0,0,0-2.13.31A7.62,7.62,0,0,0,237,285a7,7,0,0,0-1.38,1.12,5.54,5.54,0,0,0-.49.62l0-.68c0-.48-.05-1-.05-1.43v-.26h-3.34v.26c0,.58,0,1.24.07,2s.07,1.47.07,2.28v13.92h3.51v-9a11.08,11.08,0,0,1,.32-2.74,6,6,0,0,1,1-2.09,4.25,4.25,0,0,1,1.62-1.34,5.55,5.55,0,0,1,2.4-.49,3.4,3.4,0,0,1,2.9,1.19,5.65,5.65,0,0,1,.93,3.44v11H248V291.48a10.87,10.87,0,0,0-.41-3.05,6.3,6.3,0,0,0-1.3-2.41"/><path class="cls-2" d="M279,286a5.4,5.4,0,0,0-2.2-1.57,9,9,0,0,0-3.33-.54,6.06,6.06,0,0,0-3.49.94,8.72,8.72,0,0,0-2.15,2.21c-.11-.2-.24-.43-.39-.67a4.47,4.47,0,0,0-1.06-1.18,6.61,6.61,0,0,0-1.7-.92,7.49,7.49,0,0,0-2.53-.38,7,7,0,0,0-2.13.31,7.62,7.62,0,0,0-1.78.79,6.69,6.69,0,0,0-1.38,1.12,5.66,5.66,0,0,0-.5.62c0-.23,0-.46,0-.68,0-.48,0-1,0-1.43v-.26H253v.26c0,.58,0,1.24.08,2s.07,1.47.07,2.28v13.92h3.51v-9a11.08,11.08,0,0,1,.32-2.74,6.18,6.18,0,0,1,.95-2.09,4.36,4.36,0,0,1,1.63-1.34,5.52,5.52,0,0,1,2.4-.49,2.63,2.63,0,0,1,2.41,1.13,8.12,8.12,0,0,1,.76,4.09v10.41h3.51V292.2a6,6,0,0,1,.35-2.07,5,5,0,0,1,1-1.59,4.17,4.17,0,0,1,1.38-1,3.88,3.88,0,0,1,1.7-.37,4.65,4.65,0,0,1,2,.39,3.26,3.26,0,0,1,1.24,1,4,4,0,0,1,.64,1.47,8.57,8.57,0,0,1,.18,1.77v11h3.51V291.66a13.05,13.05,0,0,0-.36-3.18A6.2,6.2,0,0,0,279,286"/><path class="cls-2" d="M300.49,286.46a7.89,7.89,0,0,0-2.8-1.91,9.43,9.43,0,0,0-3.53-.65,9.92,9.92,0,0,0-3.77.71,8.88,8.88,0,0,0-5,5.06,10.56,10.56,0,0,0-.71,3.92,10.91,10.91,0,0,0,.65,3.75,9.2,9.2,0,0,0,1.86,3.08,8.78,8.78,0,0,0,2.94,2.07,9.5,9.5,0,0,0,3.88.77,11.47,11.47,0,0,0,4.55-.84,9.24,9.24,0,0,0,3.61-3l.16-.2-2.64-2.06-.16.2a7.59,7.59,0,0,1-2.34,1.95A6.9,6.9,0,0,1,294,300a5.22,5.22,0,0,1-2.14-.44,5.51,5.51,0,0,1-1.73-1.19,5.9,5.9,0,0,1-1.2-1.76,5.73,5.73,0,0,1-.5-1.84h14.44v-1.2a12.41,12.41,0,0,0-.62-4.06,8.42,8.42,0,0,0-1.8-3m-12,5.25a5.42,5.42,0,0,1,1.68-3.23,5.52,5.52,0,0,1,3.87-1.32,5.08,5.08,0,0,1,3.74,1.31,5,5,0,0,1,1.38,3.24Z"/><path class="cls-2" d="M321.56,286a6,6,0,0,0-2.23-1.57,8.23,8.23,0,0,0-3.16-.55,7,7,0,0,0-2.12.31,7.89,7.89,0,0,0-1.79.79,6.89,6.89,0,0,0-1.37,1.12,4.68,4.68,0,0,0-.5.62l0-.68c0-.48,0-1,0-1.43v-.26H307v.26c0,.58,0,1.24.07,2s.08,1.47.08,2.28v13.92h3.51v-9a10.62,10.62,0,0,1,.32-2.74,6.18,6.18,0,0,1,.95-2.09,4.36,4.36,0,0,1,1.63-1.34,5.49,5.49,0,0,1,2.4-.49,3.38,3.38,0,0,1,2.89,1.19,5.58,5.58,0,0,1,.93,3.44v11h3.51V291.48a10.52,10.52,0,0,0-.41-3.05,6.29,6.29,0,0,0-1.29-2.41"/><path class="cls-2" d="M337.93,299.39a5,5,0,0,1-1.23.44,6,6,0,0,1-1.3.15,2.78,2.78,0,0,1-1.4-.29,1.79,1.79,0,0,1-.7-.77,3.37,3.37,0,0,1-.27-1.21c0-.49,0-1,0-1.6v-8.7h5.27v-3H333v-5.09h-3.51v5.09h-3.9v3h3.9V297a18.16,18.16,0,0,0,.17,2.57,4.66,4.66,0,0,0,.77,2,3.85,3.85,0,0,0,1.6,1.28,6.62,6.62,0,0,0,2.66.44,10.76,10.76,0,0,0,1.82-.16,8.56,8.56,0,0,0,1.75-.51l.16-.07-.12-3.31-.36.18"/><path class="cls-2" d="M362.65,275.18h-3.37l-12.17,27.61h4.22l2.77-6.64h13.21l2.77,6.64h4.3l-11.66-27.45-.07-.16m-7.06,17.45,5.28-12.47,5,12.47Z"/><path class="cls-2" d="M392.37,298.29V284.37h-3.51v9a11.11,11.11,0,0,1-.32,2.73,6.2,6.2,0,0,1-1,2.11,4.32,4.32,0,0,1-1.63,1.33,5.6,5.6,0,0,1-2.39.47,3.39,3.39,0,0,1-2.89-1.18,5.54,5.54,0,0,1-.94-3.42v-11h-3.51v11.31a10.9,10.9,0,0,0,.41,3,6.49,6.49,0,0,0,1.3,2.42,6.14,6.14,0,0,0,2.21,1.56,8.24,8.24,0,0,0,3.17.56,7.17,7.17,0,0,0,3.9-1.09,6.34,6.34,0,0,0,1.89-1.76c0,.22,0,.45,0,.67,0,.48,0,1,0,1.45v.26h3.36v-.26c0-.59,0-1.26-.07-2s-.07-1.48-.07-2.27"/><path class="cls-2" d="M407.78,299.39a5,5,0,0,1-1.23.44,6,6,0,0,1-1.3.15,2.77,2.77,0,0,1-1.39-.29,1.79,1.79,0,0,1-.7-.77,3.36,3.36,0,0,1-.28-1.21c0-.49,0-1,0-1.6v-8.7h5.27v-3h-5.27v-5.09h-3.51v5.09h-3.9v3h3.9V297a16.71,16.71,0,0,0,.18,2.57,4.65,4.65,0,0,0,.76,2,3.85,3.85,0,0,0,1.6,1.28,6.62,6.62,0,0,0,2.66.44,10.59,10.59,0,0,0,1.82-.16,8.56,8.56,0,0,0,1.75-.51l.16-.07-.12-3.31-.36.18"/><path class="cls-2" d="M426.52,286a5.89,5.89,0,0,0-2.22-1.57,8.12,8.12,0,0,0-3.14-.55,7.11,7.11,0,0,0-2,.28,8.88,8.88,0,0,0-1.71.72,6.59,6.59,0,0,0-1.34,1c-.17.17-.33.34-.47.51V273.35H412.1v29.44h3.51v-9a11.08,11.08,0,0,1,.32-2.74,6.37,6.37,0,0,1,.94-2.09,4.25,4.25,0,0,1,1.62-1.34,5.52,5.52,0,0,1,2.4-.49,3.41,3.41,0,0,1,2.89,1.19,5.52,5.52,0,0,1,1,3.44v11h3.51V291.48a10.51,10.51,0,0,0-.42-3.05,6.52,6.52,0,0,0-1.31-2.41"/><path class="cls-2" d="M449.23,286.61a9.35,9.35,0,0,0-3.1-2,10.74,10.74,0,0,0-3.94-.71,10.63,10.63,0,0,0-3.92.71,9.4,9.4,0,0,0-3.11,2,9.19,9.19,0,0,0-2,3,10.67,10.67,0,0,0,0,7.86,9.07,9.07,0,0,0,5.15,5,10.63,10.63,0,0,0,3.92.71,10.74,10.74,0,0,0,3.94-.71,9.15,9.15,0,0,0,5.15-5,10.81,10.81,0,0,0,0-7.86,9.37,9.37,0,0,0-2-3m-1.37,9.51a5.83,5.83,0,0,1-1.23,2,5.69,5.69,0,0,1-1.91,1.36,6.34,6.34,0,0,1-2.53.49,6.24,6.24,0,0,1-2.51-.49,5.73,5.73,0,0,1-1.92-1.36,6,6,0,0,1-1.23-2,7.38,7.38,0,0,1-.42-2.53,7.45,7.45,0,0,1,.42-2.55,6,6,0,0,1,1.23-2,5.76,5.76,0,0,1,1.92-1.37,6.08,6.08,0,0,1,2.51-.5,6.17,6.17,0,0,1,2.53.5,5.93,5.93,0,0,1,3.14,3.38,7.72,7.72,0,0,1,0,5.08Z"/><path class="cls-2" d="M465.5,283.9a7.08,7.08,0,0,0-2.13.31,7.62,7.62,0,0,0-1.78.79,7,7,0,0,0-1.38,1.12,7.14,7.14,0,0,0-.5.62c0-.23,0-.46,0-.68,0-.48-.05-1-.05-1.43v-.26H456.3v.26c0,.58,0,1.24.07,2s.07,1.47.07,2.28v13.92H460v-9a8.18,8.18,0,0,1,1.2-4.75,4.26,4.26,0,0,1,3.8-1.66,5.42,5.42,0,0,1,1.52.21l.31.09.24-3.53-.18-.06a3.81,3.81,0,0,0-1.34-.22"/><rect class="cls-2" x="470.45" y="284.37" width="3.49" height="18.43"/><path class="cls-2" d="M472.21,275.18a2.36,2.36,0,0,0-1.74.73,2.42,2.42,0,0,0-.71,1.72,2.32,2.32,0,0,0,.69,1.73,2.42,2.42,0,0,0,1.76.68,2.33,2.33,0,0,0,2.41-2.41,2.44,2.44,0,0,0-.69-1.72,2.34,2.34,0,0,0-1.72-.73"/><path class="cls-2" d="M489.08,299.39a4.85,4.85,0,0,1-1.23.44,5.9,5.9,0,0,1-1.3.15,2.77,2.77,0,0,1-1.39-.29,1.79,1.79,0,0,1-.7-.77,3.36,3.36,0,0,1-.28-1.21c0-.49,0-1,0-1.6v-8.7h5.28v-3h-5.28v-5.09h-3.51v5.09h-3.89v3h3.89V297a16.71,16.71,0,0,0,.18,2.57,4.65,4.65,0,0,0,.76,2,3.82,3.82,0,0,0,1.61,1.28,6.58,6.58,0,0,0,2.66.44,10.56,10.56,0,0,0,1.81-.16,8.56,8.56,0,0,0,1.75-.51l.17-.07-.13-3.31-.36.18"/><path class="cls-2" d="M506.42,284.37l-5.18,13.68-5.36-13.52-.06-.16h-4l7.53,18.27-1.19,3.27A6.57,6.57,0,0,1,497,308a2.45,2.45,0,0,1-1.94.72c-.43,0-.81,0-1.13-.05a3.51,3.51,0,0,1-.89-.22l-.3-.12-.47,3.09.17.08a4.18,4.18,0,0,0,1.42.42,13.54,13.54,0,0,0,1.38.08,6.69,6.69,0,0,0,2.38-.37,4.89,4.89,0,0,0,1.7-1.1,6.48,6.48,0,0,0,1.2-1.67c.31-.63.63-1.34.93-2.11l8.8-22.36h-3.82"/><g class="cls-3"><rect class="cls-4" x="258.5" y="53.57" width="47.15" height="64.14"/></g><g class="cls-5"><rect class="cls-6" x="234.96" y="20.27" width="56.03" height="97.47"/></g><g class="cls-7"><rect class="cls-8" x="278.38" y="84.4" width="18.92" height="15.1"/></g><g class="cls-9"><rect class="cls-10" x="196.24" y="103.26" width="117.76" height="66.87"/></g><g class="cls-11"><rect class="cls-12" x="212.92" y="10.85" width="18.92" height="15.1"/></g><g class="cls-13"><rect class="cls-14" x="219.24" width="56.03" height="90.08"/></g><g class="cls-15"><rect class="cls-16" x="204.58" y="0.03" width="47.15" height="56.75"/></g></g></g></svg>