<svg xmlns="http://www.w3.org/2000/svg" xmlns:xlink="http://www.w3.org/1999/xlink" width="847.181" height="88.083" viewBox="0 0 847.181 88.083">
  <defs>
    <clipPath id="clip-path">
      <rect id="Rectangle_3597" data-name="Rectangle 3597" width="467.828" height="87.841" fill="none"/>
    </clipPath>
  </defs>
  <g id="Group_15859" data-name="Group 15859" transform="translate(-430.137 -211.861)" opacity="0.148">
    <g id="Group_15484" data-name="Group 15484" transform="translate(430.137 211.982)">
      <g id="Group_15483" data-name="Group 15483" transform="translate(0 0)" clip-path="url(#clip-path)">
        <path id="Path_17639" data-name="Path 17639" d="M375.6.5a43.908,43.908,0,0,0,40.026,39.823" transform="translate(-91.154 -0.121)" fill="none" stroke="#bababa" stroke-width="1"/>
        <path id="Path_17640" data-name="Path 17640" d="M415.63,40.321A43.919,43.919,0,0,0,375.6.5" transform="translate(-91.154 -0.121)" fill="none" stroke="#bababa" stroke-width="1"/>
        <path id="Path_17641" data-name="Path 17641" d="M478.264.5a43.911,43.911,0,0,0-40.027,39.823" transform="translate(-106.354 -0.121)" fill="#d5d5d5" stroke="#bababa" stroke-width="1"/>
        <path id="Path_17642" data-name="Path 17642" d="M438.237,40.321A43.91,43.91,0,0,0,478.263.5" transform="translate(-106.354 -0.121)" fill="#d5d5d5" stroke="#bababa" stroke-width="1"/>
        <path id="Path_17643" data-name="Path 17643" d="M375.6,102.731a43.918,43.918,0,0,0,40.026-39.822A43.906,43.906,0,0,0,375.6,102.731" transform="translate(-91.154 -15.267)" fill="none" stroke="#bababa" stroke-width="1"/>
        <path id="Path_17644" data-name="Path 17644" d="M478.264,102.731a43.916,43.916,0,0,0-40.027-39.822,43.92,43.92,0,0,0,40.027,39.822" transform="translate(-106.354 -15.267)" fill="#d5d5d5" stroke="#bababa" stroke-width="1"/>
        <path id="Path_17645" data-name="Path 17645" d="M501.763.5a43.908,43.908,0,0,0,40.026,39.823" transform="translate(-121.771 -0.121)" fill="none" stroke="#bababa" stroke-width="1"/>
        <path id="Path_17646" data-name="Path 17646" d="M541.789,40.321A43.919,43.919,0,0,0,501.763.5" transform="translate(-121.771 -0.121)" fill="none" stroke="#bababa" stroke-width="1"/>
        <path id="Path_17647" data-name="Path 17647" d="M604.422.5A43.911,43.911,0,0,0,564.4,40.321" transform="translate(-136.971 -0.121)" fill="#bababa" stroke="#bababa" stroke-width="1"/>
        <path id="Path_17648" data-name="Path 17648" d="M564.4,40.321A43.91,43.91,0,0,0,604.422.5" transform="translate(-136.971 -0.121)" fill="#bababa" stroke="#bababa" stroke-width="1"/>
        <path id="Path_17649" data-name="Path 17649" d="M501.763,102.731a43.918,43.918,0,0,0,40.026-39.822,43.906,43.906,0,0,0-40.026,39.822" transform="translate(-121.771 -15.267)" fill="none" stroke="#bababa" stroke-width="1"/>
        <path id="Path_17669" data-name="Path 17669" d="M501.763,102.731a43.918,43.918,0,0,0,40.026-39.822,43.906,43.906,0,0,0-40.026,39.822" transform="translate(-313.51 -15.267)" fill="none" stroke="#bababa" stroke-width="1"/>
        <path id="Path_17650" data-name="Path 17650" d="M604.422,102.731A43.916,43.916,0,0,0,564.4,62.909a43.92,43.92,0,0,0,40.027,39.822" transform="translate(-136.971 -15.267)" fill="none" stroke="#bababa" stroke-width="1"/>
        <path id="Path_17651" data-name="Path 17651" d="M.5.5A43.908,43.908,0,0,0,40.524,40.321" transform="translate(-0.121 -0.121)" fill="none" stroke="#bababa" stroke-width="1"/>
        <path id="Path_17652" data-name="Path 17652" d="M40.524,40.321A43.919,43.919,0,0,0,.5.5" transform="translate(-0.121 -0.121)" fill="none" stroke="#bababa" stroke-width="1"/>
        <path id="Path_17653" data-name="Path 17653" d="M103.157.5A43.911,43.911,0,0,0,63.13,40.321" transform="translate(-15.321 -0.121)" fill="none" stroke="#bababa" stroke-width="1"/>
        <path id="Path_17654" data-name="Path 17654" d="M63.13,40.321A43.91,43.91,0,0,0,103.157.5" transform="translate(-15.321 -0.121)" fill="none" stroke="#bababa" stroke-width="1"/>
        <path id="Path_17655" data-name="Path 17655" d="M.5,102.731A43.918,43.918,0,0,0,40.524,62.909,43.906,43.906,0,0,0,.5,102.731" transform="translate(-0.121 -15.267)" fill="none" stroke="#bababa" stroke-width="1"/>
        <path id="Path_17656" data-name="Path 17656" d="M103.157,102.731A43.916,43.916,0,0,0,63.13,62.909a43.92,43.92,0,0,0,40.027,39.822" transform="translate(-15.321 -15.267)" fill="none" stroke="#bababa" stroke-width="1"/>
        <path id="Path_17657" data-name="Path 17657" d="M124.986.5a43.908,43.908,0,0,0,40.026,39.823" transform="translate(-30.332 -0.121)" fill="#bababa" stroke="#bababa" stroke-width="1"/>
        <path id="Path_17658" data-name="Path 17658" d="M165.011,40.321A43.919,43.919,0,0,0,124.985.5" transform="translate(-30.332 -0.121)" fill="#bababa" stroke="#bababa" stroke-width="1"/>
        <path id="Path_17659" data-name="Path 17659" d="M227.645.5a43.911,43.911,0,0,0-40.027,39.823" transform="translate(-45.532 -0.121)" fill="#bababa" stroke="#bababa" stroke-width="1"/>
        <path id="Path_17660" data-name="Path 17660" d="M187.617,40.321A43.91,43.91,0,0,0,227.644.5" transform="translate(-45.532 -0.121)" fill="#bababa" stroke="#bababa" stroke-width="1"/>
        <path id="Path_17661" data-name="Path 17661" d="M124.986,102.731a43.918,43.918,0,0,0,40.026-39.822,43.906,43.906,0,0,0-40.026,39.822" transform="translate(-30.332 -15.267)" fill="#d5d5d5"/>
        <path id="Path_17662" data-name="Path 17662" d="M227.645,102.731a43.916,43.916,0,0,0-40.027-39.822,43.92,43.92,0,0,0,40.027,39.822" transform="translate(-45.532 -15.267)" fill="#bababa" stroke="#bababa" stroke-width="1"/>
        <path id="Path_17663" data-name="Path 17663" d="M249.474.5A43.908,43.908,0,0,0,289.5,40.321" transform="translate(-60.544 -0.121)" fill="#fff" stroke="#bababa" stroke-width="1"/>
        <path id="Path_17664" data-name="Path 17664" d="M289.5,40.321A43.919,43.919,0,0,0,249.473.5" transform="translate(-60.544 -0.121)" fill="#fff" stroke="#bababa" stroke-width="1"/>
        <path id="Path_17665" data-name="Path 17665" d="M352.133.5a43.912,43.912,0,0,0-40.028,39.823" transform="translate(-75.744 -0.121)" fill="none" stroke="#bababa" stroke-width="1"/>
        <path id="Path_17666" data-name="Path 17666" d="M312.105,40.321A43.91,43.91,0,0,0,352.132.5" transform="translate(-75.744 -0.121)" fill="none" stroke="#bababa" stroke-width="1"/>
        <path id="Path_17668" data-name="Path 17668" d="M352.133,102.731a43.918,43.918,0,0,0-40.028-39.822,43.921,43.921,0,0,0,40.028,39.822" transform="translate(-75.744 -15.267)" fill="none" stroke="#bababa" stroke-width="1"/>
      </g>
    </g>
    <g id="Group_15835" data-name="Group 15835" transform="translate(905.286 212.36)">
      <g id="Group_15890" data-name="Group 15890" transform="translate(0 0)" opacity="0.705">
        <path id="Path_17639-2" data-name="Path 17639" d="M375.6.5a43.908,43.908,0,0,0,40.026,39.823" transform="translate(-91.531 -0.498)" fill="none" stroke="#bababa" stroke-width="1"/>
        <path id="Path_17640-2" data-name="Path 17640" d="M415.63,40.321A43.919,43.919,0,0,0,375.6.5" transform="translate(-91.531 -0.498)" fill="none" stroke="#bababa" stroke-width="1"/>
        <path id="Path_17641-2" data-name="Path 17641" d="M478.264.5a43.911,43.911,0,0,0-40.027,39.823" transform="translate(-106.731 -0.498)" fill="none" stroke="#bababa" stroke-width="1"/>
        <path id="Path_17642-2" data-name="Path 17642" d="M438.237,40.321A43.91,43.91,0,0,0,478.263.5" transform="translate(-106.731 -0.498)" fill="none" stroke="#bababa" stroke-width="1"/>
        <path id="Path_17643-2" data-name="Path 17643" d="M375.6,102.731a43.918,43.918,0,0,0,40.026-39.822A43.906,43.906,0,0,0,375.6,102.731" transform="translate(-91.531 -15.644)" fill="none" stroke="#bababa" stroke-width="1"/>
        <path id="Path_17644-2" data-name="Path 17644" d="M478.264,102.731a43.916,43.916,0,0,0-40.027-39.822,43.92,43.92,0,0,0,40.027,39.822" transform="translate(-106.731 -15.644)" fill="none" stroke="#bababa" stroke-width="1"/>
        <path id="Path_17669-2" data-name="Path 17669" d="M501.763,102.731a43.918,43.918,0,0,0,40.026-39.822,43.906,43.906,0,0,0-40.026,39.822" transform="translate(-313.887 -15.644)" fill="none" stroke="#bababa" stroke-width="1"/>
        <path id="Path_17651-2" data-name="Path 17651" d="M.5.5A43.908,43.908,0,0,0,40.524,40.321" transform="translate(-0.498 -0.498)" fill="none" stroke="#bababa" stroke-width="1"/>
        <path id="Path_17652-2" data-name="Path 17652" d="M40.524,40.321A43.919,43.919,0,0,0,.5.5" transform="translate(-0.498 -0.498)" fill="none" stroke="#bababa" stroke-width="1"/>
        <path id="Path_17653-2" data-name="Path 17653" d="M103.157.5A43.911,43.911,0,0,0,63.13,40.321" transform="translate(-15.698 -0.498)" fill="none" stroke="#bababa" stroke-width="1"/>
        <path id="Path_17654-2" data-name="Path 17654" d="M63.13,40.321A43.91,43.91,0,0,0,103.157.5" transform="translate(-15.698 -0.498)" fill="none" stroke="#bababa" stroke-width="1"/>
        <path id="Path_17655-2" data-name="Path 17655" d="M.5,102.731A43.918,43.918,0,0,0,40.524,62.909,43.906,43.906,0,0,0,.5,102.731" transform="translate(-0.498 -15.644)" fill="none" stroke="#bababa" stroke-width="1"/>
        <path id="Path_17656-2" data-name="Path 17656" d="M103.157,102.731A43.916,43.916,0,0,0,63.13,62.909a43.92,43.92,0,0,0,40.027,39.822" transform="translate(-15.698 -15.644)" fill="none" stroke="#bababa" stroke-width="1"/>
        <path id="Path_17657-2" data-name="Path 17657" d="M124.986.5a43.908,43.908,0,0,0,40.026,39.823" transform="translate(-30.71 -0.498)" fill="none" stroke="#bababa" stroke-width="1"/>
        <path id="Path_17658-2" data-name="Path 17658" d="M165.011,40.321A43.919,43.919,0,0,0,124.985.5" transform="translate(-30.709 -0.498)" fill="none" stroke="#bababa" stroke-width="1"/>
        <path id="Path_17659-2" data-name="Path 17659" d="M227.645.5a43.911,43.911,0,0,0-40.027,39.823" transform="translate(-45.909 -0.498)" fill="#fff" stroke="#bababa" stroke-width="1"/>
        <path id="Path_17660-2" data-name="Path 17660" d="M187.617,40.321A43.91,43.91,0,0,0,227.644.5" transform="translate(-45.909 -0.498)" fill="#fff" stroke="#bababa" stroke-width="1"/>
        <path id="Path_17661-2" data-name="Path 17661" d="M124.986,102.731a43.918,43.918,0,0,0,40.026-39.822,43.906,43.906,0,0,0-40.026,39.822" transform="translate(-30.71 -15.644)" fill="none" stroke="#bababa" stroke-width="1"/>
        <path id="Path_17662-2" data-name="Path 17662" d="M227.645,102.731a43.916,43.916,0,0,0-40.027-39.822,43.92,43.92,0,0,0,40.027,39.822" transform="translate(-45.909 -15.644)" fill="none" stroke="#bababa" stroke-width="1"/>
        <path id="Path_17663-2" data-name="Path 17663" d="M249.474.5A43.908,43.908,0,0,0,289.5,40.321" transform="translate(-60.921 -0.498)" fill="none" stroke="#bababa" stroke-width="1"/>
        <path id="Path_17664-2" data-name="Path 17664" d="M289.5,40.321A43.919,43.919,0,0,0,249.473.5" transform="translate(-60.921 -0.498)" fill="none" stroke="#bababa" stroke-width="1"/>
        <path id="Path_17665-2" data-name="Path 17665" d="M352.133.5a43.912,43.912,0,0,0-40.028,39.823" transform="translate(-76.121 -0.498)" fill="none" stroke="#bababa" stroke-width="1"/>
        <path id="Path_17666-2" data-name="Path 17666" d="M312.105,40.321A43.91,43.91,0,0,0,352.132.5" transform="translate(-76.121 -0.498)" fill="none" stroke="#bababa" stroke-width="1"/>
        <path id="Path_17668-2" data-name="Path 17668" d="M352.133,102.731a43.918,43.918,0,0,0-40.028-39.822,43.921,43.921,0,0,0,40.028,39.822" transform="translate(-76.121 -15.644)" fill="none" stroke="#bababa" stroke-width="1"/>
      </g>
    </g>
  </g>
</svg>
