<svg xmlns="http://www.w3.org/2000/svg" width="240" height="120"  xmlns:v="https://vecta.io/nano"><g fill="#158285"><path d="M3.36 64.866h.107a1.02 1.02 0 0 0 1.12-.907v-.107a1.12 1.12 0 0 0-2.24 0 1.05 1.05 0 0 0 1.013 1.014zm3.04 0h.107a1.02 1.02 0 0 0 1.12-.907v-.107a1.12 1.12 0 0 0-2.24 0A.98.98 0 0 0 6.4 64.866zM9.226 76.07h-.053c-.277-.026-.552.062-.763.243a1.03 1.03 0 0 0-.357.717v.053a1.12 1.12 0 0 0 2.24 0c-.003-.277-.118-.541-.319-.732s-.471-.292-.748-.281zm2.987 0h-.053c-.277-.026-.552.062-.763.243a1.03 1.03 0 0 0-.357.717v.053a1.12 1.12 0 1 0 2.24 0c-.003-.277-.118-.541-.319-.732s-.471-.292-.748-.281zm6.987-5.604a2.14 2.14 0 0 1 1.92-2.293h.267a5.35 5.35 0 0 1 2.187.587l.587-1.653a6.97 6.97 0 0 0-2.933-.693 3.5 3.5 0 0 0-3.787 3.787 7.73 7.73 0 0 0 .587 2.667h-3.84v-6.347h-1.815v6.347H7.52v-6.347H4.64c-2.773 0-4.64 1.707-4.64 4.107s1.76 4.053 4.373 4.053H24.48v-1.813H20c-.47-.718-.746-1.545-.8-2.402zM5.76 72.813H4.213a2.3 2.3 0 1 1 0-4.587H5.76zm34.666-7.574h.107c.559.057 1.059-.348 1.12-.907v-.107a1.12 1.12 0 0 0-2.24 0 1.05 1.05 0 0 0 1.013 1.014zm3.041 0h.107a1.04 1.04 0 0 0 1.021-1.491 1.04 1.04 0 0 0-.861-.589h-.16c-.277-.026-.552.062-.763.243a1.03 1.03 0 0 0-.357.717v.053a1 1 0 0 0 .27.758.99.99 0 0 0 .743.309zm8.213 1.067a6.46 6.46 0 0 0-2.987.853l.64 1.653a4.12 4.12 0 0 1 2.24-.693c2.187 0 2.613 2.56 3.84 4.747H46.24v-6.347h-1.813v6.347h-4.853v-2.187c0-2.613-1.6-4.32-4-4.32s-4 1.76-4 4.32v-.053c0 1.547-.747 2.24-2.187 2.24H28.16v-9.653h-1.813V74.68h3.04c1.333 0 2.453-.32 2.987-1.333a3.68 3.68 0 0 0 3.2 1.333h22.187v-1.813c-1.654-.801-1.707-6.561-6.081-6.561zm-16.106 6.507A1.99 1.99 0 0 1 33.387 71v-.373c-.117-.853.272-1.696.997-2.159s1.653-.464 2.378 0 1.114 1.307.997 2.159v2.24h-2.186z"/><path d="M52.906 76.071h-.053a1.05 1.05 0 0 0-1.173.906 1.05 1.05 0 0 0 .906 1.173h.267c.277.026.552-.062.763-.243a1.03 1.03 0 0 0 .357-.717v-.107c-.003-.277-.118-.541-.319-.732s-.471-.292-.748-.281zm13.441-3.258H60v1.813h8.16V63.16h-1.813zm-4.427-8.48h1.813v7.573H61.92zm8.587-1.174h1.813v11.467h-1.813z"/><circle cx="79.84" cy="63.853" r="1.12"/><circle cx="82.827" cy="63.853" r="1.12"/><path d="M85.546 76.07h-.053c-.277-.026-.552.062-.763.243a1.03 1.03 0 0 0-.357.717v.053c.004.617.503 1.116 1.12 1.12.609-.023 1.097-.511 1.12-1.12a1.1 1.1 0 0 0-1.067-1.013zm2.987 0h-.053c-.277-.026-.552.062-.763.243a1.03 1.03 0 0 0-.357.717v.053c.004.617.503 1.116 1.12 1.12.609-.022 1.098-.511 1.12-1.12-.003-.277-.118-.541-.319-.732s-.471-.292-.748-.281zm15.947-10.83h.107c.559.057 1.059-.348 1.12-.907v-.107A1.15 1.15 0 0 0 104.641 63a1.15 1.15 0 0 0-1.227 1.066c-.028.618.448 1.143 1.066 1.174zm6.186-2.077h-.053c-.277-.026-.552.062-.763.243a1.03 1.03 0 0 0-.357.717v.053a1.12 1.12 0 1 0 2.24 0 1.1 1.1 0 0 0-1.067-1.013zm3.094 0c-.277-.026-.552.062-.763.243a1.03 1.03 0 0 0-.357.717v.053c-.059.618.394 1.168 1.013 1.227s1.168-.394 1.227-1.013-.394-1.168-1.013-1.227zm6.72 9.649h-3.787v-6.347h-1.813v6.347h-5.44v-6.347h-1.813v6.347h-5.12v-2.187c0-2.613-1.6-4.32-4-4.32s-4 1.76-4 4.32v-.053c0 1.547-.747 2.24-2.187 2.24h-1.813v-6.347H88.64v6.347h-4.853v-6.347h-2.934c-2.773 0-4.64 1.707-4.64 4.107s1.76 4.053 4.373 4.053h11.68c1.333 0 2.453-.32 2.987-1.333a3.68 3.68 0 0 0 3.2 1.333h23.733V63.159h-1.813v9.653zm-38.4 0h-1.547a2.3 2.3 0 1 1 0-4.587h1.547zm16.427 0a1.99 1.99 0 0 1-2.187-1.813v-.373c-.071-.629.126-1.258.542-1.735s1.013-.757 1.645-.772c.636.006 1.239.283 1.657.762s.611 1.114.53 1.745v2.24h-2.187zm26.08-9.653h1.813v11.467h-1.813zm7.946 3.307c-2.773 0-4.64 1.707-4.64 4.107s1.76 4.053 4.373 4.053h1.387c-.053 1.013-.747 1.28-1.707 1.28a8.63 8.63 0 0 1-2.347-.373l.373 1.92c.676.193 1.377.283 2.08.267 2.293 0 3.467-.853 3.467-3.573v-7.681zm1.12 4.053v2.293h-1.547a2.3 2.3 0 1 1 0-4.587h1.547zM94.187 52.226c0-2.56-1.173-3.893-3.84-3.893h-1.28v1.813h1.493c1.227 0 1.867.64 1.867 1.973v2.614h-4.96v1.813h6.667zm4.586 3.893v-7.84H96.96v8.107c0 1.12-.533 1.493-1.28 1.493-.373 0-.693-.053-1.12-.053l-.16 1.547c.366.088.743.124 1.12.107 1.867.106 3.253-.694 3.253-3.361zm2.08-11.093h1.813v11.467h-1.813zm7.68 11.413h1.387c-.053 1.013-.747 1.28-1.707 1.28a7.51 7.51 0 0 1-2.4-.373l.373 1.92a4.58 4.58 0 0 0 1.707.267c2.133 0 3.68-.747 3.787-3.093h3.84a2.87 2.87 0 0 0 2.773-1.333 3.68 3.68 0 0 0 3.2 1.333h9.547V45.026h-1.813v9.653h-3.733v-2.187c0-2.613-1.6-4.32-4-4.32s-4 1.707-4 4.32v-.053c0 1.547-.747 2.293-2.187 2.293h-3.68v-6.4H108.8c-2.773 0-4.64 1.707-4.64 4.107 0 2.347 1.76 4 4.373 4zm10.773-4h0c-.069-.637.135-1.274.562-1.752s1.037-.752 1.678-.755c.636.006 1.239.283 1.657.762s.611 1.114.53 1.745v2.24h-2.187a1.99 1.99 0 0 1-2.187-1.813 1.34 1.34 0 0 1-.052-.427zm-10.933-2.293h1.547v4.587h-1.493a2.3 2.3 0 0 1-2.507-2.293v-.053a2.19 2.19 0 0 1 2.453-2.241zm25.067-5.12h1.813v11.467h-1.813zM36.8 46.679h.107a1.02 1.02 0 0 0 1.12-.907v-.107a1.12 1.12 0 1 0-2.24 0 .98.98 0 0 0 1.013 1.014zm-2.986 0h.107a1.02 1.02 0 0 0 1.12-.907v-.107c-.004-.617-.503-1.116-1.12-1.12-.609.023-1.097.511-1.12 1.12a.95.95 0 0 0 1.013 1.014zm.96 9.761h9.813v-8.16h-1.813v6.347H37.92V48.28h-2.933c-2.773 0-4.64 1.707-4.64 4.107a4.08 4.08 0 0 0 1.327 2.995 4.09 4.09 0 0 0 3.1 1.058zm-.16-6.347h1.547v4.533h-1.547a2.28 2.28 0 1 1 0-4.533zm25.919-4.321h.107a.96.96 0 0 0 .711-.205.97.97 0 0 0 .356-.648v-.107a1.07 1.07 0 1 0-1.173.96zm-1.44 2.24h.107a.99.99 0 0 0-.16-1.973c-.522.045-.92.489-.907 1.013-.01.258.088.508.27.69s.432.28.69.27zm1.924-1.066v.107a1.07 1.07 0 1 0 1.173-.96h-.107a.9.9 0 0 0-1.066.853zm-10.884 9.493H79.2V45.026h-1.813v9.653h-3.52v-6.4h-1.813v6.347H67.2v-6.347h-1.813v6.347H61.6v-5.227h-1.813v5.227h-3.253v-5.227H54.72v5.227h-4.587v-6.507H48.32v8.32c0 1.12-.533 1.493-1.28 1.493-.373 0-.693-.053-1.12-.053l-.16 1.547a3.99 3.99 0 0 0 1.12.107c1.867.053 3.2-.694 3.253-3.094zm31.414-11.413h1.813v11.467h-1.813z"/><circle cx="39.413" cy="58.893" r="1.12"/><circle cx="42.4" cy="58.893" r="1.12"/><path d="M69.707 57.883H69.6c-.277-.026-.552.062-.763.243a1.03 1.03 0 0 0-.357.717v.053c-.059.618.394 1.168 1.013 1.227s1.168-.394 1.227-1.013-.394-1.168-1.013-1.227zM183.2 42.04l1.12.16c1.716-3.161 3.715-6.16 5.973-8.96A66.1 66.1 0 0 0 171.307 23zm30.72 24.107L194.294 59.8l22.987 36.8a63.66 63.66 0 0 0-3.36-30.453z"/></g><path d="M181.813 51.96c8.48-13.547 19.52-23.467 35.52-28.96L171.36 96.6c-2.08-16.8 1.97-31.04 10.453-44.64z" fill="#f7941d"/><path d="M148.64 44.973l24.48 7.947c2.613-1.44 5.28-2.72 8-3.893l1.12-2.613c.64-1.44 1.387-2.827 2.133-4.213-11.958-2.024-24.23-1.072-35.733 2.772zm66.88 7.947l-21.227 6.88L240 74.626a73.63 73.63 0 0 0-24.48-21.707z" fill="#2bb574"/><path d="M148.64 74.627l26.133-8.48a71.75 71.75 0 0 1 3.253-7.467c.74-3.304 1.775-6.535 3.093-9.653-13.001 5.339-24.251 14.206-32.479 25.6zm56.8-32.587L194.293 59.8 240 44.973a73.13 73.13 0 0 0-34.56-2.933z" fill="#fcb614"/></svg>