<svg xmlns="http://www.w3.org/2000/svg" width="30.094" height="31.232" viewBox="0 0 30.094 31.232">
  <g id="Group_9216" data-name="Group 9216" transform="translate(-400.182 -88.365)">
    <g id="Group_9206" data-name="Group 9206">
      <path id="Path_5640" data-name="Path 5640" d="M412.311,101.175a.572.572,0,0,0,.143.4.992.992,0,0,0,.358.245,5.542,5.542,0,0,0,.587.195,5.887,5.887,0,0,1,.766.276,1.348,1.348,0,0,1,.5.4,1.132,1.132,0,0,1,.209.713,1.252,1.252,0,0,1-.5,1.094,2.094,2.094,0,0,1-1.25.358,2.14,2.14,0,0,1-1.247-.328,1.419,1.419,0,0,1-.544-1.1l.716-.106a1.36,1.36,0,0,0,.325.677,1.033,1.033,0,0,0,.763.239,1.3,1.3,0,0,0,.687-.17.605.605,0,0,0,.276-.56.591.591,0,0,0-.144-.412.941.941,0,0,0-.361-.245c-.146-.057-.341-.119-.583-.186a5.7,5.7,0,0,1-.77-.261,1.271,1.271,0,0,1-.5-.4,1.2,1.2,0,0,1-.209-.74,1.248,1.248,0,0,1,.219-.736,1.362,1.362,0,0,1,.6-.474,2.135,2.135,0,0,1,.856-.163,1.411,1.411,0,0,1,1.631,1.38l-.716.086a1.157,1.157,0,0,0-.258-.617.866.866,0,0,0-.664-.219,1.068,1.068,0,0,0-.67.173A.573.573,0,0,0,412.311,101.175Z" fill="#fff"/>
      <path id="Path_5641" data-name="Path 5641" d="M417.4,102.852h-.915v1.931h-.77v-4.8h1.738a1.623,1.623,0,0,1,1.2.375,1.3,1.3,0,0,1,.369.952,1.444,1.444,0,0,1-.237.853,1.357,1.357,0,0,1-.653.493l1.148,2.13h-.842Zm.815-1.492a.642.642,0,0,0-.248-.577,1.369,1.369,0,0,0-.753-.166h-.729v1.612h.749a1.179,1.179,0,0,0,.723-.2A.793.793,0,0,0,418.217,101.36Z" fill="#fff"/>
    </g>
    <g id="Group_9209" data-name="Group 9209">
      <g id="Group_9207" data-name="Group 9207">
        <path id="Path_5642" data-name="Path 5642" d="M401.995,109.729a14.019,14.019,0,0,1,6.467-17.1l-.4-.88a15.008,15.008,0,0,0-6.572,19.322Z" fill="#fff"/>
      </g>
      <g id="Group_9208" data-name="Group 9208">
        <path id="Path_5643" data-name="Path 5643" d="M429.2,99.432l-.891.4a14,14,0,0,1-9.172,18.633l-.423,1.127a15.139,15.139,0,0,0,2.733-.937A15.011,15.011,0,0,0,429.2,99.432Z" fill="#fff"/>
      </g>
    </g>
    <g id="Group_9215" data-name="Group 9215">
      <g id="outline">
        <g id="Group_9210" data-name="Group 9210">
          <path id="Path_5644" data-name="Path 5644" d="M423.794,106.074a2.133,2.133,0,0,0-1.378-.5,2.351,2.351,0,0,0-1.563.587c0-.012,0-.023,0-.035a5.412,5.412,0,0,1-.514.6c-.166.164-.345.316-.527.463l0,.015-1.047,1.047-2.724.908a2.035,2.035,0,0,0-1.732-.967h-5.5a.372.372,0,0,1-.1.033c-.322.045-.646.068-.969.107a2.907,2.907,0,0,0-.568.131.615.615,0,0,0-.1.054l0,0a.6.6,0,0,1-.259.106,3.732,3.732,0,0,0-1.185.972,5.565,5.565,0,0,0-1.214,3.461v.8l-.516,3.1a.465.465,0,0,0,.383.536.489.489,0,0,0,.077.007h8.368a.463.463,0,0,0,.209-.05l1.016-.508,4.676-1.559a.458.458,0,0,0,.208-.141l5.2-6.147A2.134,2.134,0,0,0,423.794,106.074Zm-.461,2.4-5.117,6.047-4.583,1.528a.556.556,0,0,0-.061.025l-.948.474h-7.708l.432-2.6a.394.394,0,0,0,.007-.077v-.835a4.622,4.622,0,0,1,1.01-2.879,2.784,2.784,0,0,1,2.185-1.05H414.3a1.1,1.1,0,0,1,.016,2.206h-2.631a.469.469,0,0,0-.259.078l-1.451.968H408.55a.466.466,0,1,0,0,.932h1.569a.463.463,0,0,0,.258-.078l1.452-.968H414.3a2.037,2.037,0,0,0,2.035-2.035c0-.062,0-.124-.008-.184l2.828-.943a.471.471,0,0,0,.182-.112l2.056-2.057a1.434,1.434,0,0,1,1.02-.422,1.2,1.2,0,0,1,.917,1.977Z" fill="#fff"/>
        </g>
      </g>
      <g id="Group_9211" data-name="Group 9211">
        <path id="Path_5645" data-name="Path 5645" d="M411.677,108.732a3.128,3.128,0,0,1,1.238-.254,6.4,6.4,0,1,1,2.614.561c-.165,0-.327-.013-.489-.025.157.1.312.2.471.3a1.775,1.775,0,0,0,1.191.237,5.457,5.457,0,0,0,2.414-.958,3.587,3.587,0,0,0,.9-.984,14.786,14.786,0,0,1,.983-1.246.569.569,0,0,1,.91.071,7.434,7.434,0,1,0-10.418,2.434A.545.545,0,0,1,411.677,108.732Z" fill="#fff"/>
      </g>
      <g id="Group_9212" data-name="Group 9212">
        <path id="Path_5646" data-name="Path 5646" d="M416.041,93.749V88.878a.512.512,0,1,0-1.025,0v4.871a.512.512,0,1,0,1.025,0Z" fill="#fff"/>
      </g>
      <g id="Group_9213" data-name="Group 9213">
        <path id="Path_5647" data-name="Path 5647" d="M419.888,93.749V91.442a.513.513,0,1,0-1.026,0v2.307a.513.513,0,1,0,1.026,0Z" fill="#fff"/>
      </g>
      <g id="Group_9214" data-name="Group 9214">
        <path id="Path_5648" data-name="Path 5648" d="M412.2,93.749V91.442a.513.513,0,1,0-1.026,0v2.307a.513.513,0,1,0,1.026,0Z" fill="#fff"/>
      </g>
    </g>
  </g>
</svg>
