<svg xmlns="http://www.w3.org/2000/svg" width="38.615" height="38" viewBox="0 0 38.615 38">
  <g id="Line_Expand" transform="translate(-0.01)">
    <path id="Path_17895" data-name="Path 17895" d="M5.124,7.49a.745.745,0,0,0-.744.744v7.445a.745.745,0,0,0,.744.744H8.1a.745.745,0,0,0,.744-.744V8.234A.745.745,0,0,0,8.1,7.49H5.124Zm2.233,7.445H5.869V8.979H7.358Z" transform="translate(6.849 11.686)" fill="#009178"/>
    <path id="Path_17896" data-name="Path 17896" d="M7.434,9.23a.745.745,0,0,0-.744.744v2.978a.745.745,0,0,0,.744.744h2.978a.745.745,0,0,0,.744-.744V9.974a.745.745,0,0,0-.744-.744H7.434Zm2.233,2.978H8.179V10.719H9.668Z" transform="translate(10.469 14.409)" fill="#009178"/>
    <path id="Path_17897" data-name="Path 17897" d="M9.754,6.62a.745.745,0,0,0-.744.744v9.678a.745.745,0,0,0,.744.744h2.978a.745.745,0,0,0,.744-.744V7.364a.745.745,0,0,0-.744-.744H9.754ZM11.988,16.3H10.5V8.109h1.489Z" transform="translate(14.105 10.324)" fill="#009178"/>
    <path id="Path_17898" data-name="Path 17898" d="M3.593,12.648a.638.638,0,0,0,.924.128L9.524,9.028l4.287,2.464a.659.659,0,0,0,.8-.1l5.545-5.545V6.9a.667.667,0,1,0,1.335,0V4.227a.68.68,0,0,0-.667-.667h-2.67a.667.667,0,1,0,0,1.335H19.2l-5.186,5.186L9.78,7.667a.661.661,0,0,0-.744.051l-5.34,4a.638.638,0,0,0-.128.924Z" transform="translate(5.35 5.554)" fill="#009178"/>
    <path id="Path_17899" data-name="Path 17899" d="M29.173,32.262c-.436.231-.821.512-1.258.717A18.286,18.286,0,0,1,16,34.823a17.668,17.668,0,0,1-9.807-5.2A17.259,17.259,0,0,1,1.525,13.743,16.949,16.949,0,0,1,5.76,5.367c.257-.282.385-.256.616,0,.436.538.9,1.025,1.361,1.511a.783.783,0,0,0,1.386-.512c.077-1.383.154-2.792.231-4.175.026-.615-.18-.82-.77-.845L4.451,1.115a.846.846,0,0,0-.873.435.794.794,0,0,0,.231.973c.359.384.719.768,1.053,1.153.411.461.411.461,0,.9A18.814,18.814,0,0,0,.6,12.385a28.292,28.292,0,0,0-.59,3.279v3.125a1.053,1.053,0,0,1,.051.231,18.4,18.4,0,0,0,.8,3.893,19.5,19.5,0,0,0,28.984,10.3c.385-.231.488-.589.282-.871-.205-.307-.539-.333-.95-.1" transform="translate(0 1.734)" fill="#00406e"/>
    <path id="Path_17900" data-name="Path 17900" d="M30.759,13.291A19.338,19.338,0,0,0,17,.538,23.392,23.392,0,0,0,13.738,0H10.786c-.9.128-1.823.23-2.721.435a20.084,20.084,0,0,0-3.132.973.569.569,0,0,0-.436.717v.051c.128.333.462.435.873.307l.462-.154A18.111,18.111,0,0,1,17.409,1.9,17.807,17.807,0,0,1,30.142,22.024a17.3,17.3,0,0,1-2.413,6.326c-.154.23-.257.23-.436.051-.436-.41-.873-.794-1.309-1.178a.788.788,0,0,0-.95-.2.824.824,0,0,0-.462.871l.077,1.332c.051.922.1,1.818.154,2.74.026.589.282.82.9.794.411,0,.821-.051,1.232-.077l2.824-.154a.937.937,0,0,0,.9-.538c.154-.41-.051-.691-.359-.948-.488-.435-1-.9-1.515-1.332a.388.388,0,0,1-.154-.538c0-.026.026-.051.051-.077a18.469,18.469,0,0,0,2.8-7.811,18.321,18.321,0,0,0-.719-7.99" transform="translate(6.989)" fill="#00406e"/>
  </g>
</svg>
