<svg xmlns="http://www.w3.org/2000/svg" width="38.776" height="38.768" viewBox="0 0 38.776 38.768">
  <g id="Group_11382" data-name="Group 11382" transform="translate(-433.12 -265.37)">
    <rect id="Rectangle_3247" data-name="Rectangle 3247" width="1.647" height="1.977" transform="translate(457.326 279.547)" fill="#408d76"/>
    <rect id="Rectangle_3248" data-name="Rectangle 3248" width="14.497" height="2.058" transform="translate(446.371 275.51)" fill="#408d76"/>
    <path id="Path_15057" data-name="Path 15057" d="M784.831,77.982c-.426.248-.837.52-1.271.743A18.126,18.126,0,0,1,771.615,80.6a17.467,17.467,0,0,1-9.831-5.291,17.777,17.777,0,0,1-4.706-16.191,17.474,17.474,0,0,1,4.253-8.528c.248-.275.381-.248.607,0,.426.542.892,1.053,1.355,1.548a.788.788,0,0,0,1.4-.5c.084-1.422.166-2.843.233-4.265.027-.614-.173-.837-.775-.874-1.385-.084-2.769-.159-4.151-.233a.84.84,0,0,0-.889.446.823.823,0,0,0,.223.991c.354.391.713.783,1.063,1.181.4.463.4.466,0,.921a19.187,19.187,0,0,0-4.275,7.956,26.442,26.442,0,0,0-.592,3.346v3.178a2.429,2.429,0,0,1,.052.248,18.3,18.3,0,0,0,.793,3.963A19.441,19.441,0,0,0,785.48,78.985c.377-.248.5-.589.292-.894S785.225,77.757,784.831,77.982Z" transform="translate(-322.41 222.032)" fill="#214570"/>
    <path id="Path_15058" data-name="Path 15058" d="M828.446,48.016a19.5,19.5,0,0,0-13.813-13.008,23.28,23.28,0,0,0-3.274-.547h-2.952c-.909.129-1.823.228-2.725.431a19.832,19.832,0,0,0-3.133.991.611.611,0,0,0-.431.8c.121.337.443.451.855.324.156-.047.31-.109.461-.166a17.92,17.92,0,0,1,11.619-.446A18.192,18.192,0,0,1,827.837,56.93a17.8,17.8,0,0,1-2.412,6.44c-.151.248-.248.248-.441.052-.428-.409-.879-.8-1.323-1.189a.809.809,0,0,0-.964-.215.844.844,0,0,0-.458.882l.074,1.357c.052.931.1,1.863.156,2.794.037.609.292.835.9.807.414-.017.83-.047,1.238-.069.944-.054,1.887-.1,2.831-.159a.9.9,0,0,0,.9-.557c.161-.424-.064-.7-.352-.959-.5-.453-1.006-.919-1.526-1.36a.406.406,0,0,1-.1-.634,18.9,18.9,0,0,0,2.8-7.956A19.2,19.2,0,0,0,828.446,48.016Z" transform="translate(-357.428 230.91)" fill="#214570"/>
    <path id="Path_15059" data-name="Path 15059" d="M796.944,130.292a2.026,2.026,0,0,1-.629-.1l-9.689-3.22a1.4,1.4,0,0,0-1.058.077l-3.089,1.516-.329-.669,3.089-1.516a2.137,2.137,0,0,1,1.62-.116l9.692,3.22a1.239,1.239,0,0,0,.743.017l.463-.129a2.365,2.365,0,0,0,.785-.384l9.779-7.262a.862.862,0,0,0,.322-.9l-.094-.372a.6.6,0,0,0-.589-.461.294.294,0,0,0-.158.045l-9.449,5.848-3.532-1.939.359-.651,3.151,1.734,9.065-5.608a1.038,1.038,0,0,1,.552-.159,1.347,1.347,0,0,1,1.31,1.025l.1.372a1.608,1.608,0,0,1-.6,1.679l-9.776,7.262a3.107,3.107,0,0,1-1.033.5l-.461.129A1.981,1.981,0,0,1,796.944,130.292Z" transform="translate(-342.437 167.114)" fill="#214570" stroke="#214570" stroke-width="0.4"/>
    <path id="Path_15060" data-name="Path 15060" d="M797.468,124.059l-2.254-.079.027-.743,2.229.079,5.558-.094a.651.651,0,0,0,.634-.594l.049-.58a.533.533,0,0,0-.463-.575l-10.69-1.352a1.434,1.434,0,0,0-.649.062l-6.222,2.123-.248-.706,6.224-2.12a2.2,2.2,0,0,1,.991-.1l10.69,1.352a1.273,1.273,0,0,1,1.11,1.377l-.049.58a1.39,1.39,0,0,1-1.362,1.273Z" transform="translate(-344.912 167.036)" fill="#214570" stroke="#214570" stroke-width="0.4"/>
    <path id="Path_15061" data-name="Path 15061" d="M855.492,120.213l-.272-.691,4.156-1.647a1.442,1.442,0,0,1,.951,0,1.645,1.645,0,0,1,1.1,1.553v.134h-.743v-.134a.9.9,0,0,0-.6-.85.689.689,0,0,0-.446,0Z" transform="translate(-397.408 168.217)" fill="#214570" stroke="#214570" stroke-width="0.4"/>
    <path id="Path_15062" data-name="Path 15062" d="M807.35,68.327a1.786,1.786,0,0,1,.481-.874A1.578,1.578,0,0,1,808.948,67h12.288a1.61,1.61,0,0,1,1.6,1.615V75.7a1.617,1.617,0,0,1-1.662,1.647h-9.34c-.916,0-1.835-.015-2.752,0a1.669,1.669,0,0,1-1.712-1.285.518.518,0,0,0-.022-.057Zm7.75,3.22h-6.876c-.206,0-.206,0-.206.2v3.926a1.1,1.1,0,0,0,.022.27.954.954,0,0,0,.991.726h12.119a.939.939,0,0,0,1.013-1.006q0-1.951,0-3.9c0-.218,0-.218-.213-.218Zm0-1.934h-6.883c-.131,0-.206.017-.2.176.012.282,0,.565,0,.847,0,.233,0,.233.23.233h13.732c.129,0,.181-.035.176-.171v-.859c0-.225,0-.225-.22-.225Zm-.017-.681h6.967a.087.087,0,0,0,.1-.1,2.019,2.019,0,0,0-.02-.424.951.951,0,0,0-.991-.728h-12.1a.991.991,0,0,0-1.03,1.02c.015.22,0,.223.228.223Z" transform="translate(-361.395 206.43)" fill="#214570" stroke="#214570" stroke-width="0.4"/>
    <path id="Path_15063" data-name="Path 15063" d="M854.135,91.713a2.588,2.588,0,0,1-.017.535.991.991,0,0,1-.949.743h-.649a.991.991,0,0,1-.966-.85,3.233,3.233,0,0,1,0-.9.931.931,0,0,1,.8-.842,3.019,3.019,0,0,1,1.023,0,.951.951,0,0,1,.765.939C854.137,91.448,854.135,91.564,854.135,91.713Zm-.679-.032v-.317a.295.295,0,0,0-.322-.317h-.587a.312.312,0,0,0-.342.322v.619a.312.312,0,0,0,.337.312h.6a.292.292,0,0,0,.31-.312C853.459,91.881,853.456,91.782,853.456,91.68Z" transform="translate(-394.627 188.86)" fill="#214570" stroke="#214570" stroke-width="0.2"/>
    <path id="Path_15064" data-name="Path 15064" d="M817.387,93.64h-1.9a.322.322,0,0,1-.357-.352.31.31,0,0,1,.248-.3.7.7,0,0,1,.248-.027h3.6a.989.989,0,0,1,.149,0,.352.352,0,0,1,.32.359.334.334,0,0,1-.382.32C818.665,93.643,818.026,93.64,817.387,93.64Z" transform="translate(-367.243 186.901)" fill="#214570" stroke="#214570" stroke-width="0.4"/>
    <path id="Path_15065" data-name="Path 15065" d="M817.391,98.191h1.887a.337.337,0,0,1,.352.471.342.342,0,0,1-.329.223h-3.787a.349.349,0,0,1-.391-.3.342.342,0,0,1,.379-.381Z" transform="translate(-367.24 182.966)" fill="#214570" stroke="#214570" stroke-width="0.4"/>
  </g>
</svg>
