<svg xmlns="http://www.w3.org/2000/svg" width="41.382" height="36.765" viewBox="0 0 41.382 36.765"><g transform="translate(-234.411 -120.37)"><g transform="translate(259.838 142.625)"><path d="M254.217,138.022a.576.576,0,0,0,.164.426,1.207,1.207,0,0,0,.413.261c.167.064.392.136.679.214a7.517,7.517,0,0,1,.986.35,1.723,1.723,0,0,1,.652.526,1.521,1.521,0,0,1,.274.953,1.79,1.79,0,0,1-.32,1.09,1.847,1.847,0,0,1-.847.637,3.226,3.226,0,0,1-1.167.2q-2.224,0-2.359-1.937l1.179-.177a1.6,1.6,0,0,0,.345.8,1.123,1.123,0,0,0,.868.282,1.362,1.362,0,0,0,.729-.177.623.623,0,0,0,.282-.573.559.559,0,0,0-.16-.413,1.083,1.083,0,0,0-.4-.249c-.161-.058-.388-.128-.68-.206a6.791,6.791,0,0,1-.994-.32,1.688,1.688,0,0,1-.665-.531,1.567,1.567,0,0,1-.277-.978,1.67,1.67,0,0,1,.295-.99,1.839,1.839,0,0,1,.8-.631,2.856,2.856,0,0,1,1.128-.214,2.693,2.693,0,0,1,1.522.391,1.7,1.7,0,0,1,.654,1.395l-1.189.135a1.116,1.116,0,0,0-.264-.687.994.994,0,0,0-.737-.231,1.128,1.128,0,0,0-.684.172A.566.566,0,0,0,254.217,138.022Z" transform="translate(-252.693 -136.371)" fill="#0d8f75"/><path d="M258.8,140.232h-.833v2.317h-1.289v-6.1h2.375a2.1,2.1,0,0,1,1.541.484,1.675,1.675,0,0,1,.481,1.234,1.963,1.963,0,0,1-.278,1.083,1.769,1.769,0,0,1-.775.661l1.381,2.637h-1.4Zm.936-1.937a.7.7,0,0,0-.261-.615,1.373,1.373,0,0,0-.793-.185h-.715v1.718h.665a1.351,1.351,0,0,0,.8-.214A.8.8,0,0,0,259.74,138.294Z" transform="translate(-251.134 -136.34)" fill="#0d8f75"/></g><rect width="8.891" height="2.376" transform="translate(238.968 128.989)" fill="#0d8f75"/><g transform="translate(237.803 128.081)"><path d="M246.534,130.064a1.383,1.383,0,0,0,1.384-1.384V127.3a1.383,1.383,0,0,0-1.384-1.382h-8.3a1.383,1.383,0,0,0-1.384,1.382v1.384a1.383,1.383,0,0,0,1.384,1.384Zm-8.3-2.768h8.3v1.384h-8.3Z" transform="translate(-236.85 -125.914)" fill="#214570"/><path d="M239.423,129.893a2.075,2.075,0,1,0,2.075,2.075A2.075,2.075,0,0,0,239.423,129.893Zm0,2.766a.692.692,0,1,1,.691-.691A.692.692,0,0,1,239.423,132.659Z" transform="translate(-236.656 -124.359)" fill="#214570"/><path d="M239.423,133.374a2.076,2.076,0,1,0,2.075,2.075A2.075,2.075,0,0,0,239.423,133.374Zm0,2.768a.692.692,0,1,1,.691-.693A.693.693,0,0,1,239.423,136.142Z" transform="translate(-236.656 -122.998)" fill="#214570"/><path d="M239.423,136.856a2.075,2.075,0,1,0,2.075,2.075A2.075,2.075,0,0,0,239.423,136.856Zm0,2.768a.692.692,0,1,1,.691-.693A.693.693,0,0,1,239.423,139.624Z" transform="translate(-236.656 -121.638)" fill="#214570"/><path d="M243.4,129.893a2.075,2.075,0,1,0,2.075,2.075A2.075,2.075,0,0,0,243.4,129.893Zm0,2.766a.692.692,0,1,1,.691-.691A.692.692,0,0,1,243.4,132.659Z" transform="translate(-235.101 -124.359)" fill="#214570"/><path d="M243.4,133.374a2.076,2.076,0,1,0,2.075,2.075A2.075,2.075,0,0,0,243.4,133.374Zm0,2.768a.692.692,0,1,1,.691-.693A.693.693,0,0,1,243.4,136.142Z" transform="translate(-235.101 -122.998)" fill="#214570"/><path d="M243.4,136.856a2.075,2.075,0,1,0,2.075,2.075A2.075,2.075,0,0,0,243.4,136.856Zm0,2.768a.692.692,0,1,1,.691-.693A.693.693,0,0,1,243.4,139.624Z" transform="translate(-235.101 -121.638)" fill="#214570"/><path d="M252.324,135.644a.691.691,0,0,0-.946.25,8.464,8.464,0,0,0-.369,7.771.692.692,0,1,0,1.257-.579,7.084,7.084,0,0,1,.307-6.5.692.692,0,0,0-.25-.946Z" transform="translate(-231.617 -122.148)" fill="#214570"/><path d="M260.775,135.644a.692.692,0,0,0-.25.946,7.084,7.084,0,0,1,.307,6.5.692.692,0,1,0,1.256.579,8.46,8.46,0,0,0-.367-7.771.691.691,0,0,0-.946-.25Z" transform="translate(-227.634 -122.148)" fill="#214570"/></g><g transform="translate(234.411 120.37)"><path d="M260.576,135.812l.017-10.762-1.325-.6-.075,12.043a11.038,11.038,0,0,0-1.157,18.367,3.453,3.453,0,0,1-5.719-2.067h0a1.377,1.377,0,0,0-1.369-1.195h-6.918v-1.384h5.534a2.075,2.075,0,0,0,2.077-2.075V127.388a2.075,2.075,0,0,0-2.077-2.075h-5.534v-.1a3.462,3.462,0,0,1,3.459-3.458h13.157a4.819,4.819,0,0,0-1.377,2.7l1.325.6a3.453,3.453,0,0,1,3.441-3.3.692.692,0,1,0,0-1.384H247.487a4.847,4.847,0,0,0-4.841,4.843v.1h-5.534a2.076,2.076,0,0,0-2.077,2.075v20.754a2.076,2.076,0,0,0,2.077,2.075h5.534V151.6H235.8a1.378,1.378,0,0,0-1.364,1.62,4.852,4.852,0,0,0,4.754,3.914h16.547a4.83,4.83,0,0,0,3.476-1.488,11.061,11.061,0,1,0,1.367-19.834Zm-23.465,13.021a.692.692,0,0,1-.693-.691V127.388a.692.692,0,0,1,.693-.691h12.451a.692.692,0,0,1,.693.691v20.754a.692.692,0,0,1-.693.691Zm2.075,6.918a3.45,3.45,0,0,1-3.388-2.764h15.147a4.828,4.828,0,0,0,1.409,2.764Zm25.54,0a9.685,9.685,0,1,1,9.684-9.686A9.686,9.686,0,0,1,264.727,155.751Z" transform="translate(-234.411 -120.37)" fill="#214570"/></g></g></svg>