<svg xmlns="http://www.w3.org/2000/svg" width="36.096" height="37.778" viewBox="0 0 36.096 37.778"><defs><style>.a{fill:#0d8f75;}.b{fill:#214570;}</style></defs><g transform="translate(-421.178 -154.758)"><path class="a" d="M-22017.939-5329.115l4.9-1.6,2.748-1.057,1.984-1.419,2.8-2.061v2.975l.211,5.658.881,5.278,1.172,4.928.271,1.479-4.492-1.9-5.037-.95h-3.693l-4.766.3-5.191.654-2.992.42-1.1-.858-.719-2.119-.637-3.187.246-2.574.867-2.109Z" transform="translate(22457 5492)"/><g transform="translate(421.178 154.758)"><path class="b" d="M457.944,90.025A51.454,51.454,0,0,0,456.3,81.9c-.827-2.694-1.6-3.786-2.583-3.661-.555.07-.947.5-1.205,1.37a26.011,26.011,0,0,1-14.38,6.668l-9.663,1.241a2.251,2.251,0,0,0-1.77,1.306,5.179,5.179,0,0,0,.809,10.293c.169,0,.338-.01.507-.026a2.256,2.256,0,0,0,1.75.835,2.464,2.464,0,0,0,.3-.018l2.987-.384.533.915a.61.61,0,0,0-.107.059l-1.34.9a1.733,1.733,0,0,0-.744.951c-.006.018-.012.038-.016.057l-1.016,4.455-4.8,3.432c-.01.008-.018.016-.027.024.3.363.589.73.88,1.1l4.985-3.565a.707.707,0,0,0,.276-.416l1.066-4.679a.345.345,0,0,1,.141-.163l.03-.018,1.352-.913c.01-.006.016-.014.024-.02l.447.768a.7.7,0,0,0,.473,1.323l2.8-.947a.755.755,0,0,0,.2-.1l2.052-1.529a.8.8,0,0,1,.348-.1.719.719,0,0,1,.67.33.949.949,0,0,1,.1.744l-1.012,1.5a.7.7,0,0,0,1.167.789l.782-1.159a.637.637,0,0,1,.232.225.694.694,0,0,1,.052.589l-.915,1.553a.705.705,0,0,0,.249.966.706.706,0,0,0,.964-.249l.428-.726a.879.879,0,0,1,.022.746l-.167.392a.7.7,0,0,0,.046.638l.143.237a.54.54,0,0,1,.054.422.668.668,0,0,1-.306.392l-4.341,2.679a3.227,3.227,0,0,1-1.539.477l-1.849.085a.7.7,0,0,0-.394.143l-4.441,3.383a13.911,13.911,0,0,0,1.388.685.441.441,0,0,1,.091-.039l3.643-2.776,1.629-.074a4.643,4.643,0,0,0,2.213-.684l4.335-2.675a2.059,2.059,0,0,0,.93-1.225,1.937,1.937,0,0,0-.165-1.448l.026-.064a2.274,2.274,0,0,0-.088-1.987,2.208,2.208,0,0,0-.545-.658,2.1,2.1,0,0,0-.264-1.519,2.039,2.039,0,0,0-.925-.812,2.342,2.342,0,0,0-.334-1.274,2.124,2.124,0,0,0-1.981-1.008,2.176,2.176,0,0,0-.744.185l-.639-1.092.8-.1a26.527,26.527,0,0,1,15.259,2.555c.477.9.966,1.316,1.521,1.316a1.279,1.279,0,0,0,.149-.01c.984-.127,1.454-1.382,1.575-4.2A51.317,51.317,0,0,0,457.944,90.025Zm-32.728,6.894a3.74,3.74,0,0,1-1.434-2.5,3.779,3.779,0,0,1,2.464-4.029,11.35,11.35,0,0,0,.937,7.3A3.759,3.759,0,0,1,425.216,96.919Zm12.232,4.568-1.354.456-1.527-2.619,3.025-.388.994,1.7Zm2.279-4.244-1.314.169a19.579,19.579,0,0,1-1.372-7.185.7.7,0,1,0-1.408,0,20.979,20.979,0,0,0,1.344,7.364l-7.095.911a.853.853,0,0,1-.825-.376,9.9,9.9,0,0,1-1.11-8.645.853.853,0,0,1,.7-.573l9.665-1.241a27.61,27.61,0,0,0,13.867-5.906c-.014.213-.028.433-.038.668a45.479,45.479,0,0,0,.209,5.942v.014c.07.758.157,1.535.257,2.321s.215,1.563.338,2.315a.008.008,0,0,1,0,.006,45.6,45.6,0,0,0,1.3,5.807c.048.151.095.3.141.439A28.113,28.113,0,0,0,439.728,97.243Zm16.907,3.675a3.847,3.847,0,0,1-.316-.567c0-.008-.006-.016-.01-.024a30.645,30.645,0,0,1-1.9-7.1,3.257,3.257,0,0,0-.694-5.4,28.453,28.453,0,0,1,.1-7.622c.01-.036.02-.072.026-.108a2.187,2.187,0,0,1,.084-.276c.629.9,1.849,4.373,2.621,10.388S457.017,99.89,456.635,100.918Z" transform="translate(-422.342 -78.226)"/><g transform="translate(8.064 36.95)"><path class="b" d="M448.246,190.646a13.915,13.915,0,0,1-1.388-.685l-.054-.032a.463.463,0,0,1-.083.124,10.1,10.1,0,0,0,1.4.7A.437.437,0,0,1,448.246,190.646Z" transform="translate(-446.721 -189.93)"/></g></g></g></svg>