<svg xmlns="http://www.w3.org/2000/svg" width="52.22" height="44.033" viewBox="0 0 52.22 44.033">
  <g id="Group_10412" data-name="Group 10412" transform="translate(-1207.033 -630.245)">
    <g id="Group_10411" data-name="Group 10411" transform="translate(96.266 408.163)">
      <path id="Path_9525" data-name="Path 9525" d="M1158.293,234.43a1.7,1.7,0,0,1-.555-.352c-2.691-2.6-7.43-3.65-14.488-3.2-9,.571-11.128-1.218-14.077-3.69a26.27,26.27,0,0,0-4.972-3.472c-5.369-2.82-8.96-.677-10.107.849a2.858,2.858,0,0,0-.494,2.485,2.477,2.477,0,0,0,.16.416l-2.4,3.61a1.82,1.82,0,0,0-.167,1.788c.063.144.132.3.2.459a1.823,1.823,0,0,0,1.894,1.1,2.582,2.582,0,0,1,1.41.153c.374.186,1.881,1.1,2.219,1.356a17.045,17.045,0,0,1,2.334,6.041c.771,3.565,1.244,5.746,5,8.022a11.539,11.539,0,0,0,1.683,3.916c1.411,2.069.809,5.552.442,7.634-.052.292-.1.569-.136.807a6.46,6.46,0,0,1-1.225,1.753v.012a.988.988,0,0,0,.717,1.629l3.561.117h.057a1.631,1.631,0,0,0,1.3-.846,1.375,1.375,0,0,0,.1-.235l1.556.08h.072a1.371,1.371,0,0,0,1.1-2.05l-.024-.04a3.46,3.46,0,0,1-.538-1.278,11.686,11.686,0,0,1,2.841-8.565,28.639,28.639,0,0,0,4.2.308,27.286,27.286,0,0,0,7.773-1.112,17.624,17.624,0,0,0,4.579,5.477,9.587,9.587,0,0,1,1.582,1.605,1,1,0,0,1-.2.737l-.959,1.227a1.274,1.274,0,0,0,1,2.06h.066L1155,263.2a1.31,1.31,0,0,0,.124.357,1.259,1.259,0,0,0,1.123.684h.076l2.985-.16a1,1,0,0,0,.908-1.258l-.219-.815a48.694,48.694,0,0,1,.835-6.927,4.38,4.38,0,0,0-.426-3.016,6.817,6.817,0,0,1-.141-5.2,14.6,14.6,0,0,0,.254-6.322c-.021-.193-.042-.378-.07-.56.3.348.606.706.881,1.065a.788.788,0,0,0,1.4-.6,7.134,7.134,0,0,0-4.44-6.024Zm-42.017-.381c-.426-.256-.825-.486-1.018-.583a3.726,3.726,0,0,0-2.115-.275.585.585,0,0,1-.606-.352c-.071-.172-.143-.339-.211-.491a.58.58,0,0,1,.055-.573v-.017l2.266-3.41a3.362,3.362,0,0,0,2.766-.292,1.647,1.647,0,0,1,.94-.136c.726.125.778.513.8.68a1.085,1.085,0,0,1-.47,1.011A5.827,5.827,0,0,0,1116.276,234.049Zm15.4,27.5a4.313,4.313,0,0,0,.7,1.831l.024.04a.136.136,0,0,1-.09.2l-1.808-.094a2.171,2.171,0,0,1-.15-.919,17.214,17.214,0,0,1,2.637-9.064,8.441,8.441,0,0,0,.651-1.027c.2.05.453.108.759.172a12.527,12.527,0,0,0-2.731,8.864Zm23.74.392-1.676.043h-.019a.034.034,0,0,1-.038-.021.031.031,0,0,1,0-.043l.959-1.227a2.238,2.238,0,0,0,.45-1.687c-.085-.606-.706-1.176-1.977-2.337a17.1,17.1,0,0,1-4.231-4.936l.28-.1a5.946,5.946,0,0,0,1.466,1.154,29.574,29.574,0,0,1,3.878,3.314c.3.284.43.411.505.469a6.313,6.313,0,0,1,1.368,3.615,1,1,0,0,1-.2.753Zm4.231-24.68a.618.618,0,0,0-1.025.644,10.542,10.542,0,0,1,.646,2.741,13.618,13.618,0,0,1-.186,5.77,8.047,8.047,0,0,0,.179,6.144,3.223,3.223,0,0,1,.362,2.16,50.46,50.46,0,0,0-.886,7.287.608.608,0,0,0,.021.2l.17.63-2.691.143a.03.03,0,0,1-.038-.021.031.031,0,0,1,0-.043l.959-1.227a2.238,2.238,0,0,0,.449-1.688,7.4,7.4,0,0,0-1.8-4.388c-.05-.04-.235-.235-.444-.42a29.4,29.4,0,0,0-4.128-3.5c-4.365-2.459-2.048-9.7-2.024-9.776a.619.619,0,0,0-1.176-.388,16.318,16.318,0,0,0-.7,4.412,8.807,8.807,0,0,0,1.06,4.638,27.1,27.1,0,0,1-14.277.759,6.731,6.731,0,0,0,.106-3.855,7.4,7.4,0,0,0-1.274-2.618.618.618,0,0,0-.954.785,5.809,5.809,0,0,1-.021,7.138,18.341,18.341,0,0,0-2.863,9.752,3.408,3.408,0,0,0,.444,1.881.412.412,0,0,1-.279.211l-2.985-.106a5.407,5.407,0,0,0,1.175-1.986c.035-.235.08-.484.132-.783.4-2.268,1.065-6.064-.642-8.549a12.41,12.41,0,0,1-1.807-7.4.618.618,0,0,0-1.227-.148v.017a13.176,13.176,0,0,0,.052,2.651c-2.459-1.77-2.837-3.526-3.507-6.617a29,29,0,0,0-1.144-3.824c-.893-2.367-1.462-2.8-1.645-2.941-.049-.038-.115-.084-.195-.136a4.812,4.812,0,0,1,1.739-4.033,7.075,7.075,0,0,0,1.281.122,5.751,5.751,0,0,0,3.235-.94,2.6,2.6,0,0,0,1.2-1.528.954.954,0,0,0-.656-1.06,7.9,7.9,0,0,0-4.1.36,2.143,2.143,0,0,0-1.589-1.027,2.888,2.888,0,0,0-1.662.235c-1.062.47-1.554.388-1.751.3a.706.706,0,0,1-.374-.517,1.616,1.616,0,0,1,.285-1.411c.94-1.236,3.916-2.931,8.549-.5a24.843,24.843,0,0,1,4.75,3.326c3.056,2.56,5.46,4.579,14.949,3.977,6.69-.425,11.123.51,13.551,2.858a2.922,2.922,0,0,0,.954.611,5.8,5.8,0,0,1,3.2,3.185c-.719-.813-1.33-1.45-1.368-1.49Zm-39.43-7.611a2.266,2.266,0,0,0,.2-.7,8.03,8.03,0,0,1,3.159-.47A4.188,4.188,0,0,1,1120.222,229.651Z" transform="translate(0 0)" fill="#214570" stroke="#214570" stroke-width="0.5"/>
      <path id="Path_9575" data-name="Path 9575" d="M1116.9,236.851c-.426-.256-.825-.486-1.018-.583a3.726,3.726,0,0,0-2.115-.275.585.585,0,0,1-.607-.352c-.07-.172-.143-.339-.211-.491a.581.581,0,0,1,.054-.573v-.017l2.266-3.41a3.362,3.362,0,0,0,2.766-.292,1.646,1.646,0,0,1,.94-.136c.726.125.778.513.8.68a1.085,1.085,0,0,1-.47,1.011A5.828,5.828,0,0,0,1116.9,236.851Z" transform="translate(-0.623 -2.802)" fill="#0d8f75"/>
    </g>
  </g>
</svg>
