<svg xmlns="http://www.w3.org/2000/svg" width="30.909" height="30.118" viewBox="0 0 30.909 30.118">
  <g id="Group_9205" data-name="Group 9205" transform="translate(-169.743 -89.87)">
    <g id="Group_9204" data-name="Group 9204">
      <g id="Group_9201" data-name="Group 9201">
        <g id="Group_9199" data-name="Group 9199">
          <path id="Path_5635" data-name="Path 5635" d="M177.413,117.047a14.031,14.031,0,0,1-6.573-9.179q-.549-.3-1.1-.6c.071.46.16.92.277,1.378a15.008,15.008,0,0,0,21.633,9.568l-.984-.585A14.076,14.076,0,0,1,177.413,117.047Z" fill="#fff"/>
        </g>
        <g id="Group_9200" data-name="Group 9200">
          <path id="Path_5636" data-name="Path 5636" d="M180.886,90.343a14.813,14.813,0,0,0-4.576,2.068l.91.54a14.06,14.06,0,0,1,21.453,11.373l.974.579a15.149,15.149,0,0,0-.455-3.693,15.052,15.052,0,0,0-18.306-10.867Z" fill="#fff"/>
        </g>
      </g>
      <g id="CjLimt.tif">
        <g id="Group_9202" data-name="Group 9202">
          <path id="Path_5637" data-name="Path 5637" d="M174.482,112.554c.023-.217.043-.435.069-.652a9.491,9.491,0,0,1,2.222-5.116,9.593,9.593,0,0,1,4.377-2.951l.088-.033a4.9,4.9,0,0,1-2.005-4.321A4.756,4.756,0,0,1,180.9,96.1a4.949,4.949,0,1,1,6.2,7.7,9.9,9.9,0,0,1,3.312,1.819l-1.121,1.225c-.318-.218-.63-.454-.964-.654a7.9,7.9,0,0,0-4.679-1.143,8.022,8.022,0,0,0-7.331,6.414,7.185,7.185,0,0,0-.15,1.576.836.836,0,0,1-1.651.191c-.008-.03-.019-.06-.028-.09ZM187.449,99.8a3.278,3.278,0,1,0-3.263,3.279A3.282,3.282,0,0,0,187.449,99.8Z" fill="#fff"/>
          <path id="Path_5638" data-name="Path 5638" d="M191.746,103.259l2.368.736c-.066.025-.1.041-.137.051-.627.186-1.255.372-1.884.552a.4.4,0,0,1-.231-.007,7.544,7.544,0,0,0-2.225-.447v-1.362c.229-.037.461-.056.683-.113a2.787,2.787,0,0,0-.227-5.449c-.187-.033-.379-.041-.565-.076a.527.527,0,0,1-.436-.541.5.5,0,0,1,.444-.515,3.489,3.489,0,0,1,.9.063,3.844,3.844,0,0,1,3.049,3.22,3.8,3.8,0,0,1-1.631,3.807l-.09.063C191.753,103.245,191.75,103.254,191.746,103.259Z" fill="#fff"/>
        </g>
      </g>
      <circle id="Ellipse_213" data-name="Ellipse 213" cx="5.183" cy="5.183" r="5.183" transform="translate(189.787 105.583)" fill="none" stroke="#fff" stroke-miterlimit="10" stroke-width="1"/>
      <g id="Group_9203" data-name="Group 9203">
        <path id="Path_5639" data-name="Path 5639" d="M192.214,111.572v-1.55h2.252v-2.317h1.565v2.317H198.3v1.55h-2.268v2.38h-1.565v-2.38Z" fill="#fff"/>
      </g>
    </g>
  </g>
</svg>
