<svg id="shopping_cart-24px" xmlns="http://www.w3.org/2000/svg" width="29" height="29" viewBox="0 0 29 29">
  <path id="Path_9" data-name="Path 9" d="M0,0H29V29H0Z" fill="none"/>
  <path id="Path_10" data-name="Path 10" d="M8.5,22A2.5,2.5,0,1,0,11,24.5,2.5,2.5,0,0,0,8.5,22ZM1,3.25A1.254,1.254,0,0,0,2.25,4.5H3.5L8,13.987l-1.687,3.05A2.5,2.5,0,0,0,8.5,20.75H22.248a1.25,1.25,0,0,0,0-2.5H8.5l1.375-2.5h9.312a2.488,2.488,0,0,0,2.187-1.287L25.848,6.35A1.245,1.245,0,0,0,24.761,4.5H6.262L5.425,2.713A1.241,1.241,0,0,0,4.3,2H2.25A1.254,1.254,0,0,0,1,3.25ZM21,22a2.5,2.5,0,1,0,2.5,2.5A2.5,2.5,0,0,0,21,22Z" fill="#0d8f75"/>
</svg>
