<svg xmlns="http://www.w3.org/2000/svg" width="122.027" height="127.762" viewBox="0 0 122.027 127.762">
  <g id="Group_17937" data-name="Group 17937" transform="translate(-283.356 -164.517)">
    <path id="Path_18523" data-name="Path 18523" d="M635.962,164.517H658.13a6.2,6.2,0,0,1,6.193,6.2v49.676H629.767V170.713a6.2,6.2,0,0,1,6.2-6.2Zm24.43,51.94V170.713a2.266,2.266,0,0,0-2.262-2.264H635.962a2.266,2.266,0,0,0-2.264,2.264v45.744Z" transform="translate(-265.458 0)" fill="#00406e"/>
    <path id="Path_18524" data-name="Path 18524" d="M302.137,472.157h34.557v49.627a6.25,6.25,0,0,1-6.242,6.243H308.379a6.249,6.249,0,0,1-6.242-6.242Zm30.625,3.932H306.069v45.7a2.314,2.314,0,0,0,2.311,2.311h22.072a2.313,2.313,0,0,0,2.311-2.311Z" transform="translate(-14.392 -235.748)" fill="#00406e"/>
    <path id="Path_18525" data-name="Path 18525" d="M355.205,519.92H340.274a.975.975,0,0,0-.974.975v9.135a.974.974,0,0,0,.974.974h14.931a.976.976,0,0,0,.974-.974v-9.135a.973.973,0,0,0-.974-.975Z" transform="translate(-42.716 -272.195)" fill="#0c8e75"/>
    <path id="Path_18525_-_Outline" data-name="Path 18525 - Outline" d="M334.484,512.167h14.93a2.944,2.944,0,0,1,2.941,2.941v9.134a2.944,2.944,0,0,1-2.941,2.941h-14.93a2.944,2.944,0,0,1-2.941-2.941v-9.135A2.944,2.944,0,0,1,334.484,512.167Zm13.939,3.932H335.476v7.152h12.948Z" transform="translate(-36.926 -266.408)" fill="#00406e"/>
    <path id="Path_18526" data-name="Path 18526" d="M682.835,303.36H667.9a.975.975,0,0,0-.975.974v9.135a.974.974,0,0,0,.975.974h14.931a.975.975,0,0,0,.974-.974v-9.136a.973.973,0,0,0-.974-.974Z" transform="translate(-293.782 -106.243)" fill="#0c8e75"/>
    <path id="Path_18526_-_Outline" data-name="Path 18526 - Outline" d="M662.115,295.607h14.93a2.938,2.938,0,0,1,2.941,2.949v9.126a2.943,2.943,0,0,1-2.941,2.941h-14.93a2.943,2.943,0,0,1-2.941-2.941v-9.136A2.944,2.944,0,0,1,662.115,295.607Zm13.939,3.931H663.106v7.152h12.948Z" transform="translate(-287.992 -100.456)" fill="#00406e"/>
    <path id="Path_18527" data-name="Path 18527" d="M400.15,323.72H372.533a4.808,4.808,0,0,1-4.8-4.8v-10.5h3.894v10.5a.91.91,0,0,0,.909.909H400.15a5.867,5.867,0,0,0,5.861-5.861v-75.33a9.766,9.766,0,0,1,9.755-9.755h27.619a4.808,4.808,0,0,1,4.8,4.8v14.206h-3.9V233.683a.91.91,0,0,0-.908-.908H415.766a5.867,5.867,0,0,0-5.86,5.86v75.33A9.766,9.766,0,0,1,400.15,323.72Z" transform="translate(-64.655 -49.321)" fill="#00406e"/>
    <path id="Path_18528" data-name="Path 18528" d="M639.51,431.444H619.161a5.274,5.274,0,0,1-5.268-5.269V399.659a12.183,12.183,0,0,1,12.171-12.171h20.359c7.262,0,11.6,4.371,11.6,11.693h0s.431,12.321.586,19.827c.035,1.686.056,3.127.056,4.138l0,.583-3.568.015L655,419.666a1.3,1.3,0,0,0-1.292-1.331h-1.949a1.293,1.293,0,0,0-1.291,1.291l-.551,5.8-3.553-.006-.722-7.77a3.653,3.653,0,0,0-.308-1.707c-.12-.217-.486-.876-2.118-.876h-2.087a1.506,1.506,0,0,0-1.5,1.322l-.019.157-.047.152a1.338,1.338,0,0,0-.06.393Zm-13.448-40.386a8.611,8.611,0,0,0-8.6,8.6v26.517a1.7,1.7,0,0,0,1.7,1.7h16.78V417.1a4.87,4.87,0,0,1,.172-1.286,5.078,5.078,0,0,1,5.017-4.307h2.087c3.086,0,4.552,1.475,5.238,2.713a5.726,5.726,0,0,1,.543,1.4,4.894,4.894,0,0,1,2.76-.852h1.949a4.845,4.845,0,0,1,1.229.157c-.19-7.183-.486-15.681-.486-15.681,0-5.453-2.7-8.186-8.029-8.186Z" transform="translate(-253.28 -170.851)" fill="#00406e"/>
    <path id="Path_18529" data-name="Path 18529" d="M664.539,525.184h-4.121V519.47c0-2.122-2.394-3.915-5.228-3.915h-8.545v-4.12h8.545c5.155,0,9.349,3.6,9.349,8.036Z" transform="translate(-278.238 -265.853)" fill="#00406e"/>
    <path id="Path_18530" data-name="Path 18530" d="M644.823,471.15h-3.731v-5.417a7.206,7.206,0,0,1,7.2-7.2h4.026a1.338,1.338,0,0,0,1.337-1.336V454.14h3.731V457.2a5.073,5.073,0,0,1-5.067,5.067h-4.027a3.472,3.472,0,0,0-3.467,3.467Z" transform="translate(-274.129 -221.787)" fill="#00406e"/>
    <path id="Path_18531" data-name="Path 18531" d="M715.895,516.234h-2.087a5.08,5.08,0,0,1-5.075-5.075V495.327a5.069,5.069,0,0,1,5.075-5.075h2.087c2.768,0,5.986,2.217,5.986,5.075v15.832C721.881,514.018,718.663,516.234,715.895,516.234Zm-2.087-22.413a1.506,1.506,0,0,0-1.5,1.322l-.011,16.016a1.508,1.508,0,0,0,1.506,1.506h2.087c1.137,0,2.417-.983,2.417-1.506V495.327c0-.524-1.28-1.506-2.417-1.506Z" transform="translate(-325.956 -249.6)" fill="#00406e"/>
    <path id="Path_18532" data-name="Path 18532" d="M759.78,525.1H757.7a5.026,5.026,0,0,1-5.118-4.917V508.925a5.026,5.026,0,0,1,5.118-4.917h2.075a5.027,5.027,0,0,1,5.118,4.917v11.262a4.788,4.788,0,0,1-1.541,3.517A5.2,5.2,0,0,1,759.78,525.1ZM757.7,507.691a1.347,1.347,0,0,0-1.435,1.234v11.261a1.347,1.347,0,0,0,1.435,1.234h2.075a1.533,1.533,0,0,0,1.056-.4,1.154,1.154,0,0,0,.379-.832V508.925a1.347,1.347,0,0,0-1.435-1.234Z" transform="translate(-359.567 -260.146)" fill="#00406e"/>
    <path id="Line_301" data-name="Line 301" d="M-3.189,1.229H-6.47V0h3.281Z" transform="translate(408.333 247.55)" fill="#00406e"/>
    <path id="Line_302" data-name="Line 302" d="M-3.189,1.229H-6.47V0h3.281Z" transform="translate(400.234 247.55)" fill="#00406e"/>
    <path id="Path_18533" data-name="Path 18533" d="M629.507,576.527h-1.949c-2.6,0-4.719-1.83-4.719-4.08v-6.6h3.281v6.6c0,.318.573.8,1.437.8h1.949c.862,0,1.435-.482,1.435-.8v-6.319h3.281v6.319C634.224,574.7,632.108,576.527,629.507,576.527Z" transform="translate(-260.124 -307.391)" fill="#00406e"/>
    <path id="Path_18534" data-name="Path 18534" d="M667.727,577.439h-1.949c-2.6,0-4.718-1.831-4.718-4.08V567.04h3.281v6.319c0,.318.573.8,1.437.8h1.949c.862,0,1.435-.482,1.435-.8V567.04h3.281v6.319C672.443,575.609,670.327,577.439,667.727,577.439Z" transform="translate(-289.413 -308.303)" fill="#00406e"/>
    <g id="Group_17937-2" data-name="Group 17937" transform="translate(283.356 182.417)">
      <path id="Rectangle_6260" data-name="Rectangle 6260" d="M-6.2-6.2h3.22V.194H-6.124L-6.2-1.378Z" transform="translate(16.568 23.614)" fill="#00406e"/>
      <path id="Path_18535" data-name="Path 18535" d="M308.138,241.116H311.3a5.1,5.1,0,0,1,5.216,4.955v1.714a4.242,4.242,0,0,1,1.285-.2h3.085c2.938,0,5.216,3.087,5.216,5.742v8.013l.143,19.635v6.821a11.251,11.251,0,0,1-11.238,11.239H294.49a11.134,11.134,0,0,1-11.133-11.261l.388-34.24a5.092,5.092,0,0,1,5.216-4.932h4.392a5.128,5.128,0,0,1,5.194-4.5h4.8A5.238,5.238,0,0,1,308.138,241.116Zm4.372,4.612a1.322,1.322,0,0,0-1.208-.681h-3.164a1.312,1.312,0,0,0-1.22.708l.012.315V267.36l-3.93.033-.076-4.629V248.036h-4.377a1.245,1.245,0,0,0-1.272.883l.064,1.645V269.37l-3.93.042-.076-3.648V252.533h-4.372a1.193,1.193,0,0,0-1.285,1.023l-.388,34.263a7.2,7.2,0,0,0,7.2,7.285h20.518a7.315,7.315,0,0,0,7.307-7.307v-6.807l-.143-19.635v-8.027c0-.782-.808-1.811-1.285-1.811H317.8c-.477,0-1.285,1.029-1.285,1.811V265.35l-3.93.058-.076-2.62Z" transform="translate(-283.356 -241.116)" fill="#00406e"/>
      <path id="Path_18536" data-name="Path 18536" d="M394.139,375.486l-3.778-.137.228-6.282.035-.163a12.771,12.771,0,0,1,5.568-8.075l7.985-5.183,2.059,3.171L398.25,364a9.011,9.011,0,0,0-3.895,5.544Z" transform="translate(-365.349 -328.852)" fill="#00406e"/>
    </g>
  </g>
</svg>
