<svg xmlns="http://www.w3.org/2000/svg" width="33.273" height="37.291" viewBox="0 0 33.273 37.291"><path d="M111.833,59.2V96.486H78.56V59.2Zm-2.189,35.119V61.367h-28.9V94.314h3.147V83.577a7.066,7.066,0,0,1,1.659-4.514,10.18,10.18,0,0,1-.718-3.795c0-3.592,1.761-6.754,5.078-9.166A19.874,19.874,0,0,1,95.2,63.487a19.638,19.638,0,0,1,5.266,2.615c3.334,2.412,5.1,5.574,5.1,9.166a10.18,10.18,0,0,1-.718,3.795,7.066,7.066,0,0,1,1.659,4.514V94.314Zm-5.336,0V83.577a4.752,4.752,0,0,0-1.5-3.488l-.581-.547.341-.718a8.2,8.2,0,0,0,.8-3.556c0-2.872-1.386-5.353-4.139-7.352a16.069,16.069,0,0,0-2.941-1.693V94.314Zm-10.208,0V66.223a16.14,16.14,0,0,0-2.958,1.693c-2.736,2-4.12,4.48-4.12,7.352a7.963,7.963,0,0,0,.8,3.556l.343.718-.581.547a4.747,4.747,0,0,0-1.505,3.488V94.314Z" transform="translate(-78.56 -59.195)" fill="#214570"/><path d="M98.017,81.083V91.82H90V63.729a16.069,16.069,0,0,1,2.941,1.693c2.753,2,4.139,4.48,4.139,7.352a8.2,8.2,0,0,1-.8,3.556l-.341.718.581.547A4.752,4.752,0,0,1,98.017,81.083Zm-3.351,3.95V81.151H92.477v3.881Z" transform="translate(-72.268 -56.701)" fill="#0d8f75"/><rect width="2.189" height="3.881" transform="translate(20.21 24.451)" fill="#214570"/><path d="M91.432,63.729V91.82H83.413V81.083a4.747,4.747,0,0,1,1.505-3.488l.581-.547-.343-.718a7.963,7.963,0,0,1-.8-3.556c0-2.872,1.384-5.353,4.12-7.352A16.14,16.14,0,0,1,91.432,63.729Zm-2.479,21.3V81.151H86.764v3.881Z" transform="translate(-75.89 -56.701)" fill="#0d8f75"/><rect width="2.189" height="3.881" transform="translate(10.874 24.451)" fill="#214570"/></svg>