<svg xmlns="http://www.w3.org/2000/svg" xmlns:xlink="http://www.w3.org/1999/xlink" width="43" height="43" viewBox="0 0 43 43">
  <defs>
    <filter id="Rectangle_1482" x="0" y="0" width="43" height="43" filterUnits="userSpaceOnUse">
      <feOffset dy="3" input="SourceAlpha"/>
      <feGaussianBlur stdDeviation="3" result="blur"/>
      <feFlood flood-color="#bebcbc" flood-opacity="0.282"/>
      <feComposite operator="in" in2="blur"/>
      <feComposite in="SourceGraphic"/>
    </filter>
  </defs>
  <g id="Group_8490" data-name="Group 8490" transform="translate(6.214 3.647)">
    <g transform="matrix(1, 0, 0, 1, -6.21, -3.65)" filter="url(#Rectangle_1482)">
      <rect id="Rectangle_1482-2" data-name="Rectangle 1482" width="25" height="25" rx="4" transform="translate(9 6)" fill="#0d8f75"/>
    </g>
    <g id="person" transform="translate(4.788 4.322)">
      <path id="Path_241" data-name="Path 241" d="M0,0H20.454V20.454H0Z" transform="translate(0 0)" fill="none"/>
      <path id="Path_242" data-name="Path 242" d="M11.031,11.031A3.515,3.515,0,1,0,7.515,7.515,3.514,3.514,0,0,0,11.031,11.031Zm0,1.758C8.684,12.789,4,13.966,4,16.3v1.758H18.062V16.3C18.062,13.966,13.378,12.789,11.031,12.789Z" transform="translate(-0.804 -0.804)" fill="#fff"/>
    </g>
  </g>
</svg>
