<svg xmlns="http://www.w3.org/2000/svg" width="15.193" height="3.574" viewBox="0 0 15.193 3.574"><g transform="translate(-410.884 -158.443)"><path d="M410.884,160.243a1.611,1.611,0,0,1,1.846-1.8,1.887,1.887,0,0,1,1.372.461,1.785,1.785,0,0,1,.474,1.338q0,1.775-1.846,1.775T410.884,160.243Z" transform="translate(0)" fill="#214570"/><path d="M416.124,160.243a1.611,1.611,0,0,1,1.847-1.8,1.887,1.887,0,0,1,1.372.461,1.789,1.789,0,0,1,.473,1.338q0,1.775-1.845,1.775T416.124,160.243Z" transform="translate(0.511)" fill="#214570"/><path d="M421.363,160.243a1.611,1.611,0,0,1,1.847-1.8,1.887,1.887,0,0,1,1.372.461,1.789,1.789,0,0,1,.474,1.338q0,1.775-1.846,1.775T421.363,160.243Z" transform="translate(1.022)" fill="#214570"/></g></svg>