<svg xmlns="http://www.w3.org/2000/svg" width="29.181" height="39.545" viewBox="0 0 29.181 39.545"><g transform="translate(-319.318 -116.392)"><path d="M324.393,139.129l-.873-3.8,1.907-3.591,3.794-.671,3.194,2.177,4.923-2.177a22.271,22.271,0,0,1,3.237,1.6,29.13,29.13,0,0,1,1.086,3.019,12.755,12.755,0,0,0,0,1.49l-1.564,2.228-4.867,1.008a3.2,3.2,0,0,0-2.06-1.233c-1.177-.051-2.97-.051-4.18-.1S324.393,139.129,324.393,139.129Z" transform="translate(1.285 4.919)" fill="#0d8f75"/><path d="M335.326,143.59" transform="translate(5.382 9.265)" fill="#0d8f75"/><g transform="translate(319.818 116.892)"><path d="M326.266,133.188a.635.635,0,0,0-.853.286,3.5,3.5,0,0,0,0,3.114.636.636,0,0,0,1.138-.57,2.217,2.217,0,0,1,0-1.976A.637.637,0,0,0,326.266,133.188Z" transform="translate(-318.003 -111.26)" fill="#214570"/><g transform="translate(0.486 18.49)"><path d="M347.342,135.594a2.912,2.912,0,0,0-1.882-.69,3.207,3.207,0,0,0-2.134.8,6,6,0,0,0-.176-1.268,5.04,5.04,0,0,0-8.805-1.955v-.035l-.769.948-.876-1.14a5.022,5.022,0,0,0-8.578,2.181,6,6,0,0,0,.571,4.376,5.08,5.08,0,0,0-2.143,1.571,7.588,7.588,0,0,0-1.657,4.725V146.2l-.706,4.232a.637.637,0,0,0,.523.733.686.686,0,0,0,.105.008H332.24a.636.636,0,0,0,.286-.067l1.387-.694,6.385-2.128a.634.634,0,0,0,.284-.193l7.1-8.392A2.914,2.914,0,0,0,347.342,135.594Zm-21.985-.846a3.77,3.77,0,0,1,6.673-1.347l1.1,1.461a.635.635,0,0,0,.509.255h.066a.637.637,0,0,0,.618-.488l.921-1.228a3.77,3.77,0,0,1,6.673,1.347,4.754,4.754,0,0,1-.019,2.377l-1.429,1.431-3.719,1.239a2.779,2.779,0,0,0-2.364-1.32h-7.856a5.125,5.125,0,0,0-.537.028A4.731,4.731,0,0,1,325.357,134.748Zm21.355,4.129-6.987,8.257-6.258,2.085a.644.644,0,0,0-.084.035l-1.293.647H321.567l.59-3.544a.53.53,0,0,0,.009-.1v-1.141a6.316,6.316,0,0,1,1.378-3.931,3.8,3.8,0,0,1,2.984-1.433h7.856a1.506,1.506,0,0,1,.022,3.012h-3.592a.635.635,0,0,0-.353.106l-1.981,1.321h-1.95a.636.636,0,0,0,0,1.273h2.142a.639.639,0,0,0,.353-.106l1.983-1.321h3.378a2.784,2.784,0,0,0,2.779-2.779c0-.085,0-.17-.012-.252l3.861-1.286a.649.649,0,0,0,.249-.155l2.809-2.807a1.953,1.953,0,0,1,1.391-.577,1.64,1.64,0,0,1,1.253,2.7Z" transform="translate(-320.178 -130.618)" fill="#214570"/></g><path d="M330.225,134.548l-.055-3.915,7.515-1.623" transform="translate(-316.225 -112.686)" fill="none" stroke="#214570" stroke-linejoin="round" stroke-width="1"/><path d="M330.225,132.971l-.055-7,9.184-3.089" transform="translate(-316.225 -114.811)" fill="none" stroke="#214570" stroke-linejoin="round" stroke-width="1"/><circle cx="2.579" cy="2.579" r="2.579" transform="translate(20.991 13.002)" fill="none" stroke="#214570" stroke-linejoin="round" stroke-width="1"/><circle cx="2.579" cy="2.579" r="2.579" transform="translate(22.727 4.504)" fill="none" stroke="#214570" stroke-linejoin="round" stroke-width="1"/><path d="M332.1,134.543v-7.254l-7.515-1.623" transform="translate(-318.162 -113.847)" fill="none" stroke="#214570" stroke-linejoin="round" stroke-width="1"/><path d="M332.533,132.967V122.632l-9.184-3.089" transform="translate(-318.592 -115.972)" fill="none" stroke="#214570" stroke-linejoin="round" stroke-width="1"/><circle cx="2.579" cy="2.579" r="2.579" transform="translate(1.736 8.497)" fill="none" stroke="#214570" stroke-linejoin="round" stroke-width="1"/><circle cx="2.579" cy="2.579" r="2.579" fill="none" stroke="#214570" stroke-linejoin="round" stroke-width="1"/></g></g></svg>