<svg xmlns="http://www.w3.org/2000/svg" viewBox="0 0 263.91 321.3"><defs><style>.cls-1{fill:#408d76;stroke-width:3px;}.cls-1,.cls-2{stroke:#29456d;stroke-miterlimit:10;}.cls-2,.cls-3{fill:none;}.cls-2{stroke-width:4px;}.cls-4{fill:#29456d;}</style></defs><g id="Layer_2" data-name="Layer 2"><g id="Layer_1-2" data-name="Layer 1"><path class="cls-1" d="M130.51,53.85A57.58,57.58,0,0,0,183,1.64a57.57,57.57,0,0,0-52.47,52.21"/><path class="cls-1" d="M133.86,66.59A44.68,44.68,0,0,0,93.14,26.07a44.69,44.69,0,0,0,40.72,40.52"/><polyline class="cls-2" points="133.86 78.1 133.86 52.17 156.75 27.75"/><line class="cls-2" x1="133.86" y1="66.59" x2="116.98" y2="49.01"/><path class="cls-3" d="M88.94,91.71a25.43,25.43,0,0,0,7.41-4.38l.81-.6A108.4,108.4,0,0,0,77.4,95.61a19.73,19.73,0,0,0-4.56,7.79A56.06,56.06,0,0,0,78,99.12C81.32,96.18,84.73,93.14,88.94,91.71Z"/><path class="cls-3" d="M166.93,95.65A9.06,9.06,0,0,1,164,98.94c-3,1.62-10.34,1.29-12.64-1.89a4,4,0,0,1,.81-5.55,9,9,0,0,1,3-1.63,50,50,0,0,0-9.47-1.63l-.61-.06c-2.52-.3-4.53.36-7,2.29a20.33,20.33,0,0,0-1.88,2.27,37.58,37.58,0,0,1-3.76,4.42c-1.5,1.44-3.05,2.69-4.41,3.79a39.24,39.24,0,0,0-3.07,2.66c.33-.08.63-.16.92-.25,1.36-.38,3.23-.92,5.18.4a7.48,7.48,0,0,1,2.36,2.81,9.79,9.79,0,0,1,1.08-1.77c-.69-3.52,1.19-7.44,3.23-10,1.16-1.45,4.22-4.71,7.53-3.72.86.26,2.91,1.23,3.22,4.59a7.75,7.75,0,0,1-1.14,4.48l.14,0c1.58-.47,4-1.17,6.2.45a5.64,5.64,0,0,1,2,7.2c-1.4,2.94-5.56,5.67-10.28,5.38a14.91,14.91,0,0,1-2.45,3.7c-2.94,3.34-9.71,4.65-11.53,4.5a7.6,7.6,0,0,1-5.85-3,8,8,0,0,1-2.18,3.63,29.34,29.34,0,0,1-9.51,5.09c-1.43.52-3.24,1-5.17,1.53l-.24.06a6.72,6.72,0,0,1,1.72,5.38c-.55,3-3.41,4.61-5.51,5.58a10.65,10.65,0,0,1-5.49.67c-1.92-.14-2.6-.12-3.39.66-.51.51-1.51,1.86-1.17,2.57a5.07,5.07,0,0,0,2.23,1.82c1.5.51,8.28-2.94,11.52-6.22a19.94,19.94,0,0,1,11-5.16c5.59-.51,10.45,4.44,12.06,12.18.4-.24.85-.53,1.26-.83-1.07-1.68-3-4.88-2-7.91a5.41,5.41,0,0,1,3.48-3.38,7.14,7.14,0,0,1,6,.4c2.92,1.56,5.32,5.2,7.17,10.83.73-2.16,2-4.29,4.09-4.66,1.5-.26,3.6.22,5.13,4a17.79,17.79,0,0,0,3.13,5.49c.56.7,1,.71,2.31.38l.5-.12c2.86-.73,7.9-2,11.14,2.24,2,2.69,2.24,7.52.45,11.22-1.91,3.94-5.62,6.15-10.46,6.22h0c-.39,0-8.8-.06-19.89-4.45a9.63,9.63,0,0,1-6.67,3.24c-4.3.24-9.07-2.36-12.73-7a20.2,20.2,0,0,1-2.9-5.31c-5-1.32-13.35-.54-19.62.86-4.33,1-11.87,8.15-16.75,14.42l-.87,1.12c-6.84,8.76-7,8.92-5.72,17a35.83,35.83,0,0,1,.42,6c0,2.73,0,3.85,3.64,8.54,2.3,3,6.57,8.47,9.26,9.27a26.82,26.82,0,0,0,5.79-.78,2.33,2.33,0,0,1,.72-.18c1.58-.16,2.91-.32,4.08-.46,6.66-.81,8.49-.85,15.28,2.85a10.9,10.9,0,0,0,1.19-.22c1.33-.29,4.42-.95,6.07,1.94,1.35,2.37.8,5.75.28,9a18.21,18.21,0,0,0-.41,4.27,20.16,20.16,0,0,0,2.74,5.32c2,3.21,4.12,6.51,4,10.37a15.69,15.69,0,0,1-1.5,6.26c-.72,1.67-1.2,2.78-.55,6.09a2.09,2.09,0,0,0,.55.95,7.44,7.44,0,0,1,1.37,2.44,48.58,48.58,0,0,1,1.27,5.31c.59,3.06,1,5.26,3,8.09a6.33,6.33,0,0,1,.91,4.32,14.53,14.53,0,0,0,7.82-1.62c.76-.5,4.08-4.71,5.17-6.1.83-1.05,1.48-1.87,1.93-2.41a9.8,9.8,0,0,1,4.2-2.64,12.24,12.24,0,0,0,1.23-.53c-.06-.23-.13-.46-.18-.64-.41-1.46-1.18-4.17,1.05-5.83,1.58-1.18,2.94-2.12,4.14-2.95,4.4-3,5.72-4,6.82-8.65.66-2.8,1-4.76,1.23-6.33.85-5.24,1.26-6.62,8-14.57.88-1,2.15-2.35,3.49-3.74,3.31-3.43,8.62-8.94,10.72-13.26a15.88,15.88,0,0,1-6.55-.08c-2.86-.77-4.14-2.85-5.17-4.52a12.78,12.78,0,0,0-1.52-2.13,18.05,18.05,0,0,0-1.39-1.32c-1.88-1.7-4.44-4-8.39-10.22a10.1,10.1,0,0,1-1.44-5.14,16.38,16.38,0,0,0-.76-4.2c-.83-2.52-1.92-5.75-3.07-8.33a2.84,2.84,0,0,1,1.81-3.88c.31-.09,7.61-2.16,11.88,3.46s7.51,9.9,9.71,16.3c.32.94.6,1.81.85,2.57a24.8,24.8,0,0,0,1.33,3.57,8.43,8.43,0,0,0,2.18-.66,28.5,28.5,0,0,1,4-1.19c2.75-.67,5.59-1.36,8.49-3.82,2.5-2.13,3.45-3.91,3.5-4.79a1,1,0,0,0-.36-.84c-1.15-1.21-3.87-.87-5-.67-2.92.52-7.17-4.52-7.35-4.73-2.09-2.53-4.34-6.73-3.82-10.24a6.11,6.11,0,0,1,2.69-4.29,3.12,3.12,0,0,1,3.77.41c8.94,6.2,14.22,8.27,17.07,8.91a5.11,5.11,0,0,0,2.16-.19,7.91,7.91,0,0,1,6.38.74c2.24,1.4,3.14,4.37,3.86,6.75.17.56.32,1.08.44,1.36a5.5,5.5,0,0,0,.47.8c5.59,1.68,7,10.15,7.35,18,.41-1.68.67-3.46,1-5.3.71-4.82,1.46-9.78,5.09-13.28a109.81,109.81,0,0,0-64.27-92.13,24.19,24.19,0,0,1-6,2.41,21.34,21.34,0,0,0-3.39,1.2A11.21,11.21,0,0,0,166.93,95.65Z"/><path class="cls-3" d="M234.26,213.69a2.84,2.84,0,0,1-4.55-2.14c0-.25,0-.6,0-1.44.62-20.42-3.31-21.16-3.48-21.18a2.78,2.78,0,0,1-.5-.11c-1.85-.59-3.14-3.31-3.38-3.85a19.93,19.93,0,0,1-.66-1.95c-.85-2.79-1.28-3.45-1.46-3.6-.47-.29-.85-.26-2.18,0a10.41,10.41,0,0,1-4.58.17c-4.29-1-9.79-3.64-16.37-8a13.75,13.75,0,0,0,2.3,4,16.07,16.07,0,0,0,2.85,2.62c4-.53,7.17.32,9.23,2.49a6.69,6.69,0,0,1,1.91,5.07c-.19,3.61-3.1,6.79-5.5,8.83a23.91,23.91,0,0,1-10.81,5,24.46,24.46,0,0,0-3.24.94c-2.23.9-4.59,1.59-6.75.58-2.41-1.13-3.2-3.6-4.3-7-.24-.74-.51-1.58-.81-2.47-1.81-5.29-4.28-8.68-8.86-14.7a4,4,0,0,0-2.42-1.51c.67,1.82,1.27,3.62,1.74,5.07a21,21,0,0,1,1,5.53,4.75,4.75,0,0,0,.57,2.52,37.77,37.77,0,0,0,7.4,9c.61.55,1.18,1.07,1.74,1.67a18.48,18.48,0,0,1,2.19,3c.83,1.35,1.18,1.84,1.8,2a14.26,14.26,0,0,0,5.42-.24c1-.15,2-.31,3.08-.42a2.84,2.84,0,0,1,2.15.67,2.89,2.89,0,0,1,1,2c.32,6.73-7.48,14.83-13.18,20.74-1.28,1.33-2.49,2.58-3.25,3.48-6,7-6,7.56-6.74,11.77-.27,1.69-.61,3.75-1.31,6.74-1.6,6.83-4.42,8.78-9.1,12-1,.67-2,1.37-3.09,2.18l.09.32c.45,1.57,1.09,3.84-.47,5.65a9.58,9.58,0,0,1-4,2.44,5.7,5.7,0,0,0-1.95,1c-.42.49-1.06,1.31-1.8,2.25-3,3.82-5.09,6.4-6.52,7.33a20.18,20.18,0,0,1-9.86,2.59,9.42,9.42,0,0,1-5.11-1.21c-2-1.29-1.77-3.51-1.67-4.7a6.61,6.61,0,0,0,0-1c-2.61-3.77-3.22-6.86-3.85-10.13a43,43,0,0,0-1.12-4.73,2.48,2.48,0,0,0-.43-.63,7.36,7.36,0,0,1-1.64-3.36c-1-5,.07-7.47.92-9.43a9.87,9.87,0,0,0,1-4.19c.07-2.11-1.54-4.66-3.11-7.13a24.41,24.41,0,0,1-3.48-7.08c-.42-1.79,0-4.06.34-6.47a30.84,30.84,0,0,0,.51-4.5h0a7.08,7.08,0,0,1-5.13-.34c-5.45-3-6.06-2.9-11.87-2.2-1.14.14-2.42.29-3.94.45a24.52,24.52,0,0,1-3.25.66c-3.54.56-4.92.36-5.72.11-4.43-1.33-8.87-7-12.11-11.23-4.61-5.94-4.83-8.32-4.84-12a29.68,29.68,0,0,0-.35-5.1c-1.64-10.5-.34-12.15,6.85-21.36l.87-1.11c5.23-6.7,13.61-15,20-16.47,7.26-1.63,17.94-2.66,24.14-.22a2.86,2.86,0,0,1,1.7,1.89,15.94,15.94,0,0,0,2.39,4.8c2.47,3.13,5.52,5,7.93,4.84a4.54,4.54,0,0,0,3.63-2.52,2.87,2.87,0,0,1,3.56-1.13,55.76,55.76,0,0,0,19.66,4.85c2.65,0,4.42-1,5.38-3,1.05-2.17.65-4.63.15-5.28-.82-1.07-2.22-.93-5-.21l-.64.16a7.45,7.45,0,0,1-8.16-2.33,21.92,21.92,0,0,1-3-4.69,7.51,7.51,0,0,0-.16,1.07c-.12,3.22-2.09,4.56-3.74,4.73-2.54.26-4.87-1.91-5.4-4.08-1.71-7-3.94-10.39-5.47-11.21a1.47,1.47,0,0,0-1.34-.07h0a9.15,9.15,0,0,0,1.49,3.07c.16.25.29.46.4.67,1.28,1.7,1.73,3.36-.49,5.58-.54.52-5,4.64-8.6,3.41a4.37,4.37,0,0,1-2.87-3.7c-.8-5.26-3.45-9-6.15-8.77a14.41,14.41,0,0,0-7.45,3.5c-3,3-12.16,9.41-17.41,7.6a10.27,10.27,0,0,1-5.54-4.79c-2-4.39,1.58-8.3,2.33-9,2.69-2.66,5.76-2.43,7.79-2.29a6,6,0,0,0,2.71-.16,6.26,6.26,0,0,0,2.26-1.45,15.53,15.53,0,0,0-2.29-2.72c-.38-.38-.76-.77-1.12-1.16a2.81,2.81,0,0,1-.66-2.67,2.84,2.84,0,0,1,1.91-2c1.63-.5,3.24-.94,4.8-1.36,1.84-.5,3.54-1,4.75-1.4a23.78,23.78,0,0,0,7.8-4.11c.07-.12.38-1,.5-1.29a14.46,14.46,0,0,1,3.21-5.49,2.86,2.86,0,0,1,3.71-.29,7.63,7.63,0,0,1,2.35,3.25c.64,1.38.83,1.8,2.38,1.93.84,0,5.41-1,6.78-2.59a7.73,7.73,0,0,0,1.9-3.32,3.39,3.39,0,0,1,2.06-2.52,3.09,3.09,0,0,1,2.4.13c2.53.5,5-1,5.51-2h0l-.08-.06a10.14,10.14,0,0,0-1.35.33,8.65,8.65,0,0,1-6.13.07,4.07,4.07,0,0,1-2.42-2.55,3.94,3.94,0,0,1-.14-1.62,3.51,3.51,0,0,0-.16,2.64,2.84,2.84,0,0,1-.68,3.59,4.14,4.14,0,0,0-1.27,1.92c-.85,2-2.15,4.2-6.47,4a2.84,2.84,0,0,1-2.7-2.29,7.4,7.4,0,0,0-1.06-2.75l-.62.18c-.41.12-.87.25-1.41.37-1.22.28-4.46,1-6.34-1.26s-.53-5.41-.08-6.44c.73-1.65,2.44-3,4.8-5,1.3-1,2.75-2.23,4.1-3.52a32.77,32.77,0,0,0,3.15-3.74,19.49,19.49,0,0,1,2.87-3.28c3.64-2.91,7.09-4,11.18-3.5l.5,0c9.34.94,13.84,2.38,15.51,5a4.17,4.17,0,0,1,.49,3.66,5.4,5.4,0,0,1-2.8,3,4.39,4.39,0,0,0,1.75-.25c.07-.09.63-1,.84-1.31a9.16,9.16,0,0,1,2.82-3.2,23,23,0,0,1,4.59-1.71l.14,0A109.89,109.89,0,0,0,132,81.1a111.15,111.15,0,0,0-16.78,1.28c-4,2.24-8.92,5.07-12.22,7.19-1.12.72-2.14,1.5-3.23,2.32a30.45,30.45,0,0,1-9,5.24c-3.12,1.06-6,3.58-9,6.26-3.36,3-6.84,6.1-11.13,7.43a2.74,2.74,0,0,1-.85.13,2.94,2.94,0,0,1-1.39-.36,2.85,2.85,0,0,1-1.37-1.79,13.59,13.59,0,0,1,.19-6.59q-2.31,1.7-4.55,3.52c-.47,1.13-.93,2.29-1.2,3-.18.52-.39,1.15-.62,1.85-1.07,3.24-2.4,7.27-4.06,9.46a35.65,35.65,0,0,1-4,4.14c-1.93,1.8-4.11,3.83-4.9,5.34-1.15,2.21-3.85,4.59-6,6.08-3.12,2.17-8.63,9.8-11.95,14.71a109.72,109.72,0,0,0-7.71,40.49c0,3.27.16,6.51.45,9.73.88.55,2,1.25,2.82,1.79,2.48,1.64,6.58,6.89,6.62,6.94A52.54,52.54,0,0,1,35,214.07,67.79,67.79,0,0,0,39.25,221a17,17,0,0,0,7.08,4.26c5.27,1.39,11.51,4.55,13,16.79.21,1.72.38,3.65.55,5.7v.18a101.3,101.3,0,0,0,1.71,13.23,2.82,2.82,0,0,1-.43,2.24,2.87,2.87,0,0,1-1.94,1.21c-.54.08-.6.21-.63.28h0c-.66,1.47.74,5.86,3.08,10.18A108.94,108.94,0,0,0,132,300.56a110.38,110.38,0,0,0,25.83-3.06l-3.4-3.51L185,259.26l31.31-23.34,10.5-7,4.58,8.6a109,109,0,0,0,9.85-36.11C240.35,205.83,238.7,210.34,234.26,213.69Z"/><path class="cls-3" d="M43.19,126.35c-.42.58-.83,1.17-1.24,1.76a7.36,7.36,0,0,0,.93-1.22C43,126.71,43.08,126.53,43.19,126.35Z"/><path class="cls-3" d="M48.93,120a33.86,33.86,0,0,0,3.37-3.4A12.63,12.63,0,0,0,53.62,114a110.53,110.53,0,0,0-8.46,9.71C46.3,122.48,47.63,121.24,48.93,120Z"/><path class="cls-3" d="M53.7,242.72c-1.12-9.21-5.12-11-8.79-12s-8.07-3.71-10.07-6.19a66.24,66.24,0,0,1-4.77-7.7c-.95-1.68-2-3.53-2.45-4.12a57.67,57.67,0,0,0-4-4.54,108.84,108.84,0,0,0,29.19,58.57,8.49,8.49,0,0,1,.59-4.2A5.93,5.93,0,0,1,55.59,260c-.68-3.83-1-8-1.35-11.63C54.07,246.32,53.91,244.39,53.7,242.72Z"/><path class="cls-3" d="M48.93,120a33.86,33.86,0,0,0,3.37-3.4A12.63,12.63,0,0,0,53.62,114a110.53,110.53,0,0,0-8.46,9.71C46.3,122.48,47.63,121.24,48.93,120Z"/><path class="cls-3" d="M72.83,103.4A56.06,56.06,0,0,0,78,99.12c3.29-2.94,6.7-6,10.91-7.4a25.43,25.43,0,0,0,7.41-4.38l.81-.6a108.4,108.4,0,0,0-19.76,8.88A19.81,19.81,0,0,0,72.83,103.4Z"/><path class="cls-3" d="M40.49,228.91a19.61,19.61,0,0,1-5.64-4.36,66.24,66.24,0,0,1-4.77-7.7c-.95-1.68-2-3.53-2.45-4.12a57.67,57.67,0,0,0-4-4.54,108.51,108.51,0,0,0,8.19,27.52l8.64-6.8Z"/><path class="cls-3" d="M42.87,126.89c.09-.18.21-.36.32-.54-.42.58-.83,1.17-1.24,1.76A6.45,6.45,0,0,0,42.87,126.89Z"/><path class="cls-3" d="M209.62,113.21a109.65,109.65,0,0,0-32.44-22.45,24.19,24.19,0,0,1-6,2.41,21.34,21.34,0,0,0-3.39,1.2c-.08.1-.63,1-.84,1.28A9.06,9.06,0,0,1,164,98.94c-3,1.62-10.34,1.29-12.64-1.89a4,4,0,0,1,.81-5.55,9,9,0,0,1,3-1.63,50,50,0,0,0-9.47-1.63l-.61-.06c-2.52-.3-4.53.36-7,2.29a20.33,20.33,0,0,0-1.88,2.27,37.58,37.58,0,0,1-3.76,4.42c-1.5,1.44-3.05,2.69-4.41,3.79a39.24,39.24,0,0,0-3.07,2.66c.33-.08.63-.16.92-.25,1.36-.38,3.23-.92,5.18.4a7.48,7.48,0,0,1,2.36,2.81,9.79,9.79,0,0,1,1.08-1.77c-.69-3.52,1.19-7.44,3.23-10,1.16-1.45,4.22-4.71,7.53-3.72.86.26,2.91,1.23,3.22,4.59a7.75,7.75,0,0,1-1.14,4.48l.14,0c1.58-.47,4-1.17,6.2.45a5.64,5.64,0,0,1,2,7.2c-1.4,2.94-5.56,5.67-10.28,5.38a14.91,14.91,0,0,1-2.45,3.7c-2.94,3.34-9.71,4.65-11.53,4.5a7.6,7.6,0,0,1-5.85-3,8,8,0,0,1-2.18,3.63,29.34,29.34,0,0,1-9.51,5.09c-1.43.52-3.24,1-5.17,1.53l-.24.06a6.72,6.72,0,0,1,1.72,5.38c-.55,3-3.41,4.61-5.51,5.58a10.65,10.65,0,0,1-5.49.67c-1.92-.14-2.6-.12-3.39.66-.51.51-1.51,1.86-1.17,2.57a5.07,5.07,0,0,0,2.23,1.82c1.5.51,8.28-2.94,11.52-6.22a19.94,19.94,0,0,1,11-5.16c5.59-.51,10.45,4.44,12.06,12.18.4-.24.85-.53,1.26-.83-1.07-1.68-3-4.88-2-7.91a5.41,5.41,0,0,1,3.48-3.38,7.14,7.14,0,0,1,6,.4c2.92,1.56,5.32,5.2,7.17,10.83.73-2.16,2-4.29,4.09-4.66,1.5-.26,3.6.22,5.13,4a17.79,17.79,0,0,0,3.13,5.49c.56.7,1,.71,2.31.38l.5-.12c2.86-.73,7.9-2,11.14,2.24,2.05,2.69,2.24,7.52.45,11.22-1.91,3.94-5.62,6.15-10.46,6.22h0c-.39,0-8.8-.06-19.89-4.45a9.63,9.63,0,0,1-6.67,3.24c-4.3.24-9.07-2.36-12.73-7a20.2,20.2,0,0,1-2.9-5.31c-5-1.32-13.35-.54-19.62.86-4.33,1-11.87,8.15-16.75,14.42l-.87,1.12c-6.84,8.76-7,8.92-5.72,17a35.83,35.83,0,0,1,.42,6c0,2.73,0,3.85,3.64,8.54,2.3,3,6.57,8.47,9.26,9.27a26.82,26.82,0,0,0,5.79-.78,2.33,2.33,0,0,1,.72-.18c1.58-.16,2.91-.32,4.08-.46,6.66-.81,8.49-.85,15.28,2.85a10.9,10.9,0,0,0,1.19-.22c1.33-.29,4.42-.95,6.07,1.94,1.35,2.37.8,5.75.28,9a18.21,18.21,0,0,0-.41,4.27,20.16,20.16,0,0,0,2.74,5.32c2,3.21,4.12,6.51,4,10.37a15.69,15.69,0,0,1-1.5,6.26c-.72,1.67-1.2,2.78-.55,6.09a2.09,2.09,0,0,0,.55.95,7.44,7.44,0,0,1,1.37,2.44,48.58,48.58,0,0,1,1.27,5.31c.59,3.06,1,5.26,3,8.09a6.33,6.33,0,0,1,.91,4.32,14.53,14.53,0,0,0,7.82-1.62c.76-.5,4.08-4.71,5.17-6.1.83-1.05,1.48-1.87,1.93-2.41a9.8,9.8,0,0,1,4.2-2.64,12.24,12.24,0,0,0,1.23-.53c-.06-.23-.13-.46-.18-.64-.41-1.46-1.18-4.17,1-5.83,1.58-1.18,2.94-2.12,4.14-2.95,4.4-3,5.72-4,6.82-8.65.66-2.8,1-4.76,1.23-6.33.85-5.24,1.26-6.62,8-14.57.88-1,2.15-2.35,3.49-3.74,3.31-3.43,8.62-8.94,10.72-13.26a15.88,15.88,0,0,1-6.55-.08c-2.86-.77-4.14-2.85-5.17-4.52a12.78,12.78,0,0,0-1.52-2.13,18.05,18.05,0,0,0-1.39-1.32c-1.88-1.7-4.44-4-8.39-10.22a10.1,10.1,0,0,1-1.44-5.14,16.38,16.38,0,0,0-.76-4.2c-.83-2.52-1.92-5.75-3.07-8.33a2.84,2.84,0,0,1,1.81-3.88c.31-.09,7.61-2.16,11.88,3.46s7.51,9.9,9.71,16.3c.32.94.6,1.81.85,2.57a24.8,24.8,0,0,0,1.33,3.57,8.43,8.43,0,0,0,2.18-.66,28.5,28.5,0,0,1,4-1.19c2.75-.67,5.59-1.36,8.49-3.82,2.5-2.13,3.45-3.91,3.5-4.79a1,1,0,0,0-.36-.84c-1.15-1.21-3.87-.87-5-.67-2.92.52-7.17-4.52-7.35-4.73-2.09-2.53-4.34-6.73-3.82-10.24a6.11,6.11,0,0,1,2.69-4.29,3.12,3.12,0,0,1,3.77.41c8.94,6.2,14.22,8.27,17.07,8.91a5.11,5.11,0,0,0,2.16-.19,7.91,7.91,0,0,1,6.38.74c2.24,1.4,3.14,4.37,3.86,6.75.17.56.32,1.08.44,1.36a5.5,5.5,0,0,0,.47.8c5.59,1.68,7,10.15,7.35,18,.41-1.68.67-3.46,1-5.3.71-4.82,1.46-9.78,5.09-13.28A108.88,108.88,0,0,0,209.62,113.21Z"/><path class="cls-4" d="M132,308.2a118,118,0,0,0,31.92-4.4l-6.09-6.3a110.62,110.62,0,0,1-53.56-.47l-5.83,6.32A117.81,117.81,0,0,0,132,308.2Z"/><path class="cls-3" d="M42.87,126.89c.09-.18.21-.36.32-.54-.42.58-.83,1.17-1.24,1.76A6.45,6.45,0,0,0,42.87,126.89Z"/><path class="cls-3" d="M72.83,103.4A56.06,56.06,0,0,0,78,99.12c3.29-2.94,6.7-6,10.91-7.4a25.43,25.43,0,0,0,7.41-4.38l.81-.6a108.4,108.4,0,0,0-19.76,8.88A19.81,19.81,0,0,0,72.83,103.4Z"/><path class="cls-3" d="M209.62,113.21a109.65,109.65,0,0,0-32.44-22.45,24.19,24.19,0,0,1-6,2.41,21.34,21.34,0,0,0-3.39,1.2c-.08.1-.63,1-.84,1.28A9.06,9.06,0,0,1,164,98.94c-3,1.62-10.34,1.29-12.64-1.89a4,4,0,0,1,.81-5.55,9,9,0,0,1,3-1.63,50,50,0,0,0-9.47-1.63l-.61-.06c-2.52-.3-4.53.36-7,2.29a20.33,20.33,0,0,0-1.88,2.27,37.58,37.58,0,0,1-3.76,4.42c-1.5,1.44-3.05,2.69-4.41,3.79a39.24,39.24,0,0,0-3.07,2.66c.33-.08.63-.16.92-.25,1.36-.38,3.23-.92,5.18.4a7.48,7.48,0,0,1,2.36,2.81,9.79,9.79,0,0,1,1.08-1.77c-.69-3.52,1.19-7.44,3.23-10,1.16-1.45,4.22-4.71,7.53-3.72.86.26,2.91,1.23,3.22,4.59a7.75,7.75,0,0,1-1.14,4.48l.14,0c1.58-.47,4-1.17,6.2.45a5.64,5.64,0,0,1,2,7.2c-1.4,2.94-5.56,5.67-10.28,5.38a14.91,14.91,0,0,1-2.45,3.7c-2.94,3.34-9.71,4.65-11.53,4.5a7.6,7.6,0,0,1-5.85-3,8,8,0,0,1-2.18,3.63,29.34,29.34,0,0,1-9.51,5.09c-1.43.52-3.24,1-5.17,1.53l-.24.06a6.72,6.72,0,0,1,1.72,5.38c-.55,3-3.41,4.61-5.51,5.58a10.65,10.65,0,0,1-5.49.67c-1.92-.14-2.6-.12-3.39.66-.51.51-1.51,1.86-1.17,2.57a5.07,5.07,0,0,0,2.23,1.82c1.5.51,8.28-2.94,11.52-6.22a19.94,19.94,0,0,1,11-5.16c5.59-.51,10.45,4.44,12.06,12.18.4-.24.85-.53,1.26-.83-1.07-1.68-3-4.88-2-7.91a5.41,5.41,0,0,1,3.48-3.38,7.14,7.14,0,0,1,6,.4c2.92,1.56,5.32,5.2,7.17,10.83.73-2.16,2-4.29,4.09-4.66,1.5-.26,3.6.22,5.13,4a17.79,17.79,0,0,0,3.13,5.49c.56.7,1,.71,2.31.38l.5-.12c2.86-.73,7.9-2,11.14,2.24,2.05,2.69,2.24,7.52.45,11.22-1.91,3.94-5.62,6.15-10.46,6.22h0c-.39,0-8.8-.06-19.89-4.45a9.63,9.63,0,0,1-6.67,3.24c-4.3.24-9.07-2.36-12.73-7a20.2,20.2,0,0,1-2.9-5.31c-5-1.32-13.35-.54-19.62.86-4.33,1-11.87,8.15-16.75,14.42l-.87,1.12c-6.84,8.76-7,8.92-5.72,17a35.83,35.83,0,0,1,.42,6c0,2.73,0,3.85,3.64,8.54,2.3,3,6.57,8.47,9.26,9.27a26.82,26.82,0,0,0,5.79-.78,2.33,2.33,0,0,1,.72-.18c1.58-.16,2.91-.32,4.08-.46,6.66-.81,8.49-.85,15.28,2.85a10.9,10.9,0,0,0,1.19-.22c1.33-.29,4.42-.95,6.07,1.94,1.35,2.37.8,5.75.28,9a18.21,18.21,0,0,0-.41,4.27,20.16,20.16,0,0,0,2.74,5.32c2,3.21,4.12,6.51,4,10.37a15.69,15.69,0,0,1-1.5,6.26c-.72,1.67-1.2,2.78-.55,6.09a2.09,2.09,0,0,0,.55.95,7.44,7.44,0,0,1,1.37,2.44,48.58,48.58,0,0,1,1.27,5.31c.59,3.06,1,5.26,3,8.09a6.33,6.33,0,0,1,.91,4.32,14.53,14.53,0,0,0,7.82-1.62c.76-.5,4.08-4.71,5.17-6.1.83-1.05,1.48-1.87,1.93-2.41a9.8,9.8,0,0,1,4.2-2.64,12.24,12.24,0,0,0,1.23-.53c-.06-.23-.13-.46-.18-.64-.41-1.46-1.18-4.17,1-5.83,1.58-1.18,2.94-2.12,4.14-2.95,4.4-3,5.72-4,6.82-8.65.66-2.8,1-4.76,1.23-6.33.85-5.24,1.26-6.62,8-14.57.88-1,2.15-2.35,3.49-3.74,3.31-3.43,8.62-8.94,10.72-13.26a15.88,15.88,0,0,1-6.55-.08c-2.86-.77-4.14-2.85-5.17-4.52a12.78,12.78,0,0,0-1.52-2.13,18.05,18.05,0,0,0-1.39-1.32c-1.88-1.7-4.44-4-8.39-10.22a10.1,10.1,0,0,1-1.44-5.14,16.38,16.38,0,0,0-.76-4.2c-.83-2.52-1.92-5.75-3.07-8.33a2.84,2.84,0,0,1,1.81-3.88c.31-.09,7.61-2.16,11.88,3.46s7.51,9.9,9.71,16.3c.32.94.6,1.81.85,2.57a24.8,24.8,0,0,0,1.33,3.57,8.43,8.43,0,0,0,2.18-.66,28.5,28.5,0,0,1,4-1.19c2.75-.67,5.59-1.36,8.49-3.82,2.5-2.13,3.45-3.91,3.5-4.79a1,1,0,0,0-.36-.84c-1.15-1.21-3.87-.87-5-.67-2.92.52-7.17-4.52-7.35-4.73-2.09-2.53-4.34-6.73-3.82-10.24a6.11,6.11,0,0,1,2.69-4.29,3.12,3.12,0,0,1,3.77.41c8.94,6.2,14.22,8.27,17.07,8.91a5.11,5.11,0,0,0,2.16-.19,7.91,7.91,0,0,1,6.38.74c2.24,1.4,3.14,4.37,3.86,6.75.17.56.32,1.08.44,1.36a5.5,5.5,0,0,0,.47.8c5.59,1.68,7,10.15,7.35,18,.41-1.68.67-3.46,1-5.3.71-4.82,1.46-9.78,5.09-13.28A108.88,108.88,0,0,0,209.62,113.21Z"/><path class="cls-4" d="M215,107.81A117.44,117.44,0,0,0,25.63,240.59l6.2-4.87a108.39,108.39,0,0,1-8.19-27.52,57.67,57.67,0,0,1,4,4.54c.45.6,1.5,2.45,2.45,4.12a67.64,67.64,0,0,0,4.77,7.7,19.93,19.93,0,0,0,5.64,4.36l8.14-2.32c-2.57-.68-8.25-4.24-9.35-5.61A67.79,67.79,0,0,1,35,214.06a55.59,55.59,0,0,0-2.87-4.77S28,204,25.52,202.35c-.83-.55-1.94-1.25-2.82-1.79-.28-3.22-.45-6.46-.45-9.73A109.72,109.72,0,0,1,30,150.34a158.06,158.06,0,0,1,15.18-26.57h0c6-8.38,13.53-16.71,22.11-21.57a13.35,13.35,0,0,0-.19,6.59,2.84,2.84,0,0,0,2.76,2.15,2.74,2.74,0,0,0,.85-.13c4.29-1.34,7.77-4.43,11.13-7.43,3-2.68,5.83-5.2,9-6.26a30.32,30.32,0,0,0,9-5.24c1.08-.82,2.11-1.6,3.23-2.32,3.3-2.13,8.25-5,12.22-7.19A111.15,111.15,0,0,1,132,81.09a109.74,109.74,0,0,1,37.64,6.61l-.14,0a23.58,23.58,0,0,0-4.59,1.71,9.16,9.16,0,0,0-2.82,3.2c-.21.33-.77,1.22-.84,1.31a4.39,4.39,0,0,1-1.75.25,5.4,5.4,0,0,0,2.8-3,4.21,4.21,0,0,0-.49-3.66c-1.68-2.58-6.17-4-15.51-5l-.5,0c-4.09-.49-7.53.59-11.18,3.5a19.49,19.49,0,0,0-2.87,3.28,33.82,33.82,0,0,1-3.15,3.74c-1.35,1.29-2.81,2.47-4.1,3.52-2.37,1.92-4.08,3.3-4.8,5-.45,1-1.81,4.15.08,6.44s5.12,1.53,6.34,1.26c.54-.12,1-.25,1.41-.37l.62-.18a7.4,7.4,0,0,1,1.06,2.75,2.83,2.83,0,0,0,2.7,2.29c4.33.15,5.62-2,6.47-4a4.24,4.24,0,0,1,1.27-1.92,2.83,2.83,0,0,0,.68-3.59,3.51,3.51,0,0,1,.16-2.64,4,4,0,0,0,.14,1.62,4.07,4.07,0,0,0,2.42,2.55,8.65,8.65,0,0,0,6.13-.07,10.53,10.53,0,0,1,1.35-.33l.08.06h0c-.48,1-3,2.56-5.51,2a3.09,3.09,0,0,0-2.4-.13,3.43,3.43,0,0,0-2.06,2.52,7.73,7.73,0,0,1-1.9,3.32c-1.37,1.55-5.94,2.59-6.78,2.59-1.56-.13-1.75-.55-2.38-1.93a7.63,7.63,0,0,0-2.35-3.25,2.87,2.87,0,0,0-3.71.29,14.33,14.33,0,0,0-3.21,5.49c-.12.32-.44,1.17-.5,1.29a24.07,24.07,0,0,1-7.8,4.11c-1.2.44-2.91.9-4.75,1.4-1.56.42-3.17.86-4.8,1.36a2.84,2.84,0,0,0-1.25,4.65c.36.39.74.78,1.12,1.16a15.53,15.53,0,0,1,2.29,2.72,6.41,6.41,0,0,1-2.26,1.45,5.93,5.93,0,0,1-2.71.16c-2-.15-5.1-.37-7.79,2.29-.75.74-4.38,4.65-2.33,9a10.34,10.34,0,0,0,5.54,4.79c5.26,1.81,14.47-4.62,17.41-7.6a14.48,14.48,0,0,1,7.45-3.5c2.7-.26,5.36,3.52,6.15,8.77a4.36,4.36,0,0,0,2.87,3.7c3.59,1.23,8.06-2.9,8.6-3.41,2.22-2.22,1.78-3.88.49-5.58-.11-.2-.24-.42-.4-.67a9.15,9.15,0,0,1-1.49-3.07h0a1.47,1.47,0,0,1,1.34.07c1.52.81,3.76,4.19,5.47,11.21.53,2.18,2.86,4.34,5.4,4.08,1.65-.17,3.61-1.5,3.74-4.73a7.94,7.94,0,0,1,.16-1.07,21.92,21.92,0,0,0,3,4.69,7.45,7.45,0,0,0,8.16,2.33l.64-.16c2.84-.72,4.24-.86,5,.21a6.19,6.19,0,0,1-.15,5.28c-1,2-2.73,3-5.38,3-.36,0-8.83-.15-19.66-4.85a2.85,2.85,0,0,0-3.56,1.13,4.54,4.54,0,0,1-3.63,2.52c-2.41.15-5.46-1.71-7.93-4.84a15.94,15.94,0,0,1-2.39-4.8,2.84,2.84,0,0,0-1.7-1.89c-6.2-2.44-16.88-1.41-24.14.22-6.39,1.43-14.77,9.77-20,16.47l-.87,1.11c-7.19,9.21-8.49,10.87-6.85,21.36a29.68,29.68,0,0,1,.35,5.1c0,3.7.23,6.08,4.84,12,3.24,4.18,7.68,9.9,12.11,11.23.81.24,2.18.45,5.72-.11a24.9,24.9,0,0,0,3.25-.66c1.52-.16,2.8-.31,3.94-.45,5.81-.7,6.42-.78,11.87,2.2a7.08,7.08,0,0,0,5.13.34h0a31.16,31.16,0,0,1-.51,4.5c-.39,2.41-.76,4.68-.34,6.47a24.41,24.41,0,0,0,3.48,7.08c1.56,2.47,3.18,5,3.11,7.13a9.87,9.87,0,0,1-1,4.19c-.85,2-1.9,4.4-.92,9.43a7.68,7.68,0,0,0,1.64,3.36,2.48,2.48,0,0,1,.43.63,43,43,0,0,1,1.12,4.73c.64,3.27,1.24,6.37,3.85,10.13a8.38,8.38,0,0,1,0,1c-.1,1.19-.29,3.41,1.67,4.7a9.42,9.42,0,0,0,5.11,1.21,20.21,20.21,0,0,0,9.86-2.59c1.43-.94,3.51-3.51,6.52-7.33.75-.95,1.39-1.76,1.8-2.25a5.7,5.7,0,0,1,1.95-1,9.38,9.38,0,0,0,4-2.44c1.56-1.81.92-4.08.47-5.65l-.09-.32c1.11-.81,2.12-1.51,3.09-2.18,4.68-3.23,7.5-5.19,9.1-12,.7-3,1-5,1.31-6.74.68-4.22.77-4.76,6.74-11.77.76-.89,2-2.15,3.25-3.48,5.7-5.91,13.51-14,13.18-20.74a2.85,2.85,0,0,0-3.14-2.69c-1.07.11-2.08.27-3.08.42-2.15.33-4,.62-5.42.24-.62-.17-1-.66-1.8-2a18.48,18.48,0,0,0-2.19-3c-.55-.6-1.13-1.12-1.74-1.67-1.73-1.56-3.87-3.5-7.4-9a4.78,4.78,0,0,1-.57-2.52,21.32,21.32,0,0,0-1-5.53c-.47-1.44-1.07-3.25-1.74-5.07a4.13,4.13,0,0,1,2.42,1.51c4.57,6,7,9.41,8.86,14.7.3.89.57,1.73.81,2.47,1.1,3.42,1.89,5.89,4.3,7,2.16,1,4.52.32,6.75-.58a24.46,24.46,0,0,1,3.24-.94,23.91,23.91,0,0,0,10.81-5c2.4-2,5.3-5.22,5.5-8.83a6.71,6.71,0,0,0-1.91-5.07c-2.06-2.17-5.24-3-9.23-2.49a16,16,0,0,1-2.85-2.62,13.63,13.63,0,0,1-2.3-4c6.58,4.32,12.08,7,16.37,8a10.27,10.27,0,0,0,4.58-.17c1.33-.28,1.71-.31,2.18,0,.18.15.61.81,1.46,3.6.23.75.43,1.41.66,2s1.53,3.26,3.38,3.85a2.78,2.78,0,0,0,.5.11c.17,0,4.09.76,3.48,21.18,0,.84,0,1.2,0,1.44a2.84,2.84,0,0,0,4.55,2.14c4.45-3.36,6.09-7.86,7-12.32a109,109,0,0,1-9.85,36.11l0,.08,5.7,5.54A117.44,117.44,0,0,0,215,107.81ZM42.87,126.89a6.18,6.18,0,0,1-.93,1.22c.41-.59.82-1.18,1.24-1.76ZM96.35,87.33a25.43,25.43,0,0,1-7.41,4.38c-4.21,1.43-7.62,4.47-10.91,7.4a54.49,54.49,0,0,1-5.19,4.28A19.73,19.73,0,0,1,77.4,95.6a107.79,107.79,0,0,1,19.76-8.88Zm140,108.84c-.27,1.84-.54,3.63-1,5.3-.32-7.82-1.77-16.29-7.35-18a8.29,8.29,0,0,1-.47-.8c-.12-.28-.27-.8-.44-1.36-.72-2.38-1.62-5.35-3.86-6.75a8,8,0,0,0-6.38-.74,5.47,5.47,0,0,1-2.16.19c-2.85-.64-8.13-2.71-17.07-8.91a3.12,3.12,0,0,0-3.77-.41,6.07,6.07,0,0,0-2.69,4.29c-.52,3.51,1.73,7.71,3.82,10.24.18.21,4.43,5.25,7.35,4.73,1.12-.2,3.84-.54,5,.67a1,1,0,0,1,.36.84c-.05.88-1,2.67-3.5,4.79-2.9,2.46-5.73,3.15-8.49,3.82a28.11,28.11,0,0,0-4,1.19,8.32,8.32,0,0,1-2.18.66,25.56,25.56,0,0,1-1.33-3.57c-.24-.76-.52-1.63-.85-2.57-2.19-6.4-5.34-10.55-9.71-16.3s-11.58-3.55-11.88-3.46a2.87,2.87,0,0,0-1.79,1.53,2.83,2.83,0,0,0,0,2.35c1.15,2.58,2.25,5.81,3.07,8.33a16.38,16.38,0,0,1,.76,4.2,10.1,10.1,0,0,0,1.44,5.14c3.94,6.2,6.51,8.53,8.39,10.22.53.48,1,.89,1.39,1.32a13.86,13.86,0,0,1,1.52,2.13c1,1.67,2.31,3.75,5.17,4.52a15.88,15.88,0,0,0,6.55.08c-2.1,4.32-7.41,9.84-10.72,13.26-1.34,1.39-2.61,2.7-3.49,3.74-6.76,7.95-7.18,9.33-8,14.57-.26,1.57-.57,3.53-1.23,6.33-1.1,4.69-2.42,5.61-6.82,8.65-1.2.83-2.56,1.77-4.14,2.95-2.23,1.66-1.46,4.37-1,5.83l.18.64c-.34.18-.79.35-1.23.53a9.8,9.8,0,0,0-4.2,2.64c-.45.54-1.1,1.36-1.93,2.41-1.09,1.38-4.41,5.6-5.17,6.1a14.61,14.61,0,0,1-7.82,1.62,6.33,6.33,0,0,0-.91-4.32c-2-2.84-2.42-5-3-8.09a46.37,46.37,0,0,0-1.27-5.31,7.33,7.33,0,0,0-1.37-2.44,2.09,2.09,0,0,1-.55-1c-.65-3.31-.17-4.42.55-6.09a15.36,15.36,0,0,0,1.5-6.26c.13-3.86-2-7.16-4-10.37a20,20,0,0,1-2.74-5.32,18.77,18.77,0,0,1,.41-4.27c.53-3.26,1.07-6.64-.28-9-1.65-2.9-4.74-2.23-6.07-1.94a8.91,8.91,0,0,1-1.19.22c-6.79-3.7-8.62-3.66-15.28-2.85-1.17.14-2.5.3-4.08.46a2.14,2.14,0,0,0-.72.18,26.82,26.82,0,0,1-5.79.78c-2.68-.81-7-6.31-9.26-9.27-3.64-4.69-3.64-5.82-3.64-8.54a34.83,34.83,0,0,0-.42-6c-1.26-8.06-1.13-8.23,5.72-17l.87-1.12c4.89-6.27,12.42-13.45,16.75-14.42,6.27-1.4,14.66-2.19,19.62-.86a20.2,20.2,0,0,0,2.9,5.31c3.66,4.64,8.43,7.24,12.73,7a9.67,9.67,0,0,0,6.67-3.24c11.09,4.4,19.51,4.45,19.89,4.45h0c4.83-.08,8.54-2.28,10.46-6.22,1.8-3.7,1.61-8.53-.45-11.22-3.24-4.25-8.28-3-11.14-2.24l-.5.12c-1.31.32-1.76.31-2.31-.38a17.79,17.79,0,0,1-3.13-5.49c-1.53-3.76-3.62-4.24-5.13-4-2.12.37-3.36,2.5-4.09,4.66-1.84-5.63-4.25-9.27-7.17-10.83a7.18,7.18,0,0,0-6-.4,5.4,5.4,0,0,0-3.48,3.38c-1,3,.9,6.23,2,7.91a14.33,14.33,0,0,1-1.26.83c-1.61-7.74-6.47-12.69-12.06-12.18a20,20,0,0,0-11,5.16c-3.24,3.28-10,6.73-11.52,6.22a5,5,0,0,1-2.23-1.82c-.34-.72.66-2.07,1.17-2.57.79-.78,1.47-.8,3.39-.66a10.63,10.63,0,0,0,5.49-.67c2.1-1,5-2.6,5.51-5.58a6.76,6.76,0,0,0-1.72-5.38l.24-.06c1.92-.52,3.74-1,5.17-1.53a29.34,29.34,0,0,0,9.51-5.09,8,8,0,0,0,2.18-3.63,7.6,7.6,0,0,0,5.85,3c1.82.15,8.59-1.16,11.53-4.5a14.64,14.64,0,0,0,2.45-3.7c4.72.28,8.88-2.44,10.28-5.38a5.63,5.63,0,0,0-2-7.2c-2.23-1.62-4.62-.91-6.2-.45l-.14,0a7.78,7.78,0,0,0,1.14-4.48c-.31-3.36-2.36-4.33-3.22-4.59-3.31-1-6.36,2.27-7.53,3.72-2.05,2.55-3.92,6.46-3.23,10a9.79,9.79,0,0,0-1.08,1.77,7.57,7.57,0,0,0-2.36-2.81c-1.95-1.32-3.82-.79-5.18-.4l-.92.25a35.43,35.43,0,0,1,3.07-2.66c1.36-1.1,2.91-2.36,4.41-3.79a36.78,36.78,0,0,0,3.76-4.42,20.33,20.33,0,0,1,1.88-2.27c2.42-1.93,4.44-2.6,7-2.29l.61.06a50,50,0,0,1,9.47,1.63,9,9,0,0,0-3,1.63,4.06,4.06,0,0,0-.81,5.55c2.3,3.18,9.66,3.51,12.64,1.89a9,9,0,0,0,2.94-3.29c.21-.32.76-1.18.84-1.28a22.81,22.81,0,0,1,3.39-1.2,23.81,23.81,0,0,0,6-2.41,109.81,109.81,0,0,1,64.27,92.13C237.82,186.39,237.07,191.35,236.36,196.17Z"/><path class="cls-4" d="M87.57,249.88l-.29,0c-.26,0-.52-.05-.79-.05l-.82-.14v-.57a14.65,14.65,0,0,0-5-10.92l0,0h0a14.69,14.69,0,0,0-12-1.67,7.45,7.45,0,0,1-2.34.34,7,7,0,0,1-2.68-.61l-.24-.19a35.07,35.07,0,0,1-2.46-3.63,13.22,13.22,0,0,0-7.42-6l-.17-.05-.25-.09a4.31,4.31,0,0,0-.49-.11l-.67-.14a14.83,14.83,0,0,0-13.35,4l-6.35,6.36-.37-.83a109.57,109.57,0,0,1-8.1-26.72L16.47,212l.44.37-1.6.08A15.89,15.89,0,0,0,.93,223.67c-.12.39-.22.78-.31,1.18l-.62-.1H0l.58.31c-.09.42-.16.84-.21,1.28l0,.48c0,.32,0,.64-.06,1s0,.54,0,.81V229l0,.35c0,.25,0,.49.07.74s.05.41.09.62.09.56.14.83l.07.29,0,.14a15.53,15.53,0,0,0,1.82,4.46,15.65,15.65,0,0,0,10.22,7.35L22.91,246l-1.08.83a15.21,15.21,0,0,0-3.54,20.39c.22.34.45.68.74,1.06s.72.91,1.12,1.34a14.8,14.8,0,0,0,5.74,3.59l.7.24-.34.65a14.78,14.78,0,0,0,1.84,16.52c.18.22.38.43.56.62l.26.29a14.68,14.68,0,0,0,10.35,4.35h.62v.62a15.9,15.9,0,0,0,.31,2.88c0,.23.11.46.17.69l.11.42.09.33c0,.11.07.21.11.32l.11.31c.09.26.18.51.29.76l-.58.25h.69a14.62,14.62,0,0,0,2.87,4.24l.19.16a14.49,14.49,0,0,0,10.6,4.32,14.87,14.87,0,0,0,6.75-1.7l.24-.09.57.11.19.53a14.88,14.88,0,0,0,14,9.9h0a14.76,14.76,0,0,0,10.49-4.34l11.43-11.43,7.45-7.7s2.56-3.34,3.14-5.7a14.92,14.92,0,0,0-3.44-14.35l-.73-.71a15.41,15.41,0,0,0-5-3.07l-.71-.44.54-1.78a15.37,15.37,0,0,0,.89-3l.38-1.24A14.77,14.77,0,0,0,87.85,249.9m-64-12-9.53-2.07a7.8,7.8,0,0,1-4.63-3.24,7.64,7.64,0,0,1-.59-5.26,7.76,7.76,0,0,1,8.58-5.85l.41.05.11.4A116.2,116.2,0,0,0,23.4,236.8Zm29.89,7.5L35.38,263.81a6.9,6.9,0,0,1-9.51.1l-.16-.13a6.34,6.34,0,0,1-.79-1,6.82,6.82,0,0,1,1.32-7.67l18.33-18.32a6.86,6.86,0,0,1,6.19-2.69,6.82,6.82,0,0,1,3,1.7A6.91,6.91,0,0,1,53.77,245.42Zm18.44,55.66,18.46-18.45a6.29,6.29,0,1,1,9,8.73L81.33,309.75a6.72,6.72,0,0,1-4.74,1.93,7.48,7.48,0,0,1-1.86-.24,6.8,6.8,0,0,1-2.52-10.36Zm-24.36-4.89,0-.16a6.93,6.93,0,0,1,1.15-2.4,6.25,6.25,0,0,1,1.31-1.31l31.49-31.49a6.8,6.8,0,0,1,3.2-2.32l.18,0a6.85,6.85,0,0,1,5.77,11l-6.75,6.76c-8.37,8.39-21,21.06-24.77,24.76a6.91,6.91,0,0,1-9.62,0l-.09-.11A6.82,6.82,0,0,1,47.85,296.19Zm-7.23-8.64a6.9,6.9,0,0,1-5.47-1.46l0,0-.43-.44a6.91,6.91,0,0,1,0-9.62L66.2,244.54a6.83,6.83,0,0,1,5.59-1.88h0a6.81,6.81,0,0,1,3.78,1.88,6.91,6.91,0,0,1,0,9.62L44.12,285.71A6.91,6.91,0,0,1,40.62,287.55Z"/><path class="cls-4" d="M176.05,251.31a14.77,14.77,0,0,0-13.26,16.24l.38,1.24a15.37,15.37,0,0,0,.89,3l.54,1.78-.71.44a15.41,15.41,0,0,0-5,3.07l-.73.71a14.92,14.92,0,0,0-3.44,14.35c.58,2.36,3.14,5.7,3.14,5.7l7.45,7.7L176.78,317a14.74,14.74,0,0,0,10.49,4.34h0a14.9,14.9,0,0,0,14-9.9l.19-.53.57-.11.24.09a15,15,0,0,0,6.75,1.7,14.49,14.49,0,0,0,10.6-4.32l.19-.16a14.82,14.82,0,0,0,2.87-4.24h.69l-.58-.25c.11-.25.2-.51.29-.76l.11-.31a3,3,0,0,0,.11-.32l.09-.33.11-.42c.06-.23.12-.46.17-.69a14.89,14.89,0,0,0,.31-2.88v-.62h.62A14.65,14.65,0,0,0,235,292.91l.26-.29c.19-.2.38-.41.56-.62a14.78,14.78,0,0,0,1.84-16.52l-.34-.65.7-.24a14.73,14.73,0,0,0,5.74-3.59,14.45,14.45,0,0,0,1.12-1.34c.29-.38.52-.72.74-1.06a15.22,15.22,0,0,0-3.54-20.39l-1.08-.83,10.19-2.21a15.65,15.65,0,0,0,10.22-7.35,16.06,16.06,0,0,0,1.82-4.46l0-.14.07-.29c.06-.28.1-.55.14-.83l.09-.62c0-.24.05-.49.07-.74l0-.35V230c0-.28,0-.54,0-.81s0-.65-.06-1l0-.48c-.05-.44-.12-.86-.21-1.28l.58-.31h0l-.62.1c-.09-.41-.19-.8-.31-1.18a15.87,15.87,0,0,0-14.38-11.23l-1.6-.08.44-.37-7.22-3.16a110,110,0,0,1-8.1,26.72l-.37.83-6.35-6.36a14.82,14.82,0,0,0-13.35-4l-.67.14a3.88,3.88,0,0,0-.49.11l-.25.09-.17.05a13.19,13.19,0,0,0-7.42,6,36.73,36.73,0,0,1-2.46,3.63l-.24.19a7,7,0,0,1-2.68.61,7.21,7.21,0,0,1-2.34-.34,14.69,14.69,0,0,0-12,1.67h0l0,0a14.63,14.63,0,0,0-5.05,10.92v.57l-.82.14c-.26,0-.52,0-.79.05l-.29,0m64.16-13.07a116.74,116.74,0,0,0,5.17-14.85l.11-.4.41-.05a7.37,7.37,0,1,1,3.36,14.35L240,239.34Zm-30.37-1a5.8,5.8,0,0,1,9.2,1l18.33,18.32a6.82,6.82,0,0,1,1.32,7.67,6.34,6.34,0,0,1-.79,1l-.16.13a6.9,6.9,0,0,1-9.51-.1l-18.39-18.39A6.93,6.93,0,0,1,210.13,237.21ZM191.75,310.8a6.79,6.79,0,0,1-2.57,2.06,7.54,7.54,0,0,1-1.86.24,6.7,6.7,0,0,1-4.74-1.93l-18.39-18.39a6.86,6.86,0,0,1-1.88-3.82,6.72,6.72,0,0,1,1.32-3.54,6.85,6.85,0,0,1,9.61-1.37L191.7,302.5A6.92,6.92,0,0,1,191.75,310.8Zm22.43-8.47-.09.11a6.91,6.91,0,0,1-9.62,0c-3.76-3.7-16.41-16.38-24.77-24.76L173,270.92a6.86,6.86,0,0,1,1.32-9.68,6.76,6.76,0,0,1,4.45-1.35l.18,0a6.82,6.82,0,0,1,3.2,2.32l31.49,31.49A6.76,6.76,0,0,1,214.9,295a6.84,6.84,0,0,1,1.15,2.4l0,.16A6.92,6.92,0,0,1,214.18,302.33Zm5.6-15.21-31.47-31.55a6.91,6.91,0,0,1,0-9.62,6.81,6.81,0,0,1,3.78-1.88h0A6.83,6.83,0,0,1,197.7,246l31.52,31.53a6.91,6.91,0,0,1,0,9.62l-.43.44,0,0a6.62,6.62,0,0,1-9-.38Z"/></g></g></svg>