<svg xmlns="http://www.w3.org/2000/svg" viewBox="0 0 308.18 309.2"><defs><style>.cls-1{fill:#1b4364;}.cls-2{fill:#408d76;}.cls-3{fill:#29456d;}</style></defs><g id="Layer_2" data-name="Layer 2"><g id="Layer_1-2" data-name="Layer 1"><path class="cls-1" d="M148.58,188.6l49.2-60.5a15,15,0,0,0,3.3-11,14.74,14.74,0,0,0-5.4-10.1,15,15,0,0,0-11-3.3,14.74,14.74,0,0,0-10.1,5.4L153.48,135l5.9,4.8,21.1-25.9a7.22,7.22,0,0,1,4.9-2.6,7.54,7.54,0,0,1,5.4,1.6,7.34,7.34,0,0,1,2.7,4.9,7.54,7.54,0,0,1-1.6,5.4l-49.2,60.5Z"/><path class="cls-1" d="M131.28,174.5l56.3-69.1a15,15,0,0,0,3.3-11,14.74,14.74,0,0,0-5.4-10.1,14.93,14.93,0,0,0-21,2.2l-14.1,17.3,5.9,4.8,14-17.3a7.34,7.34,0,0,1,13,3.8,7.54,7.54,0,0,1-1.6,5.4l-56.3,69.1Z"/><path class="cls-1" d="M8.78,254.4l39.3-48.2L59,157.6l31.8-39a14.82,14.82,0,0,1,2.2,7c.5,9.3-6.3,20.7-11.7,27.9l-4.4,5.4,5.8,5c.2-.3,2.1-2.3,4.5-5.6l51.9-63.7a7.34,7.34,0,0,1,13,3.8,7.54,7.54,0,0,1-1.6,5.4l-42.2,51.9,5.9,4.8,42.2-51.9a15,15,0,0,0,3.3-11,14.74,14.74,0,0,0-5.4-10.1,14.93,14.93,0,0,0-21,2.2l-33,40.2a25.72,25.72,0,0,0,.2-4.8,21.41,21.41,0,0,0-7.4-15.4l-3-2.6-38.3,47-10.9,48.6L2.78,249.5Z"/><path class="cls-1" d="M69.28,303.7l35-43a37.29,37.29,0,0,0,25.4-13.5l64.4-79.1a15,15,0,0,0-13.2-24.4,14.74,14.74,0,0,0-10.1,5.4l5.9,4.8a7.22,7.22,0,0,1,4.9-2.6,7.54,7.54,0,0,1,5.4,1.6,7.42,7.42,0,0,1,1.1,10.3l-64.4,79.1a29.31,29.31,0,0,1-21.5,10.8l-1.7.1-37.1,45.6Z"/><path class="cls-1" d="M172.08,235.8a14.73,14.73,0,0,0,5.4-1,14.3,14.3,0,0,0,8.3-7.7,14.62,14.62,0,0,0,.3-11.6l-10.5-27.7-7.1,2.7L179,218.3a7.07,7.07,0,0,1-.2,5.7,7,7,0,0,1-4.1,3.8,7.25,7.25,0,0,1-5.6-.1,7.46,7.46,0,0,1-3.9-4.1l-5.9-15.7-7.2,2.7,5.9,15.7a15,15,0,0,0,8,8.4A21.8,21.8,0,0,0,172.08,235.8Z"/><path class="cls-1" d="M196.88,238.2a14.36,14.36,0,0,0,5.4-1A15,15,0,0,0,211,218l-7.9-20.8-7.1,2.7,7.9,20.7a7.33,7.33,0,0,1-4.2,9.4,7.5,7.5,0,0,1-5.7-.1,7.11,7.11,0,0,1-3.8-4l-4-10.5-10.5-27.7-7.1,2.7,14.5,38.2a14.61,14.61,0,0,0,7.8,8.2A12.6,12.6,0,0,0,196.88,238.2Z"/><path class="cls-1" d="M219.48,145.7a21.92,21.92,0,0,0,7-1.2l3.8-1.3-21.6-56.6L172,52.9,151.78,0l-7.1,2.7,20.8,54.6L202.18,91l17.9,47c-9,.4-16-8.2-20.6-16.1l-6.6,3.9C200.48,138.8,209.68,145.7,219.48,145.7Z"/><path class="cls-1" d="M209.78,209.5a14.36,14.36,0,0,0,5.4-1,15,15,0,0,0,8.7-19.2l-25.5-64.9-7.1,2.8,25.5,64.7a7.33,7.33,0,0,1-4.2,9.4,7.5,7.5,0,0,1-5.7-.1,6.64,6.64,0,0,1-3.7-4l-11.3-29.4-7.1,2.7,11.1,29.4a15.3,15.3,0,0,0,13.9,9.6Z"/><path class="cls-1" d="M99.28,134.1l7.1-2.7-10.1-26.6a29.42,29.42,0,0,1,1.4-24.1l.8-1.5L77.58,24.3,70.48,27l19.7,51.7a36.94,36.94,0,0,0-1,28.8Z"/><path class="cls-1" d="M199.78,255l47.6-14.9,59.6,9.5,1.2-7.5-61.4-9.8-47.6,14.9-49.7-8c2.3-4.5,6.9-7.4,14-8.8l-1.5-7.5c-15.1,3.1-19.9,11.8-21.2,18.6l-.8,3.9Z"/><path class="cls-1" d="M307,170.7l1.2-7.5-42.3-6.8a37.05,37.05,0,0,0-24.4-15.2l-19.8-3.2-1.2,7.5,19.8,3.2a29.62,29.62,0,0,1,20.2,13.2l.9,1.4Z"/><path class="cls-2" d="M222.18,43.7A79.08,79.08,0,0,1,282,125.9a78.93,78.93,0,0,1-59.8-82.2"/><path class="cls-3" d="M284.38,129.2l.2-3.1a81.52,81.52,0,0,0-61.8-85l-3-.7-.2,3.1a81.52,81.52,0,0,0,61.8,85Zm-59.8-82.1a76.08,76.08,0,0,1,54.9,75.5A76.2,76.2,0,0,1,224.58,47.1Z"/><path class="cls-2" d="M50.68,74.7a79,79,0,0,1-46,90.7,79.14,79.14,0,0,1,46-90.7"/><path class="cls-3" d="M2.88,169l2.8-1.2a81.44,81.44,0,0,0,47.5-93.7l-.7-3-2.8,1.2A81.44,81.44,0,0,0,2.18,166Zm45.9-90.6a76.19,76.19,0,0,1-42.2,83.3A76.06,76.06,0,0,1,48.78,78.4Z"/><path class="cls-2" d="M222.48,279.3A79.2,79.2,0,0,1,122,295.1a79.24,79.24,0,0,1,100.5-15.8"/><path class="cls-3" d="M162.88,309.2a81.45,81.45,0,0,0,61.6-28.1l2-2.3-2.7-1.6A81.34,81.34,0,0,0,120,293.6l-2,2.3,2.7,1.6A83,83,0,0,0,162.88,309.2Zm55.5-29.2a76.11,76.11,0,0,1-92.3,14.5A76.27,76.27,0,0,1,218.38,280Z"/></g></g></svg>