<?xml version="1.0" encoding="UTF-8"?>
<svg id="Layer_1" data-name="Layer 1" xmlns="http://www.w3.org/2000/svg" width="245.7" height="276.8" viewBox="0 0 245.7 276.8">
  <path d="m133.4,276.8c-1.9,0-3.8-.3-5.7-.9l-87.4-29c-3.1-1-6.6-.8-9.5.7l-27.8,13.6-3-6,27.8-13.6c4.5-2.3,9.8-2.6,14.6-1.1l87.4,29c2.1.7,4.4.8,6.6.2l4.2-1.2c2.6-.7,5-1.9,7.1-3.5l88.2-65.5c2.5-1.9,3.7-5.1,2.9-8.1l-.9-3.4c-.6-2.4-2.8-4.2-5.3-4.2-.5,0-1,.1-1.4.4l-85.1,52.8-31.8-17.5,3.2-5.9,28.4,15.6,81.8-50.6c1.5-.9,3.2-1.4,5-1.4,5.6,0,10.5,3.8,11.8,9.2l.9,3.4c1.4,5.7-.7,11.7-5.4,15.2l-88.2,65.5c-2.8,2.1-5.9,3.6-9.3,4.5l-4.2,1.1c-1.6.5-3.3.7-4.9.7Z" fill="#1b4364" stroke-width="0"/>
  <path d="m115.8,219.9l-20.3-.7.2-6.7,20.2.7,50.1-.9c3-.1,5.5-2.4,5.7-5.4l.4-5.2c.2-2.6-1.6-4.9-4.2-5.2l-96.4-12.2c-2-.2-4-.1-5.8.6l-56.1,19.2-2.2-6.4,56.1-19.1c2.8-1,5.9-1.2,8.8-.9l96.4,12.2c6.1.8,10.5,6.3,10,12.4l-.4,5.2c-.6,6.4-5.9,11.3-12.3,11.4l-50.2,1Z" fill="#1b4364" stroke-width="0"/>
  <path d="m165.6,195.9l-2.5-6.2,37.4-14.9c2.8-1,5.8-1,8.6-.1,5.9,2.1,9.9,7.7,9.9,14v1.2h-6.7v-1.2c0-3.5-2.1-6.5-5.4-7.7-1.3-.5-2.7-.5-4,0l-37.3,14.9Z" fill="#1b4364" stroke-width="0"/>
  <g>
    <g>
      <path d="m126.4,141.3c-8.3-1.5-14.7-8.2-15.5-16.8v-.2l-.5-5.2,5.3.3c5.8.4,10.9,3.4,14.1,7.8,3.1-4.5,8.1-7.7,13.8-8.2l5.5-.7-.4,5.5c-.6,8.6-6.7,15.5-14.8,17.2l-2.4.3c-.9.1-1.9.1-2.8.1l-2.3-.1Z" fill="#1b4364" stroke-width="0"/>
      <path d="m126.9,136.5c.7-9.1,7.8-16.3,16.8-17.2l5.4-.6-.4,5.4c-.7,9.1-7.8,16.3-16.8,17.2l-5-4.8Z" fill="#1b4364" stroke-width="0"/>
      <path d="m128.4,141.4c-9.1-.7-16.3-7.7-17.3-16.7l-.6-5.4,5.4.4c9.1.7,16.3,7.7,17.3,16.7l-4.8,5Z" fill="#1b4364" stroke-width="0"/>
    </g>
    <g>
      <path d="m126.4,130.9v-.7c-8.3-1.5-14.7-8.2-15.5-16.8v-.2l-.5-5.2,5.3.4c5.9.4,11,3.4,14.2,7.8,3.1-4.5,8-7.7,13.8-8.2l5.5-.7-.4,5.5c-.6,8.6-6.7,15.5-14.8,17.2l.1.7-3.9-.2-3.8.4Z" fill="#1b4364" stroke-width="0"/>
      <path d="m126.4,130.8l.4-5.4c.7-9.1,7.8-16.3,16.8-17.2l5.4-.6-.4,5.4c-.7,9.1-7.8,16.3-16.8,17.2l-5.4.6Z" fill="#1b4364" stroke-width="0"/>
      <path d="m133.8,130.7l-5.4-.4c-9.1-.7-16.3-7.7-17.3-16.7l-.6-5.4,5.4.4c9.1.7,16.3,7.7,17.3,16.7l.6,5.4Z" fill="#1b4364" stroke-width="0"/>
    </g>
    <g>
      <path d="m126.4,118.5v-.7c-8.3-1.5-14.7-8.2-15.5-16.8v-.2l-.5-5.2,5.3.3c5.8.4,10.9,3.4,14.1,7.8,3.1-4.5,8-7.7,13.8-8.2l5.5-.7-.4,5.5c-.6,8.6-6.7,15.5-14.8,17.2l.1.7-4-.2-3.6.5Z" fill="#1b4364" stroke-width="0"/>
      <path d="m126.4,118.4l.4-5.4c.7-9.1,7.8-16.3,16.8-17.2l5.4-.6-.4,5.4c-.7,9.1-7.8,16.3-16.8,17.2l-5.4.6Z" fill="#1b4364" stroke-width="0"/>
      <path d="m133.8,118.3l-5.4-.4c-9.1-.7-16.3-7.7-17.3-16.7l-.6-5.4,5.4.4c9.1.7,16.3,7.7,17.3,16.7l.6,5.4Z" fill="#1b4364" stroke-width="0"/>
    </g>
    <path d="m129.9,114l-3.5-4.1c-5.9-6.9-6.1-17-.4-24.1l3.4-4.2,3.5,4.1c5.9,6.9,6.1,17,.4,24.1l-3.4,4.2Z" fill="#1b4364" stroke-width="0"/>
  </g>
  <g>
    <g>
      <path d="m128.9,137c-.7-7-6.4-12.5-13.4-13h-.1v.1c.7,7,6.4,12.5,13.5,12.9h0Zm-13.4-12.9c6.9.5,12.4,5.9,13.2,12.7-6.9-.4-12.4-5.8-13.2-12.7Zm28.7-.5c-7,.7-12.6,6.3-13.1,13.4v.1h.1c7.1-.8,12.6-6.4,13-13.5h0Zm-12.9,13.3c.5-6.9,5.9-12.4,12.8-13.1-.5,6.8-5.9,12.3-12.8,13.1Z" fill="#408d76" stroke-width="0"/>
      <path d="m144.2,123.7c-.5,6.9-5.9,12.4-12.8,13.1.5-6.8,5.9-12.4,12.8-13.1Z" fill="#408d76" stroke-width="0"/>
      <path d="m128.7,136.9c-6.9-.5-12.4-5.9-13.2-12.7,6.9.5,12.5,5.8,13.2,12.7Z" fill="#408d76" stroke-width="0"/>
    </g>
    <g>
      <path d="m128.9,125.9c-.7-7-6.4-12.5-13.4-13h-.1v.1c.7,7,6.4,12.5,13.5,12.9h0Zm-13.4-12.8c6.9.5,12.4,5.9,13.2,12.7-6.9-.5-12.4-5.8-13.2-12.7Zm28.7-.6c-7,.7-12.6,6.3-13.1,13.4v.1h.1c7.1-.7,12.6-6.4,13-13.5h0Zm-12.9,13.3c.5-6.9,5.9-12.4,12.8-13.1-.5,6.9-5.9,12.4-12.8,13.1Z" fill="#408d76" stroke-width="0"/>
      <path d="m144.2,112.7c-.5,6.9-5.9,12.4-12.8,13.1.5-6.9,5.9-12.4,12.8-13.1Z" fill="#408d76" stroke-width="0"/>
      <path d="m128.7,125.8c-6.9-.5-12.4-5.9-13.2-12.7,6.9.5,12.5,5.9,13.2,12.7Z" fill="#408d76" stroke-width="0"/>
    </g>
    <g>
      <path d="m128.9,113.5c-.7-7-6.4-12.5-13.4-13h-.1v.1c.7,7,6.4,12.5,13.5,12.9h0Zm-13.4-12.9c6.9.5,12.4,5.9,13.2,12.7-6.9-.4-12.4-5.8-13.2-12.7Zm28.7-.5c-7,.7-12.6,6.3-13.1,13.4v.1h.1c7.1-.8,12.6-6.4,13-13.5h0Zm-12.9,13.2c.5-6.9,5.9-12.4,12.8-13.1-.5,6.9-5.9,12.4-12.8,13.1Z" fill="#408d76" stroke-width="0"/>
      <path d="m144.2,100.2c-.5,6.9-5.9,12.4-12.8,13.1.5-6.8,5.9-12.4,12.8-13.1Z" fill="#408d76" stroke-width="0"/>
      <path d="m128.7,113.4c-6.9-.5-12.4-5.9-13.2-12.7,6.9.4,12.5,5.8,13.2,12.7Z" fill="#408d76" stroke-width="0"/>
    </g>
    <path d="m129.8,107c-4.5-5.2-4.6-12.9-.3-18.3,4.5,5.2,4.7,12.9.3,18.3Z" fill="#408d76" stroke-width="0"/>
  </g>
  <g>
    <path d="m130.6,167.1c-1.8,0-3.3-1.5-3.3-3.3s1.5-3.3,3.3-3.3c24.3,0,47.4-1.1,53.6-2.1,5.1-.8,6.1-2.5,6.5-7,.3-3.5-3.1-7.2-4.4-8.3-1.1-.9-1.5-2.4-1-3.8,0-.1,3.2-8.7,3.7-30.8.5-22.4-6.3-44.9-6.4-45.2-.5-1.8.5-3.6,2.2-4.2,1.8-.5,3.6.4,4.2,2.2.3,1,7.2,23.7,6.7,47.3-.4,17.5-2.4,27-3.5,30.9,2.1,2.3,5.6,6.9,5.1,12.4-.7,7.9-4.3,11.8-12.1,13-7.4,1.3-31.9,2.2-54.6,2.2Z" fill="#1b4364" stroke-width="0"/>
    <path d="m91.9,71.6h-8.9c-13.6,0-15.1-2.7-15.7-14v-.8c-.5-9.4-.1-16,3.6-19.7,1.7-1.8,4.1-2.7,6.9-2.6,2.1.1,12.2.3,25,.6,26.6.6,66.9,1.5,80.1,1.9h0c4,.1,7.5,2.8,8.8,6.6,1.4,4.3,2.1,13.4-.9,19.1-1.9,3-5,8.9-98.9,8.9Zm-14.6-30.5c-1,0-1.5.3-1.8.6-2.3,2.4-1.9,11.3-1.7,14.7v.8c.2,3.2.3,6.2.9,6.8.9.9,6.2.9,8.1.9h2.9c83.7.2,96.9-4.2,99-5.7,1.7-3.6,1.4-10.5.3-13.6-.4-1.2-1.4-1.9-2.6-2h0c-13.2-.4-53.4-1.3-80-1.9-13.3-.3-22.9-.5-25.1-.6q.1,0,0,0Z" fill="#1b4364" stroke-width="0"/>
    <path d="m130.6,167.1c-22.8,0-47.3-1-54.8-2.2-7.7-1.2-11.3-5.1-12-13-.5-5.4,2.9-10.1,5.1-12.4-1.1-3.9-3.1-13.5-3.5-30.9-.4-16.2,2.8-30.3,4.9-39.6.2-.9.4-1.8.6-2.6.4-1.8,2.2-2.9,4-2.5s2.9,2.2,2.5,4c-.2.8-.4,1.7-.6,2.6-2,9-5.1,22.7-4.8,38.1.5,22.1,3.7,30.7,3.7,30.8.5,1.3.1,2.8-1,3.8-1.3,1.1-4.7,4.8-4.4,8.3.4,4.9,1.7,6.3,6.4,7,6.3,1,29.3,2.1,53.7,2.1,1.8,0,3.3,1.5,3.3,3.3s-1.3,3.2-3.1,3.2Z" fill="#1b4364" stroke-width="0"/>
    <path d="m174.2,38.8c1.4,0,2.7.1,4,.3-14-7.6-35-17.9-46.3-17.9-9.6,0-23.4,5.2-33.2,9.6-5.9,2.6-11.5,5.4-16.2,7.9,1.7,0,3.4.2,5,.6h.1c2.5,0,4.9.4,7,1.1,2.5-1.3,5.2-2.5,7.9-3.7,12.8-5.7,23.2-8.8,29.3-8.8,7.1,0,21.1,6.1,33.7,12.5,2.8-1,5.8-1.6,8.7-1.6Z" fill="#1b4364" stroke-width="0"/>
  </g>
</svg>