<svg xmlns="http://www.w3.org/2000/svg" width="40.613" height="40.598" viewBox="0 0 40.613 40.598"><path d="M161.445,78.228A20.307,20.307,0,1,1,141.216,58,20.343,20.343,0,0,1,161.445,78.228Zm-2.372,0A17.935,17.935,0,1,0,141.216,96.24,17.9,17.9,0,0,0,159.073,78.228Z" transform="translate(-120.832 -57.999)" fill="#214570"/><path d="M138.813,72.32v9.673a3.565,3.565,0,1,1-7.13,0V72.32a3.565,3.565,0,1,1,7.13,0Zm-2.372,9.673V72.32a1.194,1.194,0,1,0-2.387,0v9.673a1.194,1.194,0,0,0,2.387,0Z" transform="translate(-114.863 -52.091)" fill="#214570"/><path d="M135.247,62.6a3.573,3.573,0,1,1-3.565,3.581A3.579,3.579,0,0,1,135.247,62.6Zm1.194,3.581a1.194,1.194,0,1,0-1.194,1.178A1.194,1.194,0,0,0,136.441,66.18Z" transform="translate(-114.863 -55.468)" fill="#214570"/><path d="M135.6,71.473v9.673a1.194,1.194,0,0,1-2.387,0V71.473a1.194,1.194,0,1,1,2.387,0Z" transform="translate(-114.022 -51.244)" fill="#0d8f75"/><path d="M134.406,64.139a1.186,1.186,0,1,1-1.194,1.194A1.194,1.194,0,0,1,134.406,64.139Z" transform="translate(-114.022 -54.621)" fill="#0d8f75"/></svg>