<svg xmlns="http://www.w3.org/2000/svg" width="33.866" height="36.637" viewBox="0 0 33.866 36.637"><g transform="translate(-145.549 -122.14)"><g transform="translate(159.537 128.029)"><path d="M154.447,125.886h5.89v6.953h-5.89Z" transform="translate(-154.447 -125.886)" fill="#0d8f75"/><path d="M154.915,130.309h4.417v23.8h-4.417Z" transform="translate(-154.179 -123.356)" fill="#0d8f75"/></g><path d="M177.942,127.293h-7.923a3.312,3.312,0,0,0-2.751-5.153h-2.21a3.293,3.293,0,0,0-2.577,1.256,3.291,3.291,0,0,0-2.577-1.256H157.7a3.312,3.312,0,0,0-2.751,5.153H147.02a1.471,1.471,0,0,0-1.471,1.473v2.944a1.473,1.473,0,0,0,1.471,1.473v25.594h30.922V133.183a1.473,1.473,0,0,0,1.473-1.473v-2.944A1.472,1.472,0,0,0,177.942,127.293Zm-14.723-1.841a1.841,1.841,0,0,1,1.839-1.841h2.21a1.841,1.841,0,0,1,0,3.682h-4.05Zm1.471,3.314v2.944h-4.417v-2.944Zm-6.994-5.155H159.9a1.841,1.841,0,0,1,1.841,1.841v1.841H157.7a1.841,1.841,0,1,1,0-3.682Zm-10.676,5.155H158.8v2.944H147.02Zm1.473,28.637v-24.22h11.043V157.4Zm12.516,0v-24.22h2.944V157.4Zm4.417,0v-24.22h11.043V157.4Zm12.515-25.693H166.163v-2.944h11.779Z" transform="translate(0 0)" fill="#214570"/></g></svg>