<svg xmlns="http://www.w3.org/2000/svg" viewBox="0 0 306.1 289.1"><defs><style>.cls-1{fill:#1b4364;}.cls-2{fill:#408d76;}.cls-3{fill:#29456d;}</style></defs><g id="Layer_2" data-name="Layer 2"><g id="Layer_1-2" data-name="Layer 1"><path class="cls-1" d="M130.3,219.6l44.8-44.9a16.41,16.41,0,0,0-11.6-28.1,16.81,16.81,0,0,0-10.5,3.7l-.3.3L107,196.2l5.9,5.9,45.5-45.4a8.45,8.45,0,0,1,5.1-1.7,8.07,8.07,0,0,1,8.1,8.1,8.38,8.38,0,0,1-2.4,5.7l-44.8,44.8Z"/><path class="cls-1" d="M64.4,289.1A77.57,77.57,0,0,0,119.5,266l54.4-55.4a16.39,16.39,0,0,0,4-16.7,16.63,16.63,0,0,0-13.5-11.2,16.09,16.09,0,0,0-12.7,3.7,5.69,5.69,0,0,0-1.2,1.1l-26.1,26.1,5.9,5.9L156.8,193a.31.31,0,0,0,.2-.1,8.23,8.23,0,0,1,13,3.6,8,8,0,0,1-2,8.3l-54.4,55.4a69.36,69.36,0,0,1-49.1,20.6l-.1,8.3Z"/><path class="cls-1" d="M113,202.2l45.7-45.6L172,143.2a16.26,16.26,0,0,0,4.8-11.6,16.52,16.52,0,0,0-16.5-16.5,16,16,0,0,0-11.7,4.9L89.7,179l5.9,5.9,58.9-59a7.63,7.63,0,0,1,5.7-2.4,8.07,8.07,0,0,1,8.1,8.1,8.38,8.38,0,0,1-2.4,5.7l-13.3,13.4-45.7,45.6Z"/><path class="cls-1" d="M6,251.1l6.2-6.2a46,46,0,0,0,13.5-32.4,157.59,157.59,0,0,1,.9-16.8l6.2-55.9,2,.2a14.13,14.13,0,0,1,9.5,5.3,13.43,13.43,0,0,1,3,10.4l-2.1,19.1a10.35,10.35,0,0,0,17.6,8.5L120,126.1a7.63,7.63,0,0,1,5.7-2.4,8.07,8.07,0,0,1,8.1,8.1,7.26,7.26,0,0,1-2.4,5.6L89.7,179.2l5.9,5.9,41.6-41.7a16.09,16.09,0,0,0,4.8-11.6,16.52,16.52,0,0,0-16.5-16.5,15.63,15.63,0,0,0-11.6,4.9L56.7,177.4a1.93,1.93,0,0,1-3.3-1.6l2.1-19.1a22.13,22.13,0,0,0-4.8-16.6,22.36,22.36,0,0,0-15.1-8.3l-10.3-1.1L18.2,195a173,173,0,0,0-1,17.6,37.89,37.89,0,0,1-11,26.5L0,245.3Z"/><rect class="cls-1" x="90.98" y="85.16" width="119.3" height="8.4" transform="translate(-19.07 132.68) rotate(-45)"/><rect class="cls-1" x="131.89" y="109.04" width="58.9" height="8.4" transform="translate(-32.84 147.12) rotate(-44.96)"/><rect class="cls-1" x="144.4" y="128.43" width="64.6" height="8.4" transform="translate(-42 163.95) rotate(-45.04)"/><rect class="cls-1" x="162.73" y="145.29" width="63.4" height="8.4" transform="translate(-48.76 181.27) rotate(-45)"/><path class="cls-1" d="M199.2,178.4a16.84,16.84,0,0,0,11.7-4.8l55.4-54.4a77.92,77.92,0,0,0,23.1-55.1H281a69.36,69.36,0,0,1-20.6,49.1L205,167.6a8.08,8.08,0,0,1-12-10.8c.2-.2.2-.3.3-.4l.2-.2,26.3-26.1-5.9-5.9-26.1,26.1c-.5.5-.9,1-1.2,1.3a16.45,16.45,0,0,0,7.6,26.1A16.79,16.79,0,0,0,199.2,178.4Z"/><rect class="cls-1" x="111.01" y="117.71" width="83.4" height="8.4" transform="translate(-41.49 143.58) rotate(-44.97)"/><polygon class="cls-1" points="143.4 171.7 156.8 158.4 202.4 112.7 196.5 106.8 150.9 152.5 137.5 165.8 143.4 171.7"/><path class="cls-1" d="M227.4,71.8a38.15,38.15,0,0,0,27.1-11.2l-5.9-5.9a30.06,30.06,0,0,1-42.3,0L194.4,42.8,156,47.1a13.84,13.84,0,0,1-10.4-3,14.13,14.13,0,0,1-5.3-9.5l-.2-1.9L196,26.5a154.34,154.34,0,0,1,16.7-.9,46.45,46.45,0,0,0,32.5-13.5l6.2-6.2L245.5,0l-6.2,6.2a37.28,37.28,0,0,1-26.6,11,171.42,171.42,0,0,0-17.6.9l-64.3,7.2,1.1,10.3a22.53,22.53,0,0,0,8.3,15.1,22.13,22.13,0,0,0,16.6,4.8l34.4-3.8,9.1,9.1A38.8,38.8,0,0,0,227.4,71.8Z"/><path class="cls-2" d="M203.9,198.5a76.34,76.34,0,0,1,98.2.9,76.46,76.46,0,0,1-98.2-.9"/><path class="cls-3" d="M253.6,219.4a78.45,78.45,0,0,0,50.2-18.1l2.3-1.9-2.3-1.9a78.52,78.52,0,0,0-101.4-.9l-2.3,1.9,2.3,1.9A78,78,0,0,0,253.6,219.4Zm44.5-20.1a73.55,73.55,0,0,1-90.2-.8A73.69,73.69,0,0,1,298.1,199.3Z"/><path class="cls-2" d="M100.2,116.8A76.29,76.29,0,0,1,79.3,20.9a76.29,76.29,0,0,1,20.9,95.9"/><path class="cls-3" d="M101.1,120.6l1.4-2.6A78.62,78.62,0,0,0,80.9,18.9l-2.4-1.8-1.4,2.7a78.62,78.62,0,0,0,21.6,99.1ZM80.2,24.8a73.46,73.46,0,0,1,19.2,88.1A73.46,73.46,0,0,1,80.2,24.8Z"/></g></g></svg>