<svg id="Layer_1" data-name="Layer 1" xmlns="http://www.w3.org/2000/svg" width="45.633" height="28.316" viewBox="0 0 45.633 28.316">
  <path id="Path_15258" data-name="Path 15258" d="M21.091,12.3a2.9,2.9,0,0,0-1.941-.6,2.784,2.784,0,0,0-2.609,1.288,6.936,6.936,0,0,0-.748,3.531,10.244,10.244,0,0,0,.334,2.529,2.768,2.768,0,0,0,2.959,2.275,2.736,2.736,0,0,0,2.577-1.3,7.349,7.349,0,0,0,.716-3.627,9.815,9.815,0,0,0-.255-2.45A2.991,2.991,0,0,0,21.091,12.3Zm-3.277,2.338a2.02,2.02,0,0,1,.445-1.034,1.1,1.1,0,0,1,.859-.334,1.034,1.034,0,0,1,.811.318,1.941,1.941,0,0,1,.382,1,11.835,11.835,0,0,1,.111,1.877,12.726,12.726,0,0,1-.111,1.941,2.132,2.132,0,0,1-.429,1.05.97.97,0,0,1-.827.318,1.018,1.018,0,0,1-.827-.318,2.132,2.132,0,0,1-.43-1.05,11.836,11.836,0,0,1-.08-1.877A11.9,11.9,0,0,1,17.814,14.637Z" transform="translate(9.324 6.901)" fill="#0e8f75"/>
  <path id="Path_15259" data-name="Path 15259" d="M25.731,12.349a2.9,2.9,0,0,0-1.941-.6,2.784,2.784,0,0,0-2.609,1.288,6.983,6.983,0,0,0-.748,3.531,10.483,10.483,0,0,0,.27,2.545,2.768,2.768,0,0,0,2.959,2.259,2.736,2.736,0,0,0,2.577-1.257,7.349,7.349,0,0,0,.716-3.627,10.626,10.626,0,0,0-.255-2.45A2.991,2.991,0,0,0,25.731,12.349Zm-1.209,7.158a.97.97,0,0,1-.827.318,1.018,1.018,0,0,1-.827-.318,2.132,2.132,0,0,1-.43-1.05,11.836,11.836,0,0,1-.111-1.877,11.9,11.9,0,0,1,.127-1.893,2.02,2.02,0,0,1,.445-1.034,1.233,1.233,0,0,1,1.67-.016,1.941,1.941,0,0,1,.382,1,11.835,11.835,0,0,1,.111,1.877,12.868,12.868,0,0,1-.111,2,2.132,2.132,0,0,1-.429.986Z" transform="translate(12.065 6.931)" fill="#0e8f75"/>
  <path id="Path_15260" data-name="Path 15260" d="M28.326,15.079a3.181,3.181,0,0,0-1.3.286l-.207.1.191-1.925a.127.127,0,0,1,0-.08.191.191,0,0,1,.127,0h3.054a.859.859,0,0,0,.589-.3.732.732,0,0,0,.191-.589.811.811,0,0,0-.8-.716H26.386a.811.811,0,0,0-.477.159.875.875,0,0,0-.318.668L25.3,16.654a.716.716,0,0,0,1.288.589,1.845,1.845,0,0,1,1.3-.589,1.3,1.3,0,0,1,.923.318,1.479,1.479,0,0,1,.334,1.1,1.7,1.7,0,0,1-.414,1.273,1.368,1.368,0,0,1-1,.414,1.257,1.257,0,0,1-.923-.286,1.448,1.448,0,0,1-.4-.843.843.843,0,0,0-.907-.636.779.779,0,0,0-.557.3.859.859,0,0,0-.191.668,2.5,2.5,0,0,0,1,1.782,3.4,3.4,0,0,0,1.941.573,3.516,3.516,0,0,0,1.718-.414,2.816,2.816,0,0,0,1.161-1.161A3.563,3.563,0,0,0,31,18.022a2.927,2.927,0,0,0-.748-2.211A2.561,2.561,0,0,0,28.326,15.079Z" transform="translate(14.624 7)" fill="#0e8f75"/>
  <path id="Path_15261" data-name="Path 15261" d="M13.7,13.407h3.166a.891.891,0,0,0,.6-.3.8.8,0,0,0,.191-.589.827.827,0,0,0-.811-.716H12.97a.764.764,0,0,0-.461.159.907.907,0,0,0-.334.668l-.286,3.865V16.6a.716.716,0,0,0,1.3.573,1.877,1.877,0,0,1,1.3-.573,1.3,1.3,0,0,1,.923.318,1.463,1.463,0,0,1,.334,1.1,1.766,1.766,0,0,1-.414,1.273,1.384,1.384,0,0,1-1.018.414,1.289,1.289,0,0,1-.923-.286,1.384,1.384,0,0,1-.382-.939.843.843,0,0,0-.923-.62.779.779,0,0,0-.557.318.859.859,0,0,0-.175.652,2.529,2.529,0,0,0,1.018,1.845,3.42,3.42,0,0,0,1.957.573,3.563,3.563,0,0,0,1.718-.414,2.911,2.911,0,0,0,1.161-1.161,3.563,3.563,0,0,0,.4-1.718,2.927,2.927,0,0,0-.748-2.211,2.561,2.561,0,0,0-1.861-.716,2.975,2.975,0,0,0-1.3.286l-.191.1.175-1.925a.239.239,0,0,1,.016-.08Z" transform="translate(6.708 6.971)" fill="#0e8f75"/>
  <path id="Path_15262" data-name="Path 15262" d="M29.223,1.35a1.591,1.591,0,0,1-.986,1.511l-9.019,8.431a8.431,8.431,0,0,1-2.084,2,7.015,7.015,0,0,1-2.116.97,7.333,7.333,0,0,1-2.434-1.034A9.083,9.083,0,0,1,10.054,10.8l-8-7.954c-.255-.382-.7-1.161-.493-1.591S2.737.745,3.055.761c1.782.1,11.135,0,24.306,0a1.288,1.288,0,0,1,1.861.589Z" transform="translate(0.89 0.336)" fill="#0e8f75"/>
  <path id="Path_15263" data-name="Path 15263" d="M28.9,0H3.181A3.181,3.181,0,0,0,0,3.181V23.288A3.181,3.181,0,0,0,3.181,26.47h10.26a.827.827,0,0,0,.732-.827.859.859,0,0,0-.732-.827H3.022L11.74,18.23a.779.779,0,0,0,.143-1.114.8.8,0,0,0-1.114-.159L1.734,23.8a2.036,2.036,0,0,1-.143-.509V3.181a1.734,1.734,0,0,1,.08-.414L12.153,13.9a4.884,4.884,0,0,0,3.484,1.591h0a4.9,4.9,0,0,0,3.42-1.5L30.192,2.863a1.241,1.241,0,0,1,0,.35V15.939a.827.827,0,0,0,1.591,0V3.181A3.181,3.181,0,0,0,28.9,0ZM18.055,12.805a3.516,3.516,0,0,1-2.338,1.034,3.325,3.325,0,0,1-2.338-1.114L2.943,1.686l.239-.1h25.77a1.432,1.432,0,0,1,.255,0Z" transform="translate(0 0)" fill="#224671"/>
</svg>
