<?xml version="1.0" encoding="UTF-8"?>
<svg id="Layer_1" data-name="Layer 1" xmlns="http://www.w3.org/2000/svg" width="108.72mm" height="109.08mm" viewBox="0 0 308.18 309.2">
  <path d="M267.47,200.69c-5.61,0-10.82-2.78-13.94-7.44l-.93-1.38-13.57-20.4c-1.25-1.89-.74-4.44,1.14-5.69,1.89-1.25,4.44-.74,5.69,1.14l14.48,21.74c1.61,2.39,4.27,3.81,7.13,3.81,4.69,0,8.51-3.82,8.51-8.51,0-1.7-.49-3.32-1.42-4.67l-40.75-63.25c-2.33-3.62-2.51-8.23-.46-12.03,2.09-3.81,6.06-6.16,10.37-6.16h142.67c2.27,0,4.11,1.84,4.11,4.11s-1.84,4.11-4.11,4.11H243.72c-1.31,0-2.52,.72-3.16,1.87-.62,1.14-.57,2.56,.15,3.66l40.69,63.15c1.81,2.63,2.8,5.85,2.8,9.22,0,9.22-7.5,16.72-16.72,16.72Z" fill="#05507a"/>
  <path d="M245.53,213.28c-5.65,0-10.87-2.79-13.96-7.46l-17.4-26.1c-1.26-1.89-.75-4.44,1.14-5.69,1.89-1.26,4.43-.75,5.69,1.14l17.41,26.11c1.57,2.38,4.23,3.79,7.11,3.79,4.69,0,8.51-3.82,8.51-8.51,0-1.63-.51-3.27-1.48-4.76l-13.53-20.34c-1.25-1.89-.74-4.44,1.14-5.69,1.89-1.25,4.44-.74,5.69,1.14l13.56,20.37c1.86,2.86,2.83,6.05,2.83,9.27,0,9.22-7.5,16.72-16.72,16.72Z" fill="#05507a"/>
  <path d="M215.19,213.32c-5.7,0-10.9-2.81-13.92-7.5l-11.88-17.78c-1.27-1.88-.77-4.43,1.11-5.7,1.88-1.27,4.44-.77,5.7,1.11l11.94,17.87c1.54,2.39,4.16,3.79,7.05,3.79,4.69,0,8.51-3.82,8.51-8.51,0-1.55-.41-3.05-1.18-4.32-.08-.14-.16-.28-.22-.43h0l-8.06-12.11c-1.26-1.89-.75-4.44,1.14-5.69,1.89-1.26,4.44-.75,5.69,1.14l8.08,12.12c.04,.06,.07,.11,.11,.17,.13,.2,.31,.48,.48,.84,1.43,2.49,2.19,5.34,2.19,8.28,0,9.22-7.5,16.72-16.72,16.72Zm6.91-21.98h0Z" fill="#05507a"/>
  <path d="M184.84,213.28c-5.59,0-10.78-2.78-13.89-7.45l-21-31.47c-1.26-1.89-.75-4.44,1.14-5.69,1.89-1.26,4.44-.75,5.69,1.14l21,31.47c1.58,2.38,4.22,3.79,7.06,3.79,4.69,0,8.51-3.82,8.51-8.51,0-1.68-.49-3.33-1.42-4.76l-2.56-3.8c-1.27-1.88-.77-4.43,1.11-5.7,1.88-1.27,4.43-.77,5.7,1.11l2.59,3.85c1.83,2.82,2.78,6.01,2.78,9.29,0,9.22-7.5,16.72-16.72,16.72Z" fill="#05507a"/>
  <path d="M311.55,188.06c-.64,0-1.3-.07-1.94-.21l-31.54-7c-3.22-.72-4.97-3.04-3.9-5.19,1.07-2.15,4.55-3.31,7.78-2.6l31.54,7c3.22,.72,4.97,3.04,3.9,5.19-.86,1.72-3.26,2.81-5.84,2.81Z" fill="#05507a"/>
  <path d="M101.08,213.3c-9.22,0-16.72-7.5-16.72-16.72,0-2.33,.48-4.61,1.42-6.77l30.9-69.47c2.68-6.04,8.68-9.94,15.26-9.94,9.22,0,16.72,7.5,16.72,16.72,0,2.33-.48,4.61-1.43,6.77v.02l-30.89,69.45c-2.68,6.04-8.68,9.94-15.26,9.94Zm30.86-94.7c-3.35,0-6.39,1.99-7.76,5.07l-30.88,69.45c-.48,1.09-.73,2.27-.73,3.46,0,4.69,3.82,8.51,8.51,8.51,3.35,0,6.39-1.99,7.76-5.07l30.88-69.44c.49-1.11,.73-2.28,.73-3.47,0-4.69-3.82-8.51-8.51-8.51Zm11.53,13.63h0Z" fill="#05507a"/>
  <path d="M73.48,213.3c-9.22,0-16.72-7.5-16.72-16.72,0-2.33,.48-4.61,1.42-6.77l30.89-69.47c2.68-6.04,8.68-9.94,15.26-9.94,9.22,0,16.72,7.5,16.72,16.72,0,2.34-.48,4.61-1.42,6.77v.02l-30.89,69.45c-2.68,6.04-8.68,9.94-15.26,9.94Zm30.86-94.7c-3.35,0-6.39,1.99-7.76,5.07l-30.88,69.45c-.48,1.1-.73,2.27-.73,3.46,0,4.69,3.82,8.51,8.51,8.51,3.35,0,6.39-1.99,7.76-5.07l30.88-69.44c.48-1.11,.73-2.28,.73-3.47,0-4.69-3.82-8.51-8.51-8.51Zm11.53,13.63h0Z" fill="#05507a"/>
  <path d="M51.38,200.69c-9.22,0-16.72-7.5-16.72-16.72,0-2.33,.48-4.61,1.42-6.77l16.83-37.82c2.68-6.04,8.68-9.94,15.26-9.94,9.22,0,16.72,7.5,16.72,16.72,0,2.34-.48,4.61-1.42,6.77l-16.83,37.82c-2.68,6.04-8.68,9.94-15.26,9.94Zm16.8-63.05c-3.35,0-6.39,1.99-7.76,5.07l-16.82,37.8c-.48,1.09-.73,2.27-.73,3.46,0,4.69,3.82,8.51,8.51,8.51,3.35,0,6.39-1.99,7.76-5.07l16.82-37.8c.48-1.09,.73-2.26,.73-3.46,0-4.69-3.82-8.51-8.51-8.51Z" fill="#05507a"/>
  <path d="M90.83,99.75c-9.22,0-16.72-7.5-16.72-16.72,0-2.33,.48-4.61,1.42-6.77l5.61-12.63c2.69-6.04,8.68-9.94,15.27-9.94,9.22,0,16.72,7.5,16.72,16.72v.02c0,2.33-.48,4.61-1.42,6.77l-5.61,12.62c-2.68,6.04-8.68,9.94-15.26,9.94Zm5.58-37.86c-3.35,0-6.39,1.99-7.76,5.07l-5.6,12.61c-.48,1.1-.73,2.27-.73,3.46,0,4.69,3.82,8.51,8.51,8.51,3.35,0,6.39-1.99,7.76-5.07l5.6-12.59c.48-1.09,.73-2.27,.73-3.46v-.02c0-4.69-3.82-8.51-8.51-8.51Z" fill="#05507a"/>
  <g>
    <path d="M261.17,106.05c-1.25,0-2.48-.57-3.29-1.64l-11.35-15.15c-3.98-5.29-10.31-8.45-16.91-8.45H107.41c-2.27,0-4.11-1.84-4.11-4.11s1.84-4.11,4.11-4.11h122.2c9.18,0,17.95,4.39,23.48,11.74l11.36,15.15c1.36,1.81,.99,4.39-.82,5.75-.74,.55-1.6,.82-2.46,.82Z" fill="#05507a"/>
    <path d="M79.81,80.81H-21.83c-2.27,0-4.11-1.84-4.11-4.11s1.84-4.11,4.11-4.11H79.81c2.27,0,4.11,1.84,4.11,4.11s-1.84,4.11-4.11,4.11Z" fill="#05507a"/>
  </g>
  <path d="M-15.53,181.75c-2.01,0-3.77-1.48-4.06-3.53-.32-2.24,1.24-4.32,3.49-4.64l58.02-4.79c2.25-.3,4.32,1.24,4.64,3.49,.32,2.25-1.24,4.32-3.49,4.65l-58.02,4.79c-.2,.03-.39,.04-.58,.04Z" fill="#05507a"/>
  <path d="M131.16,213.3h-2.5c-9.22,0-16.72-7.5-16.72-16.72,0-2.33,.48-4.61,1.42-6.77l25.28-56.8c2.68-6.04,8.68-9.94,15.26-9.94,9.22,0,16.72,7.5,16.72,16.72,0,2.33-.48,4.61-1.42,6.77l-20.13,45.25c-.92,2.07-3.35,3-5.42,2.08-2.07-.92-3-3.35-2.08-5.42l20.12-45.23c.48-1.09,.73-2.26,.73-3.46,0-4.69-3.82-8.51-8.51-8.51-3.35,0-6.39,1.99-7.76,5.07l-25.27,56.78c-.48,1.09-.73,2.27-.73,3.46,0,4.69,3.82,8.51,8.51,8.51h2.5c13.42,0,24.14-5.45,31-15.75,1.25-1.89,3.8-2.4,5.69-1.14,1.89,1.26,2.4,3.81,1.14,5.69-8.34,12.52-21.78,19.41-37.84,19.41Z" fill="#05507a"/>
  <path d="M148.71,293.56c23.37-14.52,32.93-43.72,22.68-69.25-23.37,14.51-32.94,43.72-22.68,69.25" fill="#408d76"/>
  <path d="M172.49,220.86l1.05,2.59c10.77,26.59,.79,57.07-23.62,72.13l-2.38,1.47-1.05-2.59c-10.76-26.58-.79-57.04,23.6-72.11l2.4-1.49Zm-22.62,69.12c19.91-13.81,28.2-39.17,20.32-62.08-19.91,13.81-28.2,39.17-20.32,62.08Z" fill="#29456d"/>
  <path d="M121.14,231.58c16.2,6.49,34.73,.43,43.95-14.38-16.2-6.52-34.74-.45-43.95,14.38" fill="#408d76"/>
  <path d="M167.71,216.33l-1.12,1.8c-9.64,15.61-29.13,21.99-46.13,15.1l-1.97-.79,1.12-1.8c9.64-15.61,29.13-21.99,46.13-15.1l1.97,.79Zm-43.84,14.35c14.2,4.73,29.82-.39,38.47-12.59-14.2-4.73-29.82,.39-38.47,12.59Z" fill="#29456d"/>
</svg>