<svg xmlns="http://www.w3.org/2000/svg" width="299.675" height="36.272" viewBox="0 0 299.675 36.272"><defs><style>.a{fill:#fff;}</style></defs><g transform="translate(-689.999 -3136)"><g transform="translate(-14063.199 -2330.713)"><g transform="translate(15035.761 5467.938)"><path class="a" d="M1612.848,121.262q.066-.47.3-.47a1.609,1.609,0,0,1,.688.318l2.852,2.081a.984.984,0,0,0,.436.168.372.372,0,0,0,.369-.369.676.676,0,0,0-.2-.4l-2.332-2.651a1.456,1.456,0,0,1-.353-.671.272.272,0,0,1,.109-.252.863.863,0,0,1,.411-.067l1.744.168v-.083a6.478,6.478,0,0,0-.637-2.433,23.334,23.334,0,0,0-1.543-2.869q-.57-.939-.948-1.459t-1.166-1.426q-.47-.537-.7-.822-.4-.469-.47-.553-.436-.487-.436-.688a.3.3,0,0,1,.118-.235.4.4,0,0,1,.268-.1.654.654,0,0,1,.336.135l.285.184.453.319a19.169,19.169,0,0,1,1.846,1.543,22.5,22.5,0,0,1,2.114,2.131,23.352,23.352,0,0,1,1.745,2.232q.587.906.947,1.593t.881,1.93l.252.587,2.382-.353a2.9,2.9,0,0,1,.4-.034.326.326,0,0,1,.369.369,1.136,1.136,0,0,1-.269.6l-2.08,2.986a1.1,1.1,0,0,0-.2.436.335.335,0,0,0,.126.261.414.414,0,0,0,.277.109.988.988,0,0,0,.537-.268l2.751-2.349a.991.991,0,0,1,.571-.319.372.372,0,0,1,.31.176.931.931,0,0,1,.142.495v2.148q2.215,1.056,2.215,1.879a1.35,1.35,0,0,1-.612.956,5.324,5.324,0,0,1-1.6.856v1.929a2.017,2.017,0,0,1-.125.7.338.338,0,0,1-.327.177,1.226,1.226,0,0,1-.671-.336l-2.483-2.147a1.588,1.588,0,0,0-.721-.436.359.359,0,0,0-.268.125.418.418,0,0,0-.117.294,1.171,1.171,0,0,0,.285.621l2.147,2.919a1.092,1.092,0,0,1,.218.52c0,.258-.14.386-.419.386a2.184,2.184,0,0,1-.219-.016l-2.483-.469a14.494,14.494,0,0,1-1.393,3,24.237,24.237,0,0,1-3.909,4.883,28.128,28.128,0,0,1-2.257,1.946,3.376,3.376,0,0,1-1.334.772.3.3,0,0,1-.218-.1.291.291,0,0,1-.1-.2.763.763,0,0,1,.235-.453l.6-.671.688-.788a21.472,21.472,0,0,0,1.778-2.315,20.762,20.762,0,0,0,1.476-2.517,9.087,9.087,0,0,0,1.124-3.573l-1.694.218a2.771,2.771,0,0,1-.369.034q-.369,0-.369-.336a.826.826,0,0,1,.168-.436l2.366-2.651a1.319,1.319,0,0,0,.386-.671q0-.353-.369-.353a1.191,1.191,0,0,0-.588.185L1613.7,129.5a1.165,1.165,0,0,1-.52.268q-.286,0-.335-.705v-1.979a6.854,6.854,0,0,1-1.669-.948,1.277,1.277,0,0,1-.546-.948,1.054,1.054,0,0,1,.2-.5,1.915,1.915,0,0,1,.47-.52,4.828,4.828,0,0,1,1.544-.822Zm1.963,2.768h1.493l.05-.084-2.617-1.929v1.947a5.7,5.7,0,0,0-1.527.562q-.688.377-.688.679,0,.252.621.6a7.352,7.352,0,0,0,1.594.612v1.947l2.685-1.979-.084-.067h-1.527v-.705a2.314,2.314,0,0,1-1.141-.4,2.293,2.293,0,0,1,1.141-.452v-.722Zm3.171,4.379-2.1,2.164.1.084,2.215-.4c-.022.112-.039.2-.05.252l-.084.436a14.878,14.878,0,0,1-.956,2.8q-.051.118-.168.369l.017,1.745a6.536,6.536,0,0,0,.7-.906,13.626,13.626,0,0,0,.814-1.393,14.93,14.93,0,0,0,1.275-3.254l2.382.52-1.762-2.567-.034.034v1.09h-.822l-.654,1.141h-.084v-1.141h-.788Zm.822-7.4v-1.157h.084l.654,1.157h.822v1.107h.118l1.678-2.584-2.4.554-.033-.168a14.415,14.415,0,0,0-1.149-2.953,11.011,11.011,0,0,0-1.585-2.45l.017,1.829a18.551,18.551,0,0,1,1.258,3.809l-2.231-.4-.1.067,2.08,2.214V121.01h.789Zm-1.476,4.127a1.709,1.709,0,0,0,.528,1.25,1.791,1.791,0,1,0-.008-2.534A1.762,1.762,0,0,0,1617.327,125.137Zm6.241,1.242h-1.594v.05l2.668,1.947v-1.947a6.471,6.471,0,0,0,1.585-.6q.646-.361.646-.663,0-.47-2.231-1.208v-1.98l-2.668,2.047v.067h1.594v.7a2.188,2.188,0,0,1,1.091.4,2.867,2.867,0,0,1-1.091.4Z" transform="translate(-1610.633 -108.444)"/></g><g transform="translate(14753.198 5467.556)"><path class="a" d="M50.528,121.215a4.83,4.83,0,0,1,1.544.822,1.925,1.925,0,0,1,.47.52,1.053,1.053,0,0,1,.2.5,1.277,1.277,0,0,1-.545.948,6.87,6.87,0,0,1-1.669.948v1.979q-.05.705-.335.705a1.165,1.165,0,0,1-.52-.268L46.8,125.157a1.188,1.188,0,0,0-.587-.185q-.368,0-.369.353a1.32,1.32,0,0,0,.386.671l2.366,2.651a.828.828,0,0,1,.168.436q0,.337-.369.336a2.773,2.773,0,0,1-.369-.034l-1.695-.218a9.09,9.09,0,0,0,1.124,3.573,20.761,20.761,0,0,0,1.476,2.516,21.52,21.52,0,0,0,1.778,2.315l.688.788.6.671a.763.763,0,0,1,.235.453.291.291,0,0,1-.1.2.3.3,0,0,1-.218.1,3.381,3.381,0,0,1-1.334-.772,28.163,28.163,0,0,1-2.257-1.946,24.237,24.237,0,0,1-3.909-4.883,14.476,14.476,0,0,1-1.393-3l-2.483.469a2.18,2.18,0,0,1-.218.016q-.419,0-.419-.386a1.094,1.094,0,0,1,.218-.52l2.148-2.919a1.169,1.169,0,0,0,.285-.621.416.416,0,0,0-.117-.294.36.36,0,0,0-.269-.125,1.589,1.589,0,0,0-.722.436l-2.483,2.147a1.227,1.227,0,0,1-.671.336.337.337,0,0,1-.327-.177,2.011,2.011,0,0,1-.126-.7v-1.929a5.322,5.322,0,0,1-1.6-.856,1.348,1.348,0,0,1-.612-.956q0-.823,2.215-1.879v-2.148a.933.933,0,0,1,.142-.495.372.372,0,0,1,.31-.176.991.991,0,0,1,.571.319l2.751,2.349a.986.986,0,0,0,.537.268.414.414,0,0,0,.277-.109.335.335,0,0,0,.126-.261,1.1,1.1,0,0,0-.2-.436l-2.08-2.986a1.135,1.135,0,0,1-.269-.6.326.326,0,0,1,.369-.369,2.9,2.9,0,0,1,.4.034l2.382.353.252-.587q.52-1.242.881-1.93t.948-1.593a23.265,23.265,0,0,1,1.745-2.231A22.5,22.5,0,0,1,49.1,108.5a19.182,19.182,0,0,1,1.846-1.543l.453-.319.285-.184a.654.654,0,0,1,.335-.135.4.4,0,0,1,.269.1.3.3,0,0,1,.118.235q0,.2-.436.688-.067.084-.47.553-.235.286-.7.822-.789.906-1.166,1.426t-.948,1.459a23.314,23.314,0,0,0-1.544,2.869A6.475,6.475,0,0,0,46.5,116.9v.083l1.745-.168a.864.864,0,0,1,.411.067.272.272,0,0,1,.109.252,1.453,1.453,0,0,1-.352.671l-2.332,2.651a.677.677,0,0,0-.2.4.372.372,0,0,0,.369.369.982.982,0,0,0,.436-.168l2.853-2.081a1.6,1.6,0,0,1,.688-.318q.235,0,.3.469v2.081ZM39.808,123.48a2.866,2.866,0,0,1-1.091-.4,2.186,2.186,0,0,1,1.091-.4v-.7H41.4V121.9l-2.668-2.047v1.98q-2.231.738-2.231,1.208,0,.3.646.662a6.465,6.465,0,0,0,1.585.6v1.947L41.4,124.3v-.05H39.808v-.772Zm5.553-4.6v1.023l2.081-2.214-.1-.067-2.231.4a18.517,18.517,0,0,1,1.259-3.809l.017-1.829a11.007,11.007,0,0,0-1.585,2.45,14.45,14.45,0,0,0-1.15,2.953l-.033.168-2.4-.554,1.678,2.584h.118v-1.107h.822l.654-1.157h.084v1.157h.789Zm.033,8.372h-.788v1.141h-.084l-.654-1.141h-.822v-1.09l-.034-.034L41.251,128.7l2.382-.52a14.959,14.959,0,0,0,1.275,3.254,13.618,13.618,0,0,0,.814,1.393,6.548,6.548,0,0,0,.7.906l.017-1.745q-.118-.252-.168-.369a14.867,14.867,0,0,1-.956-2.8l-.084-.436-.051-.252,2.215.4.1-.084-2.1-2.164Zm.134-5.528a1.793,1.793,0,1,0,.52,1.283A1.764,1.764,0,0,0,45.529,121.726Zm3.037.9a2.3,2.3,0,0,1,1.141.452,2.315,2.315,0,0,1-1.141.4v.705H47.039l-.084.067,2.684,1.979v-1.947a7.356,7.356,0,0,0,1.594-.612q.621-.344.621-.6,0-.3-.688-.679a5.687,5.687,0,0,0-1.527-.562v-1.947l-2.617,1.929.05.084h1.493Z" transform="translate(-35.63 -106.316)"/></g><path class="a" d="M384.387,174.659h-.392a6.8,6.8,0,0,0-1.735-.751c-.228.066-.2.327-.261.491a4.722,4.722,0,0,0-.751,1.047c-.032.131-.131.327,0,.425a18.97,18.97,0,0,0,1.865.849,7.081,7.081,0,0,0,1.274-1.505l.1-.033a13.861,13.861,0,0,0,1.538,1.013l.164.033c.359-.557,1.209-.721,1.209-1.473a4.593,4.593,0,0,0-1.669-1.6c-.1-.033-.295-.1-.359.033A10.442,10.442,0,0,1,384.387,174.659Z" transform="translate(14434.011 5306.431)"/><path class="a" d="M374.869,128.051c.132.883,1.113.752,1.539,1.34v.065c-1.308.983-2.878,1.54-4.12,2.719.131.523.589.032.948.1l2.648-1.343c.524-.262.981-.72,1.5-.949a4.322,4.322,0,0,1,.949.784l.131.033c.262-.229.719-.491.654-.949-.066-.164-.066-.425-.295-.49-.261-.2-.655-.359-.72-.72.326-1.014.816-2.519-.166-3.368-.229-.033-.459-.164-.687-.033A4.436,4.436,0,0,0,374.869,128.051Zm2.452-1.441a1.887,1.887,0,0,1,.3,1.766,8.876,8.876,0,0,1-1.538-.882c0-.294.359-.458.555-.655C376.862,126.708,377.059,126.479,377.321,126.61Z" transform="translate(14441.309 5345.761)"/><path class="a" d="M295.431,263.415a4.287,4.287,0,0,0-1.375-1.8c-.524-.261-.262.458-.621.623-.1.491-.621.818-.555,1.308a5.5,5.5,0,0,0,1.343,1.275h.163C294.811,264.429,295.5,264.1,295.431,263.415Z" transform="translate(14506.475 5233.847)"/><path class="a" d="M273.718,184.27c-.326.229-.784.164-1.177.262a1.168,1.168,0,0,1-.262-.981c-.1-.425.162-1.112-.328-1.308-.164.1-.2.3-.261.459-.458.556-.228,1.439-.2,2.093-.1.164-.294.164-.425.262a.751.751,0,0,1-.85-.163,2.878,2.878,0,0,1-.328-1.178c-.065-.131-.2,0-.294.066a2.343,2.343,0,0,0-.195,1.93c.164.327.426.752.884.752.523-.2,1.177-.132,1.6-.59a4.648,4.648,0,0,0,1.636-.3,1.267,1.267,0,0,0,.686-.621c.621-.786.227-1.93.1-2.813a.5.5,0,0,0-.36-.359,10.135,10.135,0,0,0-.49,1.048Z" transform="translate(14525.844 5299.312)"/><path class="a" d="M259.78,141.506c.294-.2.524.228.785.359.229.1.3.425.557.457.262-.163.327-.458.457-.72.2-.687-.687-1.079-1.08-1.5.359-1.014.751-2.487-.265-3.3-.621-.392-1.21.131-1.7.459a3.714,3.714,0,0,0-1.307,2.029,1.512,1.512,0,0,0,.818,1.111c.294.163.687.228.884.523a44.515,44.515,0,0,1-3.89,2.587,3.742,3.742,0,0,0-1.046.982c.262.458.588-.164.981-.034A46.292,46.292,0,0,0,259.78,141.506Zm-1.408-2.616c.13-.458.62-.589.947-.818.621-.033.655.719.851,1.111-.1.2.033.491-.2.588A9.506,9.506,0,0,1,258.371,138.89Z" transform="translate(14538.381 5336.344)"/><path class="a" d="M163.981,199.839a8.468,8.468,0,0,0-.587,1.963,22.352,22.352,0,0,1,1.867,3.891,13.714,13.714,0,0,1,.525,2.616,7.565,7.565,0,0,1-3.171,2.128c-1.8.459-4.12.919-5.724-.257a3.764,3.764,0,0,1-1.638-2.321,3.957,3.957,0,0,1,.162-1.635c-.033-.785.425-1.375.554-2.127a.315.315,0,0,0-.262-.229c-.163.033-.261.2-.326.328a9.341,9.341,0,0,0-1.436,5.071,4.947,4.947,0,0,0,2.947,3.53,5.768,5.768,0,0,0,3.173.292c.621,0,1.112-.393,1.766-.3l1.635-.655c.719-.655,1.536-1.015,2.222-1.735a5.347,5.347,0,0,0,.849-2.094,11.349,11.349,0,0,0,.226-2.584,12.771,12.771,0,0,0-2.457-5.951C164.21,199.74,164.046,199.675,163.981,199.839Z" transform="translate(14620.491 5284.583)"/><path class="a" d="M173.167,188.8c-.1-.065-.295-.1-.36.066a9.371,9.371,0,0,0-.784,1.865,3.225,3.225,0,0,0,1.211.882c.294.065.491.392.817.424.458-.426,1.177-.623,1.145-1.342A6.261,6.261,0,0,0,173.167,188.8Z" transform="translate(14605.645 5293.597)"/><path class="a" d="M1501.932,146.94c.326-.425.882-.753.686-1.374a4.555,4.555,0,0,1-1.343-2.191c-.131-.294.065-.785-.393-.85a.7.7,0,0,0-.261.556,4.8,4.8,0,0,0-.686,1.112,2.423,2.423,0,0,0,.131,1.276c.132.425.492.785.492,1.242.1,1.112.3,2.191.493,3.238a61.141,61.141,0,0,1,1.445,6.966c0,.327.2.687.066,1.014a7.522,7.522,0,0,1-4.351.593c-.687,0-.784-.785-1.112-1.21-.1-.2-.033-.458-.131-.654-.229-.131-.393-.687-.752-.49a13.256,13.256,0,0,0-.489,1.963c.787,1.8,1.867,3.5,1.869,5.591a8.077,8.077,0,0,1-3.5,2.423c-.85.491-2,.3-2.944.493a5.192,5.192,0,0,1-3.665-1.731,3.29,3.29,0,0,1-.623-1.9c.2-.981.063-2.028.325-2.944.033-.392.555-.72.228-1.08-.163-.065-.294.032-.393.2-.915,1.506-1.011,3.37-1.337,5.1a7.619,7.619,0,0,1,.164,1.243c.229.294.263.687.492.981.36.818,1.276,1.275,2,1.765a6.724,6.724,0,0,0,2.683.619c.85-.263,1.9,0,2.649-.493.523-.033.883-.458,1.34-.623a8.021,8.021,0,0,0,2.256-1.571,9.32,9.32,0,0,1,.621-.949c.13-.622.62-1.211.39-1.865a15.19,15.19,0,0,0,.194-2.453c.2-.2.524-.1.785-.033a9.946,9.946,0,0,0,3.238-.919c.13-.1.392-.163.326-.393.2-.131.1-.393.2-.589a5.481,5.481,0,0,0,.489-2.094,9.228,9.228,0,0,0-.166-3.009c-.36-1.57-.624-3.172-1.017-4.709C1502.228,148.445,1501.736,147.758,1501.932,146.94Z" transform="translate(13527.655 5331.526)"/><path class="a" d="M1507.356,214.252c.524.359.883,1.046,1.538.98.326-.524.915-.884.98-1.505a8.517,8.517,0,0,0-1.506-1.569c-.1-.033-.229-.1-.295,0l-.424.884C1507.551,213.435,1507.094,213.827,1507.356,214.252Z" transform="translate(13509.941 5274.429)"/><path class="a" d="M1433.738,182.54a.249.249,0,0,0,.294.065c.3-.589,1.047-.753,1.013-1.473-.328-.785-1.211-1.111-1.8-1.667-.1-.065-.261-.13-.359.033a6,6,0,0,1-.85,1.374c-.1.033-.229.034-.261.164-.163.033-.261-.1-.36-.163a13.075,13.075,0,0,0-1.571-.62,1.546,1.546,0,0,0-.2.295c-.032.523-.622.818-.686,1.309-.129.687.753.621,1.113.916.36.065.589.588.982.391a5.475,5.475,0,0,0,.946-1.636h.066C1432.658,181.822,1433.084,182.377,1433.738,182.54Z" transform="translate(13574.217 5301.271)"/><path class="a" d="M1397.762,189.154a6.13,6.13,0,0,0,1.833,1.077c.2.1.326-.164.425-.262.36-.327.85-.688.817-1.211-.426-.785-1.276-1.078-1.9-1.633l-.229-.033a3.505,3.505,0,0,0-.62,1.015C1397.958,188.434,1397.566,188.761,1397.762,189.154Z" transform="translate(13599.853 5294.956)"/><path class="a" d="M1377.852,216.2c0,.033-.032.033-.032.065.032,0,.032.033.066.033C1377.95,216.261,1377.885,216.2,1377.852,216.2Z" transform="translate(13616.174 5271.074)"/><path class="a" d="M1264.81,177.168c.263,0,.557,0,.687-.3.622.262.981-.491,1.471-.72.687-.3,1.177-1.047,1.7-1.538a13.862,13.862,0,0,0,2.024-4.744c.229-.36.785-.2,1.079-.557.752-.1,1.275-.753,1.863-1.212.262-.589.36-1.276.62-1.9a27.613,27.613,0,0,0-.758-6.247c-.229-1.145-.623-2.224-.754-3.4a5.821,5.821,0,0,1-.3-1.144c.261-.3.654-.557.588-1.015,0-.327-.327-.523-.524-.817-.589-.49-.622-1.275-.852-1.929a.383.383,0,0,0-.359-.327c-.164.1-.164.262-.229.425a8.511,8.511,0,0,0-.719,1.44c.132.719.132,1.57.787,2.06.427,3.369,1.575,6.41,1.938,9.778a9.207,9.207,0,0,1,.262,1.309,5.726,5.726,0,0,1-3.04,1.343l-.066-.065a7.105,7.105,0,0,0-1.6-3.008c-.426-.392-.917-.818-1.538-.522a6.087,6.087,0,0,0-1.438,1.767c-.326,1.112-1.242,2.748-.063,3.761,1.113.981,2.847.783,4.154.389.033.065.065.065.065.1a9.7,9.7,0,0,1-4.608,5.073,18.068,18.068,0,0,1-7.162,1.608c-.491.066-1.145-.358-1.34.361a.358.358,0,0,0,.066.491,31.8,31.8,0,0,0,5,.062c.458.033.883-.164,1.341-.034C1263.634,177.463,1264.354,177.594,1264.81,177.168Zm1.333-9.846c.229-.36.49-.884.948-1.015.622.065.982.751,1.311,1.21.032.2.426.424.2.588C1267.649,168.171,1266.668,168.139,1266.144,167.322Z" transform="translate(13715.619 5324.307)"/><path class="a" d="M1316.738,110.362c-.1.589-.653,1.178-.293,1.832.426.687,1.21.588,1.8.98l.034.1c-1.047,1.047-2.485,1.6-3.236,2.946a.247.247,0,0,0,.033.393c.1.032.163-.033.262-.033a26.074,26.074,0,0,0,3.791-2.848l.164-.033c.327.131.589.523.916.654a1.559,1.559,0,0,0,.425-1.145l-.787-.785a5.979,5.979,0,0,0-.034-2.846,1.2,1.2,0,0,0-.884-.784C1317.947,108.661,1317.261,109.675,1316.738,110.362Zm2.158-.067a2.128,2.128,0,0,1,.46,1.6.335.335,0,0,1-.131.163c-.589-.261-1.244-.457-1.865-.751-.066-.327.261-.589.49-.785C1318.144,110.3,1318.537,110.067,1318.9,110.3Z" transform="translate(13667.756 5359.219)"/><path class="a" d="M1265.517,175.552a3.081,3.081,0,0,0,.457-2.225,71.44,71.44,0,0,0-.986-7.1c-.3-.785-.3-1.7-.591-2.485a36.963,36.963,0,0,1-.657-3.728c-.261-.262.1-.981-.491-.981-.229.328-.13.785-.326,1.112a7.184,7.184,0,0,0,.2,3.532c.493,2.779,1.182,5.462,1.545,8.307a21.451,21.451,0,0,0,.721,3.27C1265.386,175.355,1265.354,175.552,1265.517,175.552Zm.033-.589.032-.032v.032Z" transform="translate(13710.589 5317.979)"/><path class="a" d="M1256.535,123.933a1.56,1.56,0,0,0-1.309-.817c-1.439.263-2.091,1.833-2.352,3.11.131.523.394,1.242,1.048,1.373a3.033,3.033,0,0,0,2.256-.884A2.555,2.555,0,0,0,1256.535,123.933Zm-2.877,2.03c-.2-.163-.033-.36.066-.523a2.521,2.521,0,0,1,1.275-.917,1.118,1.118,0,0,1,1.014.817c.1.327-.327.426-.523.557C1254.934,126.061,1254.215,126.355,1253.658,125.963Z" transform="translate(13718.703 5347.455)"/><path class="a" d="M1203.81,126.393c.326-.654.587-1.57.03-2.158a1.539,1.539,0,0,0-1.275-.555,5.993,5.993,0,0,0-2.746,3.077c-.294,0-.36-.426-.622-.36a4.206,4.206,0,0,0-1.927,2.062c-.033.131-.163.36.033.491a.418.418,0,0,0,.36-.164,2.639,2.639,0,0,1,1.242-.916c.524.523,1.275.293,1.962.325A3.871,3.871,0,0,0,1203.81,126.393Zm-3.435.428a5.42,5.42,0,0,1,1.9-1.767,1,1,0,0,1,.884.359c.1.163.229.327.163.523l-.49.393a6.537,6.537,0,0,1-2.387.558Z" transform="translate(13764.391 5346.995)"/><path class="a" d="M1214.373,172.173c-.067-2.159-.723-4.055-.888-6.181-.262-1.079-.459-2.191-.656-3.3a23.674,23.674,0,0,0-.787-2.976c-.1-.033-.262-.032-.3.066a17.766,17.766,0,0,0-.456,1.9c.3,1.374.525,2.78.755,4.186.624,2.943,1.02,5.952,1.545,8.928a4.165,4.165,0,0,0-.131.621c.1.1.262,0,.36.1A6.985,6.985,0,0,0,1214.373,172.173Z" transform="translate(13752.826 5317.439)"/><path class="a" d="M1155.07,123.986a11.13,11.13,0,0,0-.327,1.112c.033.1.131.1.2.131a8.551,8.551,0,0,1,1.962-1.146,2.447,2.447,0,0,1,1.8.425c-.49.36-1.047.654-1.57.983-.359.327-.882.589-1.013,1.08a.292.292,0,0,0,.262.163,16.285,16.285,0,0,0,3.76-2.064,2.623,2.623,0,0,0,.326-.883.347.347,0,0,0-.2-.229c-.72-.163-1.342-.653-2.094-.783C1157,122.512,1156.018,123.3,1155.07,123.986Z" transform="translate(13799.229 5347.777)"/><path class="a" d="M1141.928,264.243a6.691,6.691,0,0,0-2-1.275c-.622-.294-.294.622-.719.753a4.942,4.942,0,0,0-.457,1.145c.131.261.459.36.72.49.491.131.95.817,1.538.424C1141.144,265.192,1142.027,264.93,1141.928,264.243Z" transform="translate(13812.348 5232.739)"/><path class="a" d="M1099.564,177.515c.785-.229.948-1.079.947-1.8-.2-.556-.033-1.243-.361-1.7a.17.17,0,0,0-.261,0c-.131.458-.588.884-.326,1.407.034.262.2.622,0,.818-.458.033-.816.295-1.307.164a.448.448,0,0,1-.164-.261c-.262-.523.293-1.472-.459-1.668a.844.844,0,0,0-.229.491c-.49.523-.065,1.145-.13,1.766-.228.294-.555.327-.85.458a.556.556,0,0,1-.654-.326c-.229-.425.294-.851.032-1.276-.425.131-.392.59-.621.883a1.913,1.913,0,0,0,.1,1.832,1.141,1.141,0,0,0,.556.294,3.149,3.149,0,0,0,1.766-.819A5,5,0,0,0,1099.564,177.515Z" transform="translate(13848.257 5305.738)"/><path class="a" d="M951.057,182.622a1.3,1.3,0,0,0,.784-1.047,4.09,4.09,0,0,0-1.6-1.9c-.131-.065-.262-.2-.393-.1a7.663,7.663,0,0,0-1.045,1.7c-.032.033-.1.131-.163.1-.622-.2-1.08-.686-1.7-.882-.228-.033-.458-.392-.686-.1-.2.392-.458.753-.653,1.145-.066.2-.327.426-.131.688a12.925,12.925,0,0,1,1.7,1.012.444.444,0,0,0,.49,0c.426-.491.948-1.047,1.34-1.571.426.457.982.555,1.44,1.013C950.632,182.917,950.828,182.623,951.057,182.622Z" transform="translate(13971.021 5301.148)"/><path class="a" d="M941.11,144.341c-.36-.327.065-.752-.164-1.112-.066-.065-.131,0-.2.065a2.056,2.056,0,0,0-.326,2.061c.164.327.394.85.884.785a5.321,5.321,0,0,0,1.962-.754,4.253,4.253,0,0,0,1.57-.525,2.031,2.031,0,0,0,1.079-1.342,2.744,2.744,0,0,0-.493-1.962c-.458-.131-.327.491-.555.72-.262.458.2.752.2,1.21a3.135,3.135,0,0,1-.948.426c-.164.066-.425.164-.523-.1l-.231-1.275c-.066-.1-.164-.295-.36-.294a1.073,1.073,0,0,0-.229.523c-.392.458-.13,1.08-.064,1.6l-.1.1a3.5,3.5,0,0,1-1.08.3A.892.892,0,0,1,941.11,144.341Z" transform="translate(13975.239 5332.336)"/><path class="a" d="M917.936,186.612c.2.033.293-.2.392-.327a9.928,9.928,0,0,0,.26-2.813,13.093,13.093,0,0,0-1.476-3.793c-.327-.327-.491-.817-.917-.98a2.065,2.065,0,0,0-.555,1.276,8.478,8.478,0,0,1,1.441,2.452,9.07,9.07,0,0,1,.721,2.649C917.934,185.566,917.64,186.187,917.936,186.612Z" transform="translate(13995.438 5301.844)"/><path class="a" d="M845.56,181.336c.262.131.491-.2.621-.393a1.279,1.279,0,0,0,.752-1.014A4.907,4.907,0,0,0,845.1,178.3h-.229a8.57,8.57,0,0,1-.751,1.047c-.164.2-.2.523-.491.523a7.1,7.1,0,0,0-1.733-.849c-.294.131-.229.458-.36.655-.2.1-.229.294-.392.425a3.674,3.674,0,0,0-.261.785c.458.424,1.048.555,1.473.947.1.1.228.032.327,0l1.143-1.506h.1C844.48,180.716,845,181.009,845.56,181.336Z" transform="translate(14056.781 5302.175)"/><path class="a" d="M832.574,119.363c-.131.883.884,1.079,1.375,1.5.131.131.425-.033.425.2-1.34,1.145-2.844,1.9-4.152,3.143a.256.256,0,0,0-.033.262c.2.327.491,0,.752,0a35.087,35.087,0,0,0,4.414-3.013c.2-.132.392.032.556.1.294.2.491.588.851.719a1.275,1.275,0,0,0,.424-1.047,3.055,3.055,0,0,0-1.178-1.144c.129-1.014.489-2.257-.133-3.173-.131-.294-.458-.359-.752-.425a7.988,7.988,0,0,0-1.961,1.572A5.2,5.2,0,0,0,832.574,119.363Zm2.452-1.409a2.373,2.373,0,0,1,.492,1.9l-.1.066a6.352,6.352,0,0,1-1.768-.882c.065-.359.458-.556.719-.818C834.568,118.118,834.764,117.824,835.026,117.954Z" transform="translate(14065.573 5352.898)"/><path class="a" d="M815.134,182.791c.261-.557,1.013-.851.98-1.538a8.123,8.123,0,0,0-1.932-1.732c-.457-.032-.49.556-.719.786-.228.392-.653.752-.457,1.211l1.342,1.078C814.578,182.694,814.872,182.922,815.134,182.791Z" transform="translate(14079.698 5301.17)"/><path class="a" d="M775.078,169.578c-.2.327-.424.687-.654,1.048-.13.294-.489.621-.228.948.59.392,1.08,1.014,1.833,1.046.163-.066.262-.262.36-.393a1.478,1.478,0,0,0,.654-.752c.327-.687-.655-1.014-1.048-1.438C775.7,169.873,775.471,169.48,775.078,169.578Z" transform="translate(14111.58 5309.34)"/><path class="a" d="M702.543,173.383c-.687.328-1.177-.555-1.8-.751-.556-.228-.523.557-.784.819-.2.327-.49.72-.392,1.112l1.374.882c.131.065.328.262.458.065.392-.458.785-.949,1.21-1.407.295.032.524.425.818.49.262.065.36.392.654.392.392-.458,1.178-.72,1.078-1.44a4.567,4.567,0,0,0-1.374-1.6.247.247,0,0,0-.393.033A8.9,8.9,0,0,1,702.543,173.383Z" transform="translate(14172.76 5307.454)"/><path class="a" d="M689.312,124.37a1.622,1.622,0,0,0,1.21,1.242c.262.1.524.163.655.392-1.438,1.31-3.073,2.063-4.413,3.6l-.065.2c.294.425.654-.164.981-.2,1.438-1.048,3.041-1.769,4.283-3.144.556-.229.818.457,1.276.588a1.512,1.512,0,0,0,.424-1.047,2.53,2.53,0,0,0-.917-.85,3.53,3.53,0,0,1,.163-.752c0-1.079.227-2.454-.852-3.041-.36-.1-.654.164-.915.3A4.395,4.395,0,0,0,689.312,124.37Zm2.484-1.506a3.111,3.111,0,0,1,.492,1.635c0,.131,0,.262-.131.328-.59-.261-1.146-.555-1.734-.784-.13-.066-.1-.229-.033-.327a5.805,5.805,0,0,1,.915-.884A.445.445,0,0,1,691.8,122.864Z" transform="translate(14183.304 5348.914)"/><path class="a" d="M616.744,127.215a1.083,1.083,0,0,0,.524.981,2.564,2.564,0,0,0,2.061-.329A2.6,2.6,0,0,0,620.766,126a2.339,2.339,0,0,0-.687-1.863,1.39,1.39,0,0,0-1.44-.391,3.473,3.473,0,0,0-1.895,2.553C616.515,126.691,617.005,126.888,616.744,127.215Zm2.059-2.095c.523-.033.916.555,1.145.98-.1.295-.458.393-.719.524-.524.164-1.243.426-1.766.067-.2-.131-.132-.36-.066-.556A1.946,1.946,0,0,1,618.8,125.12Z" transform="translate(14240.761 5346.997)"/><path class="a" d="M623.029,160.658a2.543,2.543,0,0,0-.262-1.112.265.265,0,0,0-.327.1l-.2.883a3.622,3.622,0,0,0-.227,2.29,32.191,32.191,0,0,0,.723,3.532c.2,1.9.559,3.729.821,5.593.1,1.276.656,2.486.363,3.762.1.033.13.163.229.065.948-1.212.587-3.043.716-4.548-.23-1.079-.328-2.224-.592-3.3a42.933,42.933,0,0,0-1.018-5.494A5.487,5.487,0,0,1,623.029,160.658Z" transform="translate(14236.441 5317.574)"/><path class="a" d="M454.622,168.614l.721.752a10.048,10.048,0,0,0,4.776,1.042c.393-.2.327-.621.588-.916a13.661,13.661,0,0,0,2.29-.132c.262,0,.49-.229.752-.164.2-.2.49-.2.72-.393.719-.294,1.013-1.079,1.5-1.636l.752.588c1.178.849,2.683.783,4.122.945l.262-.229a3.512,3.512,0,0,0,.456-1.734c-.426-1.635-.525-3.5-1.965-4.643a1.11,1.11,0,0,0-1.014,0,17.244,17.244,0,0,0-2.125,2.226,9.576,9.576,0,0,1-1.077,1.963,2.529,2.529,0,0,1-1.765.852c-1.373.328-2.977.3-3.925-.913a9.2,9.2,0,0,0-2.357-2.288,2.436,2.436,0,0,0-1.961,1.539c-.686.786-.816,1.963-1.83,2.455a6.878,6.878,0,0,1-3.075.329,3,3,0,0,1-2.062-1.993,13.261,13.261,0,0,1-.886-3.205c-.427-2.78-.822-5.625-1.184-8.438,0-.654-.2-1.21-.2-1.864-.2-.36-.1-.883-.393-1.177-.131-.1-.261.033-.327.132-.1.72-.654,1.21-.62,2a20.5,20.5,0,0,1,.526,3.5c.231,1.275.395,2.583.527,3.892a57.66,57.66,0,0,0,1.379,6.769c.36.752.623,1.766,1.538,2.125a4.3,4.3,0,0,0,2.651.489,7.328,7.328,0,0,0,2.06-.721C454,169.53,454.1,168.876,454.622,168.614Zm.556.326a.12.12,0,0,1-.1-.033l.033-.065C455.178,168.81,455.276,168.908,455.178,168.94Zm11.871-3.542-.065-.1a6.9,6.9,0,0,1,1.274-1.113.611.611,0,0,1,.622.13,5.261,5.261,0,0,1,1.08,1.961l-.065.065A7.141,7.141,0,0,1,467.049,165.4Zm-11.578,1.318v-.066c.49-.426.751-1.177,1.471-1.178.556.228.851.817,1.211,1.242a5.4,5.4,0,0,1,.558,1.276l-.066.033A5.953,5.953,0,0,1,455.471,166.716Zm-10.183-14.253h.065c0,.1.065.262-.033.294C445.157,152.725,445.222,152.561,445.287,152.463Zm-.294.949.033-.066v.065Zm0,.36v-.033h.066a.1.1,0,0,1-.033.065Z" transform="translate(14381.809 5324.125)"/><path class="a" d="M487.99,176.861c-.033-.229.131-.524,0-.719-.066-.164-.2-.033-.262.033-.2.491-.588.949-.489,1.538a1.311,1.311,0,0,0,.884,1.177,2.44,2.44,0,0,0,1.83-.754,3.71,3.71,0,0,0,1.342-.033,2.49,2.49,0,0,0,1.243-.525c.653-.949.259-2.191.095-3.238-.032-.1-.131-.229-.229-.229-.229.2-.228.556-.392.785a3.634,3.634,0,0,0,.133,1.668l-.1.1a4.267,4.267,0,0,1-1.275.165c-.2-.13-.164-.36-.164-.589a3.661,3.661,0,0,0-.328-1.57.247.247,0,0,0-.295,0c-.1.36-.294.687-.392,1.014a4.133,4.133,0,0,1,.165,1.406,1.941,1.941,0,0,1-1.276.426C488.187,177.417,488.088,177.123,487.99,176.861Z" transform="translate(14346.994 5305.609)"/><path class="a" d="M662.291,203.887c-.069-.381-.069-.831-.416-1-.45.485-.416,1.214-.728,1.768a26.23,26.23,0,0,1,.242,2.876c-.312.555-.936.1-1.351.069a10.608,10.608,0,0,0-2.808-1.213c-.451-.1-.728.243-1.005.555a7.6,7.6,0,0,1-4.887,1.663,6.164,6.164,0,0,1-1.454-.161c.007-.031.016-.061.022-.091a3.52,3.52,0,0,1-.541-.274v-.1c1.013-.721,1.079-1.833,1.47-2.815a8.912,8.912,0,0,0-.394-2.289c-.459-.589-1.049-1.569-1.9-1.372a8.531,8.531,0,0,0-2.712,2.292,5.027,5.027,0,0,0-1.176,2.814c.3.327.165.785.23,1.178-.032.2.2.326.067.49l-1.146.263a13.737,13.737,0,0,1-5.887.233l-.1-.131c.392-.589,1.209-.851,1.274-1.6a4.642,4.642,0,0,0,.293-2.519,5.854,5.854,0,0,0-1.278-2.387,1.652,1.652,0,0,0-1.634.492,13.222,13.222,0,0,0-2.354,1.932,5.771,5.771,0,0,0-.651,3.729c0,.131.327.228.1.393a13.85,13.85,0,0,1-3.106.657c-.591-1.341-1.115-2.878-2.555-3.728a1.1,1.1,0,0,0-.785.066,5.837,5.837,0,0,0-2.091,2.717c-.065.621-.587,1.112-.358,1.8.229.523.557,1.242,1.178,1.341a5.928,5.928,0,0,0,2.846.194c.261.065.556-.262.719,0a18.874,18.874,0,0,1-1.7,2.389,10.211,10.211,0,0,1-2.157,1.768,10.453,10.453,0,0,1-3.368,1.377,11.824,11.824,0,0,1-1.929.3l-.131-.1a14.971,14.971,0,0,1-2.715-.1.619.619,0,0,0-.393.36.36.36,0,0,0,.066.491,4.353,4.353,0,0,0,1.472.228,5.1,5.1,0,0,1,1.865.13,16.581,16.581,0,0,0,3.37-.068c1.013-.3,2.224-.264,2.843-1.278,1.145-.492,1.733-1.669,2.452-2.619a11.565,11.565,0,0,0,1.273-2.912c.065-.327.459-.164.655-.3a29.74,29.74,0,0,0,3.433-1.049c.229-.033.392-.295.687-.229a6.536,6.536,0,0,0,1.9.816c.261.033.458.261.72.162.457-.065.883.261,1.308.1a16.711,16.711,0,0,0,3.14-.232,7.313,7.313,0,0,0,2.257-.459c.425.032.686-.426,1.078-.459.131-.1.426.131.393-.164l.514-.227a3.25,3.25,0,0,1,1.147.512,1.707,1.707,0,0,1,.693.277,8.324,8.324,0,0,0,4.125.346,8.763,8.763,0,0,0,4.09-2.113c.312-.208.52.208.9.034a5.181,5.181,0,0,0,3.294,1.318,1.846,1.846,0,0,0,.9-.729A8.89,8.89,0,0,0,662.291,203.887Zm-33.758,5.708a4.344,4.344,0,0,1-2.159-.293.832.832,0,0,1-.393-.491,2.111,2.111,0,0,1,.981-1.014c.818.2,1.309,1.078,1.637,1.764Zm8.731-2.394-1.406.622c-.491-.294-1.177-.424-1.408-1.045a5.814,5.814,0,0,1,1.242-1.767c.49-.131.915-.622,1.439-.426.655.491.786,1.177,1.146,1.8A3.615,3.615,0,0,1,637.264,207.2Zm8.438-1.119a7.9,7.9,0,0,1,1.177-1.375,3.522,3.522,0,0,1,1.341-.917,2.032,2.032,0,0,1,1.179,1.144l.327.85a5.169,5.169,0,0,1-2.125,1.408C647.01,206.734,646.259,206.637,645.7,206.081Z" transform="translate(14240.532 5283.153)"/><path class="a" d="M1369.685,177.4c.251.063.593-.032.812.063a9.486,9.486,0,0,0,1.628,0,9.977,9.977,0,0,0,3.533-1.908.806.806,0,0,1,.657-.093,7.607,7.607,0,0,0,3.441,1.126l.125.093c.094.031.094-.062.157-.093a1.846,1.846,0,0,0,1.376-1.064,7.242,7.242,0,0,0,.718-4.535c-.125-.469-.092-1.032-.562-1.282a5.978,5.978,0,0,0-.751,1.783,11.038,11.038,0,0,1,.344,2.752c-.344.469-.97.376-1.471.282-1.126-.094-1.908-.876-2.94-1.126-.5-.094-.844.25-1.188.563a6.469,6.469,0,0,1-4.348,1.439,3.119,3.119,0,0,1-2.471-.938c-1.094-1.407-1.251-3.19-1.47-4.973-.187-.845-.125-1.814-.345-2.659-.156-1.876-.562-3.628-.686-5.536l-.407-1.189c-.062-.188-.281-.563-.5-.281a9.734,9.734,0,0,0-.532,1.627c.625,1.939.625,4.159,1.094,6.225a60.648,60.648,0,0,0,1,6.755A3.817,3.817,0,0,0,1369.685,177.4Z" transform="translate(13626.853 5317.419)"/><path class="a" d="M482.635,138.284c-.387.1-3.94,1.711-4.772,2.079a20.723,20.723,0,0,0-3.562,1.792,7.464,7.464,0,0,0-.9.729,2.432,2.432,0,0,0-.552,1.215c.055.055.138.138.194.083a12.661,12.661,0,0,1,3.676-2.105c.573-.239,5.163-2.088,5.333-2.3a2.959,2.959,0,0,0,.774-1.327C482.8,138.367,482.746,138.256,482.635,138.284Z" transform="translate(14358.786 5335.012)"/><path class="a" d="M1550.741,115.345c.006-.224-.131-.251-.252-.23l-6.6,3c-.158.072-.35.7-.435,1.058-.011.151.1.292.315.2l6.507-2.944C1550.55,116.33,1550.731,115.5,1550.741,115.345Z" transform="translate(13480.255 5354.025)"/><path class="a" d="M1135.911,280.11c.007-.225-.132-.252-.252-.23l-6.6,3c-.158.072-.349.7-.435,1.059-.011.15.1.291.315.2l6.507-2.943C1135.72,281.1,1135.9,280.261,1135.911,280.11Z" transform="translate(13820.663 5218.819)"/><path class="a" d="M1092.734,138.978c.006-.225-.132-.251-.253-.23l-6.6,3c-.158.072-.349.7-.435,1.058-.011.15.1.291.314.2l6.507-2.944C1092.543,139.963,1092.722,139.129,1092.734,138.978Z" transform="translate(13856.095 5334.631)"/><path class="a" d="M938.655,111.32c.006-.225-.132-.251-.253-.23l-6.6,3c-.159.072-.35.7-.435,1.058-.011.151.1.292.314.2l6.507-2.943C938.464,112.306,938.643,111.471,938.655,111.32Z" transform="translate(13982.531 5357.327)"/><path class="a" d="M1002.767,155.485c.007-.225-.132-.251-.252-.23l-6.6,3c-.158.072-.35.7-.434,1.058-.011.151.1.291.314.2l6.507-2.943C1002.576,156.47,1002.756,155.635,1002.767,155.485Z" transform="translate(13929.921 5321.086)"/><path class="a" d="M770.211,268.819c.007-.225-.131-.252-.252-.23l-6.6,3c-.158.072-.35.7-.435,1.058-.012.151.1.292.314.2l6.508-2.943C770.02,269.8,770.2,268.969,770.211,268.819Z" transform="translate(14120.755 5228.085)"/><path class="a" d="M568.1,258.922c.007-.225-.131-.252-.252-.23l-6.6,3c-.159.072-.35.7-.435,1.058-.011.151.1.292.315.2l6.506-2.943C567.905,259.907,568.085,259.073,568.1,258.922Z" transform="translate(14286.609 5236.206)"/><path class="a" d="M327.866,266.514c.007-.225-.132-.251-.253-.23l-6.6,3c-.158.072-.35.7-.435,1.058-.011.151.1.292.315.2L327.4,267.6C327.675,267.5,327.855,266.664,327.866,266.514Z" transform="translate(14483.742 5229.976)"/><path class="a" d="M168.9,148.693c.007-.225-.132-.251-.252-.23l-6.6,3c-.158.072-.35.7-.435,1.058-.011.151.1.292.315.2l6.507-2.944C168.705,149.679,168.885,148.844,168.9,148.693Z" transform="translate(14614.192 5326.66)"/><g transform="translate(14774.478 5466.713)"><path class="a" d="M157.716,107.49a2.649,2.649,0,0,1-2-.749,1.73,1.73,0,0,1-.225-1.837,3.416,3.416,0,0,1,3.255-2.159,2.741,2.741,0,0,0,.613-.967.414.414,0,0,0-.226-.161c-1.224.161-2.514-.064-3.674.161-.567.158-.806.741-1.063,1.16-.1.226-.226.548-.1.741.573-.279.677-.677,1.16-.773.162-.032.612-.194.71-.065.005.008-.542.626-.578.678-.132.19-.257.388-.37.591a6.08,6.08,0,0,0-.486,1.371,2.344,2.344,0,0,0,.344,2.251,2.576,2.576,0,0,0,1.4.806,3.2,3.2,0,0,0,.674.061,6.408,6.408,0,0,0,3.267-1.053A12.03,12.03,0,0,0,157.716,107.49Z" transform="translate(-154.24 -101.617)"/><path class="a" d="M171.854,118.5a2.775,2.775,0,0,0,.746.709,5.337,5.337,0,0,0,.624-.8l-.808-.668S172.04,118.211,171.854,118.5Z" transform="translate(-168.694 -114.853)"/></g><path class="a" d="M1388.72,149.319c.007-.225-.132-.252-.253-.23l-5.53,2.512c-.158.072-.35.7-.435,1.058-.011.15.1.291.314.2l5.436-2.458C1388.53,150.3,1388.709,149.469,1388.72,149.319Z" transform="translate(13612.33 5326.146)"/><path class="a" d="M1434.347,145.458c.007-.225-.131-.252-.253-.23l-5.529,2.512c-.159.072-.35.7-.435,1.058-.011.151.1.291.314.2l5.436-2.458C1434.157,146.443,1434.336,145.608,1434.347,145.458Z" transform="translate(13574.889 5329.314)"/><path class="a" d="M1081.374,148.841a9.986,9.986,0,0,0-.815,1.311c-.461.567-.142,1.417.035,1.984a10.833,10.833,0,0,1,.673,2.658c.355,1.453.6,2.941.957,4.395.213,1.2.6,2.374.815,3.614.425,1.524.674,3.119,1.063,4.677l-.071.107c-.85.779-2.091.354-2.976-.107-2.232-1.665-2.374-4.323-3.083-6.7.071-.319-.319-.426-.248-.745-.106-.177-.249-.106-.39-.177a4.868,4.868,0,0,0-.531,1.985c-.036.247.177.46,0,.672a4.5,4.5,0,0,1-4.288,1.028c-.248-.07-.461-.283-.745-.248-.5.39-.425,1.1-.39,1.736,0,.5.567.638.921.85.106.142.425,0,.425.248l-.638,1.453a8.472,8.472,0,0,1-2.658,3.083,27.458,27.458,0,0,1-3.366,1.276,10.2,10.2,0,0,1-3.119-.072c-.283,0-.531-.213-.814-.035-.426-.213-.886-.07-1.347-.178l-.106.107c.071.318.5.389.673.637,1.17.177,2.269.6,3.473.78a17.959,17.959,0,0,0,3.083,0c.283-.071.461-.39.815-.248a6.017,6.017,0,0,0,2.269-1.488,4.439,4.439,0,0,0,1.559-2.445,13.981,13.981,0,0,0,.957-2.9l.071-.071a5.52,5.52,0,0,0,2.906-1.169c.5-.249.5-.816.744-1.205l.071.035c.461,1.736.744,3.508,1.914,4.961a4.118,4.118,0,0,0,3.118,1.772,2.913,2.913,0,0,0,2.055-1.17,8.12,8.12,0,0,0,.461-4.323c-.6-3.9-1.665-7.548-2.374-11.374l.213-.284c.071-.5.708-.673.85-1.169,0-.425-.461-.85-.85-1.063-.78-.426-.78-1.276-.992-1.984C1081.658,148.912,1081.516,148.77,1081.374,148.841Z" transform="translate(13876.417 5326.36)"/><path class="a" d="M918.485,205.036c-.7-.334-1.5-.534-2.237-.835-.467.134-1,.168-1.469.334-1.269.6-1.737,1.97-2.371,3.072-.033.2-.234.468-.033.668a.354.354,0,0,0,.4-.067c.534-.834,1.436-.934,2.2-1.4,1.2-.4,2.337.1,3.539.2.467,0,.8.367,1.234.167a.732.732,0,0,1,.335.3c-.4.267-.869.468-1.3.734a12.153,12.153,0,0,1-4.875,1.57,3.751,3.751,0,0,1-3.038-.834c-.435-.334-.4-.835-.8-1.169-.2-.3-.167-1.069-.668-.935a16.259,16.259,0,0,1-2.6,3.1l-1.97,1.268c-.333.235-.834.3-.968.735a11.734,11.734,0,0,1-.567,1.636c.4.367,1.068.234,1.569.433a10.9,10.9,0,0,1,2.5.4c.534.167,1.236.066,1.6.6a14.07,14.07,0,0,1-1.9,1.335,12.036,12.036,0,0,0-1.737.868,10.5,10.5,0,0,1-3.973.935,7.045,7.045,0,0,1-3.439-.9c-1.236-.635-1.569-1.937-1.87-3.139a10.478,10.478,0,0,1,.735-3.54c.067-.434.567-.935.033-1.335-.267,0-.3.334-.534.468-.333,1.335-1.1,2.5-1.335,3.907a17.489,17.489,0,0,0-.2,1.9c.334,1.2.5,2.5,1.569,3.406a5.31,5.31,0,0,0,3.106,1.235,9.72,9.72,0,0,0,6.778-1.3,19.345,19.345,0,0,0,3.272-2.5,3.516,3.516,0,0,0,1.035-1.836c-.134-.233.1-.668-.2-.868-.133-.1.1-.2.066-.233a3.307,3.307,0,0,0-2.571-.7l-.935-.066a4.206,4.206,0,0,0-.935-.134c-.133-.066-.367-.066-.4-.266a7.747,7.747,0,0,0,1.4-1,7.273,7.273,0,0,0,1.836-1.936l.1.1c-.066.367.3.6.3.934a3.722,3.722,0,0,0,2.037,1.4,5.563,5.563,0,0,0,2.771,0c1-.4,2.2-.434,3.172-.935a16.119,16.119,0,0,0,3.539-1.8,4.654,4.654,0,0,1,4.04-.4c.2.034.3.266.568.2.735-.435,1.068-1.3,1.6-1.969a.43.43,0,0,0-.2-.6,3.134,3.134,0,0,1-1.569.4,19.822,19.822,0,0,1-4.107-.7A17.582,17.582,0,0,1,918.485,205.036Z" transform="translate(14012.585 5280.917)"/><path class="a" d="M210.369,221.928a12.569,12.569,0,0,1-6.533.541.775.775,0,0,0-.434.614.649.649,0,0,0,.505.36,18.663,18.663,0,0,0,4.9.208,10.2,10.2,0,0,0,4-.951,6.931,6.931,0,0,0,1.864-1.462,8.1,8.1,0,0,0,1.37-2.122c.178-.414.332-.837.5-1.254.092-.228.323-1.133.544-1.239a6.858,6.858,0,0,0,2.815-1.7c.053-.069,2.44,1.411,2.706,1.495a3.026,3.026,0,0,0,1.45-.041,12.12,12.12,0,0,0,3.362-1.182c1-.536,1.917-1.215,2.929-1.732a4.419,4.419,0,0,1,1.716-.633c.29,0,.65-.215.9,0,.071.062-.466,1.76-.5,1.98a3.469,3.469,0,0,0,.06,1.611,2.217,2.217,0,0,0,2.021,1.4,12.49,12.49,0,0,0,3.358-.245,10.914,10.914,0,0,0,3.147-.958c.793-.4.866-1.3,1.118-1.985a4.236,4.236,0,0,0-.613-4.079c-.4-.361-.685-.9-1.191-1.119a4.594,4.594,0,0,0-.65,2.419,4.965,4.965,0,0,1,1.732,2.6,6.216,6.216,0,0,1-2.094.828c-1.755.252-4.346.973-5.737-.528-.431-.465.01-1.325.143-1.854l.181-.18a2.843,2.843,0,0,1,1.55.4c.723.036,1.806-2.2,1.3-2.563-1.733.471-3.573,0-5.305-.145a8.778,8.778,0,0,1-3.1-.969,5.516,5.516,0,0,0-3.153-.741,3.609,3.609,0,0,0-2.429,2.1c-.153.322-.587.812-.341,1.168.288.072.5-.145.685-.36a4.648,4.648,0,0,1,3.469-.629c.416.079,1.995.528,2.365.671.248.095.409.341.662.425-.035.218-.323.29-.468.433a4.438,4.438,0,0,1-1.734.9c-1.688.593-3.375,1.5-5.206.953-.12-.036-1.218-.261-1.435-.622a3.086,3.086,0,0,0,.4-1.7.289.289,0,0,0-.36-.217,5.3,5.3,0,0,1-3.79,2.815,12.953,12.953,0,0,1-1.017-2.288,3.536,3.536,0,0,0-1.855-1.769c-.79-.326-1.543.612-1.935,1.163a8.089,8.089,0,0,0-1.041,2.39,4.5,4.5,0,0,0-.307,1.755c.106.753.916,1.011,1.567,1.131a7.218,7.218,0,0,0,1.767.16c.561-.036,1.1-.2,1.666-.232l.072.073A10.1,10.1,0,0,1,210.369,221.928Zm1.8-7.616c-.143-.541.253-.938.578-1.3.506-.434.94.108,1.372.324a3.924,3.924,0,0,1,1.047,1.625A3.654,3.654,0,0,1,212.173,214.312Z" transform="translate(14579.895 5277.263)"/><g transform="matrix(0.914, -0.407, 0.407, 0.914, 14894.18, 5497.854)"><path class="a" d="M10.274,4.619c-.08.007-.16.024-.24.036a7.66,7.66,0,0,1-.929.114.514.514,0,0,1-.328-.083,1.7,1.7,0,0,1-.645-.835.177.177,0,0,1,.07-.236.517.517,0,0,1,.826.178.861.861,0,0,1,.048.092.091.091,0,0,0,.138.051,1.3,1.3,0,0,0,.434-.279A.165.165,0,0,0,9.7,3.5a.517.517,0,0,0-.682-.452,4.23,4.23,0,0,0-1.393.677c-.239.175-.257.249-.141.532.068.166.156.324.234.483a.311.311,0,0,1-.221.048c-.716-.032-1.433-.063-2.149-.1a.928.928,0,0,1-.57-.227.565.565,0,0,1-.215-.307c-.024-.122-.028-.219.146-.244A4.175,4.175,0,0,1,5.571,3.8a.758.758,0,0,0,.707-.347c.066-.091.169-.159.1-.3s-.181-.131-.293-.134c-.2-.006-.406,0-.636,0a1.021,1.021,0,0,1,.775-.538c.468-.119.641-.048.884.375.077.134.138.131.239.056.065-.048.13-.1.19-.151A.366.366,0,0,0,7.6,2.184a.7.7,0,0,0-.666-.274A2.866,2.866,0,0,0,5.048,3.089a.683.683,0,0,1-.544.3,8.453,8.453,0,0,1-1.551-.106A1.374,1.374,0,0,1,2.4,3.09a.457.457,0,0,1-.209-.224c-.056-.151-.016-.23.15-.266.124-.027.25-.042.375-.064a3.624,3.624,0,0,0,1.275-.414.9.9,0,0,0,.345-.377A1.1,1.1,0,0,0,4.3.875C4.165.449,4.119.449,3.786.739a.367.367,0,0,0-.119.483,2.914,2.914,0,0,1,.106.366c.051.168-.017.253-.178.309a6.455,6.455,0,0,1-.817.116A3.031,3.031,0,0,1,1.15,1.821a.948.948,0,0,1-.481-.384A.328.328,0,0,1,.783.89,3.507,3.507,0,0,1,1.521.6c.107-.037.176.026.235.1A1.255,1.255,0,0,1,2,1.231c.032.172.111.181.236.088a2.682,2.682,0,0,0,.223-.164c.065-.06.159-.119.128-.227A3.347,3.347,0,0,0,2.353.171.272.272,0,0,0,2.015.012,2.687,2.687,0,0,0,.768.574C.588.736.4.89.216,1.05a.684.684,0,0,0-.169.73,1.239,1.239,0,0,0,.676.613,2.859,2.859,0,0,0,1.2.213,2.415,2.415,0,0,0-.167.268,1.183,1.183,0,0,0-.078.265.564.564,0,0,0,.294.574,3.613,3.613,0,0,0,.869.2,4.228,4.228,0,0,0,1.2.029c.035-.009.063.018.082.072a.892.892,0,0,0-.076.211c-.023.193-.1.416.031.571a1.131,1.131,0,0,0,.742.466A19.3,19.3,0,0,0,8.665,5.3a9.168,9.168,0,0,0,1.1-.116.94.94,0,0,0,.588-.395c.027-.039.055-.075.034-.125S10.317,4.615,10.274,4.619Z" transform="translate(0 0.238)"/><path class="a" d="M.456,1.085A1.834,1.834,0,0,1,1.17.615a.334.334,0,0,1,.5.2c.048.114.077.236.116.358a.793.793,0,0,0,.4-.217.42.42,0,0,0,.14-.52c-.141-.39-.4-.539-.78-.367A4.367,4.367,0,0,0,0,1.311L.011,1.4h0A1.605,1.605,0,0,0,.456,1.085Z" transform="translate(5.673 0)"/></g></g></g></svg>