<svg xmlns="http://www.w3.org/2000/svg" width="61.665" height="65.272" viewBox="0 0 61.665 65.272">
  <g id="شعار_وزارة_التجارة" data-name="شعار وزارة التجارة" transform="translate(-179.23 -151.44)">
    <g id="Group_14927" data-name="Group 14927" transform="translate(190.452 151.44)">
      <g id="Group_14924" data-name="Group 14924">
        <path id="Path_6745" data-name="Path 6745" d="M233.408,323.363l-.365.081-1.473,1.473a97.452,97.452,0,0,1,19.048-1.623,97.563,97.563,0,0,1,19.048,1.623l1.582-1.582a112.04,112.04,0,0,0-37.842.028Z" transform="translate(-231.57 -285.226)" fill="#086662"/>
        <path id="Path_6746" data-name="Path 6746" d="M233.1,189.644l.081-.365a98.463,98.463,0,0,0,1.623-18.995,99.722,99.722,0,0,0-1.582-18.845l-1.6,1.6a97.445,97.445,0,0,1,1.623,19.048,97.558,97.558,0,0,1-1.623,19.048Z" transform="translate(-231.617 -151.44)" fill="#086662"/>
      </g>
      <g id="Group_14926" data-name="Group 14926" transform="translate(2.095 0.122)">
        <g id="Group_14925" data-name="Group 14925">
          <path id="Path_6747" data-name="Path 6747" d="M278.815,152.01a113.709,113.709,0,0,1-37.475,0,100.525,100.525,0,0,1,1.567,18.737,99.438,99.438,0,0,1-1.567,18.737,113.705,113.705,0,0,1,37.475,0,100.536,100.536,0,0,1-1.554-18.738A100.453,100.453,0,0,1,278.815,152.01Zm-12.451,9.37-.013.081.082.013a.6.6,0,0,1,.487.7v.054l.041.028s.446.257.515.581a.373.373,0,0,1-.028.27,1.968,1.968,0,0,1-.352.028.877.877,0,0,1-.609-.148l-.013-.013h-.028a3.37,3.37,0,0,1-.986-.54l-.041-.041-.054.028a.731.731,0,0,1-.352.081,1,1,0,0,1-.675-.283l-.054-.054-.054.069a.235.235,0,0,1-.135.094c-.028.013-.054.013-.081.028a.181.181,0,0,1-.081.013h-.013a1.007,1.007,0,0,1-.594-.229l-.081-.054-.041.094c0,.013-.122.283-.69.283a1.808,1.808,0,0,1-.283-.028,10.093,10.093,0,0,0-1.46-.459c-.081-.013-.148-.028-.217-.041h.011a5.844,5.844,0,0,1,.635-.217c.352-.094.65-.163.65-.163h.013c.555-.27.663-.581.69-.729a1.021,1.021,0,0,0,.515-.122l.028-.013a2.7,2.7,0,0,1,.7-.148.36.36,0,0,1,.27.081.186.186,0,0,1,.041.176l-.013.135.122-.054a2.876,2.876,0,0,1,.851-.217.275.275,0,0,1,.217.069.253.253,0,0,1,0,.176l-.028.122.122-.028a2.031,2.031,0,0,1,.339-.028.8.8,0,0,1,.594.176A.3.3,0,0,1,266.364,161.38Zm-.8,4.824a4.132,4.132,0,0,1-.77-1.081l-.028-.054-.054.013h-.041c-.148,0-.515-.069-.825-.716l-.041-.081-.069.054a.23.23,0,0,1-.122.028.5.5,0,0,1-.352-.176l-.069-.069a2.172,2.172,0,0,1-.257-.352l-.054-.107-.041.054-.028.041a.313.313,0,0,1-.257.107,1.221,1.221,0,0,1-.663-.283,14.458,14.458,0,0,0-1.231-1.231c-.081-.069-.163-.122-.229-.176-.054-.028-.107-.069-.148-.094a.013.013,0,0,1,.013-.013.4.4,0,0,1,.122.013,10.132,10.132,0,0,1,1.758.5h.013a1.225,1.225,0,0,0,.311.028.921.921,0,0,0,.785-.3,1.129,1.129,0,0,0,.635.217.046.046,0,0,1,.028-.013c-.013.041-.013.082-.028.122l-.041.107h.107c.217,0,.838.054.973.3a.278.278,0,0,1-.013.27l-.041.094.094.028a1.456,1.456,0,0,1,.785.555.459.459,0,0,1,.028.38l-.013.069.054.041a.962.962,0,0,1,.3,1.068l-.013.041.013.041c0,.013.54.81.242,1.216-.229-.081-.716-.311-.826-.609v-.013Zm-1.677.081a.551.551,0,0,1-.148.716l-.041.028.013.054a1.174,1.174,0,0,1-.069.663.24.24,0,0,1-.176.122,1.427,1.427,0,0,1-.446-.744V167.1l-.013-.028a3.128,3.128,0,0,1-.217-.986l-.013-.054L262.74,166a.885.885,0,0,1-.433-.826v-.081h-.069c-.013,0-.339-.028-.418-.7l-.013-.094-.094.028s-.3.094-.675-.54a8.771,8.771,0,0,0-.594-1.419,13.3,13.3,0,0,1,1.338,1.312l.013.013a1.466,1.466,0,0,0,.757.311.519.519,0,0,0,.3-.094,1.616,1.616,0,0,0,.2.283c-.013.013-.028.013-.041.028l-.107.081.107.069c.283.163.69.487.675.65,0,.041-.028.081-.094.107l-.107.054.094.081c.122.122.433.474.418.716a.3.3,0,0,1-.081.2l-.069.041Zm-7.436.7a.53.53,0,0,1-.148-.716l.041-.069-.069-.041a.207.207,0,0,1-.107-.176c-.013-.242.3-.594.418-.716l.094-.081-.107-.054c-.054-.041-.094-.069-.094-.107-.013-.163.392-.487.663-.65l.107-.069-.107-.081a.067.067,0,0,1-.041-.028,2.7,2.7,0,0,0,.2-.283.475.475,0,0,0,.3.094,1.377,1.377,0,0,0,.757-.311l.013-.013a14.822,14.822,0,0,1,1.353-1.338,11.8,11.8,0,0,0-.594,1.419c-.38.635-.675.54-.675.54l-.081-.028-.013.107c-.081.675-.405.7-.418.7h-.082v.081a.884.884,0,0,1-.433.826l-.041.013v.054a3.054,3.054,0,0,1-.229.986v.054c.013.189-.257.54-.446.744a.378.378,0,0,1-.163-.122,1.016,1.016,0,0,1-.069-.663l.013-.054Zm-2.434-1.46a.947.947,0,0,1,.3-1.068l.054-.041-.013-.069a.515.515,0,0,1,.028-.38c.176-.364.785-.555.785-.555l.081-.028-.041-.094a.278.278,0,0,1-.013-.27c.135-.242.744-.3.973-.3h.107l-.041-.107c0-.041-.013-.081-.013-.122.013,0,.028.013.041.013a1.087,1.087,0,0,0,.609-.217.928.928,0,0,0,.785.3,2.351,2.351,0,0,0,.311-.028h.013a10.007,10.007,0,0,1,1.758-.5.162.162,0,0,1,.148.028h.013a.945.945,0,0,0-.148.094,2.346,2.346,0,0,0-.229.176,14.151,14.151,0,0,0-1.231,1.231,1.259,1.259,0,0,1-.663.283.281.281,0,0,1-.242-.107l-.028-.054-.041-.069-.069.107a2.172,2.172,0,0,1-.257.352c-.028.028-.041.054-.069.069a.5.5,0,0,1-.339.176.229.229,0,0,1-.122-.028l-.081-.054-.041.081c-.311.65-.675.716-.825.716h-.041l-.054-.013-.028.054a4.376,4.376,0,0,1-.785,1.081l-.028.028c-.107.3-.594.527-.825.609-.3-.405.242-1.2.242-1.216l.028-.041Zm3.57,8.99h2.123l-.446-1.96.352-.352-.446-1.771.352-.176-.459-1.934.418-.311-.365-1.649.418-.229-.27-1.46.352-.229-.054-1.582v-.013a1.459,1.459,0,0,1,.129-.317,1.537,1.537,0,0,1,.371-.467,1.887,1.887,0,0,1,.5.8l-.054,1.582.352.229-.257,1.46.418.229-.365,1.649.418.311-.459,1.934.352.176-.446,1.771.352.352-.392,1.947h2.082s.27.107.189.324a5.735,5.735,0,0,1-1.271,1.244c-.094-.054-.094-.459-.148-.54-.054-.054-.5.433-.716.555a2.532,2.532,0,0,0-.54-.459c-.324.2-.675.459-.675.459-.217-.107-.527-.594-.568-.54-.069.081-.069.487-.148.54a5.733,5.733,0,0,1-1.271-1.244C257.32,174.641,257.59,174.519,257.59,174.519ZM264.4,158.7l.028.081.082-.041a.464.464,0,0,1,.189-.041.485.485,0,0,1,.433.311l.028.041h.094a.848.848,0,0,1,.555.176.265.265,0,0,1,.069.189,1.54,1.54,0,0,1-.69.365c-.013,0-.041-.013-.054-.013h-.041a2.31,2.31,0,0,1-.663.094,1.725,1.725,0,0,1-.257-.013l-.054-.013-.028.041a.754.754,0,0,1-.663.352.707.707,0,0,1-.163-.013l-.082-.013-.013.081a.359.359,0,0,1-.107.176.273.273,0,0,1-.069.054.535.535,0,0,1-.176.081c-.028,0-.041.013-.069.013a1.725,1.725,0,0,1-.27.013h-.094v.028l.013.081v.013c0,.041-.028.339-.594.622-.081.028-.635.148-1.136.324-.144.054-.292.118-.41.172a.013.013,0,0,0,0-.009.013.013,0,0,0,.013-.013,2.12,2.12,0,0,1,.176-.2c.339-.339.77-.69.77-.69l.013-.013a1.027,1.027,0,0,0,.3-.826.692.692,0,0,0,.446-.609.85.85,0,0,0,.38-.27h.028c.041,0,.094.013.135.107l.054.122.081-.107c.176-.242.5-.622.675-.622.013,0,.069,0,.094.122l.028.135.094-.081a1.3,1.3,0,0,1,.65-.352A.213.213,0,0,1,264.4,158.7Zm-3.392.244.094.094.028-.135c.069-.352.229-.744.352-.744a.145.145,0,0,1,.054.054l.081.107.041-.122c.054-.135.27-.54.459-.54a.134.134,0,0,1,.107.054l.069.054.054-.069a.381.381,0,0,1,.283-.148.5.5,0,0,1,.27.107l.041.028.041-.028a.908.908,0,0,1,.392-.122.246.246,0,0,1,.229.135c-.094.217-.283.527-.433.555h-.028l-.013.013a1.907,1.907,0,0,1-.69.433l-.054.013v.054a.53.53,0,0,1-.107.283.706.706,0,0,1-.392.283l-.028.013-.054.013.013.028.013.054v.054a.434.434,0,0,1-.135.283,1.039,1.039,0,0,1-.283.2l-.069.028-.013.013v.013l.041.069c0,.013.122.242-.242.716-.041.041-.311.257-.581.515a1.853,1.853,0,0,0-.163.176c-.054.054-.107.122-.163.176.013-.028.013-.054.028-.094a26.064,26.064,0,0,0,.675-2.663A.158.158,0,0,1,261.01,158.946Zm-1.623-.609h.054l-.013-.094a2.116,2.116,0,0,1,.094-1.216c.013-.028.054-.028.054-.028a.1.1,0,0,1,.054.013l.094.054.013-.107a2,2,0,0,1,.352-.851,2.086,2.086,0,0,1,.352.851l.028.107.094-.054c.013,0,.041-.013.054-.013s.028,0,.054.028a2.4,2.4,0,0,1,.094,1.216l-.013.094h.069a1.6,1.6,0,0,1-.041.446c-.013.041-.013.094-.028.135a.388.388,0,0,0,0,.217c-.122.555-.324,1.325-.54,2.095,0,.013-.013.041-.013.054a1.556,1.556,0,0,0-.069.229.046.046,0,0,0-.013.028v-.028c-.028-.081-.041-.148-.069-.229,0-.013-.013-.041-.013-.054-.229-.77-.418-1.542-.54-2.095-.013-.081-.028-.148-.041-.217a.631.631,0,0,1-.028-.135A1.636,1.636,0,0,1,259.387,158.337Zm-2.609-.8a.908.908,0,0,1,.392.122l.041.028.041-.028a.484.484,0,0,1,.27-.107.381.381,0,0,1,.283.148l.054.069.069-.054a.124.124,0,0,1,.107-.054c.189,0,.405.392.459.54l.054.122.081-.107a.1.1,0,0,1,.081-.054c.094,0,.242.392.324.744l.028.135.094-.094a.177.177,0,0,1,.094-.041c.148.785.487,2,.65,2.691.013.028.013.069.028.094-.054-.054-.107-.122-.163-.176a2.618,2.618,0,0,0-.189-.189c-.27-.257-.527-.474-.581-.515-.364-.474-.242-.7-.242-.7l.054-.081v-.013l-.013-.013-.069-.028a1,1,0,0,1-.283-.2.469.469,0,0,1-.135-.283v-.054l.013-.054.013-.028-.054-.013-.028-.013a.859.859,0,0,1-.392-.3.6.6,0,0,1-.107-.283l-.013-.054-.041-.013a2.112,2.112,0,0,1-.69-.433l-.013-.013h-.013c-.135-.028-.324-.339-.433-.555A.214.214,0,0,1,256.778,157.54Zm-2.446,1.69a.857.857,0,0,1,.568-.176h.094l.028-.054a.5.5,0,0,1,.433-.311.464.464,0,0,1,.189.041l.081.041.028-.081a.2.2,0,0,1,.2-.148c.27,0,.65.352.662.352l.094.081.041-.135c.028-.122.081-.122.094-.122.163,0,.5.379.675.622l.081.107.054-.122c.041-.094.094-.107.135-.107h.013a.94.94,0,0,0,.379.27c0,.135.054.392.446.609a1.033,1.033,0,0,0,.3.826l.013.013a6.9,6.9,0,0,1,.77.69c.054.069.122.135.176.2,0,.013,0,.013-.028.028v.013a2.879,2.879,0,0,0-.418-.176,7.408,7.408,0,0,0-1.121-.324c-.568-.27-.594-.581-.594-.622v-.013l.013-.081v-.028h-.094a.908.908,0,0,1-.27-.013c-.028,0-.041-.013-.069-.013a1.057,1.057,0,0,1-.176-.081.626.626,0,0,0-.069-.054.441.441,0,0,1-.107-.176l-.013-.081-.069.013a.688.688,0,0,1-.163.013.773.773,0,0,1-.65-.352l-.028-.041-.054.013c-.081,0-.163.013-.257.013a2.35,2.35,0,0,1-.675-.094h-.041a.083.083,0,0,1-.054.013,1.487,1.487,0,0,1-.69-.365A.339.339,0,0,1,254.331,159.229Zm-1.662,3.609a1.233,1.233,0,0,1,.515-.581l.041-.028v-.054a.6.6,0,0,1,.487-.7l.081-.013v-.081a.263.263,0,0,1,.054-.229.822.822,0,0,1,.594-.176,2.34,2.34,0,0,1,.352.028l.122.028-.028-.122a.242.242,0,0,1,.013-.176.272.272,0,0,1,.217-.069,2.855,2.855,0,0,1,.851.217l.122.054-.013-.135c0-.094,0-.148.041-.189a.34.34,0,0,1,.27-.081,2.42,2.42,0,0,1,.69.148l.028.013a.92.92,0,0,0,.5.122c.028.163.135.459.69.729h.028s.283.069.635.163c.2.069.433.135.635.217h.013l-.2.041c-.635.148-1.379.433-1.473.459a1.076,1.076,0,0,1-.283.028c-.568,0-.69-.283-.69-.283l-.028-.094-.081.054a1.107,1.107,0,0,1-.594.229h-.013c-.028,0-.054-.013-.081-.013s-.054-.013-.081-.028a.513.513,0,0,1-.148-.094l-.054-.069-.054.054a.974.974,0,0,1-.663.283.8.8,0,0,1-.352-.081l-.041-.028-.041.041a3.063,3.063,0,0,1-.986.54h-.028l-.041.028a.856.856,0,0,1-.594.148,1.925,1.925,0,0,1-.365-.028A.3.3,0,0,1,252.67,162.838ZM265.3,177.48a43.758,43.758,0,0,0-4.16,3.182c.686.63,1.385,1.319,2.078,2.063l.069-.069a.09.09,0,0,1,.135,0,.128.128,0,0,1,.028.094.341.341,0,0,0,.107-.148.453.453,0,0,1,.135-.5.417.417,0,0,1,.609,0,.433.433,0,0,1-.082.594.462.462,0,0,1-.405.107.365.365,0,0,0-.041.3,1.945,1.945,0,0,0,1.608.757,1.672,1.672,0,0,0,1.3-.635.678.678,0,0,1,1.04.013c.77,1.121-.81,2.123-1.893,2.151a4.232,4.232,0,0,1-2.907-1.177c-.122-.135-.2-.189-.311-.135-.054.028-.082.122-.107.217a.479.479,0,0,1-.163.405.44.44,0,0,1-.609,0,.433.433,0,0,1,.069-.609.544.544,0,0,1,.339-.122c.013,0,.028-.013.041-.013a.067.067,0,0,1-.041-.028.09.09,0,0,1,0-.135l.148-.148c-.281-.281-1.087-1.07-2.2-2.065-1.111.993-1.915,1.784-2.2,2.065l.163.148a.09.09,0,0,1,0,.135c-.013.013-.028.028-.041.028.013,0,.028.013.041.013a.522.522,0,0,1,.339.122.41.41,0,1,1-.54.609.479.479,0,0,1-.163-.405.3.3,0,0,0-.107-.217c-.107-.054-.189,0-.3.135a4.23,4.23,0,0,1-2.892,1.177c-1.136-.028-2.7-1.027-1.934-2.151a.679.679,0,0,1,1.04-.013,1.655,1.655,0,0,0,1.3.635,1.937,1.937,0,0,0,1.6-.757.364.364,0,0,0-.041-.3.462.462,0,0,1-.405-.107.4.4,0,1,1,.54-.594.453.453,0,0,1,.135.5.535.535,0,0,0,.107.148.123.123,0,0,1,.028-.094.09.09,0,0,1,.135,0l.069.069c.693-.744,1.392-1.432,2.078-2.063a44.034,44.034,0,0,0-4.16-3.182c-4.61-3.068-8.083-2.772-8.083-2.772,2.609-.973,5.894-.028,7.382.81a38.133,38.133,0,0,1,5.913,4.207A38.2,38.2,0,0,1,266,175.518c1.488-.838,4.773-1.784,7.382-.81C273.38,174.708,269.906,174.412,265.3,177.48Z" transform="translate(-241.34 -152.01)" fill="#086662"/>
        </g>
      </g>
    </g>
    <g id="Group_14928" data-name="Group 14928" transform="translate(180.066 197.395)">
      <path id="Path_6748" data-name="Path 6748" d="M185.157,372.836l1.154.695.5-.819-1.209-.723-.388.639-1.124-.708-.5.86,1.22.71Z" transform="translate(-183.491 -370.601)" fill="#086662"/>
      <path id="Path_6749" data-name="Path 6749" d="M186.406,384.746c-.084-.069-.279-.236-.6-.459a3.033,3.033,0,0,1-.6-.527l-.958,1.25a4.477,4.477,0,0,0-1.123,2.178.693.693,0,0,0,.472.68,1.63,1.63,0,0,0,.875.111,2.491,2.491,0,0,0,1.319-.527,2.768,2.768,0,0,0,.583-.611,3.346,3.346,0,0,0,.416-1.235A1.111,1.111,0,0,0,186.406,384.746Zm-.665,1.917a3.018,3.018,0,0,1-1.151.249c-.4,0-.6-.167-.6-.5a.731.731,0,0,1,.084-.319c.3-.444.568-.806.791-1.083.735.459,1.126.86,1.139,1.22A.452.452,0,0,1,185.742,386.663Z" transform="translate(-183.13 -379.903)" fill="#086662"/>
      <path id="Path_6750" data-name="Path 6750" d="M201.767,387.07c-.139.611-.223,1.027-.277,1.263.931.667,1.387,1.194,1.387,1.582a2.958,2.958,0,0,1-1.139,1.9,3.12,3.12,0,0,1-1.943,1.1,2.678,2.678,0,0,1-.971-.251,6.152,6.152,0,0,0-.652-.251.074.074,0,0,0-.084.084q0,.27,1.124.708a4.9,4.9,0,0,0,1.486.388,2.165,2.165,0,0,0,1.694-1.166,4.186,4.186,0,0,0,.888-2.374,3.611,3.611,0,0,0-.459-1.915A5.018,5.018,0,0,0,201.767,387.07Z" transform="translate(-194.882 -382.503)" fill="#086662"/>
      <path id="Path_6751" data-name="Path 6751" d="M272.34,410.594l1.136.708.5-.845-1.136-.667Z" transform="translate(-253.212 -400.352)" fill="#086662"/>
      <path id="Path_6752" data-name="Path 6752" d="M297.99,389.59Z" transform="translate(-273.363 -384.483)" fill="#086662"/>
      <path id="Path_6753" data-name="Path 6753" d="M297.124,374.716l1.166.695.5-.819-1.207-.723-.388.639-1.126-.708-.5.86,1.194.695Z" transform="translate(-271.461 -372.078)" fill="#086662"/>
      <path id="Path_6754" data-name="Path 6754" d="M249.965,367.241c-.292-.152-.6-.32-.9-.487a.185.185,0,0,1-.124-.167.4.4,0,0,1,.056-.18.437.437,0,0,0,.056-.18c0-.041-.028-.084-.1-.1-.041-.041-.124.028-.223.208l-.54.943a.581.581,0,0,0-.069.251.359.359,0,0,0,.2.3l.069.028a38.73,38.73,0,0,1,.611,4.676c0,.167-.013.251-.041.251h-2.629c-.124,0-.2-.041-.208-.124,0-.013.013-.111.041-.3a12.458,12.458,0,0,0,.236-1.958c0-.069,0-.111-.013-.124a14.6,14.6,0,0,0-.943,1.139l-.028,1.374h-5.135l-.111-.069a.573.573,0,0,1-.264-.5,3.914,3.914,0,0,1,1.679-.292,3.169,3.169,0,0,1,.375.013c.208-.472.36-.832.444-1.083-.056,0-.167,0-.36.013h-.347a10.134,10.134,0,0,1-2.5-.5,6.977,6.977,0,0,0-1.666-.347q-.917,0-1.415,1.166a1.37,1.37,0,0,0-.111.459.052.052,0,0,1,.013.041,2.216,2.216,0,0,1,1.166-.54l.568.124q1.187.251,1.79.375A4.17,4.17,0,0,1,237,372.794h-6.3a.734.734,0,0,1-.555-.167l-.1-.1a26.75,26.75,0,0,1-.332-2.832l-.332-3.928c-.3.416-.54.723-.68.915q.312,3.393.527,7.161h7.745a1.628,1.628,0,0,0,1.207-.472,4.831,4.831,0,0,1,.639-.472,3.242,3.242,0,0,0,.639-.487,5.8,5.8,0,0,0,.139.847c.1.375.264.568.515.568H244.8c.056,0,.152-.111.277-.319s.208-.319.236-.319.069.084.139.223a.732.732,0,0,0,.18.264.716.716,0,0,0,.416.139H249.1c.1,0,.208-.277.3-.819a6.784,6.784,0,0,0,.139-1.166l-.347-3.5a1.137,1.137,0,0,0,.152.041Z" transform="translate(-218.929 -365.77)" fill="#086662"/>
      <path id="Path_6755" data-name="Path 6755" d="M335.63,365.84a3.91,3.91,0,0,0-.776,1.805c.277,2.609.5,4.831.652,6.677a5.414,5.414,0,0,0,.487-1.79l-.139-3.317C335.741,367.032,335.673,365.909,335.63,365.84Z" transform="translate(-302.319 -365.825)" fill="#086662"/>
      <path id="Path_6756" data-name="Path 6756" d="M368.757,372.836l1.151.695.5-.819-1.194-.723-.4.639-1.111-.708-.512.86,1.22.71Z" transform="translate(-327.725 -370.601)" fill="#086662"/>
      <path id="Path_6757" data-name="Path 6757" d="M370.006,384.746c-.084-.069-.279-.236-.6-.459a3.034,3.034,0,0,1-.6-.527l-.958,1.25a4.476,4.476,0,0,0-1.123,2.178.693.693,0,0,0,.472.68,1.63,1.63,0,0,0,.875.111,2.491,2.491,0,0,0,1.319-.527,2.721,2.721,0,0,0,.583-.611,3.347,3.347,0,0,0,.416-1.235A1.111,1.111,0,0,0,370.006,384.746Zm-.652,1.917a3.01,3.01,0,0,1-1.151.249c-.4,0-.6-.167-.6-.5a.757.757,0,0,1,.081-.319c.3-.444.568-.806.791-1.083.738.459,1.126.86,1.139,1.22A.5.5,0,0,1,369.354,386.663Z" transform="translate(-327.364 -379.903)" fill="#086662"/>
      <path id="Path_6758" data-name="Path 6758" d="M385.367,387.07c-.139.611-.223,1.027-.277,1.263.931.667,1.387,1.194,1.387,1.582a2.958,2.958,0,0,1-1.138,1.9,3.12,3.12,0,0,1-1.943,1.1,2.678,2.678,0,0,1-.971-.251,6.163,6.163,0,0,0-.652-.251.074.074,0,0,0-.084.084q0,.27,1.124.708a4.9,4.9,0,0,0,1.486.388,2.2,2.2,0,0,0,1.707-1.166,4.186,4.186,0,0,0,.888-2.374,3.612,3.612,0,0,0-.459-1.915A5.525,5.525,0,0,0,385.367,387.07Z" transform="translate(-339.116 -382.503)" fill="#086662"/>
      <path id="Path_6759" data-name="Path 6759" d="M413.91,365.84a3.909,3.909,0,0,0-.776,1.805c.277,2.609.5,4.831.652,6.677a5.416,5.416,0,0,0,.487-1.79l-.139-3.317C414.034,367.032,413.953,365.909,413.91,365.84Z" transform="translate(-363.814 -365.825)" fill="#086662"/>
      <path id="Path_6760" data-name="Path 6760" d="M424.147,388.138a4.342,4.342,0,0,0-1.04-1.068c-.139.611-.223,1.027-.277,1.263.931.667,1.387,1.194,1.387,1.582a2.958,2.958,0,0,1-1.139,1.9,3.119,3.119,0,0,1-1.943,1.1,2.678,2.678,0,0,1-.971-.251,6.166,6.166,0,0,0-.652-.251.074.074,0,0,0-.084.084q0,.27,1.124.708a4.9,4.9,0,0,0,1.486.388,2.2,2.2,0,0,0,1.707-1.166,4.185,4.185,0,0,0,.888-2.373A3.975,3.975,0,0,0,424.147,388.138Z" transform="translate(-368.764 -382.503)" fill="#086662"/>
      <path id="Path_6761" data-name="Path 6761" d="M431.331,374.235l-1.166-.695-.515.832,1.181.708Z" transform="translate(-376.793 -371.874)" fill="#086662"/>
      <path id="Path_6762" data-name="Path 6762" d="M446.907,385.744c-.277-.54-.512-.8-.72-.8-.3,0-.654.319-1.055.956a2.825,2.825,0,0,0-.54,1.415,1.918,1.918,0,0,0,.18.832.757.757,0,0,0,.654.487,1.331,1.331,0,0,0,.723-.084,2.006,2.006,0,0,0,.693-.943,2.031,2.031,0,0,1,.084.639,2.611,2.611,0,0,1-.986,1.79,5.689,5.689,0,0,1-1.915,1.263,1.475,1.475,0,0,1-.459.069,3.662,3.662,0,0,1-.693-.111,2.756,2.756,0,0,0-.68-.111c-.1,0-.152.043-.152.111,0,.139.388.277,1.179.459a11.162,11.162,0,0,0,1.458.236,1.652,1.652,0,0,0,1.235-.583,3.873,3.873,0,0,0,.832-1.166,6.3,6.3,0,0,0,.611-2.736A3.553,3.553,0,0,0,446.907,385.744Zm-.958,1.775a1.7,1.7,0,0,1-.583-.111c-.251-.1-.375-.221-.39-.388a.841.841,0,0,1,.3-.542.815.815,0,0,1,.527-.3.734.734,0,0,1,.555.431,1.51,1.51,0,0,1,.208.723C446.489,387.464,446.268,387.519,445.949,387.519Z" transform="translate(-386.527 -380.83)" fill="#086662"/>
    </g>
    <g id="Group_14929" data-name="Group 14929" transform="translate(179.23 210.56)">
      <path id="Path_6763" data-name="Path 6763" d="M180.116,427.83l1.312,3.471,1.34-3.471h.883v4.6h-.768V429.26l-1.222,3.173h-.506L180,429.26v3.173h-.768v-4.6Z" transform="translate(-179.23 -427.689)" fill="#086662"/>
      <path id="Path_6764" data-name="Path 6764" d="M202.64,429.1v3.33h.755V429.1Zm0-1.274v.65h.755v-.65Z" transform="translate(-197.621 -427.689)" fill="#086662"/>
      <path id="Path_6765" data-name="Path 6765" d="M208.7,433.591h.768v.272a1.579,1.579,0,0,1,.467-.247,1.766,1.766,0,0,1,.988-.013,1.062,1.062,0,0,1,.352.208.952.952,0,0,1,.221.326,1.09,1.09,0,0,1,.077.416v2.367h-.755v-2.3a.641.641,0,0,0-.118-.429.443.443,0,0,0-.326-.131.785.785,0,0,0-.352.077,1.084,1.084,0,0,0-.285.2,1.047,1.047,0,0,0-.2.272.7.7,0,0,0-.064.326v1.99h-.78v-3.33Z" transform="translate(-202.381 -432.174)" fill="#086662"/>
      <path id="Path_6766" data-name="Path 6766" d="M224.84,429.1v3.33h.755V429.1Zm0-1.274v.65h.755v-.65Z" transform="translate(-215.061 -427.689)" fill="#086662"/>
      <path id="Path_6767" data-name="Path 6767" d="M231.6,435.807a.943.943,0,0,0,.051.3.692.692,0,0,0,.131.2.591.591,0,0,0,.182.118.743.743,0,0,0,.234.039,1.472,1.472,0,0,0,.221-.026.99.99,0,0,0,.208-.064.326.326,0,0,0,.157-.144.375.375,0,0,0,.064-.221.4.4,0,0,0-.064-.208.536.536,0,0,0-.157-.144c-.066-.039-.144-.077-.234-.118s-.182-.064-.272-.105c-.144-.051-.285-.105-.429-.157a1.489,1.489,0,0,1-.377-.2.891.891,0,0,1-.272-.272.634.634,0,0,1-.105-.39.714.714,0,0,1,.105-.39.77.77,0,0,1,.272-.272,1.271,1.271,0,0,1,.4-.169,1.979,1.979,0,0,1,.48-.051,2.315,2.315,0,0,1,.521.051,1.363,1.363,0,0,1,.416.182.915.915,0,0,1,.285.313,1.177,1.177,0,0,1,.118.442h-.755a.9.9,0,0,0-.064-.221.641.641,0,0,0-.131-.144.407.407,0,0,0-.169-.077,1.02,1.02,0,0,0-.208-.026.572.572,0,0,0-.365.105.306.306,0,0,0-.131.259.353.353,0,0,0,.064.2.535.535,0,0,0,.157.144,2.349,2.349,0,0,0,.234.118c.09.039.182.064.272.105l.429.157a1.488,1.488,0,0,1,.377.2.857.857,0,0,1,.272.259.663.663,0,0,1,.105.352.875.875,0,0,1-.118.467,1.054,1.054,0,0,1-.313.326,1.6,1.6,0,0,1-.455.182,2.468,2.468,0,0,1-.547.051,1.7,1.7,0,0,1-.521-.077,1.115,1.115,0,0,1-.429-.221.993.993,0,0,1-.3-.365,1.233,1.233,0,0,1-.131-.508h.78v.011Z" transform="translate(-219.758 -432.166)" fill="#086662"/>
      <path id="Path_6768" data-name="Path 6768" d="M246.381,429.287v.95h.493v.521h-.493v2.028a.374.374,0,0,0,.064.247.214.214,0,0,0,.157.064.465.465,0,0,0,.118-.013c.051-.013.144-.026.247-.039v.493a1.876,1.876,0,0,1-.285.052,1.967,1.967,0,0,1-.259.026,1.1,1.1,0,0,1-.3-.039.693.693,0,0,1-.247-.118.529.529,0,0,1-.169-.208.79.79,0,0,1-.064-.313v-2.2h-.534v-.521h.493v-.95h.78v.017Z" transform="translate(-230.985 -428.82)" fill="#086662"/>
      <path id="Path_6769" data-name="Path 6769" d="M255.71,433.591h.675l.039.3a.762.762,0,0,1,.326-.259.828.828,0,0,1,.39-.09,1,1,0,0,1,.157.026,1.09,1.09,0,0,1,.2.051v.624a1.978,1.978,0,0,0-.377-.118.6.6,0,0,0-.272.064.564.564,0,0,0-.208.182.821.821,0,0,0-.131.259,1.228,1.228,0,0,0-.039.313v1.99h-.755v-3.341Z" transform="translate(-239.312 -432.174)" fill="#086662"/>
      <path id="Path_6770" data-name="Path 6770" d="M265.987,436.055l.78-2.275h.78l-1.4,4.005a1.658,1.658,0,0,1-.169.339.864.864,0,0,1-.221.221.908.908,0,0,1-.247.131.82.82,0,0,1-.247.039,1.35,1.35,0,0,1-.221-.013,1.506,1.506,0,0,1-.272-.077v-.56l.118.039a1.02,1.02,0,0,1,.131.051c.039.013.077.026.105.039a.19.19,0,0,0,.077.013.093.093,0,0,0,.077-.052.429.429,0,0,0,.077-.118c.026-.051.039-.09.064-.144a.608.608,0,0,0,.051-.144l.144-.442-1.222-3.315h.806Z" transform="translate(-246.131 -432.363)" fill="#086662"/>
      <path id="Path_6771" data-name="Path 6771" d="M289.851,434.632a1.419,1.419,0,0,0-.313-.547,1.613,1.613,0,0,0-.506-.365,1.653,1.653,0,0,0-.69-.131,1.61,1.61,0,0,0-.688.131,1.254,1.254,0,0,0-.5.365,1.446,1.446,0,0,0-.313.547,2.232,2.232,0,0,0-.105.663,2.058,2.058,0,0,0,.105.665,1.9,1.9,0,0,0,.313.547,1.4,1.4,0,0,0,.5.365,1.644,1.644,0,0,0,.688.131,1.615,1.615,0,0,0,.69-.131,1.537,1.537,0,0,0,.506-.365,1.447,1.447,0,0,0,.313-.547,2.149,2.149,0,0,0,0-1.327Zm-.729,1.13a1.1,1.1,0,0,1-.169.377.867.867,0,0,1-.272.259.728.728,0,0,1-.7,0,.965.965,0,0,1-.259-.259,1.1,1.1,0,0,1-.169-.377,1.809,1.809,0,0,1-.054-.47,2.665,2.665,0,0,1,.054-.467,1.085,1.085,0,0,1,.169-.377.717.717,0,0,1,.259-.259.651.651,0,0,1,.352-.09.639.639,0,0,1,.349.09,1.009,1.009,0,0,1,.272.259,1.086,1.086,0,0,1,.169.377,1.966,1.966,0,0,1,.064.467A1.8,1.8,0,0,1,289.122,435.762Z" transform="translate(-263.689 -432.213)" fill="#086662"/>
      <path id="Path_6772" data-name="Path 6772" d="M303.849,428.587v-.729a.636.636,0,0,1,.051-.272.651.651,0,0,1,.169-.221.869.869,0,0,1,.259-.144,1.01,1.01,0,0,1,.352-.052,1.025,1.025,0,0,1,.545.169v.508c-.105-.039-.2-.077-.272-.105a.538.538,0,0,0-.118-.039.21.21,0,0,0-.156.051.26.26,0,0,0-.064.182v.65h.56v.534h-.56v2.8h-.768v-2.8H303.3v-.534Z" transform="translate(-276.698 -427.17)" fill="#086662"/>
      <path id="Path_6773" data-name="Path 6773" d="M321.48,429.556a2.832,2.832,0,0,0,.118.871,1.78,1.78,0,0,0,.313.611,1.45,1.45,0,0,0,.442.364,1.22,1.22,0,0,0,.508.118,1.15,1.15,0,0,0,.48-.105,1.361,1.361,0,0,0,.637-.688,2.711,2.711,0,0,0,.156-.455h.768a2.891,2.891,0,0,1-.234.688,1.818,1.818,0,0,1-.416.56,2.053,2.053,0,0,1-.6.377,2.151,2.151,0,0,1-.78.144,2.123,2.123,0,0,1-.883-.169,1.836,1.836,0,0,1-.675-.493,2.132,2.132,0,0,1-.429-.78,3.29,3.29,0,0,1-.157-1.053,3.147,3.147,0,0,1,.064-.6,2.224,2.224,0,0,1,.2-.56,1.833,1.833,0,0,1,.313-.48,2.1,2.1,0,0,1,.429-.39,1.789,1.789,0,0,1,.534-.247,2.007,2.007,0,0,1,.637-.09,2.423,2.423,0,0,1,.78.118,1.941,1.941,0,0,1,1.027.806,2.361,2.361,0,0,1,.259.611h-.78a1.634,1.634,0,0,0-.493-.755,1.2,1.2,0,0,0-.793-.247,1.143,1.143,0,0,0-.56.144,1.6,1.6,0,0,0-.442.4,2.009,2.009,0,0,0-.285.585,1.622,1.622,0,0,0-.135.71Z" transform="translate(-290.391 -427.178)" fill="#086662"/>
      <path id="Path_6774" data-name="Path 6774" d="M345.581,434.632a1.419,1.419,0,0,0-.313-.547,1.567,1.567,0,0,0-.506-.365,1.649,1.649,0,0,0-.688-.131,1.614,1.614,0,0,0-.69.131,1.254,1.254,0,0,0-.5.365,1.446,1.446,0,0,0-.313.547,2.232,2.232,0,0,0-.105.663,2.058,2.058,0,0,0,.105.665,1.9,1.9,0,0,0,.313.547,1.4,1.4,0,0,0,.5.365,1.654,1.654,0,0,0,.69.131,1.611,1.611,0,0,0,.688-.131,1.537,1.537,0,0,0,.506-.365,1.447,1.447,0,0,0,.313-.547,2.148,2.148,0,0,0,0-1.327Zm-.714,1.13a1.1,1.1,0,0,1-.169.377.89.89,0,0,1-.272.259.728.728,0,0,1-.7,0,1,1,0,0,1-.262-.259,1.146,1.146,0,0,1-.169-.377,1.812,1.812,0,0,1-.052-.47,1.928,1.928,0,0,1,.052-.467,1.127,1.127,0,0,1,.169-.377.722.722,0,0,1,.262-.259.651.651,0,0,1,.352-.09.639.639,0,0,1,.349.09,1.008,1.008,0,0,1,.272.259,1.086,1.086,0,0,1,.169.377,1.964,1.964,0,0,1,.064.467A1.8,1.8,0,0,1,344.867,435.762Z" transform="translate(-307.469 -432.213)" fill="#086662"/>
      <path id="Path_6775" data-name="Path 6775" d="M359.89,433.591h.755v.247a1.325,1.325,0,0,1,.87-.3,1.136,1.136,0,0,1,.467.105.317.317,0,0,0,.611.144,1.679,1.679,0,0,1,.259-.144,1.079,1.079,0,0,1,.272-.077,1.956,1.956,0,0,1,.272-.026,1.36,1.36,0,0,1,.467.077,1.15,1.15,0,0,1,.365.221.81.81,0,0,1,.234.326,1.082,1.082,0,0,1,.09.4v2.354H363.8V434.7a.761.761,0,0,0-.051-.313.474.474,0,0,0-.118-.2.607.607,0,0,0-.156-.105.774.774,0,0,0-.169-.026.586.586,0,0,0-.247.064.919.919,0,0,0-.221.169,1.292,1.292,0,0,0-.169.259.918.918,0,0,0-.064.326v2.028h-.755v-2.223a1.1,1.1,0,0,0-.039-.313.473.473,0,0,0-.118-.2.382.382,0,0,0-.144-.105.661.661,0,0,0-.157-.026.6.6,0,0,0-.3.077.9.9,0,0,0-.234.208,1.149,1.149,0,0,0-.157.272.8.8,0,0,0-.051.285v2H359.9v-3.3h-.006Z" transform="translate(-321.154 -432.174)" fill="#086662"/>
      <path id="Path_6776" data-name="Path 6776" d="M384.33,433.591h.755v.247a1.325,1.325,0,0,1,.87-.3,1.136,1.136,0,0,1,.467.105.317.317,0,0,0,.611.144,1.678,1.678,0,0,1,.259-.144,1.079,1.079,0,0,1,.272-.077,1.957,1.957,0,0,1,.272-.026,1.36,1.36,0,0,1,.467.077,1.174,1.174,0,0,1,.365.221.809.809,0,0,1,.234.326,1.082,1.082,0,0,1,.09.4v2.354h-.755V434.7a.761.761,0,0,0-.051-.313.473.473,0,0,0-.118-.2.608.608,0,0,0-.157-.105.772.772,0,0,0-.169-.026.586.586,0,0,0-.247.064.918.918,0,0,0-.221.169,1.292,1.292,0,0,0-.169.259.918.918,0,0,0-.064.326v2.028h-.755v-2.223a1.1,1.1,0,0,0-.039-.313.473.473,0,0,0-.118-.2.384.384,0,0,0-.144-.105.661.661,0,0,0-.157-.026.6.6,0,0,0-.3.077.9.9,0,0,0-.234.208,1.149,1.149,0,0,0-.157.272.8.8,0,0,0-.052.285v2h-.755v-3.3h-.006Z" transform="translate(-340.354 -432.174)" fill="#086662"/>
      <path id="Path_6777" data-name="Path 6777" d="M411.776,435.2a1.723,1.723,0,0,0-.105-.65,1.652,1.652,0,0,0-.313-.506,1.467,1.467,0,0,0-.493-.339,1.725,1.725,0,0,0-.65-.118,1.626,1.626,0,0,0-.675.144,1.563,1.563,0,0,0-.832.9,1.7,1.7,0,0,0-.118.637,1.905,1.905,0,0,0,.442,1.235,1.5,1.5,0,0,0,.508.39,1.628,1.628,0,0,0,.675.144,1.716,1.716,0,0,0,.506-.077,1.688,1.688,0,0,0,.455-.236,1.142,1.142,0,0,0,.352-.365,1.28,1.28,0,0,0,.208-.493h-.7a.806.806,0,0,1-.793.637.728.728,0,0,1-.326-.09.769.769,0,0,1-.259-.236.887.887,0,0,1-.182-.339,1.908,1.908,0,0,1-.075-.39h2.378Zm-.755-.234s0-.009,0-.013h-1.6a1.235,1.235,0,0,1,.079-.324.946.946,0,0,1,.169-.272,1.049,1.049,0,0,1,.247-.182.785.785,0,0,1,.3-.064.909.909,0,0,1,.324.064.686.686,0,0,1,.247.182.739.739,0,0,1,.169.272,1.313,1.313,0,0,1,.064.324h0v.013Z" transform="translate(-359.412 -432.213)" fill="#086662"/>
      <path id="Path_6778" data-name="Path 6778" d="M425.75,433.591h.675l.039.3a.762.762,0,0,1,.326-.259.828.828,0,0,1,.39-.09,1,1,0,0,1,.157.026,1.089,1.089,0,0,1,.2.051v.624a1.978,1.978,0,0,0-.377-.118.6.6,0,0,0-.272.064.564.564,0,0,0-.208.182.821.821,0,0,0-.131.259,1.23,1.23,0,0,0-.039.313v1.99h-.755v-3.341Z" transform="translate(-372.893 -432.174)" fill="#086662"/>
      <path id="Path_6779" data-name="Path 6779" d="M437.944,434.727a.879.879,0,0,0-.259-.48.626.626,0,0,0-.416-.144.608.608,0,0,0-.339.09.733.733,0,0,0-.247.246,1.322,1.322,0,0,0-.157.365,1.63,1.63,0,0,0-.051.429,1.918,1.918,0,0,0,.051.467,1.561,1.561,0,0,0,.157.4,1.034,1.034,0,0,0,.247.285.492.492,0,0,0,.326.105.541.541,0,0,0,.247-.064.476.476,0,0,0,.2-.169,1.129,1.129,0,0,0,.144-.247,2.02,2.02,0,0,0,.09-.3h.793a1.648,1.648,0,0,1-.156.547,1.38,1.38,0,0,1-.313.416,1.279,1.279,0,0,1-.455.259,1.621,1.621,0,0,1-.572.09,1.442,1.442,0,0,1-.688-.157,1.313,1.313,0,0,1-.467-.416,1.535,1.535,0,0,1-.272-.573,2.714,2.714,0,0,1-.09-.637,1.726,1.726,0,0,1,.118-.65,1.779,1.779,0,0,1,.313-.534,1.379,1.379,0,0,1,.493-.352,1.486,1.486,0,0,1,.637-.131,1.5,1.5,0,0,1,.56.09,1.154,1.154,0,0,1,.429.247,1.331,1.331,0,0,1,.3.365,1.933,1.933,0,0,1,.169.455h-.78v-.009Z" transform="translate(-380.718 -432.206)" fill="#086662"/>
      <path id="Path_6780" data-name="Path 6780" d="M455.136,435.2a1.723,1.723,0,0,0-.105-.65,1.653,1.653,0,0,0-.313-.506,1.468,1.468,0,0,0-.493-.339,1.725,1.725,0,0,0-.65-.118,1.626,1.626,0,0,0-.675.144,1.568,1.568,0,0,0-.506.365,1.6,1.6,0,0,0-.326.532,1.7,1.7,0,0,0-.118.637,1.912,1.912,0,0,0,.118.675,1.878,1.878,0,0,0,.326.56,1.468,1.468,0,0,0,.506.39,1.636,1.636,0,0,0,.675.144,1.715,1.715,0,0,0,.506-.077,1.687,1.687,0,0,0,.455-.236,1.159,1.159,0,0,0,.35-.365,1.281,1.281,0,0,0,.208-.493h-.7a.805.805,0,0,1-.793.637.711.711,0,0,1-.324-.09.755.755,0,0,1-.262-.236.857.857,0,0,1-.18-.339,1.9,1.9,0,0,1-.077-.39h2.378V435.2Zm-.755-.234s0-.009,0-.013h-1.6a1.233,1.233,0,0,1,.079-.324.946.946,0,0,1,.169-.272,1.1,1.1,0,0,1,.247-.182.775.775,0,0,1,.3-.064.908.908,0,0,1,.324.064.669.669,0,0,1,.247.182.738.738,0,0,1,.169.272,1.223,1.223,0,0,1,.064.324h0Z" transform="translate(-393.476 -432.213)" fill="#086662"/>
    </g>
  </g>
</svg>
