<svg xmlns="http://www.w3.org/2000/svg" xmlns:xlink="http://www.w3.org/1999/xlink" width="200" height="120" xmlns:v="https://vecta.io/nano"><style>.A{isolation:isolate}</style><g class="A"><g fill-rule="evenodd"><path d="M101.052 72.832c.075.001.135.061.136.136v6.435c-.001.075-.061.135-.136.136h-8.946c-.036.001-.071-.014-.097-.039s-.04-.061-.039-.097v-2.916c-.018-2.7 1.755-3.658 4.544-3.658zm-5.135 1.27h3.557c.043 0 .083.017.113.047s.047.071.047.113v3.847c0 .043-.017.083-.047.113s-.071.047-.113.047h-5.79c-.043 0-.083-.017-.113-.047s-.047-.071-.047-.113v-2.018c0-.91.626-1.991 2.393-1.991zm2.315-4.949c.322-.001.613.192.737.489s.056.64-.172.868-.57.296-.868.172-.491-.415-.489-.737a.79.79 0 0 1 .792-.792zm-2.636 0c.322-.001.613.192.737.489s.056.64-.172.868-.57.296-.868.172-.491-.415-.489-.737a.79.79 0 0 1 .794-.792zm28.884 10.524v1.767c-.018.431-.62.78-.969 1.087-.307.272-.307.479.36.42.851-.071 2.169-1.117 2.163-2.074v-7.912c.001-.036-.014-.071-.039-.097s-.061-.04-.097-.039h-4.538c-2.783 0-4.562.957-4.544 3.658V79.4c.001.037.016.072.043.097s.062.039.099.039h7.387c.037 0 .073.015.099.042s.04.063.039.1zm-3.717-5.578h3.557c.043 0 .083.017.113.047s.047.071.047.113v3.847c0 .043-.017.083-.047.113s-.071.047-.113.047h-5.782c-.043 0-.083-.017-.113-.047s-.047-.071-.047-.113v-2.015c0-.91.627-1.991 2.388-1.991zm-7.602-1.267h1.271c.037-.001.073.013.099.039s.042.061.043.097v6.258c0 3.114-1.861 3.829-2.836 3.965-.662.095-.8-.544-.23-.745.437-.154 1.513-.23 1.513-2.553v-6.928c0-.036.015-.071.042-.096s.062-.038.098-.037zm.674-3.676c.439 0 .795.356.795.795s-.356.795-.795.795-.795-.356-.795-.795.356-.795.795-.795zm-5.058-.006h1.275c.078.001.141.064.142.142v10.12c-.001.078-.064.141-.142.142h-1.276c-.037-.001-.072-.016-.097-.043s-.039-.062-.039-.099V69.289c-.001-.076.06-.139.136-.141zm-4.191 3.682h1.276c.036-.001.071.014.097.039s.04.061.039.097v6.258c0 3.114-1.855 3.829-2.831 3.965-.668.095-.8-.544-.23-.745.437-.154 1.507-.23 1.507-2.553v-6.928c.003-.076.066-.135.142-.133zM22.17 81.445c-.018.431-.62.78-.969 1.087-.307.272-.307.479.36.42.857-.071 2.171-1.12 2.171-2.075v-1.345h58.163c.037.001.073-.013.099-.039s.042-.061.043-.097V69.289c-.001-.078-.064-.141-.142-.142h-1.277c-.078.001-.141.064-.142.142v8.557c.001.036-.014.071-.039.097s-.061.04-.097.039h-3.947c-.037.001-.073-.013-.099-.039s-.042-.061-.043-.097v-4.914c.001-.036-.014-.071-.039-.097s-.061-.04-.097-.039h-1.283c-.075.001-.135.061-.136.136v4.917c.001.036-.014.071-.039.097s-.061.04-.097.039H58.432c-.088-.002-.158-.072-.16-.16v-1.734c0-.91.632-1.991 2.393-1.991h6.536c.078-.001.141-.064.142-.142v-.993c-.001-.037-.016-.072-.043-.097s-.062-.039-.099-.039H61.26c-2.789 0-4.562.957-4.544 3.658v1.359c.001.036-.014.071-.039.097s-.061.04-.097.039H43.485c-.036.001-.071-.014-.097-.039s-.04-.061-.039-.097v-8.6c-.004-.076-.066-.136-.142-.136h-1.275c-.075.001-.135.061-.136.136v8.6c-.001.037-.016.072-.043.097s-.062.039-.099.039h-4.41c-.036.001-.071-.014-.097-.039s-.04-.061-.039-.097v-4.834c-.001-.037-.016-.072-.043-.097s-.062-.039-.099-.039H35.69c-.036-.001-.071.014-.097.039s-.04.061-.039.097v4.834c-.001.037-.016.072-.043.097s-.062.039-.099.039h-2.83c-.036.001-.071-.014-.097-.039s-.04-.061-.039-.097v-1.359c.018-2.7-1.761-3.658-4.544-3.658h-5.59c-.037-.001-.073.013-.099.039s-.042.061-.043.097zm6.329-7.345h-4.61c-.043 0-.083.017-.113.047s-.047.071-.047.113v3.562c0 .043.017.083.047.113s.071.047.113.047h6.837c.089.001.163-.071.165-.16v-1.731c.001-.91-.631-1.991-2.392-1.991zm9.148 7.392a.79.79 0 1 1 0 1.584.79.79 0 0 1-.792-.792.8.8 0 0 1 .791-.792zm-2.636 0a.79.79 0 1 1 0 1.584.79.79 0 0 1-.56-1.352.79.79 0 0 1 .56-.232zm41.784-12.339c.322-.001.613.192.737.489s.056.64-.172.868-.57.296-.868.172-.491-.415-.489-.737a.79.79 0 0 1 .792-.792zm-2.636 0c.439.003.792.361.79.799s-.36.793-.799.791-.793-.359-.791-.798a.79.79 0 0 1 .8-.792zm10.607-.006h1.282c.037.001.072.016.097.043s.039.062.039.099v10.123c.001.037-.013.073-.039.099s-.061.042-.097.043h-1.281c-.037-.001-.072-.016-.097-.043s-.039-.062-.039-.099V69.289c-.001-.037.013-.073.039-.099s.061-.042.097-.043" fill="#0c9c8c"/><path d="M24.731 95.739c.095.124.16.124.225-.006l3.008-5.7c.03-.074.103-.121.183-.118h.544c.054-.002.106.018.144.056s.058.09.056.144v6.542a.2.2 0 0 1-.2.2h-.541a.2.2 0 0 1-.2-.2v-5.108l-2.636 4.9c-.1.246-.34.407-.606.407s-.505-.161-.605-.407l-2.164-4.256v4.461a.2.2 0 0 1-.2.2h-.538a.2.2 0 0 1-.2-.2v-6.541c-.002-.054.019-.105.057-.143s.09-.058.143-.057h.544c.075-.002.143.039.177.106v.006zm6.551-4.053h.544a.2.2 0 0 1 .2.195v4.775a.2.2 0 0 1-.2.2h-.544a.2.2 0 0 1-.2-.2V91.88a.2.2 0 0 1 .2-.194zm.272-1.767a.5.5 0 1 1 0 1 .5.5 0 1 1 0-1zm9.691 1.767h.55a.2.2 0 0 1 .2.195v4.775a.2.2 0 0 1-.2.2h-.55a.2.2 0 0 1-.2-.2V91.88a.2.2 0 0 1 .2-.194zm.272-1.767a.5.5 0 1 1 0 1 .5.5 0 0 1-.354-.854.5.5 0 0 1 .354-.147zm70.858 1.767h.55a.2.2 0 0 1 .2.195v4.775a.2.2 0 0 1-.2.2h-.55a.2.2 0 0 1-.2-.2V91.88a.2.2 0 0 1 .2-.194zm.272-1.767a.5.5 0 1 1 0 1 .5.5 0 1 1 0-1zm-74.6 3.841c-.006-1.217-1.028-1.619-3.12-1.6v4.491a.2.2 0 0 1-.2.2h-.544a.2.2 0 0 1-.2-.2V91.88a.2.2 0 0 1 .2-.195h2.458c.642-.03 1.267.217 1.716.678s.678 1.092.63 1.733v2.559a.2.2 0 0 1-.2.2h-.55a.2.2 0 0 1-.2-.2zm87.049 0c-.006-1.217-1.028-1.619-3.12-1.6v4.491a.2.2 0 0 1-.2.2h-.55a.2.2 0 0 1-.195-.2V91.88a.2.2 0 0 1 .195-.195h2.464a2.24 2.24 0 0 1 2.34 2.411v2.559a.2.2 0 0 1-.2.2h-.544a.2.2 0 0 1-.2-.2zm-34.652 1c.006 1.223 1.028 1.625 3.12 1.6v-4.492a.2.2 0 0 1 .195-.195h.55a.2.2 0 0 1 .2.195v4.775a.2.2 0 0 1-.2.195c-.815 0-1.655.03-2.464-.006a2.24 2.24 0 0 1-2.34-2.405v-2.559a.2.2 0 0 1 .2-.195h.544a.2.2 0 0 1 .2.195zm-41.783-.315v-4.332c-.002-.054.018-.106.056-.144s.09-.058.144-.056h.544a.2.2 0 0 1 .2.2v1.489a.1.1 0 0 0 .095.1h1.371a.1.1 0 0 1 .1.095v.272a.1.1 0 0 1-.095.1h-1.381a.1.1 0 0 0-.095.1v2.637c.006.792.449 1.241 1.359 1.442.55.118.7.52.041.5-.641.032-1.265-.214-1.712-.673s-.676-1.09-.627-1.73zm59.429 0v-4.332c-.002-.054.018-.106.056-.144s.09-.058.144-.056h.55a.2.2 0 0 1 .2.2v1.489a.1.1 0 0 0 .095.1h1.366c.025-.001.05.009.068.027s.028.042.027.068v.272a.1.1 0 0 1-.095.1h-1.377a.1.1 0 0 0-.095.1v2.637c.006.792.449 1.241 1.359 1.442.55.118.709.52.041.5-.641.032-1.265-.214-1.712-.673s-.676-1.09-.627-1.73zm-37.2-2.121v4.331a.2.2 0 0 0 .2.2h.541a.2.2 0 0 0 .2-.2v-2.984a.1.1 0 0 1 .095-.1h1.371a.1.1 0 0 0 .1-.095v-.278a.1.1 0 0 0-.095-.095h-1.376a.1.1 0 0 1-.095-.1v-1.14c.006-.792.449-1.247 1.359-1.442.55-.118.7-.52.041-.5a2.23 2.23 0 0 0-2.339 2.402zm-18.234 1.762v2.565a.2.2 0 0 0 .2.2h.55a.2.2 0 0 0 .2-.2v-3.022c.006-.792.455-1.241 1.359-1.442.55-.118.709-.52.047-.5-.643-.036-1.27.206-1.722.666s-.682 1.091-.634 1.733zm7.587 2.86a.1.1 0 0 0-.1-.1c-.378.006-.6.006-1.123-.018a2.24 2.24 0 0 1-2.34-2.405v-2.555a.2.2 0 0 1 .2-.195h.55a.2.2 0 0 1 .2.195v2.89c-.079.82.507 1.554 1.324 1.66.731-.014 1.312-.616 1.3-1.347v-3.2a.2.2 0 0 1 .2-.195h.55a.2.2 0 0 1 .2.195v5.726c.049.641-.18 1.273-.629 1.733s-1.075.705-1.717.672c-.662.018-.5-.384.047-.508a1.47 1.47 0 0 0 1.359-1.489zm16.948-7.028h4.5c.036-.001.071.014.097.039s.04.061.039.097v.39c.001.036-.014.071-.039.097s-.061.04-.097.039h-3.76v2.306h2.659c.078.001.141.064.142.142v.39c-.001.037-.016.072-.043.097s-.062.039-.099.039h-2.659v2.632h3.752c.037.001.072.016.097.043s.039.062.039.099v.384c.001.037-.013.073-.039.099s-.061.042-.097.043h-4.5a.2.2 0 0 1-.195-.2v-6.541c-.001-.053.021-.105.059-.141s.09-.056.144-.054zM66.59 91.686h1.176a1.97 1.97 0 0 1 1.965 1.961v1.239a1.97 1.97 0 0 1-1.962 1.962H66.59c-1.082-.002-1.958-.88-1.959-1.962v-1.239c.001-1.082.877-1.959 1.959-1.961zm.236.52h.705a1.2 1.2 0 0 1 1.188 1.188v1.742a1.2 1.2 0 0 1-1.188 1.194h-.709a1.2 1.2 0 0 1-1.191-1.194v-1.743a1.2 1.2 0 0 1 1.195-1.188zm49.833-.52h1.172a1.97 1.97 0 0 1 1.962 1.962v1.238a1.97 1.97 0 0 1-1.962 1.964h-1.17c-1.084-.001-1.963-.88-1.964-1.964v-1.239c.002-1.083.879-1.959 1.962-1.961zm.225.52h.715a1.19 1.19 0 0 1 1.188 1.188v1.742c.001.657-.531 1.191-1.188 1.194h-.715a1.2 1.2 0 0 1-1.188-1.194v-1.743a1.2 1.2 0 0 1 1.187-1.188zm-30.085 4.088c.001.025-.009.05-.027.068s-.042.028-.068.027h-1.773a1.44 1.44 0 0 1-1.436-1.436v-1.367c-.002-.795.641-1.442 1.436-1.446h1.773a.1.1 0 0 1 .095.1zm0-4.71a.1.1 0 0 1-.095.1h-2.186c-1.083.002-1.96.879-1.962 1.962v1.24c.002 1.083.879 1.96 1.962 1.962h3.026a.2.2 0 0 0 .2-.2v-6.535c.002-.054-.018-.106-.056-.144s-.09-.058-.144-.056h-.55a.2.2 0 0 0-.195.2zm18.726 3.6c0 .479-.313 1.306-1.867 1.2a1.48 1.48 0 0 1-1.442-1.436v-1.362a1.45 1.45 0 0 1 1.442-1.442h1.773a.1.1 0 0 1 .095.1zm-2.287-3.5a1.97 1.97 0 0 0-1.962 1.962v1.24a1.97 1.97 0 0 0 1.962 1.962c.969 0 2.133-.142 2.281-.118.1.024.136.118.3.118h.455a.2.2 0 0 0 .195-.2V91.88a.2.2 0 0 0-.195-.195zm-5.537 5.165a1.97 1.97 0 0 1-1.961-1.963v-1.239a1.97 1.97 0 0 1 1.962-1.961h2.576a.04.04 0 0 1 .041.041v.372a.04.04 0 0 1-.041.041h-2.157a1.45 1.45 0 0 0-1.441 1.446v1.371c.008.791.65 1.428 1.441 1.429h2.157c.022.001.04.019.041.041v.378a.04.04 0 0 1-.041.041zm-51.226-4.763a.34.34 0 1 0 .018-.68c-1.306-.13-2.535.148-2.842 1.2-.23.786.236 1.5 1.371 1.7 1.5.278 2.062 1 1.43 1.66-.325.337-1.33.207-2.056.248-.786.047-.674.626 0 .632 1.188.012 2.5.171 2.972-.609.239-.389.282-.869.114-1.294s-.525-.747-.965-.869c-1.241-.254-2.009-.52-1.85-1.241.154-.685.75-.739 1.808-.75" fill="#939598"/><g fill="#088b79"><path d="M126.208 51.886a1.4 1.4 0 1 1-.994.408 1.4 1.4 0 0 1 .994-.408m0-12.155c.846.002 1.53.688 1.53 1.534s-.686 1.531-1.531 1.532-1.532-.683-1.535-1.529c0-.407.162-.798.45-1.086s.679-.45 1.086-.45"/></g><g fill="#038a7d"><path d="M133.228 45.505c.847-.002 1.534.683 1.536 1.53s-.683 1.534-1.53 1.536-1.534-.683-1.536-1.53.684-1.533 1.53-1.536m-13.744.254c.62-.001 1.18.373 1.418.946s.107 1.233-.332 1.672-1.099.569-1.672.331-.946-.798-.945-1.419a1.53 1.53 0 0 1 1.531-1.53"/></g><g fill="#038981"><path d="M105.331 47.898c.569 0 1.081.343 1.299.868s.097 1.13-.305 1.532-1.007.522-1.532.305-.868-.73-.868-1.299a1.41 1.41 0 0 1 1.406-1.406m41.838-.172a1.4 1.4 0 1 1-.996.41 1.4 1.4 0 0 1 .996-.41m-13.597-13.479a1.652 1.652 0 0 1-.006 3.304 1.65 1.65 0 1 1 .006-3.304m-14.467.177a1.652 1.652 0 1 1-.003 3.304 1.65 1.65 0 0 1-1.651-1.652c.003-.912.743-1.65 1.655-1.649"/><path d="M111.914 40.588a1.652 1.652 0 1 1-.006 3.304 1.65 1.65 0 1 1 .006-3.304m28.866-.284c.974.002 1.762.792 1.761 1.766s-.791 1.763-1.764 1.762-1.763-.789-1.764-1.763a1.77 1.77 0 0 1 1.767-1.767"/></g><use xlink:href="#B" fill="#049a8c"/><path d="M149.496 25.667a2.42 2.42 0 0 1 2.423 2.411 2.42 2.42 0 0 1-2.411 2.423 2.42 2.42 0 0 1-2.423-2.411 2.42 2.42 0 0 1 2.411-2.423" fill="#069c8d"/><path d="M158 23.006a2.8 2.8 0 0 1 1.98 4.78 2.8 2.8 0 0 1-4.78-1.98 2.8 2.8 0 0 1 2.8-2.8" fill="#04a18c"/><path d="M166.716 21.205a2.93 2.93 0 0 1 2.073 5.004 2.93 2.93 0 0 1-5.004-2.073 2.93 2.93 0 0 1 2.931-2.931" fill="#0fb6a8"/><path d="M175.562 20a3.28 3.28 0 0 1 3.28 3.274 3.28 3.28 0 0 1-3.274 3.28 3.28 3.28 0 0 1-3.28-3.274 3.28 3.28 0 0 1 3.274-3.28" fill="#0eb7a8"/><use xlink:href="#B" x="7.639" y="6.867" fill="#049a8c"/><use xlink:href="#C" fill="#069c8d"/><path d="M166.457 31.121a2.8 2.8 0 0 1 .005 5.6 2.8 2.8 0 0 1-2.805-2.793c-.001-1.548 1.252-2.804 2.8-2.807" fill="#04a18c"/><path d="M175.905 30.82c1.187-.001 2.258.713 2.713 1.809s.205 2.359-.634 3.198-2.101 1.091-3.198.637-1.812-1.524-1.812-2.711c-.001-1.62 1.311-2.934 2.931-2.937" fill="#0fb6a8"/><use xlink:href="#B" x="15.028" y="14.083" fill="#049a8c"/><path d="M166.456 41.084c.978-.002 1.861.585 2.237 1.488s.171 1.944-.52 2.636-1.731.9-2.635.527-1.493-1.255-1.493-2.234c-.001-1.333 1.078-2.414 2.411-2.417" fill="#069c8d"/><use xlink:href="#D" fill="#04a18c"/><use xlink:href="#E" fill="#049a8c"/><use xlink:href="#C" x="-54.241" y="-7.125" fill="#039e8b"/><path d="M94.682 23.356a2.8 2.8 0 0 1 1.98 4.78 2.8 2.8 0 0 1-4.78-1.98 2.8 2.8 0 0 1 2.8-2.8" fill="#04a18c"/><path d="M85.99 21.642c1.187-.001 2.258.713 2.713 1.81s.204 2.359-.635 3.199-2.102 1.09-3.199.635-1.811-1.526-1.81-2.713a2.93 2.93 0 0 1 2.931-2.931" fill="#0fb6a8"/><path d="M77.167 20a3.28 3.28 0 0 1 3.28 3.274 3.28 3.28 0 0 1-3.274 3.28 3.28 3.28 0 0 1-3.28-3.274A3.28 3.28 0 0 1 77.167 20" fill="#0eb7a8"/><path d="M103.729 36.534c1.074 0 1.944.87 1.944 1.944s-.87 1.944-1.944 1.944-1.944-.87-1.944-1.944a1.95 1.95 0 0 1 1.944-1.944" fill="#049a8c"/><path d="M95.126 33.403a2.42 2.42 0 0 1 2.417 2.417 2.42 2.42 0 0 1-2.417 2.417 2.42 2.42 0 0 1-2.417-2.417 2.42 2.42 0 0 1 2.417-2.417" fill="#039e8b"/><path d="M85.996 31.382a2.8 2.8 0 0 1-.005 5.6 2.8 2.8 0 0 1-1.982-4.78 2.8 2.8 0 0 1 1.987-.82" fill="#04a18c"/><path d="M76.819 31.079c1.62-.002 2.935 1.311 2.937 2.931s-1.311 2.935-2.931 2.937-2.935-1.311-2.937-2.931a2.93 2.93 0 0 1 2.931-2.937" fill="#0fb6a8"/><use xlink:href="#E" x="-14.938" y="14.085" fill="#049a8c"/><path d="M86.519 41.345a2.42 2.42 0 0 1 2.414 2.419 2.42 2.42 0 0 1-2.418 2.415 2.42 2.42 0 0 1-2.416-2.417c0-.642.255-1.257.709-1.71s1.07-.708 1.711-.707" fill="#039e8b"/><use xlink:href="#D" x="-99.778" y="0.26" fill="#04a18c"/></g></g><defs ><path id="B" d="M141.3 29.407c1.074 0 1.944.87 1.944 1.944s-.87 1.944-1.944 1.944-1.944-.87-1.944-1.944.871-1.943 1.944-1.944"/><path id="C" d="M157.486 33.141a2.42 2.42 0 0 1 2.417 2.417 2.42 2.42 0 0 1-2.417 2.417 2.42 2.42 0 0 1-2.417-2.417c0-.641.254-1.256.708-1.709s1.068-.708 1.709-.708"/><path id="D" d="M176.159 40.824c1.454-.002 2.634 1.176 2.636 2.63s-1.176 2.634-2.63 2.636-2.634-1.176-2.636-2.63a2.64 2.64 0 0 1 2.63-2.636"/><path id="E" d="M111.329 29.664c1.074 0 1.944.87 1.944 1.944s-.87 1.944-1.944 1.944-1.944-.87-1.944-1.944a1.94 1.94 0 0 1 1.944-1.944"/></defs></svg>