<svg id="Layer_1" data-name="Layer 1" xmlns="http://www.w3.org/2000/svg" viewBox="0 0 131 49.8"><defs><style>.cls-1{fill:#045c50;}.cls-2{fill:#026455;}.cls-3{fill:#006c5a;}.cls-4{fill:#04745f;}.cls-5{fill:#077d64;}.cls-6{fill:#05886a;}.cls-7{fill:#088f6f;}.cls-8{fill:#1f9a74;}.cls-9{fill:#2ba379;}.cls-10{fill:#37ab7e;}.cls-11{fill:#43ba82;}</style></defs><polygon class="cls-1" points="0 36.8 1.55 36.8 3.78 40.16 3.85 40.32 3.88 40.16 6.12 36.8 6.95 36.8 6.95 43.2 6.05 43.2 6.05 38.17 5.97 38.42 4.09 41.17 3.57 41.17 1.7 38.42 1.62 38.22 1.62 43.2 0.72 43.2 0.72 37.44 0 37.24 0 36.8"/><path class="cls-1" d="M9.59,37.34l-.74.46-.44-.75.75-.45Zm-.15,1.41V43.2H8.59V39.3l-.54-.14v-.4H9.44Z"/><path class="cls-1" d="M15.05,40.19v3H14.2V40.4c0-.65-.28-1-.86-1a2.2,2.2,0,0,0-1.54.75V43.2H11V39.3l-.54-.16v-.39h1.31l.06.75a2.73,2.73,0,0,1,1.87-.88,1.39,1.39,0,0,1,1.4,1.57"/><path class="cls-1" d="M17.51,37.34l-.74.46-.44-.75.75-.45Zm-.15,1.41V43.2h-.85V39.3L16,39.16v-.4h1.39Z"/><path class="cls-1" d="M20.49,43.28A4.32,4.32,0,0,1,18.34,43l.17-.64c1.06.37,2.35.49,2.39-.33a.48.48,0,0,0-.33-.46l-.33-.16-.49-.18c-.9-.33-1.37-.66-1.34-1.33,0-1.37,2-1.45,3.12-1l-.16.64c-.88-.37-2.16-.36-2.14.3,0,.23.13.36.37.47a2.08,2.08,0,0,0,.51.2l.28.11c.88.33,1.36.66,1.32,1.38a1.35,1.35,0,0,1-1.22,1.24"/><path class="cls-1" d="M25.05,43.13a1.71,1.71,0,0,1-1.63,0,1.38,1.38,0,0,1-.56-1.19V39.39h-.75V39l.75-.31v-1h.87v1.07h.93v.65h-.93v2.41c0,.67.29.95,1.17.67Z"/><path class="cls-1" d="M26.82,39.48c.64-.67,1.08-1,1.77-.81l-.09.75c-.6-.12-1,.18-1.65.85V43.2H26V39.3l-.54-.16v-.39h1.31Z"/><polygon class="cls-1" points="32.64 38.75 33.53 38.75 31.01 45.15 30.11 45.15 31.06 42.85 30.71 42.85 28.98 38.75 29.85 38.75 31.3 42.22 32.64 38.75"/><path class="cls-1" d="M38.47,42.61a1.28,1.28,0,0,0,1-.44A1.79,1.79,0,0,0,39.84,41a1.85,1.85,0,0,0-.37-1.2,1.28,1.28,0,0,0-1-.44,1.24,1.24,0,0,0-1,.44,1.75,1.75,0,0,0-.38,1.2,1.9,1.9,0,0,0,.38,1.21,1.28,1.28,0,0,0,1,.44m0,.69a2.16,2.16,0,0,1-1.62-.66,2.54,2.54,0,0,1,0-3.37,2.34,2.34,0,0,1,3.24,0A2.35,2.35,0,0,1,40.73,41a2.31,2.31,0,0,1-.64,1.68,2.11,2.11,0,0,1-1.62.66"/><path class="cls-1" d="M44.23,37c-1.08-.28-1.42,0-1.42.68v1.12h1.11v.65H42.81v3.78H42V39.4h-.68v-.65H42v-1.1a1.47,1.47,0,0,1,.58-1.29,2.25,2.25,0,0,1,1.88-.07Z"/><polygon class="cls-1" points="51.56 37.54 48.6 37.54 48.6 39.88 51 39.88 51 40.61 48.6 40.61 48.6 43.2 47.7 43.2 47.7 37.45 46.96 37.24 46.96 36.8 51.56 36.8 51.56 37.54"/><path class="cls-1" d="M53.79,37.34l-.74.46-.44-.75.75-.45Zm-.15,1.41V43.2h-.85V39.3l-.54-.14v-.4h1.39Z"/><path class="cls-1" d="M59.27,40.19v3h-.85V40.4c0-.65-.28-1-.87-1a2.22,2.22,0,0,0-1.54.75V43.2h-.85V39.3l-.54-.16v-.39h1.31l.06.75a2.77,2.77,0,0,1,1.87-.88,1.39,1.39,0,0,1,1.41,1.57"/><path class="cls-1" d="M63.08,42l0-.9c-1.17-.07-1.66,0-1.92.32a.78.78,0,0,0,.49,1.25A2.12,2.12,0,0,0,63.08,42m-2.62.83a1.33,1.33,0,0,1-.29-1,1.38,1.38,0,0,1,.31-.82,1.51,1.51,0,0,1,.91-.49,11.11,11.11,0,0,1,1.71,0V40c0-.7-.72-.85-2.18-.44l-.16-.64a4.87,4.87,0,0,1,2.07-.26,1.12,1.12,0,0,1,1.1,1.21l0,2.78.56.15v.39H63.16l0-.67a2.15,2.15,0,0,1-1.65.8,1.21,1.21,0,0,1-1-.49"/><path class="cls-1" d="M69.64,40.19v3h-.85V40.4c0-.65-.28-1-.87-1a2.22,2.22,0,0,0-1.54.75V43.2h-.85V39.3L65,39.14v-.39H66.3l.07.75a2.73,2.73,0,0,1,1.86-.88,1.39,1.39,0,0,1,1.41,1.57"/><path class="cls-1" d="M71.23,42.67A2.45,2.45,0,0,1,70.64,41a2.57,2.57,0,0,1,.57-1.71,2,2,0,0,1,1.52-.63,2.7,2.7,0,0,1,1.52.45l-.14.61a2.48,2.48,0,0,0-1.28-.38c-.82,0-1.32.66-1.32,1.66s.5,1.62,1.35,1.67a3,3,0,0,0,1.36-.36l.15.6a3.32,3.32,0,0,1-1.6.44,1.86,1.86,0,0,1-1.54-.64"/><path class="cls-1" d="M78.23,40.55c.07-.71-.21-1.21-1-1.23a1.25,1.25,0,0,0-1.26,1.23Zm-2.62,2.09A2.53,2.53,0,0,1,75,41a2.48,2.48,0,0,1,.59-1.71,1.9,1.9,0,0,1,1.55-.63c1.64,0,2,1.31,1.77,2.5H75.89a1.35,1.35,0,0,0,1.49,1.47,3,3,0,0,0,1.37-.36l.15.59a2.69,2.69,0,0,1-1.65.49,2.1,2.1,0,0,1-1.64-.67"/><polygon class="cls-1" points="67.37 19.55 67.37 20.13 66.58 20.34 66.58 29.6 65.34 29.6 65.34 19.55 67.37 19.55"/><polygon class="cls-1" points="71.24 21.09 70.11 21.78 69.44 20.62 70.61 19.93 71.24 21.09"/><path class="cls-1" d="M69.59,23.15v7.17c0,.85,0,1.47-1.41,1.21l-.24.95c2.49.57,2.88-.8,2.9-2.19V23.94l.76-.21v-.58Z"/><path class="cls-1" d="M61.28,23.15v7.17c0,.85-.05,1.47-1.41,1.21l-.24.95c2.48.57,2.88-.8,2.89-2.19V23.94l.77-.21v-.58Z"/><polygon class="cls-1" points="58.09 21.09 56.96 21.78 56.27 20.62 57.43 19.93 58.09 21.09"/><polygon class="cls-1" points="56.03 21.09 54.9 21.78 54.23 20.62 55.39 19.93 56.03 21.09"/><path class="cls-1" d="M55.36,28.57c-.68,0-1.64-.38-1.64-2.08,0-2.26,2-2.32,2.73-2.32h.69v4.4Zm1.09-5.42c-1.16,0-4,.22-4,3.34,0,2.88,2.13,3.11,2.9,3.11h3V24l.8-.23v-.58Z"/><path class="cls-1" d="M77.79,28.57H76.37a2,2,0,0,1-2-2,2.47,2.47,0,0,1,.56-1.73,1.77,1.77,0,0,1,1.44-.64h1.42ZM79,23.15H76.37a3.07,3.07,0,0,0-2.34.94,3.35,3.35,0,0,0-.92,2.43,3.09,3.09,0,0,0,3.26,3.06h1.44c0,2.13-1.4,2.33-3.67,1.66l-.24,1a4.88,4.88,0,0,0,3.77,0A2.68,2.68,0,0,0,79,29.58Z"/><polygon class="cls-1" points="18.82 31.5 19.49 32.64 20.63 31.96 19.98 30.8 18.82 31.5"/><polygon class="cls-1" points="16.76 31.5 17.44 32.64 18.57 31.96 17.92 30.8 16.76 31.5"/><polygon class="cls-1" points="6.5 20.88 5.86 19.73 4.7 20.42 5.37 21.57 6.5 20.88"/><polygon class="cls-1" points="4.45 20.88 3.8 19.73 2.63 20.42 3.31 21.57 4.45 20.88"/><polygon class="cls-1" points="47.16 19.55 47.16 29.6 48.4 29.6 48.4 20.34 49.19 20.13 49.19 19.55 47.16 19.55"/><path class="cls-1" d="M39.34,28.57H37.55c-.67,0-1.63-.38-1.63-2.08,0-2.26,1-2.32,1.7-2.32s1.7.06,1.7,2.32v2.08Zm4.3-9v9h-3V26.49c0-3.12-1.82-3.34-3-3.34s-3,.22-3,3.34v.38c0,1.7-1,1.7-1.64,1.7H28.18v-9H26.93V29.6H33a2.77,2.77,0,0,0,2.39-.83,3,3,0,0,0,2.15.83h7.33V20.34l.78-.21v-.58Z"/><path class="cls-1" d="M5.14,27.88h-.8C3.67,27.88,2,27.78,2,26a2.13,2.13,0,0,1,2.47-2.33h.69Zm18.28-8.33v9H21.17c-.63,0-1.58,0-1.65-1.52v-3.9H18.28v3.72c0,1.7-1,1.7-1.66,1.7H6.53a.13.13,0,0,1-.13-.13v-5l.8-.23v-.57H4.47C3.31,22.65.72,22.86.72,26c0,2.88,2.85,2.95,3.62,2.95h.8v.16a.51.51,0,0,0,.51.51H16.59a2.94,2.94,0,0,0,2.28-.7,2.85,2.85,0,0,0,2.27.7h3.49V20.34l.78-.21v-.58Z"/><path class="cls-1" d="M100.63,42.18a5.44,5.44,0,0,1,3.54,1.38l2.7,2.7a2.12,2.12,0,0,0,1.52.62,2.21,2.21,0,0,0,1.52-.62l2.7-2.7a5.32,5.32,0,0,1,4.07-1.33l3.78.61a2.15,2.15,0,0,0,2.46-1.79l.6-3.78A5.4,5.4,0,0,1,126,33.81l3.41-1.74a2.14,2.14,0,0,0,.93-2.89l-1.73-3.41a5.26,5.26,0,0,1,0-4.29l1.73-3.4a2.13,2.13,0,0,0,.13-1.64,2.24,2.24,0,0,0-1.06-1.26L126,13.45A5.42,5.42,0,0,1,123.52,10l-.6-3.78a2.09,2.09,0,0,0-.87-1.41,2.16,2.16,0,0,0-1.6-.39L116.67,5a5.35,5.35,0,0,1-4.08-1.33L109.89,1a2.12,2.12,0,0,0-1.52-.62,2.21,2.21,0,0,0-1.52.62l-2.7,2.7A5.32,5.32,0,0,1,100.08,5L96.3,4.4a2.15,2.15,0,0,0-2.46,1.79L93.24,10a5.4,5.4,0,0,1-2.52,3.46l-3.41,1.74a2.15,2.15,0,0,0-1.06,1.26,2.1,2.1,0,0,0,.13,1.63l1.73,3.41a5.26,5.26,0,0,1,0,4.29l-1.73,3.4a2.13,2.13,0,0,0-.13,1.64,2.19,2.19,0,0,0,1.06,1.25l3.41,1.74a5.39,5.39,0,0,1,2.52,3.47l.6,3.78a2.13,2.13,0,0,0,2.46,1.78l3.78-.6a5.09,5.09,0,0,1,.55,0m7.76,5a2.54,2.54,0,0,1-1.77-.72l-2.7-2.7a4.93,4.93,0,0,0-3.78-1.22l-3.78.6a2.5,2.5,0,0,1-2.85-2.08l-.6-3.78a5,5,0,0,0-2.34-3.22l-3.4-1.73a2.51,2.51,0,0,1-1.25-1.46,2.46,2.46,0,0,1,.15-1.9l1.73-3.4a4.92,4.92,0,0,0,0-4l-1.71-3.42a2.46,2.46,0,0,1-.15-1.9,2.5,2.5,0,0,1,1.24-1.45l3.41-1.74A4.93,4.93,0,0,0,92.93,9.9l.6-3.78A2.5,2.5,0,0,1,96.38,4l3.78.61a4.94,4.94,0,0,0,3.78-1.23l2.7-2.7A2.46,2.46,0,0,1,108.4,0a2.5,2.5,0,0,1,1.77.72l2.7,2.7a4.94,4.94,0,0,0,3.78,1.23L120.43,4a2.49,2.49,0,0,1,2.85,2.06l.6,3.78a5,5,0,0,0,2.34,3.23l3.41,1.73a2.49,2.49,0,0,1,1.24,1.46,2.46,2.46,0,0,1-.15,1.9L129,21.6a4.92,4.92,0,0,0,0,4l1.73,3.4a2.49,2.49,0,0,1-1.09,3.35l-3.41,1.74a4.93,4.93,0,0,0-2.34,3.22l-.6,3.78a2.5,2.5,0,0,1-2.85,2.08l-3.78-.61a4.94,4.94,0,0,0-3.78,1.23l-2.71,2.73a2.54,2.54,0,0,1-1.77.72"/><path class="cls-2" d="M101.71,41.3a6.43,6.43,0,0,1,4,1.44l1.71,1.55a2.62,2.62,0,0,0,3.69-.16l1.56-1.7a6.36,6.36,0,0,1,4.79-1.8l2.29.26a2.52,2.52,0,0,0,1.92-.56,2.56,2.56,0,0,0,1-1.75l.26-2.29A6.37,6.37,0,0,1,125.75,32l2-1.14a2.59,2.59,0,0,0,1-3.55l-1.14-2a6.3,6.3,0,0,1-.23-5.12l.95-2.09A2.64,2.64,0,0,0,127,14.63l-2.1-1a6.33,6.33,0,0,1-3.19-4l-.46-2.26a2.64,2.64,0,0,0-3.09-2l-2.26.46A6.43,6.43,0,0,1,111,4.47l-1.7-1.56a2.63,2.63,0,0,0-3.7.17L104,4.78a6.39,6.39,0,0,1-4.8,1.8L97,6.32A2.49,2.49,0,0,0,95,6.87a2.63,2.63,0,0,0-1,1.75l-.26,2.29A6.34,6.34,0,0,1,91,15.18l-2,1.15a2.58,2.58,0,0,0-1.23,1.57,2.63,2.63,0,0,0,.25,2l1.15,2A6.36,6.36,0,0,1,89.37,27l-.94,2.09a2.64,2.64,0,0,0,1.29,3.47l2.11,1a6.3,6.3,0,0,1,3.19,4l.46,2.25a2.56,2.56,0,0,0,1.13,1.66,2.52,2.52,0,0,0,2,.37l2.26-.45a4.83,4.83,0,0,1,.88-.07m7.51,4a3,3,0,0,1-2-.77L105.52,43a5.94,5.94,0,0,0-4.63-1.27l-2.25.45a3,3,0,0,1-2.23-.42,3,3,0,0,1-1.28-1.87l-.45-2.26a6,6,0,0,0-3-3.76l-2.09-.95A2.95,2.95,0,0,1,88.13,29l1-2.09a6,6,0,0,0-.21-4.81l-1.15-2a2.93,2.93,0,0,1-.28-2.24,3,3,0,0,1,1.39-1.78l2-1.15a6,6,0,0,0,2.65-4l.26-2.29A3,3,0,0,1,97,6l2.29.26a6,6,0,0,0,4.5-1.68l1.56-1.7a2.94,2.94,0,0,1,4.17-.18l1.7,1.55a6,6,0,0,0,4.63,1.28l2.26-.46a3,3,0,0,1,3.49,2.31l.45,2.25a6,6,0,0,0,3,3.77l2.09.95a3,3,0,0,1,1.48,3.91l-1,2.09a5.89,5.89,0,0,0,.21,4.81l1.14,2a2.83,2.83,0,0,1,.28,2.24,2.89,2.89,0,0,1-1.39,1.78l-2,1.15a5.93,5.93,0,0,0-2.65,4l-.26,2.3a3,3,0,0,1-1.1,2,2.9,2.9,0,0,1-2.18.62L117.45,41a5.93,5.93,0,0,0-4.5,1.68l-1.55,1.7a3,3,0,0,1-2.18.94"/><path class="cls-3" d="M102.94,40.43a7.6,7.6,0,0,1,4.45,1.44l.62.53a3.09,3.09,0,0,0,4.34-.41l.52-.62A7.37,7.37,0,0,1,118.32,39l.82,0a3.07,3.07,0,0,0,2.22-.77,2.94,2.94,0,0,0,1-2.11l0-.82a7.45,7.45,0,0,1,3-5.12l.69-.44a3.1,3.1,0,0,0,1-4.25l-.44-.69a7.43,7.43,0,0,1-.57-5.92l.29-.76a3.08,3.08,0,0,0-1.73-4l-.76-.29a7.38,7.38,0,0,1-3.94-4.45l-.2-.79A3.08,3.08,0,0,0,116,6.43l-.79.2a7.36,7.36,0,0,1-5.81-1.3l-.62-.52a3.09,3.09,0,0,0-2.26-.69,3.17,3.17,0,0,0-2.08,1.1l-.52.62a7.32,7.32,0,0,1-5.45,2.37l-.82,0a3.08,3.08,0,0,0-2.22.76,3,3,0,0,0-1,2.12l-.05.81a7.39,7.39,0,0,1-3,5.12l-.69.45a3.09,3.09,0,0,0-.93,4.25l.44.69a7.42,7.42,0,0,1,.57,5.92l-.29.75a3.11,3.11,0,0,0,1.73,4l.76.29a7.36,7.36,0,0,1,3.94,4.45l.19.79a3.1,3.1,0,0,0,3.75,2.21l.79-.2a6.69,6.69,0,0,1,1.34-.15m7,3a3.45,3.45,0,0,1-2.18-.78l-.62-.53a7,7,0,0,0-5.5-1.22l-.78.19a3.42,3.42,0,0,1-4.18-2.45l-.19-.79a7,7,0,0,0-3.73-4.22L92,33.35a3.35,3.35,0,0,1-1.89-1.82,3.49,3.49,0,0,1,0-2.62l.3-.75a7,7,0,0,0-.54-5.61l-.44-.69A3.39,3.39,0,0,1,89,19.28a3.43,3.43,0,0,1,1.5-2.15l.69-.44A7,7,0,0,0,94,11.83l0-.82a3.42,3.42,0,0,1,3.62-3.2l.82,0a6.94,6.94,0,0,0,5.17-2.24l.52-.62a3.44,3.44,0,0,1,2.31-1.23,3.37,3.37,0,0,1,2.5.77l.63.53a7,7,0,0,0,5.49,1.22l.79-.19a3.41,3.41,0,0,1,4.17,2.45l.2.79A7,7,0,0,0,124,13.55l.75.29a3.44,3.44,0,0,1,1.93,4.44l-.29.75a7,7,0,0,0,.54,5.61l.44.69a3.44,3.44,0,0,1-1.05,4.73l-.69.44a7,7,0,0,0-2.86,4.86l0,.82a3.42,3.42,0,0,1-3.61,3.21l-.82,0a7,7,0,0,0-5.17,2.24l-.53.62A3.33,3.33,0,0,1,110,43.44"/><path class="cls-4" d="M104.51,39.53a7.64,7.64,0,0,1,4.27,1.25,3.22,3.22,0,0,0,2.39.57,3.13,3.13,0,0,0,2.09-1.28,7.7,7.7,0,0,1,5.52-2.8h0a3.21,3.21,0,0,0,3.21-3.2,7.65,7.65,0,0,1,2.82-5.52,3.21,3.21,0,0,0,.72-4.48,7.67,7.67,0,0,1-1-6.12,3.22,3.22,0,0,0-2.06-4.06,7.63,7.63,0,0,1-4.37-4.38,3.19,3.19,0,0,0-4-2.06,7.67,7.67,0,0,1-6.1-1,3.22,3.22,0,0,0-2.39-.57,3.15,3.15,0,0,0-2.1,1.28A7.7,7.7,0,0,1,98,10h0a3.21,3.21,0,0,0-3.21,3.2A7.68,7.68,0,0,1,92,18.69a3.2,3.2,0,0,0-.7,4.48,7.67,7.67,0,0,1,1,6.12,3.25,3.25,0,0,0,2.06,4.06,7.63,7.63,0,0,1,4.37,4.38,3.19,3.19,0,0,0,4,2.06,5.8,5.8,0,0,1,1.82-.26m6.15,2.2a3.48,3.48,0,0,1-2.08-.68,7.36,7.36,0,0,0-5.8-.93,3.57,3.57,0,0,1-4.49-2.29,7.24,7.24,0,0,0-4.15-4.16,3.5,3.5,0,0,1-2.07-1.76,3.62,3.62,0,0,1-.21-2.72A7.26,7.26,0,0,0,91,23.38a3.56,3.56,0,0,1,.8-5,7.28,7.28,0,0,0,2.66-5.24A3.56,3.56,0,0,1,98,9.62h0A7.28,7.28,0,0,0,103.22,7a3.46,3.46,0,0,1,2.32-1.4,3.52,3.52,0,0,1,2.65.64,7.38,7.38,0,0,0,5.81.93,3.55,3.55,0,0,1,4.48,2.29,7.24,7.24,0,0,0,4.16,4.15,3.55,3.55,0,0,1,2.27,4.49,7.38,7.38,0,0,0,.92,5.81,3.56,3.56,0,0,1-.8,5,7.28,7.28,0,0,0-2.67,5.24,3.56,3.56,0,0,1-3.55,3.55h0a7.24,7.24,0,0,0-5.23,2.67,3.5,3.5,0,0,1-2.32,1.4c-.2,0-.4,0-.58,0"/><path class="cls-5" d="M106.36,38.5a6.84,6.84,0,0,1,3.5.89,2.91,2.91,0,0,0,2.23.37,3,3,0,0,0,1.85-1.31,7,7,0,0,1,4.9-2.94,3,3,0,0,0,2.75-3.16,7.16,7.16,0,0,1,2.24-5.27,3,3,0,0,0,.38-4.17,7,7,0,0,1-1.28-5.58,3,3,0,0,0-2.14-3.59A7.06,7.06,0,0,1,116.47,10a3,3,0,0,0-3.84-1.65,7.12,7.12,0,0,1-5.71-.51,3,3,0,0,0-4.08.93,7,7,0,0,1-4.91,2.95,3,3,0,0,0-2.75,3.16,7.1,7.1,0,0,1-2.24,5.27,3,3,0,0,0-.37,4.17,7,7,0,0,1,1.27,5.58,3,3,0,0,0,.33,2.24A2.91,2.91,0,0,0,96,33.46a7.09,7.09,0,0,1,4.31,3.77,3,3,0,0,0,1.59,1.62,3,3,0,0,0,2.26,0,6,6,0,0,1,2.21-.38m5.07,1.67a3.09,3.09,0,0,1-1.73-.51,6.79,6.79,0,0,0-5.4-.47A3.31,3.31,0,0,1,100,37.36a6.59,6.59,0,0,0-4.09-3.55,3.37,3.37,0,0,1-2-1.51,3.27,3.27,0,0,1-.38-2.5,6.72,6.72,0,0,0-1.21-5.29,3.32,3.32,0,0,1,.41-4.65,6.68,6.68,0,0,0,2.13-5,3.29,3.29,0,0,1,3.06-3.51,6.72,6.72,0,0,0,4.65-2.79,3.31,3.31,0,0,1,4.55-1,6.78,6.78,0,0,0,5.4.47,3.29,3.29,0,0,1,4.28,1.83,6.62,6.62,0,0,0,4.09,3.55,3.32,3.32,0,0,1,2.41,4,6.72,6.72,0,0,0,1.21,5.29,3.32,3.32,0,0,1-.41,4.65,6.71,6.71,0,0,0-2.13,5,3.28,3.28,0,0,1-.8,2.39,3.21,3.21,0,0,1-2.26,1.12,6.67,6.67,0,0,0-4.64,2.79,3.27,3.27,0,0,1-2.07,1.45,2.46,2.46,0,0,1-.75.1"/><path class="cls-6" d="M108.26,37.42A6.3,6.3,0,0,1,111,38a2.72,2.72,0,0,0,3.66-1.16,6.63,6.63,0,0,1,4.31-3.09,2.72,2.72,0,0,0,2.27-3.09,6.61,6.61,0,0,1,1.67-5,2.73,2.73,0,0,0,0-3.85,6.52,6.52,0,0,1-1.61-5.05A2.72,2.72,0,0,0,119,13.58a6.54,6.54,0,0,1-4.27-3.14,2.74,2.74,0,0,0-1.57-1.36,2.69,2.69,0,0,0-2.08.15,6.56,6.56,0,0,1-5.3,0A2.73,2.73,0,0,0,103.74,9a2.61,2.61,0,0,0-1.59,1.34,6.58,6.58,0,0,1-4.3,3.09,2.72,2.72,0,0,0-2.27,3.09,6.62,6.62,0,0,1-1.67,5,2.71,2.71,0,0,0,0,3.84,6.57,6.57,0,0,1,1.6,5.06,2.74,2.74,0,0,0,.48,2,2.65,2.65,0,0,0,1.77,1.09A6.54,6.54,0,0,1,102,36.73a2.71,2.71,0,0,0,1.57,1.36,2.74,2.74,0,0,0,2.08-.14,6.1,6.1,0,0,1,2.6-.53m3.94,1.23a3.28,3.28,0,0,1-1.41-.34,6.23,6.23,0,0,0-5,0,3,3,0,0,1-4.1-1.36,6.22,6.22,0,0,0-4-3,3,3,0,0,1-2-1.24,3.07,3.07,0,0,1-.54-2.27,6.25,6.25,0,0,0-1.5-4.77,3.05,3.05,0,0,1,0-4.32,6.2,6.2,0,0,0,1.57-4.73,3.06,3.06,0,0,1,2.57-3.48,6.23,6.23,0,0,0,4.06-2.91A3,3,0,0,1,106,8.92a6.23,6.23,0,0,0,5,0,3.06,3.06,0,0,1,2.34-.16,3,3,0,0,1,1.77,1.52,6.18,6.18,0,0,0,4,3,3,3,0,0,1,2,1.24,3.05,3.05,0,0,1,.54,2.28,6.27,6.27,0,0,0,1.51,4.76,3,3,0,0,1,0,4.32,6.21,6.21,0,0,0-1.57,4.73A3.05,3.05,0,0,1,119,34.08a6.2,6.2,0,0,0-4,2.92,3.08,3.08,0,0,1-2.72,1.65"/><path class="cls-7" d="M103.82,10.42A2.48,2.48,0,0,0,101.5,12a6.12,6.12,0,0,1-3.7,3.24,2.53,2.53,0,0,0-1.82,3,6.06,6.06,0,0,1-1.09,4.8,2.52,2.52,0,0,0,.31,3.53,6.11,6.11,0,0,1,1.93,4.52,2.5,2.5,0,0,0,2.32,2.66,6.09,6.09,0,0,1,4.23,2.52,2.5,2.5,0,0,0,3.43.79,6.06,6.06,0,0,1,4.89-.44,2.55,2.55,0,0,0,3.26-1.39A6.12,6.12,0,0,1,119,32a2.51,2.51,0,0,0,1.81-3,6.11,6.11,0,0,1,1.1-4.8,2.52,2.52,0,0,0-.31-3.53,6.11,6.11,0,0,1-1.93-4.52,2.5,2.5,0,0,0-2.32-2.66A6.09,6.09,0,0,1,113.08,11a2.51,2.51,0,0,0-3.45-.79,6.06,6.06,0,0,1-4.89.44,2.69,2.69,0,0,0-.92-.18m2,27.36a2.78,2.78,0,0,1-.64-.06,2.86,2.86,0,0,1-1.77-1.26,5.69,5.69,0,0,0-4-2.36,2.84,2.84,0,0,1-2.65-3A5.69,5.69,0,0,0,95,26.84a2.87,2.87,0,0,1-.36-4,5.76,5.76,0,0,0,1-4.49,2.85,2.85,0,0,1,2.06-3.45,5.72,5.72,0,0,0,3.47-3,2.86,2.86,0,0,1,3.7-1.58,5.76,5.76,0,0,0,4.58-.41,2.84,2.84,0,0,1,3.91.9,5.69,5.69,0,0,0,4,2.35,2.84,2.84,0,0,1,2.65,3,5.7,5.7,0,0,0,1.82,4.24,2.86,2.86,0,0,1,.37,4,5.74,5.74,0,0,0-1,4.48,2.85,2.85,0,0,1-2.06,3.45,5.75,5.75,0,0,0-3.47,3,2.79,2.79,0,0,1-1.52,1.55,2.84,2.84,0,0,1-2.18,0,5.68,5.68,0,0,0-4.58.41,3.08,3.08,0,0,1-1.52.42"/><path class="cls-8" d="M101.35,33.89a5.75,5.75,0,0,1,4,1.9,2.32,2.32,0,0,0,3.25.36,5.66,5.66,0,0,1,4.49-.92,2.37,2.37,0,0,0,1.75-.21A2.32,2.32,0,0,0,116,33.63a5.76,5.76,0,0,1,3.1-3.39,2.31,2.31,0,0,0,1.35-3,5.75,5.75,0,0,1,.51-4.55,2.32,2.32,0,0,0-.65-3.21,5.69,5.69,0,0,1-2.26-4,2.32,2.32,0,0,0-2.41-2.21,5.72,5.72,0,0,1-4.17-1.9,2.32,2.32,0,0,0-3.25-.36,5.74,5.74,0,0,1-4.49.92,2.32,2.32,0,0,0-2.85,1.6A5.71,5.71,0,0,1,97.75,17a2.29,2.29,0,0,0-1.29,1.21A2.31,2.31,0,0,0,96.39,20a5.71,5.71,0,0,1-.5,4.55,2.19,2.19,0,0,0-.33,1.73,2.32,2.32,0,0,0,1,1.47,5.73,5.73,0,0,1,2.26,4,2.32,2.32,0,0,0,2.4,2.21h.15M107.19,37a1.78,1.78,0,0,1-.31,0,2.66,2.66,0,0,1-1.78-1,5.34,5.34,0,0,0-3.9-1.77,2.63,2.63,0,0,1-2.76-2.53A5.32,5.32,0,0,0,96.33,28,2.57,2.57,0,0,1,95.2,26.3a2.65,2.65,0,0,1,.38-2,5.25,5.25,0,0,0,.47-4.24,2.66,2.66,0,0,1,1.55-3.42,5.2,5.2,0,0,0,2.88-3.16,2.65,2.65,0,0,1,3.26-1.85,5.33,5.33,0,0,0,4.19-.85,2.67,2.67,0,0,1,3.73.43,5.42,5.42,0,0,0,3.9,1.77,2.63,2.63,0,0,1,2.76,2.53,5.32,5.32,0,0,0,2.11,3.72,2.65,2.65,0,0,1,.75,3.68,5.25,5.25,0,0,0-.47,4.24,2.67,2.67,0,0,1-1.56,3.42,5.2,5.2,0,0,0-2.87,3.15A2.69,2.69,0,0,1,115,35.33a2.62,2.62,0,0,1-2,.24,5.32,5.32,0,0,0-4.19.85,2.61,2.61,0,0,1-1.64.58"/><path class="cls-9" d="M103.58,33.94a5.4,5.4,0,0,1,3.48,1.31,2.18,2.18,0,0,0,3,0,5.34,5.34,0,0,1,4-1.39,2.16,2.16,0,0,0,1.59-.41,2.19,2.19,0,0,0,.84-1.41,5.22,5.22,0,0,1,2.47-3.5,2.09,2.09,0,0,0,1-1.28,2.14,2.14,0,0,0-.14-1.63,5.26,5.26,0,0,1-.07-4.29,2.16,2.16,0,0,0-1-2.88A5.35,5.35,0,0,1,116.34,15a2.2,2.2,0,0,0-.88-1.39,2.16,2.16,0,0,0-1.61-.36,5.33,5.33,0,0,1-4.1-1.26,2.17,2.17,0,0,0-3,0,5.35,5.35,0,0,1-4.06,1.39,2.15,2.15,0,0,0-1.58.41,2.13,2.13,0,0,0-.84,1.41,5.32,5.32,0,0,1-2.47,3.52,2.12,2.12,0,0,0-1,1.26,2.2,2.2,0,0,0,.15,1.63,5.3,5.3,0,0,1,.07,4.29,2.15,2.15,0,0,0,1,2.88,5.35,5.35,0,0,1,2.57,3.44,2.23,2.23,0,0,0,.88,1.39A2.25,2.25,0,0,0,103,34a3.05,3.05,0,0,1,.62-.05m5,2.25a2.44,2.44,0,0,1-1.73-.7,5,5,0,0,0-3.8-1.16,2.44,2.44,0,0,1-1.86-.43,2.5,2.5,0,0,1-1-1.6,4.88,4.88,0,0,0-2.38-3.17,2.51,2.51,0,0,1-1.15-3.34,5,5,0,0,0-.06-4,2.47,2.47,0,0,1-.19-1.9,2.51,2.51,0,0,1,1.22-1.47,5,5,0,0,0,2.29-3.26,2.49,2.49,0,0,1,2.81-2.11,4.88,4.88,0,0,0,3.76-1.29,2.49,2.49,0,0,1,3.52,0,4.92,4.92,0,0,0,3.8,1.16,2.53,2.53,0,0,1,2.89,2A4.94,4.94,0,0,0,119,18.1a2.51,2.51,0,0,1,1.15,3.34,4.94,4.94,0,0,0,.06,4,2.5,2.5,0,0,1-1,3.37A5,5,0,0,0,116.91,32a2.47,2.47,0,0,1-2.81,2.11,4.92,4.92,0,0,0-3.76,1.29,2.46,2.46,0,0,1-1.79.75"/><path class="cls-10" d="M106,33.69a5,5,0,0,1,2.74.79,2,2,0,0,0,2.76-.45A5,5,0,0,1,115,32.22a2,2,0,0,0,1.41-.59,1.91,1.91,0,0,0,.57-1.41,4.94,4.94,0,0,1,1.8-3.56,2,2,0,0,0,.43-2.77A4.9,4.9,0,0,1,118.6,20a2,2,0,0,0-.13-1.51,2,2,0,0,0-1.16-1,4.89,4.89,0,0,1-2.83-2.82,2,2,0,0,0-1-1.14,2,2,0,0,0-1.52-.12,4.81,4.81,0,0,1-3.94-.62,2,2,0,0,0-1.47-.34,1.92,1.92,0,0,0-1.3.8A4.94,4.94,0,0,1,101.71,15a2,2,0,0,0-2,2,5,5,0,0,1-1.8,3.57,2,2,0,0,0-.42,2.77,4.92,4.92,0,0,1,.63,3.94,1.93,1.93,0,0,0,.14,1.51,2,2,0,0,0,1.16,1,4.87,4.87,0,0,1,2.83,2.81,2,2,0,0,0,2.5,1.28,3.14,3.14,0,0,1,1.21-.2m3.9,1.51a2.29,2.29,0,0,1-1.36-.45,4.69,4.69,0,0,0-3.63-.57A2.32,2.32,0,0,1,102,32.69a4.65,4.65,0,0,0-2.62-2.6A2.36,2.36,0,0,1,98,28.93a2.32,2.32,0,0,1-.15-1.77,4.52,4.52,0,0,0-.59-3.63,2.46,2.46,0,0,1-.42-1.73,2.27,2.27,0,0,1,.93-1.53A4.64,4.64,0,0,0,99.42,17a2.35,2.35,0,0,1,2.32-2.34A4.58,4.58,0,0,0,105,13a2.24,2.24,0,0,1,1.52-.93,2.31,2.31,0,0,1,1.73.41,4.72,4.72,0,0,0,3.65.57,2.27,2.27,0,0,1,1.77.13,2.32,2.32,0,0,1,1.16,1.34,4.62,4.62,0,0,0,2.62,2.6,2.43,2.43,0,0,1,1.36,1.16A2.32,2.32,0,0,1,119,20a4.55,4.55,0,0,0,.58,3.63,2.45,2.45,0,0,1,.43,1.74,2.33,2.33,0,0,1-.92,1.52,4.66,4.66,0,0,0-1.67,3.29,2.34,2.34,0,0,1-2.32,2.34,4.57,4.57,0,0,0-3.27,1.68,2.39,2.39,0,0,1-1.93,1"/><path class="cls-11" d="M108.39,33.1a4.19,4.19,0,0,1,1.85.39,1.81,1.81,0,0,0,1.39.12,1.85,1.85,0,0,0,1.06-.9,4.6,4.6,0,0,1,3-2.18,1.83,1.83,0,0,0,1.52-2.09,4.61,4.61,0,0,1,1.15-3.54,1.81,1.81,0,0,0,0-2.58,4.58,4.58,0,0,1-1.15-3.54,1.82,1.82,0,0,0-1.52-2.09,4.65,4.65,0,0,1-3-2.18,1.81,1.81,0,0,0-2.45-.78,4.63,4.63,0,0,1-3.72,0,1.91,1.91,0,0,0-1.39-.12,1.82,1.82,0,0,0-1.06.9,4.6,4.6,0,0,1-3,2.18,1.84,1.84,0,0,0-1.2.74,1.73,1.73,0,0,0-.32,1.35,4.61,4.61,0,0,1-1.15,3.54,1.81,1.81,0,0,0,0,2.58,4.58,4.58,0,0,1,1.15,3.54,1.8,1.8,0,0,0,.32,1.36,1.88,1.88,0,0,0,1.2.73,4.65,4.65,0,0,1,3,2.18,1.79,1.79,0,0,0,1.06.9,1.77,1.77,0,0,0,1.39-.12,4.34,4.34,0,0,1,1.87-.39m2.68.93a2.38,2.38,0,0,1-1-.22,4.19,4.19,0,0,0-3.4,0,2.17,2.17,0,0,1-2.92-1,4.28,4.28,0,0,0-2.75-2,2.12,2.12,0,0,1-1.4-.87,2.17,2.17,0,0,1-.4-1.62,4.32,4.32,0,0,0-1-3.24,2.15,2.15,0,0,1-.64-1.53,2.17,2.17,0,0,1,.64-1.54,4.26,4.26,0,0,0,1-3.24,2.13,2.13,0,0,1,.4-1.62,2.09,2.09,0,0,1,1.4-.87,4.28,4.28,0,0,0,2.75-2A2.24,2.24,0,0,1,105,13.25a2.17,2.17,0,0,1,1.66.13,4.19,4.19,0,0,0,3.4,0,2.15,2.15,0,0,1,1.65-.13A2.11,2.11,0,0,1,113,14.33a4.33,4.33,0,0,0,2.75,2,2.16,2.16,0,0,1,1.8,2.49,4.37,4.37,0,0,0,1,3.24,2.16,2.16,0,0,1,0,3.07,4.27,4.27,0,0,0-1,3.24,2.19,2.19,0,0,1-1.8,2.49,4.33,4.33,0,0,0-2.75,2,2.18,2.18,0,0,1-1.26,1.08,2.57,2.57,0,0,1-.67.09"/><path class="cls-1" d="M115.28,25.56l-.3-.1a5.06,5.06,0,0,0-1.57-.21,9.6,9.6,0,0,0-4.5,1.27,25.56,25.56,0,0,1-.15-5.71,3.7,3.7,0,0,1,1.69,2.56l.07.21,0-.21a3.5,3.5,0,0,0-1-3.06,2,2,0,0,1,.85.23,4.17,4.17,0,0,1,1.74,1.57l.13.19,0-.24a3.55,3.55,0,0,0-2.5-2.85s.63-.46,2.45.13l.16.05-.11-.13a3.15,3.15,0,0,0-3-.92,2.9,2.9,0,0,1,.9-.9l.16-.11-.21,0a2.42,2.42,0,0,0-1.54.72,2.76,2.76,0,0,0-.18-.85l0-.1,0,.1a3.51,3.51,0,0,0-.18.85,2.48,2.48,0,0,0-1.54-.72l-.21,0,.16.11a2.73,2.73,0,0,1,.9.9,3.17,3.17,0,0,0-3,.92l-.12.13.17-.05c1.81-.6,2.44-.16,2.45-.13a3.55,3.55,0,0,0-2.5,2.85l-.05.24.13-.19a4.22,4.22,0,0,1,1.73-1.57,2.08,2.08,0,0,1,.86-.23,3.5,3.5,0,0,0-1,3.06l0,.21.07-.21a3.78,3.78,0,0,1,1.68-2.56,27.37,27.37,0,0,1-.14,5.71,9.6,9.6,0,0,0-4.5-1.27h-.07a4.53,4.53,0,0,0-1.5.21l-.3.1h.31a10.18,10.18,0,0,1,5.91,1.73.45.45,0,0,1-.13.1c-.74.53-2.46,1.77-3.31,1.77a1.84,1.84,0,0,1-.41-.05l-.16-.05.13.15a1,1,0,0,0,.79.41c1,0,2.48-1,3.35-1.61l.41-.27.43.27c.86.61,2.3,1.61,3.35,1.61a1,1,0,0,0,.79-.41l.13-.15-.17.05a1.64,1.64,0,0,1-.41.05c-.85,0-2.57-1.24-3.3-1.77a.45.45,0,0,1-.13-.1,10.17,10.17,0,0,1,5.9-1.73Z"/></svg>