<svg xmlns="http://www.w3.org/2000/svg" width="200" height="120"  xmlns:v="https://vecta.io/nano"><g fill="#9e925e"><path d="M52.012 103.58h-.067l-3.43-6.76H47v8.808h.649v-7.174h.1l3.663 7.177h.3l3.613-7.227h.05v7.227h1.482v-8.808h-1.482zm6.81-4.5v6.544h1.349v-6.927h-.4zm1.216-3.53c-.07-.069-.156-.12-.25-.15-.194-.067-.406-.067-.6 0a.77.77 0 0 0-.25.15 1.07 1.07 0 0 0-.167.216c-.089.167-.089.366 0 .533.046.079.102.151.167.216.07.069.156.12.25.15.194.067.406.067.6 0 .094-.03.18-.081.25-.15.07-.06.126-.134.167-.216.089-.167.089-.366 0-.533a1.07 1.07 0 0 0-.167-.216m6.96 3.747a1.55 1.55 0 0 0-.549-.433c-.207-.104-.434-.161-.666-.167a2.81 2.81 0 0 0-1.349.35 4.79 4.79 0 0 0-1.282 1.032v-1.225H61.8v6.794h1.349v-5.045a3.62 3.62 0 0 1 .483-.4l.5-.316c.156-.078.318-.145.483-.2.146-.044.298-.067.45-.067a.99.99 0 0 1 .783.35 1.51 1.51 0 0 1 .3 1.016v4.646H67.5v-4.879c-.001-.272-.046-.542-.133-.8a1.78 1.78 0 0 0-.366-.649m3.33-3.747c-.07-.069-.156-.12-.25-.15-.194-.067-.406-.067-.6 0a.77.77 0 0 0-.25.15c-.069.06-.126.134-.166.216-.089.167-.089.366 0 .533.046.079.102.151.166.216.07.069.156.12.25.15.194.067.406.067.6 0 .094-.03.18-.081.25-.15a1.07 1.07 0 0 0 .167-.216c.089-.167.089-.366 0-.533a.69.69 0 0 0-.167-.216m-1.2 3.53v6.544h1.349v-6.927h-.4zm7.127 3.33a3.53 3.53 0 0 0-.633-.433l-.733-.35-.733-.316a4.48 4.48 0 0 1-.633-.333c-.173-.112-.325-.253-.45-.416-.114-.154-.173-.342-.167-.533a.7.7 0 0 1 .1-.35.86.86 0 0 1 .266-.283 1.38 1.38 0 0 1 .416-.2c.173-.049.353-.072.533-.067.363-.003.718.107 1.016.316.357.246.653.571.866.949l.5-.45c-.174-.234-.369-.451-.583-.649-.168-.156-.359-.285-.566-.383a2.37 2.37 0 0 0-.583-.183 3.9 3.9 0 0 0-.633-.05 3.32 3.32 0 0 0-.932.133c-.266.089-.514.224-.733.4a1.87 1.87 0 0 0-.483.6c-.216.481-.222 1.03-.017 1.515a1.72 1.72 0 0 0 .416.566c.177.167.372.312.583.433l.666.35.666.316a3.82 3.82 0 0 1 .583.333c.163.113.303.253.416.416a.97.97 0 0 1 .15.549c0 .129-.034.255-.1.366-.065.123-.156.231-.266.316a1.16 1.16 0 0 1-.4.216c-.167.055-.341.083-.516.083-.185.003-.37-.019-.549-.067-.171-.054-.334-.132-.483-.233a3.16 3.16 0 0 1-.466-.4c-.171-.187-.327-.388-.466-.6l-.549.5a3.89 3.89 0 0 0 .616.65c.194.154.407.283.633.383.204.084.416.145.633.183.204.033.41.049.616.05a3.48 3.48 0 0 0 1.149-.167 2.24 2.24 0 0 0 .816-.433c.212-.174.378-.397.483-.65s.163-.525.167-.8c.008-.26-.05-.517-.167-.749a2.19 2.19 0 0 0-.45-.533m4.945 2.4c-.123.081-.269.122-.416.117-.097.001-.193-.016-.283-.05s-.169-.081-.233-.15a.7.7 0 0 1-.15-.233c-.034-.09-.051-.186-.05-.283v-4.8h1.53v-.559h-1.532v-2.331h-.383l-.233.982a2.82 2.82 0 0 1-.366.816 1.59 1.59 0 0 1-.6.549c-.289.143-.61.212-.932.2v.333h1.182v4.8c.001.219.029.437.083.649a1.18 1.18 0 0 0 .25.5 1.11 1.11 0 0 0 .416.316 1.33 1.33 0 0 0 .6.116 2.13 2.13 0 0 0 1.116-.266c.294-.183.54-.435.716-.733l-.333-.233-.383.266m5.511-5.878c-.103-.074-.215-.136-.333-.183a1.15 1.15 0 0 0-.416-.067c-.184-.003-.367.037-.533.117a2.4 2.4 0 0 0-.516.316c-.167.137-.323.287-.466.45-.157.168-.296.352-.416.549v-1.288h-1.349v6.794h1.349v-4.712a4.53 4.53 0 0 1 .283-.416 2.94 2.94 0 0 1 .283-.333c.076-.087.166-.16.266-.216a.55.55 0 0 1 .266-.083c.097-.004.193.013.283.05l.233.1a1.8 1.8 0 0 0 .25.117c.118.038.242.055.366.05a.82.82 0 0 0 .566-.167.63.63 0 0 0 .2-.5.69.69 0 0 0-.083-.316c-.069-.097-.147-.186-.233-.267m4.646 4.812l-2.631-4.9H87.2l3.48 6.477-.45 1.016-.183.4a2.3 2.3 0 0 1-.233.4 1.28 1.28 0 0 1-.3.3.6.6 0 0 1-.366.117.84.84 0 0 1-.316-.05c-.083-.033-.15-.067-.216-.1-.069-.04-.141-.074-.216-.1-.107-.037-.22-.054-.333-.05-.115-.004-.229.019-.333.067a.66.66 0 0 0-.25.167c-.065.071-.121.149-.167.233a.78.78 0 0 0-.05.283.69.69 0 0 0 .083.316c.055.102.135.188.233.25a1.7 1.7 0 0 0 .35.167 1.68 1.68 0 0 0 .416.05c.222.002.442-.037.649-.116a2.74 2.74 0 0 0 .649-.35 3.41 3.41 0 0 0 .6-.6c.203-.266.371-.557.5-.866l3.463-7.976h-.716zm13.387-4.079a3.75 3.75 0 0 0-1.132-.716c-.457-.176-.942-.266-1.432-.266s-.978.094-1.432.283a3.21 3.21 0 0 0-1.132.783 3.8 3.8 0 0 0-.749 1.149 3.69 3.69 0 0 0-.266 1.415c-.007.463.084.923.266 1.349.179.41.433.783.749 1.1a3.24 3.24 0 0 0 1.132.733c.455.184.942.274 1.432.266.493.005.982-.097 1.432-.3a3.67 3.67 0 0 0 1.132-.8c.666-.713 1.03-1.656 1.016-2.631.007-.448-.084-.891-.266-1.3-.175-.402-.43-.765-.749-1.066m-.633 4.046a2.46 2.46 0 0 1-.383.816c-.151.224-.35.412-.583.55-.221.134-.475.203-.733.2-.348.003-.689-.095-.982-.283-.297-.2-.547-.461-.733-.766a3.66 3.66 0 0 1-.45-1.132 6.19 6.19 0 0 1-.167-1.4 3.01 3.01 0 0 1 .15-.966 3.56 3.56 0 0 1 .383-.8 1.9 1.9 0 0 1 .566-.533 1.24 1.24 0 0 1 .666-.2 1.95 1.95 0 0 1 1.116.283 2.11 2.11 0 0 1 .733.749 3.7 3.7 0 0 1 .416 1.116 7.21 7.21 0 0 1 .133 1.382c-.001.332-.046.662-.133.982m7.693-8.026c-.187-.112-.389-.196-.6-.25a2.95 2.95 0 0 0-.8-.083 2.41 2.41 0 0 0-.982.2 2.32 2.32 0 0 0-.8.566c-.233.245-.414.533-.533.849a2.8 2.8 0 0 0-.2 1.049v.8h-1.415v.566h1.415v6.227h1.349v-6.225h1.815v-.566h-1.815v-1.615c-.003-.169.019-.338.067-.5a1.49 1.49 0 0 1 .2-.433.86.86 0 0 1 .3-.3.65.65 0 0 1 .383-.117.73.73 0 0 1 .416.1.71.71 0 0 1 .216.233c.049.101.088.207.117.316a1.78 1.78 0 0 0 .117.316c.043.095.113.176.2.233a.62.62 0 0 0 .383.1.69.69 0 0 0 .266-.05.48.48 0 0 0 .216-.133c.068-.051.12-.121.15-.2a.69.69 0 0 0 .05-.267c-.001-.16-.047-.316-.133-.45-.102-.146-.232-.271-.383-.366m10.374 5.145h-4.428v-4.013h-1.482v8.808h1.482v-4.229h4.429v4.229h1.482v-8.808h-1.482zm8.908 2.864c-.159.206-.35.386-.566.533a2.75 2.75 0 0 1-.733.366 2.4 2.4 0 0 1-.849.15 2.12 2.12 0 0 1-.966-.233c-.299-.166-.56-.393-.766-.666a3.05 3.05 0 0 1-.5-1.016c-.122-.41-.184-.837-.183-1.265h5.062a2.62 2.62 0 0 0-.216-1.082 2.86 2.86 0 0 0-.616-.916 3.16 3.16 0 0 0-.949-.633c-.839-.328-1.774-.31-2.6.05-.405.177-.764.445-1.049.783a3.82 3.82 0 0 0-.683 1.2 4.45 4.45 0 0 0-.233 1.515 3.05 3.05 0 0 0 .266 1.282c.168.393.411.75.716 1.049a3.22 3.22 0 0 0 1.049.7 3.35 3.35 0 0 0 1.3.266 2.93 2.93 0 0 0 1.049-.2c.34-.131.66-.31.949-.533.288-.233.546-.502.766-.8.211-.298.369-.63.466-.982l-.383-.166a2.16 2.16 0 0 1-.333.6m-4.363-3.4a1.95 1.95 0 0 1 .366-.566c.143-.156.312-.285.5-.383a1.2 1.2 0 0 1 .583-.133c.234.001.466.046.683.133a1.63 1.63 0 0 1 .549.383 1.51 1.51 0 0 1 .366.583c.087.229.132.471.133.716h-3.38a2.93 2.93 0 0 1 .2-.733m10.806-1.116a1.97 1.97 0 0 0-.749-.366 4.83 4.83 0 0 0-2.181-.017 3.48 3.48 0 0 0-.866.333 2.28 2.28 0 0 0-.6.5 1 1 0 0 0-.216.633.97.97 0 0 0 .05.316.63.63 0 0 0 .15.25.6.6 0 0 0 .233.167c.089.04.185.062.283.067.116.002.231-.026.333-.083.082-.049.151-.118.2-.2a.82.82 0 0 0 .1-.283c.02-.116.031-.233.033-.35a1.51 1.51 0 0 1 .05-.383.9.9 0 0 1 .167-.333.8.8 0 0 1 .333-.233 1.4 1.4 0 0 1 .566-.083 1.9 1.9 0 0 1 .55.083.89.89 0 0 1 .416.283c.124.151.215.327.266.516a2.68 2.68 0 0 1 .083.783v.416l-.932.25c-.316.082-.627.183-.932.3s-.583.25-.849.383c-.252.139-.487.307-.7.5-.198.18-.362.394-.483.633a1.94 1.94 0 0 0-.05 1.449c.081.199.2.38.35.533a1.87 1.87 0 0 0 .549.366c.228.089.471.134.716.133a2.55 2.55 0 0 0 .749-.1c.208-.063.409-.147.6-.25a2.68 2.68 0 0 0 .5-.35l.466-.366v.932h1.349v-5.128a2.05 2.05 0 0 0-.133-.733c-.08-.221-.218-.417-.4-.566m-.816 5.029l-.4.283-.383.233c-.13.063-.264.118-.4.167a1.81 1.81 0 0 1-.433.067.9.9 0 0 1-.416-.1c-.134-.064-.253-.154-.35-.266a1.36 1.36 0 0 1-.25-.4 1.1 1.1 0 0 1-.083-.466c-.003-.163.038-.324.117-.466.086-.157.198-.298.333-.416a2.81 2.81 0 0 1 .483-.366c.183-.115.372-.221.566-.316a6.84 6.84 0 0 1 .616-.266l.6-.216zm3.214-8.475v9.891h1.349V95.354h-.383zm5.961 9.075a.75.75 0 0 1-.416.117c-.097.001-.193-.016-.283-.05a.65.65 0 0 1-.383-.383.78.78 0 0 1-.05-.283v-4.8h1.532v-.558h-1.532v-2.331h-.4l-.233.982c-.078.29-.201.565-.366.816a1.59 1.59 0 0 1-.6.549 1.98 1.98 0 0 1-.932.2v.333h1.182v4.8c.001.219.029.437.083.649a1.18 1.18 0 0 0 .25.5 1.11 1.11 0 0 0 .416.316 1.33 1.33 0 0 0 .6.116 2.03 2.03 0 0 0 1.1-.266c.294-.183.54-.435.716-.733l-.333-.233c-.108.099-.226.188-.35.266m7.027-4.862c-.081-.237-.206-.457-.366-.649a1.55 1.55 0 0 0-.549-.433c-.207-.104-.434-.161-.666-.167a2.81 2.81 0 0 0-1.349.35 4.79 4.79 0 0 0-1.285 1.026v-4.712h-.383l-.966.383v9.891h1.349V100.6c.147-.143.303-.276.466-.4l.483-.316c.156-.078.318-.145.483-.2.146-.044.298-.067.45-.067a.99.99 0 0 1 .783.35 1.51 1.51 0 0 1 .3 1.016v4.646h1.349v-4.879a1.61 1.61 0 0 0-.1-.8"/><g fill-rule="evenodd"><path d="M119.931 42.703l-2.081 1.349-4.046 2.931c-5.918 4.434-11.404 9.417-16.385 14.882H86.646s26.359-22.745 38.447-24.494c10.773-1.549 14.969 6.244 14.07 14.636.579-4.921-2.242-9.611-6.86-11.406-1.574-.604-3.267-.832-4.945-.666a18 18 0 0 0-7.426 2.764"/><path d="M80.069 42.703l2.081 1.349 4.046 2.931c5.918 4.434 11.404 9.417 16.385 14.882h10.773S86.996 39.12 74.907 37.371c-10.773-1.549-14.969 6.244-14.07 14.636-.579-4.921 2.242-9.611 6.86-11.406 1.574-.605 3.267-.833 4.945-.666 2.649.361 5.186 1.305 7.426 2.764"/></g></g><g fill="#008556"><path d="M99.468 87.06h-4.8l.05-.3a13.97 13.97 0 0 0 .216-2.215c0-2.93-1.3-6.361-4.962-6.361a6.24 6.24 0 0 0-3.463 1.266 11.33 11.33 0 0 0-2.947 2.964c-.866 1.332-1.532 2.814-2.265 4.213l-.216.416h-.083v-5.661h-1.481v5.661h-4.329v-.566c0-5.994-4.329-8.109-8.042-8.109h-5.709v1.266c.416-.033 5.278-.05 5.511-.05 4.146 0 6.627 2.7 6.644 7.21v.25H55.276v-9.541a17.96 17.96 0 0 0-1.549-.083c-2.7 0-6.71 1.948-6.71 6.128-.047 1.299.491 2.551 1.465 3.412.969.799 2.192 1.225 3.447 1.2h.466l.949-1.016.083-.083h-1.082a3.45 3.45 0 0 1-2.659-.958c-.709-.684-1.093-1.638-1.054-2.622a4.6 4.6 0 0 1 1.748-3.763 5.02 5.02 0 0 1 2.881-1.066h.516v9.508h47.14v-17h-1.482v15.9zm-6.277-.183l-.05.183H82.517l.067-.3c.932-4.129 4.646-7.343 7.227-7.343.833 0 3.547.383 3.547 5.412.014.687-.042 1.373-.167 2.048m12.455 1.282h1.482v-17h-1.482zM50.964 75.071a1.13 1.13 0 1 0-1.132-1.132c-.002.301.116.59.329.803s.502.331.803.329m67.486.017a1.13 1.13 0 1 0-1.133-1.128c-.002.301.116.59.329.803s.502.331.803.329m-64.106-.017a1.13 1.13 0 1 0-1.132-1.132c.001.625.507 1.131 1.132 1.132m79.492 13.085h1.482v-17h-1.482zm-19.318-4.478a4.61 4.61 0 0 0 4.912 4.479h3.33v-10.64a12.62 12.62 0 0 0-1.449-.083c-3.813 0-6.794 2.747-6.794 6.244m6.76 3.38h-1.415a3.47 3.47 0 0 1-2.674-.952c-.715-.684-1.105-1.64-1.072-2.628a4.63 4.63 0 0 1 1.276-3.398c.87-.912 2.075-1.428 3.336-1.431h.549zm19.848-14.237a1.132 1.132 0 1 0 .005 2.264 1.13 1.13 0 0 0 1.132-1.129c-.012-.62-.512-1.12-1.132-1.132m10.973 4.945c-3.863 0-6.894 2.631-6.894 6.011 0 3.214 2.814 4.379 4.712 4.379a4.88 4.88 0 0 0 .566-.017l.733-.766.316-.333h-.982c-1.882 0-3.763-1.066-3.763-3.447a4.74 4.74 0 0 1 4.612-4.512h.25v9.291c0 1.782-.333 3.43-2.747 3.43a4.84 4.84 0 0 1-.766-.083l-.183 1.132a6.79 6.79 0 0 0 1.332.117c1.149 0 3.846-.383 3.846-3.963V77.854a9.14 9.14 0 0 0-1.032-.083M140.38 89.094c0 1.948-.783 2.747-2.7 2.747a3.95 3.95 0 0 1-.733-.083l-.183 1.182a8.11 8.11 0 0 0 1.332.1c1.132 0 3.78-.35 3.78-3.513V79.019h-1.482v10.074zm-18.549-16.268a1.132 1.132 0 0 0-.003 2.264 1.13 1.13 0 0 0 1.134-1.13c-.012-.62-.512-1.12-1.132-1.132m5.978 16.268c0 1.948-.783 2.747-2.7 2.747a3.95 3.95 0 0 1-.733-.083l-.183 1.182a8.11 8.11 0 0 0 1.332.1c1.132 0 3.763-.35 3.763-3.513v-10.51h-1.482v10.074zM77.721 48.365l-3.663-3.68-3.23 3.23-3.23-3.23-3.664 3.68 3.663 3.68 3.23-3.23 3.23 3.23zm39.197-27.341a13.23 13.23 0 0 0-1.016-1.915 13.03 13.03 0 0 0-15.252-5.228l-.583-1.882s-.266.7-.583 1.882c-5.677-1.979-11.971.18-15.236 5.228a13.24 13.24 0 0 0-1.016 1.915c2.298-2.517 5.489-4.035 8.892-4.229-3.214 2.46-5.099 6.277-5.1 10.324a13.31 13.31 0 0 0 .183 2.165c.636-3.733 2.859-7.007 6.094-8.975-2.08 4.129-1.82 9.051.683 12.938a12.4 12.4 0 0 0 1.332 1.715 13.04 13.04 0 0 1 3-14.6 35.71 35.71 0 0 0-.15 3.047 36.46 36.46 0 0 0 1.9 11.423 36.46 36.46 0 0 0 1.9-11.423 30.38 30.38 0 0 0-.15-3.047 13.04 13.04 0 0 1 3 14.6 13.48 13.48 0 0 0 1.332-1.715c2.511-3.885 2.771-8.81.683-12.938a13.02 13.02 0 0 1 6.094 8.975 12.99 12.99 0 0 0-4.912-12.488 13.02 13.02 0 0 1 8.908 4.229"/><path d="M86.896 42.453s9.374-13.521 25.842 4.013c15.519 16.518 21.33 13.737 25.742 8.492a6.95 6.95 0 0 1-.633 1.266c-.3.483-.483.749-.549.833a11.32 11.32 0 0 1-9.175 4.812c-4.945.05-11.073-2.914-17.933-10.49-15.269-16.867-23.295-8.925-23.295-8.925" fill-rule="evenodd"/></g></svg>