<svg xmlns="http://www.w3.org/2000/svg" width="200" height="120" viewBox="0 0 200 120"><path d="M95.55,6.05c17.9-1.4,31.21,5.51,40.47,13.67a52.43,52.43,0,0,1,18,35.91c1.33,17.91-5.45,31.1-13.67,40.47A52,52,0,0,1,104.29,114,53.44,53.44,0,0,1,64,100.47C54.37,92,47.3,81,46,64.56a54,54,0,0,1,13.3-40.47A52.58,52.58,0,0,1,95.55,6.05ZM76,15a53.86,53.86,0,0,0-14.25,11.2c-7.82,8.65-13.86,21-12.54,38C50.38,79.34,57,89.91,66.1,98a50.15,50.15,0,0,0,37.81,12.73,48.92,48.92,0,0,0,34-16.72,50.53,50.53,0,0,0,12.91-38c-1.06-15.36-8.42-26.2-16.9-33.82a50.09,50.09,0,0,0-38-12.91A50.63,50.63,0,0,0,76,15Z" fill="#0b8d45"/><path d="M100.68,12.69c.11.4.47.55.38,1.15,1-.26,2.28-1.07,2.66.38a3.07,3.07,0,0,1-1.52.38c-.19,1.39-2,1.2-1.9,2.84,1.27-.28,2.48-3.17,5.13-2.09.19.9-.89.51-.76,1.33.76.45,2.29.12,2.47,1.14-2.1.57-4.61.72-6.27,1.71,1.64.19,6.68-1.24,7,1.33-.93.05-1.44-.33-2.47-.19.24,1.22,1.86,1,1.9,2.47-1.53-.62-3.6-.71-4.75-1.71.54,1.61,2.55,1.76,2.66,3.8-1.44-.09-2.37-2.29-4-2.85.67,1.55,1.91,2.52,2.09,4.56-1.06.11-1.33-.56-1.33-1.52-.6-.6-1.52-.89-1.71-1.9-.07,1,.81,2.73.57,4.56a1.7,1.7,0,0,0-1.14-.19c.37,3.81.84,7.52,1.33,11.21a13.78,13.78,0,0,0,3.42.19c0,1.35-.89,1.67-2.09,1.33-.45.06-.19.83-.57,1-.72.42-.92-.18-1.52-.38-.54,0-.24.91-1,.76a2,2,0,0,0-2.85-.19A2.14,2.14,0,0,1,95,40.05a11.11,11.11,0,0,1,2.85-.38c1.24-1,0-4.45,1-5.7-1.07-1.6,1.53-6-1.71-5.89-.7-1.33-.12-3.15,0-4.75-1,.85-.67,3-2.09,3.42v-1.9c-.9-.25-1.08,1.19-1.52.76v-1.9c-.83-.2-.62.65-1.33.57,0-2.05,1.74-2.31,2.66-3.42-2,.6-3.09,2.11-4.37,3.42C88.8,23,91.59,22,91.75,20.67c-.59-.23-2.38.86-3.23.38,1-1.56,3.56-2.25,6.08-1.71-1.2-1-3.41-1-4.37-2.28,2.06-1.15,4.48.58,5.89,1.33-.56-1.4-3.5-2.07-4.18-4,2.84-.31,3.6,1.48,4.94,2.66.16-1.43-1.71-2.47-2.47-3.61.65-.61,3.07-1,3.61,0A2.89,2.89,0,0,1,100.68,12.69Z" fill="#0b8d45"/><path d="M118.35,38.53c-7.52,1.22-13.34,4.15-17.29,8.93a4.8,4.8,0,0,0,2.85,2.66c1,.16.44-1.33,1.71-.95.24.94-.46.94-.38,1.71,1.59,1.81,5-1.24,5.51.95.26,1.25-1.39,2.11-2.66,2.28-2.94.4-4.21-1.88-6.27-.57-.28-1,.48-1,.76-1.52a11.79,11.79,0,0,0-3-2.85,6.28,6.28,0,0,0-2.85,2.66c-.51.72,1.31.91.57,1.9-1.07.25-.89-.75-1.71-.76-1.69,1.12-5.06,2.29-6.65.38V51.83c1.29-1.52,3.89,1.06,5.32-.57-.06-.81-1.14-.8-.57-1.71.89-.19.84.56,1.33.76a10.74,10.74,0,0,0,2.85-2.47c-3.75-4.29-9.07-7-16.34-7.79,6.39-3.17,14,2.71,17.86,5.89C104.29,42.34,109.45,36.32,118.35,38.53Zm-16.91,11a1.83,1.83,0,0,0-1.52-1.33C100.1,49,100.8,49.24,101.44,49.55Zm5.7,3.61c.82-.38,2.24-.16,2.47-1.14C109,51.28,107.45,52.42,107.14,53.16ZM89.66,53c.64-.55,2.16.29,2.28-.38C91.25,52.18,89.11,51.5,89.66,53Z" fill="#0b8d45"/><path d="M80.73,59.24h8.55c2.33,3,5.46,6,10.45,6.08s8.49-2.74,10.64-6.08h8.74C116.58,73.49,95.48,77.9,85.29,67.6a18.27,18.27,0,0,1-4.37-7.79A.88.88,0,0,1,80.73,59.24Zm7.6,3h1v-1c-.55,0-.9-.24-.76-.95-.54.16-.49-.27-1-.19C87.18,61.53,88.6,61.06,88.33,62.28ZM113,60.57a1.6,1.6,0,0,0,1.33,1.9c.71.2.61-.4,1-.57.66.89-.4,2.1,0,2.66C117.58,63.17,115.63,59.68,113,60.57Zm-28.5,3c.77.12,2-.25,2.47.19,0,.62-.54.73-.38,1.52,1.81,1.54,3.13,3.59,6.08,4,.52,1.2,2.46,1.31,4,1,.91.29,1.73.56,1.9-.57-1.55,0-3.33-3.24-4.37-.76a1.8,1.8,0,0,1,1.52.57c-3.07,0-1.91-2.18-1.14-4-1.49.16-1.1,2.19-2.09,2.85-.53-.67-2.36-.63-1.71-1.9-1.61.43-2.16-1.06-3-1.9,0-.59.6-.54.38-1.33-.73-.73-2.23.17-2.66-.57,0-.87,1-.77,1.14-1.52C85.49,61.49,84.11,62.31,84.53,63.61Zm26-2.09v.95h1c-.12-.39.3-1.32-.38-1.14C111.1,61.55,110.83,61.54,110.56,61.52Zm2.28,4.18c-.36-1.8-2-2.34-3.23-3.23C109.86,64.37,111.75,64.64,112.84,65.7Zm-1-3c-.09.6.51.5.57,1,.44-.06.71-.3,1.33-.19a3.52,3.52,0,0,1-.38,2.85C116.22,65.89,114.47,61.4,111.89,62.66Zm-5.51,3.42c1.28.34.81-1.09,2.09-.76v-.95h-1C107.65,65.45,106.08,64.84,106.38,66.08Zm3.8-.19c.54,0,1.3-.16,1.33.38.2,1.28-.48,1.68-.76,2.47a3.72,3.72,0,0,0,1.71-.95c.11-2-.76-2.92-2.47-3C109.57,65.15,110.23,65.31,110.18,65.89Zm-3,4a6.66,6.66,0,0,0-1.52-4.18A4.65,4.65,0,0,0,107.14,69.88Zm1.14-1.14c1.56.14,1.85-1,1.52-2.28a2.46,2.46,0,0,0-1.71-.57A3.55,3.55,0,0,0,108.28,68.74Zm-3.23.57c-.85.17-1.56.47-2.47.57-.4-.68-.4-1.76-1-2.28-.58.78-.14,1.32,0,2.28-.37.31-1.59.33-1.71-.19a1.48,1.48,0,0,0,0,1.52c2.39-.4,3.65-.08,5.89-.95.32-1.76-1.06-2.25-.57-3.61-.72.08-.89-.37-1.33-.57C103.25,67.56,105,68,105.05,69.31Zm-9.5-2.66c-.1,1.06.82,1,1.33.57C96.87,66.43,96.14,66.37,95.55,66.65ZM99,71.21c.67-.63,1-3.56.19-4.37C98.46,67.71,98.71,69.78,99,71.21ZM88.52,68.93c.57-.86-.89-1.07-1-1.9h-.95C87,67.92,87.38,68.8,88.52,68.93Z" fill="#0b8d45"/><path d="M108.28,67H109C109.26,67.69,108,67.91,108.28,67Z" fill="#0b8d45"/><path d="M145.52,68.36c-1.53,2.53-5,4.72-8.36,6.08-.24.72-.83,1.07-.76,2.09,2.51-.84,5.37-3,8.55-3.8-2.25,3.9-8.95,3.34-10.83,7.6,2.92-.12,5.27-2.45,8.74-2.66-2,4-9.77,2.27-11.59,6.46,3.11.11,6.47-2.12,9.88-1.71a21.56,21.56,0,0,1-7.41,3c-3,.48-5.35.19-6.27,2.66,2.83.16,6.26-.69,9.88-.38-3.07,3.18-12.34.23-14.44,4,3.06.67,7,.48,10.07,1.14-4.55,2.85-12.73-1.76-15.58,2.09,3.49.94,8.33.53,11.21,2.09-5.88,1.91-11.86-2.43-16.34-.19,2.67,2.14,7.12,2.5,9.12,5.32-1.1,1.3-3.27,1.55-4.75,2.47-3.67-2.69-8-5.9-14.06-6.08-7.14-.22-12.45,3.26-16.34,6.84a14.38,14.38,0,0,1-5.13-2.09c2.26-2.5,5.5-4,8.74-5.51-2.71-1.94-7.11.88-12,1.14a28.05,28.05,0,0,1-4.56-.19c2.81-1.88,7.81-1.57,11.4-2.66-3.72-3.68-11,.78-16.53-1.52,2.34-1.66,7.23-.76,10.64-1.33-2-3.7-12-.26-15.2-3.61,3.22-.84,7.51.27,10.83.57-1.91-4.68-11.09-2.08-14.25-5.51,3.47-.45,6.67.73,9.69,1.33-.18-1.21-1.25-1.53-1.9-2.28a24.36,24.36,0,0,1-10.26-3.42c3.53-.55,6.32,1.28,9.12,2.09-2-3.9-8.39-3.52-11-6.84,3.34-.17,5.81,2.17,8.55,3.23-1-4.21-7.9-4.26-9.88-8.17,3.42.63,5.21,2.9,8,4.18-1.27-4.49-6.91-4.61-8.93-8.36,2.92.13,4.74,3,7,4.37.3-2.77-2.75-3.51-4.37-4.94a12.77,12.77,0,0,1-3-4.37c2.8,1.13,4.06,3.8,6.46,5.32-.28-4.8-5.54-6-6.46-10.45,2.5,1.24,3.62,3.86,5.51,5.7.68-5.23-4.46-6.31-4.94-11,2.63.92,2.91,4.19,4.75,5.89.8-4.91-3.37-6.5-3.23-11.4,2.11,1.32,2.22,4.63,3.61,6.65,1.61-4.53-2.29-6.64-1.52-11.59,1.44,1.61,1.54,4.54,2.28,6.84,2.17-3.1-.86-6.73,0-11.4,1,1.65,1.16,4,1.14,6.65,3.11-1.73-.25-7,1.33-10.45,1,1.2.65,3.79,1,5.7,2.41-.63.57-7.15,1.9-9.5,1.11,1.49.26,4,.19,5.89,3.19-.93,1.06-7.17,3.42-8.93.19,2.15-.54,3.39-.57,5.32,2.69-.72,1.53-6.95,4.18-8.36-.17,2-1,3.3-1.33,5.13,2.92-.18,2.84-5,4.37-7.22.58,1.22-.41,2.5-.57,3.61,2.86-.24,3.61-4.24,5.13-6.46.46,1.23-.84,2.33-1,3.61,2.28.06,3.59-2.49,6.46-2.47-1.86,2.39-6.21,2.28-8,4.75,1.33.51,3.78-.11,4.37,1.14-2.71.79-7.08-1.16-7.79,1.71,1,.38,3.35-.4,4.56.19-2.25,1.55-7.79-.19-8.17,3.23,1.55.39,3.18-.72,5.32-.38-2,2.06-7.64.47-8.17,4,1.84.55,3.39-.77,5.32-.76-2,2.35-7.62,1-8,4.94,1.89,0,3.61-1.69,6.08-1.71-1.52,2.79-7.11,1.5-7.6,5.32,1.7-.09,3.34-1.84,5.51-2.09.33,1-1.66,1.5-2.85,2.09s-2.62,1.42-3.61,1.9a6.8,6.8,0,0,0-.38,2.28c2.22-.56,3.32-2.25,5.51-2.85.2,2.3-4.84,2.78-6.27,4.94a3.85,3.85,0,0,0-.38,2.66c2.29-.81,3-3.21,5.7-3.61-1,3.58-7,3.3-6.08,8.17,2.26-1.1,2.92-3.79,5.7-4.37-.79,3.74-6.86,4.11-5.51,8.74,1.63-1.85,2.95-4,5.32-5.13-1.08,3-3.31,4.79-5.32,6.84A10.23,10.23,0,0,0,61.16,64c1.79-2.08,2.6-5.13,4.94-6.65-.34,4.4-5.48,6.43-3.8,11,2-2,2.31-5.8,4.75-7.41-.13,4.52-5.45,7.52-3,11.59,1.24-2.69,1.87-6,3.61-8.17,1,4.34-5,8.53-1.52,11.78.9-2.9,1.28-6.32,2.85-8.55,1.14,4.28-4,9.57-.38,12.16.63-3.11.71-6.76,1.71-9.5,2,4.63-3.08,11.27,1.33,13.11.45-3-.77-7.92,1.14-9.88,1.58,4.21-2,12,2.09,13.11.19-2.91-.46-6.63-.19-10.26,1.56,2.82,1.7,7,1.71,11.4a8.38,8.38,0,0,0,3,2.09c-.16-3.4-2.21-6.53-1.9-11a35.82,35.82,0,0,1,3,9.5c.13,1-.28,1.51.19,2.28.61,1,1.93,1,2.85,1.52-.54-3-3-6.62-2.66-10.45,2.2,2.8,3.26,6.75,4.18,10.83.59.87,1.83,1.08,3,1.33-.85-3.52-3-5.7-3-10.07,2.32,2.81,3.53,6.72,4.75,10.64,6.47,1.83,16.78,1.88,22.23-1a31,31,0,0,1,3.8-10.64c.29,3.83-1.52,7.22-2.66,10.26a4.87,4.87,0,0,0,3.42-1.33A35.07,35.07,0,0,1,119.87,80c.36,4-1.22,7.78-2.28,11,1,.46,1.91-.71,2.85-1,.7-4.18,1-8.8,2.28-12.35.77,4.13-.59,7.77-1.14,11.21A5.53,5.53,0,0,0,125,86.22c-.57-3.21-1-8.39.57-11,.82,3.15.28,7.13.38,10.26,1.32-.32,1.8-1.49,2.66-2.28-.38-3.69-1.52-7.58-1-11.59,1.78,2.21,1.18,6.79,1.71,10.26,4.56-2.43-.71-8,.19-13.11A24.47,24.47,0,0,1,132,78.05c1.31-.21,1.44-1.6,2.09-2.47-1.15-3.22-2.79-6-3.42-9.69,2.29,1.83,2.39,5.84,4.18,8.17,2.51-4-2.82-6.94-2.85-11.4,2.13,1.86,2.69,5.29,4.37,7.6,2.71-3.34-3.64-7.06-3.61-11.21,2.42,1.56,3,5,4.75,7.22.94-.63,1.13-2.42,1-3.23s-1.12-1.21-1.71-1.9a18.11,18.11,0,0,1-3.42-5.7c2.22,1.45,3.53,3.82,5.13,5.89,2.49-4.45-3.7-5.46-4.75-8.74.4-.27,1.55.52,2.09.95,1.15.94,2.11,2.56,3.23,3.23,1.46-4.63-3.69-4.12-4.18-7.41,1.67.54,2.45,2,3.8,2.85,1.25-5-4.67-4.45-6.08-7.41,2.38.41,3.54,2,5.51,2.85.69-4.62-5.39-4.11-7-7,2.37.42,3.64,1.93,5.7,2.66.52-3.94-5-3.44-7-5.51,2.18-.46,3.9,1.16,5.7,1.71.06-4.24-5.51-2.85-7.41-5.13,2.22,0,3.45,1,5.32,1.33.38-3.49-5-2.9-7.41-4.18,1-.81,3.37.28,4.75.38-.24-3.62-5.29-2.44-8.17-3.42,1.15-1.08,3.4-.18,5.13-.19-.06-2.54-4.44-2.4-7.6-2.47.5-1.14,3-.31,4.37-.57-.94-3.08-4.93-1.41-8-1.9.66-1,2.87-.41,4.37-.57C119.08,20,114.51,20,111.89,18c3.24-.64,4.77,2.07,7.41,2.66-.35-1.61-1.72-2.2-1.9-4C120,18,119.67,22.26,122.91,23c.33-1.41-1.24-2.55-1.14-4.37,2.14,2,1.89,6.47,5.13,7.41-.24-1.79-1.11-2.95-1.14-4.94,2.31,1.87,1.28,7.08,4.37,8.17.13-2.16-.72-3.33-.57-5.51,2.13,1.86.61,7.37,3.23,8.74,0-2.29-.12-3.64,0-5.7,1.93,1.68-.24,7.46,2.09,8.74.69-1.52,0-4.43,1.33-5.32.86,3.63-1.9,7.72.95,9.69.86-1.54-.08-4.88,1.9-5.32.34,3.63-2.44,7-.19,9.69,1.23-1.55.87-4.7,2.47-5.89.59,4.53-3.27,7.32-1.14,11,1.4-1.82,1.85-4.61,3.23-6.46.74,4.8-4.25,6.88-2.66,12,1.71-1.64,2.48-4.22,4.18-5.89,0,4.37-4.68,5.72-4.18,11.21,2-1.68,3.09-4.25,4.94-6.08,0,4.65-5.16,5.74-5.51,10.64,2-1.1,3.83-4,6.08-5.51-.43,4.2-5.82,5.08-6.84,9.31,2.17-1.06,4.34-3.76,7-4.94a24.17,24.17,0,0,1-8,7.22,11,11,0,0,0-.38,1.71C140.39,71.72,142.78,69.36,145.52,68.36Z" fill="#0b8d45"/><path d="M69.9,59.24H79C81.3,67.71,87.76,74.17,97.45,75,110,76.11,118.17,69,120.82,59.24h9.31C126.93,73.68,116,85.37,97.45,84.13c-14.84-1-24.7-11-27.55-24.32C69.94,59.49,69.58,59.32,69.9,59.24Zm8,3.8c.23-1-.6-1-.38-2.09-.54.16-.49-.27-1-.19C76.72,61.8,76.6,63.12,77.88,63Zm48.45-.76c-.89-1-2.64-1-4.18-1.33C122.59,62.22,125.05,62.48,126.33,62.28Zm-53.39.95c.42.59,1.92.11,2.28.76,0,.72-.8.72-.76,1.52.56.84.85,1.94,1.71,2.47a1.82,1.82,0,0,0,2.09-1.52c-1-.24-1.21.31-1.52.76-.22-.91-.85-1.43-1.14-2.28.42-.28.89-.5.76-1.33-.58-.56-1.91-.37-2.47-1,.16-.79,1.28-.62,1.52-1.33C74.24,61.61,72.93,61.76,72.94,63.23Zm51.3.19c-1.08-.5-1.66-1.32-2.85-.38.48,1,2.48.56,3.23,1.33-.28.67-1,.9-2.09.76a3,3,0,0,0,.57,2.09c-.38.19-.3.84-.95.76-1.18-.22-1.7-1.09-2.85-1.33.13,1.52,2,1.3,2.66,2.28A18.3,18.3,0,0,1,120.25,71c-2.32-1.23-3.7,2.58-5.13,2.85.14-1.07,1.51-2,.57-3a5,5,0,0,0-1,4.37c2.22-.44,2.93-3.4,4.94-3.42-1.64,1.34-2.86,3.1-4.94,4-.52-.07-.81-.88-1.33-.38s-.35,1.81-.76,2.47c-1,0-.73-1.18-1.52-1.33A3,3,0,0,0,113,79c.93-.21.28-2,.76-2.66.57.12.66.73,1.52.57a31.07,31.07,0,0,0,7.6-7.22,1.08,1.08,0,0,0-.19-.76c.73,0,1-.56,1.33-1,.13-.58-.2-.69-.19-1.14,1.7-.31,1.25-2.46,2.66-3.42C125.77,62.53,125.22,63.17,124.24,63.42ZM74.46,68.36h.76c.17-1.11-.75-1.15-.76-2.09H73.7C73.54,67.38,74.45,67.42,74.46,68.36Zm3.42,2.28c.34-.67,1.63-1.2,1.33-1.9-1-.18-.82.66-1.71,1-.08-.36-.41-.48-.38-1h-1A2,2,0,0,0,77.88,70.64Zm2.47,1.14a1.74,1.74,0,0,0,.57-1.33c-.21,0-.29-.21-.38-.38-1.66-.14-2.24,1.05-1.9,1.9-1,0-1.23-.79-1.9-1.14.23,1.39,1,2.44,2.66,1.9,2.71,2.35,5.39,4.75,8.93,6.27,1.07-.27,1-2.65,1.9-2.47-.15.93-1,2.16-.57,3,1-.91,1.2-2.73,1.71-4.18-.6-.09-.5.51-1,.57-.17-.34-.53-.48-.38-1.14-.47,0-.59.3-1,.38a3.84,3.84,0,0,1-.76,2.66c-1-.34.18-.83-.57-1.14a.93.93,0,0,1-1,.38c-.38-.39.08-.37.19-.76-1,.3-1.89,0-1.14-.76-1.07.06-2,0-2.09-1q.63,0,.57-.57c-.3-.94-1.33-1.72-2.28-1-.25.48.75.59.19.76C81.73,73.06,80.87,72.59,80.35,71.78Zm30,3.8a2.27,2.27,0,0,0,2.28-1.52C111.46,74.14,110.51,74.46,110.37,75.58Zm-1.52.57c-.51-.06-.67-.47-1.14-.57-.22,1.67,1,1.92,1.14,3.23a7.38,7.38,0,0,1-1.33.38c.78-1.36-2-1.42-2.09-.19-.3.74.49.39.57.76-1.54.4-3.4.62-4.18-.57-.26,1,.06,1.26.57,1.9-.34.74-1.19,1-1.9,1.33a3.08,3.08,0,0,0,1.71.38c.46-.36.54-1.11,1-1.52,3,0,4.17-1,6.46-1.52.37-1.46-1-2.18-.38-3.23.43,1,.74,2.17,1.71,2.66a5.85,5.85,0,0,0-1.9-4C108.93,75.48,109.26,76.18,108.85,76.15Zm-16.91.38c.53.67,2,1.4,2.66.38-.58-.76-1.32-.19-1.9-1C92.65,76.35,92,76.14,91.94,76.53Zm-.57,4.37c1.37.1,1.21-1.32,2.47-1.33-.11.62.13.88.19,1.33,2.52.72,4,.29,6.65.57.35-1,.57-2.34-.57-2.66-.52.75,0,1-.19,1.52-.71,0-1.54.14-1.33-.76-.73.87-2.52.53-3.8.38-.32-.25-.06-1.08-.38-1.33-1.52-.25-1.43,1.1-2.66,1.14-.77-.55.78-1.79-.19-1.9C91.32,78.7,90.53,80.14,91.37,80.9Zm4.94,1.52c.65.65,1.35.07,2.09.57,0-.21.21-.3.38-.38.14-.52-.38-.38-.38-.76C97.48,82.5,96.89,81.33,96.31,82.42ZM99,82.23a.71.71,0,0,0,.76.76c.27,0,.32-.31.57-.38C100.27,81.7,99.45,81.82,99,82.23Z" fill="#0b8d45"/></svg>