<svg xmlns="http://www.w3.org/2000/svg" width="141.621" height="52.655" viewBox="0 0 141.621 52.655">
  <g id="logo" transform="translate(0.001)">
    <g id="_x37_uoDrF.tif" transform="translate(91.244)">
      <g id="Group_3280" data-name="Group 3280">
        <path id="Path_1787" data-name="Path 1787" d="M158.077,0l.208.416a5.132,5.132,0,0,0,1.247,1.455,3.864,3.864,0,0,0,1.94.693c.485.069.97.069,1.524.139a13.3,13.3,0,0,1,5.543,1.732,9.289,9.289,0,0,1,3.533,3.6.692.692,0,0,0,.346.277,22.712,22.712,0,0,1,3.533,1.039,11.617,11.617,0,0,1,3.672,2.148,10.57,10.57,0,0,1,3.118,4.434,16.713,16.713,0,0,1,.554,1.732c0,.069.069.208.069.277V52.516c0,.139-.069.139-.139.139H133.2c-.277,0-.208,0-.208-.208V18.36a5.957,5.957,0,0,1,.624-2.7,9.793,9.793,0,0,1,2.356-3.187,15.152,15.152,0,0,1,5.82-3.464,17,17,0,0,1,2.009-.554.381.381,0,0,0,.346-.208,9.724,9.724,0,0,1,5.058-4.365,13.007,13.007,0,0,1,3.118-.831c.762-.139,1.594-.208,2.356-.277a4,4,0,0,0,1.178-.416A4.979,4.979,0,0,0,157.731.624,2.809,2.809,0,0,0,158.077,0Z" transform="translate(-132.989)" fill="#157c6a"/>
        <path id="Path_1788" data-name="Path 1788" d="M182.96,39.567v6.651c0,.069,0,.069-.069.069h-4.5c-.069,0-.139,0-.139-.139V43.931c0-.139,0-.139-.139-.139h-6.582c-.139,0-.208,0-.208-.208V41.437c0-.069,0-.069-.069-.069H146.17a.149.149,0,0,0-.139.139v2.217c0,.139,0,.139-.139.139-1.663,0-3.256,0-4.919-.069h-1.663c-.208,0-.208,0-.208.208v2.286c0,.069,0,.069-.069.069h-4.3c-.139,0-.139,0-.139-.139V19.406a7.194,7.194,0,0,1,.97-3.6,10.328,10.328,0,0,1,2.7-3.048,15.632,15.632,0,0,1,6.582-3.118.8.8,0,0,0,.485-.346,9.076,9.076,0,0,1,4.85-4.088,13.532,13.532,0,0,1,3.187-.831c.693-.139,1.386-.208,2.078-.277a3.061,3.061,0,0,0,1.109-.416,5.189,5.189,0,0,0,1.8-1.663c.069-.069.069-.139.139-.208s.069-.139.139-.208c.069.069.069.139.139.208a3.571,3.571,0,0,0,.9,1.178,3.657,3.657,0,0,0,2.009.97c.346.069.762.069,1.109.139a13.317,13.317,0,0,1,5.612,1.524,9.093,9.093,0,0,1,3.741,3.672c.069.139.139.208.277.208a19.207,19.207,0,0,1,4.3,1.316,11.945,11.945,0,0,1,3.88,2.841,11.522,11.522,0,0,1,2.148,3.811c0,.069.069.139.069.208a4.065,4.065,0,0,1,.277,1.593V38.8h-.069a3.907,3.907,0,0,1-.277-.831c-.624-2.425-1.247-4.78-1.871-7.205-.554-2.217-1.178-4.434-1.732-6.651-.208-.762-.416-1.455-.554-2.217-.069-.277-.069-.277-.346-.277-.693,0-.554,0-.693-.554-.069-.277-.069-.277-.346-.346h-.485a.254.254,0,0,1-.277-.277v-.069c-.069-.416-.069-.416-.485-.416h-.208c-.208,0-.277-.069-.346-.277,0-.069,0-.069-.069-.139,0-.208-.139-.277-.346-.277a14.105,14.105,0,0,1-4.5-1.316c-.624-.346-1.247-.693-1.871-1.109a2.93,2.93,0,0,0-.485-.346,6.03,6.03,0,0,0-.762-.624,5.454,5.454,0,0,0-2.079-.554,7.483,7.483,0,0,0-2.148.139,9.039,9.039,0,0,0-3.187,1.524,4.853,4.853,0,0,0-.693.554c-.139.139-.208.139-.346,0a10.984,10.984,0,0,0-3.118-1.871,7.247,7.247,0,0,0-2.494-.416,6,6,0,0,0-2.217.416,2.613,2.613,0,0,0-1.109.831l-.069.069a13.247,13.247,0,0,1-3.118,1.593,16.126,16.126,0,0,1-3.533.762c-.208,0-.277.069-.277.277-.069.485,0,.554-.624.624a.458.458,0,0,0-.485.416c-.069.277-.139.277-.346.346-.139,0-.277.069-.416.069a.184.184,0,0,0-.208.208c-.069.139-.069.346-.139.485s-.139.208-.277.208h-.346c-.208,0-.277.069-.346.277-.554,2.078-1.178,4.226-1.732,6.3-.485,1.871-1.039,3.672-1.524,5.543-.485,1.663-.9,3.326-1.386,4.988a1.179,1.179,0,0,0-.069.485.814.814,0,0,0,.693.762h.208c2.009,0,4.018.069,6.1,0,2.286-.069,4.573,0,6.928-.069,2.286-.069,4.5,0,6.79-.069.416,0,.9-.069,1.316-.069a.629.629,0,0,1,.485.208,1.944,1.944,0,0,0,.97.693,1.828,1.828,0,0,0,1.94-.554.63.63,0,0,1,.554-.277c1.247,0,2.494.069,3.741.069h2.356c.831.069,1.594,0,2.425.069.762.069,1.594,0,2.356.069.831.069,1.663,0,2.494.069.762.069,1.524,0,2.286.069.831.069,1.663,0,2.494.069.762.069,1.524,0,2.286,0,.208,0,.416.069.693.069a.8.8,0,0,0,.762-.416c-.139-.139-.139-.208,0-.277Z" transform="translate(-133.484 -0.491)" fill="#fff"/>
        <path id="Path_1789" data-name="Path 1789" d="M182.979,46.079a.792.792,0,0,1-.485.554.417.417,0,0,1-.277.069c-1.386,0-2.771-.069-4.157-.069-1.178,0-2.356-.069-3.533-.069-1.594,0-3.187-.069-4.781-.069s-3.187-.069-4.781-.069c-1.455,0-2.841-.069-4.3-.069-.139,0-.208,0-.277.139a1.854,1.854,0,0,1-1.593.831,1.781,1.781,0,0,1-1.455-.831.494.494,0,0,0-.416-.208c-2.286,0-4.642,0-6.928.069-1.94,0-3.949,0-5.889.069-2.563,0-5.2,0-7.76.069H135.8a.851.851,0,0,1-.9-1.039,3.43,3.43,0,0,1,.277-.9c1.455-5.2,2.91-10.462,4.365-15.658l.208-.624c0-.139.069-.139.208-.139a1.526,1.526,0,0,0,.554-.069c.139,0,.139-.069.208-.139a2.022,2.022,0,0,0,.139-.624.149.149,0,0,1,.139-.139c.208,0,.416-.069.693-.069a.149.149,0,0,0,.139-.139c0-.139.069-.277.069-.416s.069-.139.208-.139c.208,0,.416-.069.624-.069.069,0,.139,0,.139-.139s.069-.346.069-.485c0-.208,0-.208.208-.208a16.647,16.647,0,0,0,4.919-1.316,13.946,13.946,0,0,0,1.732-.97.068.068,0,0,0,.069-.069c.069.069.208,0,.277.069.485,1.039.9,2.078,1.386,3.187l3.118,7.275c.624,1.524,1.316,3.048,1.94,4.5,0,.069.069.139,0,.208a.13.13,0,0,1-.208,0,6.437,6.437,0,0,1-.346-.693c-1.455-3.395-2.91-6.859-4.365-10.254-.554-1.247-1.109-2.494-1.593-3.811,0-.069-.069-.069-.069-.139-.277.624-.554,1.247-.9,1.871-.416.9-.831,1.8-1.247,2.633-.485,1.109-.97,2.217-1.524,3.256l-1.455,3.118c-.554,1.247-1.109,2.425-1.663,3.672,0,.069-.069.139-.139.208h-.208c-.069-.069,0-.139.069-.208.97-2.148,2.009-4.365,2.979-6.513.9-2.009,1.871-4.018,2.771-6.028.277-.554.485-1.178.762-1.732,0-.069.069-.139.069-.208-.277.139-.485.277-.762.416a13.2,13.2,0,0,1-3.464,1.316,17.317,17.317,0,0,1-2.009.346.184.184,0,0,0-.208.208c-.208,1.247-.624,2.425-.9,3.672-.624,2.356-1.316,4.711-1.94,7.136-.554,2.009-1.109,4.088-1.663,6.1-.208.693-.416,1.386-.554,2.078-.069.208,0,.208.139.277a17.562,17.562,0,0,0,2.009.277,6.675,6.675,0,0,0,1.178,0,18.938,18.938,0,0,0,3.395-.416c.139,0,.346-.139.485-.139a24.3,24.3,0,0,1,4.988-1.455,11.863,11.863,0,0,1,7.69,1.247,5.167,5.167,0,0,1,.831.485c.139.069.139.069.139-.069V25.779c.069-.208.139-.208.277-.069.069.139,0,.277,0,.416V44.9c0,.069-.069.208.069.277a.36.36,0,0,0,.277-.139,14.047,14.047,0,0,1,4.711-1.593,14.629,14.629,0,0,1,1.8-.139,13.16,13.16,0,0,1,4.018.624c.9.277,1.8.624,2.7.97a13.445,13.445,0,0,0,3.672.831,11.1,11.1,0,0,0,3.672-.416c.139-.069.208-.139.139-.277l-2.7-10.185c-.693-2.563-1.386-5.2-2.078-7.76l-.208-.831c-.069-.416-.139-.416-.485-.485a16.793,16.793,0,0,1-3.533-.97,9.417,9.417,0,0,1-2.563-1.455l-.069-.069h0l.069.069c.9,2.009,1.732,4.018,2.633,6.1.97,2.286,1.94,4.573,2.91,6.79.208.554.485,1.109.693,1.663.069.069.139.208.069.277H174.8c-.069-.069-.069-.139-.139-.208-.624-1.455-1.316-2.979-1.94-4.434-.97-2.286-1.94-4.573-2.979-6.859-.416-1.039-.9-2.078-1.316-3.048,0-.069-.069-.139-.069-.208-.139.346-.346.693-.485.97-.416.9-.831,1.8-1.247,2.771l-1.455,3.118-1.247,2.7c-.416.9-.831,1.8-1.247,2.633L161.639,37.9c0,.069-.069.139-.069.208a.255.255,0,0,1-.208.069c-.069-.069,0-.139,0-.277l1.039-2.286c.554-1.247,1.109-2.494,1.663-3.672l1.455-3.118c.485-1.039.97-2.148,1.455-3.187.346-.693.624-1.386.97-2.148l.208-.416c0-.069-.069-.208,0-.277a.36.36,0,0,1,.277.139,12.552,12.552,0,0,0,5.058,2.356,12.789,12.789,0,0,0,1.594.277c.139,0,.208.069.277.208,0,.139.069.208.069.346s.069.139.208.139a1.918,1.918,0,0,1,.624.069c.139,0,.139,0,.208.208a3,3,0,0,0,.069.346.149.149,0,0,0,.139.139h.693c.139,0,.139.069.208.139.069.208.069.416.139.554a.149.149,0,0,0,.139.139h.554c.208,0,.208,0,.208.139l1.039,3.949c1.109,4.157,2.148,8.314,3.256,12.471.069.208.139.485.208.693v.139a.961.961,0,0,1,0,.624C183.048,46.01,183.048,46.079,182.979,46.079Z" transform="translate(-133.572 -7.004)" fill="#1d1d1b"/>
        <path id="Path_1790" data-name="Path 1790" d="M154.429,63.795c.139.069.139.139.208.208a5.553,5.553,0,0,1,.97,2.7c.069.416.069.831.139,1.247a.784.784,0,0,0,.831.762.879.879,0,0,0,.416-.069,4.991,4.991,0,0,0,1.663-.693c-.277-.416-.624-.485-1.178-.346a.853.853,0,0,1,.346-.693,1.337,1.337,0,0,1,.693-.208,4.985,4.985,0,0,1,2.009.208c.277.069.277.208.208.416a.541.541,0,0,1-.277.277,6.407,6.407,0,0,0-.693.346c-.139.069-.139.069-.069.208a.381.381,0,0,0,.346.208,1.729,1.729,0,0,0,1.178-.069.606.606,0,0,0,.346-.624c-.208-1.386-.346-2.841-.554-4.226a18.669,18.669,0,0,0-.277-1.94.91.91,0,0,1,.208-.693,12.917,12.917,0,0,0,.693,1.386h-.277c-.069,0-.139,0-.139.139.069.277.069.624.139.9l.208,1.871c.069.554.139,1.039.208,1.593a3.446,3.446,0,0,1-.069,1.455,1.264,1.264,0,0,1-.97.97,1.817,1.817,0,0,1-1.039-.139,1.868,1.868,0,0,1-.554-.485.254.254,0,0,0-.208-.069,4.6,4.6,0,0,1-1.316.624,2.78,2.78,0,0,1-1.039.208,1.63,1.63,0,0,1-.554-.139c-.208-.069-.277-.208-.346-.416a2.023,2.023,0,0,1-.139-.624.879.879,0,0,0-.069-.416H155.4a5.088,5.088,0,0,1-2.078,1.94c-.069.069-.208.069-.277.139a1.351,1.351,0,0,1-.9.069.66.66,0,0,1-.554-.554.961.961,0,0,1,0-.624v-.277c-.069.069-.208.139-.277.208a6.518,6.518,0,0,1-1.524.831,3.949,3.949,0,0,1-1.524.277,1.647,1.647,0,0,1-1.663-1.732,2.561,2.561,0,0,1,.416-1.455c.069-.069.139-.208.208-.277,0,.139-.069.208-.069.277a3.264,3.264,0,0,0-.277,1.178,1.194,1.194,0,0,0,.9,1.247,3.187,3.187,0,0,0,1.8,0,9.821,9.821,0,0,0,1.247-.554,11.506,11.506,0,0,0,1.455-1.109.36.36,0,0,0,.139-.277,14.59,14.59,0,0,0-.139-1.732c-.069-.554-.069-1.039-.139-1.593-.069-.624-.139-1.247-.208-1.8-.069-.346-.069-.762-.139-1.109v-.208c.069-.069.139-.139.208-.139s.069.069.139.139c.139.416.277.762.416,1.178v.069c-.069,0-.139-.139-.277-.139v.139c.069,1.109.208,2.217.277,3.256,0,.416.069.831.069,1.247a4.054,4.054,0,0,1-.139.9,1.648,1.648,0,0,1-.624.9c-.069.069-.139.139-.139.208a1.179,1.179,0,0,0,.069.485.462.462,0,0,0,.485.346,1.758,1.758,0,0,0,.831-.139,6.974,6.974,0,0,0,1.732-1.178,3.809,3.809,0,0,0,.485-.624.417.417,0,0,0,.069-.277,10.93,10.93,0,0,0-.762-2.563c-.069-.069-.069-.139-.069-.277C154.429,64.28,154.429,64.072,154.429,63.795Z" transform="translate(-137.17 -18.553)" fill="#fff"/>
        <path id="Path_1791" data-name="Path 1791" d="M177.7,71.2l2.286-1.039c.97-.485,1.94-1.039,2.91-1.593l.624-.416a.728.728,0,0,0,.346-.624.625.625,0,0,0-.069-.346,8.161,8.161,0,0,1-.762-1.316.782.782,0,0,1-.069-.554.254.254,0,0,1,.069-.208c.208.139.346.346.554.485.069.069,0,.139,0,.208a.13.13,0,0,0,0,.208,3.841,3.841,0,0,0,.416.554,1.4,1.4,0,0,1,.208.762c0,.208-.069.416-.069.624a1,1,0,0,1-.485.693c-.139.069-.277.208-.416.277l-.139.139a1.689,1.689,0,0,0,0,.831.814.814,0,0,0,.762.693,1.9,1.9,0,0,0,.9-.139,7.455,7.455,0,0,0,2.217-1.663c.069-.069.069-.139.139-.208a.211.211,0,0,0,0-.277.255.255,0,0,0-.208-.069,3.373,3.373,0,0,1-.831.069c-.416-.069-.693-.346-.485-.831,0-.069.069-.139.069-.208a.728.728,0,0,1,1.247-.208,1.847,1.847,0,0,1,.485.97.254.254,0,0,0,.069.208.958.958,0,0,1-.208.831,6.075,6.075,0,0,1-2.009,1.732,2.593,2.593,0,0,1-1.247.346,1,1,0,0,1-1.109-1.039v-.97c-.069,0-.139.069-.208.069a19.088,19.088,0,0,1-2.009,1.178,3.061,3.061,0,0,1-1.109.416,7.078,7.078,0,0,1-1.871.416Z" transform="translate(-146.723 -19.997)" fill="#fff"/>
        <path id="Path_1792" data-name="Path 1792" d="M173.007,69.048c0,.208-.069.416-.069.624a3.372,3.372,0,0,0,.069.831.976.976,0,0,0,.9.693,2.033,2.033,0,0,0,1.109-.277,7.418,7.418,0,0,0,1.524-1.039c.139-.139.277-.208.346-.346l.208-.208a.624.624,0,0,0,.069-.693c-.139-.277-.277-.624-.416-.9a1.63,1.63,0,0,1-.139-.554V66.9c.139.069.208.208.346.277s.208.208.346.277v.069c-.069.069-.139.069-.139.139s.069.139.139.208a2.129,2.129,0,0,1,0,1.94.068.068,0,0,1-.069.069,11.023,11.023,0,0,1-1.663,1.386,3.183,3.183,0,0,1-1.109.485.962.962,0,0,1-.624,0,1.233,1.233,0,0,1-.762-.554,1.874,1.874,0,0,1-.208-1.039,1.274,1.274,0,0,1,.139-1.109Z" transform="translate(-145.216 -20.55)" fill="#fff"/>
        <path id="Path_1793" data-name="Path 1793" d="M170.093,68.76c0-.554-.069-1.039-.069-1.593-.069-.762-.139-1.593-.208-2.356-.069-.831-.139-1.593-.277-2.425a2.491,2.491,0,0,0-.139-.762,1.179,1.179,0,0,1,.069-.485.149.149,0,0,1,.139-.139c.069,0,.069.069.139.139a3.9,3.9,0,0,1,.485,1.247v.139c-.139-.069-.208-.139-.346-.139a1.179,1.179,0,0,0,.069.485c.069.831.208,1.732.277,2.563a13.446,13.446,0,0,1,.139,1.663,2.831,2.831,0,0,1-.208,1.524A.215.215,0,0,1,170.093,68.76Z" transform="translate(-144.173 -18.738)" fill="#fff"/>
        <path id="Path_1794" data-name="Path 1794" d="M182.087,61.893c-.139-.069-.208-.139-.346-.208v.139c.069.831.208,1.663.277,2.494.069.693.139,1.316.208,2.009a2.587,2.587,0,0,1-.208,1.455c0,.069-.069.069-.069.139h-.069c0-.277-.069-.485-.069-.762-.069-.831-.139-1.663-.208-2.425-.139-1.109-.208-2.286-.416-3.395a1.884,1.884,0,0,1,0-.624c0-.069,0-.139.069-.139.069-.069.208-.069.208,0A3.327,3.327,0,0,1,182.087,61.893Z" transform="translate(-147.784 -18.592)" fill="#fff"/>
        <path id="Path_1795" data-name="Path 1795" d="M175.14,65.657c0,.139-.069.208-.069.346a2.461,2.461,0,0,1-.277.624,2.106,2.106,0,0,0-.346.485.068.068,0,0,0,.069.069,1.048,1.048,0,0,1,.485.97.879.879,0,0,1-.069.416.952.952,0,0,1-.346.554,1.392,1.392,0,0,1-.554.277c-.277.069-.485,0-.554-.277v-.139a2.427,2.427,0,0,1,.416-1.524.13.13,0,0,0,0-.208,6.063,6.063,0,0,1-.554-.693c-.069-.139-.139-.208-.139-.346v-.346c.277.139.485.277.762.416-.139.208-.139.208.069.416a.533.533,0,0,0,.208.139c.277-.416.624-.831.9-1.247Z" transform="translate(-145.34 -20.138)" fill="#fff"/>
        <path id="Path_1796" data-name="Path 1796" d="M160.7,66.25a.521.521,0,0,1,.346-.485c.485-.277.9-.554,1.386-.831.693-.416,1.316-.762,2.009-1.178a.068.068,0,0,0,.069-.069c.069,0,.139-.069.139,0a.13.13,0,0,1,0,.208c-.069.069-.139.069-.139.139-1.109.624-2.286,1.247-3.395,1.94a.242.242,0,0,0-.139.069.255.255,0,0,0-.069.208c0,.069.069.069.139.069s.139.069.208.139c0,.069.069.069,0,.139,0,.069-.069.069-.139.069C160.769,66.735,160.7,66.527,160.7,66.25Z" transform="translate(-141.501 -19.554)" fill="#fff"/>
        <path id="Path_1797" data-name="Path 1797" d="M157.163,62.755a7.84,7.84,0,0,0,.9-.693,2.224,2.224,0,0,0-.97.069c-.069,0-.139.069-.208,0s0-.139,0-.208a.589.589,0,0,1,.208-.346,1.211,1.211,0,0,1,1.178-.208c.139.069.139.069.139.208a1.094,1.094,0,0,1-1.108,1.109C157.163,62.755,157.163,62.824,157.163,62.755Z" transform="translate(-140.32 -18.83)" fill="#fff"/>
        <path id="Path_1798" data-name="Path 1798" d="M171.3,63.025a13.039,13.039,0,0,0,1.594-1.109c.139-.139.277-.208.346-.346,0-.069-.069-.069-.139-.139-.139-.139-.208-.208-.139-.346v-.139a.13.13,0,0,1,0-.208c0-.139.069-.139.208-.139a1,1,0,0,1,.762.624c.069.139.069.277-.069.346-.069.139-.208.139-.346.069s-.139,0-.208.069a4.84,4.84,0,0,1-2.009,1.316Z" transform="translate(-144.757 -18.615)" fill="#fff"/>
        <path id="Path_1799" data-name="Path 1799" d="M161.939,61.947a2.842,2.842,0,0,1,.069-.762.416.416,0,0,1,.069-.277c.069-.139.139-.208.277-.208s.208.069.277.208c0,.069,0,.069-.069.139h-.208c-.069,0-.139,0-.139.139a.879.879,0,0,0-.069.416,2.808,2.808,0,0,1,0,.762c0,.069,0,.139-.069.139a.149.149,0,0,1-.139-.139.525.525,0,0,1-.139-.277c-.069-.069-.069-.208-.139-.277s-.139-.139-.208-.139c-.139,0-.208-.069-.346-.139a.473.473,0,0,1-.208-.346.3.3,0,0,1,.346-.069.184.184,0,0,1,.208.208c.139.208.208.346.346.554C161.87,61.878,161.87,61.947,161.939,61.947Z" transform="translate(-141.562 -18.646)" fill="#fff"/>
        <path id="Path_1800" data-name="Path 1800" d="M178.2,62.043a.184.184,0,0,1-.208-.208l-.208-.416c-.069-.139-.069-.139-.208-.139a.625.625,0,0,1-.346-.069c-.139-.069-.208-.139-.139-.277a.309.309,0,0,1,.277-.208.36.36,0,0,1,.277.139,2.106,2.106,0,0,1,.346.485c0,.069.069.069.139.139,0-.277.069-.485.069-.762,0-.139,0-.208.069-.277.069-.139.277-.139.416-.069a.13.13,0,0,1,0,.208c-.069,0-.069,0-.139.069-.139,0-.139,0-.208.208C178.266,61.211,178.266,61.627,178.2,62.043Z" transform="translate(-146.526 -18.533)" fill="#fff"/>
        <path id="Path_1801" data-name="Path 1801" d="M188.039,65.255c-.069,0-.139,0-.139-.069s0-.069.069-.069.069-.069.139-.069c.693-.416,1.386-.762,2.009-1.178.069,0,.069-.069.139-.069s.139,0,.139.069v.139a.242.242,0,0,1-.139.069c-.693.346-1.316.693-2.009,1.109A.255.255,0,0,1,188.039,65.255Z" transform="translate(-149.856 -19.598)" fill="#fff"/>
        <path id="Path_1802" data-name="Path 1802" d="M179.063,64.539c0,.069-.069.069-.139.139a4.661,4.661,0,0,0-.762.485c-.416.277-.831.485-1.316.762a.255.255,0,0,1-.208.069c-.069,0-.069,0-.139-.069,0-.069,0-.069.069-.069l.069-.069c.693-.416,1.386-.831,2.079-1.316.069,0,.069-.069.139-.069C178.994,64.4,179.063,64.469,179.063,64.539Z" transform="translate(-146.354 -19.782)" fill="#fff"/>
        <path id="Path_1803" data-name="Path 1803" d="M183.439,61.139c-.069,0-.139,0-.139-.069s0-.069.069-.069a.068.068,0,0,0,.069-.069c.693-.277,1.316-.485,2.009-.762.069,0,.069,0,.139-.069.069,0,.139,0,.139.069s0,.139-.069.139-.069,0-.139.069c-.693.208-1.316.485-2.009.693A.068.068,0,0,1,183.439,61.139Z" transform="translate(-148.443 -18.461)" fill="#fff"/>
        <path id="Path_1804" data-name="Path 1804" d="M185.247,62.893c-.139.139-.208.277-.346.416-.069.069-.069.069-.139,0-.139-.139-.346-.277-.485-.416-.069-.069-.069-.069,0-.139l.277-.277c.069-.069.069-.069.139,0A3.845,3.845,0,0,0,185.247,62.893Z" transform="translate(-148.727 -19.176)" fill="#fff"/>
        <path id="Path_1805" data-name="Path 1805" d="M173.2,63.5c.208.139.416.208.624.346.069,0,.069.069,0,.139h0l-.208.416c-.139,0-.277-.139-.416-.208-.277-.139-.277-.069-.139-.416C173.06,63.708,173.129,63.639,173.2,63.5Z" transform="translate(-145.269 -19.506)" fill="#fff"/>
        <path id="Path_1806" data-name="Path 1806" d="M174.508,63.2a3.869,3.869,0,0,1,.554.346c.069.069.069.069.069.139-.069.139-.139.208-.139.346,0,.069-.069.069-.139.069-.139-.069-.346-.208-.485-.277-.069,0-.069-.069-.069-.139A2.516,2.516,0,0,0,174.508,63.2Z" transform="translate(-145.678 -19.414)" fill="#fff"/>
        <path id="Path_1807" data-name="Path 1807" d="M150.826,65.7v.693c0,.416.139.416.485.277h.069a1,1,0,0,1-.139.485.26.26,0,0,1-.416,0,.747.747,0,0,1-.139-.554,1.385,1.385,0,0,1,.139-.9Z" transform="translate(-138.417 -20.182)" fill="#fff"/>
        <path id="Path_1808" data-name="Path 1808" d="M164.67,73.793a.878.878,0,0,1-.624.277c-.208,0-.346-.139-.208-.346,0-.069.069-.139.069-.208-.069-.069-.208-.069-.208-.139v-.139c0-.139.069-.139.277-.139a.417.417,0,0,0,.069.277.13.13,0,0,1,0,.208.149.149,0,0,1-.139.139c-.069.139-.069.208.069.208a.625.625,0,0,0,.346-.069c.208-.139.277-.139.346-.069Z" transform="translate(-142.422 -22.455)" fill="#fff"/>
        <path id="Path_1809" data-name="Path 1809" d="M149.511,69.5a1.919,1.919,0,0,1,.069.624.149.149,0,0,1-.139-.139c-.069-.069-.069-.139-.139-.208a.439.439,0,0,0-.416-.346c-.069,0-.208-.069-.208-.139-.069-.139-.069-.208.069-.208.139-.069.208,0,.346.069a2.106,2.106,0,0,1,.346.485c.069.069.069-.069.069-.069C149.442,69.572,149.373,69.5,149.511,69.5Z" transform="translate(-137.795 -21.213)" fill="#fff"/>
        <path id="Path_1810" data-name="Path 1810" d="M165.108,60.969v.277c0,.277.069.346.277.277h.069a.381.381,0,0,1-.208.346c-.139.069-.277-.069-.346-.208v-.277a1.762,1.762,0,0,1,.139-.485C165.177,60.9,165.108,60.969,165.108,60.969Z" transform="translate(-142.791 -18.707)" fill="#fff"/>
        <path id="Path_1811" data-name="Path 1811" d="M160.265,64.077c0,.069-.069.208-.069.277-.069.208,0,.277.208.277h.069V64.7c-.069.208-.208.277-.346.208a.253.253,0,0,1-.139-.346.464.464,0,0,1,.277-.485C160.2,64.008,160.265,64.008,160.265,64.077Z" transform="translate(-141.274 -19.667)" fill="#fff"/>
        <path id="Path_1812" data-name="Path 1812" d="M163.869,66.677v.416c0,.277.069.277.346.208h.069v.139c-.069.139-.139.208-.277.208a.312.312,0,0,1-.208-.208v-.416a.519.519,0,0,1,.069-.346Z" transform="translate(-142.453 -20.466)" fill="#fff"/>
        <path id="Path_1813" data-name="Path 1813" d="M168.777,72.539c0,.139-.069.208-.069.346-.069.208,0,.208.208.208h.069c-.069.208-.208.277-.346.208s-.139-.208-.139-.346a2.074,2.074,0,0,1,.277-.554Z" transform="translate(-143.897 -22.24)" fill="#fff"/>
        <path id="Path_1814" data-name="Path 1814" d="M156.557,68.957c0,.069-.069.139-.069.208-.069.208-.069.208.139.277h.069v.069c-.139.139-.277.208-.346.139-.139-.069-.139-.208-.069-.416a.691.691,0,0,1,.277-.346Z" transform="translate(-140.129 -21.152)" fill="#fff"/>
        <path id="Path_1815" data-name="Path 1815" d="M158.357,73.308c0,.069-.069.069-.069.139-.069.139,0,.208.139.277h.069c-.069.139-.277.208-.346.139-.139-.069-.139-.208-.069-.416a.957.957,0,0,1,.208-.277.068.068,0,0,0,.069-.069h0c.069,0,.069,0,.069.069s0,.069-.069.139Z" transform="translate(-140.682 -22.455)" fill="#fff"/>
        <path id="Path_1816" data-name="Path 1816" d="M187.639,70.169v.208c0,.139,0,.208.208.208h.139a.068.068,0,0,1-.069.069c-.069.139-.208.208-.277.139a.525.525,0,0,1-.139-.277.984.984,0,0,1,.139-.416Z" transform="translate(-149.733 -21.533)" fill="#fff"/>
        <path id="Path_1817" data-name="Path 1817" d="M152.439,73.477v.069c-.069.208-.069.208.139.277,0,.069-.069.069-.069.139-.139.069-.208,0-.208-.139a.255.255,0,0,1,.069-.208c-.069-.069-.069-.139.069-.139Z" transform="translate(-138.921 -22.554)" fill="#fff"/>
        <path id="Path_1818" data-name="Path 1818" d="M149.869,68.846h0c-.069.139,0,.208,0,.277s0,.069-.069.069v-.485c.069,0,0-.069.069-.139h0l.069-.069h.208l.069.069h0a.068.068,0,0,0,.069.069h0v.069h0C150.077,68.846,149.939,68.777,149.869,68.846Z" transform="translate(-138.153 -21.042)" fill="#fff"/>
        <path id="Path_1819" data-name="Path 1819" d="M156.439,65.377c-.069.139,0,.139.139.208-.069.069-.139.139-.208.069a.255.255,0,0,1-.069-.208c0-.069.069-.069.139-.069Z" transform="translate(-140.149 -20.066)" fill="#fff"/>
        <path id="Path_1820" data-name="Path 1820" d="M149.786,69.416c.069-.069,0-.139.069-.208a.254.254,0,0,1,.069-.208v.485c-.069.069,0,.139-.069.208,0,.069-.069.069-.069,0C149.786,69.554,149.717,69.485,149.786,69.416Z" transform="translate(-138.139 -21.195)" fill="#fff"/>
        <path id="Path_1821" data-name="Path 1821" d="M183.369,73.086v.139a.069.069,0,1,1,0,.139c-.069,0-.069,0-.069-.069a.255.255,0,0,1,.069-.208Z" transform="translate(-148.443 -22.441)" fill="#fff"/>
        <path id="Path_1822" data-name="Path 1822" d="M183.969,67.586a.069.069,0,1,1,0,.139c-.069,0-.069,0-.069-.069s0-.069.069-.069Z" transform="translate(-148.627 -20.752)" fill="#fff"/>
        <path id="Path_1823" data-name="Path 1823" d="M171.208,64.1h0a.149.149,0,0,1-.139.139c-.069,0-.069,0-.069-.069C171.069,64.169,171.139,64.1,171.208,64.1Z" transform="translate(-144.665 -19.69)" fill="#fff"/>
        <path id="Path_1824" data-name="Path 1824" d="M156.669,68.908a.068.068,0,0,0-.069-.069c0-.069.069-.069.139-.139v.069A.242.242,0,0,0,156.669,68.908Z" transform="translate(-140.242 -21.103)" fill="#fff"/>
        <path id="Path_1825" data-name="Path 1825" d="M165.169,60.908c0-.069,0-.069-.069-.139,0-.069,0-.069.069-.069A.13.13,0,0,1,165.169,60.908Z" transform="translate(-142.852 -18.646)" fill="#fff"/>
        <path id="Path_1826" data-name="Path 1826" d="M149.9,68.969c.069-.069.208,0,.277-.069C150.108,68.969,149.969,68.9,149.9,68.969Z" transform="translate(-138.183 -21.164)" fill="#fff"/>
        <path id="Path_1827" data-name="Path 1827" d="M183.977,67.508h0a.13.13,0,0,1,0-.208Z" transform="translate(-148.635 -20.673)" fill="#fff"/>
        <path id="Path_1828" data-name="Path 1828" d="M177.639,73.9h0c0,.069-.069.069-.139.069A.242.242,0,0,1,177.639,73.9Z" transform="translate(-146.661 -22.7)" fill="#fff"/>
        <path id="Path_1829" data-name="Path 1829" d="M158.577,73.239c-.069,0-.069-.069,0,0,0-.069,0-.139.069-.139s.069,0,.069.069C158.646,73.169,158.577,73.169,158.577,73.239Z" transform="translate(-140.833 -22.455)" fill="#fff"/>
        <path id="Path_1830" data-name="Path 1830" d="M156.5,65.308h0c0-.139,0-.139.069-.208h0A.255.255,0,0,1,156.5,65.308Z" transform="translate(-140.211 -19.997)" fill="#fff"/>
        <path id="Path_1831" data-name="Path 1831" d="M158.7,73.039h0c0-.069,0-.139.069-.139A.242.242,0,0,1,158.7,73.039Z" transform="translate(-140.887 -22.393)" fill="#fff"/>
        <path id="Path_1832" data-name="Path 1832" d="M173.086,69.939h0a.1.1,0,0,1,0-.139C173.156,69.869,173.156,69.939,173.086,69.939Z" transform="translate(-145.296 -21.441)" fill="#fff"/>
        <path id="Path_1833" data-name="Path 1833" d="M152.486,73.439c0-.069-.069-.069,0,0,0-.069,0-.139.069-.139A.242.242,0,0,0,152.486,73.439Z" transform="translate(-138.968 -22.516)" fill="#fff"/>
        <path id="Path_1834" data-name="Path 1834" d="M175.969,65.639a.068.068,0,0,0-.069-.069.068.068,0,0,1,.069-.069v.139Z" transform="translate(-146.17 -20.12)" fill="#fff"/>
        <path id="Path_1835" data-name="Path 1835" d="M157.277,63.4c0,.069.069,0,.069.069h-.069s-.069,0,0-.069Z" transform="translate(-140.433 -19.475)" fill="#fff"/>
        <path id="Path_1836" data-name="Path 1836" d="M160.377,64.039h0v0Z" transform="translate(-141.386 -19.629)" fill="#fff"/>
        <path id="Path_1837" data-name="Path 1837" d="M187.669,70.139a.068.068,0,0,0-.069-.069.068.068,0,0,1,.069-.069c.069,0,.069,0,.069.069A.068.068,0,0,0,187.669,70.139Z" transform="translate(-149.764 -21.502)" fill="#fff"/>
        <path id="Path_1838" data-name="Path 1838" d="M187.686,69.939h0a.1.1,0,0,1,0-.139C187.756,69.869,187.756,69.939,187.686,69.939Z" transform="translate(-149.781 -21.441)" fill="#fff"/>
        <path id="Path_1839" data-name="Path 1839" d="M183.4,73.057h0v-.069C183.469,72.987,183.469,73.057,183.4,73.057Z" transform="translate(-148.474 -22.411)" fill="#fff"/>
        <path id="Path_1840" data-name="Path 1840" d="M168.9,72.539V72.4h0C168.969,72.469,168.969,72.539,168.9,72.539Z" transform="translate(-144.02 -22.24)" fill="#fff"/>
        <path id="Path_1841" data-name="Path 1841" d="M150.108,68.677H149.9A.13.13,0,0,1,150.108,68.677Z" transform="translate(-138.183 -21.08)" fill="#fff"/>
        <path id="Path_1842" data-name="Path 1842" d="M170.939,64.2h0c0,.069,0,.069-.069.069s-.069,0-.069-.069C170.939,64.269,170.939,64.269,170.939,64.2Z" transform="translate(-144.603 -19.721)" fill="#fff"/>
        <path id="Path_1843" data-name="Path 1843" d="M165.1,74.054h0c0-.139.069-.139,0,0Z" transform="translate(-142.852 -22.716)" fill="#fff"/>
        <path id="Path_1844" data-name="Path 1844" d="M170.869,64.3h0a.068.068,0,0,1-.069.069h0Z" transform="translate(-144.603 -19.751)" fill="#fff"/>
        <path id="Path_1845" data-name="Path 1845" d="M204.4,55.339V55.2h0Z" transform="translate(-154.924 -16.956)" fill="#99ae9d"/>
        <path id="Path_1846" data-name="Path 1846" d="M150.877,65.669h0c-.069-.069-.069-.069,0-.069Z" transform="translate(-138.468 -20.151)" fill="#fff"/>
        <path id="Path_1847" data-name="Path 1847" d="M149.769,68.7c0,.069,0,.069-.069.139C149.7,68.769,149.7,68.769,149.769,68.7Z" transform="translate(-138.122 -21.103)" fill="#fff"/>
        <path id="Path_1848" data-name="Path 1848" d="M163.9,66.677Z" transform="translate(-142.484 -20.466)" fill="#fff"/>
        <path id="Path_1849" data-name="Path 1849" d="M150.3,68.869V68.8C150.369,68.8,150.3,68.869,150.3,68.869Z" transform="translate(-138.306 -21.134)" fill="#fff"/>
        <path id="Path_1850" data-name="Path 1850" d="M204.3,56.369V56.3c.069,0,.069.069,0,.069Z" transform="translate(-154.893 -17.294)" fill="#96bcab"/>
        <path id="Path_1851" data-name="Path 1851" d="M156.8,68.669h0V68.6C156.869,68.669,156.8,68.669,156.8,68.669Z" transform="translate(-140.303 -21.072)" fill="#fff"/>
        <path id="Path_1852" data-name="Path 1852" d="M170.8,64.4Z" transform="translate(-144.603 -19.782)" fill="#fff"/>
        <path id="Path_1853" data-name="Path 1853" d="M156.6,65.1Z" transform="translate(-140.242 -19.997)" fill="#fff"/>
        <path id="Path_1854" data-name="Path 1854" d="M150.286,68.786Z" transform="translate(-138.293 -21.12)" fill="#fff"/>
        <path id="Path_1855" data-name="Path 1855" d="M158.5,73.4Z" transform="translate(-140.825 -22.547)" fill="#dadf21"/>
        <path id="Path_1856" data-name="Path 1856" d="M149.877,68.7Z" transform="translate(-138.16 -21.103)" fill="#fff"/>
        <path id="Path_1857" data-name="Path 1857" d="M150.2,68.7Z" transform="translate(-138.276 -21.103)" fill="#fff"/>
        <path id="Path_1858" data-name="Path 1858" d="M158.486,73.2Z" transform="translate(-140.811 -22.485)" fill="#dadf21"/>
        <path id="Path_1859" data-name="Path 1859" d="M167.226,13.41c0-1.039-.069-2.148-.069-3.187V9.391a1.117,1.117,0,0,0-.277.485c-.069.208-.069.346-.139.554,0,.069-.069.139-.069.208-.069.139-.139.139-.277.069a.381.381,0,0,1-.208-.346,1.917,1.917,0,0,1-.069-.624.417.417,0,0,0-.069-.277c-.069.139-.069.346-.139.485s-.069.277-.208.416c-.069.139-.139.139-.277,0a1.245,1.245,0,0,1-.277-.624V9.253c0-.069,0,0-.069,0-.069.069-.139.208-.208.277-.139.069-.208.069-.277-.069a.754.754,0,0,1-.069-.346V8.56l-.208.208a.525.525,0,0,1-.277.139.277.277,0,0,1-.139-.277,1.171,1.171,0,0,1,.208-.693c.069-.069.069-.139.139-.208h-.139c-.208,0-.208-.069-.208-.277a.525.525,0,0,1,.139-.277,1.838,1.838,0,0,1,.346-.416c.069-.069.069-.069.069-.208-.069-.139,0-.277.139-.416a1.737,1.737,0,0,1,.485-.277c.139-.069.277-.069.346-.139-.277-.277-.208-.277.069-.416a1.551,1.551,0,0,1,1.455-.069,2.075,2.075,0,0,1,.554.277c.139.069.208.069.277,0a2.341,2.341,0,0,1,1.386-.416,1.179,1.179,0,0,1,.485.069.46.46,0,0,1,.277.346c0,.069.069.069.139.139a1.969,1.969,0,0,1,.831.277c.277.139.346.346.069.624.346.139.416.416.485.762a.458.458,0,0,0-.416-.069.149.149,0,0,0,.139.139,2.811,2.811,0,0,1,.346.624.592.592,0,0,1,0,.485c-.277,0-.346-.277-.554-.277a.1.1,0,0,0,0,.139,1.351,1.351,0,0,1-.069.9c-.069.139-.069.139-.208,0-.069-.069-.139-.139-.139-.208-.069-.069-.069-.208-.208-.277,0,.139.069.346.069.485a1.192,1.192,0,0,1-.139.831.171.171,0,0,1-.277.069.36.36,0,0,1-.139-.277c-.069-.139-.069-.277-.139-.346,0-.069-.069-.139-.139-.208a2.806,2.806,0,0,1,0,.762.748.748,0,0,1-.208.485q-.1.208-.208,0a.371.371,0,0,1-.208-.277c-.069-.139-.139-.346-.208-.485s-.069-.277-.208-.346v1.316a8.385,8.385,0,0,0,.069,1.316,8.384,8.384,0,0,0,.069,1.316c.069.139.069.277.139.346a.149.149,0,0,0-.139.139c0,.762.069,1.593.069,2.356,0,.069,0,.139.139.139s.277,0,.346.139c.069.069.069.069.139,0,.208,0,.277,0,.346.208a.149.149,0,0,0,.139.139c.139,0,.139.139.069.277a.149.149,0,0,1-.139.139l-.069.069a1.814,1.814,0,0,1-1.178.346,9.25,9.25,0,0,0-1.386,0,.509.509,0,0,1-.416-.139c-.069-.069-.208-.139-.277-.208s-.139-.069-.139-.139c-.069-.139,0-.277.139-.277a.149.149,0,0,0,.139-.139c0-.069.069-.139.208-.139s.277,0,.346-.139a.255.255,0,0,1,.208-.069c.139,0,.139,0,.139-.139v-.831a8.384,8.384,0,0,0-.069-1.316c0-.139,0-.208-.139-.208C167.156,13.687,167.087,13.548,167.226,13.41Z" transform="translate(-142.484 -1.562)" fill="#157c6a"/>
        <path id="Path_1860" data-name="Path 1860" d="M156.608,22.587h-.139c-.069,0-.069,0-.069-.069a1.259,1.259,0,0,1,.762-.693,3.934,3.934,0,0,1,1.524-.485,7.359,7.359,0,0,1,3.464.208,8.951,8.951,0,0,1,3.326,1.94l.069.069c.069.069.069.069.139,0l.208-.208a8.716,8.716,0,0,1,3.533-1.871,6.14,6.14,0,0,1,4.018.139c.069,0,.139.069.208.069a2.128,2.128,0,0,1,1.039.693c0,.069.139.208.069.277-.139.069-.208,0-.346-.069a6.56,6.56,0,0,0-2.563-.346,8.016,8.016,0,0,0-3.048.831,10.334,10.334,0,0,0-2.078,1.247c-.208.139-.208.139-.069.346.208.277.485.554.693.831.069-.139.069-.208.139-.346a.374.374,0,0,1,.554-.139.6.6,0,0,1,.208.97c-.069.069-.139.139-.208.139a.267.267,0,0,0,0,.485c.069.069.139,0,.208,0a.608.608,0,0,1,.485-.069.754.754,0,0,1,.624.762v.346a.684.684,0,0,1-.831.624,1.581,1.581,0,0,1-.831-.416,5.585,5.585,0,0,1-.831-.97c-.069-.069-.069-.139-.139-.139-.069.069-.208.069-.208.208,0,.277-.069.485-.277.554a.562.562,0,0,1-.624-.346c-.069-.346-.069-.485.277-.693.069-.069.208-.139.277-.208.139-.139.208-.139,0-.277-.208-.208-.346-.416-.554-.624l-.069-.069c-.139-.069-.139-.069-.208.069-.069.208-.208.277-.346.416l-.208.208c-.139.139-.139.139,0,.277.139.069.277.208.416.277.069.069.069.139.139.208v.416a.617.617,0,0,1-.554.346.327.327,0,0,1-.346-.346v-.208a.184.184,0,0,0-.208-.208c-.069,0-.139.069-.208.139a3.391,3.391,0,0,1-.831.9,1.651,1.651,0,0,1-.762.416c-.485.139-.831-.208-.9-.693a1.525,1.525,0,0,1,.069-.554.749.749,0,0,1,.97-.485c.069,0,.069,0,.139.069.139.069.208,0,.277-.139s.069-.208-.069-.277c-.485-.346-.485-.831,0-1.109.277-.139.416-.069.624.139.069.069.069.208.139.346a9.314,9.314,0,0,0,.762-.97.13.13,0,0,0,0-.208c-.069-.069-.139-.069-.208-.139a9.263,9.263,0,0,0-3.741-1.732,7.1,7.1,0,0,0-3.811.139Z" transform="translate(-140.18 -6.514)" fill="#157c6a"/>
        <path id="Path_1861" data-name="Path 1861" d="M156.726,16.533c.069.139.208.139.346.139a1.032,1.032,0,0,0,.624-.277c.069-.069.069-.139.139-.208.277.485.693.277.9-.139.069,0,.069,0,.069.069a.26.26,0,0,0,.416,0c.069-.069.069-.139.139-.208a.956.956,0,0,0,.277.208c.208.069.346,0,.346-.208V15.7c-.139-.485-.208-.97-.346-1.455,0-.069-.069-.208,0-.277,0-.069.069-.069.139-.069a.068.068,0,0,1,.069.069,4.117,4.117,0,0,0,.277.554c.069.069.069.139-.069.139-.069,0-.069.069-.069.139a3.051,3.051,0,0,1,.139,1.109v.208a.421.421,0,0,1-.624.277c-.069-.069-.139,0-.208.069-.208.277-.346.277-.624.069l-.208.208a.39.39,0,0,1-.624,0l-.069-.069-.139.139a.736.736,0,0,1-.97.069c-.069,0-.069-.069-.139-.069a.13.13,0,0,0-.208,0,1.243,1.243,0,0,1-.485.346c-.069,0-.069.069-.069.139a1.64,1.64,0,0,1-.97,1.247c-.069,0-.139.069-.208.069a.468.468,0,0,1-.624-.416v-.139c-.069,0-.069.069-.139.139a1.868,1.868,0,0,1-.554.485c-.346.208-.624.069-.762-.346h.069a.642.642,0,0,0,.831-.208,8.3,8.3,0,0,1,.762-.831c.069-.069.139-.139.139-.208.069-.208,0-.277-.139-.277l-.831-.208a1.45,1.45,0,0,1-.416-.277c-.069-.069-.139-.139-.069-.277.069-.069.139-.069.277-.069s.208.069.277.208a.381.381,0,0,0,.346.208c.139,0,.277.069.416.069a.458.458,0,0,1,.416.485,1.118,1.118,0,0,1-.208.624l-.139.139a.3.3,0,0,0-.069.346.184.184,0,0,0,.208.208.806.806,0,0,0,.693-.139,1.636,1.636,0,0,0,.554-.624c-.139,0-.277.069-.416.069a.327.327,0,0,1-.346-.346.38.38,0,0,1,.277-.416.458.458,0,0,1,.416.069.879.879,0,0,0,.416.069.242.242,0,0,0,.139-.069c.069-.069.139-.139.069-.208,0-.069-.139-.069-.208-.069h-.346c-.139,0-.208-.069-.139-.208,0-.139.069-.208.208-.277a1.31,1.31,0,0,1,1.247-.208c.139,0,.277.069.277.208s-.069.208-.208.346C156.934,16.394,156.8,16.463,156.726,16.533Z" transform="translate(-138.982 -4.27)" fill="#1d1d1b"/>
        <path id="Path_1862" data-name="Path 1862" d="M182.818,17.054l.208-.208c.069-.069.069-.139-.069-.139a3.515,3.515,0,0,0-1.663.277c-.069.069-.208.069-.277.208a2.492,2.492,0,0,1,.831,1.247,1.45,1.45,0,0,0,.277.416c.069.069.139.139.208.139a.394.394,0,0,0,.485-.277,5.243,5.243,0,0,1,.069-1.039c0-.139,0-.277.208-.346v1.732c0,.277.139.416.416.346.139,0,.208-.069.277-.208a.951.951,0,0,1,.762-.554V17.4c0-.069,0-.208.069-.208a.149.149,0,0,1,.139.139,1.305,1.305,0,0,1,.139.554c-.208.069-.208.069-.208.208v.485c.069.069.139,0,.208,0a.381.381,0,0,1,.346.208.3.3,0,0,1-.139.485.374.374,0,0,1-.554-.139c-.069-.069,0-.139-.139-.208h-.277a.541.541,0,0,0-.277.277c.069.069.139,0,.208,0,.277,0,.346.139.416.416a.521.521,0,0,1-.346.485.394.394,0,0,1-.485-.277c-.069-.069-.069-.139-.208-.139h-.069c-.416,0-.554-.069-.624-.485-.069,0-.139.069-.208.069a.6.6,0,0,1-.831-.277l-.208-.416c0-.069,0-.139-.069-.139a.242.242,0,0,1-.069.139.835.835,0,0,1-.346.346.48.48,0,0,1-.693-.208c-.069-.069-.069-.208-.139-.277,0-.139-.069-.139-.208-.208-.069,0-.139.069-.208.139a.525.525,0,0,0-.139.277.541.541,0,0,1-.277.277.358.358,0,0,1-.485-.208,1.918,1.918,0,0,1-.069-.624.215.215,0,0,1,.069.139.36.36,0,0,0,.139.277c.139.208.277.208.485.069l.139-.139a1.836,1.836,0,0,1,.346-.416c.069-.069.139-.139.208-.139.139,0,.277,0,.277.139,0,.069.069.208.069.277,0,.139.139.208.277.208a.519.519,0,0,0,.346-.069c.069-.069.069-.139.139-.208a.879.879,0,0,0-.069-.416,1.243,1.243,0,0,0-.346-.485.366.366,0,0,1,.069-.554,1.514,1.514,0,0,1,.346-.208,3.8,3.8,0,0,1,1.732-.277h.069c.208,0,.208.139.139.346,0,.069-.069.069-.139.139a.254.254,0,0,1-.277.277Z" transform="translate(-147.061 -4.999)" fill="#1d1d1b"/>
        <path id="Path_1863" data-name="Path 1863" d="M173.616,16.848c-.069.139-.069.277-.139.416V17.4c0,.139.069.208.208.139a.381.381,0,0,0,.346-.208,2.673,2.673,0,0,1,1.178-.762c-.069-.139-.069-.139-.416-.139a.381.381,0,0,1,.208-.346,1.161,1.161,0,0,1,1.455.139.13.13,0,0,1,0,.208c-.069.069-.139.139-.208.139a.985.985,0,0,1-.416.139.783.783,0,0,0,.762.139.419.419,0,0,0,.208-.416c0-.277-.069-.624-.069-.9v-.416a.509.509,0,0,1,.139-.416c.139.208.208.485.346.693-.277.069-.208.277-.208.416v.762a.255.255,0,0,1-.069.208.762.762,0,0,1-.693.416.559.559,0,0,1-.624-.277c-.139-.139-.139-.139-.277-.139a3.14,3.14,0,0,0-1.316.762.787.787,0,0,1-.554.208c-.208,0-.277-.069-.277-.277a1.246,1.246,0,0,1,.416-.624C173.616,16.778,173.685,16.778,173.616,16.848Z" transform="translate(-145.341 -4.516)" fill="#1d1d1b"/>
        <path id="Path_1864" data-name="Path 1864" d="M167.31,16.727V17a.149.149,0,0,1-.139.139,1.845,1.845,0,0,1-.831-.208.692.692,0,0,1-.346-.277l-.208-.208c-.139-.139-.208-.139-.346,0a.955.955,0,0,0-.208.277c-.069.139-.069.208-.139.346-.069.277-.208.346-.485.346a.439.439,0,0,1-.416-.346v-.139c0-.139-.069-.277.069-.416.069.139.139.346.208.485.139.208.346.139.485-.069l.208-.416a1.243,1.243,0,0,1,.346-.485c.208-.208.346-.208.485.069a1.379,1.379,0,0,0,.831.554C166.894,16.727,167.1,16.727,167.31,16.727Z" transform="translate(-142.568 -4.88)" fill="#1e1e1c"/>
        <path id="Path_1865" data-name="Path 1865" d="M170.639,17.109c-.069,0-.139,0-.139-.069v-.277a7.54,7.54,0,0,0,1.663-.485c.069,0,.069-.069.139-.139,0-.069.069-.069.139-.069s.069.069.069.139a.354.354,0,0,0,.346.277.184.184,0,0,0,.208-.208v-.139a.139.139,0,1,1,.277,0v.208a.589.589,0,0,1-.485.485.358.358,0,0,1-.485-.208.068.068,0,0,0-.069-.069A5.867,5.867,0,0,1,170.639,17.109Z" transform="translate(-144.511 -4.915)" fill="#1e1e1c"/>
        <path id="Path_1866" data-name="Path 1866" d="M150,19.216a.956.956,0,0,1,.277.208.529.529,0,0,0,.346.139.184.184,0,0,0,.208-.208v-.277a1.179,1.179,0,0,1,.069-.485c.069-.208.208-.277.416-.139a.419.419,0,0,0,.554,0c.139-.069.139-.139.069-.277a.211.211,0,0,1,0-.277c.069,0,.139,0,.139.069a.707.707,0,0,1,.139.624.38.38,0,0,1-.416.277,1.027,1.027,0,0,1-.485-.069c-.139-.069-.208-.069-.277.139a.592.592,0,0,0,0,.485.585.585,0,0,1-.139.485c-.208.139-.346.069-.554-.069A.8.8,0,0,1,150,19.216Z" transform="translate(-138.214 -5.498)" fill="#1f1e1c"/>
        <path id="Path_1867" data-name="Path 1867" d="M180,15.1a.625.625,0,0,1,.069.346c.069.139.069.277.139.416s.069.208-.139.208H180v1.316a1.034,1.034,0,0,1-.208.485V15.516Q179.685,15.308,180,15.1Z" transform="translate(-147.356 -4.638)" fill="#22221f"/>
        <path id="Path_1868" data-name="Path 1868" d="M189.239,21.348V21c-.069-.762-.069-1.455-.139-2.217a.629.629,0,0,1,.208-.485c.069.277.208.485.277.762h0c-.208,0-.208,0-.139.208,0,.416.069.831.069,1.247a2.461,2.461,0,0,1-.139.693l-.139.139Z" transform="translate(-150.224 -5.621)" fill="#1e1e1c"/>
        <path id="Path_1869" data-name="Path 1869" d="M164.754,15.856c-.069-.208-.069-.416-.139-.554a7.574,7.574,0,0,0-.346-1.178,1.72,1.72,0,0,1-.069-.624,1.837,1.837,0,0,1,.346.416v.069c-.069.139,0,.208.069.346.069.277.139.485.208.762A2.6,2.6,0,0,1,164.754,15.856Z" transform="translate(-142.576 -4.147)" fill="#201f1d"/>
        <path id="Path_1870" data-name="Path 1870" d="M156.354,15.724a.428.428,0,0,1-.139-.485.139.139,0,1,1,.277,0c.069.069,0,.208.069.277a.255.255,0,0,1,.069.208h-.069c-.139-.069-.139,0-.208.069-.069.139-.208.277-.277.416a.36.36,0,0,1-.277.139A1.223,1.223,0,0,0,156.354,15.724Z" transform="translate(-139.996 -4.638)" fill="#242220"/>
        <path id="Path_1871" data-name="Path 1871" d="M171.616,18.177h0c.277-.208.277-.208.416.069l-.208.208c-.139-.069-.139-.208-.208-.208s-.139.139-.208.139l-.208-.208v-.069c.069-.069.139-.208.208-.208C171.546,18.039,171.546,18.177,171.616,18.177Z" transform="translate(-144.726 -5.498)" fill="#23211f"/>
        <path id="Path_1872" data-name="Path 1872" d="M161.031,15.2a.315.315,0,0,1,0,.346c-.069.139-.069.208-.277.208-.069,0-.069,0-.139.069s-.139.139-.277.069c-.069,0-.139-.139-.139-.277v-.069a.068.068,0,0,1,.069-.069c.069,0,0,.069,0,.069,0,.069,0,.139.069.139s.069-.069.139-.069a.255.255,0,0,0,.069-.208c.069,0,.069.069.069.139.069.069.069.069.139,0A2.71,2.71,0,0,0,161.031,15.2Z" transform="translate(-141.347 -4.669)" fill="#272523"/>
        <path id="Path_1873" data-name="Path 1873" d="M180.654,17.662c-.069,0-.069-.069-.139-.069-.069-.069-.139-.139-.069-.208s0-.139-.069-.208a.13.13,0,0,1,0-.208l.069-.069h.069c.069,0,.139.139.208.208s0,.069,0,.139c-.069.069-.069.139,0,.139a.13.13,0,0,1,0,.208A.068.068,0,0,1,180.654,17.662Z" transform="translate(-147.529 -5.191)" fill="#23211f"/>
        <path id="Path_1874" data-name="Path 1874" d="M150.2,17.923c.069-.069.069-.208.139-.277h.069c.069,0,.139.069.208.069s.069-.069.139-.139c0-.069.069-.069.139,0,.069,0,.069.069.139.069s.069.069.069.139a.242.242,0,0,1-.069.139c-.069,0-.139-.069-.277-.069-.069.069-.069.139-.139.208C150.339,18.062,150.269,17.993,150.2,17.923Z" transform="translate(-138.276 -5.383)" fill="#242422"/>
        <path id="Path_1875" data-name="Path 1875" d="M165.608,14.727c-.069-.069-.139-.139-.208-.139v-.069c.208-.208.139-.277.416,0h0c-.069.069-.139.139-.139.208a.149.149,0,0,0,.139.139v.069l-.139.139-.069.069C165.4,15,165.4,15,165.608,14.727Z" transform="translate(-142.945 -4.404)" fill="#242422"/>
        <path id="Path_1876" data-name="Path 1876" d="M174.546,14.3a.525.525,0,0,0-.139.277c0,.069.069.069.139.069.069.069.069.208,0,.208a.211.211,0,0,1-.277,0,.255.255,0,0,1-.069-.208c0-.139.139-.277.346-.346Z" transform="translate(-145.648 -4.393)" fill="#252523"/>
        <path id="Path_1877" data-name="Path 1877" d="M160.1,19.21a1.065,1.065,0,0,1,.97-.416,2.429,2.429,0,0,1-.97.416Z" transform="translate(-141.317 -5.769)" fill="#262422"/>
        <path id="Path_1878" data-name="Path 1878" d="M181.6,16.177a5.19,5.19,0,0,1,1.109-.277A1.413,1.413,0,0,1,181.6,16.177Z" transform="translate(-147.921 -4.884)" fill="#2a2624"/>
        <path id="Path_1879" data-name="Path 1879" d="M185.8,18.685c.069-.069.139-.069.208-.139,0-.069-.069,0-.069,0-.139,0-.208-.069-.069-.208a.529.529,0,0,1,.346-.139.068.068,0,0,1,.069.069.417.417,0,0,1-.069.277.743.743,0,0,1-.416.139Z" transform="translate(-149.208 -5.591)" fill="#242422"/>
        <path id="Path_1880" data-name="Path 1880" d="M176.178,14.677a2.429,2.429,0,0,1-.97.416c-.069,0-.139.069-.208,0,0-.069.069-.069.139-.139a3.328,3.328,0,0,1,1.039-.277Z" transform="translate(-145.893 -4.492)" fill="#2a2726"/>
        <path id="Path_1881" data-name="Path 1881" d="M177.009,15.469a5.224,5.224,0,0,1-.9.416h-.069c-.069,0-.139,0-.139-.069a.068.068,0,0,1,.069-.069,5.432,5.432,0,0,1,.97-.346A.068.068,0,0,1,177.009,15.469Z" transform="translate(-146.17 -4.731)" fill="#282623"/>
        <path id="Path_1882" data-name="Path 1882" d="M174.177,17.7l.208.208-.277.277a.957.957,0,0,1-.208-.277A.956.956,0,0,1,174.177,17.7Z" transform="translate(-145.556 -5.437)" fill="#252220"/>
        <path id="Path_1883" data-name="Path 1883" d="M152.185,16.9v.277c0,.069-.069.139-.139.069-.069,0-.069,0-.139.069s-.069.069-.139.069-.069-.069-.069-.139v-.139c.139.139.139.139.208-.069.069,0,.069.139.139.069S152.116,16.9,152.185,16.9Z" transform="translate(-138.736 -5.191)" fill="#373635"/>
        <path id="Path_1884" data-name="Path 1884" d="M151.514,21.239a.068.068,0,0,0-.069.069c0,.069-.069.139-.069.208-.346-.069-.346-.139-.139-.416.069,0,.139.139.277.069Z" transform="translate(-138.551 -6.481)" fill="#272725"/>
        <path id="Path_1885" data-name="Path 1885" d="M188.077,21.1c0,.069-.069.139-.069.208s-.069.139.069.208c.069,0,.069.069,0,.139,0,.069-.069.069-.139.069s-.139,0-.139-.069v-.208a.692.692,0,0,1,.277-.346Z" transform="translate(-149.825 -6.481)" fill="#2b2926"/>
        <path id="Path_1886" data-name="Path 1886" d="M151.669,21.177a.068.068,0,0,0-.069-.069c0-.069.069-.139.139-.208a.525.525,0,0,1,.277.139v.069C151.877,21.316,151.877,21.316,151.669,21.177Z" transform="translate(-138.706 -6.42)" fill="#262522"/>
        <path id="Path_1887" data-name="Path 1887" d="M176.439,18.377h0c0,.346,0,.346.208.277v.069c-.069.139-.139.139-.208.139s-.139-.139-.139-.277a.255.255,0,0,1,.069-.208c0,.069,0,0,.069,0Z" transform="translate(-146.293 -5.629)" fill="#353432"/>
        <path id="Path_1888" data-name="Path 1888" d="M158.039,19.308c.069.069.069.069.208.069v.069c-.069.139-.139.208-.208.139-.069,0-.139-.139-.139-.277a.255.255,0,0,1,.069-.208C158.108,19.169,158.039,19.239,158.039,19.308Z" transform="translate(-140.641 -5.867)" fill="#32302e"/>
        <path id="Path_1889" data-name="Path 1889" d="M158.739,15.33a.242.242,0,0,0,.139.069c.069,0,.069,0,.069.069-.069.069-.139.139-.208.139-.069-.069-.139-.139-.139-.208a.255.255,0,0,1,.069-.208C158.808,15.122,158.669,15.261,158.739,15.33Z" transform="translate(-140.856 -4.661)" fill="#292927"/>
        <path id="Path_1890" data-name="Path 1890" d="M154.569,16.4a.068.068,0,0,0,.069.069c.069-.069.069,0,.069.069a.13.13,0,0,1-.208,0C154.569,16.469,154.5,16.469,154.569,16.4Z" transform="translate(-139.596 -5.038)" fill="#443c3a"/>
        <path id="Path_1891" data-name="Path 1891" d="M164.139,16.869a.254.254,0,0,0-.069.208v.208c-.069-.139,0-.346-.069-.485C164.139,16.8,164.139,16.8,164.139,16.869Z" transform="translate(-142.515 -5.161)" fill="#afa4a4"/>
        <path id="Path_1892" data-name="Path 1892" d="M158.069,19.246c-.069-.069,0-.139-.069-.208,0-.069.069-.069.069-.139a.068.068,0,0,1,.069.069C158.139,19.039,158.069,19.177,158.069,19.246Z" transform="translate(-140.671 -5.806)" fill="#534d4c"/>
        <path id="Path_1893" data-name="Path 1893" d="M158.769,15.216c-.069,0-.069-.069-.069-.139v-.139c0-.069,0-.069.069-.139Z" transform="translate(-140.887 -4.546)" fill="#524d4b"/>
        <path id="Path_1894" data-name="Path 1894" d="M154.546,16.308a.068.068,0,0,1-.069.069c-.069-.069-.069-.139,0-.277A.536.536,0,0,1,154.546,16.308Z" transform="translate(-139.573 -4.946)" fill="#635f5d"/>
        <path id="Path_1895" data-name="Path 1895" d="M165.6,10.869c0-.069,0-.069.069-.069v.277C165.6,11.008,165.669,10.939,165.6,10.869Z" transform="translate(-143.006 -3.318)" fill="#a7d9c1"/>
        <path id="Path_1896" data-name="Path 1896" d="M177.469,15.439c0-.069-.069,0-.069-.069a.068.068,0,0,0,.069-.069h.069A.242.242,0,0,1,177.469,15.439Z" transform="translate(-146.631 -4.7)" fill="#94807f"/>
        <path id="Path_1897" data-name="Path 1897" d="M185.739,18.9h0c0,.069-.069.069-.139.069A.215.215,0,0,1,185.739,18.9Z" transform="translate(-149.149 -5.806)" fill="#6a6362"/>
        <path id="Path_1898" data-name="Path 1898" d="M158.169,18.939a.068.068,0,0,0-.069-.069c0-.069,0-.069.069-.069v.139Z" transform="translate(-140.702 -5.775)" fill="#bbb0ae"/>
        <path id="Path_1899" data-name="Path 1899" d="M176.469,18.339h0c0-.069,0-.069-.069-.069,0-.069,0-.069.069-.069v.139Z" transform="translate(-146.323 -5.591)" fill="#a6a09f"/>
        <path id="Path_1900" data-name="Path 1900" d="M173.8,17.757h0v-.069C173.869,17.687,173.869,17.687,173.8,17.757Z" transform="translate(-145.525 -5.424)" fill="#867c7b"/>
        <path id="Path_1901" data-name="Path 1901" d="M159.069,15.456a.068.068,0,0,0-.069-.069.1.1,0,0,1,.139,0Z" transform="translate(-140.979 -4.717)" fill="#746362"/>
        <path id="Path_1902" data-name="Path 1902" d="M184.569,17.4h0v.069H184.5A.068.068,0,0,1,184.569,17.4Z" transform="translate(-148.811 -5.345)" fill="#4d4745"/>
        <path id="Path_1903" data-name="Path 1903" d="M174.7,14.177c0-.069.069-.069,0,0Z" transform="translate(-145.801 -4.339)" fill="#958f8e"/>
        <path id="Path_1904" data-name="Path 1904" d="M176.7,14.665h0c0-.069.069-.139,0,0C176.769,14.6,176.769,14.665,176.7,14.665Z" transform="translate(-146.416 -4.48)" fill="#bbb0af"/>
        <path id="Path_1905" data-name="Path 1905" d="M188.2,21.086h0C188.269,21.017,188.269,21.086,188.2,21.086Z" transform="translate(-149.948 -6.468)" fill="#85706f"/>
        <path id="Path_1906" data-name="Path 1906" d="M174.7,14.2h0v0Z" transform="translate(-145.801 -4.362)" fill="#4f4441"/>
        <path id="Path_1907" data-name="Path 1907" d="M176.4,18.4v0Z" transform="translate(-146.323 -5.652)" fill="#403836"/>
        <path id="Path_1908" data-name="Path 1908" d="M160.086,19.4Z" transform="translate(-141.303 -5.959)" fill="#5a6b6b"/>
        <path id="Path_1909" data-name="Path 1909" d="M184.477,17.5Z" transform="translate(-148.788 -5.376)" fill="#687474"/>
        <path id="Path_1910" data-name="Path 1910" d="M176.4,18.3Z" transform="translate(-146.323 -5.621)" fill="#403836"/>
        <path id="Path_1911" data-name="Path 1911" d="M169.839,27.55a.468.468,0,0,0,.416.277c.277.069.485-.069.485-.416v-.139c0-.069,0-.139.069-.139.277-.208.277-.208.416.069a3.646,3.646,0,0,0,.831.97,1.651,1.651,0,0,0,.762.416.608.608,0,0,0,.762-.554v-.416a.735.735,0,0,0-.9-.624c-.069,0-.139.069-.208.069-.139.069-.139.069-.277-.069a.242.242,0,0,1-.069-.139c-.139-.208-.139-.208.069-.346.069-.069.139-.069.208-.139a.539.539,0,0,0,.139-.554.608.608,0,0,0-.485-.416.381.381,0,0,0-.346.208l-.208.416c-.346-.416-.624-.762-.97-1.109a.068.068,0,0,1,.069-.069,10.561,10.561,0,0,1,3.741-1.871,9.3,9.3,0,0,1,2.425-.277,11.046,11.046,0,0,1,2.079.416,18.829,18.829,0,0,0-.762,1.732c-2.009,4.365-4.018,8.8-6.028,13.164,0,.069,0,.069-.069.139s-.069.139,0,.277a3.722,3.722,0,0,0,.693,1.109,7.968,7.968,0,0,0,3.118,2.078,8.506,8.506,0,0,0,2.633.554,6.808,6.808,0,0,0,3.533-.554,9.8,9.8,0,0,0,2.494-1.663,5.779,5.779,0,0,0,1.109-1.455c.069-.139.069-.208,0-.277l-.416-1.039-5.82-13.51c-.069-.069-.069-.139-.069-.277,0-.069,0-.069.069-.069a5.78,5.78,0,0,0,.831.554,12.266,12.266,0,0,0,4.088,1.593c.485.069.9.208,1.386.277a.184.184,0,0,1,.208.208c.346,1.455.762,2.841,1.109,4.3,1.316,4.919,2.633,9.838,3.949,14.826v.069c.069.069,0,.139-.069.139-.346.069-.693.208-1.039.277a15.148,15.148,0,0,1-2.494.208,14.794,14.794,0,0,1-3.048-.554c-.9-.277-1.8-.624-2.771-.97a17.155,17.155,0,0,0-2.7-.693,12.816,12.816,0,0,0-2.841-.139,12.96,12.96,0,0,0-6.1,1.8.068.068,0,0,0-.069.069c-.069,0-.069,0-.069-.069V27.758C169.769,27.688,169.7,27.55,169.839,27.55Z" transform="translate(-144.265 -6.973)" fill="#f1c250"/>
        <path id="Path_1912" data-name="Path 1912" d="M151.337,23a8.376,8.376,0,0,1,1.247-.346,7.4,7.4,0,0,1,4.711.831,12.111,12.111,0,0,1,2.009,1.247c.069,0,.069.069.139.139-.346.346-.624.762-.97,1.178-.069-.139-.069-.277-.139-.346a.364.364,0,0,0-.624-.139.551.551,0,0,0-.069.9.956.956,0,0,0,.277.208c.069,0,.069.069.069.139a.923.923,0,0,1-.208.346c-.069.069-.069.069-.139,0s-.208-.069-.277-.139a.712.712,0,0,0-.831.485.759.759,0,0,0,0,.554.7.7,0,0,0,.762.554,1.888,1.888,0,0,0,.831-.416,3.646,3.646,0,0,0,.831-.97c0-.069.069-.069.069-.139l.069-.069c.069.069.139.069.208.139a.255.255,0,0,1,.069.208c0,.139,0,.346.139.416a.592.592,0,0,0,.485,0,.957.957,0,0,0,.277-.208V45.244c-.139,0-.139-.069-.277-.139a14.391,14.391,0,0,0-3.672-1.593,12.189,12.189,0,0,0-3.533-.277,20.449,20.449,0,0,0-5.4,1.247,4.772,4.772,0,0,0-.554.208,5.752,5.752,0,0,1-1.455.416,13.992,13.992,0,0,1-3.395.208,16.112,16.112,0,0,1-2.563-.277c-.208-.069-.208,0-.139-.277.9-3.187,1.732-6.3,2.633-9.492.831-2.91,1.593-5.889,2.425-8.8.069-.277.069-.554.139-.762,0-.208.069-.208.208-.208a16.6,16.6,0,0,0,4.5-1.178,13.614,13.614,0,0,0,1.732-.9c.069-.069.139-.069.208-.139a.255.255,0,0,1-.069.208c-.762,1.593-1.455,3.187-2.217,4.85-1.455,3.256-2.979,6.443-4.434,9.7,0,.069,0,.069-.069.139s0,.208,0,.277a3.932,3.932,0,0,0,.831,1.247,7.127,7.127,0,0,0,2.841,1.8,9.926,9.926,0,0,0,2.841.624,6.715,6.715,0,0,0,4.018-.831,7.791,7.791,0,0,0,2.494-2.009,3.928,3.928,0,0,0,.554-.9c.069-.069.069-.139.139-.208-.069,0-.139,0-.139-.069-.208-.554-.416-1.039-.624-1.593-1.871-4.434-3.741-8.8-5.681-13.233A.541.541,0,0,1,151.337,23Z" transform="translate(-134.909 -6.931)" fill="#f1c250"/>
        <path id="Path_1913" data-name="Path 1913" d="M146.7,38.365c.139-.416.416-.831.554-1.316,2.078-4.5,4.088-8.937,6.166-13.441,0-.069.069-.139.069-.208a.254.254,0,0,1,.069.208c2.078,4.919,4.157,9.769,6.235,14.688a.068.068,0,0,0,.069.069c-.069.139-.139.139-.277.069-3.048-.069-6.1,0-9.145-.069h-3.533C146.908,38.434,146.769,38.434,146.7,38.365Z" transform="translate(-137.201 -7.188)" fill="#f1c250"/>
        <path id="Path_1914" data-name="Path 1914" d="M173.3,38.457c.416-.97.9-1.871,1.316-2.841,1.455-3.187,2.979-6.443,4.434-9.63.346-.693.624-1.386.97-2.148,0-.069,0-.139.139-.139.069.139.069.208.139.346,2.078,4.85,4.157,9.63,6.235,14.48V38.6c-.069.139-.139.069-.208.069-3.118-.069-6.166,0-9.284-.069h-3.395C173.508,38.526,173.369,38.6,173.3,38.457Z" transform="translate(-145.371 -7.28)" fill="#f1c250"/>
        <path id="Path_1915" data-name="Path 1915" d="M140.5,30.5c-.139.485-.277.97-.416,1.386l-4.365,15.8v.069c0,.139,0,.208.139.277a2.462,2.462,0,0,0,.693.139,8.385,8.385,0,0,0,1.316-.069c.069,0,.139,0,.139-.069,0-.139.069-.069.139-.069a5.96,5.96,0,0,0,1.109-.069c.069,0,.139,0,.139-.069s.069,0,.139,0a19.47,19.47,0,0,0,2.009.069,16.037,16.037,0,0,0,3.187-.346c.139,0,.208-.069.277-.069a33.836,33.836,0,0,1,3.741-1.247,13.487,13.487,0,0,1,3.741-.416,11.53,11.53,0,0,1,5.958,1.8,1.449,1.449,0,0,1,.416.277c.139.069.208.069.277,0a22.05,22.05,0,0,1,2.217-1.109,11.492,11.492,0,0,1,3.395-.762,14.285,14.285,0,0,1,2.979.069,15,15,0,0,1,3.464.9c.9.346,1.8.624,2.7.9a11.509,11.509,0,0,0,3.741.416,4.679,4.679,0,0,0,.97-.139c.069,0,.139-.069.139.069,0,.069.069.069.139.069a4.539,4.539,0,0,0,.97,0c.069,0,.139-.069.139.139a.068.068,0,0,0,.069.069,9.754,9.754,0,0,0,2.009-.069h.069c.208-.069.208-.139.208-.346-.277-.97-.485-1.94-.762-2.841l-2.91-11.016c-.277-1.178-.624-2.286-.9-3.464,0-.069-.069-.139,0-.208h.554c.069,0,.069.069.069.139.069.346.208.693.277,1.039.97,3.672,1.871,7.344,2.841,11.016.346,1.455.762,2.91,1.109,4.365a3.654,3.654,0,0,1,.208.831v.554a.8.8,0,0,1-.346.485c-.139.069-.208.139-.346.069C181.1,49.068,180,49,178.956,49c-1.386,0-2.7-.069-4.088-.069-1.594,0-3.256-.069-4.85-.069-.762,0-1.593,0-2.356-.069-1.594,0-3.256-.069-4.85-.069-.762,0-1.524,0-2.286-.069-.139,0-.208,0-.277.139a1.571,1.571,0,0,1-1.109.762,1.638,1.638,0,0,1-1.386-.346c-.139-.139-.346-.277-.416-.485-.069-.139-.208-.139-.346-.139H148.4c-2.078,0-4.088,0-6.166.069-2.217,0-4.365,0-6.582.069a.735.735,0,0,1-.762-.831,8.372,8.372,0,0,1,.346-1.247c1.455-5.265,2.91-10.531,4.365-15.866v-.139a.149.149,0,0,1,.139-.139Z" transform="translate(-133.568 -9.369)" fill="#f1c250"/>
        <path id="Path_1916" data-name="Path 1916" d="M173.159,45c.069.069.139,0,.208,0h2.771c2.841,0,5.681,0,8.522.069h1.94a.255.255,0,0,1,.208.069c0,.069-.069.139-.069.208a4.3,4.3,0,0,1-1.178,1.524,8.258,8.258,0,0,1-3.811,2.078,7.159,7.159,0,0,1-2.425.139,9.655,9.655,0,0,1-5.2-2.148,5.291,5.291,0,0,1-1.178-1.593c0-.069,0-.069-.069-.139-.069-.139-.069-.139.139-.139C173.02,45,173.089,45,173.159,45Z" transform="translate(-145.23 -13.823)" fill="#157c6a"/>
        <path id="Path_1917" data-name="Path 1917" d="M146.6,45h2.91c2.91,0,5.751,0,8.66.069h1.94c.069.069.139,0,.208.069,0,.069-.069.139-.069.208a5.959,5.959,0,0,1-1.455,1.8,7.722,7.722,0,0,1-3.6,1.8,7.058,7.058,0,0,1-2.425.139,8.6,8.6,0,0,1-2.633-.624,8.161,8.161,0,0,1-2.771-1.732,3.692,3.692,0,0,1-.9-1.386c0-.069-.069-.069-.069-.139-.069-.139,0-.139.139-.139C146.457,45,146.527,45,146.6,45Z" transform="translate(-137.096 -13.823)" fill="#157c6a"/>
        <path id="Path_1918" data-name="Path 1918" d="M198.849,47.937c.277-.069.485-.139.762-.208.208-.069.208-.139.139-.346-.97-3.6-1.94-7.275-2.91-10.877-.624-2.356-1.247-4.711-1.871-7a.254.254,0,0,0-.069-.208,2.357,2.357,0,0,1,.693.069c.069,0,.069,0,.069.069h0a3.971,3.971,0,0,0,.277.97c1.039,4.018,2.148,8.106,3.187,12.124.416,1.732.9,3.395,1.316,5.127v.069c0,.139,0,.139-.139.139a2.357,2.357,0,0,1-.693.069,1.4,1.4,0,0,1-.762,0Z" transform="translate(-152.006 -9)" fill="#f1c250"/>
        <path id="Path_1919" data-name="Path 1919" d="M137.875,47.629a3.445,3.445,0,0,1-1.455-.069c-.208-.069-.208-.069-.139-.208.624-2.356,1.316-4.711,1.94-7.067.97-3.395,1.871-6.79,2.841-10.115.069-.277.139-.554.208-.762a.149.149,0,0,1,.139-.139,1.918,1.918,0,0,0,.624-.069c0,.069-.069.139-.069.208-1.524,5.4-2.979,10.808-4.5,16.281l-.416,1.455c-.069.208,0,.277.208.346a1.384,1.384,0,0,1,.624.139c0-.069.069-.069,0,0Z" transform="translate(-133.988 -8.97)" fill="#f1c250"/>
        <path id="Path_1920" data-name="Path 1920" d="M139.45,47.008A5.188,5.188,0,0,1,138,46.87c-.069,0-.139,0-.139-.069-.069,0-.139-.069-.069-.208.139-.346.208-.762.346-1.178,1.455-5.2,2.841-10.392,4.3-15.589.139-.554.277-1.178.416-1.732.069-.208.069-.208.277-.208a1.478,1.478,0,0,1,.554,0l-.208.624c-1.663,5.958-3.256,11.847-4.919,17.806v.069c-.069.139,0,.208.139.277.346.069.624.139.97.208C139.589,47.078,139.519,47.008,139.45,47.008Z" transform="translate(-134.454 -8.557)" fill="#f1c250"/>
        <path id="Path_1921" data-name="Path 1921" d="M196.995,47.491c.416-.139.831-.208,1.316-.346.069,0,.139-.069.208-.139v-.139c-.208-.831-.416-1.593-.624-2.425-1.039-3.88-2.078-7.69-3.118-11.57-.416-1.455-.831-2.979-1.178-4.434V28.3a1.918,1.918,0,0,1,.624.069c.069,0,.069.069.069.139a.417.417,0,0,0,.069.277.381.381,0,0,0,.139.346c.069,0,.069.069.069.139.762,2.841,1.524,5.681,2.217,8.522.831,3.118,1.663,6.166,2.425,9.284.069.277.069.277-.208.346a4.215,4.215,0,0,1-1.594.208.586.586,0,0,0-.416-.139Z" transform="translate(-151.607 -8.693)" fill="#f1c250"/>
        <path id="Path_1922" data-name="Path 1922" d="M169.869,28.809l-.069.069V46.338c0,.069,0,.069.069.069,0,0-.069.069-.069,0V26.8a5.134,5.134,0,0,1,.831.9,3.806,3.806,0,0,0-.624.485c-.139.069-.139.139-.208.277A3,3,0,0,0,169.869,28.809Z" transform="translate(-144.296 -8.232)" fill="#f1c250"/>
        <path id="Path_1923" data-name="Path 1923" d="M169.162,28.455a7.362,7.362,0,0,0-.762-.624c.277-.277.485-.554.762-.831Z" transform="translate(-143.866 -8.294)" fill="#f1c250"/>
        <path id="Path_1924" data-name="Path 1924" d="M140.2,55.469c.069-.069.139,0,.139-.069a.254.254,0,0,1,.208.069C140.477,55.469,140.339,55.539,140.2,55.469Z" transform="translate(-135.204 -17.018)" fill="#b6832c"/>
        <path id="Path_1925" data-name="Path 1925" d="M138.6,55.777h0c.069-.069.069-.069.139,0Z" transform="translate(-134.712 -17.117)" fill="#c9b22d"/>
        <path id="Path_1926" data-name="Path 1926" d="M200.539,56.2h0c-.069.069-.069.069-.139,0Z" transform="translate(-153.695 -17.263)" fill="#bd9f2f"/>
        <path id="Path_1927" data-name="Path 1927" d="M198.469,55.977h0c0,.069-.069.069-.069,0S198.469,55.908,198.469,55.977Z" transform="translate(-153.081 -17.179)" fill="#a8842e"/>
        <path id="Path_1928" data-name="Path 1928" d="M183.3,23.486h0c.069-.069.069,0,0,0Z" transform="translate(-148.443 -7.205)" fill="#877b30"/>
        <path id="Path_1929" data-name="Path 1929" d="M183.3,23.5h.139l-.069.069C183.3,23.569,183.3,23.569,183.3,23.5Z" transform="translate(-148.443 -7.219)" fill="#d0a22b"/>
        <path id="Path_1930" data-name="Path 1930" d="M165.111,70.557a.439.439,0,0,1-.416.346.38.38,0,0,1-.416-.277c-.069-.069-.069-.139.069-.139A1.376,1.376,0,0,1,165.111,70.557Z" transform="translate(-142.587 -21.643)" fill="#157c6a"/>
        <path id="Path_1931" data-name="Path 1931" d="M190.162,68.685a.978.978,0,0,1-.624.069c-.069,0-.139,0-.139-.069a.149.149,0,0,1,.139-.139C189.677,68.339,190.024,68.408,190.162,68.685Z" transform="translate(-150.317 -21.019)" fill="#157c6a"/>
        <path id="Path_1932" data-name="Path 1932" d="M174.077,69.593c-.277,0-.277-.069-.277-.277a.957.957,0,0,1,.416-.762c.139-.139.208-.139.346,0a1.243,1.243,0,0,1,.346.485v.208c-.069.139-.139.208-.277.208A2.141,2.141,0,0,1,174.077,69.593Z" transform="translate(-145.525 -21.026)" fill="#157c6a"/>
        <path id="Path_1933" data-name="Path 1933" d="M174.039,61.446a.149.149,0,0,1-.139-.139c0-.139.069-.208.139-.208s.139.069.139.208C174.246,61.377,174.108,61.446,174.039,61.446Z" transform="translate(-145.556 -18.769)" fill="#157c6a"/>
        <path id="Path_1934" data-name="Path 1934" d="M174.539,61.487c.069,0,.139.069.069.069,0,.069-.069.069-.139.069s-.069,0-.069-.069C174.469,61.487,174.469,61.418,174.539,61.487Z" transform="translate(-145.709 -18.879)" fill="#157c6a"/>
        <path id="Path_1935" data-name="Path 1935" d="M158.157,17.239c-.069,0-.139,0-.069-.069,0-.069.069-.069.139-.069s.139,0,.069.069C158.3,17.239,158.226,17.239,158.157,17.239Z" transform="translate(-140.69 -5.253)" fill="#e8f1f1"/>
        <path id="Path_1936" data-name="Path 1936" d="M156.339,18.569a.068.068,0,0,1-.069.069c-.069,0-.069,0-.069-.069s.069-.069.139-.069Z" transform="translate(-140.119 -5.683)" fill="#ddeae9"/>
        <path id="Path_1937" data-name="Path 1937" d="M187.808,19.969a.068.068,0,0,1-.069.069c-.069,0-.139,0-.139-.069s0-.069.069-.069C187.808,19.9,187.808,19.9,187.808,19.969Z" transform="translate(-149.764 -6.113)" fill="#e0e8e8"/>
        <path id="Path_1938" data-name="Path 1938" d="M186.708,21.069a.068.068,0,0,1-.069.069c-.069,0-.139,0-.139-.069a.068.068,0,0,1,.069-.069C186.639,21,186.708,21,186.708,21.069Z" transform="translate(-149.426 -6.451)" fill="#d4dfdf"/>
        <path id="Path_1939" data-name="Path 1939" d="M156.6,15.5a.149.149,0,0,1,.139.139s0,.069-.069,0c-.069,0-.069-.069-.069-.139Z" transform="translate(-140.242 -4.761)" fill="#ced4d4"/>
      </g>
    </g>
    <g id="Group_3281" data-name="Group 3281" transform="translate(-0.001 15.311)">
      <path id="Path_1940" data-name="Path 1940" d="M22.428,31.9a1.594,1.594,0,0,1,.485.554,14.01,14.01,0,0,1,2.633,7.136c.069,1.109.208,2.217.277,3.256a2.058,2.058,0,0,0,2.148,2.078,5.244,5.244,0,0,0,1.039-.069,13.023,13.023,0,0,0,4.3-1.732c-.624-1.039-1.594-1.316-3.048-.831a2.009,2.009,0,0,1,.97-1.8,4.6,4.6,0,0,1,1.871-.624,11.928,11.928,0,0,1,5.2.554c.762.277.762.624.485,1.178a1.625,1.625,0,0,1-.762.762c-.624.277-1.178.554-1.732.831-.346.139-.346.208-.069.485a1.891,1.891,0,0,0,.831.624,3.887,3.887,0,0,0,3.048-.208,1.462,1.462,0,0,0,.831-1.732c-.485-3.741-.97-7.413-1.386-11.154-.208-1.732-.416-3.395-.624-5.127a2.286,2.286,0,0,1,.554-1.871c.624,1.247,1.178,2.425,1.732,3.6a2.31,2.31,0,0,1-.693,0c-.277,0-.346.069-.277.277.069.762.208,1.593.277,2.356.208,1.663.416,3.256.624,4.919.139,1.386.346,2.771.485,4.157a10.411,10.411,0,0,1-.277,3.88,3.433,3.433,0,0,1-2.563,2.633,3.362,3.362,0,0,1-2.7-.416,4,4,0,0,1-1.386-1.247c-.139-.208-.277-.208-.554-.139A20.62,20.62,0,0,1,30.6,45.894a7.534,7.534,0,0,1-2.7.554,3.723,3.723,0,0,1-1.455-.346,1.793,1.793,0,0,1-.97-1.039,4.886,4.886,0,0,1-.416-1.732c-.069-.416-.069-.762-.139-1.178-.069,0-.069,0-.139.069a13.181,13.181,0,0,1-5.543,5.127l-.831.416a3.266,3.266,0,0,1-2.425.208,1.922,1.922,0,0,1-1.524-1.524,4.862,4.862,0,0,1-.069-1.732c0-.208.069-.346.069-.624a5.993,5.993,0,0,0-.693.485A22.4,22.4,0,0,1,9.75,46.725a10.165,10.165,0,0,1-4.088.693,4.349,4.349,0,0,1-4.365-4.5A6.8,6.8,0,0,1,2.406,39.1a1.351,1.351,0,0,1,.624-.624,3.124,3.124,0,0,1-.208.762,9.29,9.29,0,0,0-.693,3.048,3.046,3.046,0,0,0,2.286,3.326,7.309,7.309,0,0,0,4.711-.069,13.97,13.97,0,0,0,3.256-1.524,26.356,26.356,0,0,0,3.811-2.91.752.752,0,0,0,.277-.624c-.069-1.524-.139-3.048-.277-4.5-.139-1.386-.208-2.771-.346-4.157-.139-1.593-.346-3.256-.485-4.85-.069-.97-.208-1.94-.277-2.91a1.918,1.918,0,0,1,.069-.624.617.617,0,0,1,.554-.346c.208,0,.208.208.277.346.346,1.039.762,2.009,1.109,3.048,0,.069.069.139,0,.277-.277,0-.416-.277-.693-.346-.069.139,0,.277,0,.416.208,2.91.485,5.75.693,8.66a26.7,26.7,0,0,1,.139,3.326,8.84,8.84,0,0,1-.416,2.356,5.107,5.107,0,0,1-1.594,2.356.562.562,0,0,0-.277.554,3.836,3.836,0,0,0,.139,1.247,1.423,1.423,0,0,0,1.247.97,4.412,4.412,0,0,0,2.286-.346,18.409,18.409,0,0,0,4.5-3.048,9.46,9.46,0,0,0,1.316-1.593,1.015,1.015,0,0,0,.139-.762A27.5,27.5,0,0,0,22.5,33.908a2.05,2.05,0,0,1-.139-.693A6.033,6.033,0,0,0,22.428,31.9Z" transform="translate(-1.291 -22.407)" fill="#157c6a"/>
      <path id="Path_1941" data-name="Path 1941" d="M83.9,51.5c2.009-.9,4.088-1.732,6.028-2.7a74.338,74.338,0,0,0,7.621-4.3l1.663-1.039a2.182,2.182,0,0,0,.97-1.593,1.051,1.051,0,0,0-.208-.9,32.975,32.975,0,0,1-1.94-3.395,1.973,1.973,0,0,1-.208-1.386,4.416,4.416,0,0,0,.139-.485c.485.416.97.831,1.386,1.247.208.208.069.416-.069.554-.208.139-.139.277,0,.485.346.485.624,1.039,1.039,1.524a3.181,3.181,0,0,1,.554,1.94,6.412,6.412,0,0,1-.277,1.593,2.8,2.8,0,0,1-1.247,1.8,12.245,12.245,0,0,0-1.178.831c-.139.139-.277.277-.277.416a4.792,4.792,0,0,0,0,2.217,2.279,2.279,0,0,0,2.009,1.8A5.272,5.272,0,0,0,102.4,49.7a16.524,16.524,0,0,0,5.82-4.365,1.243,1.243,0,0,0,.346-.485.629.629,0,0,0,0-.693c-.139-.277-.416-.208-.624-.139a5.609,5.609,0,0,1-2.148.069c-1.178-.139-1.732-.9-1.386-2.217.069-.208.139-.346.208-.554a1.967,1.967,0,0,1,3.326-.485,5.065,5.065,0,0,1,1.316,2.563,1.526,1.526,0,0,1,.069.554,2.4,2.4,0,0,1-.554,2.148,16.141,16.141,0,0,1-5.266,4.642,6.849,6.849,0,0,1-3.256.97A2.662,2.662,0,0,1,97.272,49a9.079,9.079,0,0,1,0-1.94,1.491,1.491,0,0,0,0-.554.7.7,0,0,0-.485.277,60.2,60.2,0,0,1-5.335,3.187,8.973,8.973,0,0,1-2.979,1.039c-1.524.208-2.979.554-4.434.831C83.9,51.635,83.9,51.566,83.9,51.5Z" transform="translate(-26.666 -26.278)" fill="#157c6a"/>
      <path id="Path_1942" data-name="Path 1942" d="M71.493,45.65c-.069.554-.139,1.178-.208,1.732a5.678,5.678,0,0,0,.208,2.148,2.173,2.173,0,0,0,2.286,1.732,5.749,5.749,0,0,0,2.841-.693A22.474,22.474,0,0,0,80.569,47.8c.346-.277.693-.624,1.039-.9a1.868,1.868,0,0,0,.485-.554,1.565,1.565,0,0,0,.139-1.8c-.416-.762-.762-1.593-1.178-2.356a1.978,1.978,0,0,1-.277-1.524,2.6,2.6,0,0,0,.069-.762,3.28,3.28,0,0,1,.9.762c.277.277.554.485.831.762a.242.242,0,0,1-.069.139c-.139.139-.416.208-.416.416s.208.346.277.554a5.334,5.334,0,0,1,0,5.2c-.069.069-.139.208-.208.277a21.984,21.984,0,0,1-4.365,3.6,8.77,8.77,0,0,1-2.979,1.247,3.661,3.661,0,0,1-1.732,0,2.63,2.63,0,0,1-1.94-1.455,4.658,4.658,0,0,1-.554-2.7,9.3,9.3,0,0,1,.693-3.118C71.493,45.512,71.563,45.512,71.493,45.65Z" transform="translate(-22.573 -27.568)" fill="#157c6a"/>
      <path id="Path_1943" data-name="Path 1943" d="M64.02,44.738c-.069-1.455-.139-2.841-.277-4.226-.139-2.078-.346-4.157-.485-6.235-.208-2.148-.416-4.226-.693-6.3-.069-.693-.139-1.386-.277-2.078a2.579,2.579,0,0,1,.139-1.247.439.439,0,0,1,.416-.346c.208,0,.277.139.346.277a11.287,11.287,0,0,1,1.247,3.187.753.753,0,0,0,.069.346c-.346-.139-.554-.416-.97-.416a7.531,7.531,0,0,0,.069,1.247c.208,2.286.485,4.573.693,6.79.139,1.455.346,2.91.416,4.434a9.12,9.12,0,0,1-.485,4.088A.516.516,0,0,1,64.02,44.738Z" transform="translate(-20.019 -22.776)" fill="#157c6a"/>
      <path id="Path_1944" data-name="Path 1944" d="M95.546,26.564c-.346-.208-.554-.485-.9-.485a.417.417,0,0,0-.069.277c.208,2.148.485,4.3.693,6.513.208,1.8.416,3.533.554,5.335a8.641,8.641,0,0,1-.485,3.949l-.208.416a.215.215,0,0,0-.139.069c-.069-.693-.069-1.316-.139-2.009-.069-2.148-.277-4.3-.485-6.443-.277-2.979-.624-6.028-1.039-9.007a3.631,3.631,0,0,1-.069-1.732c.069-.139.069-.277.208-.416a.388.388,0,0,1,.624,0A12.259,12.259,0,0,1,95.546,26.564Z" transform="translate(-29.513 -22.338)" fill="#157c6a"/>
      <path id="Path_1945" data-name="Path 1945" d="M77.058,36.543l-.208.831a4.566,4.566,0,0,1-.762,1.663c-.346.416-.624.831-.97,1.316.069.069.069.139.139.139a2.743,2.743,0,0,1,1.178,2.494,6.064,6.064,0,0,1-.139,1.109,1.933,1.933,0,0,1-.97,1.455,5.193,5.193,0,0,1-1.386.693,1.071,1.071,0,0,1-1.455-.762,3,3,0,0,1-.069-.346,5.416,5.416,0,0,1,1.109-3.949c.208-.208.208-.346,0-.554-.485-.554-.97-1.178-1.455-1.732a1.091,1.091,0,0,1-.277-.9c.069-.277,0-.554.069-.831.693.416,1.316.762,1.94,1.178-.346.624-.346.624.139,1.109a1.243,1.243,0,0,0,.485.346c.831-1.109,1.594-2.217,2.425-3.326C77.127,36.335,77.127,36.474,77.058,36.543Z" transform="translate(-22.941 -26.497)" fill="#157c6a"/>
      <path id="Path_1946" data-name="Path 1946" d="M39.1,38.351a1.359,1.359,0,0,1,.831-1.316c1.247-.693,2.425-1.386,3.672-2.078,1.732-1.039,3.464-2.009,5.266-3.048.069-.069.139-.069.208-.139.139-.069.277-.139.416.069a.335.335,0,0,1,0,.485,1.45,1.45,0,0,1-.416.277C46.1,34.263,43.118,36,40.139,37.658a1.449,1.449,0,0,0-.416.277c-.208.139-.277.277-.208.485,0,.208.208.208.346.277a1.117,1.117,0,0,1,.485.277.442.442,0,0,1,0,.416c-.069.139-.208.139-.346.139C39.377,39.46,39.1,39.113,39.1,38.351Z" transform="translate(-12.904 -25.049)" fill="#157c6a"/>
      <path id="Path_1947" data-name="Path 1947" d="M29.727,28.89a13.733,13.733,0,0,0,2.286-1.8,5.329,5.329,0,0,0-2.563.208c-.139.069-.346.208-.485.069s-.069-.346,0-.554a1.54,1.54,0,0,1,.554-.9,3.392,3.392,0,0,1,3.048-.485c.416.139.416.208.416.624-.208,1.8-1.109,2.633-2.979,2.979C29.8,29.029,29.727,29.1,29.727,28.89Z" transform="translate(-9.767 -23.07)" fill="#157c6a"/>
      <path id="Path_1948" data-name="Path 1948" d="M67.088,29.613a41.692,41.692,0,0,0,4.157-2.979c.346-.277.624-.554.97-.831-.069-.208-.277-.277-.416-.346a.651.651,0,0,1-.277-.97.442.442,0,0,0,0-.416.782.782,0,0,1-.069-.554.527.527,0,0,1,.554-.416,2.371,2.371,0,0,1,2.009,1.732.838.838,0,0,1-.139.97.9.9,0,0,1-.9.208c-.277-.139-.416,0-.554.139A12.954,12.954,0,0,1,67.3,29.82Q66.985,29.82,67.088,29.613Z" transform="translate(-21.494 -22.407)" fill="#157c6a"/>
      <path id="Path_1949" data-name="Path 1949" d="M42.322,26.987c.069-.624.069-1.316.139-1.94a2.946,2.946,0,0,1,.139-.762.667.667,0,0,1,.693-.485.753.753,0,0,1,.693.485c.069.208,0,.277-.208.346a.759.759,0,0,1-.554,0c-.277-.069-.346.069-.416.277a5.96,5.96,0,0,0-.069,1.109,10.418,10.418,0,0,1,0,2.078c0,.139.069.346-.139.416s-.346-.139-.416-.346l-.416-.831c-.139-.277-.277-.485-.416-.762a.86.86,0,0,0-.554-.416,2.934,2.934,0,0,1-.831-.277c-.416-.208-.624-.624-.485-.9s.554-.346.97-.277a1.106,1.106,0,0,1,.624.485c.346.485.624.97.97,1.455C42.114,26.779,42.114,26.918,42.322,26.987Z" transform="translate(-13.008 -22.622)" fill="#157c6a"/>
      <path id="Path_1950" data-name="Path 1950" d="M85.187,27.05a.918.918,0,0,1-.624-.485,7.573,7.573,0,0,1-.554-1.039.606.606,0,0,0-.624-.416,2.046,2.046,0,0,1-.9-.139A.721.721,0,0,1,82,24.279a.78.78,0,0,1,.762-.485,1.538,1.538,0,0,1,.762.346,4.635,4.635,0,0,1,.97,1.316c.069.139.069.277.277.346a19.574,19.574,0,0,0,.139-2.009,1.845,1.845,0,0,1,.208-.831.781.781,0,0,1,1.109-.139c.208.208.208.346-.069.485-.139.069-.277.069-.416.139-.277.069-.277.069-.277.554A23.727,23.727,0,0,1,85.187,27.05Z" transform="translate(-26.082 -22.27)" fill="#157c6a"/>
      <path id="Path_1951" data-name="Path 1951" d="M111.346,35.668c-.139,0-.277,0-.346-.208a.36.36,0,0,1,.139-.277.525.525,0,0,1,.277-.139c1.8-1.039,3.6-2.009,5.335-3.048l.416-.208a.253.253,0,0,1,.346.139.326.326,0,0,1-.069.416.525.525,0,0,1-.277.139c-1.8.97-3.533,1.94-5.335,2.91A1.736,1.736,0,0,1,111.346,35.668Z" transform="translate(-34.99 -25.068)" fill="#157c6a"/>
      <path id="Path_1952" data-name="Path 1952" d="M87.7,33.669c0,.208-.139.277-.277.346-.693.416-1.386.831-2.009,1.247-1.109.693-2.286,1.386-3.395,2.078a2.075,2.075,0,0,1-.554.277c-.139,0-.208,0-.277-.139s0-.208.139-.277c.069-.069.208-.139.277-.208,1.8-1.109,3.6-2.286,5.473-3.395.139-.069.277-.208.416-.208C87.562,33.323,87.7,33.461,87.7,33.669Z" transform="translate(-25.824 -25.563)" fill="#157c6a"/>
      <path id="Path_1953" data-name="Path 1953" d="M99.116,24.663c-.208,0-.346,0-.416-.208,0-.139.069-.208.208-.277.069,0,.139-.069.277-.069,1.8-.624,3.533-1.316,5.335-1.94a.417.417,0,0,1,.277-.069c.139,0,.277,0,.346.139a.278.278,0,0,1-.139.416c-.069.069-.208.069-.277.139-1.732.624-3.533,1.178-5.266,1.8A.3.3,0,0,1,99.116,24.663Z" transform="translate(-31.212 -22.1)" fill="#157c6a"/>
      <path id="Path_1954" data-name="Path 1954" d="M103.787,29.293a7.417,7.417,0,0,1-.97,1.109.229.229,0,0,1-.346,0c-.416-.346-.831-.693-1.316-1.039-.139-.139-.139-.208,0-.346a7.9,7.9,0,0,1,.762-.762c.139-.139.208-.139.346,0A9.92,9.92,0,0,1,103.787,29.293Z" transform="translate(-31.933 -23.958)" fill="#157c6a"/>
      <path id="Path_1955" data-name="Path 1955" d="M72.036,31c.554.277,1.039.554,1.594.9a.171.171,0,0,1,.069.277v.069a8.27,8.27,0,0,1-.554,1.109,5.363,5.363,0,0,1-1.109-.485c-.762-.416-.693-.208-.346-1.039A4.237,4.237,0,0,1,72.036,31Z" transform="translate(-22.838 -24.834)" fill="#157c6a"/>
      <path id="Path_1956" data-name="Path 1956" d="M75.636,30c.554.277,1.039.554,1.524.831.208.069.208.208.139.416-.139.277-.277.624-.416.9-.069.208-.139.277-.346.139-.416-.208-.831-.485-1.316-.693-.208-.069-.208-.208-.139-.346A6.8,6.8,0,0,0,75.636,30Z" transform="translate(-23.944 -24.527)" fill="#157c6a"/>
      <path id="Path_1957" data-name="Path 1957" d="M13.016,36.769V38.64c.069,1.039.346,1.178,1.247.693.069,0,.069,0,.208-.069a1.748,1.748,0,0,1-.416,1.178.589.589,0,0,1-1.039,0,2.049,2.049,0,0,1-.416-1.386,6.746,6.746,0,0,1,.416-2.356C12.946,36.7,13.016,36.7,13.016,36.769Z" transform="translate(-4.764 -26.585)" fill="#157c6a"/>
      <path id="Path_1958" data-name="Path 1958" d="M49.694,57.909a1.95,1.95,0,0,1-1.594.624c-.624-.069-.831-.416-.624-.97a3.974,3.974,0,0,1,.277-.485c-.208-.139-.485-.208-.554-.416v-.346c.069-.277.277-.416.762-.416,0,.277-.069.485.208.693.208.139.139.346.069.485a3.014,3.014,0,0,0-.277.485c-.208.277-.069.485.277.485a3.478,3.478,0,0,0,.831-.139c.139-.069.346-.069.485-.139S49.763,57.771,49.694,57.909Z" transform="translate(-15.392 -32.483)" fill="#157c6a"/>
      <path id="Path_1959" data-name="Path 1959" d="M9.542,46.777a4.519,4.519,0,0,1,.139,1.663.4.4,0,0,1-.416-.277,1.737,1.737,0,0,1-.277-.485,1.123,1.123,0,0,0-1.109-.831.728.728,0,0,1-.624-.346.372.372,0,0,1,.208-.624.666.666,0,0,1,.831.277,15.217,15.217,0,0,1,.97,1.247c.208.069.139-.069.139-.139C9.4,47.054,9.2,46.777,9.542,46.777Z" transform="translate(-3.092 -29.387)" fill="#157c6a"/>
      <path id="Path_1960" data-name="Path 1960" d="M50.771,24.246c0,.277-.069.485-.069.762-.069.693.139.831.831.693a.255.255,0,0,0,.208-.069.928.928,0,0,1-.554.9.7.7,0,0,1-.9-.624,2.807,2.807,0,0,1,0-.762A4.4,4.4,0,0,1,50.7,23.9C50.91,23.969,50.771,24.177,50.771,24.246Z" transform="translate(-16.331 -22.653)" fill="#157c6a"/>
      <path id="Path_1961" data-name="Path 1961" d="M37.887,32.339c-.069.277-.139.554-.208.762-.139.624,0,.762.624.693h.208v.139c-.208.485-.554.693-.9.624-.277-.069-.485-.485-.416-.97a3.435,3.435,0,0,1,.554-1.386C37.887,32.2,37.956,32.269,37.887,32.339Z" transform="translate(-12.315 -25.202)" fill="#157c6a"/>
      <path id="Path_1962" data-name="Path 1962" d="M47.523,39.28v1.039c0,.693.208.831.9.554h.139a.458.458,0,0,1-.069.416.8.8,0,0,1-.693.554c-.277,0-.554-.346-.624-.624a2.624,2.624,0,0,1,0-1.039,3.655,3.655,0,0,1,.208-.831C47.454,39.211,47.454,39.211,47.523,39.28Z" transform="translate(-15.369 -27.363)" fill="#157c6a"/>
      <path id="Path_1963" data-name="Path 1963" d="M60.443,54.908c-.069.277-.208.554-.277.9-.139.485,0,.624.485.624h.277V56.5c-.208.485-.554.693-.9.554a.816.816,0,0,1-.346-.97,3.4,3.4,0,0,1,.762-1.386A.13.13,0,0,1,60.443,54.908Z" transform="translate(-19.213 -32.114)" fill="#157c6a"/>
      <path id="Path_1964" data-name="Path 1964" d="M28.109,45.208c-.069.208-.208.346-.277.554-.208.485-.069.624.416.693.069,0,.208,0,.208.069v.069c-.346.416-.693.554-.97.346-.277-.139-.346-.624-.139-1.039a2.636,2.636,0,0,1,.624-.9C28.178,45,28.178,45.069,28.109,45.208Z" transform="translate(-9.257 -29.134)" fill="#157c6a"/>
      <path id="Path_1965" data-name="Path 1965" d="M33.093,56.946a.985.985,0,0,0-.139.416c-.139.416-.069.554.416.693h.277v.069c-.277.416-.693.624-.97.416-.277-.139-.346-.624-.208-1.039a1.965,1.965,0,0,1,.554-.762c.069,0,.069-.069.139-.139h0c.139,0,.139,0,.139.139,0,.069,0,.069-.069.069C33.093,56.808,33.093,56.877,33.093,56.946Z" transform="translate(-10.846 -32.698)" fill="#157c6a"/>
      <path id="Path_1966" data-name="Path 1966" d="M110.077,48.477c0,.139-.069.346-.069.485-.069.485.069.624.485.554.069,0,.139-.069.277,0,0,.069-.069.139-.069.208a.7.7,0,0,1-.762.416c-.277-.069-.416-.485-.346-.831a3.061,3.061,0,0,1,.416-1.109C110.146,48.269,110.077,48.408,110.077,48.477Z" transform="translate(-34.552 -30.117)" fill="#157c6a"/>
      <path id="Path_1967" data-name="Path 1967" d="M17.124,57.108c0,.069-.069.139-.069.208-.208.485-.208.554.346.693,0,.208-.139.208-.277.277-.346.208-.554.069-.624-.346a1.179,1.179,0,0,1,.069-.485,2.43,2.43,0,0,1,.346-.554C17.124,56.969,17.193,56.969,17.124,57.108Z" transform="translate(-5.962 -32.79)" fill="#157c6a"/>
      <path id="Path_1968" data-name="Path 1968" d="M10.485,45.131V45.2c-.069.208,0,.485-.069.693,0,.139.069.277-.139.277a3.363,3.363,0,0,1,0-1.178c.069-.069,0-.208.069-.346h0a.242.242,0,0,1,.139-.069s.069-.069.069,0a.592.592,0,0,1,.485,0h0c.069.069.069.069.139.069h0c0,.069.069.069.139.139h0a.13.13,0,0,1,0,.208h0C10.97,45.131,10.693,44.923,10.485,45.131Z" transform="translate(-4.035 -28.988)" fill="#157c6a"/>
      <path id="Path_1969" data-name="Path 1969" d="M27.928,35.808c-.139.346.069.416.346.485-.139.208-.346.346-.554.208a.434.434,0,0,1-.139-.554c.069-.139.139-.208.208-.346C27.859,35.6,27.928,35.669,27.928,35.808Z" transform="translate(-9.354 -26.247)" fill="#157c6a"/>
      <path id="Path_1970" data-name="Path 1970" d="M10.208,46.47c.139-.139.069-.346.069-.485s-.069-.346.069-.485v1.178c-.139.139-.069.346-.139.485s-.139.139-.208,0C10.277,46.955,10.069,46.678,10.208,46.47Z" transform="translate(-3.966 -29.288)" fill="#157c6a"/>
      <path id="Path_1971" data-name="Path 1971" d="M99.012,56.249c0,.069-.069.208.069.277.069,0,.208,0,.139.139a.149.149,0,0,1-.139.139c-.069,0-.208,0-.208-.069-.139-.208,0-.346.069-.554C99.012,56.111,99.012,56.111,99.012,56.249Z" transform="translate(-31.247 -32.555)" fill="#157c6a"/>
      <path id="Path_1972" data-name="Path 1972" d="M100.539,41.749c.069.069.208.069.208.208a.149.149,0,0,1-.139.139c-.139,0-.208-.069-.208-.139V41.68C100.4,41.611,100.469,41.611,100.539,41.749Z" transform="translate(-31.734 -28.1)" fill="#157c6a"/>
      <path id="Path_1973" data-name="Path 1973" d="M66.916,32.5l.139.139c-.139.139-.277.139-.416.208s-.139,0-.139-.139C66.569,32.708,66.708,32.569,66.916,32.5Z" transform="translate(-21.321 -25.295)" fill="#157c6a"/>
      <path id="Path_1974" data-name="Path 1974" d="M28.439,45.054c0-.069,0-.208-.139-.208a.835.835,0,0,1,.346-.346c.069.069.069.139,0,.139A.419.419,0,0,1,28.439,45.054Z" transform="translate(-9.587 -28.981)" fill="#157c6a"/>
      <path id="Path_1975" data-name="Path 1975" d="M50.939,24.124c-.069-.069,0-.277-.139-.346,0-.139,0-.208.208-.277C51.077,23.777,51.077,23.985,50.939,24.124Z" transform="translate(-16.498 -22.53)" fill="#157c6a"/>
      <path id="Path_1976" data-name="Path 1976" d="M10.6,45.334c.208-.277.485-.069.762-.139C11.085,45.4,10.808,45.2,10.6,45.334Z" transform="translate(-4.15 -29.191)" fill="#157c6a"/>
      <path id="Path_1977" data-name="Path 1977" d="M100.508,41.524c-.069-.069-.139-.069-.208-.139a.921.921,0,0,1,.208-.485Z" transform="translate(-31.703 -27.875)" fill="#157c6a"/>
      <path id="Path_1978" data-name="Path 1978" d="M83.746,58.5l.139.139a.41.41,0,0,1-.485.069C83.469,58.5,83.608,58.5,83.746,58.5Z" transform="translate(-26.512 -33.281)" fill="#157c6a"/>
      <path id="Path_1979" data-name="Path 1979" d="M33.439,56.616l-.139-.139c.069-.069.139-.208.208-.277.069,0,.139,0,.139.139C33.577,56.339,33.577,56.477,33.439,56.616Z" transform="translate(-11.123 -32.575)" fill="#157c6a"/>
      <path id="Path_1980" data-name="Path 1980" d="M28.039,35.685l-.139-.139a.569.569,0,0,1,.346-.346h0A1.035,1.035,0,0,1,28.039,35.685Z" transform="translate(-9.464 -26.124)" fill="#157c6a"/>
      <path id="Path_1981" data-name="Path 1981" d="M33.739,56.116c0-.069-.069-.069-.139-.139a.541.541,0,0,1,.277-.277C33.946,55.908,33.877,55.977,33.739,56.116Z" transform="translate(-11.215 -32.421)" fill="#157c6a"/>
      <path id="Path_1982" data-name="Path 1982" d="M71.839,48.016l-.139-.139a.36.36,0,0,1,.139-.277A.26.26,0,0,1,71.839,48.016Z" transform="translate(-22.918 -29.933)" fill="#157c6a"/>
      <path id="Path_1983" data-name="Path 1983" d="M17.339,57.016l-.139-.139a.541.541,0,0,1,.277-.277C17.546,56.808,17.477,56.877,17.339,57.016Z" transform="translate(-6.177 -32.698)" fill="#157c6a"/>
      <path id="Path_1984" data-name="Path 1984" d="M79.339,36.438c0-.069,0-.139-.139-.208,0-.069.069-.208.139-.139.069,0,.069.139.069.208A.242.242,0,0,0,79.339,36.438Z" transform="translate(-25.222 -26.392)" fill="#157c6a"/>
      <path id="Path_1985" data-name="Path 1985" d="M30.008,30.5c.069.069.139.069.208.139-.069,0-.139.069-.208.069H29.8C29.8,30.569,29.869,30.569,30.008,30.5Z" transform="translate(-10.048 -24.68)" fill="#157c6a"/>
      <path id="Path_1986" data-name="Path 1986" d="M38.139,32.216,38,32.077c.069-.069.069-.208.139-.277Q38.346,32.112,38.139,32.216Z" transform="translate(-12.567 -25.08)" fill="#157c6a"/>
      <path id="Path_1987" data-name="Path 1987" d="M110.239,48.416c0-.069,0-.208-.139-.208,0-.069.069-.139.069-.208.069,0,.139,0,.139.139A.417.417,0,0,1,110.239,48.416Z" transform="translate(-34.713 -30.056)" fill="#157c6a"/>
      <path id="Path_1988" data-name="Path 1988" d="M110.339,48.016l-.139-.139c0-.139.069-.208.208-.277A.326.326,0,0,1,110.339,48.016Z" transform="translate(-34.744 -29.933)" fill="#157c6a"/>
      <path id="Path_1989" data-name="Path 1989" d="M99.069,56.2,99,56.13c0-.069.069-.208.139-.139C99.208,55.992,99.139,56.13,99.069,56.2Z" transform="translate(-31.304 -32.505)" fill="#157c6a"/>
      <path id="Path_1990" data-name="Path 1990" d="M60.8,54.846V54.5c.069,0,.069,0,.069.069C60.939,54.708,60.869,54.777,60.8,54.846Z" transform="translate(-19.57 -32.053)" fill="#157c6a"/>
      <path id="Path_1991" data-name="Path 1991" d="M11.085,44.542H10.6C10.808,44.4,10.946,44.334,11.085,44.542Z" transform="translate(-4.15 -28.953)" fill="#157c6a"/>
      <path id="Path_1992" data-name="Path 1992" d="M66.308,32.9l.139.139c-.069.069-.139.069-.208.139-.139,0-.139,0-.139-.139C66.169,32.969,66.239,32.9,66.308,32.9Z" transform="translate(-21.198 -25.418)" fill="#157c6a"/>
      <path id="Path_1993" data-name="Path 1993" d="M50.739,58.672l-.139-.139v-.069c.069-.069.208-.139.277,0C50.946,58.534,50.808,58.6,50.739,58.672Z" transform="translate(-16.437 -33.246)" fill="#157c6a"/>
      <path id="Path_1994" data-name="Path 1994" d="M66.008,33l.139.139a.519.519,0,0,1-.346.069h0Z" transform="translate(-21.106 -25.448)" fill="#157c6a"/>
      <path id="Path_1995" data-name="Path 1995" d="M13.169,36.7H13.1c0-.069,0-.208.069-.208C13.239,36.423,13.169,36.561,13.169,36.7Z" transform="translate(-4.918 -26.515)" fill="#157c6a"/>
      <path id="Path_1996" data-name="Path 1996" d="M10.349,44.7a.519.519,0,0,1-.069.346C10.211,44.908,10.211,44.769,10.349,44.7Z" transform="translate(-4.038 -29.042)" fill="#157c6a"/>
      <path id="Path_1997" data-name="Path 1997" d="M47.669,39.23H47.6c0-.069,0-.139.069-.139Z" transform="translate(-15.515 -27.314)" fill="#157c6a"/>
      <path id="Path_1998" data-name="Path 1998" d="M11.7,45.108V44.9A.13.13,0,0,1,11.7,45.108Z" transform="translate(-4.488 -29.104)" fill="#157c6a"/>
      <path id="Path_1999" data-name="Path 1999" d="M28.8,44.708v-.139l.069-.069C28.939,44.569,28.869,44.639,28.8,44.708Z" transform="translate(-9.741 -28.981)" fill="#157c6a"/>
      <path id="Path_2000" data-name="Path 2000" d="M65.777,33.3Z" transform="translate(-21.083 -25.54)" fill="#157c6a"/>
      <path id="Path_2001" data-name="Path 2001" d="M28.3,35.169l.069-.069c.069,0,.069.069-.069.069Z" transform="translate(-9.587 -26.093)" fill="#157c6a"/>
      <path id="Path_2002" data-name="Path 2002" d="M11.639,44.839c-.069,0-.069-.069-.139-.139A.149.149,0,0,1,11.639,44.839Z" transform="translate(-4.427 -29.042)" fill="#157c6a"/>
      <path id="Path_2003" data-name="Path 2003" d="M33.4,57.039c0-.069.069-.069.069-.139C33.469,56.969,33.4,56.969,33.4,57.039Z" transform="translate(-11.154 -32.79)" fill="#157c6a"/>
      <path id="Path_2004" data-name="Path 2004" d="M10.539,44.6c-.069,0-.069.069-.139.069C10.4,44.6,10.469,44.6,10.539,44.6Z" transform="translate(-4.089 -29.011)" fill="#157c6a"/>
      <path id="Path_2005" data-name="Path 2005" d="M11.439,44.669c-.069,0-.069-.069-.139-.069C11.369,44.6,11.439,44.6,11.439,44.669Z" transform="translate(-4.365 -29.011)" fill="#157c6a"/>
      <path id="Path_2006" data-name="Path 2006" d="M33.239,56.5c0,.069-.069.069-.139.139Z" transform="translate(-11.061 -32.667)" fill="#157c6a"/>
      <path id="Path_2007" data-name="Path 2007" d="M50.909,49.469a1.084,1.084,0,0,1-1.039.831,1.317,1.317,0,0,1-1.109-.693c-.139-.277-.139-.346.208-.416A4.88,4.88,0,0,1,50.909,49.469Z" transform="translate(-15.846 -30.417)" fill="#fff"/>
      <path id="Path_2008" data-name="Path 2008" d="M116.809,44.69a2.569,2.569,0,0,1-1.594.208c-.139,0-.416-.069-.416-.277s.139-.277.277-.416A1.18,1.18,0,0,1,116.809,44.69Z" transform="translate(-36.157 -28.825)" fill="#fff"/>
      <path id="Path_2009" data-name="Path 2009" d="M74.355,46.979c-.693,0-.831-.139-.762-.693a3.021,3.021,0,0,1,1.039-2.078.592.592,0,0,1,.9,0,3.809,3.809,0,0,1,.9,1.247.569.569,0,0,1-.069.485,1.517,1.517,0,0,1-.693.624A3.238,3.238,0,0,1,74.355,46.979Z" transform="translate(-23.495 -28.827)" fill="#fff"/>
      <path id="Path_2010" data-name="Path 2010" d="M74.346,25.527c-.277,0-.346-.069-.346-.346s.208-.554.416-.485c.208,0,.416.277.416.485A.472.472,0,0,1,74.346,25.527Z" transform="translate(-23.625 -22.894)" fill="#fff"/>
      <path id="Path_2011" data-name="Path 2011" d="M75.769,25.5a.3.3,0,0,1,.277.277c0,.208-.208.208-.346.208s-.277-.069-.208-.208A.254.254,0,0,1,75.769,25.5Z" transform="translate(-24.077 -23.144)" fill="#fff"/>
    </g>
    <g id="Group_3282" data-name="Group 3282" transform="translate(0.422 44.895)">
      <path id="Path_2012" data-name="Path 2012" d="M1.9,64.9H3.078l1.663,5.058L6.473,64.9H7.65v5.958H6.819V65.8L5.087,70.858H4.325L2.662,65.8v5.127H1.9Z" transform="translate(-1.9 -64.831)" fill="#c1a73d"/>
      <path id="Path_2013" data-name="Path 2013" d="M13.1,64.9h.762v.831H13.1Zm0,1.663h.762v4.3H13.1Z" transform="translate(-5.34 -64.831)" fill="#c1a73d"/>
      <path id="Path_2014" data-name="Path 2014" d="M17.169,67.169h.693v.624a2.245,2.245,0,0,1,.624-.554,1.37,1.37,0,0,1,.762-.139,1.257,1.257,0,0,1,1.247.624,1.947,1.947,0,0,1,.208,1.039v2.771h-.762V68.763a1.383,1.383,0,0,0-.139-.624.7.7,0,0,0-.693-.416c-.139,0-.346,0-.416.069a2.431,2.431,0,0,0-.554.346.6.6,0,0,0-.208.416c0,.139-.069.346-.069.624v2.286H17.1v-4.3Z" transform="translate(-6.569 -65.507)" fill="#c1a73d"/>
      <path id="Path_2015" data-name="Path 2015" d="M25.2,64.9h.762v.831H25.2Zm0,1.663h.762v4.3H25.2Z" transform="translate(-9.057 -64.831)" fill="#c1a73d"/>
      <path id="Path_2016" data-name="Path 2016" d="M29.624,70.148a.682.682,0,0,0,.208.554,1.256,1.256,0,0,0,.97.346,1.579,1.579,0,0,0,.762-.208.519.519,0,0,0,.346-.554.38.38,0,0,0-.277-.416,3.22,3.22,0,0,0-.624-.208l-.624-.069a5.777,5.777,0,0,1-.831-.277.9.9,0,0,1-.485-.831,1.048,1.048,0,0,1,.485-.97,1.63,1.63,0,0,1,1.178-.416,1.876,1.876,0,0,1,1.455.554,1.154,1.154,0,0,1,.277.762h-.693A.494.494,0,0,0,31.563,68a1.176,1.176,0,0,0-.9-.277,1.383,1.383,0,0,0-.624.139.6.6,0,0,0-.208.416.523.523,0,0,0,.277.485,3.378,3.378,0,0,0,.485.208l.485.139a11.472,11.472,0,0,1,1.109.346,1.029,1.029,0,0,1,.416.9,1.258,1.258,0,0,1-.416.97,1.949,1.949,0,0,1-1.386.416,1.949,1.949,0,0,1-1.386-.416A1.463,1.463,0,0,1,29,70.218h.624Z" transform="translate(-10.224 -65.507)" fill="#c1a73d"/>
      <path id="Path_2017" data-name="Path 2017" d="M36.624,65.5h.762v1.247h.693v.624h-.693v2.841c0,.139.069.277.139.277s.139.069.277.069h.277v.554c-.069,0-.139.069-.277.069h-.277a.73.73,0,0,1-.693-.277,1.17,1.17,0,0,1-.208-.693V67.3H36v-.624h.554V65.5Z" transform="translate(-12.374 -65.015)" fill="#c1a73d"/>
      <path id="Path_2018" data-name="Path 2018" d="M41.369,67.139h.693V67.9a2.272,2.272,0,0,1,.416-.554A1.113,1.113,0,0,1,43.24,67h.208v.762h-.277a1.147,1.147,0,0,0-.831.346,1.1,1.1,0,0,0-.277.831v2.494H41.3v-4.3Z" transform="translate(-14.002 -65.476)" fill="#c1a73d"/>
      <path id="Path_2019" data-name="Path 2019" d="M49.287,67.169h.831c-.069.277-.346.9-.693,1.94-.277.762-.485,1.386-.693,1.8a8.218,8.218,0,0,1-.9,2.009c-.139.277-.485.346-.9.346h-.208a.255.255,0,0,1-.208-.069V72.5a.524.524,0,0,0,.277.069h.139c.139,0,.208,0,.277-.069s.139-.069.139-.139a2.913,2.913,0,0,0,.139-.346,1.128,1.128,0,0,1,.208-.416L46.1,67.1h.831l1.178,3.533Z" transform="translate(-15.477 -65.507)" fill="#c1a73d"/>
      <path id="Path_2020" data-name="Path 2020" d="M61.864,67.648a2.024,2.024,0,0,1,.554,1.663,2.836,2.836,0,0,1-.485,1.732,1.754,1.754,0,0,1-1.594.693,1.652,1.652,0,0,1-1.386-.624A2.528,2.528,0,0,1,58.4,69.45a2.593,2.593,0,0,1,.554-1.732,1.789,1.789,0,0,1,1.455-.624A1.565,1.565,0,0,1,61.864,67.648Zm-.416,2.841a2.373,2.373,0,0,0,.277-1.247,1.835,1.835,0,0,0-.208-.97,1.075,1.075,0,0,0-1.039-.624,1.048,1.048,0,0,0-.97.485,2.373,2.373,0,0,0-.277,1.247,2.123,2.123,0,0,0,.277,1.178,1.117,1.117,0,0,0,.97.485A1.106,1.106,0,0,0,61.448,70.489Z" transform="translate(-19.255 -65.501)" fill="#c1a73d"/>
      <path id="Path_2021" data-name="Path 2021" d="M67.062,65.146c.139-.277.485-.346.97-.346h.277v.693H68.1a.586.586,0,0,0-.416.139,2.407,2.407,0,0,0-.069.9h.762v.554h-.762v3.741h-.693V67.086H66.3v-.554h.624v-.693A1.491,1.491,0,0,1,67.062,65.146Z" transform="translate(-21.682 -64.8)" fill="#c1a73d"/>
      <path id="Path_2022" data-name="Path 2022" d="M79.164,69.088a2.761,2.761,0,0,1-.208,1.178,1.716,1.716,0,0,1-1.594.762,2.336,2.336,0,0,1-1.178-.346,1.462,1.462,0,0,1-.485-1.316v-.416h.762v.416a1.244,1.244,0,0,0,.208.762.73.73,0,0,0,.693.277.838.838,0,0,0,.831-.416,3.375,3.375,0,0,0,.139-1.039V65h.831v4.088Z" transform="translate(-24.569 -64.861)" fill="#c1a73d"/>
      <path id="Path_2023" data-name="Path 2023" d="M84.462,67.2v2.91a1.351,1.351,0,0,0,.069.554.7.7,0,0,0,.693.416,1.037,1.037,0,0,0,1.039-.693,3.612,3.612,0,0,0,.139-.97V67.269h.762v4.365h-.693v-.624a1.837,1.837,0,0,1-.346.416,1.655,1.655,0,0,1-.97.346,1.257,1.257,0,0,1-1.247-.624,1.572,1.572,0,0,1-.208-.9V67.269h.762Z" transform="translate(-27.026 -65.537)" fill="#c1a73d"/>
      <path id="Path_2024" data-name="Path 2024" d="M92.124,70.118a.682.682,0,0,0,.208.554,1.256,1.256,0,0,0,.97.346,1.58,1.58,0,0,0,.762-.208.519.519,0,0,0,.346-.554.38.38,0,0,0-.277-.416,3.222,3.222,0,0,0-.624-.208l-.624-.139a5.779,5.779,0,0,1-.831-.277.9.9,0,0,1-.485-.831,1.048,1.048,0,0,1,.485-.97A1.63,1.63,0,0,1,93.232,67a1.876,1.876,0,0,1,1.455.554,1.154,1.154,0,0,1,.277.762h-.693a.494.494,0,0,0-.208-.416c-.139-.208-.485-.277-.9-.277a1.384,1.384,0,0,0-.624.139.6.6,0,0,0-.208.416.523.523,0,0,0,.277.485,3.377,3.377,0,0,0,.485.208l.485.139a11.469,11.469,0,0,1,1.109.346,1.029,1.029,0,0,1,.416.9,1.258,1.258,0,0,1-.416.97,2.517,2.517,0,0,1-2.771,0,1.463,1.463,0,0,1-.416-1.109Z" transform="translate(-29.422 -65.476)" fill="#c1a73d"/>
      <path id="Path_2025" data-name="Path 2025" d="M99.154,65.5h.762v1.247h.693v.624h-.693v2.841c0,.139.069.277.139.277s.139.069.277.069h.277v.554c-.069,0-.139.069-.277.069h-.277a.73.73,0,0,1-.693-.277,1.171,1.171,0,0,1-.208-.693V67.3H98.6v-.624h.554Z" transform="translate(-31.603 -65.015)" fill="#c1a73d"/>
      <path id="Path_2026" data-name="Path 2026" d="M103.9,64.9h.762v.831H103.9Zm0,1.663h.762v4.3H103.9Z" transform="translate(-33.231 -64.831)" fill="#c1a73d"/>
      <path id="Path_2027" data-name="Path 2027" d="M110.687,67.439a1.756,1.756,0,0,1,.554,1.247h-.693a2.075,2.075,0,0,0-.277-.693.863.863,0,0,0-.762-.277.906.906,0,0,0-.97.693,2.638,2.638,0,0,0-.208,1.109,1.889,1.889,0,0,0,.277,1.109,1.029,1.029,0,0,0,.9.416.8.8,0,0,0,.693-.277,1.948,1.948,0,0,0,.346-.762h.693a1.805,1.805,0,0,1-.624,1.247,1.934,1.934,0,0,1-1.247.416,1.744,1.744,0,0,1-1.386-.624,2.239,2.239,0,0,1-.485-1.524,2.794,2.794,0,0,1,.554-1.8,1.744,1.744,0,0,1,1.386-.624A1.574,1.574,0,0,1,110.687,67.439Z" transform="translate(-34.337 -65.499)" fill="#c1a73d"/>
      <path id="Path_2028" data-name="Path 2028" d="M117.818,67.308a1.636,1.636,0,0,1,.624.554,2.482,2.482,0,0,1,.277.762,3.681,3.681,0,0,1,.069.97H115.6a2.066,2.066,0,0,0,.277,1.039,1.029,1.029,0,0,0,.9.416,1.317,1.317,0,0,0,.9-.346,1.737,1.737,0,0,0,.277-.485h.693a1.106,1.106,0,0,1-.208.554,2.933,2.933,0,0,1-.346.485,1.58,1.58,0,0,1-.831.416,1.72,1.72,0,0,1-.624.069,1.846,1.846,0,0,1-1.386-.624,2.528,2.528,0,0,1-.554-1.663,2.873,2.873,0,0,1,.554-1.732,1.887,1.887,0,0,1,1.455-.624A2.429,2.429,0,0,1,117.818,67.308Zm.208,1.732a1.245,1.245,0,0,0-.208-.762,1.106,1.106,0,0,0-.97-.554,1.147,1.147,0,0,0-.831.346,1.317,1.317,0,0,0-.346.9h2.356Z" transform="translate(-36.549 -65.507)" fill="#c1a73d"/>
    </g>
  </g>
</svg>
