<svg xmlns="http://www.w3.org/2000/svg" width="150.507" height="43.191" viewBox="0 0 150.507 43.191">
  <g id="شعار_وزارة_الشو_ون_البلدية-01" data-name="شعار وزارة الشؤون البلدية-01" transform="translate(-17.13 -12.056)">
    <path id="Path_6859" data-name="Path 6859" d="M252.879,18.471a11.407,11.407,0,0,0-2.822-1.506,5.931,5.931,0,0,0-2.031-.412c-.108,0-.233-.033-.33.07a8.724,8.724,0,0,1,4.772,7.3,13.65,13.65,0,0,0-1.7-2.454,10.734,10.734,0,0,0-2.622-2.324,1.8,1.8,0,0,0-.65-.287c-.016-.011-.038-.038-.049-.038-.049.027-.016.049.011.07a14.467,14.467,0,0,1,1.441,2.475,9.97,9.97,0,0,1,.726,4.718c-.011.135-.016.271-.022.412a2.157,2.157,0,0,1-.049.363,18.437,18.437,0,0,0-3.337-6.516,19.005,19.005,0,0,1-.022,7.621c-.168-1.159-.276-2.329-.509-3.483a10.549,10.549,0,0,0-1.094-3.337c-.065.515-.125,1.029-.19,1.538-.022.168-.049.336-.07.509-.011.108-.054.227.125.26.125.022.087.146.081.227-.038.856-.081,1.706-.108,2.562-.005.195-.163.45.157.569.033.011.022.152.016.227-.06.964-.119,1.934-.184,2.9-.011.152-.1.336.19.314.125-.011.1.1.092.173-.1,1.035-.184,2.064-.292,3.1-.022.217-.005.363.211.471a2.118,2.118,0,0,1,.59.466.285.285,0,0,1,.07.287c-.038.125-.152.076-.233.076q-1.267.008-2.535,0c-.081,0-.195.054-.233-.065a.244.244,0,0,1,.087-.276c.211-.173.406-.368.628-.52a.363.363,0,0,0,.184-.4c-.092-.975-.173-1.95-.26-2.93-.016-.152-.054-.287.162-.336.157-.032.092-.184.087-.287-.065-.91-.135-1.815-.195-2.73-.011-.173-.152-.412.2-.477.108-.022.043-.227.038-.341-.038-.888-.081-1.777-.125-2.665-.005-.141-.065-.3.135-.374.027-.011.049-.081.043-.119-.1-.715-.206-1.435-.341-2.15a24.383,24.383,0,0,0-1.381,6.635,12.757,12.757,0,0,1-.2-7.21,12.73,12.73,0,0,0-3.18,6.077,5.127,5.127,0,0,1-.249-2.14,11.661,11.661,0,0,1,1.685-4.794c.141-.244.292-.487.439-.731.005-.005,0-.022-.005-.07a8.793,8.793,0,0,0-2.806,2.14,19.327,19.327,0,0,0-2.123,2.9c.2-2.248,1.592-5.855,4.956-7.323a4.987,4.987,0,0,0-1.89.07,7,7,0,0,0-2.968,1.4c-.081.065-.168.238-.309.1s.027-.227.092-.314a10.076,10.076,0,0,1,2.047-2.242,7.151,7.151,0,0,1,3.824-1.311c.157-.011.314-.005.52-.005a2.012,2.012,0,0,0-1.116-.791,2.36,2.36,0,0,1,2.465-.016c.19.1.249.119.3-.119a2.884,2.884,0,0,1,.487-1.159c.217-.282.39-.271.574.038a3.551,3.551,0,0,1,.428,1.148c.043.206.1.206.26.1a3,3,0,0,1,2.665-.092,2.974,2.974,0,0,0-1.213.753c3.093.076,5.092,1.825,6.679,4.22a.178.178,0,0,1-.032.043" transform="translate(-99.787)" fill="#85c04d"/>
    <path id="Path_6860" data-name="Path 6860" d="M215.072,36.527c0-.937-.011-1.874.005-2.806.005-.249-.06-.374-.32-.32-.363.076-.439-.227-.547-.444a.618.618,0,0,0-.693-.4c-.2.022-.255.087-.238.265a2.392,2.392,0,0,1,0,.341c0,.081.005.184-.114.168-.341-.043-.287.19-.287.39v4.041c0,.493,0,.493-.515.493-.98,0-1.961.005-2.941-.005-.179,0-.249.033-.271.233a21.627,21.627,0,0,0,1.679,11.2c3.245,7.264,8.769,11.873,16.575,13.439a21.876,21.876,0,0,0,19.337-5.173,22.229,22.229,0,0,0,7.534-13.482,24.828,24.828,0,0,0,.3-3.234c.011-.26-.065-.33-.32-.32-.569.022-1.143-.005-1.712.011-.238.005-.309-.054-.309-.3.016-1.116-.005-2.237.016-3.353.005-.292-.081-.379-.363-.352-.249.027-.5-.005-.753.011-.206.011-.282-.054-.276-.265.016-.493-.011-.98.011-1.473.011-.265-.081-.336-.33-.32-.33.022-.661-.005-.991.011-.228.011-.293-.07-.293-.292,0-.6-.011-.6-.623-.6-.352,0-.7.011-1.062-.005-.184-.005-.287.043-.255.244a.659.659,0,0,1-.238.639.531.531,0,0,0-.168.46c.005,1.04-.005,2.075.005,3.115.005.233-.049.325-.3.314-.466-.022-.937-.022-1.4,0-.271.016-.32-.087-.314-.33.016-.7.005-1.414.005-2.123a.852.852,0,0,0-.84-.861c-.249-.005-.552.1-.726-.054s-.049-.455-.054-.688c0-.173-.076-.211-.228-.206a3.255,3.255,0,0,1-.65-.005c-.325-.049-.368.1-.363.385.011,1.771-.005,3.537.016,5.308.005.325-.1.406-.4.39-.444-.027-.888-.022-1.332-.005-.249.011-.341-.054-.336-.325.022-.558,0-1.116.011-1.674.005-.195-.06-.255-.255-.255q-.65.016-1.3,0c-.184-.005-.233.065-.233.238.011.569-.005,1.143.005,1.712.005.211-.043.3-.282.3-1.414-.011-2.827-.016-4.247,0-.32.005-.265-.184-.276-.379s.011-.336.282-.336c1.105.011,2.215.005,3.32.005.5,0,.5,0,.5-.515,0-.487.011-.98-.005-1.473-.005-.206.043-.282.265-.276.888.011,1.782.011,2.67,0,.222,0,.271.087.265.287-.011.558.011,1.116-.011,1.679-.011.287.125.3.347.309s.314-.054.314-.3c-.011-1.793.005-3.586-.016-5.373-.005-.325.092-.4.4-.39q.959.033,1.917,0c.287-.011.368.092.33.347a.3.3,0,0,0,0,.07c0,.493,0,.5.482.5a.456.456,0,0,1,.385.173c.2.233.4.466.617.688a.481.481,0,0,1,.119.374c-.005.617.016,1.23-.011,1.847-.011.276.135.255.314.255s.32.016.314-.255c-.016-.926-.011-1.847-.005-2.773,0-.108-.043-.249.06-.325.406-.287.363-.7.336-1.11-.016-.238.065-.314.3-.309.91.011,1.825.011,2.741,0,.244-.005.309.081.309.314-.005.563.005.563.585.563.238,0,.482.016.72-.005s.3.081.3.309c-.016.482.011.959-.011,1.441-.016.271.081.336.33.314s.525.011.785-.011c.217-.016.265.076.265.276-.011,1.127.005,2.259-.011,3.385-.005.276.054.379.352.368.569-.027,1.143.005,1.712-.011.228-.005.287.065.287.287a22.815,22.815,0,0,1-3.152,12.019,23.5,23.5,0,0,1-43.485-7.794,24.37,24.37,0,0,1-.179-6.4c.022-.244-.087-.574.087-.72.2-.162.525-.049.8-.054.845-.011,1.69-.011,2.535.005.238.005.309-.06.309-.3-.011-1.435-.005-2.876-.005-4.312,0-.179-.022-.341.255-.314.211.022.146-.162.146-.271.016-.52.016-.52.536-.52a2.146,2.146,0,0,0,.374-.005,1,1,0,0,1,1.278.682c.06.179.211.173.363.173.655.005.655.005.655.666,0,1.733.005,3.472-.005,5.205-.005.309.076.45.4.4.271-.049.368.07.336.341a2.613,2.613,0,0,0,0,.412.114.114,0,0,0,.119.13c.087,0,.119-.049.125-.13s.005-.184.005-.276c0-1.425.005-2.855-.005-4.279,0-.255.049-.357.33-.352.775.022,1.549.022,2.329,0,.265-.005.352.081.314.33a.653.653,0,0,0,0,.1c.005.271-.081.607.049.8s.488.06.742.07c.211.005.2.13.2.271,0,.607.011,1.208-.005,1.815-.005.244.043.352.314.33a6.056,6.056,0,0,1,.991,0c.271.022.32-.087.314-.33-.016-.58.005-1.165-.011-1.744-.005-.211.06-.276.271-.271.585.011,1.165.005,1.75.005.065,0,.168-.022.2.016.314.39.8.682.823,1.246.033.682.022,1.37,0,2.053-.011.292.092.357.368.357,1.267-.016,2.535.005,3.8-.011.287-.005.363.081.368.363.005.3-.114.352-.379.352-1.495-.011-2.99-.016-4.485.005-.33.005-.4-.108-.39-.406.022-.818.011-1.641.005-2.465a.78.78,0,0,0-.8-.807c-.818,0-.818,0-.818.812,0,.693-.005,1.392.005,2.091,0,.195-.06.276-.255.249a.653.653,0,0,0-.1,0c-.569.005-.585.005-.585-.552,0-.222-.087-.265-.282-.26-.515.011-1.029-.005-1.538.005-.211.005-.276-.065-.271-.271.011-.628-.005-1.257.011-1.885.005-.211-.07-.265-.276-.271-.715-.011-.715-.016-.715-.737,0-.547,0-.547-.558-.547-.238,0-.482.016-.72-.005s-.3.065-.3.3c.011,1.452-.005,2.9.011,4.35.005.3-.054.433-.385.4a8.15,8.15,0,0,0-1.029-.005c-.168.005-.265-.038-.238-.227a1.129,1.129,0,0,0,0-.135c-.005-.487-.005-.5-.5-.5-.238,0-.249-.108-.249-.292.016-.975.016-1.934.016-2.892" transform="translate(-87.633 -9.059)" fill="#85c04e"/>
    <path id="Path_6861" data-name="Path 6861" d="M218.606,53.274a30.975,30.975,0,0,1,5.46,1.056,21.764,21.764,0,0,1,8.623,4.642c.2.179.531.347.536.58.005.217-.336.363-.525.542-1.089,1.018-2.188,2.031-3.277,3.055-.162.152-.233.152-.347-.043a3.4,3.4,0,0,1-.39-.942,1.944,1.944,0,0,0-1.267-1.37,1.084,1.084,0,0,0-1.376,1.522.9.9,0,0,0,1.17.487,3.818,3.818,0,0,0,.542-.2.494.494,0,0,1,.677.211.838.838,0,0,1-.022,1.018,3.378,3.378,0,0,1-1.6,1.116c-.233.1-.379.125-.563-.125a1.114,1.114,0,0,0-1.36-.292,1.147,1.147,0,0,0-.525,1.23,1.037,1.037,0,0,0,1.072.823,3.922,3.922,0,0,0,1.6-.3,8.719,8.719,0,0,0,2.167-1.354c.211-.173.314-.233.5.065a3.094,3.094,0,0,0,2.091,1.473,1.558,1.558,0,0,0,1.4-.385.987.987,0,0,0,.222-1.159,1.052,1.052,0,0,0-1.045-.682c-.558.027-.7.146-.883.693-.07.211-.157.428-.417.439a.962.962,0,0,1-.84-.444.467.467,0,0,1,.022-.6c.222-.287.439-.585.682-.856.953-1.072,2.161-1.858,3.2-2.838.119-.114.184-.054.282.022.682.569,1.376,1.127,2.064,1.7a7.435,7.435,0,0,1,1.782,2.01.479.479,0,0,1-.076.65,1.215,1.215,0,0,1-.5.336c-.4.119-.6-.005-.6-.422a.544.544,0,0,0-.3-.531,1.327,1.327,0,0,0-.861-.152,1.1,1.1,0,0,0-.861.791.917.917,0,0,0,.244,1,1.458,1.458,0,0,0,1.435.433,3.413,3.413,0,0,0,2.118-1.511c.157-.227.238-.217.433-.06a8.236,8.236,0,0,0,2.167,1.354,2.964,2.964,0,0,0,2.134.125.936.936,0,0,0,.471-1.446,1.152,1.152,0,0,0-1.853-.043c-.065.081-.092.217-.255.152a3.893,3.893,0,0,1-1.815-1.17.882.882,0,0,1-.081-1.024c.168-.325.336-.385.661-.217a2.042,2.042,0,0,0,.677.227,1.11,1.11,0,0,0,1.262-1.013,1.122,1.122,0,0,0-1.137-1.116,1.748,1.748,0,0,0-1.647,1.354,4.116,4.116,0,0,1-.455,1.067c-.081.119-.135.146-.255.032q-1.877-1.747-3.765-3.488c-.157-.146-.125-.222.022-.347.433-.368.845-.769,1.289-1.121a23.912,23.912,0,0,1,11.061-4.664c.715-.125,1.435-.211,2.15-.32a1.289,1.289,0,0,0-.4-.081,23.377,23.377,0,0,0-4.263.244,20.756,20.756,0,0,0-10.682,4.853.286.286,0,0,1-.433.016c-.9-.682-1.836-1.311-2.795-1.907a22.067,22.067,0,0,0-12.458-3.207c-.081.022-.19.005-.265.119m18.931,11.592c.3-.1.336-.233.19-.46a7.259,7.259,0,0,0-1.527-1.652c-.59-.487-1.192-.959-1.782-1.446-.1-.087-.173-.108-.287-.011a35.85,35.85,0,0,0-2.779,2.432c-.227.255-.433.525-.65.8-.135.173.011.238.13.309s.19.022.211-.108c.1-.688.6-.883,1.192-.953a1.436,1.436,0,0,1,1.479.715,1.5,1.5,0,0,1-.634,2.248,2.524,2.524,0,0,1-2.535-.244,3.181,3.181,0,0,1-.975-.845c-.135-.184-.238-.206-.433-.06a7.531,7.531,0,0,1-2.356,1.295,3.517,3.517,0,0,1-1.722.141,1.385,1.385,0,0,1-1.165-1.154,1.553,1.553,0,0,1,.6-1.641,1.309,1.309,0,0,1,1.63-.081c.612.477,1.008.162,1.462-.157a1.684,1.684,0,0,0,.471-.487.352.352,0,0,0-.005-.39c-.092-.146-.2-.016-.3.011-.119.032-.238.081-.358.119a1.323,1.323,0,0,1-1.668-.558,1.53,1.53,0,0,1,.065-1.9,1.571,1.571,0,0,1,1.766-.455,2.353,2.353,0,0,1,1.582,1.663,1.4,1.4,0,0,0,.222.552c1.035-.959,2.058-1.917,3.087-2.865.19-.173.033-.249-.07-.347a19.056,19.056,0,0,0-4.16-2.86,26.7,26.7,0,0,0-8.423-2.573,55.5,55.5,0,0,0-6.072-.422c1.2-.249,2.383-.52,3.6-.655a23.529,23.529,0,0,1,9.755,1.024,22.632,22.632,0,0,1,5.855,2.985c.385.26.775.525,1.143.812a.331.331,0,0,0,.509-.016,20.877,20.877,0,0,1,7.984-4.133,22.827,22.827,0,0,1,10.595-.357c.552.108,1.11.211,1.668.314,0,.038-.005.081-.005.119-.834,0-1.674-.033-2.508.005a28.491,28.491,0,0,0-12.366,3.082,19.2,19.2,0,0,0-3.775,2.638c-.227.2-.206.292.011.487.9.807,1.777,1.641,2.66,2.465.1.092.2.184.347.309.1-.282.179-.531.265-.78a2.2,2.2,0,0,1,2.329-1.511,1.612,1.612,0,0,1,1.322,1.7,1.567,1.567,0,0,1-1.744,1.376,2.521,2.521,0,0,1-.661-.168c-.081-.032-.179-.162-.265-.027a.285.285,0,0,0,0,.325,1.99,1.99,0,0,0,.6.6c.114.076.233.141.352.211a.6.6,0,0,0,.813-.033,1.578,1.578,0,0,1,1.912.054,1.471,1.471,0,0,1,.5,1.685,1.655,1.655,0,0,1-1.647,1,4.821,4.821,0,0,1-3.028-1c-.265-.173-.52-.5-.785-.5-.217,0-.428.39-.655.585a3.246,3.246,0,0,1-2.188.91,1.9,1.9,0,0,1-1.544-.818,1.423,1.423,0,0,1,.011-1.668,1.482,1.482,0,0,1,1.506-.737,1.571,1.571,0,0,1,1.035.471.777.777,0,0,1,.217.645" transform="translate(-90.105 -18.618)" fill="#87c150"/>
    <path id="Path_6862" data-name="Path 6862" d="M45.506,59.973H36.092a1.752,1.752,0,0,1-1.961-1.961c-.005-2,.005-3.992-.011-5.991,0-.271.076-.341.341-.341.829.016.829.005.829.834v5.308a3.017,3.017,0,0,0,.016.444.538.538,0,0,0,.542.547c.065.005.135.011.206.011,2.167,0,4.339-.005,6.505.005.217,0,.3-.043.292-.276-.016-.834,0-1.668-.011-2.5-.005-.59-.249-.829-.84-.829-.877-.005-1.755-.011-2.638.005-.217.005-.3-.049-.292-.282.022-.422.005-.845.005-1.267A1.767,1.767,0,0,1,40.934,51.7c.672-.032,1.343-.005,2.02-.011.168,0,.206.065.211.222.054.948.054.948-.888.948-.433,0-.867-.016-1.3.005a.834.834,0,0,0-.747,1.127c.049.135.146.081.222.087.493.005.98.005,1.473.005a1.827,1.827,0,0,1,2.058,2.037c.011.812.011,1.62-.005,2.432-.005.217.049.292.282.292q2.584-.016,5.167,0c.276.005.314-.1.309-.336-.011-1.36.005-2.719-.011-4.073-.005-.255.049-.352.33-.347.818.016.818.005.818.818,0,1.208.005,2.421-.005,3.629,0,.233.054.32.3.309.444-.022.894-.022,1.338,0,.249.011.325-.054.325-.32-.016-1.37.005-2.741-.016-4.106-.005-.276.081-.336.341-.33.818.016.818.005.818.812,0,1.186.016,2.372-.011,3.559-.005.33.1.406.4.379.282-.027.569.005.856-.022a.662.662,0,0,0,.693-.758c.005-1.208.011-2.421-.005-3.629,0-.255.049-.357.33-.352.829.016.829.005.829.834v2.947a1.85,1.85,0,0,1-2.123,2.112c-3.136.005-6.289.005-9.441.005" transform="translate(-7.787 -18.161)" fill="#2a7372"/>
    <path id="Path_6863" data-name="Path 6863" d="M105.265,28.863c0-.525-.005-1.051.005-1.576,0-.157-.038-.227-.211-.222-.341.016-.682-.005-1.024.016-.433.022-.65.19-.677.617a16.744,16.744,0,0,0,.005,2.389.566.566,0,0,0,.585.552c.363.027.731.016,1.094.038.184.011.233-.07.227-.238-.011-.531-.005-1.051-.005-1.576M102.7,33.878a5.058,5.058,0,0,0,1.36-.146,1.535,1.535,0,0,0,1.2-1.647c-.005-.206-.054-.282-.271-.276A9.219,9.219,0,0,1,103.9,31.8a1.693,1.693,0,0,1-1.7-1.565,12.528,12.528,0,0,1-.016-2.627,1.747,1.747,0,0,1,1.88-1.685c.693-.011,1.392.011,2.085-.011.244-.005.276.081.276.292-.005,1.322-.005,2.649-.005,3.97,0,.487,0,.493.482.5,1.051.011,2.1.011,3.147.032.244.005.3-.076.3-.309-.011-1.381,0-2.762-.011-4.144,0-.233.054-.314.3-.309.823.005.823-.005.823.807,0,1.219.005,2.443-.005,3.662,0,.217.049.3.282.292.466-.016.937-.022,1.4,0,.249.011.3-.076.3-.309-.011-1.37,0-2.735-.011-4.106,0-.249.038-.357.325-.352.834.016.834,0,.834.84,0,1.186.011,2.372-.011,3.559-.005.314.092.385.385.368a11,11,0,0,1,1.267,0c.238.011.309-.06.3-.3-.011-1.36.005-2.714-.011-4.073-.005-.282.043-.4.363-.39.8.022.8.005.8.8,0,1.219.005,2.443-.005,3.662-.005.238.065.325.3.3.271-.027.547,0,.818-.038a.6.6,0,0,0,.6-.655c.016-.238.022-.477.022-.72.005-1.793.005-3.58-.005-5.373,0-.249.038-.357.33-.352.807.016.807.005.807.818v5.509a1.739,1.739,0,0,1-1.885,1.945c-3.835.016-7.67.011-11.5.005-.731,0-.731-.022-.791.71a2.473,2.473,0,0,1-2.465,2.335.611.611,0,0,1-.731-.314,4.157,4.157,0,0,0-.482-.688" transform="translate(-38.958 -5.273)" fill="#2a7372"/>
    <path id="Path_6864" data-name="Path 6864" d="M152.212,57.058c0-.515-.005-1.024.005-1.538.005-.211-.032-.32-.276-.3-.271.022-.547,0-.818.005-.58.011-.84.26-.845.834-.011.845.005,1.685-.005,2.53-.005.2.07.255.255.249.477-.011.959-.016,1.435,0,.227.005.265-.087.26-.282-.016-.5-.011-1-.011-1.5m-7.572,5.01c.217-.092.39-.173.569-.249a1.3,1.3,0,0,0,.807-1.175c.027-.466.027-.932.033-1.4q.008-2.413-.005-4.826c0-.244.049-.336.32-.33.829.011.829,0,.829.834,0,1.208.005,2.421-.005,3.629,0,.217.043.309.282.3.455-.016.915-.022,1.37,0,.244.011.276-.092.271-.3-.011-.823-.005-1.641-.005-2.465a1.832,1.832,0,0,1,2-2c.639,0,1.278.016,1.917-.005.276-.011.363.054.363.347-.016,1.36,0,2.714-.011,4.073-.005.26.06.357.336.347.91-.022,1.825-.005,2.735-.032.477-.016.634-.19.7-.672a2.876,2.876,0,0,0,.016-.374c0-1.917.005-3.835-.005-5.752,0-.249.054-.33.32-.325.829.011.829,0,.829.84v5.406a2.657,2.657,0,0,1-.108.877,1.663,1.663,0,0,1-1.549,1.148c-.33.032-.661.016-.991.016-2.692,0-5.384.005-8.076-.005-.309,0-.412.07-.39.39a2.561,2.561,0,0,1-1.506,2.611c-.168.087-.276.092-.4-.081-.2-.276-.417-.536-.645-.823" transform="translate(-58.443 -18.166)" fill="#297271"/>
    <path id="Path_6865" data-name="Path 6865" d="M41.971,31.846c-2.075,0-4.155-.005-6.229.005-.292.005-.357-.081-.352-.357.016-.785.005-.785.807-.785h2.362c.141,0,.271.022.265-.2-.027-.682.049-1.37-.043-2.047a1.341,1.341,0,0,0-1.349-1.327,5.9,5.9,0,0,0-.818-.027c-.173.005-.233-.043-.238-.227-.038-.942-.043-.942.894-.915a2.581,2.581,0,0,1,2.67,2.719c.011.6.011,1.186-.005,1.782-.005.195.054.255.255.255.466-.011.937-.022,1.4,0,.265.016.32-.076.32-.325-.011-2.145,0-4.29-.011-6.435-.005-.3.07-.385.374-.374.753.022.753.005.753.769,0,2.01.005,4.014-.005,6.023,0,.265.065.347.341.341.72-.022,1.441-.022,2.156,0,.3.011.352-.1.347-.368-.016-1.332.005-2.67-.011-4-.005-.282.043-.4.368-.39.78.022.78.005.78.785,0,1.186.016,2.372-.011,3.559-.011.368.108.45.439.417.249-.027.5.011.753-.011.558-.038.775-.265.78-.829.011-.807,0-1.62,0-2.432,0-1.186.005-2.372-.005-3.559-.005-.233.054-.309.3-.309.845.005.845-.005.845.85v5.444a1.76,1.76,0,0,1-1.961,1.972c-2.064.005-4.117,0-6.17,0" transform="translate(-8.369 -5.282)" fill="#297271"/>
    <path id="Path_6866" data-name="Path 6866" d="M116.31,59.037c0-.515-.005-1.029.005-1.538.005-.184-.038-.271-.244-.26-.309.016-.617-.005-.926.005-.482.011-.737.222-.753.7-.027.742-.022,1.484.005,2.221.016.45.255.645.71.661.32.011.639-.011.959.005.2.011.255-.054.249-.249-.011-.515-.005-1.029-.005-1.544m0,2.329c-.065.032-.1.032-.1.049-.4.829-1.089.617-1.733.455a1.557,1.557,0,0,1-1.224-1.441,13.9,13.9,0,0,1-.005-2.768,1.749,1.749,0,0,1,1.744-1.571c.753-.027,1.506.005,2.259-.011.265-.005.227.146.227.3,0,1.37.005,2.735-.005,4.106-.005.265.065.341.336.341,1.062-.011,2.118.005,3.18.011a3.4,3.4,0,0,0,.406-.022.652.652,0,0,0,.688-.753c.005-1.208.011-2.416-.005-3.624-.005-.292.081-.363.363-.357.8.016.8.005.8.791v3.18a1.743,1.743,0,0,1-1.8,1.9c-1.641.038-3.288.016-4.929.022-.173,0-.217-.06-.206-.222a2.934,2.934,0,0,0,.005-.39" transform="translate(-44.023 -20.178)" fill="#2a7372"/>
    <path id="Path_6867" data-name="Path 6867" d="M20.338,30.9V29.328c0-.125.027-.255-.179-.244-.352.016-.7-.011-1.062.016-.4.027-.617.2-.655.574a12.3,12.3,0,0,0,.005,2.486.548.548,0,0,0,.493.493,6.663,6.663,0,0,0,1.089.049c.233.016.32-.049.314-.3-.016-.5-.005-1.007-.005-1.506m-.07,2.345a.59.59,0,0,0-.119.146c-.195.455-.569.482-.986.45a1.849,1.849,0,0,1-1.917-2.064c-.005-.617-.011-1.23,0-1.847a1.85,1.85,0,0,1,1.917-2c.7-.027,1.414.005,2.123-.011.26-.005.233.146.233.309,0,1.36.005,2.714-.005,4.073-.005.3.049.422.385.4.5-.033,1-.005,1.506-.011.688-.005.915-.233.915-.932,0-1.154.011-2.307-.005-3.456-.005-.271.049-.374.352-.368.8.016.8.005.8.8,0,1.04.005,2.075,0,3.115a1.787,1.787,0,0,1-1.9,1.982c-.991.033-1.988.005-2.979.011-.179,0-.249-.06-.233-.238.011-.114,0-.227,0-.336a.287.287,0,0,1-.087-.022" transform="translate(-0.05 -7.271)" fill="#2a7372"/>
    <path id="Path_6868" data-name="Path 6868" d="M101.35,59.07c0-.515-.011-1.024.005-1.538.005-.211-.038-.314-.276-.3-.292.022-.59,0-.888.005-.509.011-.747.206-.769.715-.027.726-.027,1.457.005,2.183.016.466.222.645.693.672.33.022.661-.005.991.016.206.011.249-.07.244-.255-.011-.5-.005-1-.005-1.5M98.8,64.053a5.545,5.545,0,0,0,1.36-.157,1.52,1.52,0,0,0,1.2-1.582c.005-.244-.043-.352-.314-.336a7.177,7.177,0,0,1-1.024-.011,1.708,1.708,0,0,1-1.728-1.614,12.11,12.11,0,0,1,.011-2.73,1.7,1.7,0,0,1,1.728-1.533c.753-.022,1.506,0,2.259-.011.173-.005.238.043.233.227-.022,2.1.065,4.2-.043,6.294-.087,1.7-1.17,2.345-2.795,2.465a.21.21,0,0,1-.206-.092c-.206-.282-.423-.574-.677-.921" transform="translate(-37.166 -20.178)" fill="#2a7372"/>
    <path id="Path_6869" data-name="Path 6869" d="M94.448,30.911V29.3c0-.119.011-.227-.168-.222-.39.011-.78-.011-1.165.022a.577.577,0,0,0-.585.6,22.065,22.065,0,0,0-.005,2.394.564.564,0,0,0,.542.558,8.713,8.713,0,0,0,1.127.049c.2.011.255-.054.255-.249-.005-.52,0-1.029,0-1.544m1.143.3c0,1.062.054,2.123-.016,3.18a2.363,2.363,0,0,1-2.194,2.465c-.493.108-.883.1-1.116-.422-.081-.179-.276-.292-.314-.5.19-.016.379-.043.569-.054a2.867,2.867,0,0,0,1-.222,1.571,1.571,0,0,0,.937-1.636c-.016-.168-.1-.173-.228-.173-.374-.005-.753.005-1.127-.027a1.72,1.72,0,0,1-1.744-1.777,20.207,20.207,0,0,1,.005-2.291,1.773,1.773,0,0,1,1.874-1.809c.72-.032,1.435,0,2.156-.011.222-.005.233.1.233.271-.005,1-.005,2.01-.005,3.012h-.027" transform="translate(-34.007 -7.272)" fill="#2a7372"/>
    <path id="Path_6870" data-name="Path 6870" d="M181.093,30.888V29.317c0-.125.027-.249-.179-.238-.363.016-.731-.005-1.094.022-.406.032-.628.227-.639.623-.022.785-.016,1.571,0,2.356a.58.58,0,0,0,.563.58c.363.054.731.027,1.089.049.222.016.265-.076.26-.276-.005-.515,0-1.029,0-1.544m-2.546,5.01a5.3,5.3,0,0,0,1.387-.162,1.51,1.51,0,0,0,1.17-1.6c0-.233-.054-.314-.3-.309a4.992,4.992,0,0,1-1.392-.07,1.694,1.694,0,0,1-1.392-1.674c-.027-.742-.027-1.484-.011-2.221a1.807,1.807,0,0,1,1.928-1.934c.693-.022,1.392.005,2.085-.011.211-.005.238.081.238.26-.005,2.031.011,4.057-.011,6.088a2.478,2.478,0,0,1-2.362,2.611.74.74,0,0,1-.921-.39,4.97,4.97,0,0,0-.422-.59" transform="translate(-73.733 -7.271)" fill="#2a7372"/>
    <path id="Path_6871" data-name="Path 6871" d="M181.09,59.059c0-.536-.005-1.067.005-1.6.005-.162-.043-.222-.211-.211-.33.011-.661-.005-.991.005-.471.016-.7.222-.715.688-.022.742-.016,1.479,0,2.221a.583.583,0,0,0,.628.655c.352.027.7.005,1.056.022.184.011.233-.06.228-.233-.011-.52,0-1.029,0-1.544m-2.551,4.994a5.423,5.423,0,0,0,1.332-.152,1.522,1.522,0,0,0,1.219-1.63c0-.222-.054-.292-.282-.292a5.769,5.769,0,0,1-1.365-.06,1.691,1.691,0,0,1-1.435-1.636c-.032-.829-.038-1.668,0-2.5a1.745,1.745,0,0,1,1.766-1.7c.753-.022,1.506,0,2.259-.011.162,0,.211.043.211.211-.005,2.075.043,4.155-.022,6.224-.054,1.641-.959,2.41-2.79,2.546a.212.212,0,0,1-.211-.076c-.206-.292-.428-.59-.683-.932" transform="translate(-73.725 -20.178)" fill="#2a7372"/>
    <path id="Path_6872" data-name="Path 6872" d="M137.857,59.065c0-.536-.005-1.072,0-1.609.005-.157-.033-.227-.206-.222-.341.011-.682-.005-1.024.011a.626.626,0,0,0-.688.682c-.022.742-.022,1.479,0,2.221.011.444.206.628.661.661.33.022.661,0,.991.016.206.011.276-.043.271-.26-.016-.5-.005-1-.005-1.5m-2.551,4.989a5.312,5.312,0,0,0,1.322-.146,1.54,1.54,0,0,0,1.235-1.652c0-.206-.049-.271-.265-.271a5.763,5.763,0,0,1-1.4-.065,1.679,1.679,0,0,1-1.414-1.62c-.038-.84-.038-1.69,0-2.53a1.743,1.743,0,0,1,1.782-1.679c.742-.022,1.484,0,2.226-.005.173-.005.233.038.233.222-.005,2.042.038,4.084-.022,6.126-.049,1.657-.877,2.481-2.784,2.632a.222.222,0,0,1-.238-.087c-.206-.292-.428-.585-.677-.926" transform="translate(-53.914 -20.179)" fill="#2a7372"/>
    <path id="Path_6873" data-name="Path 6873" d="M75.955,30.425c0,1.132.043,2.183-.011,3.223a1.827,1.827,0,0,0,1.75,2.1,3.785,3.785,0,0,0,2.215-.206,1.629,1.629,0,0,0,1.067-1.63c-.011-1.869.005-3.737-.011-5.612-.005-.287.081-.357.363-.352.807.016.807.005.807.823,0,1.733-.016,3.467.005,5.2a2.552,2.552,0,0,1-1.592,2.557,4.865,4.865,0,0,1-4.2,0,2.517,2.517,0,0,1-1.565-2.5c.016-.867.005-1.733,0-2.6a.387.387,0,0,1,.206-.39c.314-.173.612-.379.97-.612" transform="translate(-26.423 -7.285)" fill="#2a7372"/>
    <path id="Path_6874" data-name="Path 6874" d="M18.734,58.561v2.427c0,.33-.005.661,0,.991a1.7,1.7,0,0,0,1.4,1.836,3.93,3.93,0,0,0,2.356-.054A1.638,1.638,0,0,0,23.75,62q.008-2.787-.005-5.579c0-.265.065-.347.336-.341.823.016.823.005.823.829,0,1.722-.033,3.445.011,5.167a2.558,2.558,0,0,1-1.674,2.632,4.775,4.775,0,0,1-4.285-.135,2.433,2.433,0,0,1-1.381-2.335c.016-.877.011-1.755-.005-2.632a.451.451,0,0,1,.255-.46c.292-.163.563-.357.91-.585" transform="translate(-0.202 -20.178)" fill="#2a7372"/>
    <path id="Path_6875" data-name="Path 6875" d="M79.715,54.117c.06-.011.087-.022.108-.022.363.005.791-.108,1.072.049.265.152.3.612.423.937.455,1.154.91,2.307,1.343,3.467a.368.368,0,0,0,.45.293c.125-.016.249-.011.374-.027a.608.608,0,0,0,.623-.672c.022-.547.011-1.094.016-1.641,0-1.495.005-2.99-.005-4.48-.005-.249.054-.33.32-.33.84.011.84-.005.84.856v5.406a1.784,1.784,0,0,1-2.01,2.031c-1.165,0-2.329-.011-3.494,0-.211,0-.265-.054-.265-.265-.005-.883-.016-.883.85-.883.287,0,.574-.016.856.005s.336-.049.227-.32c-.547-1.36-1.078-2.73-1.614-4.095-.038-.092-.065-.19-.114-.309" transform="translate(-28.591 -18.166)" fill="#2a7372"/>
    <path id="Path_6876" data-name="Path 6876" d="M151.522,30.639c0-.444-.011-.888.005-1.332.005-.179-.049-.238-.228-.227-.309.016-.617-.005-.921.011a.716.716,0,0,0-.775.769q-.032,1.04,0,2.08c.016.536.379.791,1.035.769.58-.016.877-.287.888-.807.005-.422-.005-.845-.005-1.262m1.165-.5c0,.6.005,1.186,0,1.777a1.782,1.782,0,0,1-1.712,1.9,2.444,2.444,0,0,1-1.852-.4,1.683,1.683,0,0,1-.672-1.295,21.335,21.335,0,0,1,.005-2.5,1.77,1.77,0,0,1,1.917-1.69c.682-.016,1.37.005,2.053-.011.211-.005.271.06.271.271-.016.65-.011,1.3-.011,1.95" transform="translate(-60.174 -7.271)" fill="#2a7372"/>
    <path id="Path_6877" data-name="Path 6877" d="M172.84,31.427c0,1,.011,2.01-.005,3.012a2.559,2.559,0,0,1-1.544,2.421.244.244,0,0,1-.368-.087c-.168-.233-.352-.45-.525-.672-.076-.1-.141-.179.054-.238a1.706,1.706,0,0,0,1.24-1.939c-.033-1.88-.005-3.765-.016-5.644,0-.265.076-.32.325-.32.834.011.834,0,.834.829v2.638Z" transform="translate(-70.214 -7.29)" fill="#2a7372"/>
    <path id="Path_6878" data-name="Path 6878" d="M160.92,31.621c-.027.926.065,2.064-.038,3.2a2.481,2.481,0,0,1-1.544,2.058.2.2,0,0,1-.292-.06c-.184-.244-.374-.487-.574-.726-.1-.125-.1-.184.07-.233a1.72,1.72,0,0,0,1.235-1.945c-.022-1.869,0-3.737-.016-5.606-.005-.287.081-.357.363-.352.791.016.791.005.791.78v2.882Z" transform="translate(-64.752 -7.289)" fill="#297271"/>
    <path id="Path_6879" data-name="Path 6879" d="M172.855,60.623V59.388c0-2.454.005-4.907-.005-7.356,0-.255.043-.357.33-.352.84.016.84,0,.84.829,0,2.383-.005,4.767.005,7.155a.448.448,0,0,1-.276.477c-.287.13-.558.3-.894.482" transform="translate(-71.373 -18.161)" fill="#2a7372"/>
    <path id="Path_6880" data-name="Path 6880" d="M93.165,60.611V60c0-2.654.005-5.314-.005-7.973,0-.287.076-.363.357-.352.812.016.812.005.812.818,0,2.383-.005,4.767.005,7.15a.441.441,0,0,1-.276.477c-.287.13-.552.3-.894.487" transform="translate(-34.848 -18.161)" fill="#2a7372"/>
    <path id="Path_6881" data-name="Path 6881" d="M139.205,32.463v-.357c0-2.735.005-5.476-.005-8.212,0-.265.06-.368.336-.336s.623-.114.785.06.049.52.049.791c.005,2.372,0,4.745.011,7.117a.425.425,0,0,1-.265.45c-.3.141-.574.309-.91.487" transform="translate(-55.95 -5.261)" fill="#297271"/>
    <path id="Path_6882" data-name="Path 6882" d="M65.575,27.995c0-1.37.005-2.735-.005-4.106,0-.233.054-.309.3-.309.845.005.845-.005.845.845,0,2.372-.005,4.745.005,7.117a.434.434,0,0,1-.282.471,5.753,5.753,0,0,0-.509.276c-.352.195-.352.195-.352-.195v-4.1Z" transform="translate(-22.202 -5.282)" fill="#297271"/>
    <path id="Path_6883" data-name="Path 6883" d="M166.075,28.016c0-1.37.005-2.735-.005-4.106,0-.238.038-.336.309-.33.856.011.856-.005.856.845,0,2.362-.005,4.723.005,7.08a.482.482,0,0,1-.314.525,5.14,5.14,0,0,0-.536.292c-.309.168-.314.168-.314-.2V28.016" transform="translate(-68.265 -5.282)" fill="#297271"/>
    <path id="Path_6884" data-name="Path 6884" d="M61.825,79.872c-.233.731-.471,1.462-.693,2.2-.065.222-.146.341-.417.336-.255-.005-.33-.119-.39-.325-.2-.666-.417-1.327-.623-1.988a.286.286,0,0,0-.13-.217V82.06c0,.168.043.347-.238.336-.255-.011-.227-.162-.227-.325,0-.9-.005-1.8.005-2.7,0-.13-.076-.352.179-.314.211.032.515-.184.628.211.211.731.45,1.457.672,2.188.032.108.07.217.108.347.13-.087.13-.217.168-.33.227-.715.471-1.43.661-2.156.114-.439.428-.238.661-.26.276-.027.173.217.173.347.011.9,0,1.8.011,2.7,0,.195-.043.287-.26.287-.238,0-.211-.141-.211-.292.005-.742,0-1.484,0-2.221a.16.16,0,0,1-.076-.005" transform="translate(-19.237 -30.694)" fill="#87c150"/>
    <path id="Path_6885" data-name="Path 6885" d="M19.854,79.908c-.233.737-.471,1.468-.688,2.21a.352.352,0,0,1-.406.3.335.335,0,0,1-.379-.287A21.385,21.385,0,0,0,17.6,79.9v2.221c0,.125.049.287-.179.292-.19.005-.292-.032-.292-.26.011-.948.011-1.9,0-2.838-.005-.2.076-.233.26-.255a.5.5,0,0,1,.639.444c.179.715.428,1.414.65,2.118.022.065.011.141.125.184.238-.764.477-1.527.71-2.3.152-.488.152-.471.661-.45.2.011.217.1.217.255-.005.948-.005,1.89.005,2.838,0,.2-.076.249-.26.255-.2.005-.217-.092-.217-.255.005-.753,0-1.5,0-2.253a.286.286,0,0,1-.065.005" transform="translate(0 -30.708)" fill="#87c150"/>
    <path id="Path_6886" data-name="Path 6886" d="M146.1,81.359c.005.276.07.471.309.563a.786.786,0,0,0,.747-.1c.119-.076.032-.157-.027-.222-.163-.19-.33-.379-.493-.569-.222-.255-.357-.228-.482.1a1.579,1.579,0,0,0-.054.222m.731-2.4a2.253,2.253,0,0,1,.5.065c.19.049.217.146.179.325-.049.222-.163.146-.3.108-.249-.07-.553-.179-.726.081-.163.244-.011.509.157.72.233.309.493.6.742.894.119.141.19.13.244-.054a1.269,1.269,0,0,0,.043-.471c-.022-.217.065-.287.271-.265.114.011.227-.011.341.005.1.011.265-.07.26.108-.005.135.027.357-.233.33-.195-.022-.217.092-.233.249a1.775,1.775,0,0,1-.1.4c-.1.3-.022.46.3.515.13.022.244-.005.222.195-.016.168-.081.244-.249.244a.564.564,0,0,1-.45-.125c-.179-.2-.32-.152-.52-.027a1.31,1.31,0,0,1-1.029.108.777.777,0,0,1-.645-.628.992.992,0,0,1,.325-1.078c.227-.168.195-.282.1-.487a.787.787,0,0,1,.8-1.208" transform="translate(-58.871 -30.665)" fill="#85c04e"/>
    <path id="Path_6887" data-name="Path 6887" d="M98.185,80.119c0,.677,0,.672.688.617a.438.438,0,0,0,.4-.26.726.726,0,0,0-.092-.8,1.091,1.091,0,0,0-.9-.152c-.206.135-.049.374-.1.558q0,.016,0,.033m-.52.617c0-.466.005-.937-.005-1.4-.005-.19.049-.265.249-.255.33.016.661-.005.991.005a.923.923,0,0,1,.91.6,1.133,1.133,0,0,1-.271,1.257c-.217.157-.2.276-.076.466a4.554,4.554,0,0,1,.352.661c.043.1.255.249.07.325-.152.065-.412.135-.542-.114a9.627,9.627,0,0,1-.455-.877c-.13-.3-.374-.222-.58-.195-.222.027-.1.238-.114.368a3.682,3.682,0,0,0-.005.547c.011.19-.005.32-.26.314s-.265-.13-.265-.325c.005-.455,0-.91,0-1.37" transform="translate(-36.91 -30.719)" fill="#85c04e"/>
    <path id="Path_6888" data-name="Path 6888" d="M153.745,80.727c0-.466.011-.937-.005-1.4-.005-.2.054-.255.249-.255s.292.043.282.265c-.016.3.005.6-.005.888-.005.168.043.249.228.244q.479-.016.959,0c.173.005.244-.054.238-.233-.011-.309.011-.617-.005-.921-.011-.211.1-.238.271-.238s.26.038.26.244q-.016,1.438,0,2.876c0,.184-.07.233-.238.227s-.3,0-.287-.227c.011-.33-.005-.661.005-.991.005-.2-.049-.292-.265-.276-.309.016-.617.011-.921,0-.179-.005-.244.054-.238.233.011.32-.005.639.005.959.011.211-.038.309-.276.309s-.255-.108-.249-.292c0-.471-.005-.937-.005-1.408" transform="translate(-62.614 -30.715)" fill="#85c04e"/>
    <path id="Path_6889" data-name="Path 6889" d="M181.988,81.8c0-.135.005-.271,0-.406,0-.076.005-.146-.092-.195a.73.73,0,0,0-1.072.558,2.547,2.547,0,0,0,.016.574.486.486,0,0,0,.5.455.539.539,0,0,0,.585-.412,1.716,1.716,0,0,0,.06-.574m-.033,1.17a1.06,1.06,0,0,1-.6.233.927.927,0,0,1-1.067-.829c-.168-.823.146-1.473.8-1.609a2.984,2.984,0,0,1,1.219.049c.152.033.157.135.157.255-.005.715.011,1.435-.016,2.15-.016.58-.244.807-.818.9a2.739,2.739,0,0,1-1.11-.081c-.217-.054-.222-.184-.184-.357.054-.233.195-.081.292-.054a2.061,2.061,0,0,0,.769.1c.5-.065.618-.227.552-.753" transform="translate(-74.763 -31.471)" fill="#87c150"/>
    <path id="Path_6890" data-name="Path 6890" d="M120.074,79.735c-.173.542-.314.975-.466,1.441h.731c.108,0,.184-.027.146-.157-.13-.4-.255-.791-.412-1.284m1.1,2.654c-.211.049-.292-.065-.347-.26-.163-.525-.173-.52-.7-.52a1.129,1.129,0,0,1-.135,0c-.39-.07-.623.065-.672.488-.011.1-.016.276-.184.292-.135.011-.3.043-.4-.022-.114-.081.016-.222.049-.336.3-.91.612-1.815.9-2.719.065-.2.152-.3.379-.292a.34.34,0,0,1,.379.287q.455,1.414.953,2.817c.081.238.011.3-.227.265" transform="translate(-46.552 -30.692)" fill="#87c150"/>
    <path id="Path_6891" data-name="Path 6891" d="M86.047,81.979c0-.547-.184-.812-.574-.8a.546.546,0,0,0-.58.39,1.541,1.541,0,0,0,.027,1.056c.016.032.076.049.114.07.569.282,1.013-.033,1.013-.715m-1.7.428c0-.455-.005-.91.005-1.365,0-.081-.049-.206.065-.238s.341-.076.379.027c.092.26.184.087.276.033a.928.928,0,0,1,1.425.585,1.936,1.936,0,0,1,.011.948,1,1,0,0,1-1.37.742c-.282-.087-.33-.011-.3.238.016.146-.005.3.005.444.016.195-.027.282-.255.287-.249.005-.238-.13-.238-.3v-1.4" transform="translate(-30.806 -31.468)" fill="#85c04e"/>
    <path id="Path_6892" data-name="Path 6892" d="M161.12,81.993c0-.07.005-.135,0-.206-.033-.466-.206-.65-.607-.655s-.58.157-.634.628a2,2,0,0,0,.005.477.567.567,0,0,0,.731.547c.357-.043.5-.271.5-.791m.531-.027a1.157,1.157,0,0,1-1.7,1.143,1.024,1.024,0,0,1-.612-.915,1.179,1.179,0,0,1,1.6-1.408c.488.152.71.515.71,1.181" transform="translate(-65.173 -31.466)" fill="#87c150"/>
    <path id="Path_6893" data-name="Path 6893" d="M49.841,81.967c0,.488.1.71.368.8a.613.613,0,0,0,.818-.33c.184-.52.033-1.148-.314-1.267a.546.546,0,0,0-.135-.027c-.52-.065-.737.173-.737.823m-.531.076c0-1,.509-1.435,1.419-1.295a.955.955,0,0,1,.84.78,2.114,2.114,0,0,1,.011.845,1.025,1.025,0,0,1-1.186.829.989.989,0,0,1-1.067-.894,1.942,1.942,0,0,1-.016-.265" transform="translate(-14.75 -31.473)" fill="#87c150"/>
    <path id="Path_6894" data-name="Path 6894" d="M111.7,82.046c-.39-.005-.6.135-.59.4.011.238.157.336.379.347a.518.518,0,0,0,.542-.531c0-.255-.179-.211-.33-.217m-.921-.764c-.027-.336.108-.471.4-.509a2.619,2.619,0,0,1,.682-.016.631.631,0,0,1,.628.607,8.288,8.288,0,0,1,.033,1.159c.005.141-.038.3.173.347.087.022.1.119.1.2-.011.1-.1.114-.179.119-.114.011-.287.049-.33-.005-.238-.3-.45-.081-.677-.011a.753.753,0,0,1-.986-.423.786.786,0,0,1,.628-1.035c.141-.032.3-.011.439-.032.114-.022.292.108.32-.13a.322.322,0,0,0-.292-.39,2.091,2.091,0,0,0-.932.119" transform="translate(-42.835 -31.482)" fill="#87c150"/>
    <path id="Path_6895" data-name="Path 6895" d="M131.3,81.988c-.444-.005-.634.119-.639.39s.163.352.39.357a.511.511,0,0,0,.509-.52c.016-.255-.146-.228-.26-.228m.747-.011v.515c0,.135-.027.282.173.314.108.016.1.114.1.19.005.108-.087.125-.162.141-.125.027-.292.07-.363-.016-.206-.255-.379-.1-.585-.022a.758.758,0,1,1-.428-1.43c.162-.038.341-.016.509-.038.092-.011.244.092.265-.1.016-.168-.011-.325-.206-.385a1.5,1.5,0,0,0-.742-.005c-.087.016-.233.135-.276-.049a.269.269,0,0,1,.146-.314,1,1,0,0,1,1.565.888c0,.108,0,.211,0,.314" transform="translate(-51.789 -31.423)" fill="#87c150"/>
    <path id="Path_6896" data-name="Path 6896" d="M90.328,82.05c-.433,0-.628.135-.623.406,0,.249.162.33.374.341a.511.511,0,0,0,.531-.5c.022-.271-.146-.255-.282-.249m-.942-.78c-.043-.3.076-.455.352-.482a3.432,3.432,0,0,1,.406-.038c.726-.011.942.206.942.926,0,.249-.005.5,0,.753.005.184-.054.379.217.466.1.032.157.238-.06.292-.119.027-.3.065-.363.005-.249-.265-.46-.087-.7-.005a.727.727,0,0,1-.98-.471.775.775,0,0,1,.639-.986c.157-.032.32-.011.477-.032.1-.016.265.1.287-.119a.313.313,0,0,0-.249-.385,1.894,1.894,0,0,0-.964.076" transform="translate(-33.018 -31.485)" fill="#87c150"/>
    <path id="Path_6897" data-name="Path 6897" d="M175.506,81.965c0-.3-.005-.59.005-.888,0-.092-.054-.233.081-.265s.341-.1.406.049c.081.184.146.1.249.054a2.116,2.116,0,0,1,.347-.141c.6-.173.937.065.959.682.016.352.005.7.005,1.062,0,.141-.043.3.173.341.1.016.1.114.092.195-.005.108-.1.114-.173.135-.368.1-.59-.076-.59-.46,0-.341.011-.682-.005-1.024-.011-.222.049-.515-.33-.509a.662.662,0,0,0-.7.574c-.005.374-.011.753.005,1.127.005.2-.049.287-.265.287s-.26-.108-.255-.3c.011-.309,0-.617,0-.921" transform="translate(-72.588 -31.471)" fill="#87c150"/>
    <path id="Path_6898" data-name="Path 6898" d="M71.088,81.98c0-.309-.005-.617.005-.926,0-.092-.049-.238.1-.249s.33-.1.4.07.135.087.222.049a2.382,2.382,0,0,1,.406-.168c.585-.146.9.1.915.7.005.309-.005.617.005.926.005.184-.092.417.217.493a.151.151,0,0,1,0,.255.593.593,0,0,1-.5.027.3.3,0,0,1-.211-.32c0-.412.005-.818,0-1.23s-.162-.509-.542-.385c-.417.13-.493.244-.493.688,0,.341-.005.682.005,1.029.005.184-.076.238-.244.233s-.287-.022-.276-.238c.005-.32-.005-.639-.005-.959" transform="translate(-24.73 -31.469)" fill="#87c150"/>
    <path id="Path_6899" data-name="Path 6899" d="M26.437,81.967c0-.309-.005-.617.005-.926,0-.087-.054-.233.1-.238.125-.005.314-.087.363.07.07.222.157.087.244.054.114-.049.227-.108.347-.146.59-.179.942.054.98.661.022.3,0,.6.011.888.011.206-.092.45.211.574.1.043.108.217-.076.276a.45.45,0,0,1-.65-.444c-.011-.412-.005-.823-.011-1.23,0-.255-.13-.336-.374-.309a.651.651,0,0,0-.661.726c0,.341-.011.682.005,1.029.005.19-.076.233-.244.227s-.26-.016-.249-.217c.005-.336-.005-.666-.005-1" transform="translate(-4.264 -31.472)" fill="#85c04e"/>
    <path id="Path_6900" data-name="Path 6900" d="M43.082,80.888c.379-.13.569,0,.666.357.108.39.271.769.439,1.24.162-.515.314-.942.422-1.381.06-.238.19-.265.39-.26.179.005.217.065.157.228-.3.834-.574,1.679-.888,2.513a.861.861,0,0,1-1.116.585c-.146-.043-.184-.108-.152-.238.027-.114.054-.2.217-.2.623.005.829-.314.6-.91-.238-.645-.487-1.289-.737-1.934" transform="translate(-11.853 -31.526)" fill="#87c150"/>
    <path id="Path_6901" data-name="Path 6901" d="M164.594,81.853c0-.249.011-.5-.005-.753-.011-.184.043-.265.244-.26s.26.049.255.249c-.011.423-.005.84-.005,1.262,0,.206-.027.433.282.444.325.016.688-.217.693-.46.011-.406.016-.818,0-1.23-.011-.217.076-.265.276-.265s.244.087.244.265c-.011.455-.005.91,0,1.365.005.179-.076.379.211.466.108.032.13.222-.043.282s-.412.108-.515-.049c-.179-.271-.325-.119-.5-.033a1.007,1.007,0,0,1-.791.065.479.479,0,0,1-.336-.5c-.016-.287-.005-.569-.005-.856h-.005Z" transform="translate(-67.586 -31.526)" fill="#87c150"/>
    <path id="Path_6902" data-name="Path 6902" d="M104.822,81.831c0,.227-.005.455,0,.682.005.162-.043.352.211.4.087.016.087.13.087.206s-.081.1-.146.114c-.157.033-.357.087-.455-.043-.195-.249-.352-.125-.558-.033-.677.3-1.1.011-1.11-.731,0-.423.005-.84,0-1.262,0-.184-.011-.325.26-.32s.238.168.244.336c.005.433.016.867.011,1.3-.005.287.141.352.39.314.422-.065.59-.249.59-.666,0-.341.011-.682-.005-1.024-.011-.2.07-.249.255-.249s.238.065.233.238c-.011.244-.005.493-.005.742" transform="translate(-39.289 -31.526)" fill="#87c150"/>
    <path id="Path_6903" data-name="Path 6903" d="M68.243,81.881c0,.206-.005.412,0,.617.005.168-.065.357.206.433.114.033.13.222-.038.287s-.4.1-.515-.049c-.162-.2-.287-.168-.466-.049a.869.869,0,0,1-.52.13c-.439-.011-.634-.179-.65-.623-.022-.525,0-1.051-.011-1.576-.005-.2.092-.217.249-.217s.255.027.249.222c-.011.423-.005.845,0,1.262.005.211-.033.46.3.466s.7-.233.7-.5c.005-.4.011-.8,0-1.2-.005-.19.049-.26.249-.26s.26.065.249.255c-.016.271-.005.531-.005.8" transform="translate(-22.514 -31.522)" fill="#85c04e"/>
    <path id="Path_6904" data-name="Path 6904" d="M127.454,81.269v-.65c.005-.173.032-.357-.244-.336-.065.005-.119-.027-.1-.1.027-.1-.011-.271.125-.287.238-.027.217-.179.222-.341.022-.655.341-.894.98-.758.168.038.195.108.162.26s-.065.222-.238.179-.379-.06-.39.222c-.011.233-.049.477.325.417.157-.027.19.065.19.2s-.043.227-.2.2c-.3-.054-.33.114-.32.357.016.466-.005.932.011,1.4.005.217-.1.233-.271.233s-.26-.033-.249-.227c.005-.244-.005-.5-.005-.769" transform="translate(-50.406 -30.574)" fill="#87c150"/>
    <path id="Path_6905" data-name="Path 6905" d="M80.011,70.6c-.282-.823.119-1.522,1.208-1.4.19.022.135.152.135.249s.06.244-.135.244a2.023,2.023,0,0,0-.406.022.434.434,0,0,0,.033.861,3.723,3.723,0,0,0,.65.011c.206-.011.211.1.211.255s-.005.26-.211.255q-.837-.016-1.674,0c-.19.005-.287-.022-.282-.255,0-.217.076-.287.276-.255a.52.52,0,0,0,.195.011" transform="translate(-28.605 -26.184)" fill="#2a7372"/>
    <path id="Path_6906" data-name="Path 6906" d="M170,83.222c-.157-.022-.314-.054-.471-.065-.19-.016-.255-.087-.206-.287s.141-.195.292-.135a1.185,1.185,0,0,0,.672.043.3.3,0,0,0,.265-.271c.011-.152-.087-.228-.206-.282-.227-.1-.46-.2-.682-.314a.556.556,0,0,1-.3-.6.564.564,0,0,1,.406-.5,1.771,1.771,0,0,1,1.007-.027c.2.043.184.163.152.309-.038.179-.157.125-.265.087a1.212,1.212,0,0,0-.574-.033.244.244,0,0,0-.228.179c-.027.119.07.184.168.227.157.07.314.135.471.206.433.19.623.455.569.791a.823.823,0,0,1-.791.639,2.26,2.26,0,0,1-.271,0c0,.011-.005.016-.005.027" transform="translate(-69.751 -31.476)" fill="#87c150"/>
    <path id="Path_6907" data-name="Path 6907" d="M140.587,83.22c-.108-.016-.265-.043-.422-.054-.211-.016-.228-.125-.2-.3.043-.217.173-.157.3-.114a1.185,1.185,0,0,0,.672.033.3.3,0,0,0,.249-.249c.022-.152-.076-.233-.195-.287-.206-.1-.423-.173-.623-.276a.6.6,0,0,1-.385-.623.621.621,0,0,1,.525-.547,1.921,1.921,0,0,1,.877.005c.168.038.227.114.179.287s-.146.163-.276.114a1.1,1.1,0,0,0-.607-.022.207.207,0,0,0-.184.179.192.192,0,0,0,.135.211c.168.076.336.141.5.211.428.184.607.45.552.8a.813.813,0,0,1-.758.628c-.092.005-.2.005-.352.011" transform="translate(-56.296 -31.486)" fill="#87c150"/>
    <path id="Path_6908" data-name="Path 6908" d="M33.989,83.219a3.554,3.554,0,0,1-.385-.049c-.114-.033-.32.033-.255-.238.054-.233.162-.238.341-.179a1.159,1.159,0,0,0,.607.038.336.336,0,0,0,.3-.249c.033-.168-.092-.244-.217-.3-.217-.1-.444-.184-.65-.3a.56.56,0,0,1-.336-.585.6.6,0,0,1,.46-.536A1.8,1.8,0,0,1,34.8,80.8c.168.038.222.1.179.287-.043.2-.152.157-.271.114a1.147,1.147,0,0,0-.542-.033c-.119.016-.227.054-.244.195-.016.119.07.184.173.228.157.07.314.13.471.2.439.2.59.428.542.8a.791.791,0,0,1-.737.612c-.13.011-.244.005-.379.011" transform="translate(-7.429 -31.485)" fill="#87c150"/>
    <path id="Path_6909" data-name="Path 6909" d="M37.41,81.465V80.95c-.005-.173.06-.39-.249-.363-.087.011-.114-.065-.1-.141.016-.1.005-.244.13-.249.287-.011.206-.206.217-.363.011-.13-.038-.26.146-.336.325-.125.363-.114.368.233.005.228-.07.509.33.455.152-.022.146.1.146.211.005.125-.038.211-.173.19-.32-.049-.314.146-.309.368.011.309.005.617,0,.921-.005.206.06.352.292.292.162-.043.19.027.217.163.033.157-.033.195-.162.227-.585.163-.856-.033-.861-.628.011-.152.011-.309.011-.466" transform="translate(-9.133 -30.879)" fill="#87c150"/>
    <path id="Path_6910" data-name="Path 6910" d="M54.465,81.3v-.65c0-.163.049-.363-.233-.336-.081.011-.125-.049-.114-.13.011-.1-.011-.249.125-.244.26.005.222-.157.222-.314.011-.672.238-.872.915-.78.119.016.276.005.233.2-.033.135-.027.3-.265.222-.211-.065-.379-.005-.39.276-.011.233-.016.444.32.385.13-.022.211.022.211.184s-.081.227-.227.206c-.287-.043-.314.114-.3.341.011.455-.005.91.005,1.365.005.2-.027.287-.255.293-.244,0-.244-.13-.238-.3,0-.238-.005-.477-.005-.715" transform="translate(-16.953 -30.601)" fill="#85c04e"/>
    <path id="Path_6911" data-name="Path 6911" d="M124.482,81.283v-.617c-.005-.173.054-.385-.249-.368-.081.005-.119-.06-.1-.141s-.011-.238.135-.238c.265.005.211-.179.211-.325.011-.661.238-.856.894-.769.125.016.255.022.228.211-.022.168-.07.249-.26.211-.119-.027-.265-.049-.336.092a.732.732,0,0,0-.016.5c.033.125.179.065.271.065.146,0,.2.049.2.2s-.054.222-.2.2c-.293-.049-.3.125-.3.341.011.433.005.867.005,1.3,0,.173.06.363-.249.357s-.227-.211-.238-.374c-.005-.217,0-.433,0-.65" transform="translate(-49.042 -30.594)" fill="#85c04d"/>
    <path id="Path_6912" data-name="Path 6912" d="M104.587,23.291a1.025,1.025,0,0,1,.114-1.072,1.268,1.268,0,0,1,1.137-.287c.146.07.06.2.076.3s-.032.173-.152.168a1.959,1.959,0,0,0-.309.005.445.445,0,0,0-.022.888,3.255,3.255,0,0,0,.65.005c.227-.016.184.13.19.26.011.146-.011.227-.195.222-.569-.011-1.137-.011-1.712,0-.179.005-.265-.027-.265-.238.005-.19.049-.276.249-.249a1.206,1.206,0,0,0,.238-.005" transform="translate(-39.862 -4.506)" fill="#2a7372"/>
    <path id="Path_6913" data-name="Path 6913" d="M79.171,80.746a1.571,1.571,0,0,1,.5.065c.206.043.157.179.13.32-.038.184-.146.119-.249.087a.754.754,0,0,0-.883.157,1.018,1.018,0,0,0-.114,1.007c.114.336.46.471.921.4.1-.016.26-.146.3.054.033.168-.043.287-.244.336a1.185,1.185,0,0,1-1.408-.482,1.429,1.429,0,0,1,.206-1.647,1.013,1.013,0,0,1,.84-.292" transform="translate(-27.878 -31.481)" fill="#87c150"/>
    <path id="Path_6914" data-name="Path 6914" d="M93.865,80.6c0-.422.005-.84-.005-1.262-.005-.184.016-.292.249-.292s.271.108.271.309c-.011.785-.005,1.571,0,2.356,0,.152-.054.33.184.374.092.016.1.119.092.2,0,.108-.092.114-.168.135a.445.445,0,0,1-.623-.45c-.005-.46,0-.915,0-1.37" transform="translate(-35.168 -30.706)" fill="#87c150"/>
    <path id="Path_6915" data-name="Path 6915" d="M107.65,82.011v-.888c0-.314.184-.471.428-.3.157.1.206.049.314-.016a.556.556,0,0,1,.585.038c.119.07.027.184.027.276-.005.146-.081.141-.206.119-.466-.065-.623.081-.623.547-.005.374-.011.753.005,1.127.011.211-.065.276-.271.271s-.26-.07-.249-.26c0-.3-.011-.607-.011-.91" transform="translate(-41.489 -31.478)" fill="#87c150"/>
    <path id="Path_6916" data-name="Path 6916" d="M115.315,80.651c0-.444.005-.888-.005-1.332-.005-.179.054-.238.233-.238s.265.027.265.238c-.011.8-.005,1.6-.005,2.394,0,.157-.065.357.195.4.081.011.07.108.076.173.005.108-.076.125-.152.152a.427.427,0,0,1-.607-.45c0-.45,0-.894,0-1.338" transform="translate(-45 -30.72)" fill="#85c04d"/>
    <path id="Path_6917" data-name="Path 6917" d="M121.881,24.209a.7.7,0,0,1-.731-.693.708.708,0,0,1,.7-.726.734.734,0,0,1,.72.72.7.7,0,0,1-.693.7" transform="translate(-47.677 -4.92)" fill="#2a7372"/>
    <path id="Path_6918" data-name="Path 6918" d="M155.354,51.639a.716.716,0,0,1-.666.726.734.734,0,0,1-.747-.726.711.711,0,0,1,.731-.7.687.687,0,0,1,.682.7" transform="translate(-62.706 -17.822)" fill="#2a7372"/>
    <path id="Path_6919" data-name="Path 6919" d="M125.119,24.213a.672.672,0,0,1-.7-.715.693.693,0,0,1,.726-.7.732.732,0,0,1,.7.71.718.718,0,0,1-.726.7" transform="translate(-49.175 -4.924)" fill="#2a7372"/>
    <path id="Path_6920" data-name="Path 6920" d="M118.2,52.365a.712.712,0,1,1,.027-1.425.714.714,0,0,1,.688.7.741.741,0,0,1-.715.72" transform="translate(-46.004 -17.822)" fill="#2a7372"/>
    <path id="Path_6921" data-name="Path 6921" d="M24.593,51.676a.714.714,0,0,1-.742.688.714.714,0,1,1,.092-1.425.7.7,0,0,1,.65.737" transform="translate(-2.772 -17.821)" fill="#2a7372"/>
    <path id="Path_6922" data-name="Path 6922" d="M150.9,23.5a.7.7,0,0,1-.71.715.707.707,0,1,1,.022-1.414.7.7,0,0,1,.688.7" transform="translate(-60.657 -4.924)" fill="#2a7372"/>
    <path id="Path_6923" data-name="Path 6923" d="M157.15,51.66a.7.7,0,0,1,.7-.72.711.711,0,0,1,.715.677.727.727,0,0,1-.688.747.718.718,0,0,1-.726-.7" transform="translate(-64.177 -17.822)" fill="#2a7372"/>
    <path id="Path_6924" data-name="Path 6924" d="M114.29,51.644a.713.713,0,0,1,.72-.7.7.7,0,0,1,.693.693.715.715,0,0,1-.7.731.73.73,0,0,1-.715-.72" transform="translate(-44.532 -17.822)" fill="#2a7372"/>
    <path id="Path_6925" data-name="Path 6925" d="M55.882,42.659a.7.7,0,1,1-1.392.027.694.694,0,0,1,.7-.726.722.722,0,0,1,.693.7" transform="translate(-17.124 -13.706)" fill="#2a7372"/>
    <path id="Path_6926" data-name="Path 6926" d="M31.482,42.69a.7.7,0,1,1-1.392-.022.7.7,0,0,1,.726-.7.714.714,0,0,1,.666.72" transform="translate(-5.94 -13.71)" fill="#2a7372"/>
    <path id="Path_6927" data-name="Path 6927" d="M27.544,41.97a.724.724,0,0,1,.688.715.714.714,0,0,1-.726.7.679.679,0,0,1-.677-.737.707.707,0,0,1,.715-.682" transform="translate(-4.446 -13.711)" fill="#2a7372"/>
    <path id="Path_6928" data-name="Path 6928" d="M173.346,22.84a.7.7,0,1,1-.027,1.392.7.7,0,1,1,.027-1.392" transform="translate(-71.267 -4.943)" fill="#2a7372"/>
    <path id="Path_6929" data-name="Path 6929" d="M22.235,24.214a.707.707,0,1,1,.688-.737.7.7,0,0,1-.688.737" transform="translate(-2.012 -4.924)" fill="#2a7372"/>
    <path id="Path_6930" data-name="Path 6930" d="M153.423,24.213a.7.7,0,0,1-.693-.726.707.707,0,0,1,.737-.688.707.707,0,0,1-.043,1.414" transform="translate(-62.151 -4.924)" fill="#2a7372"/>
    <path id="Path_6931" data-name="Path 6931" d="M19.7,23.488a.685.685,0,0,1-.688.726.707.707,0,1,1,0-1.414.682.682,0,0,1,.688.688" transform="translate(-0.532 -4.925)" fill="#2a7372"/>
    <path id="Path_6932" data-name="Path 6932" d="M130.823,70.839a.68.68,0,0,1-.682.7.7.7,0,0,1-.72-.7.692.692,0,0,1,.726-.693.676.676,0,0,1,.677.7" transform="translate(-51.467 -26.622)" fill="#2a7372"/>
    <path id="Path_6933" data-name="Path 6933" d="M80.41,23.52a.706.706,0,0,1,.7-.72.71.71,0,0,1,.022,1.419.7.7,0,0,1-.726-.7" transform="translate(-29.004 -4.924)" fill="#2a7372"/>
    <path id="Path_6934" data-name="Path 6934" d="M126.9,70.13a.675.675,0,0,1,.677.731.69.69,0,0,1-.71.672.7.7,0,0,1,.033-1.4" transform="translate(-49.986 -26.618)" fill="#2a7372"/>
    <path id="Path_6935" data-name="Path 6935" d="M136.94,81.969v-.85c0-.309.152-.444.4-.292.168.1.222.038.33-.027a.559.559,0,0,1,.552.033c.13.065.054.173.043.271-.022.152-.087.157-.227.135-.428-.07-.607.092-.607.536-.005.385-.011.775.005,1.159.005.2-.065.249-.255.255-.206.005-.249-.081-.238-.265,0-.314-.005-.634-.005-.953" transform="translate(-54.914 -31.48)" fill="#85c04d"/>
    <path id="Path_6936" data-name="Path 6936" d="M40.346,81.993c0-.309-.005-.612.005-.921.005-.092-.06-.227.081-.255.125-.022.314-.081.379.043.081.162.119.07.179.011a.49.49,0,0,1,.536-.087.218.218,0,0,1,.173.3c-.038.162-.1.173-.26.146-.4-.065-.6.119-.6.52s-.011.8.005,1.192c.011.211-.092.238-.265.238s-.233-.065-.227-.238c.005-.314-.005-.634-.005-.953" transform="translate(-10.639 -31.483)" fill="#85c04d"/>
    <path id="Path_6937" data-name="Path 6937" d="M76.53,81.86c0,.206-.005.406,0,.612.005.173-.065.374.2.439.07.016.092.13.076.211s-.092.092-.157.108a.445.445,0,0,1-.634-.466c-.005-.558.005-1.11-.005-1.668-.005-.211.065-.271.271-.276.228-.005.26.1.255.292-.016.249-.005.5-.005.747" transform="translate(-26.987 -31.517)" fill="#87c150"/>
    <path id="Path_6938" data-name="Path 6938" d="M134.825,81.946c0-.3.011-.59-.005-.888-.011-.222.114-.227.276-.227s.249.033.244.222c-.011.433-.011.867,0,1.295.005.217-.1.471.217.6.1.043.1.217-.081.276a.452.452,0,0,1-.655-.466c.005-.265.005-.542.005-.812" transform="translate(-53.942 -31.522)" fill="#87c150"/>
    <path id="Path_6939" data-name="Path 6939" d="M82.235,81.946c0-.3.011-.59-.005-.888-.011-.222.114-.227.276-.227s.249.033.244.227c-.011.433-.011.861,0,1.295.005.217-.1.482.222.6a.149.149,0,0,1-.016.255.464.464,0,0,1-.715-.336c-.016-.309-.005-.617-.005-.921" transform="translate(-29.838 -31.522)" fill="#87c150"/>
    <path id="Path_6940" data-name="Path 6940" d="M24.335,81.951c0-.3.011-.59-.005-.883-.011-.217.1-.238.271-.238.19-.005.26.054.255.249-.011.5-.005,1-.005,1.5,0,.13-.038.276.162.32.1.022.119.135.1.227s-.114.1-.19.114c-.385.081-.59-.081-.6-.471,0-.271.005-.547.005-.818" transform="translate(-3.3 -31.522)" fill="#87c150"/>
    <path id="Path_6941" data-name="Path 6941" d="M122.88,20.719a.621.621,0,0,1,.612-.639.652.652,0,0,1,.634.628.625.625,0,0,1-.607.612.6.6,0,0,1-.639-.6" transform="translate(-48.47 -3.678)" fill="#2a7372"/>
    <path id="Path_6942" data-name="Path 6942" d="M173.455,81.961c0-.249-.005-.5.005-.753.005-.163-.081-.363.233-.368s.249.179.249.352v1.4c0,.13-.033.282.168.32.1.016.1.108.1.19,0,.108-.092.119-.168.135-.368.1-.59-.07-.6-.455,0-.276.005-.547.005-.823" transform="translate(-71.648 -31.527)" fill="#85c04d"/>
    <path id="Path_6943" data-name="Path 6943" d="M31.364,81.96c0-.287.011-.569-.005-.856-.011-.19.043-.26.244-.255s.26.06.255.255c-.011.412-.016.818,0,1.23.011.222-.13.509.227.628.065.022.087.179-.033.255a.451.451,0,0,1-.688-.33c-.005-.314,0-.623,0-.926" transform="translate(-6.521 -31.531)" fill="#85c04d"/>
    <path id="Path_6944" data-name="Path 6944" d="M82.476,79.477c-.2-.022-.33-.108-.336-.3a.287.287,0,0,1,.314-.32.275.275,0,0,1,.3.3.3.3,0,0,1-.276.314" transform="translate(-29.797 -30.619)" fill="#87c150"/>
    <path id="Path_6945" data-name="Path 6945" d="M31.569,79.472c-.179-.022-.309-.1-.309-.292a.282.282,0,0,1,.314-.32.271.271,0,0,1,.292.3.293.293,0,0,1-.3.309" transform="translate(-6.476 -30.619)" fill="#87c150"/>
    <path id="Path_6946" data-name="Path 6946" d="M173.941,79.163c-.038.179-.119.309-.314.3a.281.281,0,0,1-.3-.33.277.277,0,0,1,.32-.276c.2,0,.265.141.293.3" transform="translate(-71.592 -30.619)" fill="#87c150"/>
    <path id="Path_6947" data-name="Path 6947" d="M76.516,79.147a.29.29,0,0,1-.287.325.281.281,0,0,1-.32-.282.291.291,0,0,1,.309-.33.268.268,0,0,1,.3.287" transform="translate(-26.941 -30.619)" fill="#87c150"/>
    <path id="Path_6948" data-name="Path 6948" d="M135.331,79.131c-.005.195-.092.32-.282.325a.3.3,0,1,1-.033-.607.288.288,0,0,1,.314.282" transform="translate(-53.9 -30.614)" fill="#85c04e"/>
    <path id="Path_6949" data-name="Path 6949" d="M24.554,79.467c-.179-.022-.309-.108-.314-.3a.29.29,0,0,1,.287-.32.269.269,0,0,1,.309.287.3.3,0,0,1-.282.33" transform="translate(-3.259 -30.614)" fill="#85c04e"/>
    <path id="Path_6950" data-name="Path 6950" d="M268.183,23.81c.011.027.016.049.027.076l-.07-.032a.325.325,0,0,0,.043-.043" transform="translate(-115.048 -5.388)" fill="#85c04d"/>
  </g>
</svg>
