<svg xmlns="http://www.w3.org/2000/svg" xmlns:xlink="http://www.w3.org/1999/xlink" width="115.12" height="37.657" viewBox="0 0 115.12 37.657">
  <defs>
    <clipPath id="clip-path">
      <path id="Path_6241" data-name="Path 6241" d="M54.673,42.9l-5.19-3L39.472,34.122c-.556-.32-1.112-.126-1.112.545V58.221c0,.5.4.72.88.45l10.243-5.915,5.19-3,4.988-2.89c.585-.338.529-.8.036-1.067S54.673,42.9,54.673,42.9Z" transform="translate(-38.36 -33.972)" fill="none"/>
    </clipPath>
    <linearGradient id="linear-gradient" x1="0.5" x2="0.5" y2="1" gradientUnits="objectBoundingBox">
      <stop offset="0" stop-color="#257cb0"/>
      <stop offset="0.21" stop-color="#3c8fb3"/>
      <stop offset="0.74" stop-color="#73bdba"/>
      <stop offset="1" stop-color="#89cfbd"/>
    </linearGradient>
    <linearGradient id="linear-gradient-2" y1="0.5" x2="1" y2="0.5" gradientUnits="objectBoundingBox">
      <stop offset="0" stop-color="#52c1ad"/>
      <stop offset="1" stop-color="#dee89a"/>
    </linearGradient>
    <linearGradient id="linear-gradient-3" x1="0.5" x2="0.5" y2="1" gradientUnits="objectBoundingBox">
      <stop offset="0" stop-color="#ec413d"/>
      <stop offset="0.19" stop-color="#d74352"/>
      <stop offset="0.74" stop-color="#a04888"/>
      <stop offset="1" stop-color="#8a4a9d"/>
    </linearGradient>
    <linearGradient id="linear-gradient-4" x1="0.5" x2="0.5" y2="1" gradientUnits="objectBoundingBox">
      <stop offset="0" stop-color="#f58879"/>
      <stop offset="0.62" stop-color="#fbb276"/>
      <stop offset="1" stop-color="#fec874"/>
    </linearGradient>
  </defs>
  <g id="footer-01" transform="translate(0)">
    <path id="Path_6236" data-name="Path 6236" d="M115.12,32.568a5.089,5.089,0,0,1-5.089,5.089H5.089A5.089,5.089,0,0,1,0,32.568V5.089A5.089,5.089,0,0,1,5.089,0H110.031a5.089,5.089,0,0,1,5.089,5.089Z" transform="translate(0)"/>
    <g id="PLAY" transform="translate(8.634 7.646)">
      <g id="Group_9487" data-name="Group 9487" clip-path="url(#clip-path)">
        <path id="Path_6237" data-name="Path 6237" d="M38.37,32.21v25.5L51.228,44.96Z" transform="translate(-38.368 -32.607)" fill="url(#linear-gradient)"/>
        <path id="Path_6238" data-name="Path 6238" d="M54.681,41.219l-5.19-3L38.37,31.8v.092l12.858,12.75Z" transform="translate(-38.368 -32.289)" fill="url(#linear-gradient-2)"/>
        <path id="Path_6239" data-name="Path 6239" d="M38.37,101.61v.095l11.121-6.424,5.19-3L51.228,88.86Z" transform="translate(-38.368 -76.506)" fill="url(#linear-gradient-3)"/>
        <path id="Path_6240" data-name="Path 6240" d="M98.953,73.65,95.5,77.073,98.953,80.5l5.933-3.426Z" transform="translate(-82.639 -64.72)" fill="url(#linear-gradient-4)"/>
      </g>
    </g>
    <path id="Path_6242" data-name="Path 6242" d="M386.173,84.542a3.176,3.176,0,0,1-1.323-.268,2.489,2.489,0,0,1-1-.822h-.083a9.59,9.59,0,0,1,.083,1.231v3.054H382.72V76.993h.9l.158,1.015h.054a2.582,2.582,0,0,1,1.008-.88,3.061,3.061,0,0,1,1.319-.27,2.741,2.741,0,0,1,2.278,1.008,5.373,5.373,0,0,1-.014,5.667A2.753,2.753,0,0,1,386.173,84.542Zm-.162-6.732a2,2,0,0,0-1.645.628,3.246,3.246,0,0,0-.52,2v.252a3.688,3.688,0,0,0,.52,2.237,1.976,1.976,0,0,0,1.672.675,1.742,1.742,0,0,0,1.506-.776,3.7,3.7,0,0,0,.545-2.147,3.555,3.555,0,0,0-.545-2.127,1.8,1.8,0,0,0-1.533-.743Z" transform="translate(-296.581 -59.559)" fill="#f9f9f9"/>
    <path id="Path_6243" data-name="Path 6243" d="M419.415,74.159H418.29V63.63h1.125Z" transform="translate(-324.145 -49.309)" fill="#f9f9f9"/>
    <path id="Path_6244" data-name="Path 6244" d="M434.386,84.458l-.225-1.056h-.054a3.1,3.1,0,0,1-1.105.943,3.351,3.351,0,0,1-1.377.248,2.474,2.474,0,0,1-1.729-.567,2.072,2.072,0,0,1-.626-1.618q0-2.251,3.6-2.354l1.258-.041v-.45a1.868,1.868,0,0,0-.376-1.287,1.58,1.58,0,0,0-1.211-.437,4.893,4.893,0,0,0-2.1.567l-.335-.851a5.336,5.336,0,0,1,1.2-.466,5.217,5.217,0,0,1,1.31-.169,2.827,2.827,0,0,1,1.965.587,2.455,2.455,0,0,1,.639,1.888v5.062Zm-2.539-.792a2.28,2.28,0,0,0,1.648-.574,2.127,2.127,0,0,0,.6-1.612V80.8l-1.125.045a4.058,4.058,0,0,0-1.931.419,1.251,1.251,0,0,0-.592,1.146,1.152,1.152,0,0,0,.369.927,1.53,1.53,0,0,0,1.031.324Z" transform="translate(-332.653 -59.607)" fill="#f9f9f9"/>
    <path id="Path_6245" data-name="Path 6245" d="M458.58,77.46h1.2l1.625,4.229a16.156,16.156,0,0,1,.662,2.091h.054c.061-.225.182-.623.369-1.182s.8-2.269,1.837-5.138h1.206l-3.187,8.449a4.223,4.223,0,0,1-1.107,1.776,2.345,2.345,0,0,1-1.553.524,4.53,4.53,0,0,1-1.015-.115v-.9a3.93,3.93,0,0,0,.833.081,1.711,1.711,0,0,0,1.65-1.3l.414-1.056Z" transform="translate(-355.367 -60.026)" fill="#f9f9f9"/>
    <path id="Path_6246" data-name="Path 6246" d="M285.687,78.606a2.527,2.527,0,0,1-.2,4.3,1.089,1.089,0,0,0-.434.761.851.851,0,0,0,.4.675l.56.434a2.718,2.718,0,0,1,1.3,2.172c0,1.458-1.411,2.926-4.078,2.926-2.251,0-3.336-1.071-3.336-2.219a2.233,2.233,0,0,1,1.2-1.893,6.554,6.554,0,0,1,2.962-.713,1.59,1.59,0,0,1-.466-1.053,1.408,1.408,0,0,1,.155-.605c-.171.016-.34.029-.5.029a2.45,2.45,0,0,1-2.573-2.433,2.793,2.793,0,0,1,.993-2.08,4.226,4.226,0,0,1,2.777-.853h3.194l-.993.558Zm-1.1,6.887a2.458,2.458,0,0,0-.356-.016,6.182,6.182,0,0,0-1.629.25,1.743,1.743,0,0,0-1.332,1.6c0,1.1,1.069,1.893,2.73,1.893,1.488,0,2.28-.716,2.28-1.677C286.276,86.749,285.774,86.333,284.584,85.493Zm.45-2.946a1.576,1.576,0,0,0,.387-1.125c0-1.125-.675-2.854-1.954-2.854a1.447,1.447,0,0,0-1.085.513,1.8,1.8,0,0,0-.342,1.148c0,1.04.605,2.762,1.94,2.762a1.575,1.575,0,0,0,1.053-.45Z" transform="translate(-216.902 -60.483)" fill="#f9f9f9"/>
    <path id="Path_6247" data-name="Path 6247" d="M249.209,84.455A3.655,3.655,0,0,1,245.43,80.8a3.84,3.84,0,0,1,4.013-3.763,3.621,3.621,0,0,1,3.7,3.66A3.78,3.78,0,0,1,249.209,84.455Zm1.936-1.254a2.813,2.813,0,0,0,.466-1.72c0-1.364-.65-3.966-2.573-3.966a2.154,2.154,0,0,0-1.393.529,2.343,2.343,0,0,0-.713,1.888c0,1.533.761,4.051,2.636,4.051a1.976,1.976,0,0,0,1.578-.779Z" transform="translate(-190.191 -59.697)" fill="#f9f9f9"/>
    <path id="Path_6248" data-name="Path 6248" d="M211.911,84.455A3.648,3.648,0,0,1,208.13,80.8a3.841,3.841,0,0,1,4.013-3.763,3.621,3.621,0,0,1,3.7,3.66A3.78,3.78,0,0,1,211.911,84.455Zm1.936-1.254a2.811,2.811,0,0,0,.464-1.72c0-1.364-.65-3.966-2.57-3.966a2.154,2.154,0,0,0-1.389.533,2.335,2.335,0,0,0-.713,1.888c0,1.533.758,4.051,2.633,4.051a1.983,1.983,0,0,0,1.576-.783Z" transform="translate(-161.286 -59.697)" fill="#f9f9f9"/>
    <path id="Path_6249" data-name="Path 6249" d="M165.939,72.17l-2.228.513a16.336,16.336,0,0,1-2.568.266,5.535,5.535,0,0,1-5.933-5.638c0-3.02,2.32-5.82,6.291-5.82a8.98,8.98,0,0,1,2.383.326,6.077,6.077,0,0,1,2.055.966l-1.294,1.229-.545.124.389-.623a4.449,4.449,0,0,0-3.331-1.463,4.3,4.3,0,0,0-4.312,4.594,5.507,5.507,0,0,0,5.51,5.683,4.643,4.643,0,0,0,1.978-.389V69.431l-2.35.124,1.245-.675h3.3l-.405.389a.358.358,0,0,0-.155.248c-.018.142-.032.594-.032.75Z" transform="translate(-120.277 -47.65)" fill="#f9f9f9"/>
    <path id="Path_6250" data-name="Path 6250" d="M316.11,70.532c-.513-.047-.621-.14-.621-.747V60.861c.063-.545.225-.639.7-.921h-2.212l-1.168.563H314v9.613c0,.311-.061.358-.419.824h2.755l.567-.34C316.641,70.566,316.375,70.552,316.11,70.532Z" transform="translate(-242.405 -46.449)" fill="#f9f9f9"/>
    <path id="Path_6251" data-name="Path 6251" d="M336.193,83.944c-.169.095-.34.2-.509.279a3.6,3.6,0,0,1-1.5.295,3.306,3.306,0,0,1-2.057-.6,4.006,4.006,0,0,1-1.576-3.264,3.5,3.5,0,0,1,3.54-3.572,3,3,0,0,1,1.594.432,2.548,2.548,0,0,1,1.08,1.528l-3.637,1.472-1.191.095c.387,1.963,1.717,3.106,3.187,3.106a3.991,3.991,0,0,0,1.886-.54Zm-1.452-4.607c.293-.108.45-.2.45-.416a1.534,1.534,0,0,0-1.53-1.33,1.9,1.9,0,0,0-1.778,2.149c0,.261.029.54.045.819Z" transform="translate(-256.153 -59.73)" fill="#f9f9f9"/>
    <path id="Path_6252" data-name="Path 6252" d="M360.664,77.186v1.02h-.126v-1.02H360.2V77.08h.8v.106Z" transform="translate(-279.129 -59.731)" fill="#f9f9f9"/>
    <path id="Path_6253" data-name="Path 6253" d="M365.511,78.205V77.177h0l-.324,1.029h-.1l-.317-1.029h0v1.029h-.113V77.08h.191l.288.9h0l.281-.9h.2v1.125Z" transform="translate(-282.585 -59.731)" fill="#f9f9f9"/>
    <path id="Path_6254" data-name="Path 6254" d="M158.407,37.151h-.772a5.162,5.162,0,0,0-.225-.9h-1.125a4.577,4.577,0,0,0-.225.9h-.729c0-.061.189-.578.565-1.546a12.3,12.3,0,0,0,.565-1.6h.914a13.557,13.557,0,0,0,.511,1.576A13.565,13.565,0,0,1,158.407,37.151Zm-1.125-1.35c-.275-.833-.414-1.283-.414-1.35h-.036a13.98,13.98,0,0,1-.428,1.35Z" transform="translate(-120.37 -26.348)" fill="#f9f9fa"/>
    <path id="Path_6255" data-name="Path 6255" d="M173.836,37.143h-.6a6.014,6.014,0,0,0-.675-1.047,6.142,6.142,0,0,1-.795-1.366h-.038a8.487,8.487,0,0,1,.061.959q0,.6.034,1.454h-.594c.025-.5.036-1.047.036-1.645s-.011-1.089-.036-1.5h.718a4.54,4.54,0,0,0,.6,1.022,5.974,5.974,0,0,1,.731,1.29h.036a9.274,9.274,0,0,1-.059-.968q0-.655-.034-1.35h.605c-.023.4-.034.9-.034,1.5S173.814,36.655,173.836,37.143Z" transform="translate(-132.691 -26.34)" fill="#f9f9fa"/>
    <path id="Path_6256" data-name="Path 6256" d="M189.189,35.5a1.8,1.8,0,0,1-.45,1.2,1.542,1.542,0,0,1-1.233.511c-.239,0-.567,0-.986-.029q.029-.729.032-1.645,0-.88-.032-1.5h1a1.628,1.628,0,0,1,1.265.437A1.508,1.508,0,0,1,189.189,35.5Zm-.662.1a1.171,1.171,0,0,0-.27-.783,1.026,1.026,0,0,0-.826-.317,2.31,2.31,0,0,0-.286.023c.016.322.025.659.025,1.011s0,.767.023,1.146a1.663,1.663,0,0,0,.315.032.916.916,0,0,0,.77-.322A1.249,1.249,0,0,0,188.528,35.6Z" transform="translate(-144.54 -26.371)" fill="#f9f9fa"/>
    <path id="Path_6257" data-name="Path 6257" d="M203.95,37.159h-.716a4.836,4.836,0,0,0-.43-1.056.565.565,0,0,0-.484-.2h-.268c0,.414,0,.833.023,1.254H201.4q.031-.729.031-1.645,0-.88-.031-1.5h1.148q1.112,0,1.11.761a.851.851,0,0,1-.632.837v.038a.749.749,0,0,1,.428.38A8.286,8.286,0,0,1,203.95,37.159Zm-.9-2.224c0-.32-.2-.482-.619-.482a2.129,2.129,0,0,0-.4.034c.018.25.027.576.027.977h.225c.5.009.761-.171.761-.527Z" transform="translate(-156.071 -26.355)" fill="#f9f9fa"/>
    <path id="Path_6258" data-name="Path 6258" d="M217.54,35.288a1.731,1.731,0,0,1-.45,1.231,1.472,1.472,0,0,1-1.125.488,1.418,1.418,0,0,1-1.069-.45,1.576,1.576,0,0,1-.43-1.141,1.729,1.729,0,0,1,.45-1.229,1.468,1.468,0,0,1,1.125-.488,1.429,1.429,0,0,1,1.069.45A1.576,1.576,0,0,1,217.54,35.288Zm-.675.072a1.26,1.26,0,0,0-.254-.822.8.8,0,0,0-.635-.322.738.738,0,0,0-.6.315,1.27,1.27,0,0,0-.248.8,1.249,1.249,0,0,0,.261.819.794.794,0,0,0,.637.315.734.734,0,0,0,.6-.32,1.261,1.261,0,0,0,.248-.788Z" transform="translate(-166.195 -26.114)" fill="#f9f9fa"/>
    <path id="Path_6259" data-name="Path 6259" d="M231.875,37.167H231.2c.023-.5.032-1.047.032-1.645s0-1.089-.032-1.5h.675c-.02.405-.032.9-.032,1.5S231.855,36.68,231.875,37.167Z" transform="translate(-179.163 -26.363)" fill="#f9f9fa"/>
    <path id="Path_6260" data-name="Path 6260" d="M240.579,35.5a1.8,1.8,0,0,1-.45,1.2,1.542,1.542,0,0,1-1.233.511c-.239,0-.567,0-.986-.029q.031-.729.031-1.645,0-.88-.031-1.5h1a1.627,1.627,0,0,1,1.265.437A1.506,1.506,0,0,1,240.579,35.5Zm-.659.1a1.17,1.17,0,0,0-.27-.783,1.029,1.029,0,0,0-.819-.317,2.279,2.279,0,0,0-.284.023c.016.322.023.659.023,1.011s0,.767.025,1.146a1.663,1.663,0,0,0,.315.032.916.916,0,0,0,.77-.322A1.249,1.249,0,0,0,239.92,35.6Z" transform="translate(-184.363 -26.371)" fill="#f9f9fa"/>
    <path id="Path_6261" data-name="Path 6261" d="M259.844,37.167h-.772a4.954,4.954,0,0,0-.225-.9h-1.125a4.762,4.762,0,0,0-.225.9h-.727c0-.061.187-.578.565-1.546a12.064,12.064,0,0,0,.563-1.6h.916a13.052,13.052,0,0,0,.511,1.576A14.1,14.1,0,0,1,259.844,37.167ZM258.719,35.8a13.435,13.435,0,0,1-.414-1.35h-.038c0,.063-.144.513-.428,1.35Z" transform="translate(-198.978 -26.363)" fill="#f9f9fa"/>
    <path id="Path_6262" data-name="Path 6262" d="M275.1,34.867a.941.941,0,0,1-.43.853,1.9,1.9,0,0,1-1.051.277h-.162c0,.3,0,.7.025,1.2h-.675q.032-.7.029-1.645,0-.871-.029-1.5h1.213a1.375,1.375,0,0,1,.776.209A.7.7,0,0,1,275.1,34.867ZM274.48,35c0-.344-.225-.518-.686-.518a2.079,2.079,0,0,0-.362.036c.018.306.025.65.025,1.035a1.349,1.349,0,0,0,.142,0c.578,0,.873-.18.873-.554Z" transform="translate(-211.408 -26.384)" fill="#f9f9fa"/>
    <path id="Path_6263" data-name="Path 6263" d="M287.951,34.828a.941.941,0,0,1-.428.853,1.9,1.9,0,0,1-1.053.277h-.162c0,.3,0,.7.027,1.2h-.675q.031-.7.032-1.645,0-.871-.032-1.5h.421l.331-.011h.45a1.38,1.38,0,0,1,.777.209A.7.7,0,0,1,287.951,34.828Zm-.623.133c0-.344-.225-.518-.686-.518a2.1,2.1,0,0,0-.362.036c.018.306.027.65.027,1.035a1.333,1.333,0,0,0,.14,0C287.035,35.519,287.328,35.334,287.328,34.961Z" transform="translate(-221.366 -26.345)" fill="#f9f9fa"/>
    <path id="Path_6264" data-name="Path 6264" d="M306.321,35.288a1.731,1.731,0,0,1-.45,1.231,1.474,1.474,0,0,1-1.125.488,1.413,1.413,0,0,1-1.067-.45,1.575,1.575,0,0,1-.432-1.141,1.74,1.74,0,0,1,.45-1.229,1.476,1.476,0,0,1,1.125-.488,1.429,1.429,0,0,1,1.069.45A1.575,1.575,0,0,1,306.321,35.288Zm-.675.072a1.247,1.247,0,0,0-.259-.822.792.792,0,0,0-.621-.322.741.741,0,0,0-.6.315,1.27,1.27,0,0,0-.254.81,1.249,1.249,0,0,0,.259.819.8.8,0,0,0,.637.315.734.734,0,0,0,.6-.32,1.261,1.261,0,0,0,.245-.8Z" transform="translate(-234.993 -26.114)" fill="#f9f9fa"/>
    <path id="Path_6265" data-name="Path 6265" d="M322.5,37.151h-.6a6.014,6.014,0,0,0-.675-1.047,6,6,0,0,1-.792-1.366H320.4a8.49,8.49,0,0,1,.061.959c0,.4,0,.882.034,1.454h-.6c.025-.5.036-1.047.036-1.645s-.011-1.089-.036-1.5h.718a4.537,4.537,0,0,0,.6,1.022,6.03,6.03,0,0,1,.731,1.292h.036a9.265,9.265,0,0,1-.059-.968q0-.655-.034-1.35h.605c-.023.4-.034.9-.034,1.5S322.482,36.663,322.5,37.151Z" transform="translate(-247.9 -26.348)" fill="#f9f9fa"/>
  </g>
</svg>
