<svg xmlns="http://www.w3.org/2000/svg" width="200" height="120"  xmlns:v="https://vecta.io/nano"><path d="M99.538 113.132l-.565-.063a48.2 48.2 0 0 1-5.173-.377 50.95 50.95 0 0 1-40.969-31.656l-.164-.44.391.228 8.693 5.895q1.015.688 2.035 1.368c.111.074.231.136.394.232a2.66 2.66 0 0 0 .055-.334q.091-3.412.176-6.824.107-3.984.222-7.967c-.001-.06.02-.119.061-.163l.15.357a39.1 39.1 0 0 0 23.39 22.864 35.88 35.88 0 0 0 8.308 1.866 35.22 35.22 0 0 0 19.548-3.569 39.1 39.1 0 0 0 18.586-19.091l.906-2.188c.03-.093.089-.173.168-.231l.408 15.289.437-.243q2.2-1.482 4.4-2.97 3.147-2.132 6.289-4.269a1.01 1.01 0 0 1 .4-.178l-.152.4a51.13 51.13 0 0 1-36.165 30.79 45.84 45.84 0 0 1-6.7 1.025l-3.1.179-.645.07zm-18.921-8.051l.276-.036 2.221-.325a2.16 2.16 0 0 0 1.705-1.425c.367-.945.253-2.009-.306-2.855-.243-.435-.744-.656-1.229-.542-.758.112-1.408.599-1.73 1.294-.095.138-.131.309-.099.474s.129.31.27.402c.266.21.553.391.857.541.387.2.8.354 1.191.537a.48.48 0 0 1 .35.417 9.51 9.51 0 0 1-3.094.479l.033-.372c-.1.033-.181.034-.222.076a1.3 1.3 0 0 1-1.222.271 21.5 21.5 0 0 1-4.139-.918l-2.9-1.1c-.1-.038-.2-.135-.364 0a6.67 6.67 0 0 0 .434.255l3.625 1.882c.714.371 1.482.628 2.276.761l1 .168-.045.245c-.112.425.077.872.46 1.088a3.14 3.14 0 0 0 .461.262 5.79 5.79 0 0 0 2.708.482c.899-.054 1.783-.25 2.62-.582a2.25 2.25 0 0 0 1.015-.657c.027-.034.085-.043.175-.086l-.068.979c-.08.556.169 1.108.639 1.415.683.49 1.587.542 2.321.132a2.95 2.95 0 0 0 1.461-1.974 8.36 8.36 0 0 0 .128-2.6l-.075-1.837c-.038-.274.042-.552.219-.765.154-.159.205-.391.132-.6l-.268-1.111a3.14 3.14 0 0 0-.16-.376 7.26 7.26 0 0 0-.7.894 1.68 1.68 0 0 0-.067.639c0 .054-.017.108-.017.163v3.513l.037 1.918c-.021.286-.061.57-.12.851a.5.5 0 0 1-.451.453c-.43.09-.878.038-1.276-.149a1.33 1.33 0 0 1-.9-1.405l.133-1.546c.104-.687.117-1.385.04-2.076-.045-.428-.181-.841-.4-1.211-.531.316-.828.915-.759 1.529.065.8.076 1.604.032 2.405.017.224-.122.431-.336.5a7.7 7.7 0 0 1-3.468.609 4.77 4.77 0 0 1-1.8-.486 1.15 1.15 0 0 1-.604-.6zm40.791-4.437l-.231.4-.7 1.244c-.669 1.047-1.733 1.779-2.949 2.032-.611.156-1.258-.049-1.668-.528-.398-.484-.725-1.023-.97-1.6a2.23 2.23 0 0 0 .557-1.283l-.845.709c-.351-.377-.5-.872-.95-1.194a1.69 1.69 0 0 0 .117 1.85l-.393.326-1.459 1.247a3 3 0 0 0-.949 2.227.53.53 0 0 0 .509.615c.216.028.435.013.645-.046.916-.281 1.744-.794 2.405-1.488a1.31 1.31 0 0 0 .371-.8l.04-.323.6.893a1.8 1.8 0 0 0 1.949.713c.435-.108.857-.263 1.259-.461 1.001-.518 1.81-1.342 2.309-2.352l.341-.573a1.37 1.37 0 0 0 .9.518c1.234.071 2.323-.797 2.529-2.016.015-.115.044-.229.069-.359.739.194 1.525-.02 2.063-.562a.95.95 0 0 0 .4-.69c.033-.547-.089-1.093-.352-1.574a.97.97 0 0 0-1.069-.474l.091.833a.44.44 0 0 0 .354.4c.109.029.213.074.335.117a2.05 2.05 0 0 1-1.338.71c-.473.044-.52 0-.644-.457-.037-.138-.013-.331-.264-.406l-.027.459.027.858c.005.149-.012.299-.05.443a2.23 2.23 0 0 1-2.314 1.377c-.268-.02-.49-.214-.547-.476-.04-.108-.092-.211-.153-.309zm-54.351-8.93c-.154.033-.305.079-.452.137-.678.336-1.211.907-1.499 1.607-.12.307-.143.644-.066.965a1.11 1.11 0 0 0 1.175.92c.176-.005.35-.048.527-.061l1.667-.107a3.25 3.25 0 0 1 .877.17c.272.075.464.318.474.6.012.122.018.244.017.367a3.55 3.55 0 0 0 .292 1.389c.336.779.842 1.473 1.482 2.031 1.608 1.453 3.6 2.411 5.739 2.759a2.34 2.34 0 0 0 1.994-.469c.449-.336.768-.819.9-1.364l.567-2.426c.038-.244.165-.466.355-.624.141-.114.216-.291.2-.471l.015-1.063c-.007-.101-.02-.201-.039-.3-.282.082-.543.224-.765.416-.168.1-.275.276-.285.471-.008.081-.024.161-.047.239q-.565 2.195-1.133 4.389c-.033.127-.083.25-.132.4l-.795-.056c-1.477-.214-2.888-.752-4.133-1.575a10.41 10.41 0 0 1-1.59-1.273c-.888-.772-1.401-1.888-1.411-3.065-.006-.095-.019-.19-.037-.283a.7.7 0 0 0-.5-.636c-.361-.116-.732-.198-1.109-.243a6.52 6.52 0 0 0-2.107.18 1.02 1.02 0 0 1-1.237-1.254 2.3 2.3 0 0 1 .7-1.3.78.78 0 0 0 .356-.47zm26.13 14.076c-.282.1-.287.093-.359.2a6.3 6.3 0 0 0-.934 1.805c-.134.388-.169.803-.1 1.208.136.636.541 1.181 1.111 1.494.79.468 1.683.734 2.6.774 2.133.146 4.262-.341 6.12-1.4 1-.556 1-.559 1.362-1.652l.244-.872h.831c.875-.045 1.722-.321 2.455-.8a1.26 1.26 0 0 0 .553-.729 2.41 2.41 0 0 0 .079-1.367 2.94 2.94 0 0 0-.4-.881.68.68 0 0 0-1.169-.015 2.26 2.26 0 0 0-.393.793 13.01 13.01 0 0 0-.271 1.442c-.029.2-.1.3-.3.3a10.73 10.73 0 0 1-1.182-.014c-.498-.027-.96-.266-1.269-.657-.081-.088-.17-.167-.267-.236a2.04 2.04 0 0 0-.478.93.7.7 0 0 0 .114.45c.085.122.186.232.3.328.299.3.52.67.643 1.076.1.342.095.4-.206.565l-1.413.732c-1.668.769-3.525 1.031-5.341.755-.746-.094-1.459-.369-2.075-.8a1.9 1.9 0 0 1-.836-1.761 2.94 2.94 0 0 1 .372-1.157c.076-.151.128-.312.209-.512zm34.952-3.443l.107.086c.121-.081.237-.168.349-.261l2.95-2.707a9.88 9.88 0 0 0 2.724-5.6 1.86 1.86 0 0 0-1.888-2.229c-.041 0-.082-.007-.122 0a.46.46 0 0 1-.448-.222c-.053-.094-.142-.163-.246-.191-.344-.022-.691-.009-1.07-.009.115.421.187.822.562 1.041.54.35 1.167.543 1.811.558a6.49 6.49 0 0 1 .729.071l-.026.247c-.248 1.342-.722 2.632-1.4 3.816-.69 1.144-1.466 2.233-2.322 3.258l-1.5 1.834c-.08.093-.143.204-.21.308zm-4.652-10.477l-.088.066c-.037.516.18 1.018.581 1.346a16.35 16.35 0 0 1 1.491 1.27l1.975 1.953 1.188 1.121a1.32 1.32 0 0 0 1.437.312 2.7 2.7 0 0 0 1.656-1.891.59.59 0 0 0 .018-.283l-.335-1.255c-.098-.293-.344-.513-.646-.579-.346-.063-.696-.099-1.047-.107-.168-.01-.248.1-.214.268l.131.556c.116.437.118.434.585.424a1.61 1.61 0 0 1 .9.153 2.47 2.47 0 0 1-1.343 1.422 1.15 1.15 0 0 1-.95-.067c-.201-.114-.388-.251-.557-.409l-2.368-2.251-2.085-1.832a2.91 2.91 0 0 0-.328-.218zm-13.927 16.988l.092.033a1.49 1.49 0 0 0 .206-.333c.112-.318.192-.647.239-.981a5.79 5.79 0 0 0-.527-2.777l-1.156-2.7c-.173-.314-.209-.685-.1-1.026.067-.182.035-.387-.086-.539l-.763-1.158c-.068-.081-.142-.155-.222-.223-.291.413-.399.928-.3 1.423l1.158 3.222 1.023 2.444c.346.774.483 1.625.4 2.468a.43.43 0 0 0 .036.147zm-15.578-.134a1.85 1.85 0 0 0 .281-.142c.282-.239.498-.547.624-.895a4.97 4.97 0 0 0 .292-2.408l-.349-2.753a1.14 1.14 0 0 1 .2-.927c.082-.108.115-.246.091-.379l-.529-1.651c-.35.416-.736.685-.722 1.212.057 1.851.213 3.697.465 5.531a3.96 3.96 0 0 1-.233 2.007c-.043.109-.066.222-.12.409zm22.6-5.854l.257-.226 2.625-2.69c1.474-1.551 2.805-3.232 3.977-5.022a1.52 1.52 0 0 0 .289-.957c-.026-.106-.064-.209-.113-.307l-.317.451a34.77 34.77 0 0 1-2.4 3.3c-1.272 1.552-2.708 2.948-4.117 4.37a.91.91 0 0 0-.201 1.085zM71.97 93.882l-.482-1.406c-.024-.063-.151-.1-.237-.122a8.31 8.31 0 0 0-.685-.1.31.31 0 0 1-.3-.273l-.223-.911c-.023-.084-.074-.207-.138-.226a3.43 3.43 0 0 0-1.23-.2l.2 1.247c.008.212.173.384.385.4l.907.2.327 1.039c.032.092.106.223.181.238.425.094.861.134 1.296.118zm41.285 5.628l1.023.19c.087.014.227.022.265-.027.281-.331.511-.702.685-1.1l-1.167-.221c-.199-.07-.419.022-.511.212-.135.232-.308.441-.474.672l-1.01-.236c-.121-.022-.309-.026-.371.045-.247.28-.457.593-.726.956l1.508.484zm7.766 6.841l.03.075a.29.29 0 0 0 .113.015 2.87 2.87 0 0 0 .3-.113 6.99 6.99 0 0 0 2.363-1.778l1.205-1.276c.261-.303.636-.484 1.035-.5a.76.76 0 0 0 .648-.433l.184-.362.17-.027a.73.73 0 0 0 .682-.949c-.037-.2-.13-.286-.329-.192-.062.737-.181.623-.662.422l-.1.434c-.04.328-.321.572-.651.566a1.52 1.52 0 0 0-1.007.481l-.991 1.084a12.31 12.31 0 0 1-2.636 2.3c-.122.08-.235.172-.353.26zm-23.8-3.926l.89-.045c.147 0 .3-.011.324-.171a.46.46 0 0 0-.112-.318 5.33 5.33 0 0 0-.449-.435c.174-.384.158-.843.5-1.168l.343.255c.214-.265.215-.363.027-.523-.08-.09-.2-.132-.319-.111s-.218.1-.263.211c-.148.249-.255.523-.394.813-.29-.389-.519-.8-1-.924-.215.383-.18.576.166.681.26.079.353.27.474.466.143.232.192.449-.035.653-.092.083.085.224-.094.305a.64.64 0 0 0-.323.73c.036.228.091.452.165.67l.559 1.917a11.45 11.45 0 0 1 .172 1.179c.069-.1.127-.149.133-.2a4.32 4.32 0 0 0 .058-.765 12.34 12.34 0 0 0-.573-2.332l-.245-.884zM71.744 95.26c.102.045.206.084.313.115l4.227.893c.813.154 1.642.226 2.465.323a.61.61 0 0 0 .707-.344l-.8-.074c-1.688-.194-3.361-.499-5.009-.912l-1.231-.287c-.264-.08-.546.043-.668.29zm25.289 13.012l.709.455c.856.518.617.467 1.35-.073.167-.122.377-.212.472-.472-.43-.3-.888-.524-1.333-.771-.049-.021-.106-.017-.152.01-.375.249-.724.536-1.041.855zm-27.527-9.478c0-.034.01-.067.015-.1l-.327-.141a48.4 48.4 0 0 1-4.666-1.959 1.75 1.75 0 0 0-.3-.126c-.072-.029-.153-.027-.223.007s-.123.096-.145.17l.292.162 2.841 1.249 1.909.723c.19.093.41.098.604.015zm58.245-11l-.1.229-1.241 3.491c-.143.4-.327.776-.485 1.166-.117.29-.1.347.166.533l.155-.329.914-2.31.7-2.127a.57.57 0 0 0-.11-.65zm-22.421 20.864l.444-.171.469-.134c.175-.057.335-.145.335-.357 0-.182-.162-.234-.295-.3-.061-.029-.125-.053-.19-.072a.56.56 0 0 0-.741.472c-.009.058 0 .139-.037.168a.76.76 0 0 0-.124 1l.668 1.436c.013.028.066.038.1.055.187-.112.157-.284.116-.439a3.02 3.02 0 0 0-.189-.492l-.556-1.166zm-3.276-4.494c.366-.455.164-1.027.463-1.485l.485.259c.2-.274.2-.385-.012-.548-.111-.13-.287-.182-.451-.134s-.284.187-.307.356c-.074.208-.122.426-.192.676-.349-.376-.784-.662-1.268-.833-.251.392-.246.51.13.63.399.142.733.424.94.793.051.08.11.151.212.288zm27.672-13.063c-.069-.576-.587-.853-.73-1.358l.546-.146c-.063-.351-.191-.44-.491-.368-.279.067-.409.251-.332.505a1.85 1.85 0 0 0 .186.361l.265.442a2.7 2.7 0 0 0-1.52.219c.123.419.239.485.586.361.051-.018.101-.041.147-.07.188-.116.417-.144.628-.079.22.056.446.09.716.135zm-53.512 2.674l-.289-1.126c-.038-.136-.11-.261-.291-.189-.153.061-.255.166-.214.343.016.108.056.211.119.3.187.255.249.581.167.887l-.052.5c.323-.047.461-.262.64-.416s.323-.4.607-.484l.1.23s.053.175.079.262c.282-.071.319-.1.348-.234.035-.164-.065-.483-.212-.539-.121-.044-.255-.039-.372.014-.219.139-.429.29-.629.454zm1.41 3.792c-.049-.053-.117-.084-.19-.086s-.142.026-.193.077c-.373.225-.732.47-1.078.735a2.28 2.28 0 0 0-.514.668c-.134.279-.065.613.168.816a.7.7 0 0 0 .784-.168c.106-.1.257-.212.149-.422l-.163.056c-.284.106-.4.031-.421-.265-.017-.18.055-.356.194-.472l.387-.3.877-.638zm44.074-3.249l-.317-.065-.766-.1c-.156-.013-.309.013-.308.228 0 .183.1.278.314.3a.5.5 0 0 0 .2-.006 1.07 1.07 0 0 1 .926.176c.12.066.232.194.415.109 0-.484-.387-.86-.385-1.355h.475c.048-.337-.005-.421-.278-.451-.376-.041-.531.122-.459.5.044.213.114.414.184.666zm-33.364 4.213c-.085-.004-.17-.004-.255 0l-2.426.293-1.5.144c-.206.019-.408.035-.461.333h.453a9.77 9.77 0 0 0 .608-.06q1.576-.2 3.152-.4a.45.45 0 0 0 .429-.308zm16.624 2.73l.107.078 1.143-.9a.3.3 0 0 0 .066-.417c-.316.279-.761.36-1.155.209.186-.172.186-.172.534-.171.057-.145.222-.294.014-.452-.177-.134-.339-.04-.468.1a3.1 3.1 0 0 0-.361.44c-.236.372-.212.435.184.644.021.011.033.038.048.054l-.112.412zm23.321-6.863l.086.007a10.31 10.31 0 0 0 .521-1.429c.021-.084-.05-.189-.1-.362-.293.381-.408.863-.931.885-.017-.3.263-.254.4-.4l-.168-.457c-.167.133-.312.2-.38.313a1.05 1.05 0 0 0-.108.751c.066.346.083.358.459.313.022 0 .048.018.064.024zm-16.395 7.435c.04-.32-.024-.43-.251-.467a.33.33 0 0 0-.4.3c-.033.179-.034.365-.053.586a6.9 6.9 0 0 0-.693-.326c-.137-.032-.281-.032-.418 0-.028 0-.074.186-.048.208.099.101.226.171.364.2.259.019.499.142.667.34a3.7 3.7 0 0 0 .291.233l.083-.047v-1.1zm-21 7.973c-.185.078-.324.261-.5.066a.44.44 0 0 1 0-.563c.051-.08.107-.158.167-.232l.4-.516a1.12 1.12 0 0 0 .092-.225c-.616.323-1.046.914-1.164 1.6.008.281.221.514.5.546a.58.58 0 0 0 .509-.675zm18.911-11.14c-.1.052-.14.058-.148.076a2.8 2.8 0 0 0-.217 1.67c.053.167.158.312.3.415a.28.28 0 0 0 .433-.05.56.56 0 0 0 .034-.7l-.226.282a.54.54 0 0 1-.336-.681l.165-1.011zm-36.216-6.2l-.349-.031c-.085-.326.107-.489.314-.62s.434-.22.65-.333c.087-.045.167-.1.258-.161-.049-.044-.072-.079-.086-.075a2.9 2.9 0 0 0-1.483.785c-.15.146-.212.36-.164.563.007.076.044.146.103.194s.135.071.21.063a.57.57 0 0 0 .552-.381zm43.428 7.227l.1.02c.323-.546.44-1.191.329-1.816-.003-.054-.025-.106-.061-.147-.113-.086-.236-.209-.36-.214-.094 0-.232.131-.283.237a1.22 1.22 0 0 0-.065.428c0 .028.045.06.073.1l.235-.21c.272.213.3.259.247.548l-.21 1.058zm-12.212 2.209c-.104.236-.192.48-.263.728-.063.278.068.4.358.394.248.002.48-.122.617-.329.192-.272.123-.484-.186-.6l-.521-.189zm-17.236-2.305c-.206.148-.143.307-.149.445-.005.117-.024.231-.171.222s-.2-.116-.172-.26a.55.55 0 0 0 .034-.2.61.61 0 0 0-.107-.177l-.09.011-.067.572c-.017.295.109.392.4.318a1.44 1.44 0 0 0 .189-.078 1.67 1.67 0 0 1 .144.088.3.3 0 0 0 .373.055c.137-.074.209-.229.177-.381-.033-.163-.086-.322-.136-.5-.273.135-.1.367-.26.523zm-3.841-2.69c-.155.108-.299.23-.432.365-.086.1-.179.281-.145.383a.47.47 0 0 0 .344.232.92.92 0 0 0 .5-.105c.2-.1.211-.26.08-.446-.091-.128-.199-.248-.343-.425zm-15.522.125c-.105-.1-.247-.175-.268-.274-.038-.175.132-.245.271-.306s.277-.112.412-.175c.089-.041.172-.1.258-.144l-.033-.075c-.427.026-.834.195-1.155.478a.41.41 0 0 0-.08.584c.131.154.357.123.599-.085zm13.312 2.493l.031.085c.354-.07.68-.244.935-.5a.43.43 0 0 0 .119-.546c-.1-.113-.254-.087-.5.089-.016.011-.013.048-.02.073.268.166.287.266.056.427-.196.138-.41.252-.617.376zm21.269 1.58c.299-.238.511-.569.6-.941.062-.246-.018-.434-.18-.487s-.274.072-.37.4h.279c.1.435-.279.673-.325 1.032zm22.734-9.233h.1c.057-.36.012-.729-.13-1.065-.078-.165-.178-.344-.388-.285-.23.065-.17.272-.137.446 0 .02.035.034.054.051.264-.122.35-.086.41.181.018.079.015.162.026.243l.069.433zm3.756 7.4c-.385.182-.451.149-.536-.252l-.1-.406c-.125.293-.101.628.065.9.117.224.325.314.5.217.21-.113.121-.287.075-.456z" fill="#e3171a"/><path d="M108.545 32.052l.093-.691-.332-.042.141-.478a.45.45 0 0 0-.054-.462c-.119-.133-.062-.278-.007-.422l.353-.964-.422.041.318-1.513-.433.2.078-.977-.071-.029-.305.334-.042-1.508c-.284.112-.222.383-.389.528-.222-.29-.071-.655-.2-1l-.326.207-.108-.862-.339.143c-.083-.452-.454-.795-.911-.842l.157 1.313c.249 1.493.298 3.013.146 4.519-.18 1.88-.826 3.685-1.881 5.252a4.15 4.15 0 0 1-.666.71l.007-1.9c.06-.569.051-1.142-.026-1.709-.026-.214-.005-.432.062-.637.088-.322.218-.634.342-.985-.345 0-.378.327-.618.479l-.027-.376-.088-1.711c-.014-.133-.065-.26-.148-.365a1.8 1.8 0 0 1-.362-.981l-.1-.792c-.267.121-.461.361-.525.647a7.45 7.45 0 0 0-.4 2.2l.233 6.942.107 4.208.079 6.253a6.3 6.3 0 0 0 .586 2.691c.308.605.326 1.317.049 1.937-.363.829-.281 1.786.219 2.541l1.047 1.56a3.46 3.46 0 0 1 .325.565c.12.191.135.431.04.635s-.288.347-.512.379a7.2 7.2 0 0 1-1.529.22q-2.288.051-4.577.019c-.503-.017-1.002-.089-1.49-.212-.635-.148-.828-.549-.533-1.133a11.06 11.06 0 0 1 .813-1.271 4.84 4.84 0 0 0 .787-1.648 3.01 3.01 0 0 0-.159-2.038c-.247-.463-.223-1.025.063-1.465.374-.732.567-1.542.563-2.364l.208-7.8.258-7.432-.051-3.961c-.021-.567-.278-1.1-.708-1.471l-.112.387-.318-.046c.029.296.041.594.034.892-.039.287-.096.571-.171.85h-.309l.158.65c.037.176.058.342-.138.468-.064.041-.085.185-.085.281a3.16 3.16 0 0 0 .075.463c-.28-.21-.328-.511-.551-.739a.66.66 0 0 0-.038.226l.252.9.122.39c.1.348.095.354-.2.578.224 1.156.319 2.333.285 3.51a.86.86 0 0 1-.556-.42c-.827-1.071-1.416-2.306-1.729-3.622-.455-1.858-.523-3.79-.2-5.675l.178-1.5c.047-.244.024-.497-.064-.729-.5.068-.283.533-.475.786l-.233-.18c-.07.071-.152.129-.243.171-.073.018-.166-.045-.3-.09v1.113l-.092.016-.174-.562c-.241.231-.151.482-.129.715s.071.477.113.751c-.454-.1-.256-.613-.6-.775-.129.426 0 .865-.1 1.305-.291-.122-.127-.513-.435-.63-.228.551.127 1.041.178 1.593l-.412-.2a1.09 1.09 0 0 0 .062.726l.2.7-.3.049a.91.91 0 0 0 .089.664 1.2 1.2 0 0 1 0 1.06 1.19 1.19 0 0 0-.047.453l-.28.095.125.7-.053.021a.66.66 0 0 1-.1-.114l-1.38-2.688c-.822-1.693-.705-3.691.309-5.276.337-.574.744-1.107 1.128-1.652a1.76 1.76 0 0 0 .364-1.263 2.2 2.2 0 0 0-.058-.22l-.309.444-.354-.193-.165.672-.365.019-.4 1.025-.223-.515c-.281.334-.258.76-.484 1.11l-.249-.365-.316.867-.367-.082-.275 1.344-.281-.44a1.2 1.2 0 0 0-.121.275c-.024.2-.023.408-.04.611a1.15 1.15 0 0 1-.061.318l-.333.765-.189-.038c-.022.023-.055.042-.056.063a9.2 9.2 0 0 0-.1 1.95.8.8 0 0 1-.205.728c-.046-.064-.085-.133-.116-.206-.443-1.348-.666-2.758-.661-4.177a5.4 5.4 0 0 1 1.542-3.718 10.5 10.5 0 0 1 5.039-3.04 8.78 8.78 0 0 0 .853-.308c-.135-.236-.321-.2-.49-.194l-.806.027c-.094.01-.184.045-.26.1-.321.225-.635.327-.875.039l-.735.106-.358.406-.1-.44c-.373.041-.433.419-.689.619l-.335-.127-.292.332-.271-.226-.38.849-.319-.155-.258.372c-.055.093-.083.2-.135.3-.194.353-.608.507-.791.878-.027.054-.2.038-.321.058l-.225.992c-.034.141-.048.291-.24.339-.166.042-.15.206-.157.341-.009.182-.023.358-.265.421a.67.67 0 0 1-.15-.6c.029-.421.088-.839.176-1.251.578-2.471 2.423-4.45 4.847-5.2 1.061-.352 2.161-.568 3.276-.645a10.73 10.73 0 0 0 1.126-.2.82.82 0 0 0 .592-.382l-.35-.048a3.12 3.12 0 0 1-.487-.048 2.98 2.98 0 0 0-1.649.041c-.123.036-.287-.07-.509-.133l-.544.323-.19-.252-.806.328c-.16.056-.341.052-.5.1-.185.059-.36.15-.611.257-.163-.075-.356-.012-.577.155-.417.313-.877.568-1.32.847l-.066-.058.314-.5c.85-1.139 1.906-2.109 3.112-2.86a6.03 6.03 0 0 1 3.766-.817l2.316.222c.129.004.257-.001.385-.015l.033-.1c-.084-.07-.173-.132-.266-.188a3.84 3.84 0 0 1-.449-.191c-.344-.245-.737-.416-1.151-.5-.1-.018-.183-.112-.28-.153a1.82 1.82 0 0 0-.562-.2c-.194.011-.378-.087-.478-.254a1.85 1.85 0 0 1-.806.258c-.334.034-.654.192-1.006.208-.194.046-.381.122-.553.223.031-.097.071-.192.119-.282.201-.278.472-.497.785-.636a5.08 5.08 0 0 1 5.215.189l.844.5c.225.116.471.192.761.307l.066-1.194.141-1.132.453-.04a5.98 5.98 0 0 1 .233-1.91 1.18 1.18 0 0 1 .236.645l.075 1.018c.01.1.045.259.106.28.234.078.206.258.215.43l.025.531a.55.55 0 0 0 .084.305c.199.23.284.537.234.837a3.22 3.22 0 0 0 .021.342c.176-.042.349-.098.516-.168l1.431-.787c1.18-.76 2.657-.895 3.954-.36.355.139.7.301 1.034.486.285.14.498.394.585.7-.167.13-.3.042-.437 0-.538-.202-1.114-.281-1.686-.229a.7.7 0 0 0-.362.142.47.47 0 0 1-.451.123 1.27 1.27 0 0 0-1.043.214c-.134.084-.278.154-.459.253a1.6 1.6 0 0 0 1.116.3c.381-.005.762-.03 1.141-.076a4.89 4.89 0 0 1 4.026 1.294l1.5 1.385a4.03 4.03 0 0 1 .976 1.343l-.321-.171c-.417-.285-.884-.489-1.376-.6-.153-.054-.301-.119-.445-.194-.315-.123-.62-.271-.912-.441a2.52 2.52 0 0 0-.6-.14l-.255.332-.615-.4-.187.24c-.096-.034-.189-.076-.278-.126-.205-.138-.4-.22-.625-.03-.06.036-.131.048-.2.035a1.23 1.23 0 0 0-.949.2c-.044.029-.099.036-.149.02-.317-.136-.39.124-.554.315a1.2 1.2 0 0 0 .6.158l2.683.26c1.488.146 2.907.699 4.1 1.6 1.815 1.364 2.804 3.563 2.62 5.826 0 .054-.015.107-.034.246l-.2-.344-1.2-2.136c-.083-.228-.308-.372-.55-.35a1.84 1.84 0 0 0-.86-1.3c-.114-.118-.272-.183-.436-.179-.094.008-.212-.094-.3-.172-.113-.124-.218-.254-.314-.392l-.148.331-.553-.671-.276.423-.454-.55c-.175.355-.569 0-.755.3l-.45-.331a.61.61 0 0 0 .19.65 4.46 4.46 0 0 0 .56.406l2.278 1.516a5.56 5.56 0 0 1 2.41 4.05c.139 1.276.038 2.567-.3 3.805l-.4 1.346c-.446-.315-.335-.694-.17-1.081a1.84 1.84 0 0 0 .066-.242l-.334-.208.048-.978h-.327c.025-.283-.029-.568-.156-.823-.073-.142-.017-.348-.032-.523l-.086-.809-.4.244-.109-1.091-.424.03-.271-1.169-.337.529-.376-1.173-.4.426-.409-1.026c-.425.063-.491-.31-.65-.607a.59.59 0 0 1-.767-.346c-.069-.086-.151-.162-.242-.224a.59.59 0 0 0 0 .646 2.34 2.34 0 0 0 .3.483l1.312 1.723a5.67 5.67 0 0 1 1.178 3.661 6.65 6.65 0 0 1-.22 1.448 9.71 9.71 0 0 1-1.557 3.172 4.4 4.4 0 0 1-.319.371.98.98 0 0 1-.137.098z" fill="#0a6e41"/><path d="M99.789 68.269l-.378.353c-2.027 1.948-3.83 4.1-5.655 6.232a2.29 2.29 0 0 0-.324.516c-.194.347-.122.782.172 1.05.272.288.698.369 1.056.2.238-.1.459-.236.688-.356a4.87 4.87 0 0 1 .471-.242.63.63 0 0 1 .8.2c.74.851.703 2.127-.085 2.934a1.77 1.77 0 0 1-1.753.389c-.853-.217-1.609-.711-2.151-1.405l-.591-.731-.318-.368-.819.475-2.723 1.881c-.762.533-1.647.865-2.572.964-1.47.261-2.889-.671-3.233-2.124-.398-1.198-.066-2.518.852-3.384.308-.335.723-.551 1.173-.613a1.71 1.71 0 0 1 1.6.721c.245.308.45.649.667.978.2.306.227.318.552.164a1.91 1.91 0 0 0 .213-.121 9.17 9.17 0 0 0 2.05-1.8 1.17 1.17 0 0 0 .265-1.176l-.419-1.408a1.08 1.08 0 0 0-.816-.778c-.04-.01-.078-.026-.117-.037-.285-.03-.541-.191-.691-.435s-.179-.544-.078-.813a1.56 1.56 0 0 1 1.6-1.3 1.1 1.1 0 0 1 1.066.75l.751 2.159a1.67 1.67 0 0 0 .411.8 4.04 4.04 0 0 0 .412-.36l2.632-3.018 2.282-2.832c.361-.457.353-.472 0-.95a6.15 6.15 0 0 0-.578-.688 41.05 41.05 0 0 0-6.062-5.154 10.9 10.9 0 0 0-1.013-.613 52.32 52.32 0 0 0-9.121-3.868 34.41 34.41 0 0 0-5.528-1.249l-3.854-.441-2.593-.32c-.089-.011-.171-.055-.229-.123.297-.061.598-.107.9-.138l6.729-.383a30.69 30.69 0 0 1 16.319 4.094 29.62 29.62 0 0 1 6.535 4.931l1.392 1.373c.098-.06.191-.127.28-.2l1.746-1.6a31.23 31.23 0 0 1 13.7-7.621 28.96 28.96 0 0 1 5.557-.876c1.7-.101 3.404-.105 5.105-.012l3.918.194 2.435.263a1.84 1.84 0 0 1 .3.107c-.087.028-.176.051-.266.069l-6.013.6a43.12 43.12 0 0 0-10.286 2.513c-2.54.988-4.976 2.225-7.272 3.694-1.59 1.104-3.08 2.347-4.45 3.714l-1.635 1.659c-.408.43-.424.466-.07.926l2.517 3.166 2.526 2.784a5.4 5.4 0 0 0 .47.4l.163-.359.784-2.192a3.5 3.5 0 0 1 .372-.723c.274-.471.859-.658 1.356-.435a1.77 1.77 0 0 1 1.122 1.807c-.016.28-.203.522-.47.607a1.42 1.42 0 0 1-.233.075c-1.409.249-1.959 2.465-1.088 3.469a8.21 8.21 0 0 0 2.052 1.791c.447.26.58.218.835-.246l.286-.542c.355-.635 1.034-1.02 1.761-1a1.65 1.65 0 0 1 .982.354 2.95 2.95 0 0 1 1.143 1.828 3.69 3.69 0 0 1-.234 2.434c-.389.932-1.29 1.547-2.3 1.57-1.029.061-2.05-.215-2.908-.785l-2.831-1.868-.792-.506c-.322-.2-.326-.2-.583.063l-1.228 1.258a6.42 6.42 0 0 1-.5.477 2.33 2.33 0 0 1-2.229.429 1.93 1.93 0 0 1-1.027-2.889 3.7 3.7 0 0 1 .361-.442.59.59 0 0 1 .813-.11l.918.534c.38.218.857.168 1.183-.124.33-.229.434-.67.242-1.022-.148-.291-.333-.562-.549-.806l-3.134-3.448q-1.156-1.269-2.312-2.538c-.119-.129-.255-.237-.404-.377zm9.556 6.682c-.349.464-.368.8-.039 1.159.833.96 1.87 1.72 3.035 2.227.688.302 1.438.436 2.188.393.634.028 1.216-.348 1.452-.937.216-.621.064-1.312-.393-1.785-.152-.192-.389-.296-.633-.277s-.463.157-.584.37a2.86 2.86 0 0 0-.291.793c-.038.201-.063.403-.074.607-.048.369-.171.471-.535.436-.109-.009-.216-.032-.318-.069a5.29 5.29 0 0 1-1.922-1.125l-1.582-1.535-.308-.262zm-18.943.058c-.322.163-.615.377-.868.634l-1.981 1.765a1.97 1.97 0 0 1-1.073.463c-.705.084-.839-.037-.9-.739a7.68 7.68 0 0 0-.159-.922.6.6 0 0 0-.4-.437.9.9 0 0 0-1.17.469c-.215.461-.274.98-.171 1.478.069.49.434.885.917.992a2.48 2.48 0 0 0 .768.071 5.78 5.78 0 0 0 3.27-1.243 55.7 55.7 0 0 0 1.622-1.372c.388-.34.424-.639.142-1.159zm14.243 3.517a2.41 2.41 0 0 0 1.3-.47 5.83 5.83 0 0 0 1.56-1.97l2.062-4.668a1.66 1.66 0 0 1 .968-1.039.91.91 0 0 0 .361-.317c.132-.166.138-.4.014-.572-.078-.214-.276-.36-.503-.372s-.439.113-.539.317c-.21.333-.384.688-.517 1.058l-1.491 3.974c-.36.93-.883 1.788-1.543 2.535a1.06 1.06 0 0 1-1.217.322l-.651-.241c-.141-.051-.287-.084-.435-.1-.213-.026-.413.107-.47.314a.83.83 0 0 0 .4 1.011c.227.089.461.161.698.218zm-9.6-.062c.179-.042.354-.098.524-.168.252-.121.42-.368.441-.647.069-.535-.214-.767-.725-.6l-.892.284c-.444.137-.927-.015-1.212-.383a3.45 3.45 0 0 1-.519-.776q-.83-1.817-1.615-3.655l-.875-2.2c-.156-.346-.349-.674-.575-.979-.135-.204-.4-.275-.619-.166-.218.098-.352.321-.337.559a.65.65 0 0 0 .466.648 1.9 1.9 0 0 1 1.008 1.018l.175.413 1.641 3.954a5.32 5.32 0 0 0 1.626 2.162 2.5 2.5 0 0 0 1.482.536zm12.016-4.448l.25-.451a.71.71 0 0 0-.149-.861l-.138-.15q-1.477-1.552-2.956-3.1a3.52 3.52 0 0 0-.467-.393c-.048-.035-.137-.014-.288-.025l.26.432q.748 1.07 1.5 2.136.708 1 1.426 1.99c.116.214.318.368.556.422zm-11.017-4.97a1.49 1.49 0 0 0-.754.536q-.953 1.033-1.9 2.069l-.986 1.085c-.387.47-.255.931.313 1.2 1.275-1.511 2.39-3.149 3.327-4.89z" fill="#a67a1a"/><path d="M83.949 101.83a3.12 3.12 0 0 1-1.553-.8 1.06 1.06 0 0 1 .985-.005c.309.16.522.46.568.805zm27.465 3.419a2.29 2.29 0 0 1 .217-.309c.777-.757 1.601-1.465 2.467-2.119a1.84 1.84 0 0 1 .465.811.42.42 0 0 1-.088.325 2.24 2.24 0 0 1-.478.439l-1.361.819a1.26 1.26 0 0 1-1.02.146 1.33 1.33 0 0 1-.202-.112zm-4.59.013c-.456.338-.981.573-1.538.687a1.6 1.6 0 0 1 .229-1.178c.119-.182.324-.289.542-.282s.416.126.523.315a3.57 3.57 0 0 1 .244.458zm-2.085-2.851l.575.072c-.331.252-.38.248-.575-.072zm-20.951-4.782c-.22.041-.323-.046-.38-.259.246.037.246.037.38.259z" fill="#e3171a"/></svg>