<svg xmlns="http://www.w3.org/2000/svg" width="48" height="48" viewBox="0 0 48 48">
  <g id="Group_9785" data-name="Group 9785" transform="translate(0 24.318)">
    <g id="Group_9784" data-name="Group 9784" transform="translate(0 -23)">
      <circle id="Ellipse_36" data-name="Ellipse 36" cx="24" cy="24" r="24" transform="translate(0 -1.318)" fill="#fff" opacity="0.36"/>
      <g id="Group_9771" data-name="Group 9771" transform="translate(-495.674 -364.132)">
        <g id="Group_9771-2" data-name="Group 9771">
          <path id="Path_6637" data-name="Path 6637" d="M520.579,389.039a.45.45,0,0,0,.592,0c3.693-3.2,5.977-4.82,5.977-7.336a3.465,3.465,0,0,0-3.39-3.641,3.349,3.349,0,0,0-2.937,1.874,3.291,3.291,0,0,0-6.166.628.452.452,0,1,0,.868.255,2.456,2.456,0,0,1,2.361-1.852,2.831,2.831,0,0,1,2.5,2.214.452.452,0,0,0,.872,0c.006-.022.635-2.214,2.5-2.214a2.561,2.561,0,0,1,2.485,2.736c0,2.013-1.968,3.464-5.368,6.4a36.26,36.26,0,0,1-4.653-4.256.453.453,0,1,0-.72.549A40.124,40.124,0,0,0,520.579,389.039Z" fill="#fff"/>
          <path id="Path_6638" data-name="Path 6638" d="M515.046,382.049a.452.452,0,1,0,.453.452A.452.452,0,0,0,515.046,382.049Z" fill="#fff"/>
        </g>
        <g id="outline">
          <g id="Group_9772" data-name="Group 9772">
            <path id="Path_6639" data-name="Path 6639" d="M528.771,387.136a2.136,2.136,0,0,0-1.378-.5,2.35,2.35,0,0,0-1.563.588c0-.012,0-.024,0-.036a5.318,5.318,0,0,1-.513.6,6.842,6.842,0,0,1-.528.463l0,.015-1.047,1.047-2.724.908a2.036,2.036,0,0,0-1.731-.967h-5.5a.338.338,0,0,1-.1.033c-.322.045-.647.068-.969.107a2.992,2.992,0,0,0-.569.131.65.65,0,0,0-.1.054l0,0a.583.583,0,0,1-.258.106,3.711,3.711,0,0,0-1.185.972,5.553,5.553,0,0,0-1.214,3.461v.8l-.517,3.1a.466.466,0,0,0,.383.536.4.4,0,0,0,.077.007h8.369a.458.458,0,0,0,.208-.05l1.016-.508,4.676-1.558a.469.469,0,0,0,.209-.141l5.2-6.147A2.135,2.135,0,0,0,528.771,387.136Zm-.461,2.4-5.117,6.048-4.583,1.527a.46.46,0,0,0-.061.026l-.947.473h-7.709l.433-2.6a.49.49,0,0,0,.006-.077v-.835a4.629,4.629,0,0,1,1.01-2.878,2.785,2.785,0,0,1,2.185-1.051h5.753a1.1,1.1,0,0,1,.016,2.206h-2.63a.46.46,0,0,0-.259.079l-1.452.967h-1.428a.467.467,0,0,0,0,.933H515.1a.478.478,0,0,0,.259-.079l1.451-.968h2.474a2.038,2.038,0,0,0,2.036-2.035c0-.062,0-.123-.008-.184l2.827-.943a.464.464,0,0,0,.182-.112l2.057-2.057a1.432,1.432,0,0,1,1.019-.422,1.2,1.2,0,0,1,.917,1.977Z" fill="#fff"/>
          </g>
        </g>
        <g id="Group_9773" data-name="Group 9773">
          <path id="Path_6640" data-name="Path 6640" d="M521.577,376.709v-4.872a.513.513,0,1,0-1.025,0v4.872a.513.513,0,1,0,1.025,0Z" fill="#fff"/>
        </g>
        <g id="Group_9774" data-name="Group 9774">
          <path id="Path_6641" data-name="Path 6641" d="M525.423,375.709V373.4a.512.512,0,1,0-1.025,0v2.308a.512.512,0,1,0,1.025,0Z" fill="#fff"/>
        </g>
        <g id="Group_9775" data-name="Group 9775">
          <path id="Path_6642" data-name="Path 6642" d="M517.731,375.709V373.4a.513.513,0,0,0-1.026,0v2.308a.513.513,0,0,0,1.026,0Z" fill="#fff"/>
        </g>
        <g id="Group_9778" data-name="Group 9778">
          <g id="Group_9776" data-name="Group 9776">
            <path id="Path_6643" data-name="Path 6643" d="M506.488,392.463a14.016,14.016,0,0,1,6.467-17.1l-.4-.879a15.006,15.006,0,0,0-6.573,19.321Z" fill="#fff"/>
          </g>
          <g id="Group_9777" data-name="Group 9777">
            <path id="Path_6644" data-name="Path 6644" d="M533.7,382.166l-.89.405a14,14,0,0,1-9.173,18.633l-.423,1.127a15.176,15.176,0,0,0,2.734-.937,15.011,15.011,0,0,0,7.752-19.228Z" fill="#fff"/>
          </g>
        </g>
      </g>
    </g>
  </g>
</svg>
