<svg id="SAMA" xmlns="http://www.w3.org/2000/svg" xmlns:xlink="http://www.w3.org/1999/xlink" width="61.978" height="61.7" viewBox="0 0 61.978 61.7">
  <defs>
    <clipPath id="clip-path">
      <path id="Path_3502" data-name="Path 3502" d="M432,0h61.978V61.7H432Zm0,0" transform="translate(-432)"/>
    </clipPath>
  </defs>
  <path id="Path_3478" data-name="Path 3478" d="M510.795,129.311h-.544c.017-.7.544-.668.544-.668Zm1.081-3.823a13.522,13.522,0,0,1-1.551,1.069c.129.148.267.3.4.443,0,.168,0,.339,0,.51-.442.165-.974.272-1.232.709a4.138,4.138,0,0,0-.263,1.98c.882,0,1.761.007,2.643,0-.007-1.571-.027-3.14,0-4.709" transform="translate(-486.596 -88.706)" fill="#226842"/>
  <path id="Path_3479" data-name="Path 3479" d="M557.182,134.182a.491.491,0,1,1,.491-.491.491.491,0,0,1-.491.491m1.461-.866c-.275-.518-.7-1.106-1.351-1.093a1.493,1.493,0,0,0-1.2.68,3.124,3.124,0,0,0-.37,2.058c.507.12,1.068-.017,1.6.061-.189.85-1.162.973-1.886.878l.041.3a5.006,5.006,0,0,0,1.231.363,2.3,2.3,0,0,0,1.937-3.249" transform="translate(-519.254 -93.464)" fill="#226842"/>
  <path id="Path_3480" data-name="Path 3480" d="M527.069,128.633h-1.107l2.47,2.7h-2.2v-.024a1.424,1.424,0,0,0-.026-.29c0,.026.006.053.006.079l-.015-.105c0,.008.006.017.009.026-.007-.038-.007-.073-.013-.109a1.326,1.326,0,0,0-1.289-1.14.051.051,0,0,0-.024,0H522.11c-.146-.134-.3-.271-.443-.4a13.423,13.423,0,0,1-1.069,1.55l.932-.008c.19,0,.387,0,.6,0h2.782v.428H520.6v1.091h.8c2.4.014,5.554,0,8.039,0l.337.373h1.1l-3.333-3.946a.621.621,0,0,0-.469-.216" transform="translate(-494.629 -90.929)" fill="#226842"/>
  <path id="Path_3481" data-name="Path 3481" d="M556.051,70.992H555.2v-.56l.235-.293h.383l.235.293Zm1.081-.866a3.368,3.368,0,0,0-.385-.6c.127-.292.455-.5.416-.859,0-.181,0-.362,0-.542.007-.639-.006-1.278,0-1.917,0-.176,0-.352.007-.526l.189-.1.133-.066.03-.016.085-.042a4.924,4.924,0,0,1-.435-.378c-.121-.116-.237-.237-.351-.36l-.244-.263c-.059-.066-.12-.132-.181-.2-.118-.127-.237-.253-.362-.373q-.009.73-.013,1.462,0,.426,0,.854c0,.381,0,.763,0,1.144-.008.262.011.553,0,.837a1.978,1.978,0,0,1-.115.642c-.035,0-.079,0-.125,0h-.006l-.148,0v0c-.137,0-.252,0-.279,0a1.975,1.975,0,0,1-.114-.642c-.011-.284.008-.575,0-.837,0-.381,0-.763,0-1.144q0-.428,0-.854-.005-.732-.013-1.462c-.125.12-.244.246-.362.373-.061.064-.121.129-.181.2l-.244.263c-.114.123-.23.244-.352.36a4.888,4.888,0,0,1-.435.378l.085.042.03.016.133.066.189.1c0,.174.006.349.007.526,0,.639-.008,1.278,0,1.917,0,.18,0,.361,0,.542-.039.355.287.567.416.859a3.371,3.371,0,0,0-.385.6c-.052.63,0,1.262-.032,1.891h3.079c-.034-.63.018-1.262-.032-1.891" transform="translate(-517.992 -45.166)" fill="#226842"/>
  <path id="Path_3482" data-name="Path 3482" d="M545.95,66.3c-.053-.4.322-.622.539-.892a2.557,2.557,0,0,1-1.059-.858,2.227,2.227,0,0,0-.632-.706c.011,2.712-.023,5.426.018,8.137h1.144c0-1.894-.017-3.788-.01-5.681" transform="translate(-511.734 -45.133)" fill="#226842"/>
  <path id="Path_3483" data-name="Path 3483" d="M510.286,70.7l.007-.018c.061-.6.537-.572.537-.572v.668h-.544c0-.027,0-.052.006-.078h-.006m8.346,1.1c.041-1.91-.023-4.065-.01-5.952-.054-.357.247-.569.467-.789-.674-.332-1-1.045-1.59-1.474.011,2.349.016,4.7-.007,7.053q-2.8-.015-5.6.026c.025-1.227-.016-2.455.014-3.685a14.547,14.547,0,0,1-1.58,1.057q.223.22.459.433c-.008.191-.02.384-.039.576a2.6,2.6,0,0,0-1.176.678,3.712,3.712,0,0,0-.291,2.076" transform="translate(-486.617 -44.948)" fill="#226842"/>
  <path id="Path_3484" data-name="Path 3484" d="M548.919,101.977h-.854v-.561l.235-.293h.385l.235.293ZM550,101.11a3.543,3.543,0,0,0-.385-.6c.127-.292.455-.5.414-.859,0-.181,0-.362,0-.543.008-.639,0-1.278,0-1.917,0-.175,0-.35.007-.526l.189-.1.133-.066.031-.016.085-.042a4.9,4.9,0,0,1-.436-.378c-.12-.116-.237-.237-.35-.36q-.124-.132-.244-.264l-.182-.2c-.118-.126-.237-.252-.362-.372q-.007.73-.013,1.461,0,.428,0,.854c0,.381,0,.764,0,1.145-.008.262.01.553,0,.836a1.981,1.981,0,0,1-.114.643h-.131l-.148,0v0c-.137,0-.252,0-.278,0a1.956,1.956,0,0,1-.116-.643c-.01-.283.008-.574,0-.836,0-.381,0-.764,0-1.145,0-.284,0-.569,0-.854q-.007-.73-.013-1.461c-.125.12-.244.246-.363.372l-.181.2q-.12.132-.244.264c-.115.123-.23.244-.35.36a4.919,4.919,0,0,1-.436.378l.085.042.031.016.132.066.19.1c0,.175,0,.35.006.526,0,.639-.008,1.278,0,1.917,0,.181,0,.362,0,.543-.04.355.287.567.415.859a3.472,3.472,0,0,0-.385.6c-.05.631,0,1.263-.032,1.893h3.08c-.036-.63.018-1.262-.032-1.893" transform="translate(-512.95 -67.069)" fill="#226842"/>
  <path id="Path_3485" data-name="Path 3485" d="M538.737,97.38c-.039-.327.254-.511.47-.693.025-.047.076-.142.1-.189-.811-.216-1.045-1.111-1.722-1.491.016,2.7.1,5.389.034,8.086h1.142c.016-1.9.019-3.809-.025-5.713" transform="translate(-506.637 -67.16)" fill="#226842"/>
  <path id="Path_3486" data-name="Path 3486" d="M562.443,97.288c-.053-.4.322-.622.539-.892a2.559,2.559,0,0,1-1.059-.859,2.222,2.222,0,0,0-.632-.705c.012,2.712-.023,5.426.019,8.137h1.143c0-1.894-.017-3.788-.01-5.681" transform="translate(-523.393 -67.036)" fill="#226842"/>
  <path id="Path_3487" data-name="Path 3487" d="M510.889,101.836h-.544c.017-.7.544-.666.544-.666Zm5.22-6.479a3.048,3.048,0,0,0-.615-.787,5.38,5.38,0,0,0-.032.78c.054,2.118-.032,4.236.015,6.355-.488,0-.977.016-1.461.01.014-1.589-.014-3.178,0-4.768-.052-.345.268-.552.459-.788a10.662,10.662,0,0,1-1.6-1.517c.047,2.356.037,4.715,0,7.071l-.917.011q.015-1.855-.006-3.707a12.659,12.659,0,0,1-1.542,1.073,1.031,1.031,0,0,1,.427,1.024,2.231,2.231,0,0,0-1.231.7,3.6,3.6,0,0,0-.27,1.969h7.24c-.035-1.5-.089-3.006-.017-4.51A6.689,6.689,0,0,1,516.6,96.7a2.6,2.6,0,0,1,.489-.559,2.57,2.57,0,0,1-.981-.784" transform="translate(-486.663 -66.851)" fill="#226842"/>
  <path id="Path_3488" data-name="Path 3488" d="M456.219,51.162a25.9,25.9,0,0,1,4.428-7.037,2.648,2.648,0,0,1,.812.661,14.576,14.576,0,0,0-1.253,1.592,27.684,27.684,0,0,0-1.8,2.748c-.292.552-.563,1.117-.828,1.685.345.174.932.421,1.153-.056a21.2,21.2,0,0,1,2.759-4.369,2.668,2.668,0,0,1,.747-.847,6.276,6.276,0,0,0,.653,1.711c-.321.044-.72-.11-.976.14a25.447,25.447,0,0,0-2.552,4.161.94.94,0,0,1-1.1.485,7.752,7.752,0,0,1-2.052-.872" transform="translate(-449.12 -31.191)" fill="#226842"/>
  <path id="Path_3489" data-name="Path 3489" d="M485.078,18.54a16.857,16.857,0,0,1,1.6-.6c.53.888-.014,1.841-.354,2.68.831.73,2.042,1.119,2.441,2.251.4,1.014-.5,1.847-.748,2.77-1.306-1.048-2.729-1.932-4.081-2.921-.3-.26-.619.177-.924.238a3.121,3.121,0,0,1-.689-.608l-.165.085a10.863,10.863,0,0,1,1.735-1.029c.617.211.977.827,1.553,1.119.76.426,1.388,1.269,2.332,1.243a2.051,2.051,0,0,0-.436-1.092,14.13,14.13,0,0,0-2.451-1.668c.175-.5.583-.915.607-1.479a24.13,24.13,0,0,0-3.243,1.633c-.909.465-1.687,1.129-2.546,1.671-.338.238-.6.562-.936.8-.68.466-1.178,1.143-1.848,1.619-.124-.34-.536-.708-.388-1.068a26.462,26.462,0,0,1,5.857-4.359,25.613,25.613,0,0,1,2.68-1.288" transform="translate(-463.463 -12.683)" fill="#226842"/>
  <path id="Path_3490" data-name="Path 3490" d="M493.17,157.441c.315-.358.387-.957.846-1.16.214.736.307,1.5.548,2.234a2.936,2.936,0,0,0-.863.324c-.9,1.447-1.822,2.884-2.7,4.342-.317.094-.629-.189-.908-.316s-.063-.413.045-.571a22.448,22.448,0,0,0,1.375-2.235c.594-.847,1.011-1.806,1.66-2.617" transform="translate(-472.97 -110.473)" fill="#226842"/>
  <path id="Path_3491" data-name="Path 3491" d="M448.791,74.525a.726.726,0,1,1-.726.726.726.726,0,0,1,.726-.726m11.537,20.89-.19.033c-1.121,1.853-2.37,3.626-3.48,5.487-.26.046-.433-.168-.606-.317a25.518,25.518,0,0,1-2.19-2.175,25.268,25.268,0,0,1,2.189-1.72c-.387-.285-.824-.491-1.212-.771-.308.761-1.1,1.121-1.675,1.656a13.166,13.166,0,0,1-1.68-2.367c.791-.4,1.472-.97,2.277-1.34,0-.044,0-.133-.006-.176-.315-.3-.65-.57-.959-.871a4.493,4.493,0,0,1-1.957,1.4c-.488-.7-.711-1.538-1.2-2.232.039-.046.116-.133.156-.177.854-.3,1.66-.71,2.485-1.084a4.379,4.379,0,0,1-.977-1.053,4.3,4.3,0,0,1-2.082,1.191,22.384,22.384,0,0,1-1.515-6.031,13.827,13.827,0,0,1,2.646,1.143c-.053-.45-.071-.9-.153-1.348-.566-.27-1.2-.421-1.8-.635a11.418,11.418,0,0,1,1.728-.788c-.015-.493-.039-.986-.092-1.477-.466.227-.789.649-1.234.9-.42.243-.839.48-1.258.719a16.322,16.322,0,0,1-.077-2.592,36.85,36.85,0,0,1,.454-3.861,2.9,2.9,0,0,0,2.007-.46c.39-.353.847-.618,1.239-.97q-.311-.039-.618-.065a2.927,2.927,0,0,0-.991-1.5,1.77,1.77,0,0,0-1.235-.307.982.982,0,0,0-.53.262,2.113,2.113,0,0,0-.657,1.367l-.074-.034a1.489,1.489,0,0,1-.823-.63c-.325-.572-.093-1.24-.1-1.854a2.246,2.246,0,0,0-.71,2.383c.2.659.806,1.019,1.333,1.4a26.017,26.017,0,0,0,10.089,26.177l.126-.2a.413.413,0,0,0,.057-.089c.073-.118.148-.234.221-.352.894-1.429,1.824-2.836,2.719-4.265.173-.265.528-.263.795-.384-.123-.676-.282-1.341-.441-2.007" transform="translate(-441.401 -51.426)" fill="#226842"/>
  <path id="Path_3492" data-name="Path 3492" d="M604.425,120.254c-.341.46.1.943.491,1.182.271-.085.617-.048.828-.277.272-.207.229-.6.157-.893a.834.834,0,0,0-1.476-.011m-5.25-4.605c.463-.479.945-.939,1.418-1.411.375.16.683.51,1.131.472,1.836,0,3.664.239,5.5.232a18.283,18.283,0,0,1-1,4.23c.311.332.72.666.72,1.164a1.824,1.824,0,0,1-.625,1.674,2.624,2.624,0,0,1-1.4.465,23.1,23.1,0,0,1-1.222,2.25c.519.467,1.247.853,1.358,1.61a1.432,1.432,0,0,1-.861,1.549c-.023-.376-.006-.753-.011-1.13a6.8,6.8,0,0,0-2.076-1.36,2.327,2.327,0,0,0-1.132-.182,10.4,10.4,0,0,0-.085-1.848,14.685,14.685,0,0,0,1.727.909,12.983,12.983,0,0,0,1.295-2.187,2,2,0,0,1-.237-2.554,2.17,2.17,0,0,1,1.585-.847,21.681,21.681,0,0,0,.7-2.616,29.849,29.849,0,0,0-3.364-.318,25.268,25.268,0,0,0-3.433-.1" transform="translate(-550.174 -80.754)" fill="#226842"/>
  <path id="Path_3493" data-name="Path 3493" d="M505.959,164.577c.437-.9,1.557-.869,2.312-1.358a13.313,13.313,0,0,0,.435,1.9c.348,1.036.492,2.128.831,3.167.232.078.607-.055.758.2a6.151,6.151,0,0,1,.207.949c-.662-.073-1.306-.239-1.962-.342a19.88,19.88,0,0,0-1.1-4.284l-.331.026a3.351,3.351,0,0,0,.073,2.56c.133.476.257.956.419,1.423a6.186,6.186,0,0,0-1.275.427c0,.06,0,.181,0,.242a22.426,22.426,0,0,0,4.866,1.088,26.407,26.407,0,0,0,5.27.061c-.08.379-.187.751-.3,1.121a25.893,25.893,0,0,1-5.931-.234,27.122,27.122,0,0,1-5.955-1.605c.166-1.009,1.188-1.4,1.946-1.889-.183-1.13-.761-2.33-.261-3.457" transform="translate(-483.089 -115.377)" fill="#226842"/>
  <path id="Path_3494" data-name="Path 3494" d="M600.3,107.337a21.321,21.321,0,0,1,1.817-1.634c.288.164.489.5.836.545,1.768.076,3.546.038,5.308.216-.014.354-.033.706-.053,1.059-2.637-.032-5.274-.136-7.908-.187" transform="translate(-550.97 -74.72)" fill="#226842"/>
  <path id="Path_3495" data-name="Path 3495" d="M564.084,154.8a1.412,1.412,0,0,1,1.62.189,3.427,3.427,0,0,1,1.079,1.079,25.3,25.3,0,0,1-2.808,3.012,28.432,28.432,0,0,1-5.447,3.777,26.477,26.477,0,0,1-3.473,1.458,22.686,22.686,0,0,1-3.289.9c.046.611.264,1.311-.12,1.859a1.491,1.491,0,0,1-1.309.333,2.382,2.382,0,0,0,.456-.586,5.723,5.723,0,0,0-.251-2,2.867,2.867,0,0,0-.784-1.285,6.62,6.62,0,0,0,1.295-1.235c.174.627.364,1.253.487,1.893a33.483,33.483,0,0,0,4.4-1.344,25.7,25.7,0,0,0,8.511-5.768,7.055,7.055,0,0,1,1.037-1c-.267-.221-.592-.561-.972-.381a6.992,6.992,0,0,0-.853.751,24.288,24.288,0,0,1-5.534,4.236c-.626.3-1.248.614-1.867.926-.773.382-1.629.543-2.4.917a3.563,3.563,0,0,1-.626.15c.544-.71.864-1.55,1.345-2.3.341-.572.568-1.21.933-1.771a9.332,9.332,0,0,1-.682,2.51,22.5,22.5,0,0,0,7.537-4.792c.619-.457.973-1.224,1.719-1.518" transform="translate(-515.242 -109.3)" fill="#226842"/>
  <path id="Path_3496" data-name="Path 3496" d="M548.93,173.316a.641.641,0,1,0-.64.64.64.64,0,0,0,.64-.64" transform="translate(-513.75 -122.062)" fill="#226842"/>
  <path id="Path_3497" data-name="Path 3497" d="M559.519,17.988c.382.1.758.231,1.137.348-.4,1.521-.979,2.98-1.376,4.5-.225.988-.713,1.888-.924,2.88-.383-.7-.749-1.406-1.109-2.112.269-.222.617-.384.755-.73.252-.577.353-1.21.567-1.8a25.914,25.914,0,0,0,.951-3.083" transform="translate(-520.535 -12.716)" fill="#226842"/>
  <path id="Path_3498" data-name="Path 3498" d="M567.52,21.031a11.214,11.214,0,0,1,2.17,1A25.992,25.992,0,0,1,579,30.39c.616.742.971,1.651,1.51,2.443a26.325,26.325,0,0,1,1.853,4.551,22.938,22.938,0,0,1,1.125,6.932c-.515.01-1.028.038-1.541.044a2.121,2.121,0,0,0,.348-1.145,20.077,20.077,0,0,0-.727-4.809c-.322-.829-.546-1.691-.868-2.52a26.5,26.5,0,0,0-3.388-6.01l-.176-.073a4.824,4.824,0,0,0-.447.684c0,.362.274.626.469.9a24.181,24.181,0,0,1,4.2,11.657c-.653-.437-1.151-1.056-1.769-1.533-.471-.36-.914-.755-1.4-1.085a4,4,0,0,1-.358-.382,7.982,7.982,0,0,1,2.344,1.257,22.062,22.062,0,0,0-1.279-4.494,20.8,20.8,0,0,0-1.529-3.244c-.46-.85-1.121-1.581-1.523-2.459a1.728,1.728,0,0,1,.784-2.045,10.767,10.767,0,0,0-1.608-1.747c-.445.706-1.459,1.128-1.34,2.1a8.427,8.427,0,0,0-1.58-.477c.682-.83,1.433-1.6,2.116-2.432a24.353,24.353,0,0,0-2.54-1.96c-.511.687-1.232,1.361-1.141,2.3a4.98,4.98,0,0,0-1.476-.429c.5-.885,1.169-1.659,1.714-2.515a21.107,21.107,0,0,0-2.54-1.367c-.262,1.211-.74,2.356-1.035,3.559-.214.994-.6,1.941-.827,2.929L566.14,29c-.206-.657-.74-1.147-.929-1.8.187-.052.371-.112.557-.182a9.541,9.541,0,0,0,.585-1.925c.475-1.327.8-2.7,1.168-4.059" transform="translate(-526.165 -14.867)" fill="#226842"/>
  <path id="Path_3499" data-name="Path 3499" d="M590.289,23.363a.641.641,0,1,0-.641.641.641.641,0,0,0,.641-.641" transform="translate(-542.987 -16.062)" fill="#226842"/>
  <path id="Path_3500" data-name="Path 3500" d="M586.645,52.32a.641.641,0,1,0-.64.64.64.64,0,0,0,.64-.64" transform="translate(-540.411 -36.532)" fill="#226842"/>
  <g id="Group_481" data-name="Group 481" clip-path="url(#clip-path)">
    <path id="Path_3501" data-name="Path 3501" d="M463.8,60.824a29.971,29.971,0,0,1-3.823-59.7,3.856,3.856,0,0,0,2.068,2.931,3.85,3.85,0,0,0,0,6.86,3.852,3.852,0,0,0-2.1,3.43c0,.01,0,.019,0,.03a16.923,16.923,0,1,0,7.709,0c0-.01,0-.019,0-.03a3.853,3.853,0,0,0-2.1-3.43,3.851,3.851,0,0,0,0-6.86,3.857,3.857,0,0,0,2.067-2.931,29.971,29.971,0,0,1-3.822,59.7M460.807,7.487a2.991,2.991,0,1,1,2.992,2.991,2.995,2.995,0,0,1-2.992-2.991m2.992,6.444a17.071,17.071,0,0,0-2.984.267,2.987,2.987,0,0,1,5.968,0,17.093,17.093,0,0,0-2.984-.267m-2.9,1.146a15.867,15.867,0,0,1,5.795,0q.428.077.846.177a16.043,16.043,0,1,1-7.487,0q.419-.1.846-.177M463.8.883q1.5,0,2.961.147a2.988,2.988,0,0,1-5.922,0Q462.3.886,463.8.883m3.836-.642c-.294-.037-.591-.069-.887-.1C465.777.053,464.793,0,463.8,0s-1.979.049-2.949.141c-.3.027-.593.06-.887.1a30.849,30.849,0,1,0,7.672,0" transform="translate(-432.671 -0.003)" fill="#226842"/>
  </g>
</svg>
