<svg xmlns="http://www.w3.org/2000/svg" xmlns:xlink="http://www.w3.org/1999/xlink" viewBox="0 0 183.68 63.76" xmlns:v="https://vecta.io/nano"><defs><linearGradient id="A" x1="42.07" y1="11.64" x2="69.56" y2="26.26" gradientUnits="userSpaceOnUse"><stop offset="0" stop-color="#99d633"/><stop offset=".5" stop-color="#3c9"/><stop offset="1" stop-color="#273470"/></linearGradient><linearGradient id="B" x1="32.48" y1="29.66" x2="59.98" y2="44.28" xlink:href="#A"/><linearGradient id="C" x1="32.94" y1="28.8" x2="60.43" y2="43.42" xlink:href="#A"/><linearGradient id="D" x1="37.33" y1="20.54" x2="64.83" y2="35.16" xlink:href="#A"/><linearGradient id="E" x1="27.22" y1="39.56" x2="54.71" y2="54.18" xlink:href="#A"/><linearGradient id="F" x1="32.33" y1="29.96" x2="59.81" y2="44.58" xlink:href="#A"/><linearGradient id="G" x1="28.43" y1="37.28" x2="55.92" y2="51.9" xlink:href="#A"/><linearGradient id="H" x1="32.91" y1="39.66" x2="60.41" y2="54.29" xlink:href="#A"/><linearGradient id="I" x1="23.09" y1="47.32" x2="50.59" y2="61.94" xlink:href="#A"/><linearGradient id="J" x1="32.7" y1="29.24" x2="60.2" y2="43.87" xlink:href="#A"/><linearGradient id="K" x1="23.62" y1="46.32" x2="51.11" y2="60.95" xlink:href="#A"/><linearGradient id="L" x1="19.44" y1="54.19" x2="46.93" y2="68.81" xlink:href="#A"/><linearGradient id="M" x1="-0.35" y1="37.84" x2="34.06" y2="62.08" xlink:href="#A"/><linearGradient id="N" x1="11.71" y1="46.34" x2="46.13" y2="70.59" xlink:href="#A"/><linearGradient id="O" x1="29.11" y1="14.79" x2="63.53" y2="39.04" xlink:href="#A"/><linearGradient id="P" x1="12.77" y1="37.98" x2="47.19" y2="62.22" xlink:href="#A"/><linearGradient id="Q" x1="17.8" y1="30.85" x2="52.21" y2="55.09" xlink:href="#A"/><linearGradient id="R" x1="18.62" y1="29.67" x2="53.05" y2="53.92" xlink:href="#A"/><linearGradient id="S" x1="32.8" y1="80.36" x2="34.84" y2="47.76" gradientUnits="userSpaceOnUse"><stop offset="0" stop-color="#6cf"/><stop offset=".5" stop-color="#6258a6"/><stop offset="1" stop-color="#273470"/></linearGradient><linearGradient id="T" x1="42.78" y1="33.15" x2="44.81" y2=".55" xlink:href="#S"/><linearGradient id="U" x1="42.65" y1="33.14" x2="44.69" y2=".54" xlink:href="#S"/><linearGradient id="V" x1="32.75" y1="32.52" x2="34.79" y2="-.07" xlink:href="#S"/><linearGradient id="W" x1="33.52" y1="32.57" x2="35.56" y2="-.03" xlink:href="#S"/><linearGradient id="X" x1="24.64" y1="32.01" x2="26.68" y2="-.58" xlink:href="#S"/><linearGradient id="Y" x1="23.86" y1="31.96" x2="25.9" y2="-.63" xlink:href="#S"/><linearGradient id="Z" x1="23.09" y1="31.92" x2="25.13" y2="-.68" xlink:href="#S"/><linearGradient id="a" x1="14.95" y1="31.41" x2="16.99" y2="-1.19" xlink:href="#S"/><linearGradient id="b" x1="12.01" y1="31.22" x2="14.04" y2="-1.37" xlink:href="#S"/><linearGradient id="c" x1="43.5" y1="31.78" x2="43.5" y2="-.47" gradientUnits="userSpaceOnUse"><stop offset="0" stop-color="#6cf"/><stop offset=".5" stop-color="#6258a6"/><stop offset="1" stop-color="#273470"/></linearGradient><linearGradient id="d" y1="60.02" y2="27.77" xlink:href="#c"/><linearGradient id="e" x1="34.14" x2="34.14" xlink:href="#c"/><linearGradient id="f" x1="24.78" x2="24.78" xlink:href="#c"/><linearGradient id="g" x1="34.14" y1="77.03" x2="34.14" y2="44.78" xlink:href="#c"/><linearGradient id="h" x1="3.37" y1="31.77" x2="3.37" y2="-.46" xlink:href="#c"/><linearGradient id="i" x1="50.11" y1="48.31" x2="9.18" y2="70.49" gradientUnits="userSpaceOnUse"><stop offset="0" stop-color="#fdbd4d"/><stop offset=".5" stop-color="#f63"/><stop offset="1" stop-color="#273470"/></linearGradient><linearGradient id="j" x1="41.06" y1="31.61" x2=".13" y2="53.79" xlink:href="#i"/><linearGradient id="k" x1="46.85" y1="42.3" x2="5.93" y2="64.48" xlink:href="#i"/><linearGradient id="l" x1="37.01" y1="24.16" x2="-3.9" y2="46.34" xlink:href="#i"/><linearGradient id="m" x1="60.57" y1="32.02" x2="19.65" y2="54.2" xlink:href="#i"/><linearGradient id="n" x1="41.98" y1="33.3" x2="1.05" y2="55.49" xlink:href="#i"/><linearGradient id="o" x1="31.76" y1="14.46" x2="-9.17" y2="36.64" xlink:href="#i"/><linearGradient id="p" x1="32.22" y1="15.31" x2="-8.7" y2="37.49" xlink:href="#i"/><linearGradient id="q" x1="36.62" y1="45.2" x2="7.7" y2="62.03" xlink:href="#i"/><linearGradient id="r" x1="26.93" y1="28.54" x2="-1.99" y2="45.37" xlink:href="#i"/><linearGradient id="s" x1="37.23" y1="46.25" x2="8.31" y2="63.08" xlink:href="#i"/><linearGradient id="t" x1="32.39" y1="37.93" x2="3.47" y2="54.76" xlink:href="#i"/><linearGradient id="u" x1="51.23" y1="48.96" x2="22.31" y2="65.78" xlink:href="#i"/><linearGradient id="v" x1="31.37" y1="36.18" x2="2.45" y2="53.01" xlink:href="#i"/><linearGradient id="w" x1="26.67" y1="28.1" x2="-2.25" y2="44.93" xlink:href="#i"/><linearGradient id="x" x1="26.42" y1="27.67" x2="-2.5" y2="44.5" xlink:href="#i"/><linearGradient id="y" x1="17.2" y1="11.82" x2="-11.72" y2="28.65" xlink:href="#i"/><linearGradient id="z" x1="26.85" y1="28.41" x2="-2.07" y2="45.24" xlink:href="#i"/><path id="AA" d="M47.24 43.3l-7.48 4.32v-8.64l7.48 4.32z"/><path id="AB" d="M36.95 60.52l-5.62 3.24v-6.48l5.62 3.24z"/><path id="AC" d="M95.38 53.47h-.85v1.04l.85-.49v-.55z"/></defs><path d="M29.46 21.69l-9.36 5.4v10.8l9.36 5.41 9.36-5.4V27.09l-9.36-5.4z" fill="#3c9"/><path d="M58.42 17.09v6.49l-5.62-3.24 5.62-3.25z" fill="url(#A)"/><path d="M58.13 40.06v6.48l-5.61-3.24 5.61-3.24z" fill="url(#B)"/><path d="M55.67 37.9l-5.62 3.24v-6.49l5.62 3.25z" fill="url(#C)"/><path d="M59.18 28.91v6.49l-5.62-3.24 5.62-3.25z" fill="url(#D)"/><path d="M46.31 46.47v6.48l-5.62-3.24 5.62-3.24z" fill="url(#E)"/><path d="M47.24 42.22l-7.48-4.32 7.48-4.33v8.65z" fill="url(#F)"/><use xlink:href="#AA" fill="url(#G)"/><use xlink:href="#AA" y="-10.81" fill="url(#H)"/><path d="M47.82 57.48l-5.61 3.24v-6.48l5.61 3.24z" fill="url(#I)"/><path d="M38.82 37.9l-9.36-5.41 9.36-5.4V37.9z" fill="url(#J)"/><path d="M37.88 49.93l-7.48 4.32V45.6l7.48 4.33z" fill="url(#K)"/><use xlink:href="#AB" fill="url(#L)"/><use xlink:href="#AB" x="20.29" y="-10.02" fill="url(#M)"/><use xlink:href="#AB" x="18.72" y="-33.43" fill="url(#N)"/><path d="M47.24 22.77v8.64l-7.48-4.32 7.48-4.32z" fill="url(#O)"/><path d="M36.95 51.41v6.48l-5.61-3.24 5.61-3.24z" fill="url(#P)"/><path d="M37.88 48.85l-7.48-4.33 7.48-4.32v8.65z" fill="url(#Q)"/><path d="M29.46 32.49l9.36 5.41-9.36 5.4V32.49z" fill="url(#R)"/><use xlink:href="#AB" x="19.73" y="-46.6" fill="url(#S)"/><path d="M47.48 4.46l-5.62 3.25V1.22l5.62 3.24z" fill="url(#T)"/><path d="M47.24 21.69l-7.48 4.32v-8.65l7.48 4.33z" fill="url(#U)"/><path d="M36.95 11.89l-5.62-3.24 5.62-3.24v6.48z" fill="url(#V)"/><path d="M37.88 16.14v8.65l-7.48-4.33 7.48-4.32z" fill="url(#W)"/><path d="M29.46 21.69v10.8l-9.36-5.4 9.36-5.4z" fill="url(#X)"/><path d="M28.53 19.38l-7.49-4.32 7.49-4.33v8.65z" fill="url(#Y)"/><path d="M27.59 6.48l-5.62-3.24L27.59 0v6.48z" fill="url(#Z)"/><path d="M19.16 26.01l-7.48-4.33 7.48-4.32v8.65z" fill="url(#a)"/><path d="M16.15 4.93v6.49l-5.61-3.24 5.61-3.25z" fill="url(#b)"/><path d="M46.31 18.52l-5.62-3.25 5.62-3.24v6.49z" fill="url(#c)"/><g fill="url(#d)"><path d="M36.95 3.24l-5.62 3.24V0l5.62 3.24z"/><use xlink:href="#AA" x="-9.36" y="-28.24"/></g><path d="M38.82 27.09l-9.36 5.4v-10.8l9.36 5.4z" fill="url(#e)"/><path d="M27.59 10.47l-5.62 3.25V7.23l5.62 3.24z" fill="url(#f)"/><path d="M28.52 20.46l-7.48 4.33v-8.65l7.48 4.32z" fill="url(#f)"/><use xlink:href="#AB" x="-18.72" y="-45.25" fill="url(#g)"/><path d="M6.18 20.14L.56 16.9l5.62-3.25v6.49z" fill="url(#h)"/><path d="M27.59 63.76l-5.62-3.24 5.62-3.24v6.48z" fill="url(#i)"/><path d="M29.46 32.49V43.3l-9.36-5.41 9.36-5.4z" fill="url(#j)"/><path d="M18.23 54.57v6.49l-5.62-3.24 5.62-3.25z" fill="url(#k)"/><path d="M19.16 37.9l-7.48 4.32v-8.65l7.48 4.33z" fill="url(#l)"/><use xlink:href="#AA" x="-28.08" y="-16.21" fill="url(#m)"/><path d="M7.86 48.56v6.48L2.24 51.8l5.62-3.24z" fill="url(#n)"/><path d="M8.87 23.62v6.49l-5.62-3.24 5.62-3.25z" fill="url(#o)"/><path d="M5.62 32.77L0 36.01v-6.48l5.62 3.24z" fill="url(#p)"/><path d="M28.52 54.25l-7.48-4.32 7.48-4.33v8.65z" fill="url(#q)"/><path d="M29.46 32.49l-9.36 5.4v-10.8l9.36 5.4z" fill="url(#r)"/><path d="M27.59 55.12l-5.62 3.24v-6.49l5.62 3.25z" fill="url(#s)"/><path d="M28.52 44.52l-7.48 4.33V40.2l7.48 4.32z" fill="url(#t)"/><use xlink:href="#AB" x="-18.72" y="-10.81" fill="url(#u)"/><path d="M19.16 38.98v8.64l-7.48-4.32 7.48-4.32z" fill="url(#v)"/><path d="M19.16 28.17v8.64l-7.48-4.32 7.48-4.32z" fill="url(#w)"/><path d="M8.87 41.14L3.25 37.9l5.62-3.24v6.48z" fill="url(#x)"/><path d="M5.84 21.69L.23 24.93.22 18.44l5.62 3.25z" fill="url(#y)"/><path d="M6.18 43.69L.56 46.94v-6.49l5.62 3.24z" fill="url(#z)"/><g fill="#231f20"><path d="M75.89 57.2a2.64 2.64 0 0 0-.73-.37 8.19 8.19 0 0 0-.85-.23l-.84-.19a4.21 4.21 0 0 1-.73-.22 1.29 1.29 0 0 1-.52-.33.77.77 0 0 1-.2-.54 1.16 1.16 0 0 1 .14-.58 1.09 1.09 0 0 1 .36-.38 1.65 1.65 0 0 1 .51-.2 3 3 0 0 1 .59-.06 2 2 0 0 1 1.22.35 1.5 1.5 0 0 1 .56 1.11h.9a2.55 2.55 0 0 0-.23-1 2.08 2.08 0 0 0-.56-.71 2.48 2.48 0 0 0-.83-.41 4.06 4.06 0 0 0-1-.13 3.4 3.4 0 0 0-1 .13 2.52 2.52 0 0 0-.83.38 1.84 1.84 0 0 0-.81 1.58 1.52 1.52 0 0 0 .2.81 1.58 1.58 0 0 0 .52.54 2.71 2.71 0 0 0 .73.33l.84.22.84.18a3.57 3.57 0 0 1 .74.24 1.42 1.42 0 0 1 .51.38.89.89 0 0 1 .2.6 1.24 1.24 0 0 1-.16.64 1.21 1.21 0 0 1-.42.39 1.88 1.88 0 0 1-.59.21 3.57 3.57 0 0 1-.65.06 2.88 2.88 0 0 1-.78-.1 2 2 0 0 1-.66-.31 1.51 1.51 0 0 1-.46-.54 1.54 1.54 0 0 1-.18-.77h-.9a2.44 2.44 0 0 0 .24 1.12 2.15 2.15 0 0 0 .64.79 2.66 2.66 0 0 0 .94.46 4.11 4.11 0 0 0 1.13.15 4.19 4.19 0 0 0 1-.12 3 3 0 0 0 .9-.38 2.16 2.16 0 0 0 .65-.66 1.78 1.78 0 0 0 .26-1 1.82 1.82 0 0 0-.2-.88 1.69 1.69 0 0 0-.49-.56zm5.81 2.65a1.63 1.63 0 0 1 0-.44v-2.66a1.47 1.47 0 0 0-.17-.74 1.16 1.16 0 0 0-.45-.43 2.06 2.06 0 0 0-.62-.21 5.62 5.62 0 0 0-.7 0 3.62 3.62 0 0 0-.82.09 2 2 0 0 0-.69.3 1.53 1.53 0 0 0-.48.53 1.87 1.87 0 0 0-.2.82h.85a.88.88 0 0 1 .39-.78 1.76 1.76 0 0 1 .9-.21 2.69 2.69 0 0 1 .4 0 1.13 1.13 0 0 1 .38.12.7.7 0 0 1 .27.27.83.83 0 0 1 .1.45.46.46 0 0 1-.14.36.9.9 0 0 1-.38.19 3.78 3.78 0 0 1-.56.1 5.67 5.67 0 0 0-.66.11c-.22 0-.44.09-.65.15a1.82 1.82 0 0 0-.56.27 1.23 1.23 0 0 0-.39.45 1.48 1.48 0 0 0-.15.72 1.47 1.47 0 0 0 .13.66 1.1 1.1 0 0 0 .37.45 1.36 1.36 0 0 0 .54.26 2.93 2.93 0 0 0 .67.08 2.54 2.54 0 0 0 1-.19 2 2 0 0 0 .82-.61.83.83 0 0 0 .2.61.69.69 0 0 0 .52.19 1.2 1.2 0 0 0 .61-.14v-.66a.85.85 0 0 1-.26.05c-.17-.01-.25-.07-.27-.16zm-.89-1a.92.92 0 0 1-.09.38 1 1 0 0 1-.28.38 1.39 1.39 0 0 1-.49.29 1.94 1.94 0 0 1-.72.12 1.58 1.58 0 0 1-.38 0 1 1 0 0 1-.32-.13.67.67 0 0 1-.3-.59.92.92 0 0 1 .08-.4.75.75 0 0 1 .23-.27 1 1 0 0 1 .33-.16 2.6 2.6 0 0 1 .4-.1l.43-.07a2.79 2.79 0 0 0 .43-.06l.38-.08a1 1 0 0 0 .3-.14zm5.61-.48a2.15 2.15 0 0 1-.1.64 1.53 1.53 0 0 1-.28.52 1.39 1.39 0 0 1-.48.34 1.76 1.76 0 0 1-.68.12 1 1 0 0 1-.77-.28 1.06 1.06 0 0 1-.28-.76v-3.51H83v3.41a3 3 0 0 0 .09.76 1.4 1.4 0 0 0 .29.6 1.38 1.38 0 0 0 .55.39 2.32 2.32 0 0 0 .85.14 2.07 2.07 0 0 0 1-.23 1.77 1.77 0 0 0 .7-.71h0v.82h.8v-5.18h-.85zm5.9-2.24h0a1.38 1.38 0 0 0-.34-.38 2.16 2.16 0 0 0-.44-.25 2.69 2.69 0 0 0-.46-.14 3.44 3.44 0 0 0-.43 0 2.45 2.45 0 0 0-1 .22 2.22 2.22 0 0 0-.74.58 2.8 2.8 0 0 0-.44.86 3.84 3.84 0 0 0-.14 1 3.58 3.58 0 0 0 .15 1 2.8 2.8 0 0 0 .44.86 2.28 2.28 0 0 0 .74.6 2.32 2.32 0 0 0 1.05.22 2.47 2.47 0 0 0 1-.2 1.25 1.25 0 0 0 .66-.62h0v.7h.85v-7.11h-.85zm0 2.62a1.84 1.84 0 0 1-.28.62 1.51 1.51 0 0 1-.49.45 1.49 1.49 0 0 1-.73.17 1.53 1.53 0 0 1-.72-.16 1.49 1.49 0 0 1-.5-.43 2.08 2.08 0 0 1-.29-.62 2.74 2.74 0 0 1-.09-.7 3 3 0 0 1 .08-.74 1.83 1.83 0 0 1 .26-.64 1.47 1.47 0 0 1 .47-.46 1.53 1.53 0 0 1 .74-.17 1.6 1.6 0 0 1 .75.17 1.46 1.46 0 0 1 .51.44 1.76 1.76 0 0 1 .28.62 3 3 0 0 1 .09.74 3.43 3.43 0 0 1-.13.71zm2.21-3.31h.85v5.17h-.85zm7.55-1.97h-2.45v7.15h2.45a4.21 4.21 0 0 0 1.54-.25 2.65 2.65 0 0 0 1.07-.73 2.85 2.85 0 0 0 .62-1.17 5.49 5.49 0 0 0 .2-1.59 3.36 3.36 0 0 0-.89-2.57 3.55 3.55 0 0 0-2.54-.84zm2.35 4.66a2.82 2.82 0 0 1-.35.78 2 2 0 0 1-.47.49 2.27 2.27 0 0 1-.54.27 1.71 1.71 0 0 1-.51.12h-1.98v-5.52h1.6a3 3 0 0 1 1.11.19 2 2 0 0 1 .71.54 2.29 2.29 0 0 1 .41.86 5 5 0 0 1 .12 1.15 4.05 4.05 0 0 1-.1 1.12zm6.19 1.72a2.36 2.36 0 0 1 0-.44v-2.66a1.47 1.47 0 0 0-.17-.74 1.32 1.32 0 0 0-.45-.43 2.13 2.13 0 0 0-.63-.21 5.34 5.34 0 0 0-.69 0 3.62 3.62 0 0 0-.82.09 2 2 0 0 0-.7.3 1.53 1.53 0 0 0-.48.53 2 2 0 0 0-.2.82h.85a.89.89 0 0 1 .4-.78 1.76 1.76 0 0 1 .9-.21h.4a1.07 1.07 0 0 1 .37.12.7.7 0 0 1 .27.27.83.83 0 0 1 .11.45.46.46 0 0 1-.14.36 1 1 0 0 1-.38.19 3.78 3.78 0 0 1-.56.1 5.67 5.67 0 0 0-.66.11c-.22 0-.44.09-.65.15a1.71 1.71 0 0 0-.56.27 1.25 1.25 0 0 0-.4.45 1.48 1.48 0 0 0-.15.72 1.46 1.46 0 0 0 .14.66 1.16 1.16 0 0 0 .36.45 1.47 1.47 0 0 0 .55.26 2.86 2.86 0 0 0 .67.08 2.54 2.54 0 0 0 1-.19 2.18 2.18 0 0 0 .82-.61.83.83 0 0 0 .19.61.72.72 0 0 0 .53.19 1.22 1.22 0 0 0 .61-.14v-.66a.91.91 0 0 1-.26.05c-.17-.01-.24-.07-.27-.16zm-.88-1a.92.92 0 0 1-.09.38 1.14 1.14 0 0 1-.28.38 1.39 1.39 0 0 1-.49.29 1.94 1.94 0 0 1-.72.12 1.53 1.53 0 0 1-.38 0 1 1 0 0 1-.32-.13.73.73 0 0 1-.22-.24.63.63 0 0 1-.09-.35.79.79 0 0 1 .09-.4.75.75 0 0 1 .23-.27 1 1 0 0 1 .33-.16 2.34 2.34 0 0 1 .4-.1l.43-.07a3 3 0 0 0 .43-.06l.38-.08a1 1 0 0 0 .3-.14zm3.35-4.96h-.85v1.55h-.88v.75h.88v3.3a1.87 1.87 0 0 0 .07.58.76.76 0 0 0 .21.34.87.87 0 0 0 .39.16 2.9 2.9 0 0 0 .56 0h.65v-.75h-.71a.47.47 0 0 1-.2-.06.22.22 0 0 1-.09-.14.78.78 0 0 1 0-.24v-3.19h1v-.75h-1zm6.06 5.96a2.36 2.36 0 0 1 0-.44v-2.66A1.47 1.47 0 0 0 119 56a1.32 1.32 0 0 0-.45-.43 2.13 2.13 0 0 0-.63-.21 5.36 5.36 0 0 0-.7 0 3.68 3.68 0 0 0-.82.09 2 2 0 0 0-.69.3 1.53 1.53 0 0 0-.48.53 2 2 0 0 0-.2.82h.85a.88.88 0 0 1 .39-.78 1.76 1.76 0 0 1 .9-.21 2.83 2.83 0 0 1 .41 0 1.07 1.07 0 0 1 .37.12.7.7 0 0 1 .27.27.83.83 0 0 1 .1.45.43.43 0 0 1-.14.36.9.9 0 0 1-.38.19 3.63 3.63 0 0 1-.55.1 6.21 6.21 0 0 0-.67.11c-.22 0-.43.09-.64.15a1.71 1.71 0 0 0-.56.27 1.17 1.17 0 0 0-.4.45 1.48 1.48 0 0 0-.15.72 1.46 1.46 0 0 0 .14.66 1.16 1.16 0 0 0 .36.45 1.47 1.47 0 0 0 .55.26 2.84 2.84 0 0 0 .66.08 2.59 2.59 0 0 0 1-.19 2.07 2.07 0 0 0 .81-.61.83.83 0 0 0 .2.61.72.72 0 0 0 .53.19 1.22 1.22 0 0 0 .61-.14v-.66a.91.91 0 0 1-.26.05c-.18 0-.26-.06-.28-.15zm-.89-1a.92.92 0 0 1-.09.38 1 1 0 0 1-.28.38 1.3 1.3 0 0 1-.49.29 1.94 1.94 0 0 1-.72.12 1.58 1.58 0 0 1-.38 0 1 1 0 0 1-.31-.13.64.64 0 0 1-.22-.24.63.63 0 0 1-.09-.35.79.79 0 0 1 .09-.4.73.73 0 0 1 .22-.27 1.26 1.26 0 0 1 .33-.16 2.6 2.6 0 0 1 .4-.1l.44-.07a2.65 2.65 0 0 0 .42-.06l.38-.08a1 1 0 0 0 .3-.14zm9.57-.27a2.79 2.79 0 0 0 .14-.37 2.59 2.59 0 0 0 .09-.42q0-.23.06-.54h-.81a3.55 3.55 0 0 1-.23 1.11l-1.29-1.57a4.39 4.39 0 0 0 .5-.34 2.14 2.14 0 0 0 .43-.42 1.71 1.71 0 0 0 .3-.5 1.46 1.46 0 0 0 .11-.6 1.39 1.39 0 0 0-.14-.63 1.35 1.35 0 0 0-.39-.46 1.51 1.51 0 0 0-.55-.28 2.37 2.37 0 0 0-.65-.09 1.85 1.85 0 0 0-.69.12 1.37 1.37 0 0 0-.5.33 1.25 1.25 0 0 0-.31.47 1.56 1.56 0 0 0 0 1 1.38 1.38 0 0 0 .18.41 3.11 3.11 0 0 0 .25.38l.29.41a5.68 5.68 0 0 0-.64.38 2.73 2.73 0 0 0-.54.46 2 2 0 0 0-.36.58 1.88 1.88 0 0 0-.13.74 2.57 2.57 0 0 0 .07.55 1.68 1.68 0 0 0 .32.64 2 2 0 0 0 .68.53 2.54 2.54 0 0 0 1.16.23 2.44 2.44 0 0 0 .59-.07 2.31 2.31 0 0 0 .56-.19 2.13 2.13 0 0 0 .49-.31 1.77 1.77 0 0 0 .38-.44l.76.89H129L127.64 59c.08-.15.14-.29.19-.42zm-2.94-4.17a1 1 0 0 1 .57-.19.81.81 0 0 1 .6.23.73.73 0 0 1 .22.53.93.93 0 0 1-.09.42 1.5 1.5 0 0 1-.23.33 2 2 0 0 1-.31.27l-.32.22-.25-.3-.22-.3a1.91 1.91 0 0 1-.16-.32.71.71 0 0 1-.07-.32.65.65 0 0 1 .26-.57zm1.16 5.35a1.72 1.72 0 0 1-.88.23 1.43 1.43 0 0 1-.5-.09 1.36 1.36 0 0 1-.44-.25 1.16 1.16 0 0 1-.42-.87 1.37 1.37 0 0 1 .1-.56 1.68 1.68 0 0 1 .27-.42 1.89 1.89 0 0 1 .4-.34 5.35 5.35 0 0 1 .47-.29l1.64 2a2.1 2.1 0 0 1-.64.59zm8.34-6.29l-2.79 7.15h1l.8-2.15h3l.78 2.15h1l-2.79-7.15zm-.71 4.2l1.21-3.34 1.19 3.34zm5.29-4.2h.95v7.15h-.95zm7.28 0l-2.79 7.15h1l.8-2.15h3l.78 2.15h1.05l-2.79-7.15zm-.71 4.2l1.21-3.34 1.25 3.34zm8.55.7a1.87 1.87 0 0 1-.1.64 1.53 1.53 0 0 1-.28.52 1.39 1.39 0 0 1-.48.34 1.71 1.71 0 0 1-.67.12 1 1 0 0 1-1.05-1v-3.55h-.86v3.41a3 3 0 0 0 .09.76 1.54 1.54 0 0 0 .3.6 1.31 1.31 0 0 0 .55.39 2.29 2.29 0 0 0 .85.14 2.06 2.06 0 0 0 1-.23 1.71 1.71 0 0 0 .7-.71h0v.82h.8v-5.18h-.85zm3.31-4.48h-.85v1.55h-.88v.75h.88v3.3a1.87 1.87 0 0 0 .07.58.7.7 0 0 0 .22.34.78.78 0 0 0 .38.16 2.9 2.9 0 0 0 .56 0h.65v-.75h-.75a.47.47 0 0 1-.2-.06.22.22 0 0 1-.09-.14.78.78 0 0 1 0-.24v-3.19h1v-.75h-1zm5.88 1.96a1.61 1.61 0 0 0-.55-.39 2.32 2.32 0 0 0-.85-.14 2.19 2.19 0 0 0-.95.21 1.76 1.76 0 0 0-.4.27 1.41 1.41 0 0 0-.29.4h0v-2.73h-.85v7.15h.85V57.7a2.21 2.21 0 0 1 .1-.65 1.4 1.4 0 0 1 .28-.51 1.3 1.3 0 0 1 .48-.35 1.72 1.72 0 0 1 .68-.12 1 1 0 0 1 1.05 1v3.5h.85v-3.4a3.07 3.07 0 0 0-.09-.77 1.4 1.4 0 0 0-.31-.55zm5.72.26a2.32 2.32 0 0 0-.79-.58 2.6 2.6 0 0 0-1.08-.21 2.65 2.65 0 0 0-1.09.21 2.28 2.28 0 0 0-.78.58 2.2 2.2 0 0 0-.48.86 3.38 3.38 0 0 0-.16 1.07 3.32 3.32 0 0 0 .16 1.06 2.24 2.24 0 0 0 .48.85 2.16 2.16 0 0 0 .78.58 2.65 2.65 0 0 0 1.09.21 2.6 2.6 0 0 0 1.08-.21A2.19 2.19 0 0 0 169 60a2.24 2.24 0 0 0 .48-.85 3.32 3.32 0 0 0 .16-1.06 3.38 3.38 0 0 0-.16-1.07 2.2 2.2 0 0 0-.48-.91zm-.38 2.76a1.72 1.72 0 0 1-.35.61 1.55 1.55 0 0 1-.51.38 1.59 1.59 0 0 1-1.26 0 1.55 1.55 0 0 1-.51-.38 1.72 1.72 0 0 1-.35-.61 3 3 0 0 1 0-1.67 1.81 1.81 0 0 1 .35-.61 1.58 1.58 0 0 1 .51-.39 1.59 1.59 0 0 1 1.26 0 1.58 1.58 0 0 1 .51.39 1.81 1.81 0 0 1 .35.61 3 3 0 0 1 0 1.67zm2.85-2.33h0v-1.1h-.8v5.18h.85v-2.3a3.87 3.87 0 0 1 .1-.88 1.85 1.85 0 0 1 .32-.66 1.34 1.34 0 0 1 .59-.41 2.26 2.26 0 0 1 .87-.15v-.9a2 2 0 0 0-1.15.28 2.3 2.3 0 0 0-.78.94zm2.6-1.1h.85v5.17h-.85zm3.35-1.55h-.85v1.55h-.88v.75h.88v3.3a1.87 1.87 0 0 0 .07.58.76.76 0 0 0 .21.34.88.88 0 0 0 .38.16 3.1 3.1 0 0 0 .57 0h.65v-.75h-.72a.47.47 0 0 1-.19-.06.28.28 0 0 1-.1-.14 1.44 1.44 0 0 1 0-.24v-3.19h1v-.75h-1zm5.35 1.55l-1.45 4.24-1.51-4.24h-1l2 5.15-.35.88a1 1 0 0 1-.28.35.66.66 0 0 1-.42.12.69.69 0 0 1-.25 0l-.25-.08v.78a1.37 1.37 0 0 0 .29.07h.3a1.51 1.51 0 0 0 .5-.07 1 1 0 0 0 .39-.24 1.85 1.85 0 0 0 .32-.43 6.84 6.84 0 0 0 .29-.64l2.26-5.87z"/><use xlink:href="#AC"/><use xlink:href="#AC" x="79.54"/><path d="M70.92 36.1a1.42 1.42 0 0 0 .62.26 5.07 5.07 0 0 0 1 .08h6.07v-3.85h-.82v3h-5.67a1.25 1.25 0 0 1-.49-.13.49.49 0 0 1-.25-.28 1.32 1.32 0 0 1-.08-.49v-1.26h-.82V35a1.89 1.89 0 0 0 .1.67.91.91 0 0 0 .34.43zm9.45.05a1 1 0 0 0 .45.22 2.1 2.1 0 0 0 .58.07h4.1v-3.85h-.82v3H81.5c-.3 0-.49-.06-.58-.18a1 1 0 0 1-.13-.59v-5.53H80v5.77a1.8 1.8 0 0 0 .1.66 1 1 0 0 0 .27.43zm6.92 0a1 1 0 0 0 .45.22 2.17 2.17 0 0 0 .59.07h2.56a3.28 3.28 0 0 0 1-.12.91.91 0 0 0 .56-.53.83.83 0 0 0 .32.46 1 1 0 0 0 .63.19h.82a3.23 3.23 0 0 0 1-.12.89.89 0 0 0 .56-.53.88.88 0 0 0 .32.46 1 1 0 0 0 .63.19h.72a3.53 3.53 0 0 0 1-.12.9.9 0 0 0 .58-.53.86.86 0 0 0 .31.46 1 1 0 0 0 .63.19h2.38v-7.15h-.82v6.32h-1.65a.75.75 0 0 1-.66-.3 1.41 1.41 0 0 1-.2-.8v-5.22h-.82v5.59a1 1 0 0 1-.06.39.47.47 0 0 1-.38.32h-1.12a1.12 1.12 0 0 1-.44-.08.84.84 0 0 1-.27-.22.91.91 0 0 1-.13-.29 3 3 0 0 1 0-.45v-1.96h-.82v2.29a1.32 1.32 0 0 1 0 .39.48.48 0 0 1-.17.22.76.76 0 0 1-.29.1h-1.08a1.1 1.1 0 0 1-.43-.08.84.84 0 0 1-.27-.22.77.77 0 0 1-.13-.35 2.09 2.09 0 0 1 0-.45v-1.9h-.82v2.29a1.32 1.32 0 0 1 0 .39.48.48 0 0 1-.17.22.83.83 0 0 1-.29.1h-2.9c-.3 0-.5-.06-.58-.18a1 1 0 0 1-.13-.59v-5.53h-.82v5.77a1.8 1.8 0 0 0 .1.66 1.13 1.13 0 0 0 .29.43zm19.17-.87a1.77 1.77 0 0 0 .6.26 2.38 2.38 0 0 0 .56.07 3.27 3.27 0 0 0 .53 0 5.16 5.16 0 0 0 .5-.13 1.07 1.07 0 0 0 .48.8 1.18 1.18 0 0 0 .42.16 2.65 2.65 0 0 0 .5 0h4.2v-3.85h-.82v3h-3.28c-.3 0-.5-.06-.58-.18a1 1 0 0 1-.13-.59V32h-1.59a3.06 3.06 0 0 0-.73.1 2.1 2.1 0 0 0-.67.33 1.82 1.82 0 0 0-.49.6 2 2 0 0 0-.19.9 1.75 1.75 0 0 0 .2.87 1.6 1.6 0 0 0 .49.48zm.45-2.23a1.4 1.4 0 0 1 .83-.24h.88v1.77a4.28 4.28 0 0 1-.46.13 2.79 2.79 0 0 1-.47 0 1.2 1.2 0 0 1-.85-.26 1 1 0 0 1 .07-1.45zm11.7 3.08a1 1 0 0 0 .33-.79 1.32 1.32 0 0 0-.1-.46 5.78 5.78 0 0 0-.28-.56l-.49-.8-.7-1.16-.77.48.81 1.19.45.68a1.58 1.58 0 0 1 .19.35.52.52 0 0 1 0 .21.35.35 0 0 1-.09.23.58.58 0 0 1-.43.11h-2.32v.83h2.39a1.38 1.38 0 0 0 1.01-.31zm21.12-.52h-1.57a1.1 1.1 0 0 1-.43-.08.84.84 0 0 1-.27-.22.91.91 0 0 1-.13-.35 2.09 2.09 0 0 1 0-.45v-1.92h-.82v2.29a1.32 1.32 0 0 1-.05.39.47.47 0 0 1-.16.22.64.64 0 0 1-.24.1h-.31a1.26 1.26 0 0 1-.48-.08.74.74 0 0 1-.29-.22.78.78 0 0 1-.14-.35 2.09 2.09 0 0 1 0-.45v-1.4h-.82v1.79a1 1 0 0 1-.06.39.41.41 0 0 1-.16.22.66.66 0 0 1-.27.1h-.38a1.66 1.66 0 0 1-.56-.08.82.82 0 0 1-.31-.22.68.68 0 0 1-.14-.35 3.09 3.09 0 0 1 0-.45v-1.4h-.82v1.79a1 1 0 0 1-.06.39.43.43 0 0 1-.2.22 1 1 0 0 1-.36.1h-2.31a3.26 3.26 0 0 1-.5 0 3.12 3.12 0 0 0 .85-.85 1.85 1.85 0 0 0 .31-1 1.06 1.06 0 0 0-.1-.46 1.2 1.2 0 0 0-.32-.4 1.53 1.53 0 0 0-.54-.28 2.52 2.52 0 0 0-.77-.1 2.45 2.45 0 0 0-1 .19 2.2 2.2 0 0 0-.78.51.58.58 0 0 0-.11.15 1 1 0 0 0-.11.21 2.44 2.44 0 0 0-.1.24 2.09 2.09 0 0 0-.08.23l1.25 1.42a4.93 4.93 0 0 1-.71.16 6.3 6.3 0 0 1-.75 0h-1.16v-.47a5 5 0 0 0-.1-1.07 2.35 2.35 0 0 0-.33-.82 1.48 1.48 0 0 0-.58-.53 2 2 0 0 0-.88-.18 1.89 1.89 0 0 0-.84.18 2 2 0 0 0-.62.49 2.13 2.13 0 0 0-.39.69 2.4 2.4 0 0 0-.13.8 2 2 0 0 0 .14.82 1.35 1.35 0 0 0 .4.53 1.54 1.54 0 0 0 .6.3 3 3 0 0 0 .76.09h1.13a1.25 1.25 0 0 1-.18.65 1 1 0 0 1-.45.38 1.88 1.88 0 0 1-.67.19 7.64 7.64 0 0 1-.86 0h-.31v.83h.42a5.69 5.69 0 0 0 1.14-.1 2.54 2.54 0 0 0 .89-.34 1.63 1.63 0 0 0 .58-.64 2.41 2.41 0 0 0 .26-1h1.22a5.17 5.17 0 0 0 1-.11 5.28 5.28 0 0 0 1-.29 1.48 1.48 0 0 0 .56.32 2 2 0 0 0 .55.08h2q.44 0 .75 0a1.85 1.85 0 0 0 .53-.1.85.85 0 0 0 .35-.2.92.92 0 0 0 .23-.33 1.58 1.58 0 0 0 .06.22.83.83 0 0 0 .24.21 1 1 0 0 0 .38.15 2.49 2.49 0 0 0 .59.06 2.9 2.9 0 0 0 .89-.12.91.91 0 0 0 .56-.53.9.9 0 0 0 .14.22.67.67 0 0 0 .23.21 1.21 1.21 0 0 0 .38.16 2.15 2.15 0 0 0 .55.06h.29a1.21 1.21 0 0 0 .35-.09 1.17 1.17 0 0 0 .34-.2.76.76 0 0 0 .25-.33.88.88 0 0 0 .32.46 1 1 0 0 0 .63.19h2.4v-7.16h-.83zm-16.89 0h-1.07a1.37 1.37 0 0 1-.87-.24.93.93 0 0 1-.29-.75 1.43 1.43 0 0 1 .07-.46 1.25 1.25 0 0 1 .2-.42 1.14 1.14 0 0 1 .35-.3 1 1 0 0 1 .5-.11.9.9 0 0 1 .86.44 2.33 2.33 0 0 1 .25 1.18zm4.21-.51l-1.22-1.29a1.37 1.37 0 0 1 .57-.42 1.74 1.74 0 0 1 .75-.16 1.22 1.22 0 0 1 .74.18.51.51 0 0 1 .23.42 1 1 0 0 1-.29.7 2.63 2.63 0 0 1-.78.57zm14.91-5.81h.82v7.15h-.82zm13.49 1.6h-.69a.62.62 0 0 1-.69-.66.67.67 0 0 1 .14-.4.54.54 0 0 1 .47-.19 1.42 1.42 0 0 1 .52.09v-.54l-.22-.05a1.86 1.86 0 0 0-.36 0 1.29 1.29 0 0 0-.4.07 1.08 1.08 0 0 0-.34.21 1 1 0 0 0-.24.34 1.17 1.17 0 0 0-.09.48 1 1 0 0 0 .23.68h-.51v.53h2.18zm11.11-1.6h-.82v6.32h-3a2.29 2.29 0 0 0 .49-.6 1.8 1.8 0 0 0 .22-.91 2 2 0 0 0-.08-.52 1.72 1.72 0 0 0-.27-.52 1.35 1.35 0 0 0-.48-.4 1.54 1.54 0 0 0-.75-.16 1.59 1.59 0 0 0-1.36.67A3.21 3.21 0 0 0 160 35v.58h-1a1.1 1.1 0 0 1-.43-.08.84.84 0 0 1-.27-.22.77.77 0 0 1-.13-.35 2.09 2.09 0 0 1 0-.45v-1.89h-.82v2.29a1.32 1.32 0 0 1 0 .39.48.48 0 0 1-.17.22.83.83 0 0 1-.29.1h-1.08a1.06 1.06 0 0 1-.43-.08.84.84 0 0 1-.27-.22.92.92 0 0 1-.14-.35 3.09 3.09 0 0 1 0-.45v-1.9H154v2.29a1 1 0 0 1-.06.39.38.38 0 0 1-.17.22.71.71 0 0 1-.28.1h-2.81c-.3 0-.49-.06-.58-.18a1 1 0 0 1-.13-.59V32h-1.59a3 3 0 0 0-.72.1 2 2 0 0 0-.67.33 1.82 1.82 0 0 0-.49.6 1.87 1.87 0 0 0-.19.9 1.75 1.75 0 0 0 .2.87 1.5 1.5 0 0 0 .49.51 1.77 1.77 0 0 0 .6.26 2.36 2.36 0 0 0 .55.07 3.39 3.39 0 0 0 .54 0 4.29 4.29 0 0 0 .49-.13 1.28 1.28 0 0 0 .17.49 1.18 1.18 0 0 0 .32.31 1.11 1.11 0 0 0 .42.16 2.63 2.63 0 0 0 .49 0h2.65a3.16 3.16 0 0 0 .94-.12.9.9 0 0 0 .57-.53.83.83 0 0 0 .32.46 1 1 0 0 0 .63.19h.82a3.28 3.28 0 0 0 .95-.12.91.91 0 0 0 .56-.53.83.83 0 0 0 .32.46 1 1 0 0 0 .63.19H160v.11a5 5 0 0 0 .09 1 2.07 2.07 0 0 0 .31.74 1.43 1.43 0 0 0 .56.47 2.08 2.08 0 0 0 .87.16 1.81 1.81 0 0 0 .69-.12 1.44 1.44 0 0 0 .49-.32 1.35 1.35 0 0 0 .3-.47 1.78 1.78 0 0 0 .1-.56 2.07 2.07 0 0 0-.07-.45 1.09 1.09 0 0 0-.31-.5h3.51zm-17.43 5.29a3.52 3.52 0 0 1-.45.13 2.8 2.8 0 0 1-.48 0 1.17 1.17 0 0 1-.84-.26.9.9 0 0 1-.27-.68.87.87 0 0 1 .34-.77 1.39 1.39 0 0 1 .82-.24h.88zm11.71.37a2.39 2.39 0 0 1 .27-1.25.84.84 0 0 1 .75-.43.8.8 0 0 1 .57.22.94.94 0 0 1 .24.71 1.9 1.9 0 0 1-.07.44 1.53 1.53 0 0 1-.23.46 1.17 1.17 0 0 1-.43.36 1.3 1.3 0 0 1-.65.15h-.45zm1.63 3a.84.84 0 0 1-.63.21 1.07 1.07 0 0 1-.51-.11 1 1 0 0 1-.31-.32 1.3 1.3 0 0 1-.14-.47 5.3 5.3 0 0 1 0-.59v-.19h.74a1.36 1.36 0 0 1 .59.1 1.1 1.1 0 0 1 .33.25.62.62 0 0 1 .15.29 1.49 1.49 0 0 1 0 .25.78.78 0 0 1-.22.54zm5.49-8.66h.82v7.15h-.82zM76.9 48.53H82v-.83h-1.47a1.29 1.29 0 0 1-1-.33 1.13 1.13 0 0 1-.32-.83 1 1 0 0 1 .37-.85 1.5 1.5 0 0 1 1-.31 2.83 2.83 0 0 1 .54 0 4 4 0 0 1 .41.11v-.89a1.09 1.09 0 0 0-.37-.09 3.67 3.67 0 0 0-.61 0 2.64 2.64 0 0 0-.78.12 2.14 2.14 0 0 0-.7.37 1.77 1.77 0 0 0-.51.63 1.93 1.93 0 0 0-.19.9 1.83 1.83 0 0 0 .12.68 1.57 1.57 0 0 0 .3.49h-2.2a7.09 7.09 0 0 1-2.42-.47V48l.7.2a6.94 6.94 0 0 1 .73.24 2.43 2.43 0 0 1 .58.31.52.52 0 0 1 .24.41.47.47 0 0 1-.2.37 1.66 1.66 0 0 1-.55.27 5.13 5.13 0 0 1-.8.16h-1a3.72 3.72 0 0 1-2-.41 1.46 1.46 0 0 1-.61-1.31V47h-.82v1.54a2.85 2.85 0 0 0 .15.94 1.62 1.62 0 0 0 .54.76 2.88 2.88 0 0 0 1 .51 6.36 6.36 0 0 0 1.66.18 7.5 7.5 0 0 0 1.54-.13 3.54 3.54 0 0 0 1-.36 1.5 1.5 0 0 0 .56-.52 1.1 1.1 0 0 0 .18-.59 1.35 1.35 0 0 0-.08-.42 1.25 1.25 0 0 0-.09-.38zm27.1-3.98a2.89 2.89 0 0 0-1.28.28 4.3 4.3 0 0 0-1.06.74 5 5 0 0 0-.8 1 6.16 6.16 0 0 0-.52 1.11.8.8 0 0 1-.38-.08.58.58 0 0 1-.22-.22.9.9 0 0 1-.09-.35 3.17 3.17 0 0 1 0-.45v-1.4h-.82V47a1 1 0 0 1-.06.39.43.43 0 0 1-.2.22 1 1 0 0 1-.36.1h-1.65v-.86a2.47 2.47 0 0 0-.56-1.7 1.94 1.94 0 0 0-1.52-.6 2.82 2.82 0 0 0-1.58.45 4 4 0 0 0-1.2 1.29v-4.91h-.82v6.32h-1.13a1.06 1.06 0 0 1-.43-.08.67.67 0 0 1-.27-.22.92.92 0 0 1-.14-.35 3.09 3.09 0 0 1 0-.45v-1.92h-.82V47a1 1 0 0 1-.06.39.38.38 0 0 1-.17.22.71.71 0 0 1-.28.1h-2.76c-.3 0-.49-.06-.58-.18a1 1 0 0 1-.13-.59v-5.56h-.82v5.77a1.78 1.78 0 0 0 .11.66 1 1 0 0 0 .74.65 2.15 2.15 0 0 0 .58.07h2.57a3.16 3.16 0 0 0 .94-.12.9.9 0 0 0 .57-.53.83.83 0 0 0 .32.46 1 1 0 0 0 .63.19h8.66a2.19 2.19 0 0 0 .56-.09 1.06 1.06 0 0 0 .38-.2.83.83 0 0 0 .24-.33c0 .08.08.16.13.24a.8.8 0 0 0 .2.21.91.91 0 0 0 .33.14 1.78 1.78 0 0 0 .51.06h5.4v-1.72a2.42 2.42 0 0 0-.55-1.7 2.06 2.06 0 0 0-1.61-.59zm-8.27 3.15h-4a4.59 4.59 0 0 1 .4-.8 3.81 3.81 0 0 1 .57-.75 3 3 0 0 1 .74-.55 1.83 1.83 0 0 1 .89-.22 1.56 1.56 0 0 1 .68.13 1.09 1.09 0 0 1 .44.35 1.14 1.14 0 0 1 .24.52 2.76 2.76 0 0 1 .07.65zm9.61 0h-4.08a4.5 4.5 0 0 1 .4-.83 3.89 3.89 0 0 1 .6-.74 3.09 3.09 0 0 1 .76-.54 1.91 1.91 0 0 1 .89-.21 1.71 1.71 0 0 1 .67.12 1.07 1.07 0 0 1 .44.34 1.26 1.26 0 0 1 .25.52 2.87 2.87 0 0 1 .07.67zm4.07-4.86v4.86h-2.25v.83h5.68v-7.15h-.82v6.32h-1.79v-4.86h-.82zm4.83-1.46h.82v7.15h-.82zm5.91 6.16a.9.9 0 0 1-.23-.64 1 1 0 0 1 0-.3.76.76 0 0 1 .15-.26.81.81 0 0 1 .26-.18.91.91 0 0 1 .39-.07 1.73 1.73 0 0 1 .71.13v-.78l-.29-.06a3.78 3.78 0 0 0-.5 0 1.71 1.71 0 0 0-.55.09 1.4 1.4 0 0 0-.47.28 1.25 1.25 0 0 0-.33.47 1.71 1.71 0 0 0-.12.67 1.42 1.42 0 0 0 .33.94h-.73v.72h3v-.72h-.94a.89.89 0 0 1-.68-.29zm6.5-3.7a1.27 1.27 0 0 0-.13.19c0 .07-.07.15-.11.23a1.14 1.14 0 0 0-.06.25 9.36 9.36 0 0 1 1.08.6 8 8 0 0 1 .93.68 4.06 4.06 0 0 1 .65.68 1.1 1.1 0 0 1 .25.6.53.53 0 0 1-.25.5 1.39 1.39 0 0 1-.62.13h-4c-.3 0-.49-.06-.58-.18a1 1 0 0 1-.13-.59v-5.55h-.82v5.77a1.8 1.8 0 0 0 .1.66 1.13 1.13 0 0 0 .29.43 1.05 1.05 0 0 0 .45.22 2.22 2.22 0 0 0 .59.07h4.11a2.34 2.34 0 0 0 .86-.14 1.32 1.32 0 0 0 .51-.35 1.07 1.07 0 0 0 .24-.46 2.06 2.06 0 0 0 .07-.46 1.77 1.77 0 0 0-.14-.64 2.72 2.72 0 0 0-.44-.69 6.06 6.06 0 0 0-.81-.75 10.14 10.14 0 0 0-1.19-.81l2.95-1.3v-.81l-3.67 1.61zm6.9 3.75a1.53 1.53 0 0 1-.64.11h-1.79v.83h2a1.64 1.64 0 0 0 .45-.1 1 1 0 0 0 .39-.23 1.13 1.13 0 0 0 .29-.43 1.87 1.87 0 0 0 .56.61 1.36 1.36 0 0 0 .69.17h2.38v-7.17h-.82v6.32h-1.56a.5.5 0 0 1-.26-.08 1 1 0 0 1-.26-.22 2.82 2.82 0 0 1-.29-.39l-.35-.57-1.2-2-.77.48 1.06 1.57a3.77 3.77 0 0 1 .25.41.75.75 0 0 1 .1.38.33.33 0 0 1-.23.31zm5.73-6.21h.82v7.15h-.82zm5.58 8.01a3.2 3.2 0 0 0 .2-1.22v-.94a4.93 4.93 0 0 0-.1-1 2.23 2.23 0 0 0-.31-.82 1.54 1.54 0 0 0-.59-.54 1.86 1.86 0 0 0-.89-.19 1.9 1.9 0 0 0-.85.18 1.75 1.75 0 0 0-.62.48 1.9 1.9 0 0 0-.38.68 2.38 2.38 0 0 0-.13.79 2.11 2.11 0 0 0 .14.84 1.4 1.4 0 0 0 .39.54 1.46 1.46 0 0 0 .58.3 2.86 2.86 0 0 0 .73.09 2.53 2.53 0 0 0 .72-.09 2.36 2.36 0 0 0 .47-.2v.19a1.39 1.39 0 0 1-.16.73 1 1 0 0 1-.45.41 2.11 2.11 0 0 1-.68.18 7.71 7.71 0 0 1-.87 0h-.31v.83h.42a6.44 6.44 0 0 0 1.21-.1 2.27 2.27 0 0 0 .91-.37 1.76 1.76 0 0 0 .57-.77zm-.64-2a1.63 1.63 0 0 1-.44.22 2.3 2.3 0 0 1-.67.1 1.21 1.21 0 0 1-.81-.25 1 1 0 0 1-.31-.81 1.59 1.59 0 0 1 .06-.43 1.36 1.36 0 0 1 .2-.4 1.14 1.14 0 0 1 .35-.3 1.09 1.09 0 0 1 .53-.12.92.92 0 0 1 .85.46 1.39 1.39 0 0 1 .18.52 3.24 3.24 0 0 1 .06.64z"/><use xlink:href="#AC" x="63.34" y="-16.04"/><path d="M157.42 37.43h-.86v1.04l.86-.49v-.55z"/><use xlink:href="#AC" x="54.19" y="-23.56"/><use xlink:href="#AC" x="52.89" y="-23.56"/><use xlink:href="#AC" x="13.67" y="-23.56"/><use xlink:href="#AC" x="12.37" y="-23.56"/><use xlink:href="#AC" x="19.15" y="-16.05"/><use xlink:href="#AC" x="17.84" y="-16.05"/><use xlink:href="#AC" x="-2.26" y="-16.05"/><use xlink:href="#AC" x="-3.56" y="-16.05"/><use xlink:href="#AC" x="0.22" y="-16.05"/><use xlink:href="#AC" x="37.83" y="-11.01"/><use xlink:href="#AC" x="-6.46" y="-11.01"/><path d="M75.66 30.96h-.85v1.05l.85-.5v-.55zm-1.3 0h-.85v1.05l.85-.5v-.55z"/><use xlink:href="#AC" x="-20.55" y="-1.95"/><use xlink:href="#AC" x="-21.85" y="-1.95"/><use xlink:href="#AC" x="-9.89" y="-23.1"/><path d="M103.34.79H94v22.54h9.32c7.75 0 12.91-4.5 12.91-11.27S111.09.79 103.34.79zm0 17.44h-2.71V5.89h2.71a5.78 5.78 0 0 1 6.08 6.17 5.78 5.78 0 0 1-6.08 6.17zM133.79.79h-9.95l-7 22.54h7.15l1.28-4.4 6.27-3.63h-5.32l2.65-8.75 2.67 8.75 2.21 8h7.15zm35.89 0h-10l-7.06 22.54h7.16l1.28-4.4 6.27-3.63h-5.32l2.65-8.75 2.67 8.75 2.21 8h7.15zm-26.34 3.94v18.6h6.83V.79zM81.45 9.1C79 8.82 77.07 8.57 77.07 7c0-1.2 1.33-2.08 3.25-2.08 2.23 0 3.9 1.26 3.87 3l5.09-2.94C87.91 2 84.48 0 80.1 0c-5.64 0-9.64 3.09-9.64 7.72 0 5.32 4.35 6.48 9 7 2.39.31 4.37.57 4.37 2.2 0 1.36-1.32 2.3-3.3 2.3-2.46 0-4.25-1.41-4.28-3.32h-5.92A7.54 7.54 0 0 0 71 19c1.38 3.11 4.89 5.16 9.35 5.16 6 0 10.14-3.27 10.14-8.06-.03-5.36-4.49-6.52-9.04-7z"/></g></svg>