<svg xmlns="http://www.w3.org/2000/svg" width="161.822" height="139.501" viewBox="0 0 161.822 139.501"><defs><style>.a{fill:#f1f1f1;}.b{fill:#0d8f75;}.c{fill:#214570;}</style></defs><g transform="translate(-741 -284)"><circle class="a" cx="69" cy="69" r="69" transform="translate(741 284)"/><g transform="translate(699.682 7.145)"><g transform="translate(78.496 290.414)"><path class="b" d="M151.18,353.915c2.856,4.438,5.658,8.8,8.468,13.164,1.446,2.25,1.45,2.246,3.972,1.575,8.952-2.379,18.18,2.824,20.05,11.568,2.6,12.135-8.4,21.485-17.807,20.2-6.756-.922-13.154-7.219-14.377-14.478a14.716,14.716,0,0,1,4.7-13.756c.635-.61,1.227-1.267,1.988-2.052l-9.58-15.174c-13.3,6.641-29.745-2.709-29.981-17.908l-1.209-.086c-4.51-.323-9.024-.628-13.534-.99-.818-.065-1.123.154-1.378.969a16.4,16.4,0,0,1-15.558,11.686c-7.345-.068-13.868-4.661-15.766-11.388a16.183,16.183,0,0,1,4.79-17.19c4.862-4.539,10.714-5.4,16.828-3.007,6.293,2.461,9.655,7.348,10.391,14.047.061.581.025,1.17.039,1.855l15.68,1.127c1.256-7.373,5.095-12.9,11.959-15.981,6.846-3.075,13.455-2.178,19.806,1.9l10.778-12.224a16.66,16.66,0,0,1,2.565-23.706,16.349,16.349,0,0,1,21.729,1.589,16.63,16.63,0,0,1,1.026,21.923c-5.109,6.247-14.682,8.672-22.924,2.5l-10.563,12.034A20.373,20.373,0,0,1,159.7,338.5,19.688,19.688,0,0,1,151.18,353.915Zm-27.107-8.12c.122-.043.176-.047.19-.072.115-.172.226-.348.326-.531a11.552,11.552,0,0,1,10.251-6.157,2.006,2.006,0,0,1,2.307,1.449c.42,1.263,1.008,2.469,1.6,3.886.786-1.324,1.485-2.508,2.181-3.689a2.013,2.013,0,0,1,2.214-1.066,11.543,11.543,0,0,1,9.218,6.914c.2.445.384.9.588,1.385,4.959-5.558,5.5-15.389-.488-22.274a17.427,17.427,0,0,0-23.6-2.547C121.726,328.444,119.53,338.752,124.072,345.8Zm49.73-43.587c.287-.416.481-.678.649-.958,1.521-2.483,2.26-2.734,5.009-1.618a9.773,9.773,0,0,1,5.432,5.6c4.047-4.761,3.455-12.321-.99-17.007a13.486,13.486,0,0,0-18.6-.965c-5.3,4.575-5.769,12.163-2.856,16.322.126-.187.237-.355.348-.524s.222-.355.344-.524a9.12,9.12,0,0,1,7.223-3.929,2.24,2.24,0,0,1,2.687,1.8A13.838,13.838,0,0,0,173.8,302.209Zm-17.872,88.25c.283-.434.47-.743.682-1.041a9.011,9.011,0,0,1,7.782-4.051,1.855,1.855,0,0,1,2.07,1.4c.208.7.553,1.363.929,2.268.466-.782.832-1.324,1.13-1.9a2.224,2.224,0,0,1,2.695-1.256,9.34,9.34,0,0,1,6.771,5.081c.179.334.341.678.553,1.1a13.162,13.162,0,0,0-1.4-17.445,13.4,13.4,0,0,0-21.216,15.841ZM97.737,340.467c4.187-5.009,3.362-13.039-1.7-17.746a13.328,13.328,0,0,0-18.231.154c-5.307,5.034-4.919,12.788-2.512,15.888.208-.326.395-.649.606-.951a9.158,9.158,0,0,1,7.689-4.036,1.854,1.854,0,0,1,2.1,1.385,24.785,24.785,0,0,0,.976,2.311c.395-.664.649-1.087.9-1.511,1.094-1.844,1.511-2.024,3.57-1.493A9.627,9.627,0,0,1,97.737,340.467Zm50.257,11.665c2.1-.865,2.469-1.277,2.3-2.515a8.456,8.456,0,0,0-6.186-6.853,1.385,1.385,0,0,0-1.145.527c-1.019,1.528-1.891,3.154-2.928,4.668a2.145,2.145,0,0,1-1.521.965,2.229,2.229,0,0,1-1.389-1.195c-.8-1.6-1.5-3.269-2.138-4.944-.287-.746-.657-.89-1.406-.764a8.229,8.229,0,0,0-6.444,4.822c-.962,2.045-.646,2.784,1.572,3.9.09-.369.161-.728.265-1.076a1.271,1.271,0,0,1,1.643-.954,1.2,1.2,0,0,1,1.026,1.572,5.354,5.354,0,0,1-.244,1.1c-.359.9-.133,1.371.811,1.8,3.771,1.737,7.628,1.486,11.546.754,1.177-.222,1.808-.671,1.417-1.981a1.586,1.586,0,0,1-.018-1.105c.262-.459.685-1.055,1.112-1.119a1.788,1.788,0,0,1,1.342.764A4.653,4.653,0,0,1,147.994,352.132Zm18.916,45.636a12.263,12.263,0,0,0,8.493-2.443,1.736,1.736,0,0,0,.6-1.417,5.938,5.938,0,0,0-4.08-4.679,1.317,1.317,0,0,0-1.163.38c-.757,1.048-1.338,2.224-2.1,3.269-.33.448-.98,1-1.414.947a2.341,2.341,0,0,1-1.432-1.152,25.436,25.436,0,0,1-1.521-3.441c-.262-.689-.614-.832-1.324-.671a5.966,5.966,0,0,0-4.585,4.029,1.734,1.734,0,0,0,.359,1.493A12.761,12.761,0,0,0,166.91,397.768Zm6.243-87.07a12.207,12.207,0,0,0,8.421-2.239,1.9,1.9,0,0,0,.675-1.514,6.214,6.214,0,0,0-3.947-4.69.96.96,0,0,0-1.424.488,24.618,24.618,0,0,1-1.92,3.086c-.355.474-1.044,1.076-1.489,1.008a2.541,2.541,0,0,1-1.485-1.259,23.879,23.879,0,0,1-1.457-3.326.921.921,0,0,0-1.238-.667,5.977,5.977,0,0,0-4.679,4.087,1.724,1.724,0,0,0,.438,1.467A12.94,12.94,0,0,0,173.153,310.7ZM86.1,346.061a13.125,13.125,0,0,0,8.3-2.228,1.28,1.28,0,0,0,.7-1.546,6.559,6.559,0,0,0-4.008-4.654.982.982,0,0,0-1.421.52,29.971,29.971,0,0,1-1.988,3.186,1.5,1.5,0,0,1-2.791-.165,29.878,29.878,0,0,1-1.564-3.552.936.936,0,0,0-1.256-.653,6.037,6.037,0,0,0-4.661,4.1,1.732,1.732,0,0,0,.438,1.475A13.215,13.215,0,0,0,86.1,346.061Z" transform="translate(-70.422 -280.669)"/><path class="c" d="M124.527,308.028a13.448,13.448,0,1,1-12.5-14.424A13.422,13.422,0,0,1,124.527,308.028Zm-14.18,9.5a10.512,10.512,0,1,0-9.68-11.4A10.494,10.494,0,0,0,110.347,317.525Z" transform="translate(0.083 -247.278)"/><path class="b" d="M101.418,315.207a9,9,0,1,1-8.364-9.655A8.982,8.982,0,0,1,101.418,315.207Zm-9.49,6.358a7.036,7.036,0,1,0-6.48-7.635A7.024,7.024,0,0,0,91.928,321.565Z" transform="translate(-36.738 -216.328)"/><path class="c" d="M81.023,293.4a13.453,13.453,0,1,1,12.371,14.4A13.477,13.477,0,0,1,81.023,293.4Zm23.882,1.841A10.534,10.534,0,1,0,93.57,304.9,10.453,10.453,0,0,0,104.9,295.244Z" transform="translate(-43.085 -280.004)"/><path class="b" d="M72.367,320.712a13.453,13.453,0,1,1,12.339,14.427A13.52,13.52,0,0,1,72.367,320.712Zm14.169-9.447a10.528,10.528,0,1,0,9.741,11.252A10.479,10.479,0,0,0,86.536,311.265Z" transform="translate(-65.493 -209.239)"/><path class="b" d="M102.814,300.861a7.711,7.711,0,0,1-8.13,7.04,7.833,7.833,0,0,1-7.068-8.145,7.6,7.6,0,0,1,8.073-7.072A7.7,7.7,0,0,1,102.814,300.861Zm-2.96-.179a4.685,4.685,0,0,0-4.187-5.03,4.663,4.663,0,1,0-.9,9.282A4.678,4.678,0,0,0,99.854,300.682Z" transform="translate(-25.964 -249.613)"/><path class="b" d="M97.734,287.87a6.243,6.243,0,1,1,5.759,6.6A6.094,6.094,0,0,1,97.734,287.87Zm2.956-.039a3.341,3.341,0,0,0,3.079,3.681,3.286,3.286,0,1,0,.33-6.562A3.081,3.081,0,0,0,100.691,287.83Z" transform="translate(0.206 -277.277)"/><path class="b" d="M101.78,318.674a6.232,6.232,0,0,1,.782-12.44,6.309,6.309,0,0,1,5.888,6.7A6.191,6.191,0,0,1,101.78,318.674Zm3.724-5.884a3.379,3.379,0,0,0-2.939-3.606,3.334,3.334,0,0,0-3.627,3.032,3.383,3.383,0,0,0,3.007,3.549A3.326,3.326,0,0,0,105.5,312.789Z" transform="translate(-4.292 -214.542)"/><path class="b" d="M79.269,304.316a6.31,6.31,0,0,1-5.845-6.616,6.25,6.25,0,1,1,5.845,6.616Zm3.692-6.2a3.436,3.436,0,0,0-3.046-3.534,3.262,3.262,0,0,0-3.513,3.007,3.291,3.291,0,1,0,6.559.527Z" transform="translate(-62.683 -251.751)"/></g></g></g></svg>