<svg version="1.1" id="MSF_Arabic" xmlns="http://www.w3.org/2000/svg" xmlns:xlink="http://www.w3.org/1999/xlink" x="0px" y="0px" viewBox="0 0 411.4 249.3" style="enable-background:new 0 0 411.4 249.3;" xml:space="preserve">
	<style type="text/css">
		.logo-ar-red{fill:#EE0000;}
	</style>
	<path d="M19,236.6c0.2-0.9,0.3-1.7,0.3-2.5c0-2.7-0.5-5-1.6-6.9c-1.2-2.3-3.7-5.5-6.1-6.3l-1.9,5.6c3.5,1.4,6.2,4.7,6.5,6.8H5.3
		l-0.5,5.2h13.1C18.4,238.5,18.8,237.9,19,236.6z M31.8,223.5c-1.7,0.5-3.2,1.3-4.7,3.8c-1.4,2.3-2.5,4-2.5,5.9c0,1.7,0.5,2.4,1,3.3
		c0.6,1.1,2.2,1.2,3.8,1.2c1.3,0,2,0,2.7-0.6c0.4-0.3,1-0.7,1.3-1.6c0.3-0.8,0.5-0.6,0.8-0.9v1.2c0.1,1.8-1.5,4-4.9,6.5
		c-3.1,2.3-5.6,3.2-7.7,3.6c-2.7,0.4-5.3,0-6.4-0.7c3.3,2.2,7.9,3.4,11.3,3.4c2.8,0,6.2-1.7,8.1-6c1.6-3.6,2.4-6.4,2.4-9.7
		c0-1.8-0.4-3.7-1.3-5.8C34.6,224.5,33.3,223.7,31.8,223.5z M32.6,232c-0.2,0.4-1.7,0.7-2.5,0.7c-1,0-3.5-1.2-3.5-1.4
		c0-0.3,0.3-1.9,3.5-1.8C32.6,229.5,32.7,231.6,32.6,232z M122.6,224.5c-1.3,0-3.9,0-5.2,1.4c-1,1-1.8,2.3-2.5,3.8
		c1-0.5,1.7-0.7,1.7-0.7c0.5-0.2,1.5-0.2,2.2-0.2c5,0.6,4.6,1.6,7.3,3.2c-1.2,0.6-2.1,1.3-4.3,1.3c-1,0-2.7,0.2-4.1,0.1H60.1
		c-0.4,0-0.8-0.7-1.2-2.2c-1.4-4.9-2.4-8.7-3-11.1l-2.6,5.2c1.3,4.3,1.9,6.9,1.9,7.8l0,0.3H43.3c-0.7,0-1.1-0.6-1-1.7l0.1-2.6
		c-0.7,0.3-1.3,1.5-1.8,3.6c-0.4,1.7-0.6,3.2-0.6,4.4c0,0.3,0.1,0.6,0.4,0.9c0.2,0.3,0.5,0.4,0.8,0.4h12.4c0.4,0,0.8-0.4,1.2-1.2
		c0.5-1,0.8-1.6,1-1.7c0.5,1.2,0.9,2.1,1.1,2.7l0.5,0.2h61.6c0.8,0,2-0.5,3.8-1.4c1.8-0.9,4.3-2,5.3-2c0.3,0,4.5,0.7,8.8,1l0.4-0.1
		c1.8-2.6,2.9-4.3,3.2-4.6c-1.9-0.3-5-0.9-9.2-2.9C127.4,226.7,123.9,224.5,122.6,224.5z M242.2,245.1c-1.2-1.1-1.8-1.6-2-1.6
		c-0.2,0-0.4,0.5-1.5,1.5c-1.1,1-0.8,1.2-0.8,1.4c0,0.2,0.5,0.7,1.6,1.6c1.1,0.9,1.7,1.3,1.9,1.3c0.3,0,0.1,0,1.2-0.8
		c1.1-0.8,1.2-1.4,1.2-1.6C243.9,246.7,243.4,246.1,242.2,245.1z M244.9,222.9l-2.7,4.8c1.7,1.8,2.7,3.9,2.8,5.8h-58.6v0h-2.6
		c0-0.1-0.2-0.3-0.5-0.6c-0.9-10.2-1.6-17.5-2-20c0,0-2.2,1.5-2.7,2.5c-0.5,0.9-0.5,1.5-0.5,2.3c0,3,0,5.4-0.2,6.5
		c-0.6,3.7-2.8,5.4-4.6,7.3c0.3-4.9-3.1-8.8-6-11.8c-2.6-2.7-8.1-5.2-8.5-5c-0.5,0.2-1,3.7-0.8,6l0.1,1.7c0.7,0.7,2.2,1.1,3.4,1.8
		c0.5,0.3,1.8,0.9,3.4,1.7c0-0.7,0.4-1.1,0.8-1.5c1,0.8,5.5,3.9,5.6,8.2c0,1.2-3.5,2.1-7.9,4.4c-2.9,1.4-6.2,2.4-9,3.8
		c5.5-0.1,18.3,0.8,23.6-8.5c1.2-2.1,1.1-3.5,1.1-3.5c0.2,0.1,0.5,1.7,0.7,4.6c0.1,1.8,0.3,3.5,0.4,5.3h6.1v0h60.8
		c1.1-3,1.2-5.4,1.2-7.3c0-1.1-0.4-3-1.1-4.7C246.5,224.6,245.7,223.4,244.9,222.9z M266.5,231.1c1.1-0.8,2-1.3,2.7-1.2
		c0.8,0,2,0.7,3.6,2c0.6-0.7,1.4-1.9,2.4-3.4c0-0.9-0.3-1.6-1-2.1c-0.7-0.5-1.5-0.8-2.3-0.9c-2.3-0.1-4.4,0.8-6.4,2.6
		c-2,1.8-3,3.9-3.1,6.2c0,1.1,0.5,1.8,1.7,2.2c1,0.3,2,0.5,3,0.8c-1.4,0.8-2.4,1.4-3,2.1c-0.8,0.8-1.4,1.9-1.6,3.2
		c3.7-3,8-4.5,12.7-4.6c1.5-2,2.5-3.5,3.1-4.5C271.2,233.2,267.2,232.4,266.5,231.1z M342.7,244.3c-1.1-1-1.8-1.5-2-1.5
		c-0.2,0-0.9,0.5-1.9,1.5c-1,1-1.5,1.6-1.6,1.9c0.2,0.3,0.8,0.8,1.7,1.6c1,0.8,1.6,1.2,1.9,1.2c2.4-1.4,3.6-2.4,3.6-2.9
		C344.4,245.9,343.8,245.3,342.7,244.3z M395.4,227.9c-1.7-1.5-4.4-3.2-5.3-3.2c-2.7,0-5.7,2-8.9,3.6c-2.5,1.1-4.6,2.3-6.5,3.4
		c0-0.5,0.1-1.2,0.4-2.2c0.3-1,0.5-1.8,0.5-2.3c0-0.6-0.2-4.7-0.4-5.8c0.8,0,1.4-0.6,2-1.5c0.4-0.8,0.8-1.6,1.2-2.4
		c-3.2-1.5-5.5-3.4-5.7-5.1c-0.5,0.3-1.1,1-1.8,2c-0.8,1.1-1.1,1.9-1.1,2.3c0,0.3,0.1,0.6,0.4,1c0.3,0.5,0.5,0.8,0.6,1
		c0.2,0.7,1.3,5.9,1.6,8.4c0.3,2.4,0.4,4.1,0.4,5c0,0.6-1,1.1-1.6,1.2h-24.2c-1.7-0.2-2.5-0.9-2.5-1.9c0-0.4,0.1-1,0.2-1.8
		c0.1-0.8,0.2-1.4,0.2-1.7v-2.5c-0.8,0.8-2,1.6-2.8,2.4c-0.7,0.9-1.1,2-1.1,3.1c0,1.1-0.1,1.9-0.3,2.4h-49.3c-1,0-1.5-0.1-1.6-0.3
		c-0.2-1.7-0.6-4.5-0.9-8.4c-0.2-1.9-0.6-8.6-1.2-12.3c-1.4,1.7-3.1,3.2-3.7,4.2l1.8,21.9h53.8l1.8-3.1c0.6,2,1.7,3.1,3.3,3.1h48.5
		l4-7.1C397.4,230.6,397.1,229.4,395.4,227.9z M376.8,233.4c3.3-2.2,6-3.2,7.9-3.2c0.9,0,1.8,0.3,2.7,1c0.8,0.6,1.5,1.4,1.9,2.2
		H376.8z M401.7,215.2c2.6-1.7,4.6-2.5,6.2-2.5h0.2c0.4-0.5,0.8-1.1,1.1-1.8c-1.1,0-2.2,0-3.3,0c-1.4-0.1-2.5-0.5-3.1-1.1
		c1-0.6,1.6-0.8,1.8-0.8c0.2,0,0.8,0.3,1.7,0.9c0.7-1.1,1-1.6,1-1.6c0-0.8-0.6-1.1-1.7-1.1c-1.2,0-2.2,0.5-3,1.4
		c-0.9,1-1.2,2-1.2,3.1v0.1c1.1,0.6,2,0.9,2.7,1c-0.5,0.3-1,0.7-1.4,1C402,214.3,401.7,214.8,401.7,215.2z M404.6,217.4
		c-1,1.8-1.5,2.1-1.5,2.5l2.2,19.8c1.9-2.4,2.8-5.4,2.8-9c0-3.6-0.5-11-1.5-16.7C406,214.9,405.3,216,404.6,217.4z M337.7,219
		c2.1,0,3.3-1.4,3.3-1.4s1.4,0.2,2.2-0.2c0.7-0.4,1.2-1.6,1.4-2.3c0.2-0.7,0.2-3-0.3-3c-1.1,0-0.6,3.8-1.6,3.8
		c-1.1,0-0.9-2.2-1.5-2.2c-0.8,0.1-0.5,3.5-2.1,3.4c-1.6-0.1-0.2-2.9-0.7-2.8C337.8,214.2,335.6,218.9,337.7,219z"></path>
	<polygon points="236.3,139.4 237.6,134.3 227.8,134.3 228.9,130.1 236.9,130.1 238.2,125 230.2,125 231.2,120.9 241,120.9
		242.3,115.8 226.3,115.8 220.3,139.4 "></polygon>
	<polygon points="194.7,139.4 196,134.3 186.2,134.3 187.3,130.1 195.2,130.1 196.5,125 188.6,125 189.6,120.9 199.5,120.9
		200.8,115.8 184.7,115.8 178.7,139.4 "></polygon>
	<path d="M249.7,139.8c1.1,0,4.2-0.4,6-0.7l1.5-5.4c-1.8,0.5-3.7,1-6.2,1c-3.8,0-4.8-3.4-3.8-7c0.8-3.1,3.7-7.1,8.5-7.1
		c1.6,0,3.1,0.4,4.5,1l1.3-5.3c-1.5-0.5-3.8-0.8-5.5-0.8c-7.1,0-13.1,4.4-15.1,12.2C238.9,135.4,242.6,139.8,249.7,139.8z"></path>
	<polygon points="265,139.4 271,115.8 264.8,115.8 258.8,139.4 "></polygon>
	<polygon points="160.5,122.6 160.6,122.6 160.3,139.4 165.6,139.4 174,122.5 174,122.5 169.7,139.4 175,139.4 181,115.8
		172.7,115.8 165.4,130.6 165.3,130.6 165.7,115.8 157,115.8 151,139.4 156.2,139.4 "></polygon>
	<polygon points="274.2,139.4 278,124.4 278.1,124.4 281.9,139.4 289.1,139.4 295.1,115.8 289.7,115.8 285.8,131.2 285.7,131.2
		282.1,115.8 274.8,115.8 268.7,139.4 "></polygon>
	<path d="M220.9,127.6c2.5-10-2.9-11.8-5.8-11.8H204l-6,23.5h9.9C214.7,139.4,219.2,134.4,220.9,127.6z M214.7,127.6
		c-0.9,3.5-3.3,6.7-6.8,6.7h-2.7l3.4-13.5h3.1C215.1,120.9,215.8,123.2,214.7,127.6z"></path>
	<polygon points="298.8,161.5 298.7,161.5 295.1,146.2 287.7,146.2 281.7,169.7 287.2,169.7 291,154.7 291.1,154.7 294.9,169.7
		302.1,169.7 308.2,146.2 302.7,146.2 "></polygon>
	<polygon points="229.6,151.2 238.5,151.2 239.8,146.2 224.7,146.2 218.6,169.7 224.8,169.7 227.2,160.4 234.7,160.4 236,155.3
		228.5,155.3 "></polygon>
	<polygon points="327.9,146.2 310.4,146.2 309.1,151.2 314.7,151.2 310,169.7 316.2,169.7 320.9,151.2 326.6,151.2 "></polygon>
	<polygon points="330.1,146.2 324,169.7 330.3,169.7 336.3,146.2 "></polygon>
	<polygon points="350.3,160.4 351.6,155.3 343.8,155.3 344.9,151.2 354.7,151.2 356,146.2 340,146.2 333.9,169.7 350,169.7
		351.3,164.7 341.4,164.7 342.5,160.4 "></polygon>
	<polygon points="390.1,160.4 391.4,155.3 383.4,155.3 384.5,151.2 394.3,151.2 395.6,146.2 379.6,146.2 373.5,169.7 389.6,169.7
		390.9,164.6 381,164.6 382.1,160.4 "></polygon>
	<path d="M273.7,145.8c-7,0-12.9,4.4-14.9,12.2c-2,7.8,1.7,12.2,8.7,12.2c6.6,0,12.6-3.9,14.8-11.5l0,0
		C284.5,150.3,280.7,145.8,273.7,145.8z M276.2,158c-1,3.8-3.9,7.1-7.4,7.1c-3.8,0-4.7-3.4-3.8-7c0.9-3.6,3.6-7.1,7.4-7.1
		C276,150.9,277.1,154.2,276.2,158L276.2,158z"></path>
	<polygon points="189.1,146.2 185.1,161.5 185.1,161.5 181.4,146.2 174.1,146.2 168.1,169.7 173.5,169.7 177.4,154.7 177.4,154.7
		181.3,169.7 188.5,169.7 194.5,146.2 "></polygon>
	<path d="M157.6,146.2c-5.1,7.9-10.2,15.9-15.5,23.6h6.8l4.1-6.8h7.3l0.4,6.8h6.6c-0.8-7.8-1.7-15.8-2.2-23.6H157.6z M155.7,158
		l4.1-6.7h0.1l0.4,6.7H155.7z"></path>
	<path d="M403,152.5c0.3-1.2,2.1-1.7,3.1-1.7c1.8,0,2.9,0.5,4.1,1.2c0,0,1.2-4.7,1.2-4.9c-1.9-1.1-4-1.4-5.6-1.4
		c-5.5,0-8.4,3.3-8.9,6.1c-1,5.5,5.5,8.5,4.8,11.1c-0.5,1.9-2.3,2-3.3,2c-1.7,0-3.4-0.6-4.8-1.4l-1.3,5.5c1.7,0.6,4.3,1.2,6.3,1.2
		c6.5,0,8.5-2.9,9.2-6.1C408.8,158.5,402.1,155.5,403,152.5z"></path>
	<path d="M202.2,152.5c0.3-1.2,2.1-1.7,3.1-1.7c1.8,0,2.9,0.5,4.1,1.2c0,0,1.2-4.7,1.2-4.9c-1.9-1.1-4-1.4-5.6-1.4
		c-5.5,0-8.4,3.3-8.9,6.1c-1,5.5,5.5,8.5,4.8,11.1c-0.5,1.9-2.3,2-3.3,2c-1.7,0-3.4-0.6-4.8-1.4l-1.3,5.5c1.7,0.6,4.3,1.2,6.3,1.2
		c6.5,0,8.5-2.9,9.2-6.1C208,158.5,201.4,155.5,202.2,152.5z"></path>
	<path d="M302.9,122.2c0.3-1.2,2.1-1.7,3.1-1.7c1.8,0,2.9,0.5,4.1,1.2c0,0,1.2-4.7,1.2-4.9c-1.9-1.1-4-1.4-5.6-1.4
		c-5.5,0-8.4,3.3-8.9,6.1c-1,5.5,5.5,8.5,4.8,11.1c-0.5,1.9-2.3,2-3.3,2c-1.7,0-3.4-0.6-4.8-1.4l-1.3,5.5c1.7,0.6,4.3,1.2,6.3,1.2
		c6.5,0,8.5-2.9,9.2-6.1C308.7,128.2,302.1,125.3,302.9,122.2z"></path>
	<path d="M139.2,152.5c0.3-1.2,2.1-1.7,3.1-1.7c1.8,0,2.9,0.5,4.1,1.2c0,0,1.5-4.5,1.6-4.7c-2.1-1.3-4.4-1.5-5.9-1.5
		c-5.5,0-8.4,3.3-8.9,6.1c-1,5.5,5.5,8.5,4.8,11.1c-0.5,1.9-2.3,2-3.3,2c-1.7,0-3.4-0.6-4.8-1.4l-1.3,5.5c1.7,0.6,4.3,1.2,6.3,1.2
		c6.5,0,8.5-2.9,9.2-6.1C145,158.5,138.4,155.6,139.2,152.5z"></path>
	<path d="M252.2,159.4c3.1-0.6,5.6-3.4,6.3-6c1.2-4.7-0.2-7.2-5.4-7.2h-10.5l-6,23.6h5.9l4.7-18.6h3c0.9,0,2.8,0,2.2,2.5
		c-0.5,1.9-1.9,3.1-4.6,3c0,0-0.2,0-0.2,0l-2,0l2.2,13h6.7C254.4,169.7,252.2,159.9,252.2,159.4z"></path>
	<path d="M368.8,159.4c3.1-0.6,5.6-3.4,6.3-6c1.2-4.7-0.2-7.2-5.4-7.2h-10.5l-6,23.6h5.9l4.8-18.6h3.1c0.9,0,2.8,0,2.2,2.5
		c-0.5,1.9-1.9,3.1-4.6,3c-0.1,0-0.2,0-0.2,0l-2,0l2.2,13.1h6.7C371,169.7,368.9,159.9,368.8,159.4z"></path>
	<path class="logo-ar-red" d="M63.5,152.4c1.7-1,5.6-3.1,6-3.4c0.7-0.4,1.2-0.4,1.2-0.2c0.1,0.9,0.1,2.7,1.2,3.1c0.3,0.1,1.2-0.3,1.3-0.1
		c0.4,0.6,0.4,0.5,0.5,0.7c0.1,0.2,0.7,0.1,0.8,0.2c0.3,0.3,0,0.7,0.2,0.8c0.3,0.3,0.8-0.2,1.1-0.1c0.5,0.1,0.6,0.7,0.5,1
		c-0.1,0.6,0.2,1.1,1.2,0.2c0.5-0.4,0.5-0.2,1-0.4c0.3-0.1,0.7-0.1,0.9,0.1c0.2,0.2,0.5,0.5,0.8,0.6c0.4,0.2,0.8,0,1.1,0.1
		c0.4,0.2,0.4,0.7,0.7,0.8c0.3,0,0.6-0.6,0.9-0.4c0.6,0.5-0.5,1.5,0.3,1.7c0.4,0.1,0.6-0.2,0.9-0.3c0.3,0,0.5-0.4,0.8-0.4
		c0.3,0,0.5,0.3,0.8,0.1c0.3-0.2,0.5-0.3,0.8-0.4c0.4-0.2,0.8-0.1,1-0.3c0.3-0.2,0.1-0.8,0.9-0.7c0.8,0.2-0.1,0.9,0.2,1.2
		c0.3,0.2,1,0,1.2-0.1c0.5-0.1,0.9-0.7,1-1.1c0.2-0.5,0.9-2,1.2-2.4c0.3-0.4,1-2,1.3-2.6c0.4-0.5,1.8-2.9,2-3.3
		c0.1-0.4,0.7-0.9,0.8-1.2c0.1-0.3,0.4-1.2,0.8-1.9c0.4-0.7,1.4-2.2,1.5-2.5c0.1-0.3,0.9-2.1,1.1-2.6c0.3-0.6,1.2-1.8,1.5-2.4
		c0.2-0.6,0.9-1.9,0.9-1.9l0.7-1.1c0,0,0.2-0.5,0.6-1.2c0.3-0.7,1.3-2.2,1.6-2.7c0.3-0.5,1.1-1.6,1.1-1.6l0.6-1.3l0.5-1
		c0,0,0.4-1.2,0.6-1.5c0.2-0.3,0.8-1.1,1-1.5c0.2-0.4,0.7-2.3,1-2.8c0.3-0.6,1.6-2.9,1.8-3.4c0.1-0.5,1.5-2.9,1.7-3.5
		c0.1-0.5,0.2-1.2,0.4-1.5c0.2-0.3,0.7-1.2,0.8-1.4c0.1-0.2,1-2.4,1.2-2.8c0.1-0.3,0.2-0.9,0.6-0.9c0.4,0,0.6,0.4,0.9,0.7
		c0.3,0.4,0.8,0.3,1.2,0.6c0.3,0.3,1.4,1.5,1.4,1.7c0,0.2,0.6,0.2,0.8,0.4c0.1,0.2,0.2,0.6,0.4,0.7c0.2,0.1,1.1,0.7,1.3,1
		c0.2,0.3,0.4,0.8,0.6,1c0.2,0.2,1.3,0.8,1.4,1.1c0.1,0.3,1.7,2.1,1.8,2.4c0.2,0.3,0.3,0.9,0.5,1.1c0.1,0.2,0.7,0.6,0.7,0.8
		c0,0.2,0.1,1.1,0.2,1.3c0.1,0.2,0.8,0.5,0.9,0.7c0.1,0.2,0.4,1.1,0.5,1.2c0.1,0.1,0.4,0.3,0.5,0.5c0.1,0.2,0.2,1.2,0.3,1.4
		c0.1,0.2,0.6,1,0.7,1.3c0.1,0.3,0.6,0.9,0.7,1.2c0.1,0.2,0.1,1.2,0.2,1.5c0.1,0.3,0.5,1,0.6,1.2c0,0.2,0.1,0.7,0.1,0.7l0.4,0.9
		c0,0,0.4,0.9,0.4,1.2c0,0.3,0.1,0.7,0.1,0.9c0,0.2,0.4,0.8,0.4,1s0.5,1.2,0.5,1.2s-0.1,0.9,0,1.2c0.1,0.2,0.5,0.9,0.5,1.1
		c0,0.2-0.1,0.8-0.1,0.8l0.2,0.4c0,0-0.1,0.5,0,0.7c0.1,0.2-0.1,0.6,0,0.7c0.1,0.1,0.5,1.1,0.5,1.1c-0.3,0.3-19.5,9.2-27.8,13.1
		c-11.9,5.5-36.6,17.9-39.2,19.4c-2.6,1.5-4.3,2.4-4.9,2.1c-1.5-0.8-3.8-2.9-5.5-7.4c-1.4-3.8-1.4-7-1.3-8.6c0.1-1.2,0-2.1,1.8-3.2
		C58.4,155.3,61.8,153.4,63.5,152.4"></path>
	<path class="logo-ar-red" d="M29.3,84.3c0.1,0.2,0.5,0.2,0.8,0.2c0.2,0,0.5,0.3,0.7,0.4c0.2,0,0.5-0.1,0.6,0c0.3,0.2,0.2,0.5,0.4,0.8
		c0.2,0.3,0.3,0.7,0.6,0.8c0.3,0.1,0.6,0,0.7,0.3c0.1,0.3-0.1,0.7,0.1,1.1c0.5,0.9,0.1,3.5,0.5,3.6c0.5,0.2,1.9-0.3,2.3-0.7
		c0.5-0.4,1.2-1.2,1.6-1.4c0.7-0.3,2.1-1.1,2.8-1.2c0.7-0.1,1-1.2,1.7-1.3c0.7-0.1,0.4-0.6,0.9-0.8c0.5-0.2,1.3-0.7,1.6-0.4
		c0.1,0.1,0.4,0.5,0.8,0.6c0.5,0.2,1-0.1,1.1,0.5c0.1,0.8,1.4,0.1,1.4,0.1s1.5-1,2.2-1.3c0.6-0.3,2.4-1.2,2.4-1.2s1.4-0.7,1.9-1
		c20.8-10,37.1-15.5,52.2-21.3c23.4-9.1,63.9-19.5,71.6-21.4c0.8-0.2,2.6-0.5,2.8-0.6c0.2-0.1,0.6-0.2,0.8-1c0.2-0.7-0.4-1.7-0.4-2.1
		c0-0.4,0.8-1.8,0.9-2.5c0.1-0.6-0.6-0.7-0.6-0.7s0.1-0.8-0.1-1.4c-0.2-0.6-1.2-1.1-1.4-1.6c-0.2-0.5,0-1.8-0.2-2.3
		c-0.2-0.5-0.7-0.8-0.7-0.8s0.1-0.2,0-0.6c-0.1-0.4-0.6-0.4-0.6-0.4s0.2-0.9,0.1-1.2c-0.1-0.3-0.6-0.6-0.6-0.6s-0.6-0.4-0.6-0.7
		c0-0.4-0.1-0.6-0.4-0.8c-0.3-0.2-1.1-0.2-1.4-0.3c-0.3-0.1-0.9-0.3-1.4-0.2c-0.5,0.1-0.6,0.5-1.9,0.7c-1.3,0.3-1.8,0-2.4,0.1
		c-0.6,0.1-1.2,0.5-1.8,0.6c-6.3,1.6-35,10-56.2,18c-19.7,7.4-43.2,18.1-57.5,25.5c-10.8,5.6-16.6,8.9-19,10.4
		c-1.2,0.8-2.6,1.7-2.8,2c-0.3,0.6-0.7,1.4-1.4,1.5c-0.9,0.1-0.7,0.6-1,0.7c-0.3,0.1-0.7,0.4-1,0.7C29.1,83.7,29.2,84.1,29.3,84.3"></path>
	<path class="logo-ar-red" d="M118.8,71.4c-1-0.6-0.6-1.1,0.5-1.6c6.9-2.9,24.2-9.1,34.1-12.3c8.5-2.7,31.9-10.3,38.4-12.2
		c1.6-0.4,2.2-0.4,2.9,0.3c1.8,1.9,3.5,4.4,5.1,7.5c1.5,2.9,2.8,7.1,3.3,9.7c0.4,1.9-0.5,2.3-1.6,2.7c-7.2,3.2-25.1,11.1-32.6,14.6
		c-7.3,3.4-20.6,9.8-25.1,12.1c-1.9,1-1.6,1.3-2.9-0.1c-0.4-0.4-1-1.5-1.2-1.8c-0.2-0.3-2.7-2.5-3-2.8c-0.3-0.3-1.7-1.9-2-2.2
		c-0.4-0.3-1.6-1.9-1.9-2.1c-0.4-0.2-1-0.5-1.3-0.8c-0.3-0.3-0.8-0.9-1-1c-0.3-0.2-0.9-0.8-0.9-0.8l-0.9-0.8l-0.7-0.8
		c0,0-0.6-0.8-1.1-1c-0.5-0.2-1.1-0.9-1.3-1.2c-0.2-0.3-1.7-2.1-2.4-2.6c-0.7-0.5-2.5-1.6-2.9-1.9C120.1,72.2,119.6,71.9,118.8,71.4"></path>
	<path class="logo-ar-red" d="M145.2,96.7c-0.7-0.7,0.2-0.8,1-1.1c3-1.2,21.1-6.8,36.8-10.9c15.7-4.1,38.3-8.8,41.7-9.5
		c1.4-0.3,2-0.1,2.7,1.1c0.8,1.3,2.6,5.8,3.2,9.4c0.8,4.6,0,9.2-0.4,10.3c-0.3,0.9-1.6,1-4.7,1.8c-1.8,0.5-9.6,2.5-12.8,3.4
		c-3.7,1.1-13.5,3.9-17.1,5.1c-4.5,1.5-10.3,3.5-10.3,3.5l-31.1,0.5c0,0-0.5-2.1-0.7-2.3c-0.3-0.2-0.7-1.2-1-1.5
		c-0.3-0.3-0.6-1.3-0.6-1.3s-0.3-1.1-0.6-1.3c-0.3-0.2-0.9-1.8-1.2-2c-0.3-0.2-0.9-1-1.2-1.4c-0.3-0.4-0.4-0.8-0.9-1.2
		c-0.5-0.4-1-1.1-1.4-1.3C146.2,98,145.9,97.4,145.2,96.7"></path>
	<path class="logo-ar-red" d="M107.6,36.8c-0.9,0-1.7,0-1.9-0.2c-0.1-0.2,0-0.4-0.2-0.6c-0.2-0.2-0.7-0.1-0.8,0c-0.1,0.1-0.1,0.1-0.4,0.2
		c-0.3,0.1-1.5-0.3-1.9-0.2c-0.4,0.1-1.3,0.2-1.6,0c-0.3-0.2-0.4-1-0.9-1.2c-0.3-0.1-1.1-0.6-1.4-1.1c-0.3-0.5-1-1.2-1.2-1.5
		c-0.2-0.3-0.4-0.9-0.5-1.2c-0.1-0.3-0.4-0.9-0.5-1.1c-0.2-0.2-0.4-0.4-0.6-0.6c-0.2-0.2-0.3-0.9-0.5-1.1c-0.1-0.1-0.3-0.4-0.4-0.7
		c-0.1-0.2-0.1-0.5-0.2-0.7c-0.1-0.3-0.4-0.6-0.5-0.9c-0.1-0.2-0.2-1.9-0.1-3.1c0-1.2,0-2.3,0.1-2.9c0.1-0.5,0.4-1,0.5-1.5
		c0.1-0.5,0.8-2.2,0.9-3c0.2-0.8,0.6-2.3,0.8-2.8c0.2-0.5,0.8-1.9,1-2.4c0.3-0.4,1.3-2,1.7-2.5c0.4-0.5,2.3-2.4,2.8-2.8
		c0.4-0.3,1.5-1.1,1.8-1.3c0.2-0.1,1.5-1.1,2-1.3c0.3-0.2,0.8-0.2,0.8-0.2l0.4-0.5c0,0,0.2-0.3,0.5-0.4c0.2-0.2,0.8-0.2,0.8-0.2
		s0.7-0.5,1.4-0.4c0.3,0.1,0.5-0.5,0.8-0.6c0.3-0.1,1.3-0.2,1.4-0.1c0.1,0.1,0.3,0.3,0.9,0.4c0.6,0.1,1,0,1.2,0
		c0.3,0.1,0.6,0.4,0.8,0.5c0.2,0.1,2.7,2.4,3.1,3c0.1,0.2,0.2,0.6,0.2,0.7c0.1,0.2,0.5,0.5,0.7,1.1c0.1,0.5,0.6,0.7,0.7,1.4
		c0,0.4,0.8,0.8,1.1,1.7c0.1,0.2,0.2,1.1,0.2,1.2c0.1,0.1,0.3,0.2,0.4,0.5c0.1,0.3,0.2,0.8,0.1,1.1c0,0.4,0.7,1.8,0.6,2.7
		c-0.1,0.9-0.2,1.8-0.4,2.5c-0.2,0.7-0.1,1.9-0.2,2.4c-0.1,0.5-0.5,1.8-0.6,2.1c-0.1,0.4-1.1,3-1.3,3.3c-0.2,0.3-0.8,1.5-1.1,1.8
		c-0.3,0.3-2.4,3.3-2.8,3.7c-0.4,0.4-1.3,1.1-1.5,1.4c-0.3,0.4-0.5,0.8-0.7,1.3c-0.4,0.7-1,0.2-1.3,0.7c-0.4,0.7-1.1,0.8-1.2,1.2
		c-0.2,0.6-0.7,1.1-0.9,1.3C109.3,36.4,108.2,36.8,107.6,36.8"></path>
	<path class="logo-ar-red" d="M45.5,127.8c0,0-9.1,3.1-12.7,4.4c-3.4,1.2-7.2,2.6-9.8,3.6c-3.1,1.3-8.5,3.5-9.8,3.9c-2,0.7-2.9,0.3-3.4-0.9
		c-0.6-1.2-1.9-3.7-2.6-6.7c-0.7-3-1-5.4-1-6.3c0-0.9,0.7-2.5,1.8-3.1c1.1-0.6,3.8-2.2,5.9-3.4c4.1-2.3,18-9.8,26.3-14.1
		c8.8-4.6,22.7-11.3,30.2-15c7.5-3.7,19.7-9.5,21.2-10.1c1.5-0.6,3-1.4,3.8-1.4c0.7,0,0.5,0.4,0.5,0.6c0,0.3-0.3,0.4-0.3,0.9
		c-0.1,0.6,0,1.2-0.2,1.7c-0.2,0.5-0.7,1.1-0.8,1.4c-0.1,0.4-0.2,1.7-0.5,2.1c-0.4,0.5-1.7,3-2,4.2c-0.3,1.2-0.9,3.2-1.2,3.6
		c-0.3,0.5-1.2,2.2-1.2,2.7c-0.1,0.6-0.7,1.9-0.9,2.4c-0.2,0.6-1.3,2.6-1.5,3c-0.2,0.4-0.9,2.8-1.1,3.2c-0.2,0.4-0.9,1.5-0.9,1.5
		l-0.4,1.6c0,0-1,1.5-1,1.8c0,0.3-0.7,2.8-1.1,3.3c-0.4,0.5-2.1,4.5-2.5,5.9c-0.4,1.4-1,3.4-1.2,3.9c-0.2,0.5-1.2,2.1-1.4,2.7
		c-0.2,0.6-1,3.3-1.3,3.9c-0.3,0.6-1,2.1-1,2.7c0,0.6-0.6,1.8-1,2.8c-0.5,1-1,2.8-1.3,3.4c-0.3,0.6-0.6,1.1-0.7,1.5
		c-0.1,0.4-0.2,1.4-0.3,1.7c-0.1,0.3-0.3,0.7-0.3,0.7c-0.5,0.2-25.3,10.9-28.8,12.5c-3.5,1.7-28.7,13.6-30.2,14.3
		c-1.6,0.7-3.7,2.3-5.2,1.3c-2-1.4-3.9-4.2-5.2-6.7c-1.1-2.1-2.2-5.6-2.4-8.1c-0.2-3.2,1.1-3.8,5.8-6.5C8.1,147.5,26.2,138,32,135
		C33.6,134.1,45.5,127.8,45.5,127.8"></path>
</svg>